<svg width="57" height="56" viewBox="0 0 57 56" fill="none" xmlns="http://www.w3.org/2000/svg">
<path d="M50.0301 53.7231H6.03008C5.53391 53.7214 5.04244 53.6268 4.58108 53.4443L24.3573 39.5303C25.4398 40.269 26.7199 40.6641 28.0304 40.6642C29.3409 40.6643 30.621 40.2693 31.7037 39.5309L51.4792 53.4443C51.0178 53.6268 50.5263 53.7214 50.0301 53.7231Z" fill="#50A42A"/>
<path d="M54.0301 49.7231C54.0287 50.6183 53.7254 51.4869 53.1691 52.1882L33.3888 38.2714L54.0301 22.2271V49.7231Z" fill="#50A42A"/>
<path d="M2.03008 49.7231V22.2273L22.6692 38.2729L2.89098 52.1882C2.33469 51.4869 2.03136 50.6183 2.03008 49.7231Z" fill="#50A42A"/>
<path d="M49.0301 16.8943L53.3874 20.1935L49.0301 23.5811V16.8943Z" fill="#50A42A"/>
<path d="M7.03008 16.8943V23.5803L2.6729 20.1934L7.03008 16.8943Z" fill="#50A42A"/>
<path d="M25.6151 2.80909C26.3107 2.28313 27.159 1.99862 28.031 1.9988C28.9031 1.99898 29.7512 2.28384 30.4466 2.81009L32.973 4.72317H23.0873L25.6151 2.80909Z" fill="#50A42A"/>
<path d="M9.03008 7.72315C9.03042 7.45804 9.13589 7.20388 9.32335 7.01642C9.51081 6.82896 9.76497 6.72349 10.0301 6.72315H46.0301C46.2952 6.72349 46.5493 6.82896 46.7368 7.01642C46.9243 7.20388 47.0297 7.45804 47.0301 7.72315V25.136L31.1048 37.5171C30.2867 38.2276 29.2472 38.6321 28.164 38.6613C27.0808 38.6905 26.021 38.3426 25.1658 37.6772L9.03008 25.1349V7.72315Z" fill="#50A42A"/>
<path fill-rule="evenodd" clip-rule="evenodd" d="M55.6336 19.3857L49.0301 14.3857V7.72315C49.0292 6.92776 48.7129 6.16521 48.1504 5.60279C47.588 5.04037 46.8255 4.72402 46.0301 4.72315H36.2859L31.6551 1.21632C30.6116 0.427233 29.3392 0.000180538 28.031 5.72293e-08C26.7228 -0.000180423 25.4502 0.426521 24.4065 1.21532L19.7742 4.72315H10.0301C9.2347 4.72402 8.47214 5.04037 7.90972 5.60279C7.3473 6.16521 7.03095 6.92776 7.03008 7.72315V14.3857L0.426559 19.3857C0.215976 19.5621 0.081995 19.8133 0.0527984 20.0864C-0.0882916 20.1625 0.106799 49.6294 0.0298685 49.7232C0.0392398 51.3117 0.67443 52.8324 1.79768 53.9556C2.92094 55.0787 4.44169 55.7138 6.03013 55.7231H50.0301C51.621 55.7218 53.1464 55.0892 54.2713 53.9643C55.3963 52.8394 56.0288 51.314 56.0301 49.7231V20.1831C56.0302 20.0286 55.9944 19.8762 55.9256 19.7378C55.8568 19.5995 55.7568 19.479 55.6336 19.3857ZM53.3874 20.1935L49.0301 16.8943V23.5811L53.3874 20.1935ZM28.031 1.9988C27.159 1.99862 26.3107 2.28313 25.6151 2.80909L23.0873 4.72317H32.973L30.4466 2.81009C29.7512 2.28384 28.9031 1.99898 28.031 1.9988ZM9.32335 7.01642C9.13589 7.20388 9.03042 7.45804 9.03008 7.72315V25.1349L25.1658 37.6772C26.021 38.3426 27.0808 38.6905 28.164 38.6613C29.2472 38.6321 30.2867 38.2276 31.1048 37.5171L47.0301 25.136V7.72315C47.0297 7.45804 46.9243 7.20388 46.7368 7.01642C46.5493 6.82896 46.2952 6.72349 46.0301 6.72315H10.0301C9.76497 6.72349 9.51081 6.82896 9.32335 7.01642ZM7.03008 23.5803V16.8943L2.6729 20.1934L7.03008 23.5803ZM2.03008 22.2273V49.7231C2.03136 50.6183 2.33469 51.4869 2.89098 52.1882L22.6692 38.2729L2.03008 22.2273ZM6.03008 53.7231H50.0301C50.5263 53.7214 51.0178 53.6268 51.4792 53.4443L31.7037 39.5309C30.621 40.2693 29.3409 40.6643 28.0304 40.6642C26.7199 40.6641 25.4398 40.269 24.3573 39.5303L4.58108 53.4443C5.04244 53.6268 5.53391 53.7214 6.03008 53.7231ZM53.1691 52.1882C53.7254 51.4869 54.0287 50.6183 54.0301 49.7231V22.2271L33.3888 38.2714L53.1691 52.1882Z" fill="#EAEAEA"/>
<path d="M28.047 32.6875C29.3067 32.7292 34.3609 31.9292 33.3963 29.9806C33.3305 29.8668 33.243 29.7671 33.1387 29.6872C33.0344 29.6073 32.9154 29.5488 32.7885 29.5149C32.6615 29.481 32.5292 29.4725 32.3989 29.4898C32.2687 29.5071 32.1431 29.5499 32.0295 29.6157C27.5401 32.3883 21.0332 29.5234 20.18 24.2606C18.4534 13.799 33.4857 10.791 35.8801 21.11C36.2915 23.0199 36.0985 25.945 33.5298 25.8571L33.53 19.3106C33.53 19.0454 33.4246 18.791 33.2371 18.6035C33.0495 18.4159 32.7952 18.3106 32.53 18.3106C32.3857 18.3119 32.2436 18.3448 32.1135 18.4071C31.9834 18.4694 31.8687 18.5595 31.7773 18.6711C30.7626 17.7173 29.4225 17.186 28.03 17.1856C20.7622 17.4166 20.7623 27.9552 28.0301 28.1856C29.1795 28.1854 30.2996 27.8227 31.231 27.1492C31.835 27.5401 32.5261 27.7758 33.2431 27.8356C33.96 27.8953 34.6807 27.7771 35.341 27.4915C36.0014 27.2059 36.581 26.7617 37.0285 26.1984C37.476 25.635 37.7775 24.9699 37.9064 24.2621C38.0894 23.0926 38.0686 21.9002 37.8449 20.7378C36.4902 12.9912 26.3688 9.96758 20.9586 15.615C14.6705 21.7637 19.2016 32.8131 28.047 32.6875ZM28.03 26.1856C27.1085 26.1752 26.2283 25.8019 25.5803 25.1466C24.9324 24.4914 24.569 23.607 24.569 22.6855C24.569 21.764 24.9325 20.8797 25.5804 20.2244C26.2284 19.5692 27.1086 19.1959 28.0301 19.1856C28.9515 19.1959 29.8317 19.5692 30.4797 20.2245C31.1276 20.8798 31.491 21.7641 31.491 22.6856C31.491 23.6071 31.1275 24.4915 30.4796 25.1467C29.8316 25.802 28.9514 26.1753 28.03 26.1856Z" fill="#EAEAEA"/>
</svg>
