<svg width="42" height="64" viewBox="0 0 42 64" fill="none" xmlns="http://www.w3.org/2000/svg">
<path d="M28.48 44.91L37.57 30.76C41.58 24.52 41.85 16.91 38.29 10.4C34.73 3.89 28.18 0 20.76 0C13.34 0 6.79 3.89 3.23 10.4C-0.329999 16.9 -0.0600004 24.51 3.95 30.76L13.03 44.9C5.07 46.31 0 49.85 0 54.12C0.01 59.84 8.73 64 20.76 64C32.79 64 41.51 59.84 41.51 54.12C41.51 49.83 36.45 46.3 28.48 44.91ZM29.38 18.85C29.38 23.59 25.51 27.45 20.76 27.45C16.01 27.45 12.14 23.59 12.14 18.85C12.14 14.1 16.01 10.23 20.76 10.23C25.51 10.23 29.38 14.09 29.38 18.85ZM19.34 54.72C19.65 55.21 20.18 55.5 20.76 55.5C21.35 55.5 21.88 55.21 22.18 54.73L25.6 49.4C32.96 50.27 36.65 52.89 36.65 54.12C36.65 55.62 31.24 59.14 20.76 59.14C10.28 59.14 4.87 55.62 4.87 54.12C4.87 52.89 8.56 50.28 15.92 49.4L19.34 54.72Z" fill="#50A42A"/>
</svg>
