<svg width="90" height="90" viewBox="0 0 90 90" fill="none" xmlns="http://www.w3.org/2000/svg">
<path fill-rule="evenodd" clip-rule="evenodd" d="M52.7011 88.12C59.1241 89.992 65.6051 90.985 70.6311 88.592C73.5491 87.203 75.9781 84.672 77.6211 80.51C78.2561 78.902 77.7161 77.122 76.2941 76.138L59.0201 64.176C57.3571 63.024 55.0611 63.44 53.9071 65.102L49.8261 70.98C48.8101 72.443 46.9411 72.967 45.3131 72.243C30.9161 65.848 24.1551 59.086 17.7591 44.69C17.0361 43.062 17.5591 41.193 19.0221 40.177L24.8991 36.096C26.5611 34.942 26.9771 32.647 25.8251 30.983L13.8631 13.709C12.8791 12.288 11.0991 11.748 9.49107 12.382C5.32907 14.025 2.79807 16.454 1.40907 19.372C-0.983926 24.399 0.00907326 30.879 1.88107 37.302C9.84607 64.63 25.3701 80.154 52.6981 88.119L52.7011 88.12ZM90.0031 48.295C90.0031 49.009 89.4241 49.589 88.7091 49.589C87.9941 49.589 87.4151 49.01 87.4151 48.295C87.4151 35.673 82.2991 24.247 74.0281 15.975C65.7571 7.703 54.3311 2.588 41.7091 2.588C40.9951 2.588 40.4151 2.009 40.4151 1.294C40.4151 0.579 40.9941 0 41.7091 0C55.0451 0 67.1181 5.406 75.8581 14.145C84.5971 22.884 90.0031 34.959 90.0031 48.295ZM60.9321 48.295C60.9321 49.009 60.3531 49.589 59.6381 49.589C58.9231 49.589 58.3441 49.01 58.3441 48.295C58.3441 43.701 56.4821 39.542 53.4721 36.531C50.4621 33.521 46.3021 31.659 41.7081 31.659C40.9941 31.659 40.4141 31.08 40.4141 30.365C40.4141 29.65 40.9931 29.071 41.7081 29.071C47.0161 29.071 51.8221 31.223 55.3011 34.701C58.7801 38.18 60.9311 42.986 60.9311 48.294L60.9321 48.295ZM75.4671 48.295C75.4671 49.009 74.8881 49.589 74.1731 49.589C73.4581 49.589 72.8791 49.01 72.8791 48.295C72.8791 39.687 69.3901 31.894 63.7491 26.253C58.1081 20.612 50.3151 17.123 41.7071 17.123C40.9931 17.123 40.4131 16.544 40.4131 15.829C40.4131 15.114 40.9921 14.535 41.7071 14.535C51.0291 14.535 59.4691 18.314 65.5781 24.423C71.6871 30.532 75.4661 38.972 75.4661 48.294L75.4671 48.295Z" fill="white"/>
</svg>
