<svg width="545" height="501" viewBox="0 0 545 501" fill="none" xmlns="http://www.w3.org/2000/svg">
<path d="M13.9652 258.393C13.9652 258.393 16.9258 350.156 93.5266 411.317C170.129 472.479 276.273 476.859 362.204 482.669C448.134 488.479 514.136 439.834 524.084 366.3C534.031 292.767 468.37 271.181 432.745 187.476C397.119 103.771 400.289 76.2577 324.909 24.7749C249.53 -26.7066 131.611 4.90559 69.7861 93.1017C7.9612 181.299 13.9652 258.393 13.9652 258.393Z" fill="#92E3A9"/>
<path opacity="0.7" d="M13.9652 258.393C13.9652 258.393 16.9258 350.156 93.5266 411.317C170.129 472.479 276.273 476.859 362.204 482.669C448.134 488.479 514.136 439.834 524.084 366.3C534.031 292.767 468.37 271.181 432.745 187.476C397.119 103.771 400.289 76.2577 324.909 24.7749C249.53 -26.7066 131.611 4.90559 69.7861 93.1017C7.9612 181.299 13.9652 258.393 13.9652 258.393Z" fill="#263238"/>
<path d="M387.679 445.848C437.824 445.848 478.476 433.786 478.476 418.905C478.476 404.025 437.824 391.962 387.679 391.962C337.533 391.962 296.881 404.025 296.881 418.905C296.881 433.786 337.533 445.848 387.679 445.848Z" fill="#7DC291" stroke="#7DC291" stroke-width="1.1599" stroke-miterlimit="10" stroke-linecap="round" stroke-linejoin="round"/>
<path d="M387.679 404.357C430.634 404.357 466.597 413.212 476.035 425.104C477.615 423.113 478.476 421.04 478.476 418.907C478.476 404.026 437.824 391.964 387.679 391.964C337.533 391.964 296.882 404.026 296.882 418.907C296.882 421.041 297.743 423.113 299.322 425.104C308.76 413.211 344.723 404.357 387.679 404.357Z" fill="white" stroke="#7DC291" stroke-width="1.1599" stroke-miterlimit="10" stroke-linecap="round" stroke-linejoin="round"/>
<path d="M375.285 442.463C344.959 441.089 322.068 434.878 322.068 427.423C322.068 426.642 322.319 425.875 322.804 425.126" stroke="white" stroke-width="1.1599" stroke-miterlimit="10" stroke-linecap="round" stroke-linejoin="round"/>
<path d="M445.675 420.035C450.869 422.226 453.826 424.744 453.826 427.423C453.826 435.886 424.331 442.745 387.946 442.745C387.422 442.745 386.901 442.743 386.38 442.741" stroke="white" stroke-width="1.1599" stroke-miterlimit="10" stroke-linecap="round" stroke-linejoin="round"/>
<path d="M330.934 419.741C342.338 415.173 363.601 412.101 387.948 412.101C403.584 412.101 417.948 413.367 429.245 415.485" stroke="white" stroke-width="1.1599" stroke-miterlimit="10" stroke-linecap="round" stroke-linejoin="round"/>
<path d="M374.419 432.684C366.737 431.613 361.596 429.658 361.596 427.424C361.596 424.039 373.394 421.296 387.948 421.296C402.501 421.296 414.3 424.039 414.3 427.424C414.3 430.328 405.621 432.759 393.967 433.393" stroke="white" stroke-width="1.1599" stroke-miterlimit="10" stroke-linecap="round" stroke-linejoin="round"/>
<path d="M23.0386 310.619C62.6337 299.374 145.958 277.164 191.941 275.493C253.715 273.246 358.171 318.174 423.316 326.035C488.461 333.896 532.264 331.651 532.264 331.651" stroke="#263238" stroke-width="1.1599" stroke-miterlimit="10" stroke-linecap="round" stroke-linejoin="round"/>
<path d="M1 317.048C1 317.048 4.42235 316.007 10.4199 314.253" stroke="#263238" stroke-width="1.1599" stroke-miterlimit="10" stroke-linecap="round" stroke-linejoin="round"/>
<path d="M514.668 247.044C498.724 243.552 473.53 239.513 445.128 240.465C396.808 242.083 344.57 248.48 279.877 256.812C215.183 265.144 123.154 219.094 60.5561 236.177C-2.04223 253.26 2.68388 258.413 2.68388 258.413" stroke="#263238" stroke-width="1.1599" stroke-miterlimit="10" stroke-linecap="round" stroke-linejoin="round"/>
<path d="M532.48 251.671C532.48 251.671 530.041 250.869 525.627 249.692" stroke="#263238" stroke-width="1.1599" stroke-miterlimit="10" stroke-linecap="round" stroke-linejoin="round"/>
<path d="M416.552 132.9C415.159 127.206 410.037 122.975 403.914 122.975C397.792 122.975 392.67 127.206 391.277 132.9H416.552Z" stroke="#263238" stroke-width="1.1599" stroke-miterlimit="10" stroke-linecap="round" stroke-linejoin="round"/>
<path d="M544.262 132.9C542.716 126.372 537.216 121.377 530.421 120.606C530.838 118.357 531.067 116.041 531.067 113.672C531.067 92.7757 514.127 75.8359 493.232 75.8359C474.608 75.8359 459.138 89.2964 455.992 107.017C451.89 103.814 446.74 101.886 441.131 101.886C427.771 101.886 416.942 112.716 416.942 126.076C416.942 128.448 417.297 130.733 417.934 132.898H544.262V132.9Z" stroke="#263238" stroke-width="1.1599" stroke-miterlimit="10" stroke-linecap="round" stroke-linejoin="round"/>
<path d="M191.602 163.246C190.894 160.355 188.294 158.208 185.186 158.208C182.078 158.208 179.478 160.355 178.771 163.246H191.602Z" stroke="#263238" stroke-width="1.1599" stroke-miterlimit="10" stroke-linecap="round" stroke-linejoin="round"/>
<path d="M256.431 163.246C255.646 159.932 252.855 157.397 249.405 157.005C249.617 155.863 249.732 154.687 249.732 153.484C249.732 142.877 241.134 134.277 230.525 134.277C221.071 134.277 213.218 141.11 211.621 150.106C209.539 148.48 206.925 147.501 204.076 147.501C197.295 147.501 191.797 152.999 191.797 159.78C191.797 160.985 191.978 162.145 192.3 163.244L256.431 163.246Z" stroke="#263238" stroke-width="1.1599" stroke-miterlimit="10" stroke-linecap="round" stroke-linejoin="round"/>
<path d="M249.905 183.544C249.459 181.72 247.817 180.365 245.855 180.365C243.893 180.365 242.252 181.72 241.805 183.544H249.905Z" stroke="#263238" stroke-width="1.1599" stroke-miterlimit="10" stroke-linecap="round" stroke-linejoin="round"/>
<path d="M290.823 183.544C290.328 181.453 288.565 179.853 286.388 179.606C286.521 178.885 286.595 178.143 286.595 177.384C286.595 170.689 281.168 165.26 274.472 165.26C268.505 165.26 263.548 169.573 262.54 175.251C261.226 174.224 259.575 173.607 257.779 173.607C253.499 173.607 250.029 177.077 250.029 181.357C250.029 182.116 250.143 182.85 250.347 183.543L290.823 183.544Z" stroke="#263238" stroke-width="1.1599" stroke-miterlimit="10" stroke-linecap="round" stroke-linejoin="round"/>
<path d="M162.79 328.414C162.377 328.414 161.96 328.307 161.577 328.083C160.42 327.4 160.027 325.894 160.698 324.717C161.314 323.639 316.799 154.085 387.941 91.9067C388.448 91.4643 389.213 91.5238 389.647 92.0386C390.083 92.5533 390.025 93.3307 389.518 93.7743C318.683 155.685 165.497 326.118 164.885 327.19C164.438 327.975 163.625 328.414 162.79 328.414Z" fill="#263238"/>
<path d="M171.37 294.654C171.37 294.654 179.082 286.43 183.708 286.43C188.335 286.43 197.074 294.141 196.56 298.253C196.046 302.366 188.335 298.766 188.335 298.766C188.335 298.766 181.138 308.534 173.94 306.991C166.744 305.451 171.37 294.654 171.37 294.654Z" fill="#7DC291" stroke="#263238" stroke-width="1.1599" stroke-miterlimit="10" stroke-linecap="round" stroke-linejoin="round"/>
<path d="M188.335 298.768C188.335 298.768 193.053 302.03 193.472 304.333C193.891 306.637 188.238 313.127 181.957 314.592C175.676 316.058 172.326 312.498 174.211 309.148C176.095 305.799 183.616 299.065 188.335 298.768Z" fill="#7DC291" stroke="#263238" stroke-width="1.1599" stroke-miterlimit="10" stroke-linecap="round" stroke-linejoin="round"/>
<path d="M382.047 268.974V98.8381C382.047 98.8381 378.616 111.154 378.616 112.043" stroke="#263238" stroke-width="1.1599" stroke-miterlimit="10" stroke-linecap="round" stroke-linejoin="round"/>
<path d="M452.995 277.942H322.532V382.476H452.995V277.942Z" fill="#7DC291" stroke="#263238" stroke-width="1.1599" stroke-miterlimit="10" stroke-linecap="round" stroke-linejoin="round"/>
<path d="M383.902 277.496V271.515C383.902 270.686 383.231 270.015 382.402 270.015C381.573 270.015 380.901 270.686 380.901 271.515V277.496H383.902Z" fill="#263238"/>
<path d="M395.923 262.937L395.898 263.235C395.638 262.79 395.175 262.476 394.622 262.476C393.793 262.476 393.121 263.147 393.121 263.976V279.967C393.121 282.508 391.054 284.578 388.512 284.578C387.858 284.578 387.238 284.437 386.674 284.191C386.273 284.772 385.878 285.892 387.059 287.432C387.53 287.524 388.014 287.578 388.51 287.578C392.706 287.578 396.119 284.165 396.119 279.967V272.557H399.56L395.923 262.937Z" fill="#263238"/>
<path d="M382.169 97.242C382.169 97.242 384.833 87.7691 382.465 88.6577C380.097 89.545 382.169 97.242 382.169 97.242Z" stroke="#263238" stroke-width="1.1599" stroke-miterlimit="10" stroke-linecap="round" stroke-linejoin="round"/>
<path d="M382.169 97.2421C382.169 97.2421 372.104 93.6904 372.992 96.9459C373.881 100.201 382.169 97.2421 382.169 97.2421Z" stroke="#263238" stroke-width="1.1599" stroke-miterlimit="10" stroke-linecap="round" stroke-linejoin="round"/>
<path d="M165.226 179.778C165.226 179.778 152.808 172.823 128.468 176.301C104.129 179.778 99.4831 199.859 103.456 220.722C107.43 241.585 130.455 259.254 133.932 257.764C137.408 256.274 132.938 209.581 140.886 200.641C148.834 191.699 174.664 193.189 176.154 186.236C177.645 179.281 165.226 179.778 165.226 179.778Z" fill="#263238" stroke="#263238" stroke-width="1.1599" stroke-miterlimit="10" stroke-linecap="round" stroke-linejoin="round"/>
<path d="M121.957 192.169L124.486 208.605C124.486 208.605 108.892 251.171 111.421 257.072C113.95 262.972 137.55 265.079 137.55 265.079C137.55 265.079 175.901 269.715 187.281 265.079C198.66 260.444 192.759 246.957 191.494 243.164C190.231 239.372 183.065 209.027 183.065 209.027C183.065 209.027 185.594 201.863 185.594 198.069C185.594 194.277 185.172 183.74 183.487 181.211C181.802 178.682 152.3 175.732 139.236 177.839C126.172 179.946 120.272 183.318 121.957 192.169Z" fill="#263238" stroke="#263238" stroke-width="1.1599" stroke-miterlimit="10" stroke-linecap="round" stroke-linejoin="round"/>
<path d="M128.701 211.134C128.701 211.134 128.279 247.8 130.386 254.964C132.493 262.128 140.922 270.557 158.623 268.45C176.323 266.343 178.01 249.485 178.01 249.485L176.745 210.291L128.701 211.134Z" fill="white" stroke="#263238" stroke-width="1.1599" stroke-miterlimit="10" stroke-linecap="round" stroke-linejoin="round"/>
<path d="M155.883 240.635C157.629 240.635 159.044 239.22 159.044 237.474C159.044 235.728 157.629 234.313 155.883 234.313C154.137 234.313 152.722 235.728 152.722 237.474C152.722 239.22 154.137 240.635 155.883 240.635Z" stroke="#263238" stroke-width="1.1599" stroke-miterlimit="10"/>
<path d="M158.623 250.75C158.623 251.914 157.68 252.857 156.516 252.857C155.352 252.857 154.409 251.914 154.409 250.75C154.409 249.586 155.353 248.643 156.516 248.643C157.68 248.642 158.623 249.586 158.623 250.75Z" fill="#263238"/>
<path d="M145.893 223.959C147.242 225.407 147.713 227.159 146.947 227.873C146.18 228.587 144.466 227.992 143.117 226.545C141.769 225.097 141.297 223.345 142.063 222.631C142.83 221.917 144.544 222.512 145.893 223.959Z" fill="#263238"/>
<path d="M163.012 223.959C161.663 225.407 161.193 227.159 161.958 227.873C162.725 228.587 164.439 227.992 165.788 226.545C167.136 225.097 167.608 223.345 166.842 222.631C166.077 221.917 164.36 222.512 163.012 223.959Z" fill="#263238"/>
<path d="M136.89 218.986C136.89 218.986 139.667 214.359 145.684 215.746" stroke="#263238" stroke-width="1.1599" stroke-miterlimit="10" stroke-linecap="round" stroke-linejoin="round"/>
<path d="M162.344 216.209C162.344 216.209 168.361 214.358 170.212 219.449" stroke="#263238" stroke-width="1.1599" stroke-miterlimit="10" stroke-linecap="round" stroke-linejoin="round"/>
<path d="M182.64 451.395C182.64 451.395 189.268 447.419 192.936 445.856C193.325 445.691 193.682 445.551 193.992 445.448C197.236 444.366 206.427 444.907 215.078 439.501C223.728 434.094 219.403 427.606 212.915 425.985C206.427 424.363 199.399 422.2 199.399 422.2L197.777 396.79C197.777 396.79 178.314 402.196 171.826 404.899C165.338 407.603 169.123 445.987 169.663 449.232C170.205 452.476 170.205 454.639 182.64 451.395Z" fill="#263238" stroke="#263238" stroke-width="1.1599" stroke-miterlimit="10" stroke-linecap="round" stroke-linejoin="round"/>
<path d="M204.266 439.5C192.912 441.663 192.912 443.826 180.477 445.988C175.199 446.906 171.687 447.042 169.379 446.897C169.502 448.045 169.604 448.869 169.664 449.232C170.205 452.476 170.205 454.638 182.64 451.395C182.64 451.395 189.267 447.419 192.935 445.856C193.325 445.691 193.682 445.551 193.992 445.448C197.236 444.366 206.427 444.907 215.077 439.5C217.849 437.769 219.276 435.927 219.739 434.168C215.718 436.105 210.143 438.38 204.266 439.5Z" fill="white" stroke="#263238" stroke-width="1.1599" stroke-miterlimit="10" stroke-linecap="round" stroke-linejoin="round"/>
<path d="M208.775 425.649C208.775 425.649 208.353 455.151 207.511 461.472C206.668 467.794 207.933 475.801 217.625 475.801C227.318 475.801 246.283 469.48 253.027 468.216C259.77 466.951 270.728 464.002 275.364 453.464C280 442.928 251.764 444.193 251.764 444.193L253.449 422.699C253.449 422.699 224.369 428.6 208.775 425.649Z" fill="#263238" stroke="#263238" stroke-width="1.1599" stroke-miterlimit="10" stroke-linecap="round" stroke-linejoin="round"/>
<path d="M275.363 453.464C275.92 452.199 275.993 451.108 275.707 450.161C273.604 453.046 270.06 456.588 264.405 458.943C254.291 463.158 235.325 467.794 220.996 469.901C214.446 470.863 210.293 469.797 207.693 468.36C208.619 472.441 211.35 475.8 217.624 475.8C227.317 475.8 246.282 469.478 253.026 468.214C259.77 466.951 270.727 464 275.363 453.464Z" fill="white" stroke="#263238" stroke-width="1.1599" stroke-miterlimit="10" stroke-linecap="round" stroke-linejoin="round"/>
<path d="M251.762 444.193C251.762 444.193 253.869 451.357 247.969 455.994" stroke="white" stroke-width="1.1599" stroke-miterlimit="10" stroke-linecap="round" stroke-linejoin="round"/>
<path d="M205.825 410.056C205.825 410.056 205.175 422.877 205.887 425.445C208.591 435.177 209.446 432.895 229.676 432.474C249.905 432.052 258.085 423.964 260.192 418.907C262.299 413.85 260.192 402.892 259.349 399.099C258.506 395.306 251.763 394.041 249.235 394.463C246.705 394.883 207.089 405.841 205.825 410.056Z" fill="#263238" stroke="#263238" stroke-width="1.1599" stroke-miterlimit="10" stroke-linecap="round" stroke-linejoin="round"/>
<path d="M66.748 442.085V470.412C66.748 472.687 68.0169 474.771 70.0385 475.815L115.561 499.322C117.206 500.172 119.148 500.225 120.838 499.468L187.904 473.905C190.09 472.925 191.497 470.753 191.497 468.358V434.079L114.794 457.258L66.748 442.085Z" fill="#7DC291"/>
<mask id="mask0_38_3432" style="mask-type:luminance" maskUnits="userSpaceOnUse" x="66" y="434" width="126" height="66">
<path d="M66.748 442.085V470.412C66.748 472.687 68.0169 474.771 70.0385 475.815L115.561 499.322C117.206 500.172 119.148 500.225 120.838 499.468L187.904 473.905C190.09 472.925 191.497 470.753 191.497 468.358V434.079L114.794 457.258L66.748 442.085Z" fill="white"/>
</mask>
<g mask="url(#mask0_38_3432)">
<path opacity="0.18" d="M118.165 456.239L114.793 457.258L66.748 442.086V470.413C66.748 472.688 68.0169 474.772 70.0385 475.816L115.561 499.323C116.379 499.745 117.269 499.969 118.165 499.996V456.239Z" fill="black"/>
</g>
<path d="M66.748 442.085V470.412C66.748 472.687 68.0169 474.771 70.0385 475.815L115.561 499.322C117.206 500.172 119.148 500.225 120.838 499.468L187.904 473.905C190.09 472.925 191.497 470.753 191.497 468.358V434.079L114.794 457.258L66.748 442.085Z" stroke="#263238" stroke-width="1.1599" stroke-miterlimit="10" stroke-linecap="round" stroke-linejoin="round"/>
<path d="M136.82 394.276L63.2533 417.849C62.0724 418.228 61.2705 419.326 61.2705 420.567V441.548C61.2705 442.649 61.903 443.651 62.8963 444.125L114.122 468.536C114.82 468.869 115.623 468.904 116.349 468.633L193.435 439.828C194.551 439.412 195.29 438.346 195.29 437.155L195.425 417.479C195.425 416.138 194.492 414.978 193.181 414.691L138.301 394.204C137.811 394.097 137.298 394.122 136.82 394.276Z" fill="white"/>
<mask id="mask1_38_3432" style="mask-type:luminance" maskUnits="userSpaceOnUse" x="61" y="394" width="135" height="75">
<path d="M136.82 394.276L63.2533 417.849C62.0724 418.228 61.2705 419.326 61.2705 420.567V441.548C61.2705 442.649 61.903 443.651 62.8963 444.125L114.122 468.536C114.82 468.869 115.623 468.904 116.349 468.633L193.435 439.828C194.551 439.412 195.29 438.346 195.29 437.155L195.425 417.479C195.425 416.138 194.492 414.978 193.181 414.691L138.301 394.204C137.811 394.097 137.298 394.122 136.82 394.276Z" fill="white"/>
</mask>
<g mask="url(#mask1_38_3432)">
<path d="M114.096 468.525L114.122 468.536C114.82 468.869 115.623 468.904 116.349 468.633L193.435 439.828C194.551 439.411 195.29 438.346 195.29 437.154L195.425 417.479C195.425 416.789 195.175 416.148 194.755 415.648L115.215 445.035L114.096 468.525Z" fill="#7DC291"/>
</g>
<mask id="mask2_38_3432" style="mask-type:luminance" maskUnits="userSpaceOnUse" x="61" y="394" width="135" height="75">
<path d="M136.82 394.276L63.2533 417.849C62.0724 418.228 61.2705 419.326 61.2705 420.567V441.548C61.2705 442.649 61.903 443.651 62.8963 444.125L114.122 468.536C114.82 468.869 115.623 468.904 116.349 468.633L193.435 439.828C194.551 439.412 195.29 438.346 195.29 437.155L195.425 417.479C195.425 416.138 194.492 414.978 193.181 414.691L138.301 394.204C137.811 394.097 137.298 394.122 136.82 394.276Z" fill="white"/>
</mask>
<g mask="url(#mask2_38_3432)">
<path opacity="0.5" d="M114.096 468.525L114.122 468.536C114.82 468.869 115.623 468.904 116.349 468.633L193.435 439.828C194.551 439.411 195.29 438.346 195.29 437.154L195.425 417.479C195.425 416.789 195.175 416.148 194.755 415.648L115.215 445.035L114.096 468.525Z" fill="white"/>
</g>
<mask id="mask3_38_3432" style="mask-type:luminance" maskUnits="userSpaceOnUse" x="61" y="394" width="135" height="75">
<path d="M136.82 394.276L63.2533 417.849C62.0724 418.228 61.2705 419.326 61.2705 420.567V441.548C61.2705 442.649 61.903 443.651 62.8963 444.125L114.122 468.536C114.82 468.869 115.623 468.904 116.349 468.633L193.435 439.828C194.551 439.412 195.29 438.346 195.29 437.155L195.425 417.479C195.425 416.138 194.492 414.978 193.181 414.691L138.301 394.204C137.811 394.097 137.298 394.122 136.82 394.276Z" fill="white"/>
</mask>
<g mask="url(#mask3_38_3432)">
<path d="M61.2693 420.567V441.548C61.2693 442.649 61.9018 443.651 62.8951 444.125L114.121 468.536C114.467 468.701 114.838 468.793 115.213 468.809V445.034L61.3469 420.08C61.3184 420.243 61.2693 420.399 61.2693 420.567Z" fill="#7DC291"/>
</g>
<path d="M136.82 394.276L63.2533 417.849C62.0724 418.228 61.2705 419.326 61.2705 420.567V441.548C61.2705 442.649 61.903 443.651 62.8963 444.125L114.122 468.536C114.82 468.869 115.623 468.904 116.349 468.633L193.435 439.828C194.551 439.412 195.29 438.346 195.29 437.155L195.425 417.479C195.425 416.138 194.492 414.978 193.181 414.691L138.301 394.204C137.811 394.097 137.298 394.122 136.82 394.276Z" stroke="#263238" stroke-width="1.1599" stroke-miterlimit="10" stroke-linecap="round" stroke-linejoin="round"/>
<path d="M237.854 355.689C237.854 355.689 247.547 360.325 252.605 369.597C257.663 378.868 253.869 396.57 250.92 402.049C247.97 407.528 228.163 410.056 221.419 410.056C214.675 410.056 213.411 409.213 213.411 409.213C213.411 409.213 191.917 413.427 178.431 415.955C164.945 418.484 168.317 386.876 172.531 372.546C176.744 358.216 200.345 351.052 210.039 351.052C219.732 351.054 237.854 355.689 237.854 355.689Z" fill="#263238" stroke="#263238" stroke-width="1.1599" stroke-miterlimit="10" stroke-linecap="round" stroke-linejoin="round"/>
<path d="M213.411 409.213C213.411 409.213 231.533 402.891 239.119 386.876" stroke="white" stroke-width="1.1599" stroke-miterlimit="10" stroke-linecap="round" stroke-linejoin="round"/>
<path d="M230.69 399.941C230.69 399.941 238.698 396.99 246.284 389.405" stroke="white" stroke-width="1.1599" stroke-miterlimit="10" stroke-linecap="round" stroke-linejoin="round"/>
<path d="M188.124 369.597C188.124 369.597 193.181 396.148 190.652 407.106C188.124 418.064 173.374 419.749 170.002 418.485C166.63 417.222 168.317 391.091 168.317 378.026C168.317 364.96 181.381 365.804 188.124 369.597Z" fill="#263238" stroke="#263238" stroke-width="1.1599" stroke-miterlimit="10" stroke-linecap="round" stroke-linejoin="round"/>
<path d="M80.6559 298.794C80.6559 298.794 77.7056 316.072 79.8126 324.501C81.9195 332.93 85.7131 337.566 85.7131 337.566C85.7131 337.566 75.177 353.159 77.2839 366.224C79.3909 379.289 84.8698 380.974 84.8698 380.974C84.8698 380.974 80.2342 404.996 88.6633 413.426C97.0925 421.855 115.636 431.126 136.287 427.334C156.937 423.541 170.845 422.698 175.059 415.533C179.273 408.368 176.744 376.76 176.744 376.76C176.744 376.76 175.901 341.78 175.059 320.286C174.216 298.792 171.266 281.512 161.151 273.084C151.037 264.655 106.364 277.72 92.8773 286.571C79.3909 295.423 80.6559 298.794 80.6559 298.794Z" fill="#7DC291"/>
<mask id="mask4_38_3432" style="mask-type:luminance" maskUnits="userSpaceOnUse" x="77" y="270" width="101" height="159">
<path d="M80.6559 298.794C80.6559 298.794 77.7056 316.072 79.8126 324.501C81.9195 332.93 85.7131 337.566 85.7131 337.566C85.7131 337.566 75.177 353.159 77.2839 366.224C79.3909 379.289 84.8698 380.974 84.8698 380.974C84.8698 380.974 80.2342 404.996 88.6633 413.426C97.0925 421.855 115.636 431.126 136.287 427.334C156.937 423.541 170.845 422.698 175.059 415.533C179.273 408.368 176.744 376.76 176.744 376.76C176.744 376.76 175.901 341.78 175.059 320.286C174.216 298.792 171.266 281.512 161.151 273.084C151.037 264.655 106.364 277.72 92.8773 286.571C79.3909 295.423 80.6559 298.794 80.6559 298.794Z" fill="white"/>
</mask>
<g mask="url(#mask4_38_3432)">
<path opacity="0.3" d="M83.6566 298.794C83.6566 298.794 80.7063 316.072 82.8133 324.501C84.9203 332.93 88.7138 337.566 88.7138 337.566C88.7138 337.566 78.1777 353.159 80.2847 366.224C82.3916 379.289 87.8705 380.974 87.8705 380.974C87.8705 380.974 83.2349 404.996 91.6641 413.426C100.093 421.855 118.637 431.126 139.287 427.334C159.938 423.541 173.846 422.698 178.06 415.533C182.274 408.368 179.745 376.76 179.745 376.76C179.745 376.76 178.902 341.78 178.06 320.286C177.217 298.792 174.266 281.512 164.152 273.084C154.037 264.655 109.364 277.72 95.878 286.571C82.3916 295.423 83.6566 298.794 83.6566 298.794Z" fill="black"/>
</g>
<path d="M80.6559 298.794C80.6559 298.794 77.7056 316.072 79.8126 324.501C81.9195 332.93 85.7131 337.566 85.7131 337.566C85.7131 337.566 75.177 353.159 77.2839 366.224C79.3909 379.289 84.8698 380.974 84.8698 380.974C84.8698 380.974 80.2342 404.996 88.6633 413.426C97.0925 421.855 115.636 431.126 136.287 427.334C156.937 423.541 170.845 422.698 175.059 415.533C179.273 408.368 176.744 376.76 176.744 376.76C176.744 376.76 175.901 341.78 175.059 320.286C174.216 298.792 171.266 281.512 161.151 273.084C151.037 264.655 106.364 277.72 92.8773 286.571C79.3909 295.423 80.6559 298.794 80.6559 298.794Z" stroke="#263238" stroke-width="1.1599" stroke-miterlimit="10" stroke-linecap="round" stroke-linejoin="round"/>
<path d="M85.7131 337.567C85.7131 337.567 104.678 352.317 130.808 343.889" stroke="#263238" stroke-width="1.1599" stroke-miterlimit="10" stroke-linecap="round" stroke-linejoin="round"/>
<path d="M84.8696 380.977C84.8696 380.977 106.363 402.049 141.765 381.82" stroke="#263238" stroke-width="1.1599" stroke-miterlimit="10" stroke-linecap="round" stroke-linejoin="round"/>
<path d="M168.738 278.143C168.738 278.143 160.731 265.921 149.773 259.177C138.815 252.434 110.579 247.376 99.1996 245.269C87.8202 243.163 75.5988 244.005 72.2269 256.649C68.855 269.292 69.2766 290.364 72.6485 299.637C76.0205 308.908 89.9285 314.387 100.885 308.066C111.843 301.744 142.186 277.301 152.722 276.036C163.26 274.772 167.895 282.778 168.738 278.143Z" fill="#263238"/>
<mask id="mask5_38_3432" style="mask-type:luminance" maskUnits="userSpaceOnUse" x="69" y="244" width="100" height="67">
<path d="M168.738 278.143C168.738 278.143 160.731 265.921 149.773 259.177C138.815 252.434 110.579 247.376 99.1996 245.269C87.8202 243.163 75.5988 244.005 72.2269 256.649C68.855 269.292 69.2766 290.364 72.6485 299.637C76.0205 308.908 89.9285 314.387 100.885 308.066C111.843 301.744 142.186 277.301 152.722 276.036C163.26 274.772 167.895 282.778 168.738 278.143Z" fill="white"/>
</mask>
<g mask="url(#mask5_38_3432)">
<path opacity="0.3" d="M145.351 275.762C151.778 273.084 135.71 277.904 134.639 276.297C133.568 274.691 145.886 266.656 148.565 265.585C151.244 264.514 133.033 268.263 133.568 265.585C134.104 262.907 151.244 262.371 139.46 259.694C127.677 257.015 89.1123 250.053 81.6132 247.374C80.863 247.106 80.3417 246.833 79.9938 246.558C76.3956 248.4 73.5863 251.554 72.2269 256.649C68.855 269.292 69.2766 290.364 72.6486 299.637C75.5833 307.706 86.4971 312.894 96.5029 309.939C101.138 306.185 105.427 301.217 112.678 296.651C127.14 287.546 138.923 278.44 145.351 275.762Z" fill="black"/>
</g>
<path d="M168.738 278.143C168.738 278.143 160.731 265.921 149.773 259.177C138.815 252.434 110.579 247.376 99.1996 245.269C87.8202 243.163 75.5988 244.005 72.2269 256.649C68.855 269.292 69.2766 290.364 72.6485 299.637C76.0205 308.908 89.9285 314.387 100.885 308.066C111.843 301.744 142.186 277.301 152.722 276.036C163.26 274.772 167.895 282.778 168.738 278.143Z" stroke="#263238" stroke-width="1.1599" stroke-miterlimit="10" stroke-linecap="round" stroke-linejoin="round"/>
<path d="M214.253 335.46C214.253 335.46 223.946 336.725 230.268 339.254C236.59 341.782 240.804 357.376 238.276 359.483C235.747 361.59 230.69 359.061 230.69 359.061C230.69 359.061 223.526 361.59 218.469 362.011C213.411 362.433 207.932 338.41 214.253 335.46Z" fill="#7DC291" stroke="#263238" stroke-width="1.1599" stroke-miterlimit="10" stroke-linecap="round" stroke-linejoin="round"/>
<path d="M182.224 334.195C182.224 334.195 183.909 334.195 193.181 329.98C202.452 325.766 210.04 325.766 215.939 335.037C221.839 344.309 224.368 355.688 220.996 362.431C217.624 369.175 204.981 373.811 198.238 373.811C191.495 373.811 190.653 364.96 190.653 364.96C190.653 364.96 189.809 351.052 185.595 345.995C181.382 340.939 180.538 335.46 182.224 334.195Z" fill="#263238" stroke="#263238" stroke-width="1.1599" stroke-miterlimit="10" stroke-linecap="round" stroke-linejoin="round"/>
<path d="M151.037 278.143C160.309 274.771 172.109 276.879 176.323 288.679C180.537 300.48 184.33 335.037 184.33 335.037C184.33 335.037 194.867 336.302 199.082 340.938C203.296 345.573 205.403 357.375 204.561 363.275C203.717 369.176 188.967 380.133 172.109 380.554C155.251 380.975 143.029 372.968 137.129 351.474C131.228 329.98 133.567 297.186 133.567 297.186C133.567 297.186 135.709 287.545 138.923 285.402" fill="#7DC291"/>
<mask id="mask6_38_3432" style="mask-type:luminance" maskUnits="userSpaceOnUse" x="133" y="276" width="72" height="105">
<path d="M151.037 278.143C160.309 274.771 172.109 276.879 176.323 288.679C180.537 300.48 184.33 335.037 184.33 335.037C184.33 335.037 194.867 336.302 199.082 340.938C203.296 345.573 205.403 357.375 204.561 363.275C203.717 369.176 188.967 380.133 172.109 380.554C155.251 380.975 143.029 372.968 137.129 351.474C131.228 329.98 133.567 297.186 133.567 297.186C133.567 297.186 135.709 287.545 138.923 285.402" fill="white"/>
</mask>
<g mask="url(#mask6_38_3432)">
<path opacity="0.3" d="M204.561 363.275C205.404 357.374 203.296 345.575 199.082 340.938C198.912 340.751 198.718 340.581 198.531 340.406C198.881 342.801 199.269 346.495 199.448 351.819C200.279 376.558 165.714 372.42 158.742 354.499C154.992 344.857 153.921 302.543 142.672 299.329C136.189 297.477 133.979 302.564 133.268 307.207C133.046 319.344 133.441 338.043 137.129 351.475C143.029 372.969 155.251 380.976 172.109 380.555C188.967 380.133 203.717 369.175 204.561 363.275Z" fill="black"/>
</g>
<path d="M151.037 278.143C160.309 274.771 172.109 276.879 176.323 288.679C180.537 300.48 184.33 335.037 184.33 335.037C184.33 335.037 194.867 336.302 199.082 340.938C203.296 345.573 205.403 357.375 204.561 363.275C203.717 369.176 188.967 380.133 172.109 380.554C155.251 380.975 143.029 372.968 137.129 351.474C131.228 329.98 133.567 297.186 133.567 297.186C133.567 297.186 135.709 287.545 138.923 285.402" stroke="#263238" stroke-width="1.1599" stroke-miterlimit="10" stroke-linecap="round" stroke-linejoin="round"/>
<path d="M184.332 335.039C184.332 335.039 187.617 350.394 170.699 358.853" stroke="#263238" stroke-width="1.1599" stroke-miterlimit="10" stroke-linecap="round" stroke-linejoin="round"/>
<path d="M100.468 67.3759C100.468 63.8785 102.08 61.3059 105.714 61.3059C109.418 61.3059 111.03 63.8785 111.03 67.3759V79.6529C111.03 83.1503 109.418 85.7228 105.714 85.7228C102.08 85.7228 100.468 83.1515 100.468 79.6529V67.3759ZM102.046 79.7564C102.046 82.3626 103.074 84.2833 105.714 84.2833C108.389 84.2833 109.452 82.3626 109.452 79.7564V67.2737C109.452 64.6675 108.39 62.7468 105.714 62.7468C103.074 62.7468 102.046 64.6675 102.046 67.2737V79.7564Z" fill="white"/>
<path d="M113.536 67.3759C113.536 63.8785 115.148 61.3059 118.782 61.3059C122.487 61.3059 124.097 63.8785 124.097 67.3759V79.6529C124.097 83.1503 122.485 85.7228 118.782 85.7228C115.148 85.7228 113.536 83.1515 113.536 79.6529V67.3759ZM115.114 79.7564C115.114 82.3626 116.143 84.2833 118.784 84.2833C121.458 84.2833 122.522 82.3626 122.522 79.7564V67.2737C122.522 64.6675 121.46 62.7468 118.784 62.7468C116.144 62.7468 115.114 64.6675 115.114 67.2737V79.7564Z" fill="white"/>
<path d="M131.679 61.5127C135.384 61.5127 136.823 63.8447 136.823 67.3421V69.9483C136.823 73.7548 135.073 75.6406 131.268 75.6406H128.285V85.517H126.708V61.5127H131.679ZM131.268 74.201C134.046 74.201 135.247 72.9671 135.247 70.0518V67.2399C135.247 64.6337 134.355 62.9536 131.681 62.9536H128.287V74.2023L131.268 74.201Z" fill="white"/>
<path d="M149.308 67.3084V67.8219H147.799V67.205C147.799 64.6673 146.839 62.7466 144.233 62.7466C141.627 62.7466 140.667 64.6324 140.667 67.17C140.667 72.9994 149.343 73.1029 149.343 79.7213C149.343 83.185 147.834 85.7227 144.165 85.7227C140.496 85.7227 138.987 83.185 138.987 79.7213V78.4861H140.496V79.8234C140.496 82.396 141.49 84.2469 144.131 84.2469C146.771 84.2469 147.765 82.3947 147.765 79.8234C147.765 74.0626 139.089 73.9591 139.089 67.2722C139.089 63.6714 140.667 61.3394 144.199 61.3044C147.835 61.3057 149.308 63.8434 149.308 67.3084Z" fill="white"/>
<path d="M153.256 82.4983V85.5158H151.711V82.4983H153.256Z" fill="white"/>
<path d="M157.544 82.4983V85.5158H155.999V82.4983H157.544Z" fill="white"/>
<path d="M161.831 82.4983V85.5158H160.287V82.4983H161.831Z" fill="white"/>
<path d="M105.543 96.4385C109.246 96.4385 110.687 98.7705 110.687 102.268V104.874C110.687 108.681 108.937 110.566 105.131 110.566H102.148V120.443H100.57V96.4385H105.543ZM105.132 109.127C107.91 109.127 109.111 107.893 109.111 104.978V102.166C109.111 99.5595 108.22 97.8793 105.545 97.8793H102.15V109.128H105.132V109.127Z" fill="white"/>
<path d="M114.908 115.128L113.707 120.443H112.268L117.514 96.4036H119.812L125.162 120.443H123.584L122.384 115.128H114.908ZM115.148 113.756H122.144L118.612 98.2221L115.148 113.756Z" fill="white"/>
<path d="M137.786 102.303V104.085H136.276V102.199C136.276 99.6269 135.282 97.6725 132.642 97.6725C130.002 97.6725 129.007 99.6282 129.007 102.199V114.682C129.007 117.253 130.002 119.174 132.642 119.174C135.282 119.174 136.276 117.253 136.276 114.682V109.503H133.088V108.064H137.787V114.579C137.787 118.042 136.278 120.649 132.608 120.649C128.94 120.649 127.431 118.042 127.431 114.579V102.302C127.431 98.8379 128.94 96.2317 132.608 96.2317C136.278 96.233 137.786 98.8392 137.786 102.303Z" fill="white"/>
<path d="M148.556 107.549V108.99H142.006V119.003H149.893V120.443H140.428V96.4385H149.893V97.878H142.006V107.549H148.556Z" fill="white"/>
<path d="M159.224 120.443H157.784V96.4385H159.842L167.044 116.705V96.4385H168.483V120.443H166.735L159.224 99.0447V120.443Z" fill="white"/>
<path d="M171.092 102.303C171.092 98.8055 172.704 96.2329 176.338 96.2329C180.042 96.2329 181.654 98.8042 181.654 102.303V114.58C181.654 118.077 180.042 120.65 176.338 120.65C172.704 120.65 171.092 118.079 171.092 114.58V102.303ZM172.67 114.682C172.67 117.288 173.698 119.209 176.338 119.209C179.013 119.209 180.076 117.288 180.076 114.682V102.199C180.076 99.5932 179.014 97.6725 176.338 97.6725C173.698 97.6725 172.67 99.5932 172.67 102.199V114.682Z" fill="white"/>
<path d="M188.309 120.443V97.878H183.44V96.4385H194.79V97.878H189.887V120.443H188.309Z" fill="white"/>
<path d="M209.848 108.132V109.573H203.642V120.444H202.064V96.4397H211.185V97.8793H203.642V108.132H209.848Z" fill="white"/>
<path d="M213.486 102.303C213.486 98.8055 215.098 96.2329 218.732 96.2329C222.436 96.2329 224.048 98.8042 224.048 102.303V114.58C224.048 118.077 222.436 120.65 218.732 120.65C215.098 120.65 213.486 118.079 213.486 114.58V102.303ZM215.064 114.682C215.064 117.288 216.092 119.209 218.732 119.209C221.407 119.209 222.47 117.288 222.47 114.682V102.199C222.47 99.5932 221.408 97.6725 218.732 97.6725C216.092 97.6725 215.064 99.5932 215.064 102.199V114.682Z" fill="white"/>
<path d="M228.166 114.648C228.166 117.22 229.128 119.209 231.768 119.209C234.408 119.209 235.368 117.22 235.368 114.648V96.4385H236.844V114.58C236.844 118.009 235.404 120.65 231.733 120.65C228.064 120.65 226.588 118.009 226.588 114.58V96.4385H228.166V114.648Z" fill="white"/>
<path d="M240.994 120.443H239.555V96.4385H241.613L248.813 116.705V96.4385H250.254V120.443H248.505L240.994 99.0447V120.443Z" fill="white"/>
<path d="M258.247 96.4385C261.951 96.4385 263.563 98.8727 263.563 102.406V114.478C263.563 118.009 261.951 120.444 258.247 120.444H252.965V96.4398L258.247 96.4385ZM258.212 119.003C260.887 119.003 261.985 117.186 261.985 114.545V102.336C261.985 99.6953 260.853 97.878 258.212 97.878H254.544V119.002H258.212V119.003Z" fill="white"/>
<path d="M338.056 342.626L355.139 302.226H365.388V342.626H369.829V351.166H365.388V362.014H356.163V351.166H338.056V342.626ZM356.162 342.626V320.163L346.681 342.626H356.162Z" fill="#263238"/>
<path d="M373.331 316.575C373.331 307.009 378.371 301.543 387.596 301.543C396.82 301.543 401.858 307.009 401.858 316.575V347.665C401.858 357.231 396.819 362.697 387.596 362.697C378.371 362.697 373.331 357.231 373.331 347.665V316.575ZM382.726 348.262C382.726 352.533 384.604 354.156 387.595 354.156C390.584 354.156 392.463 352.533 392.463 348.262V315.977C392.463 311.707 390.584 310.083 387.595 310.083C384.604 310.083 382.726 311.707 382.726 315.977V348.262Z" fill="#263238"/>
<path d="M405.7 342.626L422.783 302.226H433.032V342.626H437.474V351.166H433.032V362.014H423.808V351.166H405.7V342.626ZM423.808 342.626V320.163L414.327 342.626H423.808Z" fill="#263238"/>
</svg>
