<svg width="200" height="200" viewBox="0 0 200 200" fill="none" xmlns="http://www.w3.org/2000/svg">
<path fill-rule="evenodd" clip-rule="evenodd" d="M200 97.4265C200 151.224 156.044 194.846 101.822 194.846C84.6039 194.846 68.4245 190.448 54.3614 182.723L0 199.998L17.7186 147.731C8.77683 133.047 3.63535 115.829 3.63535 97.4265C3.63535 43.6185 47.5909 0 101.82 0C156.044 0 200 43.6185 200 97.4265ZM101.822 15.5161C56.2945 15.5161 19.2724 52.2542 19.2724 97.4265C19.2724 115.341 25.1083 131.942 34.9937 145.452L24.6851 175.865L56.4008 165.787C69.4304 174.336 85.0455 179.328 101.82 179.328C147.328 179.328 184.361 142.586 184.361 97.4247C184.365 52.2542 147.332 15.5161 101.822 15.5161ZM151.399 119.865C150.791 118.868 149.186 118.271 146.789 117.076C144.382 115.885 132.543 110.101 130.339 109.309C128.136 108.514 126.518 108.114 124.924 110.5C123.319 112.889 118.705 118.269 117.296 119.863C115.896 121.461 114.496 121.655 112.089 120.461C109.677 119.27 101.919 116.739 92.7302 108.613C85.5805 102.273 80.7505 94.4636 79.3378 92.0743C77.9416 89.6886 79.1985 88.3968 80.3914 87.204C81.478 86.1284 82.8027 84.4152 84.0047 83.0263C85.2104 81.6264 85.6098 80.6259 86.4124 79.0318C87.215 77.4377 86.8155 76.0488 86.2072 74.8541C85.6098 73.6631 80.7927 61.9106 78.7844 57.1245C76.7909 52.3531 74.7826 52.5309 73.3699 52.5309C71.97 52.5309 69.3718 52.9468 69.3718 52.9468C69.3718 52.9468 64.5473 53.5442 62.3448 55.9335C60.1424 58.3192 53.9253 64.1038 53.9253 75.8454C53.9253 87.5961 62.5427 98.9565 63.7447 100.54C64.9504 102.137 80.3896 127.037 104.858 136.598C129.327 146.157 129.327 142.967 133.741 142.564C138.146 142.175 147.977 136.792 149.985 131.215C151.999 125.637 151.999 120.855 151.399 119.865Z" fill="white"/>
</svg>
