<svg width="413" height="495" viewBox="0 0 433 635" fill="none" xmlns="http://www.w3.org/2000/svg">
<path d="M393.067 73.2732C391.059 73.2732 389.49 75.6805 389.49 78.6349C389.49 81.5894 391.096 83.9967 393.067 83.9967C395.038 83.9967 396.644 81.5894 396.644 78.6349C396.644 75.6805 395.038 73.2732 393.067 73.2732Z" fill="#0A2D47"/>
<path d="M366.718 78.6417C366.718 75.6872 365.112 73.2799 363.141 73.2799C361.133 73.2799 359.564 75.6872 359.564 78.6417C359.564 81.5961 361.17 84.0034 363.141 84.0034C365.112 84.0034 366.718 81.5961 366.718 78.6417Z" fill="#0A2D47"/>
<path d="M386.9 68.9028C390.367 68.3557 393.616 67.9179 397.302 68.8663C398.434 69.1216 399.529 69.5593 400.843 69.9605C397.777 64.8542 390.076 64.9271 386.9 68.9028Z" fill="#0A2D47"/>
<path d="M369.091 68.0998C366.28 64.7806 361.426 64.4888 357.995 66.5679C356.864 67.2609 355.842 68.1363 355.185 69.34C357.667 68.5011 359.857 67.8445 362.083 67.6257C365.149 67.2975 367.193 67.8809 369.091 68.0998Z" fill="#0A2D47"/>
<path d="M375.874 95.1971C376.969 94.7594 377.882 94.0664 378.685 93.3004C377.626 93.5921 376.604 93.9934 375.619 94.0663C374.67 94.1758 373.721 93.9569 373.137 93.4827C371.969 92.5709 372.407 90.6377 373.028 88.5951C374.05 84.6559 375.108 79.9872 375.291 75.7926C373.356 79.4765 371.896 84.0723 370.801 87.9752C370.546 88.9965 370.217 90.1637 370.254 91.4402C370.181 94.6134 372.955 96.2913 375.874 95.1971Z" fill="#0A2D47"/>
<path d="M388.507 102.088H365.659C365.002 102.088 364.491 102.599 364.491 103.256C364.491 103.547 364.564 110.04 368.579 113.906C370.477 115.766 372.886 116.714 375.842 116.714C379.748 116.714 383.507 115.255 386.208 112.046C389.347 108.252 389.712 103.547 389.712 103.365C389.748 102.672 389.201 102.088 388.507 102.088ZM384.2 110.733C382.85 110.149 380.952 109.675 378.178 109.602C374.127 109.456 371.645 110.806 370.185 112.192C367.812 109.894 367.119 106.246 366.9 104.386H387.157C386.719 106.684 385.733 108.982 384.2 110.733Z" fill="#0A2D47"/>
<path d="M280.548 23.0449H200.798C195.542 23.0449 191.272 27.3124 191.272 32.5644V104.382C191.272 111.094 196.747 116.565 203.463 116.565H214.486L211.675 133.307C211.493 134.401 212.807 135.131 213.61 134.365L232.552 116.602H280.511C285.767 116.602 290.037 112.335 290.037 107.083V32.6016C290.073 27.3128 285.803 23.0449 280.548 23.0449ZM287.738 107.045C287.738 111.021 284.526 114.231 280.548 114.231C229.304 114.34 231.968 113.939 231.312 114.559L214.558 130.28L217.04 115.581C217.15 114.888 216.602 114.231 215.872 114.231H203.499C198.061 114.231 193.645 109.818 193.645 104.383V32.565C193.645 28.5893 196.857 25.3795 200.835 25.3795H280.585C284.563 25.3795 287.775 28.5893 287.775 32.565L287.738 107.045Z" fill="#0A2D47"/>
<path d="M265.626 40.3007H265.59L256.319 38.9146C255.443 38.7687 254.64 39.3888 254.494 40.2641C254.385 41.1395 254.969 41.942 255.845 42.0878L260.918 42.8538L239.42 56.7871L235.405 51.3525C234.931 50.6959 234.018 50.5135 233.325 50.9148L213.652 62.3681C212.885 62.8057 212.63 63.7905 213.068 64.5566C213.469 65.286 214.418 65.6143 215.258 65.1401L233.69 54.417L237.741 59.9246C238.252 60.6176 239.201 60.8 239.895 60.3259L262.195 45.8818L260.553 50.3316C260.224 51.1341 260.662 52.0824 261.502 52.3742C262.414 52.7025 263.29 52.1918 263.582 51.4259L266.867 42.4532C267.196 41.3589 266.393 40.3007 265.626 40.3007Z" fill="#0A2D47"/>
<path d="M216.572 76.8097H225.806V95.1559H216.572V76.8097Z" fill="#0A2D47"/>
<path d="M229.494 71.4503H238.728V95.159H229.494V71.4503Z" fill="#0A2D47"/>
<path d="M242.706 65.7172H251.94V95.1515H242.706V65.7172Z" fill="#0A2D47"/>
<path d="M256.096 60.8707H265.33V95.1568H256.096V60.8707Z" fill="#0A2D47"/>
<path d="M93.6312 64.6641C93.8137 61.6003 92.3903 59.0105 90.3828 58.8647C88.4118 58.7188 86.6235 61.1261 86.4044 64.1899C86.222 67.2537 87.6819 69.8435 89.6529 69.9893C91.6968 70.1352 93.4487 67.7279 93.6312 64.6641Z" fill="#0A2D47"/>
<path d="M89.8004 53.6922C91.8077 53.6192 93.7787 54.0569 96.1146 54.6405C95.0927 52.8168 92.6107 51.2484 89.7274 51.3578C86.8805 51.4672 84.6906 52.9627 83.5591 55.0417C85.5665 54.5311 86.8805 53.8016 89.8004 53.6922Z" fill="#0A2D47"/>
<path d="M116.009 57.3342C114.038 57.3342 112.396 59.8144 112.359 62.8783C112.359 65.9421 113.965 68.4589 115.936 68.4589C117.944 68.4589 119.55 65.9787 119.586 62.9148C119.623 59.851 118.017 57.3707 116.009 57.3342Z" fill="#0A2D47"/>
<path d="M121.485 52.7774C119.587 49.823 114.55 48.7652 111.338 51.1361C110.28 51.8291 109.477 52.8139 108.966 53.9081C110.17 53.5069 111.119 53.0327 112.141 52.7774C115.463 51.7197 118.419 52.1938 121.485 52.7774Z" fill="#0A2D47"/>
<path d="M108.787 78.7443C108.896 77.4313 108.641 76.2276 108.422 75.1334C107.546 71.0117 106.341 66.1972 104.626 62.2216C104.553 66.5256 105.356 71.4495 106.159 75.6077C106.67 77.7597 106.998 79.8387 105.684 80.7142C105.027 81.1518 104.005 81.3342 103.02 81.1518C101.998 81.0059 100.976 80.5318 99.8809 80.1305C100.684 80.9694 101.523 81.7354 102.655 82.246C105.575 83.4861 108.568 82.027 108.787 78.7443Z" fill="#0A2D47"/>
<path d="M112.795 90.0899L89.107 88.558C88.45 88.5215 87.8661 89.0322 87.8661 89.7252C87.8661 89.944 87.9391 94.8316 90.8955 98.9532C93.6694 102.71 97.9397 104.461 102.173 104.461C104.838 104.461 107.101 103.658 108.962 102.053C113.378 98.3331 113.889 91.6217 113.889 91.3304C113.926 90.7103 113.452 90.1628 112.795 90.0899ZM107.466 100.266C106.043 98.7339 103.561 97.1655 99.3271 97.0196C96.4437 96.9101 94.4362 97.2749 92.9763 97.7855C91.4798 95.8524 90.6404 93.3721 90.3119 90.9648L111.371 92.3143C111.08 94.2475 110.094 98.0045 107.466 100.266Z" fill="#0A2D47"/>
<path d="M10.6737 288.071L6.54931 347.706C6.51281 348.363 6.98729 348.91 7.60775 348.946L16.0025 349.603C12.3891 619.875 12.8636 584.393 12.8271 587.595C12.8271 588.252 13.3381 588.762 13.9951 588.762H25.8932L25.4553 590.696C15.5276 598.574 15.7463 616.811 16.3306 624.325C16.5131 627.061 18.849 629.213 21.623 629.213H162.067C164.841 629.213 167.177 626.988 167.396 624.179C168.746 604.337 146.191 606.234 136.116 604.009C126.481 601.893 127.649 594.197 118.122 590.805L118.049 588.726H126.663C127.32 588.726 127.831 588.215 127.831 587.558C127.867 584.859 127.502 617.321 130.459 352.554H140.825C141.482 352.554 141.993 352.007 141.993 351.387C141.774 335.959 141.737 320.019 141.701 305.429C161.483 364.189 154.657 343.909 156.154 348.323C156.337 348.834 156.848 349.199 157.432 349.089L159.184 348.834C159.768 366.596 164.987 389.247 182.725 389.247C196.777 389.247 195.39 373.892 190.609 360.506C192.945 362.038 195.828 363.095 197.507 360.834C202.142 354.56 194.916 347.666 188.455 343.29L190.718 342.816C191.339 342.67 191.74 342.086 191.631 341.466C191.594 341.247 187.032 318.013 181.156 289.345C192.981 288.214 200.427 287.63 200.573 287.594C201.193 287.557 201.668 287.01 201.631 286.39L201.521 283.363C201.594 283.436 201.667 283.472 201.74 283.545C202.762 291.387 214.369 296.639 219.807 298.646C221.961 299.448 224.041 298.354 225.574 296.603C233.932 298.099 243.276 290.658 248.787 284.384C252.072 285.186 261.635 287.047 263.205 282.816C263.314 282.487 263.351 282.159 263.351 281.794L265.979 281.393L266.271 282.451C266.417 283.071 267.074 283.436 267.694 283.29L333.647 265.891C333.611 266.694 333.975 267.46 334.924 267.861L337.954 286.827C338.246 288.687 339.852 290.037 341.75 290.037H348.21L335.654 434.767C335.435 438.852 341.238 442.062 353.246 444.506C352.261 494.658 353.794 584.567 352.553 588.62C350.217 595.696 337.442 605.106 331.42 609.009C328.026 611.161 318.719 617.106 316.091 620.097C313.244 623.344 312.478 628.596 312.733 632.936C312.806 634.176 312.952 635.015 312.952 635.052C313.062 635.599 313.536 636 314.12 636H372.554C373.175 636 373.722 635.489 373.722 634.869C374.27 616.085 375.62 616.742 375.474 610.65C375.365 605.726 374.233 599.343 373.138 594.528C375.146 589.859 395.768 540.656 402.191 494.702C404.527 478.143 404.053 460.817 403.213 448.707C406.024 448.744 406.06 448.707 407.155 448.707C412.703 501.559 424.602 584.287 423.579 588.582C421.901 593.652 414.272 601.019 402.739 608.789C399.563 610.795 389.709 617.069 387.117 620.059C384.672 622.831 383.978 626.625 383.796 629.324C383.54 632.461 383.978 634.904 383.978 635.014C384.087 635.561 384.562 635.962 385.146 635.962H443.58C444.201 635.962 444.748 635.451 444.748 634.831C444.748 634.795 444.785 633.956 444.821 632.607C445.478 616.011 446.573 615.937 446.536 611.196C446.464 606.089 445.186 598.831 444.164 594.308C444.785 590.26 452.194 542.478 456.61 494.622C458.106 478.208 456.427 458.768 454.675 444.944C469.567 442.172 480.37 437.831 482.232 431.521C482.451 430.792 458.07 290.984 447.011 265.306C454.347 264.467 460.697 263.154 465.114 261.075C479.75 254.254 462.413 189.22 458.398 163.797C457.705 159.457 454.822 155.736 451.646 152.745C463.764 132.649 451.865 112.003 455.478 64.6963C456.719 48.1373 418.395 3.8574 371.495 14.4713C316.017 27.0189 346.457 97.4502 356.859 148.37C348.501 157.962 341.238 179.482 331.31 202.571H329.266C326.894 202.571 325.105 204.686 325.47 206.984L326.492 213.404C324.047 218.62 321.711 223.252 319.375 227.556L259.262 250.461C258.714 250.68 258.386 251.264 258.532 251.847L258.897 253.233L248.166 254.401C245.757 252.358 233.53 242.437 225.975 245.793C221.668 247.689 217.982 252.504 215.536 256.443C209.66 255.75 204.55 256.297 200.937 257.026L200.864 254.4C200.828 253.78 200.317 253.27 199.696 253.27H173.965C164.986 211.069 158.854 185.537 155.752 177.476C149.62 161.573 136.444 152.053 129.108 147.786C129.071 147.749 129.071 147.749 129.035 147.749C128.889 147.676 123.998 144.029 109.252 139.506L97.9746 132.831L95.5292 121.925C100.092 122.107 104.289 121.123 108.34 119.19C125.312 111.129 128.305 71.408 124.983 45.8029C124.947 45.5476 124.91 45.2923 124.874 45.037C132.283 38.3622 132.21 30.6293 131.042 25.7057C131.699 24.0644 131.991 22.2042 131.991 20.1251C131.735 0.319475 92.8645 5.86402 92.8645 5.86402C92.8645 5.86402 67.3881 -4.74982 52.7158 2.58137C38.0435 9.91275 43.6276 22.3142 43.6276 22.3142C43.6276 22.3142 32.7142 24.1744 32.6778 40.9162C32.6413 51.0557 38.0066 64.0049 42.2401 72.6485C42.1671 72.8673 42.0211 73.2686 41.8386 73.8157C38.7727 85.5967 56.6567 93.0377 59.7232 94.2413C59.7962 94.3507 59.8692 94.4602 59.9422 94.6061L62.0591 131.847L48.1894 135.932C46.6929 136.114 25.2685 139.068 15.4138 148.442L15.3773 148.478C10.1945 152.053 6.61766 161.281 4.50039 166.825C-2.90884 186.047 -0.901362 243.093 8.55169 282.011C8.62468 284.127 9.50572 286.138 10.6737 288.071ZM12.7906 291.135C20.9297 301.421 37.6465 309.627 49.7634 307.037C56.1871 305.688 63.4135 304.338 71.407 302.989C71.1515 313.712 70.7865 332.57 70.677 335.159C70.166 344.314 62.1363 351.171 52.9755 350.223L8.99496 346.721L12.7906 291.135ZM110.02 309.882C110.13 318.819 110.093 314.661 110.203 321.773C108.414 321.846 106.59 321.882 104.801 321.919V310.138C105.385 310.138 106.152 310.101 110.02 309.882ZM102.356 322.576C102.21 322.831 101.918 323.013 101.626 323.013H81.2231C80.7851 323.013 80.3836 322.649 80.3836 322.174V309.044C80.3836 308.57 80.7486 308.205 81.2231 308.205H101.626C102.1 308.205 102.465 308.606 102.465 309.044C102.429 322.795 102.575 322.212 102.356 322.576ZM78.0474 322.102C76.4779 322.065 74.9085 322.065 73.339 322.029C73.339 321.883 73.5945 310.758 73.5945 310.466C77.5364 310.539 77.3174 310.539 78.0839 310.539L78.0474 322.102ZM109.911 297.262C109.911 297.408 110.021 308.205 110.021 307.548C106.261 307.767 105.166 307.803 104.582 307.84C104.108 306.673 102.976 305.834 101.626 305.834H81.2231C79.7266 305.834 78.4857 306.855 78.1572 308.241C77.2083 308.241 77.2083 308.241 73.6314 308.168C73.6679 306.928 73.7044 305.104 73.7409 302.588C84.4711 300.8 96.5525 299.013 109.911 297.262ZM84.1067 604.706C84.1797 604.816 84.2892 604.889 84.3622 604.962C81.7709 604.67 79.8729 604.414 77.8655 603.904C78.8874 600.256 80.3109 597.229 82.1723 594.931C81.6979 598.36 81.9168 602.007 84.1067 604.706ZM77.8289 587.637C77.8289 588.293 78.3399 588.804 78.9969 588.804H83.5957L83.1577 590.737C79.7268 593.472 77.2085 597.63 75.639 603.211C68.9233 600.402 68.9962 593.946 60.4192 590.882L60.3462 588.803H68.0108C68.6313 588.803 69.1423 588.293 69.1788 587.673L76.2231 417.05L77.8289 587.637ZM24.5048 594.931C24.0303 598.36 24.2493 602.007 26.4392 604.707C29.3956 608.391 35.7828 609.193 39.98 607.078C48.3747 602.883 49.5423 589.315 58.9224 592.817C67.9375 595.625 67.0251 602.956 76.1128 605.874H76.1493C85.8218 608.974 107.429 605.728 107.429 622.616H18.5915C18.1901 615.54 18.4095 602.408 24.5048 594.931ZM135.61 606.348C146.085 608.683 165.064 606.749 165.1 622.616H109.805C109.805 613.388 104.147 609.303 97.3954 607.26C105.863 603.394 107.177 589.315 116.667 592.853C126.302 595.844 124.515 603.905 135.61 606.348ZM125.464 586.47H84.0013C82.0304 524.573 79.7674 379.627 84.2568 373.642C91.374 367.769 95.2066 356.718 95.3524 356.243C95.7539 355.076 94.2574 354.164 93.3814 355.076C89.2571 359.49 76.9936 360.547 76.8843 360.547C76.2638 360.584 75.8259 361.094 75.8259 361.715V370.797L66.9202 586.51H15.2013L18.3036 353.037L56.3715 356.028C66.1533 357.049 74.8037 349.681 75.3503 339.869C75.4963 337.207 75.6423 334.289 75.8613 331.225C79.5476 330.933 80.7885 330.714 106.337 327.286C106.41 331.517 106.52 335.748 106.629 339.906C106.885 348.806 114.185 355.918 123.127 355.918H128.127L125.464 586.47ZM129.296 350.298H128.201C119.879 350.298 113.127 343.769 112.872 335.38C112.397 318.565 112.324 305.471 112.215 296.972C120.756 295.878 129.771 294.784 139.297 293.689C139.333 310.906 139.333 331.768 139.589 350.298L129.296 350.298ZM195.578 359.49C194.447 360.985 190.03 357.338 188.68 355.988C187.767 355.076 186.271 356.134 186.782 357.301C186.855 357.484 195.031 376.049 189.921 383.745C188.424 385.97 185.942 387.028 182.329 386.955C164.226 386.626 161.744 358.687 161.415 348.511L171.088 347.015L185.103 344.024C190.761 347.489 199.484 354.201 195.578 359.49ZM189.045 340.815C188.899 340.851 184.884 341.69 185.103 341.654L170.722 344.718L158.02 346.687L149.005 319.842C149.151 317.581 148.567 308.972 147.618 292.742C159.371 291.466 170.101 290.371 178.788 289.569C183.898 314.772 188.059 335.818 189.045 340.815ZM220.543 296.499C216.273 294.894 202.622 289.131 204.046 281.325C205.542 279.429 209.776 275.088 212.696 276C213.463 276.255 214.01 276.657 214.266 277.277C214.959 278.736 214.266 280.997 213.974 281.763C213.572 282.748 214.558 283.696 215.543 283.295C215.58 283.295 219.047 281.763 221.164 283.769C223.135 285.629 221.091 288.657 221.018 288.766C220.324 289.751 221.419 291.027 222.514 290.48C223.062 290.225 224.266 289.824 224.85 290.116C224.923 290.152 225.179 290.261 225.288 290.845C225.69 293.216 222.842 297.374 220.543 296.499ZM342.16 257.507V257.471C343.291 256.887 342.78 255.137 341.503 255.282C338.583 255.72 329.239 256.997 326.465 256.085C328.473 254.371 336.575 253.386 339.24 253.167C340.663 253.057 340.663 250.942 339.24 250.832C336.721 250.614 330.48 250.103 327.852 249.009C331.575 247.076 344.896 244.194 348.802 243.428C349.861 243.209 350.08 241.787 349.167 241.276C344.787 238.796 340.772 235.659 340.48 234.565C342.013 234.054 348.693 236.316 351.284 237.191C356.028 238.796 355.481 238.176 364.131 242.224L364.423 260.571C363.073 261.008 361.832 261.446 360.737 261.884C355.736 263.89 340.699 267.027 336.173 266.005C338.436 264.145 345.955 262.796 346.101 262.759C347.561 262.431 347.086 260.206 345.626 260.461C344.276 260.68 332.524 263.343 329.713 262.176C331.684 260.315 339.496 258.164 342.16 257.507ZM340.116 286.541L337.233 268.45C343.145 268.778 356.322 266.079 361.541 264C362.38 263.635 363.329 263.307 364.388 262.942L364.424 264.328C364.424 264.948 364.935 265.459 365.592 265.459C372.965 265.495 386.177 266.079 397.492 266.407L400.631 286.067C400.777 286.979 400.047 287.782 399.135 287.782H341.65C340.847 287.782 340.225 287.271 340.116 286.541ZM405.704 266.626C417.347 266.845 430.486 266.918 442.129 265.933C437.238 268.559 425.084 271.368 406.761 273.046L405.704 266.626ZM399.645 494.478C393.258 540.217 372.636 589.309 370.737 593.726C360.846 600.145 343.875 609.446 332.159 611.233C339.057 606.638 351.977 597.264 354.568 589.422C356.065 584.899 354.349 497.835 355.371 445.019C369.241 447.572 386.468 448.593 400.593 448.776C401.469 460.776 401.944 478.065 399.645 494.478ZM453.955 494.551C449.648 541.53 442.421 588.476 441.582 593.873C431.727 600.293 414.719 609.557 403.149 611.308C410.083 606.676 422.967 597.339 425.558 589.461C426.982 585.157 415.193 505.169 409.28 448.82C424.391 448.674 439.537 447.616 452.093 445.501C453.771 459.178 455.415 478.393 453.955 494.551ZM408.076 446.478C407.273 446.405 381.249 447.098 357.854 443.123C342.925 440.569 337.707 437.25 337.816 435.025L350.372 290.108H404.974C407.31 290.108 409.135 287.993 408.734 285.695L407.091 275.336C418.516 274.242 438.335 271.725 444.757 266.947C455.524 293.026 478.337 424.227 479.577 431.267C476.11 441.261 442.274 446.187 408.076 446.478ZM375.482 129.118C347.196 122.552 349.313 81.4091 351.137 65.9809C360.517 60.1085 371.358 41.2516 371.358 41.2516C380.665 54.5649 411.287 68.0603 411.287 68.0603L412.126 85.9331L416.725 86.5167C416.725 86.5896 416.725 86.6626 416.762 86.772C416.835 87.9392 418.441 88.2675 418.952 87.2097C418.988 87.1368 422.492 80.3525 426.945 80.0243C429.025 79.8784 431.179 81.2644 433.223 84.1459C434.318 85.6414 434.646 87.2462 434.245 88.997C432.785 95.38 422.346 101.289 422.236 101.325C422.054 101.435 421.908 101.581 421.798 101.763C421.762 101.836 418.331 107.854 412.382 114.237C402.454 124.996 389.68 132.4 375.482 129.118ZM387.125 137.762C387.381 137.507 387.49 137.142 387.417 136.777V136.631L386.249 131.963C397.126 130.613 406.177 123.865 412.346 117.702L414.317 136.559C411.945 139.55 395.228 159.684 383.659 155.671C381.104 154.796 379.68 153.519 379.315 151.732C378.366 147.465 383.731 140.972 387.125 137.762ZM358.803 149.398L381.833 139.987C375.884 147.282 374.095 154.869 382.855 157.896C393.914 161.726 408.514 147.465 415.887 138.346C421.215 140.498 402.309 132.911 441.8 148.778C447.275 151.878 454.721 158.006 455.706 164.352C459.101 185.8 476.182 253.349 463.736 259.146C445.669 267.608 390.775 263.45 366.684 263.195L366.282 239.158C372.596 238.611 434.242 233.286 438.039 232.958C438.805 232.885 439.279 232.119 439.024 231.426C434.17 217.602 423.002 181.675 424.57 167.085C424.643 166.429 424.169 165.882 423.548 165.809C422.891 165.736 422.344 166.21 422.271 166.83C422.198 167.596 422.125 168.435 422.125 169.31L412.197 187.109C407.525 195.462 398.948 201.042 389.349 201.772C372.159 203.085 353.581 201.042 344.529 199.729C343.726 196.775 343.069 193.164 344.054 190.173C347.887 178.72 356.354 176.058 356.72 175.949C357.194 175.803 357.523 175.401 357.559 174.891L358.034 167.45C358.07 166.793 357.596 166.246 356.939 166.21C356.281 166.173 355.734 166.648 355.698 167.304L355.515 170.003C350.989 177.699 343.507 181.346 339.054 189.189C343.617 178.173 351.43 157.459 358.803 149.398ZM422.967 179.963C425.668 198.492 434.245 224.388 436.363 230.699L400.485 233.799L396.397 208.048C404.281 206.261 411.142 201.154 415.121 194.006L422.967 179.963ZM337.123 194.042C336.393 196.96 336.466 199.476 337.597 202.686H333.473C334.75 199.805 335.955 196.923 337.123 194.042ZM328.911 205.021H386.395C387.125 205.021 387.746 205.531 387.855 206.261C388.476 210.127 387.673 205.239 392.345 234.492L365.007 236.862C364.387 236.899 363.912 237.446 363.949 238.03L363.985 239.525C356.138 235.914 356.466 236.425 351.94 234.893C344.495 232.376 339.166 230.808 338.18 233.616C337.377 236.024 341.538 239.306 345.334 241.677C342.341 242.334 337.523 243.391 333.472 244.522L327.45 206.698C327.267 205.823 327.998 205.021 328.911 205.021ZM320.844 229.203C322.815 225.628 324.786 221.798 326.757 217.604L331.137 245.215C326.648 246.601 325.626 247.403 325.188 248.096C324.859 248.607 324.823 249.227 325.078 249.737C325.443 250.503 326.392 251.342 330.371 252.072C324.932 253.312 323.983 254.771 323.837 255.974C323.764 256.558 323.947 257.105 324.385 257.543C325.005 258.163 326.319 258.819 330.882 258.71C328.035 259.987 327.378 260.935 327.159 261.701C326.976 262.321 327.122 262.941 327.524 263.452C327.962 263.999 328.692 264.363 329.714 264.582L268.067 280.85L260.621 252.436C323.873 228.217 320.479 229.932 320.844 229.203ZM226.53 248.06C232.224 245.543 242.99 253.385 246.64 256.631C246.896 256.85 247.224 256.959 247.553 256.923L259.123 255.683L265.291 279.208L262.663 279.61C259.999 274.139 248.064 264.181 234.267 260.242C231.749 259.513 228.865 258.82 225.434 258.199C224.741 258.09 224.12 258.564 224.047 259.221C223.573 263.342 218.208 263.671 214.083 263.233C216.602 258.09 221.347 250.358 226.53 248.06ZM213.828 258.783C212.259 261.482 211.383 263.524 211.31 263.634C211.018 264.327 211.419 265.093 212.149 265.239C212.478 265.312 219.85 266.771 223.865 263.816C224.996 263.014 225.726 261.92 226.128 260.643C228.975 261.19 231.457 261.774 233.61 262.43C246.676 266.187 259.087 276.327 260.765 281.105C260.984 281.689 260.911 281.944 260.911 282.017C260.29 283.731 254.012 283.367 248.574 281.944C248.136 281.835 247.662 281.981 247.37 282.345C247.26 282.491 236.529 295.221 226.858 294.419C228.427 290.99 227.515 287.452 224.047 287.634C225.398 282.893 221.529 279.647 216.711 280.485C217.295 277.349 216.383 274.686 213.353 273.738C208.207 272.133 202.623 279.245 202.003 280.084C201.82 280.303 201.82 280.485 201.784 280.668C201.638 280.558 201.492 280.413 201.346 280.34L200.616 259.512C203.864 258.819 208.462 258.272 213.828 258.783ZM153.167 178.43C156.233 186.344 162.292 211.585 171.161 253.384H145.539C144.736 231.499 145.539 230.66 145.247 214.94C145.247 214.612 144.116 183.244 138.823 179.341C137.4 178.283 135.684 178.867 135.794 180.143C138.677 206.733 138.75 242.733 139.006 253.384H111.851C111.669 239.196 110.72 225.263 109.296 211.111L119.735 162.746C119.845 162.235 119.589 161.725 119.151 161.469L108.785 155.852L116.45 149.25C116.961 148.813 116.997 148.047 116.523 147.572L112.362 143.232C123.896 147.208 126.998 149.652 127.18 149.724C128.056 150.417 145.868 159.427 153.167 178.43ZM64.4027 135.171L86.1192 148.448L80.6443 164.132L67.14 152.752C63.3807 128.642 64.6582 136.958 64.4027 135.171ZM95.8281 136.922C98.967 157.602 98.3101 153.372 98.6385 155.487L97.2515 159.39L88.8568 147.828L95.8281 136.922ZM92.7258 174.526C92.7623 174.49 92.8353 174.454 92.8718 174.381V174.563C92.3608 175.256 91.7038 176.022 90.8644 176.46C88.7475 177.59 85.8276 175.037 84.1852 173.286V173.14C86.1926 174.855 89.222 176.46 91.5944 175.256C92.0689 175.037 92.4338 174.782 92.7258 174.526ZM75.4251 206.295L67.6509 156.289L77.2861 164.422C78.9285 167.085 80.5345 169.31 82.0674 171.024C81.4834 177.553 82.0674 163.547 81.8119 253.42H74.7312C75.7167 203.486 75.7536 206.806 75.4251 206.295ZM105.244 253.384L95.2439 174.818L94.9519 171.426C96.0103 169.383 96.9593 166.575 97.8353 163C98.2367 162.927 98.5652 162.635 98.7112 162.271L99.3682 160.374L107.033 211.183C108.42 225.225 109.405 239.268 109.588 253.383L105.244 253.384ZM43.6343 74.5534C44.2913 72.1461 45.5687 69.8482 47.9046 69.0458C50.9705 67.9881 55.4598 69.8118 57.9416 71.5625C58.8175 72.1826 60.022 71.3802 59.73 70.3224L58.7446 66.6385C59 62.5534 59.657 56.5718 61.2629 55.1124C63.8179 52.778 76.0081 43.0391 67.1027 31.7324C67.1027 31.7324 101.484 40.7051 119.952 34.5774C126.485 59.9267 124.295 108.912 106.813 117.229C81.1182 129.448 61.2265 93.265 61.0079 92.9C60.8619 92.6446 60.6429 92.4623 60.3874 92.3528C60.3144 92.2799 40.8975 85.0941 43.6343 74.5534ZM92.6884 121.824L95.2798 133.496L87.0311 146.335L63.9635 132.183L62.0656 98.7728C67.139 106.177 78.2721 119.854 92.6884 121.824ZM6.25975 167.818C8.30367 162.493 11.771 153.557 16.406 150.456C16.479 150.42 16.5155 150.383 16.552 150.311C23.9612 143.162 39.2542 139.842 45.4594 138.784L40.751 145.496C40.4225 145.97 40.4955 146.59 40.897 146.991L49.5107 155.526L42.722 157.569C41.992 157.788 41.6635 158.663 42.065 159.319L73.2709 207.903C73.1979 212.572 73.5994 191.052 72.3949 253.35H56.92L44.0725 169.97C43.963 169.35 43.379 168.912 42.7221 168.985C42.1016 169.094 41.6636 169.678 41.7366 170.334L54.7299 254.7C54.8029 255.284 55.3138 255.685 55.8978 255.685H198.136L199.158 285.339C157.586 288.84 90.0617 296.062 49.258 304.706C35.0604 307.697 13.6354 294.931 10.3866 281.545C1.18894 243.721 -0.893649 186.316 6.25975 167.818Z" fill="#0A2D47"/>
</svg>
