<svg width="70" height="73" viewBox="0 0 70 73" fill="none" xmlns="http://www.w3.org/2000/svg">
<path d="M22.8714 70.3964L20.462 61.9636L18.221 61.3233L15.368 65.1273L18.568 72.5937H24.096V71.8476L23.1955 70.9471C23.0424 70.794 22.9309 70.6045 22.8714 70.3964Z" fill="#FE3434"/>
<path d="M2.10365 49.6693H2.44528V42.5626C0.93024 44.1526 0.282246 46.3696 0.714481 48.5305C0.846471 49.1903 1.43063 49.6693 2.10365 49.6693Z" fill="#FE3434"/>
<path d="M66.5972 41.7451C66.4079 41.5921 66.2662 41.388 66.1893 41.1571L65.1025 37.8967L59.283 35.5689C59.1229 35.5049 58.9775 35.4089 58.8555 35.287L56.9574 33.3889L55.245 34.2451L51.9457 35.9934C51.7556 36.0941 51.5516 36.1419 51.3505 36.1419C50.8939 36.1419 50.4527 35.8959 50.224 35.4644C49.8947 34.8429 50.1315 34.0721 50.7531 33.7427L51.2706 33.4685L39.1383 30.0021C37.7877 29.616 36.3222 29.8094 35.1178 30.5321L31.119 32.9313C30.9211 33.0501 30.6946 33.1128 30.4638 33.1128H16.2399C13.4334 33.1128 10.7948 34.2058 8.81031 36.1903L4.99239 40.0083V52.2164C4.99239 52.3946 4.95499 52.5708 4.88262 52.7337L0 63.7195L3.32781 72.5936H10.8327L9.18614 70.947C8.73793 70.4989 8.68756 69.7893 9.06782 69.2823L16.7093 59.0938C17.0259 58.6715 17.5706 58.4882 18.078 58.6333L22.4842 59.8921C24.8874 60.5789 27.4215 60.6997 29.8731 60.2507L29.3247 59.1539C29.109 58.7224 29.1555 58.2061 29.445 57.8202L33.011 53.0655V49.6693C33.011 48.9659 33.5811 48.3957 34.2846 48.3957C34.988 48.3957 35.5581 48.9659 35.5581 49.6693V53.49C35.5581 53.7656 35.4687 54.0337 35.3034 54.2541L31.955 58.7188L32.8641 60.5372C32.8723 60.5527 32.8802 60.5685 32.8878 60.5845L38.8924 72.5936H47.0203V70.9644L44.0704 69.9811C43.5504 69.8077 43.1996 69.3211 43.1996 68.7729V62.405C43.1996 62.111 43.3013 61.8261 43.4874 61.5985L54.2197 48.4812L52.4876 46.7491C52.2487 46.5103 52.1146 46.1863 52.1146 45.8486V43.3014C52.1146 42.598 52.6847 42.0279 53.3881 42.0279C54.0915 42.0279 54.6617 42.598 54.6617 43.3014V45.3211L56.4628 47.1221H68.929L70 44.4935L66.5972 41.7451ZM61.6721 41.4233C60.784 41.4233 60.0641 40.7033 60.0641 39.8152C60.0641 38.9271 60.784 38.2072 61.6721 38.2072C62.5602 38.2072 63.2802 38.9271 63.2802 39.8152C63.2802 40.7034 62.5603 41.4233 61.6721 41.4233Z" fill="#FE3434"/>
<path d="M53.1644 53.7937L49.0478 58.825L55.317 62.5866C55.4787 62.6836 55.6169 62.8152 55.7214 62.9722L57.729 65.9836L59.4701 65.4031L57.3486 57.9779L53.1644 53.7937Z" fill="#FE3434"/>
<path d="M4.99243 15.2829V19.1036C4.99243 19.807 5.56259 20.3772 6.266 20.3772C6.96941 20.3772 7.53958 19.807 7.53958 19.1036V15.2829C7.53958 14.5795 6.96941 14.0093 6.266 14.0093C5.56259 14.0093 4.99243 14.5795 4.99243 15.2829Z" fill="#FE3434"/>
<path d="M10.0867 19.1036V22.9243C10.0867 23.6277 10.6569 24.1979 11.3603 24.1979C12.0637 24.1979 12.6339 23.6277 12.6339 22.9243V19.1036C12.6339 18.4002 12.0637 17.83 11.3603 17.83C10.6569 17.83 10.0867 18.4002 10.0867 19.1036Z" fill="#FE3434"/>
<path d="M15.181 22.9243V26.745C15.181 27.4484 15.7512 28.0186 16.4546 28.0186C17.158 28.0186 17.7282 27.4484 17.7282 26.745V22.9243C17.7282 22.2209 17.158 21.6507 16.4546 21.6507C15.7512 21.6507 15.181 22.2209 15.181 22.9243Z" fill="#FE3434"/>
<path d="M31.7375 17.83V21.6507C31.7375 22.3541 32.3076 22.9243 33.011 22.9243C33.7144 22.9243 34.2846 22.3541 34.2846 21.6507V17.83C34.2846 17.1266 33.7144 16.5564 33.011 16.5564C32.3076 16.5564 31.7375 17.1266 31.7375 17.83Z" fill="#FE3434"/>
<path d="M36.8317 19.1036V22.9243C36.8317 23.6277 37.4019 24.1979 38.1053 24.1979C38.8087 24.1979 39.3789 23.6277 39.3789 22.9243V19.1036C39.3789 18.4002 38.8087 17.83 38.1053 17.83C37.4019 17.83 36.8317 18.4002 36.8317 19.1036Z" fill="#FE3434"/>
<path d="M26.6432 21.6507V25.4715C26.6432 26.1749 27.2134 26.745 27.9168 26.745C28.6202 26.745 29.1903 26.1749 29.1903 25.4715V21.6507C29.1903 20.9473 28.6202 20.3772 27.9168 20.3772C27.2134 20.3772 26.6432 20.9473 26.6432 21.6507Z" fill="#FE3434"/>
<path d="M62.3032 24.1979L55.9353 14.0093L53.8628 17.3254L30.4639 2.54715L22.8224 11.4622L6.26597 0L2.44525 5.09429L24.096 19.1036L31.7374 8.91501L51.4277 21.2214L49.5674 24.1979H62.3032Z" fill="#FE3434"/>
</svg>
