<svg width="357" height="401" viewBox="0 0 357 401" fill="none" xmlns="http://www.w3.org/2000/svg">
<path d="M356.048 163.708C357.631 120.875 342.236 77.5175 308.315 56.88C291.565 46.6895 271.987 40.727 252.4 41.6041C231.389 42.5453 211.602 51.0965 191.781 58.1325C171.961 65.1685 150.508 70.8269 130.081 65.8212C115.298 62.1982 102.297 53.2539 87.633 49.1748C30.055 33.1584 -20.1115 98.5315 8.08126 150.467C15.0004 163.213 25.676 173.43 34.6264 184.842C43.5758 196.254 51.1125 210.022 49.9076 224.475C48.9116 236.436 42.0876 247.096 39.2661 258.762C33.8632 281.107 44.5739 305.695 63.0984 319.31C81.6219 332.924 106.611 336.14 128.907 330.541C151.203 324.941 170.892 311.219 186.38 294.231C194.672 285.137 202.754 274.502 214.666 271.411C226.089 268.448 237.874 273.266 249.465 275.48C270.821 279.56 293.79 274.336 311.281 261.419C339.315 240.716 354.618 202.425 356.048 163.708Z" fill="#92E3A9"/>
<path opacity="0.7" d="M356.048 163.708C357.631 120.875 342.236 77.5175 308.315 56.88C291.565 46.6895 271.987 40.727 252.4 41.6041C231.389 42.5453 211.602 51.0965 191.781 58.1325C171.961 65.1685 150.508 70.8269 130.081 65.8212C115.298 62.1982 102.297 53.2539 87.633 49.1748C30.055 33.1584 -20.1115 98.5315 8.08126 150.467C15.0004 163.213 25.676 173.43 34.6264 184.842C43.5758 196.254 51.1125 210.022 49.9076 224.475C48.9116 236.436 42.0876 247.096 39.2661 258.762C33.8632 281.107 44.5739 305.695 63.0984 319.31C81.6219 332.924 106.611 336.14 128.907 330.541C151.203 324.941 170.892 311.219 186.38 294.231C194.672 285.137 202.754 274.502 214.666 271.411C226.089 268.448 237.874 273.266 249.465 275.48C270.821 279.56 293.79 274.336 311.281 261.419C339.315 240.716 354.618 202.425 356.048 163.708Z" fill="white"/>
<path d="M171.758 401C248.991 401 311.6 388.478 311.6 373.032C311.6 357.585 248.991 345.063 171.758 345.063C94.5259 345.063 31.9167 357.585 31.9167 373.032C31.9167 388.478 94.5259 401 171.758 401Z" fill="#7DC291"/>
<path opacity="0.5" d="M171.758 401C248.991 401 311.6 388.478 311.6 373.032C311.6 357.585 248.991 345.063 171.758 345.063C94.5259 345.063 31.9167 357.585 31.9167 373.032C31.9167 388.478 94.5259 401 171.758 401Z" fill="white"/>
<path d="M320.209 124.621H219.39C215.943 124.621 213.149 121.828 213.149 118.382V7.24069C213.149 3.79456 215.942 1 219.39 1H320.209C323.655 1 326.448 3.79352 326.448 7.24069V118.382C326.448 121.828 323.655 124.621 320.209 124.621Z" fill="white" stroke="#263238" stroke-miterlimit="10" stroke-linecap="round" stroke-linejoin="round"/>
<path d="M326.448 13.7151H213.149V7.24069C213.149 3.79456 215.942 1 219.39 1H320.209C323.655 1 326.448 3.79352 326.448 7.24069V13.7151Z" fill="#263238" stroke="#263238" stroke-miterlimit="10" stroke-linecap="round" stroke-linejoin="round"/>
<path d="M219.328 67.002H264.916" stroke="#263238" stroke-miterlimit="10" stroke-linecap="round" stroke-linejoin="round"/>
<path d="M219.328 72.8901H264.916" stroke="#263238" stroke-miterlimit="10" stroke-linecap="round" stroke-linejoin="round"/>
<path d="M219.328 78.7764H264.916" stroke="#263238" stroke-miterlimit="10" stroke-linecap="round" stroke-linejoin="round"/>
<path d="M219.328 84.6641H264.916" stroke="#263238" stroke-miterlimit="10" stroke-linecap="round" stroke-linejoin="round"/>
<path d="M219.328 90.5518H264.916" stroke="#263238" stroke-miterlimit="10" stroke-linecap="round" stroke-linejoin="round"/>
<path d="M219.328 96.4385H264.916" stroke="#263238" stroke-miterlimit="10" stroke-linecap="round" stroke-linejoin="round"/>
<path d="M219.328 102.327H264.916" stroke="#263238" stroke-miterlimit="10" stroke-linecap="round" stroke-linejoin="round"/>
<path d="M219.328 108.214H264.916" stroke="#263238" stroke-miterlimit="10" stroke-linecap="round" stroke-linejoin="round"/>
<path d="M219.328 114.102H264.916" stroke="#263238" stroke-miterlimit="10" stroke-linecap="round" stroke-linejoin="round"/>
<path d="M272.935 67.002H318.522" stroke="#263238" stroke-miterlimit="10" stroke-linecap="round" stroke-linejoin="round"/>
<path d="M272.935 72.8901H318.522" stroke="#263238" stroke-miterlimit="10" stroke-linecap="round" stroke-linejoin="round"/>
<path d="M272.935 78.7764H318.522" stroke="#263238" stroke-miterlimit="10" stroke-linecap="round" stroke-linejoin="round"/>
<path d="M272.935 84.6641H318.522" stroke="#263238" stroke-miterlimit="10" stroke-linecap="round" stroke-linejoin="round"/>
<path d="M272.935 90.5518H318.522" stroke="#263238" stroke-miterlimit="10" stroke-linecap="round" stroke-linejoin="round"/>
<path d="M272.935 96.4385H318.522" stroke="#263238" stroke-miterlimit="10" stroke-linecap="round" stroke-linejoin="round"/>
<path d="M272.935 102.327H318.522" stroke="#263238" stroke-miterlimit="10" stroke-linecap="round" stroke-linejoin="round"/>
<path d="M272.935 108.214H318.522" stroke="#263238" stroke-miterlimit="10" stroke-linecap="round" stroke-linejoin="round"/>
<path d="M272.935 114.102H318.522" stroke="#263238" stroke-miterlimit="10" stroke-linecap="round" stroke-linejoin="round"/>
<path d="M249.812 29.7453C250.049 29.0772 250.167 28.2115 250.167 27.5827C250.167 24.9091 247.453 24.7509 244.779 24.7509H244.11V24.1221H255.752V24.7509C252.723 24.7509 251.661 26.6777 250.679 29.5488L244.503 48.0723C244.032 49.4489 243.639 50.4718 242.184 50.4718H242.066L236.6 32.7746L231.487 48.0733C231.016 49.4499 230.623 50.4728 229.168 50.4728H229.05L221.105 24.7519H218.313V24.1231H228.539V24.7519H225.628L231.528 45.045H231.765L236.209 31.516L234.124 24.7509H231.331V24.1221H241.557V24.7509H238.647L244.546 45.044H244.782L249.812 29.7453Z" fill="#92E3A9"/>
<path d="M318.848 18.2554H271.933V60.6557H318.848V18.2554Z" fill="#92E3A9" stroke="#263238" stroke-width="2" stroke-miterlimit="10" stroke-linecap="round" stroke-linejoin="round"/>
<path d="M318.848 35.9756C317.579 36.0397 316.036 36.229 314.166 36.6354C307.039 38.1848 305.18 48.4104 297.123 48.4104C289.99 48.4104 289.377 38.8043 279.151 37.5652C276.063 37.1908 273.714 37.8083 271.933 38.8498V60.657H318.848V35.9756Z" fill="#263238" stroke="#263238" stroke-miterlimit="10" stroke-linecap="round" stroke-linejoin="round"/>
<path d="M287.517 27.9594C287.517 30.8687 285.159 33.2268 282.25 33.2268C279.34 33.2268 276.982 30.8687 276.982 27.9594C276.982 25.05 279.34 22.6919 282.25 22.6919C285.159 22.6919 287.517 25.05 287.517 27.9594Z" fill="white" stroke="#263238" stroke-miterlimit="10" stroke-linecap="round" stroke-linejoin="round"/>
<path d="M320.982 4.71924H216.558V8.74766H320.982V4.71924Z" fill="white" stroke="#263238" stroke-miterlimit="10" stroke-linecap="round" stroke-linejoin="round"/>
<path d="M314.473 149.295H269.262C265.562 149.295 262.563 152.295 262.563 155.994V180.175C262.563 183.875 265.562 186.874 269.262 186.874H270.669C269.266 189.994 266.566 194.735 262.218 197.561C262.218 197.561 271.389 196.922 280.948 186.874H314.473C318.172 186.874 321.172 183.875 321.172 180.175V155.994C321.171 152.295 318.172 149.295 314.473 149.295Z" fill="#263238" stroke="#263238" stroke-miterlimit="10" stroke-linecap="round" stroke-linejoin="round"/>
<path d="M284.093 167.223C284.093 165.319 282.55 163.776 280.646 163.776C278.742 163.776 277.198 165.319 277.198 167.223C277.198 169.127 278.742 170.67 280.646 170.67C282.55 170.67 284.093 169.127 284.093 167.223Z" fill="#92E3A9" stroke="#263238" stroke-miterlimit="10" stroke-linecap="round" stroke-linejoin="round"/>
<path d="M295.814 167.223C295.814 165.319 294.271 163.776 292.367 163.776C290.463 163.776 288.919 165.319 288.919 167.223C288.919 169.127 290.463 170.67 292.367 170.67C294.271 170.67 295.814 169.127 295.814 167.223Z" fill="#92E3A9" stroke="#263238" stroke-miterlimit="10" stroke-linecap="round" stroke-linejoin="round"/>
<path d="M307.536 167.223C307.536 165.319 305.993 163.776 304.089 163.776C302.185 163.776 300.642 165.319 300.642 167.223C300.642 169.127 302.185 170.67 304.089 170.67C305.992 170.67 307.536 169.127 307.536 167.223Z" fill="#92E3A9" stroke="#263238" stroke-miterlimit="10" stroke-linecap="round" stroke-linejoin="round"/>
<path d="M146.977 73.9386H59.219V22.3489C59.219 18.6577 62.2121 15.6646 65.9034 15.6646H140.292C143.984 15.6646 146.977 18.6577 146.977 22.3489V73.9386Z" fill="#92E3A9" stroke="#263238" stroke-miterlimit="10" stroke-linecap="round" stroke-linejoin="round"/>
<path d="M146.978 65.6392H59.22V73.938H146.978V65.6392Z" fill="#263238" stroke="#263238" stroke-miterlimit="10" stroke-linecap="round" stroke-linejoin="round"/>
<path d="M142.959 68.4766H63.2368V71.1015H142.959V68.4766Z" fill="white" stroke="#263238" stroke-miterlimit="10" stroke-linecap="round" stroke-linejoin="round"/>
<path d="M103.098 54.2482C109.792 54.2482 115.219 48.8217 115.219 42.1277C115.219 35.4338 109.792 30.0073 103.098 30.0073C96.4043 30.0073 90.9778 35.4338 90.9778 42.1277C90.9778 48.8217 96.4043 54.2482 103.098 54.2482Z" fill="#263238" stroke="#263238" stroke-miterlimit="10" stroke-linecap="round" stroke-linejoin="round"/>
<path d="M97.6289 34.5776L110.706 42.1277L97.6289 49.6777V34.5776Z" fill="white" stroke="#263238" stroke-miterlimit="10" stroke-linecap="round" stroke-linejoin="round"/>
<path d="M109.018 132.747H25.7195C24.1113 132.747 22.8081 131.444 22.8081 129.836V98.0809C22.8081 96.4726 24.1113 95.1694 25.7195 95.1694H109.018C110.627 95.1694 111.93 96.4726 111.93 98.0809V129.836C111.931 131.444 110.627 132.747 109.018 132.747Z" fill="#263238" stroke="#263238" stroke-miterlimit="10" stroke-linecap="round" stroke-linejoin="round"/>
<path d="M33.4214 100.288L33.8537 101.008C31.8855 102.111 30.0611 104.032 30.0611 106.289C30.0611 108.257 31.4532 109.409 32.8453 109.409C33.1328 109.409 33.3252 109.265 33.3252 108.977C33.3252 108.737 33.1815 108.593 32.8939 108.546C32.2217 108.402 31.6456 107.777 31.6456 106.721C31.6456 105.329 32.7978 104.417 34.1899 104.417C35.6782 104.417 36.7827 105.618 36.7827 107.106C36.7827 108.978 35.2469 110.322 33.3738 110.322C30.9733 110.322 29.1975 108.787 29.1975 106.29C29.1965 103.648 31.2133 101.536 33.4214 100.288ZM42.3026 100.288L42.7338 101.008C40.7657 102.111 38.9423 104.032 38.9423 106.289C38.9423 108.257 40.3344 109.409 41.7265 109.409C42.015 109.409 42.2064 109.265 42.2064 108.977C42.2064 108.737 42.0626 108.593 41.7741 108.546C41.1018 108.402 40.5257 107.777 40.5257 106.721C40.5257 105.329 41.6779 104.417 43.07 104.417C44.5583 104.417 45.6618 105.618 45.6618 107.106C45.6618 108.978 44.1259 110.322 42.2539 110.322C39.8534 110.322 38.0766 108.787 38.0766 106.29C38.0776 103.648 40.0944 101.536 42.3026 100.288Z" fill="#92E3A9"/>
<path d="M50.8103 107.944H101.523" stroke="white" stroke-miterlimit="10" stroke-linecap="round" stroke-linejoin="round"/>
<path d="M50.8103 112.3H101.523" stroke="white" stroke-miterlimit="10" stroke-linecap="round" stroke-linejoin="round"/>
<path d="M50.8103 116.656H101.523" stroke="white" stroke-miterlimit="10" stroke-linecap="round" stroke-linejoin="round"/>
<path d="M50.8103 121.011H101.523" stroke="white" stroke-miterlimit="10" stroke-linecap="round" stroke-linejoin="round"/>
<path d="M92.5478 191.002C103.018 189.292 110.121 179.419 108.412 168.948C106.702 158.478 96.8288 151.375 86.3582 153.084C75.8877 154.794 68.7852 164.667 70.4944 175.138C72.2036 185.608 82.0772 192.711 92.5478 191.002Z" fill="#263238" stroke="#263238" stroke-miterlimit="10" stroke-linecap="round" stroke-linejoin="round"/>
<path d="M101.628 182.741C107.533 176.017 106.868 165.779 100.144 159.874C93.4197 153.97 83.1819 154.634 77.2774 161.359C71.3728 168.083 72.0373 178.321 78.7616 184.225C85.4859 190.13 95.7237 189.465 101.628 182.741Z" fill="white" stroke="#263238" stroke-miterlimit="10" stroke-linecap="round" stroke-linejoin="round"/>
<path d="M89.4626 160.328V172.049H97.3912" stroke="#263238" stroke-width="2" stroke-miterlimit="10" stroke-linecap="round" stroke-linejoin="round"/>
<path d="M209.594 172.089C209.594 172.089 220.607 195.598 220.607 196.835C220.607 198.072 210.832 203.394 208.976 204.507C207.12 205.621 204.521 206.734 204.521 206.734L205.635 217.623C205.635 217.623 222.463 213.787 229.516 209.952C236.569 206.116 236.321 201.785 234.713 195.351C233.105 188.917 222.216 164.046 222.216 164.046L209.594 172.089Z" fill="white"/>
<mask id="mask0_45_818" style="mask-type:luminance" maskUnits="userSpaceOnUse" x="204" y="164" width="32" height="54">
<path d="M209.594 172.089C209.594 172.089 220.607 195.598 220.607 196.835C220.607 198.072 210.832 203.394 208.976 204.507C207.12 205.621 204.521 206.734 204.521 206.734L205.635 217.623C205.635 217.623 222.463 213.787 229.516 209.952C236.569 206.116 236.321 201.785 234.713 195.351C233.105 188.917 222.216 164.046 222.216 164.046L209.594 172.089Z" fill="white"/>
</mask>
<g mask="url(#mask0_45_818)">
<path opacity="0.5" d="M229.516 209.952C236.569 206.116 236.321 201.785 234.713 195.351C233.105 188.917 222.216 164.046 222.216 164.046L220.459 165.166L219.899 166.228C219.899 166.228 230.04 191.123 230.656 199.421C231.068 204.993 219.848 211.946 212.426 215.916C217.916 214.439 225.388 212.196 229.516 209.952Z" fill="#92E3A9"/>
</g>
<path d="M209.594 172.089C209.594 172.089 220.607 195.598 220.607 196.835C220.607 198.072 210.832 203.394 208.976 204.507C207.12 205.621 204.521 206.734 204.521 206.734L205.635 217.623C205.635 217.623 222.463 213.787 229.516 209.952C236.569 206.116 236.321 201.785 234.713 195.351C233.105 188.917 222.216 164.046 222.216 164.046L209.594 172.089Z" stroke="#263238" stroke-miterlimit="10" stroke-linecap="round" stroke-linejoin="round"/>
<path d="M130.156 166.892C130.156 166.892 122.114 196.341 121.866 201.539C121.619 206.736 137.827 217.006 138.446 217.624C139.064 218.243 137.528 199.73 137.528 199.73L143.025 172.832L130.156 166.892Z" fill="white"/>
<mask id="mask1_45_818" style="mask-type:luminance" maskUnits="userSpaceOnUse" x="121" y="166" width="23" height="52">
<path d="M130.156 166.892C130.156 166.892 122.114 196.341 121.866 201.539C121.619 206.736 137.827 217.006 138.446 217.624C139.064 218.243 137.528 199.73 137.528 199.73L143.025 172.832L130.156 166.892Z" fill="white"/>
</mask>
<g mask="url(#mask1_45_818)">
<path opacity="0.5" d="M133.84 169.301L133.661 168.509L130.157 166.891C130.157 166.891 122.115 196.34 121.867 201.537C121.62 206.734 137.828 217.004 138.447 217.622C138.692 217.867 138.598 215.103 138.396 211.678C133.576 207.59 126.657 201.845 125.85 199.419" fill="#92E3A9"/>
</g>
<path d="M130.156 166.892C130.156 166.892 122.114 196.341 121.866 201.539C121.619 206.736 137.827 217.006 138.446 217.624C139.064 218.243 137.528 199.73 137.528 199.73L143.025 172.832L130.156 166.892Z" stroke="#263238" stroke-miterlimit="10" stroke-linecap="round" stroke-linejoin="round"/>
<path d="M167.895 137.319C167.895 137.319 164.802 139.547 158.739 139.794C152.676 140.041 152.402 135.675 144.881 135.711C135.776 135.754 124.341 164.542 124.341 164.542C124.341 164.542 130.032 170.11 135.601 172.461C141.169 174.812 145.252 175.307 145.252 175.307L146.118 194.239H207.491L208.233 175.307L227.413 162.81C227.413 162.81 218.009 145.982 213.43 139.672C208.852 133.361 201.181 135.713 198.83 137.321C196.479 138.929 189.55 139.301 186.951 138.929C184.353 138.558 177.053 136.207 177.053 136.207C177.053 136.207 173.092 132.865 167.895 137.319Z" fill="#92E3A9" stroke="#263238" stroke-miterlimit="10" stroke-linecap="round" stroke-linejoin="round"/>
<path d="M145.871 144.001L145.624 175.43" stroke="#263238" stroke-width="0.5" stroke-miterlimit="10" stroke-linecap="round" stroke-linejoin="round"/>
<path d="M148.098 146.847C148.098 146.847 148.964 162.19 152.181 170.728" stroke="#263238" stroke-width="0.5" stroke-miterlimit="10" stroke-linecap="round" stroke-linejoin="round"/>
<path d="M152.801 171.964C152.801 171.964 154.409 176.542 155.399 178.027" stroke="#263238" stroke-width="0.5" stroke-miterlimit="10" stroke-linecap="round" stroke-linejoin="round"/>
<path d="M150.078 145.115C150.078 145.115 151.935 154.271 155.028 161.448" stroke="#263238" stroke-width="0.5" stroke-miterlimit="10" stroke-linecap="round" stroke-linejoin="round"/>
<path d="M203.408 147.837C203.408 147.837 200.438 159.963 197.839 165.407" stroke="#263238" stroke-width="0.5" stroke-miterlimit="10" stroke-linecap="round" stroke-linejoin="round"/>
<path d="M208.233 175.305L208.11 150.806" stroke="#263238" stroke-width="0.5" stroke-miterlimit="10" stroke-linecap="round" stroke-linejoin="round"/>
<path d="M206.872 151.301C206.872 151.301 204.644 166.769 199.201 174.935" stroke="#263238" stroke-width="0.5" stroke-miterlimit="10" stroke-linecap="round" stroke-linejoin="round"/>
<path d="M204.15 171.841C204.15 171.841 201.675 176.543 199.943 179.018" stroke="#263238" stroke-width="0.5" stroke-miterlimit="10" stroke-linecap="round" stroke-linejoin="round"/>
<path d="M164.432 139.175C164.432 139.175 166.164 149.816 168.639 155.261C171.114 160.705 175.444 161.819 179.156 160.21C182.868 158.602 185.59 150.683 185.343 140.537" stroke="#263238" stroke-width="0.5" stroke-miterlimit="10" stroke-linecap="round" stroke-linejoin="round"/>
<path d="M155.646 116.904C155.646 116.904 153.295 112.82 151.439 114.924C149.582 117.028 152.924 121.853 154.779 123.462C156.636 125.07 157.997 124.08 157.873 122.348C157.75 120.615 155.646 116.904 155.646 116.904Z" fill="#92E3A9" stroke="#263238" stroke-miterlimit="10" stroke-linecap="round" stroke-linejoin="round"/>
<path opacity="0.5" d="M155.646 116.904C155.646 116.904 153.295 112.82 151.439 114.924C149.582 117.028 152.924 121.853 154.779 123.462C156.636 125.07 157.997 124.08 157.873 122.348C157.75 120.615 155.646 116.904 155.646 116.904Z" fill="white"/>
<path d="M155.646 116.904C155.646 116.904 153.295 112.82 151.439 114.924C149.582 117.028 152.924 121.853 154.779 123.462C156.636 125.07 157.997 124.08 157.873 122.348C157.75 120.615 155.646 116.904 155.646 116.904Z" stroke="#263238" stroke-miterlimit="10" stroke-linecap="round" stroke-linejoin="round"/>
<path d="M193.097 116.904C193.097 116.904 195.448 112.82 197.304 114.924C199.161 117.028 195.819 121.853 193.964 123.462C192.107 125.07 190.746 124.08 190.87 122.348C190.993 120.615 193.097 116.904 193.097 116.904Z" fill="#92E3A9" stroke="#263238" stroke-miterlimit="10" stroke-linecap="round" stroke-linejoin="round"/>
<path opacity="0.5" d="M193.097 116.904C193.097 116.904 195.448 112.82 197.304 114.924C199.161 117.028 195.819 121.853 193.964 123.462C192.107 125.07 190.746 124.08 190.87 122.348C190.993 120.615 193.097 116.904 193.097 116.904Z" fill="white"/>
<path d="M193.097 116.904C193.097 116.904 195.448 112.82 197.304 114.924C199.161 117.028 195.819 121.853 193.964 123.462C192.107 125.07 190.746 124.08 190.87 122.348C190.993 120.615 193.097 116.904 193.097 116.904Z" stroke="#263238" stroke-miterlimit="10" stroke-linecap="round" stroke-linejoin="round"/>
<path d="M166.783 136.453C166.783 136.453 169.011 146.476 171.237 152.043C173.464 157.611 177.671 157.611 179.404 154.023C181.136 150.435 182.25 137.071 182.25 137.071C182.25 137.071 170.618 138.68 166.783 136.453Z" fill="white" stroke="#263238" stroke-miterlimit="10" stroke-linecap="round" stroke-linejoin="round"/>
<path d="M155.894 118.263C155.894 118.263 159.111 129.647 165.174 136.328C171.237 143.01 173.465 144.619 176.681 144.124C179.899 143.628 183.363 139.422 188.188 130.637C193.014 121.852 193.386 115.17 193.757 114.551C194.128 113.933 192.767 101.559 185.838 96.2387C178.908 90.9185 171.237 88.5677 164.555 94.3833C157.873 100.198 153.666 109.725 155.894 118.263Z" fill="white"/>
<mask id="mask2_45_818" style="mask-type:luminance" maskUnits="userSpaceOnUse" x="155" y="90" width="39" height="55">
<path d="M155.894 118.263C155.894 118.263 159.111 129.647 165.174 136.328C171.237 143.01 173.465 144.619 176.681 144.124C179.899 143.628 183.363 139.422 188.188 130.637C193.014 121.852 193.386 115.17 193.757 114.551C194.128 113.933 192.767 101.559 185.838 96.2387C178.908 90.9185 171.237 88.5677 164.555 94.3833C157.873 100.198 153.666 109.725 155.894 118.263Z" fill="white"/>
</mask>
<g mask="url(#mask2_45_818)">
<path opacity="0.5" d="M185.838 96.2387C178.908 90.9175 171.237 88.5666 164.556 94.3822C157.874 100.198 153.667 109.725 155.894 118.263C155.894 118.263 156.512 120.452 157.717 123.472C157.719 123.071 157.764 122.692 157.873 122.346C159.35 117.666 163.714 108.595 178.405 112.749C190.065 116.045 188.638 126.298 187.553 131.776C187.763 131.401 187.973 131.029 188.188 130.637C193.014 121.852 193.386 115.17 193.757 114.551C194.128 113.933 192.766 101.559 185.838 96.2387Z" fill="#92E3A9"/>
</g>
<path d="M155.894 118.263C155.894 118.263 159.111 129.647 165.174 136.328C171.237 143.01 173.465 144.619 176.681 144.124C179.899 143.628 183.363 139.422 188.188 130.637C193.014 121.852 193.386 115.17 193.757 114.551C194.128 113.933 192.767 101.559 185.838 96.2387C178.908 90.9185 171.237 88.5677 164.555 94.3833C157.873 100.198 153.666 109.725 155.894 118.263Z" stroke="#263238" stroke-miterlimit="10" stroke-linecap="round" stroke-linejoin="round"/>
<path d="M176.681 124.203C176.681 124.203 175.939 129.029 176.063 131.504C176.187 133.979 176.929 134.72 175.816 134.969C174.702 135.216 173.465 133.483 173.465 133.483" stroke="#263238" stroke-miterlimit="10" stroke-linecap="round" stroke-linejoin="round"/>
<path d="M164.308 126.183C164.308 126.183 166.783 128.039 169.257 126.307" stroke="#263238" stroke-miterlimit="10" stroke-linecap="round" stroke-linejoin="round"/>
<path d="M180.022 126.183C180.022 126.183 182.497 128.039 184.972 126.307" stroke="#263238" stroke-miterlimit="10" stroke-linecap="round" stroke-linejoin="round"/>
<path d="M172.204 122.015C172.204 122.015 169.853 116.2 162.058 118.922" stroke="#263238" stroke-miterlimit="10" stroke-linecap="round" stroke-linejoin="round"/>
<path d="M178.687 121.3C178.687 121.3 180.667 115.608 187.72 118.949" stroke="#263238" stroke-miterlimit="10" stroke-linecap="round" stroke-linejoin="round"/>
<path d="M173.711 126.616C173.711 129.793 170.055 132.369 165.544 132.369C161.034 132.369 157.378 129.793 157.378 126.616C157.378 123.438 160.787 122.099 165.297 122.099C169.808 122.099 173.711 123.438 173.711 126.616Z" stroke="#263238" stroke-miterlimit="10" stroke-linecap="round" stroke-linejoin="round"/>
<path d="M192.519 126.616C192.519 129.793 188.863 132.369 184.352 132.369C179.842 132.369 176.186 129.793 176.186 126.616C176.186 123.438 179.595 122.099 184.105 122.099C188.615 122.099 192.519 123.438 192.519 126.616Z" stroke="#263238" stroke-miterlimit="10" stroke-linecap="round" stroke-linejoin="round"/>
<path d="M88.2392 225.83L87.7293 351.204C87.7251 352.029 88.3922 352.698 89.2155 352.698C90.017 352.698 90.6738 352.063 90.7007 351.262L94.272 226.003L88.2392 225.83Z" fill="white" stroke="#263238" stroke-miterlimit="10" stroke-linecap="round" stroke-linejoin="round"/>
<path d="M79.7926 255.134L79.2827 384.76C79.2786 385.585 79.9457 386.254 80.769 386.254C81.5705 386.254 82.2272 385.619 82.2541 384.818L85.8254 255.306L79.7926 255.134Z" fill="white" stroke="#263238" stroke-miterlimit="10" stroke-linecap="round" stroke-linejoin="round"/>
<path d="M261.579 225.83L262.089 351.204C262.093 352.029 261.426 352.698 260.603 352.698C259.801 352.698 259.145 352.063 259.117 351.262L255.545 226.003L261.579 225.83Z" fill="white" stroke="#263238" stroke-miterlimit="10" stroke-linecap="round" stroke-linejoin="round"/>
<path d="M270.025 255.134L270.535 384.76C270.539 385.585 269.872 386.254 269.049 386.254C268.247 386.254 267.59 385.619 267.563 384.818L263.992 255.306L270.025 255.134Z" fill="white" stroke="#263238" stroke-miterlimit="10" stroke-linecap="round" stroke-linejoin="round"/>
<path d="M138.565 260.523L138.241 375.578C138.238 376.255 138.663 376.806 139.187 376.806C139.696 376.806 140.114 376.284 140.132 375.626L142.403 260.666L138.565 260.523Z" fill="white" stroke="#263238" stroke-miterlimit="10" stroke-linecap="round" stroke-linejoin="round"/>
<path d="M211.387 256.822L211.661 357.231C211.663 357.803 211.305 358.268 210.862 358.268C210.432 358.268 210.078 357.826 210.064 357.271L208.145 256.941L211.387 256.822Z" fill="white" stroke="#263238" stroke-miterlimit="10" stroke-linecap="round" stroke-linejoin="round"/>
<path d="M137.437 256.822L137.711 357.231C137.714 357.803 137.356 358.268 136.913 358.268C136.483 358.268 136.129 357.826 136.115 357.271L134.196 256.941L137.437 256.822Z" fill="white" stroke="#263238" stroke-miterlimit="10" stroke-linecap="round" stroke-linejoin="round"/>
<path d="M209.305 260.523L209.629 375.578C209.631 376.255 209.207 376.806 208.683 376.806C208.173 376.806 207.756 376.284 207.738 375.626L205.467 260.666L209.305 260.523Z" fill="white" stroke="#263238" stroke-miterlimit="10" stroke-linecap="round" stroke-linejoin="round"/>
<path d="M173.427 268.58C198.846 268.58 219.452 263.872 219.452 258.065C219.452 252.257 198.846 247.549 173.427 247.549C148.009 247.549 127.403 252.257 127.403 258.065C127.403 263.872 148.009 268.58 173.427 268.58Z" fill="white" stroke="#263238" stroke-miterlimit="10" stroke-linecap="round" stroke-linejoin="round"/>
<path d="M151.018 347.354C151.018 347.354 148.606 350.802 150.329 352.526C152.053 354.25 153.776 353.56 153.604 355.284C153.431 357.008 150.674 362.868 148.26 369.074C145.847 375.279 150.846 381.485 155.5 379.761C160.154 378.037 159.637 360.8 160.327 357.697C161.017 354.594 161.534 354.077 161.361 351.147C161.188 348.217 161.017 345.114 158.775 344.769C156.535 344.424 152.053 346.148 151.018 347.354Z" fill="white" stroke="#263238" stroke-miterlimit="10" stroke-linecap="round" stroke-linejoin="round"/>
<path d="M158.415 375.002C155.311 373.829 150.553 374.07 147.87 374.338C148.77 378.237 152.215 380.978 155.501 379.761C156.862 379.257 157.779 377.421 158.415 375.002Z" fill="#92E3A9" stroke="#263238" stroke-miterlimit="10" stroke-linecap="round" stroke-linejoin="round"/>
<path d="M145.675 339.771C145.675 339.771 150.674 348.217 152.054 350.458C153.432 352.699 158.086 352.009 158.603 348.906C159.121 345.804 156.708 337.185 156.708 337.185L146.365 339.771H145.675Z" fill="white" stroke="#263238" stroke-miterlimit="10" stroke-linecap="round" stroke-linejoin="round"/>
<path d="M133.782 326.326C133.782 326.326 132.403 328.567 133.092 330.118C133.782 331.67 135.677 336.151 136.884 338.392C138.091 340.634 143.607 342.012 149.985 340.978C156.363 339.944 159.983 337.014 160.155 334.428C160.328 331.842 159.121 328.395 158.259 324.258C157.398 320.121 155.156 320.294 152.054 320.294C148.951 320.294 136.367 323.913 133.782 326.326Z" fill="#92E3A9" stroke="#263238" stroke-miterlimit="10" stroke-linecap="round" stroke-linejoin="round"/>
<path d="M152.398 275.646C152.493 271.405 154.947 269.318 155.13 266.411C155.492 260.666 154.635 256.58 154.192 254.922L149.473 248.472C135.907 248.648 126.179 248.877 126.023 248.927C125.506 249.1 125.162 252.03 124.816 254.443C124.816 254.443 119.061 255.173 120.095 271.204C120.24 273.445 126.051 299.292 126.471 302.221C129.056 320.235 134.815 329.254 134.815 329.254C134.815 329.254 135.332 331.495 142.054 330.978C148.777 330.461 155.5 325.979 155.5 325.979C155.5 325.979 152.053 290.987 152.398 275.646Z" fill="#263238" stroke="#263238" stroke-miterlimit="10" stroke-linecap="round" stroke-linejoin="round"/>
<path d="M123.882 251.818C123.882 251.818 116.763 252.887 112.397 257.834C108.032 262.781 111.735 266.098 120.219 265.224C128.703 264.35 138.482 255.651 138.897 255.188C139.312 254.725 130.051 248.87 123.882 251.818Z" fill="white" stroke="#263238" stroke-miterlimit="10" stroke-linecap="round" stroke-linejoin="round"/>
<path d="M136.539 254.962C136.539 254.962 144.123 255.306 149.984 257.03C155.845 258.754 166.188 262.202 168.601 262.202C171.014 262.202 170.325 253.238 170.325 251.515C170.325 249.791 139.297 248.756 135.505 248.756C131.713 248.756 136.539 254.962 136.539 254.962Z" fill="white" stroke="#263238" stroke-miterlimit="10" stroke-linecap="round" stroke-linejoin="round"/>
<path d="M170.325 251.514C170.325 251.514 167.566 252.893 166.532 258.064C165.498 263.236 164.119 265.994 166.188 267.373C168.256 268.751 177.22 269.786 178.599 268.407C179.978 267.028 183.77 260.133 184.46 255.651C185.149 251.169 170.325 251.514 170.325 251.514Z" fill="#92E3A9" stroke="#263238" stroke-miterlimit="10" stroke-linecap="round" stroke-linejoin="round"/>
<path d="M182.046 253.237C182.046 253.237 179.288 256.34 178.253 259.443C177.219 262.546 176.529 266.683 176.529 266.683C176.529 266.683 180.666 267.717 186.182 270.13C191.698 272.543 201.006 274.267 209.97 276.335C218.934 278.404 221.347 280.472 224.449 280.472C227.552 280.472 231.345 278.059 236.171 272.198C240.998 266.337 236.86 253.926 232.034 250.135C227.207 246.342 201.35 243.239 197.903 244.274C194.457 245.309 182.046 253.237 182.046 253.237Z" fill="#263238" stroke="#263238" stroke-miterlimit="10" stroke-linecap="round" stroke-linejoin="round"/>
<path d="M117.364 265.359C116.675 261.696 114.628 258.567 113.326 256.88C113.006 257.182 112.694 257.498 112.397 257.835C108.559 262.184 110.963 265.27 117.364 265.359Z" fill="#92E3A9" stroke="#263238" stroke-miterlimit="10" stroke-linecap="round" stroke-linejoin="round"/>
<path d="M151.876 268.089C151.876 268.089 148.318 306.153 141.054 312.083" stroke="white" stroke-width="0.5" stroke-miterlimit="10" stroke-linecap="round" stroke-linejoin="round"/>
<path d="M149.355 304.226C149.355 304.226 146.539 316.678 139.126 321.57" stroke="white" stroke-width="0.5" stroke-miterlimit="10" stroke-linecap="round" stroke-linejoin="round"/>
<path d="M195.147 261.167C195.147 261.167 184.115 261.857 191.355 266.683C198.594 271.51 211.695 274.613 211.695 274.613" stroke="white" stroke-width="0.5" stroke-miterlimit="10" stroke-linecap="round" stroke-linejoin="round"/>
<path d="M275.263 248.125L271.538 244.771L262.936 226.184C262.148 224.48 260.376 223.381 258.42 223.381H91.283C89.3262 223.381 87.5545 224.48 86.7664 226.184L76.0391 249.365L74.2747 248.716V254.022L74.3626 253.954C74.5281 255.318 75.7309 256.477 77.3299 256.477H272.375C274.059 256.477 275.292 255.191 275.348 253.735L275.263 248.125Z" fill="#263238" stroke="#263238" stroke-miterlimit="10" stroke-linecap="round" stroke-linejoin="round"/>
<path d="M272.374 251.601H77.3288C75.1703 251.601 73.7234 249.492 74.5922 247.613L86.7653 221.307C87.5534 219.604 89.3251 218.504 91.2819 218.504H258.418C260.375 218.504 262.147 219.604 262.935 221.307L275.108 247.613C275.979 249.492 274.532 251.601 272.374 251.601Z" fill="white" stroke="#263238" stroke-miterlimit="10" stroke-linecap="round" stroke-linejoin="round"/>
<path opacity="0.5" d="M87.2059 233.935C87.2059 233.935 82.7896 236.971 85.55 238.075C88.3104 239.179 120.054 238.351 123.918 237.246C127.782 236.142 132.199 225.929 132.199 224.273C132.199 222.616 126.64 221.433 124.589 221.334C122.538 221.236 95.4871 222.892 95.4871 222.892L87.2059 233.935Z" fill="#92E3A9"/>
<path opacity="0.5" d="M245.094 239.179C251.344 239.179 256.411 237.078 256.411 234.487C256.411 231.895 251.344 229.794 245.094 229.794C238.844 229.794 233.777 231.895 233.777 234.487C233.777 237.078 238.844 239.179 245.094 239.179Z" fill="#92E3A9"/>
<path opacity="0.5" d="M173.051 244.975C195.46 244.975 213.627 241.577 213.627 237.385C213.627 233.193 195.46 229.794 173.051 229.794C150.642 229.794 132.475 233.193 132.475 237.385C132.475 241.577 150.642 244.975 173.051 244.975Z" fill="#92E3A9"/>
<path d="M236.816 216.015C236.816 216.015 236.073 213.045 233.599 214.035C231.124 215.025 231.372 221.583 231.866 225.295C232.362 229.007 235.702 227.275 235.702 227.275V225.047C235.702 225.047 234.465 226.037 233.846 224.675C233.226 223.314 233.351 216.509 233.97 216.633C234.588 216.757 235.826 218.861 235.826 218.861C235.826 218.861 236.198 218.613 236.816 216.015Z" fill="#92E3A9" stroke="#263238" stroke-miterlimit="10" stroke-linecap="round" stroke-linejoin="round"/>
<path d="M235.038 216.51V232.772C235.038 234.68 239.435 236.227 244.859 236.227C250.283 236.227 254.681 234.68 254.681 232.772V216.51H235.038Z" fill="#92E3A9" stroke="#263238" stroke-miterlimit="10" stroke-linecap="round" stroke-linejoin="round"/>
<path d="M254.681 216.51C254.681 218.161 250.283 219.499 244.859 219.499C239.436 219.499 235.038 218.161 235.038 216.51C235.038 214.859 239.435 213.521 244.859 213.521C250.283 213.52 254.681 214.858 254.681 216.51Z" fill="white" stroke="#263238" stroke-miterlimit="10" stroke-linecap="round" stroke-linejoin="round"/>
<path d="M253.397 216.51C253.397 217.946 249.574 219.108 244.859 219.108C240.144 219.108 236.322 217.945 236.322 216.51C236.322 215.075 240.144 213.912 244.859 213.912C249.574 213.911 253.397 215.075 253.397 216.51Z" fill="white" stroke="#263238" stroke-miterlimit="10" stroke-linecap="round" stroke-linejoin="round"/>
<path d="M238.275 218.164C239.841 218.741 242.21 219.108 244.859 219.108C247.509 219.108 249.878 218.741 251.444 218.164C249.878 217.587 247.509 217.22 244.859 217.22C242.21 217.22 239.841 217.587 238.275 218.164Z" fill="#263238" stroke="#263238" stroke-miterlimit="10" stroke-linecap="round" stroke-linejoin="round"/>
<path d="M85.9836 223.934L86.1067 229.501L123.598 229.873V223.438L85.9836 223.934Z" fill="white" stroke="#263238" stroke-miterlimit="10" stroke-linecap="round" stroke-linejoin="round"/>
<path d="M123.598 229.873L129.043 218.119V214.654L123.351 224.553L123.598 229.873Z" fill="white" stroke="#263238" stroke-miterlimit="10" stroke-linecap="round" stroke-linejoin="round"/>
<path d="M85.9836 229.007L86.1067 234.576L123.598 234.946V228.512L85.9836 229.007Z" fill="white" stroke="#263238" stroke-miterlimit="10" stroke-linecap="round" stroke-linejoin="round"/>
<path d="M123.598 234.946L129.043 223.191V219.727L123.351 229.625L123.598 234.946Z" fill="white" stroke="#263238" stroke-miterlimit="10" stroke-linecap="round" stroke-linejoin="round"/>
<path d="M100.46 209.828C100.46 209.828 101.326 208.096 100.089 207.353C98.8517 206.611 97.4907 208.343 96.7481 208.961C96.0055 209.58 80.4151 219.85 79.9197 221.458C79.4243 223.067 79.9197 226.655 83.2603 227.027C86.601 227.398 89.5714 225.171 91.0555 224.8C92.5407 224.429 93.1592 224.305 93.1592 224.305L103.429 210.447L100.46 209.828Z" fill="white" stroke="#263238" stroke-miterlimit="10" stroke-linecap="round" stroke-linejoin="round"/>
<path d="M83.2614 227.028C86.6021 227.399 89.5725 225.172 91.0566 224.801C92.5418 224.43 93.1603 224.306 93.1603 224.306L93.5326 223.803L83.8799 221.831C83.8799 221.831 82.1475 220.099 79.9208 221.46C79.4254 223.068 79.9198 226.657 83.2614 227.028Z" fill="white" stroke="#263238" stroke-miterlimit="10" stroke-linecap="round" stroke-linejoin="round"/>
<path d="M83.8796 221.831C83.8796 221.831 103.801 221.831 112.834 221.831C121.866 221.831 124.588 221.335 124.588 221.335L130.156 209.828C130.156 209.828 112.586 210.942 107.141 210.571C101.697 210.199 100.46 209.828 100.46 209.828L83.8796 221.831Z" fill="white" stroke="#263238" stroke-miterlimit="10" stroke-linecap="round" stroke-linejoin="round"/>
<path d="M83.8796 221.83L84.3751 224.057C84.3751 224.057 107.885 224.181 114.072 224.181C120.259 224.181 124.96 224.428 124.96 224.428L124.589 221.335L83.8796 221.83Z" fill="white" stroke="#263238" stroke-miterlimit="10" stroke-linecap="round" stroke-linejoin="round"/>
<path d="M124.959 224.429L130.157 212.55V209.828L124.588 221.335L124.959 224.429Z" fill="white" stroke="#263238" stroke-miterlimit="10" stroke-linecap="round" stroke-linejoin="round"/>
<path d="M208.489 238.332H137.587C136.929 238.332 136.395 237.798 136.395 237.14C136.395 236.482 136.929 235.949 137.587 235.949H208.489C209.147 235.949 209.68 236.482 209.68 237.14C209.68 237.798 209.147 238.332 208.489 238.332Z" fill="white" stroke="#263238" stroke-miterlimit="10" stroke-linecap="round" stroke-linejoin="round"/>
<path d="M209.086 235.935H136.976C136.419 235.935 135.956 235.509 135.909 234.955L131.984 187.848C131.932 187.224 132.425 186.689 133.051 186.689H213.01C213.635 186.689 214.128 187.224 214.076 187.848L210.151 234.955C210.106 235.509 209.642 235.935 209.086 235.935Z" fill="white" stroke="#263238" stroke-miterlimit="10" stroke-linecap="round" stroke-linejoin="round"/>
<path d="M179.84 212.125C179.84 214.933 176.792 217.211 173.032 217.211C169.271 217.211 166.223 214.935 166.223 212.125C166.223 209.317 169.271 207.04 173.032 207.04C176.792 207.04 179.84 209.317 179.84 212.125Z" fill="white" stroke="#263238" stroke-miterlimit="10" stroke-linecap="round" stroke-linejoin="round"/>
<path d="M250.305 175.298C251.398 174.365 252.206 173.266 252.506 171.847C252.742 170.725 252.695 169.701 252.43 168.782" stroke="#263238" stroke-miterlimit="10" stroke-linecap="round" stroke-linejoin="round"/>
<path d="M242.053 212.208C242.053 212.208 248.934 208.106 246.684 203.342C244.435 198.578 236.854 195.486 236.854 188.119C236.854 181.77 243.605 179.421 248.006 176.874" stroke="#263238" stroke-miterlimit="10" stroke-linecap="round" stroke-linejoin="round"/>
<path d="M248.404 212.076C248.404 212.076 252.241 209.521 252.241 205.459C252.241 202.738 249.33 200.96 245.492 196.593" stroke="#263238" stroke-miterlimit="10" stroke-linecap="round" stroke-linejoin="round"/>
<path d="M243.375 193.946C243.375 193.946 240.861 191.961 242.713 188.255" stroke="#263238" stroke-miterlimit="10" stroke-linecap="round" stroke-linejoin="round"/>
<path d="M185.143 85.6026C186.377 85.3482 189.011 84.3253 190.795 80.2059C190.908 79.9442 190.788 79.6391 190.526 79.5254C190.261 79.4116 189.959 79.5326 189.845 79.7943C188.208 83.5734 185.868 84.4112 184.901 84.5984C186.607 82.4823 187.619 79.907 187.619 77.1207C187.619 69.9451 180.971 64.1284 172.771 64.1284C164.57 64.1284 157.922 69.9451 157.922 77.1207C157.922 79.7829 158.841 82.2568 160.412 84.3171C158.85 84.2354 156.213 84.8973 152.868 88.7985C152.682 89.0157 152.706 89.3415 152.924 89.5276C153.021 89.6114 153.141 89.6528 153.26 89.6528C153.406 89.6528 153.55 89.5918 153.652 89.4718C157.919 84.4929 160.748 85.3161 161.321 85.5592C160.255 86.1601 159.337 86.8034 158.615 87.4529C153.845 91.7461 150.943 99.8267 151.314 106.632C151.686 113.438 156.016 119.006 156.016 119.006C156.016 119.006 160.842 115.912 164.43 109.603C166.286 106.338 167.674 103.314 168.586 101.146C168.586 104.18 168.985 107.842 170.572 110.436C174.136 116.258 179.202 117.225 182.172 117.225C183.626 117.225 184.579 116.993 184.608 116.986C184.756 116.949 184.868 116.85 184.934 116.724C188.926 117.57 192.898 117.497 193.509 116.656C194.499 115.295 195.895 111.069 196.355 105.892C197.126 97.2215 191.597 89.6042 185.143 85.6026ZM171.455 109.896C169.45 106.62 169.51 101.273 169.751 98.1999C169.831 97.9785 169.876 97.8472 169.876 97.8472C169.876 97.8472 169.636 107.581 178.29 114.057C179.509 114.969 181.137 115.673 182.872 116.194C180.341 116.367 175.124 115.888 171.455 109.896Z" fill="#263238"/>
<path d="M171.628 93.6484C171.628 93.6484 170.778 99.915 178.744 106.075C186.709 112.235 194.25 109.792 194.25 109.792" stroke="white" stroke-width="0.5" stroke-miterlimit="10" stroke-linecap="round" stroke-linejoin="round"/>
<path d="M172.797 91.5234C172.797 91.5234 181.188 103.738 192.764 100.551" stroke="white" stroke-width="0.5" stroke-miterlimit="10" stroke-linecap="round" stroke-linejoin="round"/>
<path d="M168.655 87.4878C168.655 87.4878 164.725 85.1514 160.264 88.1249C155.803 91.0984 153.572 98.1085 153.572 98.1085" stroke="white" stroke-width="0.5" stroke-miterlimit="10" stroke-linecap="round" stroke-linejoin="round"/>
<path d="M168.867 90.8867C168.867 90.8867 165.255 89.931 163.025 92.1609C160.795 94.3918 160.264 95.5594 160.264 95.5594" stroke="white" stroke-width="0.5" stroke-miterlimit="10" stroke-linecap="round" stroke-linejoin="round"/>
</svg>
