<svg width="70" height="70" viewBox="0 0 70 70" fill="none" xmlns="http://www.w3.org/2000/svg">
<path d="M62.1693 28C63.015 25.4037 64.4626 23.0374 66.4014 21.0986L66.5 21C62.4293 21 58.8983 23.6008 57.6062 27.3245C57.7338 27.5432 57.8513 27.7686 57.9579 28H62.1693Z" fill="#50A42A"/>
<path d="M9.33333 43.724C5.12677 45.2602 2.33333 49.2294 2.33333 53.7496V59.0169L1.57923 59.771C0.560875 60.7893 0 62.1432 0 63.5833C0 65.0234 0.560875 66.3774 1.57923 67.3957L3.5 69.3165L5.42077 67.3957C6.43912 66.3774 7 65.0234 7 63.5833C7 62.1432 6.43912 60.7893 5.42077 59.771L4.66667 59.0169V53.7496C4.66667 51.3128 5.70602 49.0817 7.4289 47.5374C7.82381 46.1745 8.47656 44.9199 9.33333 43.8321V43.724Z" fill="#50A42A"/>
<path d="M16.3333 39.7795V35H11.6667V41.6273C13.0286 40.6753 14.6164 40.0263 16.3333 39.7795Z" fill="#50A42A"/>
<path d="M27.7649 39.6667C27.8434 39.6667 27.9217 39.6636 28 39.6616V28H23.3333V39.6667H27.7649Z" fill="#50A42A"/>
<path d="M39.6667 35.0859V21H35V36.6807C36.4242 35.8296 38.0186 35.2845 39.6667 35.0859Z" fill="#50A42A"/>
<path d="M51.3333 23.2975V14H46.6667V33.9219C46.9637 33.7664 47.2538 33.5952 47.5354 33.4075L51.0332 31.0756C50.4643 29.6422 50.1667 28.0993 50.1667 26.5579V23.0058L51.3333 23.2975Z" fill="#50A42A"/>
<path d="M69.6173 42.2963L68.5277 41.4791C66.5276 39.979 65.1996 37.7946 64.7885 35.3286C64.4562 33.3341 63.3006 31.5471 61.6184 30.4256L61.4801 30.3333H56.3258L56.06 29.5356C55.4962 27.8442 54.1802 26.5484 52.5 26.0072V26.5579C52.5 28.0844 52.8608 29.6129 53.5435 30.9782L54.0041 31.8993L48.8297 35.3488C46.8824 36.6472 44.6163 37.3333 42.2761 37.3333H41.0686C38.9238 37.3333 36.8203 38.0712 35.1456 39.411C33.0587 41.0805 30.4375 42 27.7649 42H17.8889C13.1714 42 9.33334 45.838 9.33334 50.5556C9.33334 51.6911 9.55486 52.7981 9.99149 53.8462L15.2823 66.5442L14.0694 68.9698C14.0239 69.0607 14 69.1625 14 69.264V69.3423C14 69.705 14.295 70 14.6577 70H17.5H18.009C18.3717 70 18.6667 69.705 18.6667 69.3423C18.6667 69.2223 18.6337 69.1046 18.5716 69.0018L17.2783 66.8644L18.6022 55.3283C18.6449 54.9555 18.6667 54.5764 18.6667 54.2013V53.9421C18.6667 52.4156 18.3059 50.8871 17.6232 49.5218L19.7103 48.4784C20.5541 50.1659 21.0002 52.0552 21.0002 53.9421V54.2013C21.0002 54.4125 20.9939 54.6246 20.9828 54.8367C24.3265 54.8712 27.6087 55.4823 30.7431 56.6576C33.7082 57.7695 36.8172 58.3333 39.984 58.3333H40.2322C38.85 55.4492 37.8824 52.3905 37.3494 49.1918L39.6509 48.8081C40.3979 53.2891 42.0541 57.4777 44.574 61.2574L48.0132 66.4161L46.7431 68.9564C46.6932 69.056 46.667 69.1676 46.667 69.2788C46.667 69.6765 46.9904 69.9999 47.388 69.9999H50.1667H50.6123C51.01 69.9999 51.3333 69.6764 51.3333 69.2788C51.3333 69.1676 51.3071 69.056 51.2574 68.9566L50.1829 66.8074L49.1959 50.0291C49.0877 48.1905 48.3109 46.4605 47.0085 45.1582L48.6583 43.5084C50.3653 45.2153 51.3834 47.4825 51.5251 49.8922L51.8722 55.7941L53.1255 54.9586C55.0152 53.6987 56.3131 51.6913 56.6865 49.4511C57.051 47.2628 58.073 45.2767 59.6419 43.708L60.7679 42.582L61.4427 42.7942C61.6616 42.863 61.8869 42.9208 62.1122 42.9658L68.856 44.3147C68.9176 44.3269 68.9806 44.3332 69.0435 44.3332C69.5708 44.3332 70 43.9041 70 43.3767V43.0614C70 42.7621 69.857 42.476 69.6173 42.2963ZM59.5 35C58.8557 35 58.3333 34.4776 58.3333 33.8333C58.3333 33.189 58.8557 32.6667 59.5 32.6667C60.1443 32.6667 60.6667 33.189 60.6667 33.8333C60.6667 34.4776 60.1443 35 59.5 35Z" fill="#50A42A"/>
<path d="M22.139 66.7198L23.0834 57.2759C22.3067 57.2052 21.525 57.169 20.74 57.1673L19.6875 66.3384L20.5682 67.7937C20.8508 68.2608 21.0001 68.7963 21.0001 69.3421C21.0001 69.5683 20.9727 69.7878 20.9249 69.9999H22.6123C23.0099 69.9999 23.3333 69.6764 23.3333 69.2789C23.3333 69.1676 23.3071 69.056 23.2572 68.9566L22.139 66.7198Z" fill="#50A42A"/>
<path d="M54.8333 66.7755V56.6086C54.6979 56.7086 54.5603 56.8063 54.4198 56.9001L52.031 58.4926L52.484 66.1924L53.3442 67.913C53.5553 68.3347 53.6667 68.8071 53.6667 69.2789C53.6667 69.5276 53.6334 69.7683 53.5771 69.9999H55.279C55.6765 69.9999 56 69.6764 56 69.2789C56 69.1676 55.9738 69.056 55.924 68.9566L54.8333 66.7755Z" fill="#50A42A"/>
<path d="M1.90225 29.0637C20.6315 26.0671 37.6747 16.4265 49.8923 1.918L51.5076 0H36.1667V2.33333H46.4371C34.7212 15.3446 18.8714 23.9858 1.53358 26.7598L0.98233 26.8481L1.351 29.1521L1.90225 29.0637Z" fill="#50A42A"/>
</svg>
