<svg width="51" height="62" viewBox="0 0 51 62" fill="none" xmlns="http://www.w3.org/2000/svg">
<path d="M44.4118 6.26526H41.2798V4.30737C41.2798 1.89263 39.4006 0 37.1456 0C34.8279 0 33.0113 1.9579 33.0113 4.30737V6.26526H17.2887V4.30737C17.2887 1.89263 15.4095 0 13.1544 0C10.8367 0 9.02017 1.9579 9.02017 4.30737V6.26526H5.88817C2.63088 6.26526 0 9.00632 0 12.4V55.8653C0 59.2589 2.63088 62 5.88817 62H44.4118C47.6691 62 50.3 59.2589 50.3 55.8653V12.4C50.3 9.00632 47.6691 6.26526 44.4118 6.26526ZM2.44296 50.4484C3.38257 51.1663 4.57273 51.6232 5.88817 51.6232H44.4118C45.6646 51.6232 46.8548 51.1663 47.7944 50.5137V50.7095C47.7944 52.6674 46.291 54.2337 44.4118 54.2337H5.88817C4.00897 54.2337 2.44296 52.6674 2.44296 50.7095V50.4484ZM47.7944 45.4232C47.7944 47.3811 46.291 48.9474 44.4118 48.9474H5.88817C4.00897 48.9474 2.44296 47.3811 2.44296 45.4232V18.2084H47.7944V45.4232ZM35.4543 4.30737C35.4543 3.32842 36.206 2.61053 37.0829 2.61053C37.9599 2.61053 38.7116 3.39368 38.7116 4.30737V8.35368C38.7116 9.33263 37.9599 10.0505 37.0829 10.0505C36.206 10.0505 35.4543 9.26737 35.4543 8.35368V4.30737ZM11.5258 4.30737C11.5258 3.32842 12.2775 2.61053 13.1544 2.61053C14.0314 2.61053 14.7831 3.39368 14.7831 4.30737V8.35368C14.7831 9.33263 14.0314 10.0505 13.1544 10.0505C12.2775 10.0505 11.5258 9.26737 11.5258 8.35368V4.30737ZM5.88817 8.87579H9.08281C9.33337 11.0295 11.0873 12.7263 13.2171 12.7263C15.3468 12.7263 17.1007 11.0295 17.3513 8.87579H33.074C33.3245 11.0295 35.0785 12.7263 37.2082 12.7263C39.338 12.7263 41.0919 11.0295 41.3425 8.87579H44.5371C46.4163 8.87579 47.9197 10.4421 47.9197 12.4V15.5979H2.44296V12.4C2.44296 10.4421 3.94633 8.87579 5.88817 8.87579ZM44.4118 59.3895H5.88817C4.00897 59.3895 2.44296 57.8232 2.44296 55.8653V55.6695C3.38257 56.3874 4.57273 56.8442 5.88817 56.8442H44.4118C45.6646 56.8442 46.8548 56.3874 47.7944 55.7347V55.9305C47.7944 57.8232 46.291 59.3895 44.4118 59.3895Z" fill="#0A2D47"/>
<path d="M9.5213 35.6991H9.70922C10.7741 35.6991 11.6511 34.7855 11.6511 33.676V33.4802C11.6511 32.3707 10.7741 31.457 9.70922 31.457H9.5213C8.45641 31.457 7.57945 32.3707 7.57945 33.4802V33.676C7.57945 34.8507 8.45641 35.6991 9.5213 35.6991Z" fill="#0A2D47"/>
<path d="M17.2887 35.6991H17.4766C18.5415 35.6991 19.4184 34.7855 19.4184 33.676V33.4802C19.4184 32.3707 18.5415 31.457 17.4766 31.457H17.2887C16.2238 31.457 15.3468 32.3707 15.3468 33.4802V33.676C15.3468 34.8507 16.2238 35.6991 17.2887 35.6991Z" fill="#0A2D47"/>
<path d="M25.056 35.6991H25.244C26.3088 35.6991 27.1858 34.7855 27.1858 33.676V33.4802C27.1858 32.3707 26.3088 31.457 25.244 31.457H25.056C23.9912 31.457 23.1142 32.3707 23.1142 33.4802V33.676C23.1142 34.8507 23.9912 35.6991 25.056 35.6991Z" fill="#0A2D47"/>
<path d="M9.5213 27.6064H9.70922C10.7741 27.6064 11.6511 26.6927 11.6511 25.5832V25.3874C11.6511 24.2779 10.7741 23.3643 9.70922 23.3643H9.5213C8.45641 23.3643 7.57945 24.2779 7.57945 25.3874V25.5832C7.57945 26.6927 8.45641 27.6064 9.5213 27.6064Z" fill="#0A2D47"/>
<path d="M17.2887 27.6064H17.4766C18.5415 27.6064 19.4184 26.6927 19.4184 25.5832V25.3874C19.4184 24.2779 18.5415 23.3643 17.4766 23.3643H17.2887C16.2238 23.3643 15.3468 24.2779 15.3468 25.3874V25.5832C15.3468 26.6927 16.2238 27.6064 17.2887 27.6064Z" fill="#0A2D47"/>
<path d="M25.056 27.6064H25.244C26.3088 27.6064 27.1858 26.6927 27.1858 25.5832V25.3874C27.1858 24.2779 26.3088 23.3643 25.244 23.3643H25.056C23.9912 23.3643 23.1142 24.2779 23.1142 25.3874V25.5832C23.1142 26.6927 23.9912 27.6064 25.056 27.6064Z" fill="#0A2D47"/>
<path d="M32.8234 35.6991H33.0113C34.0762 35.6991 34.9532 34.7855 34.9532 33.676V33.4802C34.9532 32.3707 34.0762 31.457 33.0113 31.457H32.8234C31.7585 31.457 30.8816 32.3707 30.8816 33.4802V33.676C30.8816 34.8507 31.7585 35.6991 32.8234 35.6991Z" fill="#0A2D47"/>
<path d="M40.5908 35.6991H40.7787C41.8436 35.6991 42.7205 34.7855 42.7205 33.676V33.4802C42.7205 32.3707 41.8436 31.457 40.7787 31.457H40.5908C39.5259 31.457 38.6489 32.3707 38.6489 33.4802V33.676C38.6489 34.8507 39.5259 35.6991 40.5908 35.6991Z" fill="#0A2D47"/>
<path d="M32.8234 27.6064H33.0113C34.0762 27.6064 34.9532 26.6927 34.9532 25.5832V25.3874C34.9532 24.2779 34.0762 23.3643 33.0113 23.3643H32.8234C31.7585 23.3643 30.8816 24.2779 30.8816 25.3874V25.5832C30.8816 26.6927 31.7585 27.6064 32.8234 27.6064Z" fill="#0A2D47"/>
<path d="M40.5908 27.6064H40.7787C41.8436 27.6064 42.7205 26.6927 42.7205 25.5832V25.3874C42.7205 24.2779 41.8436 23.3643 40.7787 23.3643H40.5908C39.5259 23.3643 38.6489 24.2779 38.6489 25.3874V25.5832C38.6489 26.6927 39.5259 27.6064 40.5908 27.6064Z" fill="#0A2D47"/>
<path d="M9.5213 43.8568H9.70922C10.7741 43.8568 11.6511 42.9432 11.6511 41.8337V41.6379C11.6511 40.5284 10.7741 39.6147 9.70922 39.6147H9.5213C8.45641 39.6147 7.57945 40.5284 7.57945 41.6379V41.8337C7.57945 42.9432 8.45641 43.8568 9.5213 43.8568Z" fill="#0A2D47"/>
<path d="M17.2887 43.8568H17.4766C18.5415 43.8568 19.4184 42.9432 19.4184 41.8337V41.6379C19.4184 40.5284 18.5415 39.6147 17.4766 39.6147H17.2887C16.2238 39.6147 15.3468 40.5284 15.3468 41.6379V41.8337C15.3468 42.9432 16.2238 43.8568 17.2887 43.8568Z" fill="#0A2D47"/>
<path d="M25.056 43.8568H25.244C26.3088 43.8568 27.1858 42.9432 27.1858 41.8337V41.6379C27.1858 40.5284 26.3088 39.6147 25.244 39.6147H25.056C23.9912 39.6147 23.1142 40.5284 23.1142 41.6379V41.8337C23.1142 42.9432 23.9912 43.8568 25.056 43.8568Z" fill="#0A2D47"/>
<path d="M32.8234 43.8568H33.0113C34.0762 43.8568 34.9532 42.9432 34.9532 41.8337V41.6379C34.9532 40.5284 34.0762 39.6147 33.0113 39.6147H32.8234C31.7585 39.6147 30.8816 40.5284 30.8816 41.6379V41.8337C30.8816 42.9432 31.7585 43.8568 32.8234 43.8568Z" fill="#0A2D47"/>
<path d="M40.5908 43.8568H40.7787C41.8436 43.8568 42.7205 42.9432 42.7205 41.8337V41.6379C42.7205 40.5284 41.8436 39.6147 40.7787 39.6147H40.5908C39.5259 39.6147 38.6489 40.5284 38.6489 41.6379V41.8337C38.6489 42.9432 39.5259 43.8568 40.5908 43.8568Z" fill="#0A2D47"/>
</svg>
