<svg width="30" height="30" viewBox="0 0 30 30" fill="none" xmlns="http://www.w3.org/2000/svg">
<rect width="30" height="30" rx="4" fill="#50A42A"/>
<path d="M24.9295 8.11739L13.9704 21.5006C12.5487 23.2343 10.3568 23.6298 8.84624 21.8048C7.57261 20.0406 6.3286 18.2461 5.05497 16.4819C5.02535 16.4211 4.96611 16.3906 5.02535 16.2994C5.1142 16.1169 5.58811 15.9952 5.85469 15.9952C6.00278 15.9952 6.00278 16.0257 6.12126 16.0865C9.49786 18.1244 10.2087 20.1319 13.0818 17.6377C16.6065 14.5657 20.3682 10.4899 23.7448 7.08323C23.9225 6.93115 24.0706 7.02239 24.1594 7.08323L24.8407 7.66114C24.8999 7.72197 25.1072 7.90447 24.9295 8.11739Z" fill="#FEFEFE"/>
</svg>
