<svg width="450" height="415" viewBox="0 0 450 415" fill="none" xmlns="http://www.w3.org/2000/svg">
<path d="M418.354 211.557C433.645 195.163 447.999 173.053 440.186 152.317C432.353 131.527 406.662 123.563 384.128 119.588C361.594 115.613 336.033 111.218 323.552 92.6666C310.955 73.943 316.972 47.6763 304.593 28.8174C291.447 8.7905 263.45 4.82181 238.987 2.82017C201.682 -0.231054 163.267 -3.17533 127.525 7.58259C91.7819 18.3416 58.9188 46.2755 54.8516 82.2212C50.7172 118.758 76.2385 155.811 65.0139 190.931C53.3637 227.383 5.945 247.489 1.22137 285.364C-1.25106 305.191 9.07486 324.182 19.0736 341.662C31.8657 364.027 44.6578 387.808 57.4488 410.173H375.059C370.494 403.951 375.013 394.997 381.386 390.495C387.759 385.994 395.74 383.899 401.866 379.087C418.086 366.347 414.427 341.327 405.282 323.167C396.137 305.008 382.688 287.253 383.796 267.088C385.009 245.054 403.063 227.952 418.354 211.557Z" fill="#263238"/>
<path d="M27.2618 226.916C61.5246 193.922 58.9117 176.364 51.8782 132.407C48.4463 110.956 21.1688 131.978 11.4374 164.496C1.22472 198.616 9.02998 244.471 27.2618 226.916Z" fill="#DEF7E5"/>
<path d="M138.914 393.628C134.382 401.686 71.8816 418.927 71.4161 395.183C71.025 375.186 116.469 381.14 133.141 388.159C128.17 383.298 123.406 378.277 118.841 373.286C114.47 368.505 110.268 363.586 106.233 358.544C96.4246 364.796 36.2148 366.304 41.0338 343.892C44.8893 325.958 81.268 338.111 98.5478 348.467C92.4726 340.195 86.8179 331.624 81.5669 322.808C74.3331 329.046 10.1819 326.884 16.7509 304.179C22.24 285.205 62.9062 303.662 77.2469 315.342C71.8774 305.777 66.9577 295.952 62.4983 285.918C53.3551 290.74 -8.40434 280.21 0.964274 258.81C8.71396 241.106 45.1693 263.323 58.6282 276.89C56.2868 271.223 54.0933 265.497 52.0277 259.726C42.3948 255.795 10.4608 202.047 32.8071 195.313C53.9192 188.949 59.6883 244.737 55.2561 257.416C57.5734 263.944 60.0835 270.399 62.7594 276.778C63.5447 258.956 78.329 213.899 96.1844 223.85C116.292 235.058 76.1145 281.393 65.7383 283.718C70.1316 293.604 74.9895 303.27 80.274 312.694C79.2129 294.097 88.0143 249.72 106.592 257.087C127.706 265.462 95.0982 315.399 84.6349 320.24C91.011 330.947 97.9827 341.297 105.567 351.219C101.954 335.578 107.074 284.195 127.37 290.644C149.737 297.754 117.982 353.142 108.931 355.574C113.072 360.798 117.376 365.906 121.865 370.87C125.888 375.318 130.095 379.785 134.482 384.128C128.018 366.446 123.448 322.047 143.245 323.561C165.877 325.294 149.588 382.59 141.027 390.373C149.19 397.871 157.93 404.768 167.254 410.265C169.399 411.529 167.086 414.635 164.956 413.38C155.675 407.905 147.023 401.061 138.914 393.628Z" fill="#1F3C4B"/>
<path d="M234.393 412.805C236.6 398.374 239.624 384.072 243.449 369.983C247.267 355.924 251.897 342.087 257.272 328.548C262.657 314.979 268.797 301.708 275.652 288.818C282.493 275.955 290.046 263.475 298.289 251.462C306.509 239.48 315.398 227.96 324.917 216.983C326.123 215.592 327.342 214.21 328.568 212.835C330.17 211.038 327.293 208.66 325.698 210.449C315.889 221.446 306.711 232.999 298.222 245.044C289.756 257.055 281.961 269.545 274.88 282.422C267.812 295.275 261.462 308.521 255.867 322.079C250.233 335.729 245.38 349.695 241.303 363.886C237.252 377.983 233.996 392.306 231.576 406.77C231.272 408.587 230.983 410.406 230.704 412.227C230.341 414.598 234.028 415.187 234.393 412.805Z" fill="#1F3C4B"/>
<path d="M293.743 258.678C291.003 230.155 298.553 187.9 299.231 159.817C299.977 128.827 304.308 95.5091 330.506 77.5436C337.339 72.8577 346.056 69.363 355.722 70.6568C369.303 72.4739 381.162 83.5779 385.766 95.0142C390.37 106.452 389.157 118.096 386.961 129.008C376.241 182.302 342.823 228.789 293.743 258.678Z" fill="#1F3C4B"/>
<path d="M252.559 335.995C233.752 316.277 214.842 280.328 198.926 258.955C181.364 235.37 165.202 207.968 174.888 179.336C177.414 171.868 182.091 164.196 190.302 159.551C201.838 153.024 217.481 154.434 227.725 160.305C237.969 166.176 243.848 175.579 248.543 185.004C271.473 231.042 272.912 285.171 252.559 335.995Z" fill="#1F3C4B"/>
<path d="M238.21 377.485C253.015 350.317 284.964 314.288 302.452 288.765C321.75 260.601 345.541 231.602 378.964 224.641C387.683 222.825 397.308 222.785 404.873 227.487C415.498 234.09 419.049 248.588 416.138 260.757C413.227 272.925 405.171 283.168 396.71 292.383C355.379 337.389 298.558 367.898 238.21 377.485Z" fill="#1F3C4B"/>
<path d="M227.175 414.246C245.027 409.342 262.347 400.076 278.249 389.959C278.945 390.429 279.958 391.076 281.25 391.798C283.88 393.299 287.665 395.167 292.219 396.869C296.769 398.566 302.103 400.127 307.819 401.236C313.554 402.356 319.674 403.012 325.806 403.243C331.95 403.424 338.099 403.174 343.886 402.421C346.792 402.058 349.579 401.577 352.247 401.013C354.896 400.454 357.406 399.754 359.746 399.077C362.071 398.373 364.196 397.622 366.115 396.873C368.008 396.115 369.656 395.384 371.016 394.714C373.756 393.382 375.33 392.34 375.33 392.34C375.33 392.34 373.825 391.189 371.192 389.695C369.867 388.93 368.256 388.092 366.414 387.216C364.575 386.346 362.483 385.473 360.213 384.603C357.933 383.779 355.472 382.908 352.848 382.192C350.223 381.456 347.469 380.79 344.601 380.24C338.878 379.111 332.754 378.471 326.617 378.261C320.48 378.102 314.318 378.35 308.538 379.109C302.748 379.83 297.338 381.051 292.677 382.455C290.394 383.145 288.298 383.888 286.422 384.627C287.61 383.818 288.798 383.023 289.979 382.214C301.37 374.45 312.225 366.01 322.638 357.085C323.18 357.413 323.81 357.782 324.541 358.199C327.18 359.709 330.97 361.572 335.521 363.265C340.073 364.968 345.394 366.529 351.125 367.639C356.835 368.765 362.975 369.417 369.109 369.646C375.25 369.835 381.402 369.593 387.178 368.827C390.076 368.465 392.875 367.986 395.54 367.415C398.192 366.865 400.713 366.162 403.043 365.479C405.378 364.776 407.496 364.024 409.405 363.286C411.289 362.525 412.952 361.791 414.319 361.121C417.052 359.792 418.626 358.75 418.626 358.75C418.626 358.75 417.118 357.595 414.497 356.104C413.157 355.341 411.547 354.496 409.72 353.625C407.873 352.756 405.79 351.877 403.505 351.01C401.235 350.179 398.772 349.325 396.15 348.593C393.528 347.857 390.762 347.204 387.9 346.649C382.177 345.529 376.049 344.882 369.919 344.677C363.776 344.509 357.62 344.754 351.842 345.508C346.055 346.252 340.631 347.455 335.977 348.865C333.539 349.602 331.318 350.398 329.344 351.164C339.313 342.212 348.828 332.779 357.893 322.907C358.547 323.069 359.29 323.253 360.15 323.439C363.137 324.06 367.309 324.696 372.157 324.938C377.011 325.186 382.562 325.064 388.354 324.377C394.145 323.72 400.183 322.494 406.102 320.846C412.018 319.172 417.804 317.074 423.087 314.599C425.735 313.378 428.258 312.081 430.619 310.727C432.989 309.398 435.175 307.973 437.187 306.616C439.183 305.225 441.002 303.877 442.583 302.589C444.158 301.293 445.534 300.099 446.612 299.042C448.817 296.959 450 295.476 450 295.476C450 295.476 448.223 294.837 445.254 294.202C443.762 293.885 441.986 293.575 439.952 293.299C437.934 293.023 435.69 292.815 433.255 292.673C430.832 292.585 428.215 292.505 425.505 292.608C422.789 292.701 419.954 292.907 417.05 293.237C411.261 293.906 405.225 295.142 399.318 296.803C393.409 298.494 387.632 300.598 382.34 303.076C377.147 305.472 372.458 308.211 368.5 310.895C375.809 302.331 382.815 293.496 389.524 284.426C391.921 282.924 394.821 280.901 397.914 278.333C401.65 275.206 405.635 271.353 409.428 266.924C413.257 262.506 416.847 257.515 420.077 252.289C423.287 247.055 426.119 241.587 428.33 236.177C429.442 233.485 430.408 230.819 431.239 228.231C432.069 225.654 432.702 223.109 433.275 220.748C433.811 218.376 434.214 216.147 434.505 214.13C434.79 212.106 434.981 210.315 435.061 208.789C435.277 205.763 435.127 203.873 435.127 203.873C435.127 203.873 433.392 204.61 430.781 206.159C429.461 206.935 427.944 207.909 426.274 209.085C424.606 210.25 422.794 211.627 420.928 213.181C419.074 214.751 417.107 216.458 415.179 218.381C413.25 220.292 411.307 222.364 409.412 224.573C405.596 228.987 402.009 233.996 398.775 239.224C395.605 244.471 392.778 249.95 390.562 255.347C388.333 260.747 386.709 266.046 385.623 270.785C384.538 275.522 384.012 279.705 383.809 282.74C383.74 283.77 383.716 284.649 383.705 285.391C372.84 299.857 361.164 313.739 348.677 326.808C349.711 324.153 350.859 320.728 351.837 316.76C352.988 312.034 353.905 306.56 354.339 300.745C354.782 294.925 354.701 288.77 354.214 282.654C353.674 276.533 352.71 270.456 351.271 264.803C350.559 261.956 349.767 259.234 348.887 256.662C348.021 254.09 347.036 251.675 346.089 249.439C345.097 247.213 344.109 245.186 343.144 243.386C342.167 241.591 341.25 240.032 340.415 238.749C338.788 236.197 337.567 234.766 337.567 234.766C337.567 234.766 336.594 236.385 335.423 239.179C334.814 240.586 334.176 242.278 333.519 244.212C332.882 246.151 332.248 248.319 331.657 250.674C331.114 253.039 330.539 255.588 330.128 258.28C329.713 260.957 329.376 263.781 329.16 266.686C328.716 272.513 328.796 278.673 329.313 284.788C329.869 290.912 330.853 296.985 332.28 302.641C333.684 308.296 335.532 313.538 337.478 317.998C339.419 322.45 341.48 326.131 343.122 328.679C343.697 329.583 344.224 330.356 344.67 330.953C331.972 343.87 318.481 355.956 304.113 366.941C304.347 366.418 304.608 365.836 304.889 365.177C306.064 362.375 307.459 358.4 308.616 353.678C309.777 348.953 310.689 343.488 311.127 337.673C311.566 331.855 311.501 325.697 310.998 319.567C310.462 313.447 309.493 307.368 308.057 301.704C307.357 298.89 306.556 296.153 305.673 293.587C304.808 291.019 303.818 288.601 302.873 286.362C301.888 284.13 300.902 282.094 299.929 280.307C298.96 278.519 298.046 276.955 297.208 275.667C295.575 273.128 294.347 271.683 294.347 271.683C294.347 271.683 293.381 273.302 292.204 276.103C291.607 277.503 290.967 279.197 290.31 281.134C289.669 283.071 289.029 285.241 288.45 287.606C287.884 289.963 287.313 292.519 286.924 295.195C286.493 297.881 286.159 300.706 285.949 303.617C285.516 309.429 285.589 315.583 286.109 321.708C286.653 327.827 287.637 333.912 289.062 339.57C290.478 345.227 292.318 350.464 294.262 354.914C296.21 359.369 298.267 363.039 299.908 365.602C300.717 366.87 301.427 367.871 301.928 368.55C296.404 372.719 290.759 376.735 284.971 380.552C277.878 385.243 270.477 389.933 262.837 394.265C263.153 393.613 263.519 392.821 263.903 391.88C265.093 389.074 266.495 385.106 267.628 380.384C268.806 375.664 269.724 370.183 270.142 364.381C270.593 358.547 270.528 352.398 270.012 346.271C269.485 340.151 268.522 334.082 267.095 328.426C266.392 325.584 265.578 322.855 264.694 320.284C263.837 317.717 262.842 315.294 261.898 313.06C260.92 310.844 259.923 308.8 258.954 307.007C257.977 305.216 257.055 303.656 256.236 302.383C254.596 299.825 253.374 298.39 253.374 298.39C253.374 298.39 252.411 300.01 251.22 302.808C250.635 304.209 249.984 305.908 249.338 307.837C248.686 309.775 248.065 311.943 247.463 314.307C246.914 316.662 246.338 319.231 245.952 321.903C245.523 324.589 245.182 327.406 244.972 330.316C244.536 336.142 244.617 342.29 245.126 348.415C245.69 354.532 246.649 360.607 248.088 366.279C249.497 371.935 251.344 377.158 253.28 381.617C255.233 386.078 257.292 389.741 258.943 392.307C259.76 393.607 260.484 394.619 260.998 395.303C249.782 401.54 238.046 406.927 225.965 410.243C223.388 410.968 224.594 414.956 227.175 414.246Z" fill="#C9C9C9"/>
<path d="M149.087 46.3551C154.06 46.3551 158.09 50.3857 158.09 55.3578C158.09 57.0155 159.433 58.3587 161.091 58.3587C162.749 58.3587 164.092 57.0155 164.092 55.3578C164.092 47.0702 157.374 40.3523 149.086 40.3523C147.429 40.3523 146.085 41.6955 146.085 43.3532C146.086 45.012 147.431 46.3551 149.087 46.3551Z" fill="#50A42A"/>
<path d="M149.087 34.3507C160.689 34.3507 170.095 43.756 170.095 55.358C170.095 57.0157 171.438 58.3589 173.096 58.3589C174.753 58.3589 176.096 57.0157 176.096 55.358C176.096 40.4416 164.004 28.3489 149.087 28.3489C147.43 28.3489 146.086 29.692 146.086 31.3498C146.086 33.0064 147.431 34.3507 149.087 34.3507Z" fill="#50A42A"/>
<path d="M175.347 70.0934C175.011 69.1141 174.194 68.3769 173.186 68.1431L155.179 64.0318C154.186 63.8064 153.146 64.1 152.418 64.8119C151.998 65.202 151.969 65.2324 150.017 68.9536C143.545 65.9716 138.359 60.7636 135.402 54.2784C139.213 52.3575 139.242 52.3575 139.634 51.9077C140.346 51.1789 140.639 50.1399 140.414 49.1469L136.302 31.3512C136.069 30.3425 135.331 29.5257 134.352 29.1902C133.652 28.9396 132.927 28.7593 132.191 28.6502C131.433 28.4741 130.658 28.3734 129.88 28.3503C122.256 28.3503 116.075 34.5314 116.075 42.1553C116.109 67.666 136.781 88.3378 162.291 88.3714C169.915 88.3714 176.096 82.1903 176.096 74.5664C176.097 73.802 176.038 73.0398 175.916 72.2859C175.791 71.5383 175.6 70.8053 175.347 70.0934Z" fill="#7DC291"/>
<path d="M322.4 54.7735H285.528C277.886 54.7735 271.634 48.5211 271.634 40.8794C271.634 33.2377 277.886 26.9854 285.528 26.9854H322.4C330.042 26.9854 336.295 33.2377 336.295 40.8794C336.295 48.5211 330.043 54.7735 322.4 54.7735Z" fill="#757575"/>
<path d="M325.867 59.0457C325.867 60.7412 324.493 62.1158 322.797 62.1158C321.102 62.1158 319.727 60.7412 319.727 59.0457C319.727 57.3502 321.102 55.9756 322.797 55.9756C324.493 55.9756 325.867 57.3502 325.867 59.0457Z" fill="#757575"/>
<path d="M295.9 40.5043C295.9 42.7293 294.097 44.5327 291.872 44.5327C289.647 44.5327 287.843 42.7293 287.843 40.5043C287.843 38.2793 289.647 36.4758 291.872 36.4758C294.097 36.4758 295.9 38.2793 295.9 40.5043Z" fill="white"/>
<path d="M307.991 40.5043C307.991 42.7293 306.187 44.5327 303.963 44.5327C301.738 44.5327 299.934 42.7293 299.934 40.5043C299.934 38.2793 301.738 36.4758 303.963 36.4758C306.187 36.4758 307.991 38.2793 307.991 40.5043Z" fill="white"/>
<path d="M320.081 40.5043C320.081 42.7293 318.277 44.5327 316.052 44.5327C313.827 44.5327 312.024 42.7293 312.024 40.5043C312.024 38.2793 313.827 36.4758 316.052 36.4758C318.277 36.4758 320.081 38.2793 320.081 40.5043Z" fill="white"/>
<path d="M268.65 87.0584H305.522C313.164 87.0584 319.416 80.806 319.416 73.1643C319.416 65.5226 313.164 59.2703 305.522 59.2703H268.65C261.008 59.2703 254.756 65.5226 254.756 73.1643C254.756 80.806 261.008 87.0584 268.65 87.0584Z" fill="#92E3A9"/>
<path d="M265.182 91.3277C265.182 93.0231 266.557 94.3978 268.252 94.3978C269.948 94.3978 271.322 93.0231 271.322 91.3277C271.322 89.6322 269.948 88.2576 268.252 88.2576C266.557 88.2576 265.182 89.6322 265.182 91.3277Z" fill="#92E3A9"/>
<path d="M279.028 72.9144C279.028 75.1394 277.224 76.9429 274.999 76.9429C272.774 76.9429 270.971 75.1394 270.971 72.9144C270.971 70.6895 272.774 68.886 274.999 68.886C277.224 68.886 279.028 70.6895 279.028 72.9144Z" fill="white"/>
<path d="M291.118 72.9144C291.118 75.1394 289.315 76.9429 287.09 76.9429C284.865 76.9429 283.062 75.1394 283.062 72.9144C283.062 70.6895 284.865 68.886 287.09 68.886C289.314 68.886 291.118 70.6895 291.118 72.9144Z" fill="white"/>
<path d="M303.206 72.9144C303.206 75.1394 301.403 76.9429 299.178 76.9429C296.953 76.9429 295.149 75.1394 295.149 72.9144C295.149 70.6895 296.953 68.886 299.178 68.886C301.403 68.886 303.206 70.6895 303.206 72.9144Z" fill="white"/>
<path d="M214.36 169.979C213.083 173.273 210.941 175.918 208.421 177.627C205.207 179.838 201.366 180.545 197.889 179.2C191.699 176.806 189.044 168.781 191.95 161.293C194.845 153.804 202.22 149.677 208.41 152.071C208.444 152.082 208.478 152.094 208.513 152.117C214.634 154.567 217.245 162.535 214.36 169.979Z" fill="#A6AFE2"/>
<path d="M62.6147 158.799C69.0925 168.672 87.9545 197.364 98.5352 212.915C90.5129 227.928 73.7155 236.232 73.7155 236.232C73.7155 236.232 65.0305 212.994 60.4568 200.416C55.8831 187.839 52.3401 178.045 52.4775 171.614C52.4964 170.724 53.2251 170.428 53.72 170.325L53.029 169.074C52.1871 167.549 52.79 165.631 54.3523 164.862C55.3452 164.373 56.4703 164.501 57.3458 165.068L56.0645 162.995C55.0055 161.281 55.4302 159.042 57.0428 157.835C58.8389 156.492 61.3837 156.925 62.6147 158.799Z" fill="#FFB8B8"/>
<path d="M68.6375 198.691C68.8356 190.884 75.8283 184.713 78.5062 182.994L79.4363 184.444C76.0118 186.641 70.5175 192.467 70.3591 198.735L68.6375 198.691Z" fill="#F18B8B"/>
<path d="M57.448 165.058L56.7034 165.492L66.8015 182.811L67.5461 182.377L57.448 165.058Z" fill="#F18B8B"/>
<path d="M53.7988 170.416L53.0227 170.788L61.0482 187.509L61.8242 187.136L53.7988 170.416Z" fill="#F18B8B"/>
<path d="M239.336 184.362L239.376 185.019L239.76 205.173L240.74 256.354L179.468 239.88L208.981 220.462L208.684 212.755L207.684 185.986C207.327 177.294 214.061 169.935 222.748 169.496C231.465 169.083 238.82 175.761 239.336 184.362Z" fill="#FFB8B8"/>
<path d="M239.338 184.362L239.378 185.019L239.761 205.173C236.593 206.875 233.298 208.338 229.998 209.663C224.683 211.796 219.962 213.289 214.217 213.304C212.375 213.304 210.45 213.282 208.686 212.755L207.686 185.986C207.329 177.294 214.063 169.935 222.75 169.496C231.467 169.083 238.822 175.761 239.338 184.362Z" fill="#F18B8B"/>
<path d="M252.388 173.877C247.852 184.87 244.425 189.143 240.698 187.965C229.954 206.368 215.168 213.302 201.979 209.722C191.278 206.845 191.827 191.253 194.829 177.137C195.541 173.878 196.365 170.667 197.206 167.73C198.596 162.946 200.896 156.376 204.11 149.009C195.634 122.742 221.074 116.984 237.863 136.127C238.758 135.468 239.718 134.971 240.72 134.718C245.153 133.463 250.134 136.765 253.864 148.994C261.544 157.412 256.952 162.882 252.388 173.877Z" fill="#454975"/>
<path d="M246.399 148.286C245.006 145.704 242.424 142.505 237.863 136.125C238.758 135.467 239.718 134.97 240.72 134.717C242.919 138.846 246.054 145.283 246.399 148.286Z" fill="#3B3E63"/>
<path d="M248.876 177.662C243.725 188.031 235.749 183.37 235.032 179.207C230.861 185.285 228.15 186.85 226.293 187.043C224.435 187.237 219.264 183.974 217.049 183.254C214.806 182.509 203.62 185.765 194.857 177.163L194.828 177.137C195.54 173.878 196.364 170.668 197.205 167.731C198.595 162.946 200.895 156.376 204.108 149.009C208.859 142.979 223.365 131.361 240.332 161.269C238.974 167.041 238.002 171.47 236.779 174.429C245.059 164.421 254.029 167.319 248.876 177.662Z" fill="#FFB8B8"/>
<path d="M238.055 176.25C238.435 175.248 238.998 174.326 239.729 173.545C240.433 172.736 241.299 172.057 242.28 171.551C243.256 171.051 244.365 170.703 245.537 170.763C246.115 170.779 246.722 170.928 247.24 171.265C247.754 171.593 248.13 172.192 248.052 172.744C247.737 172.287 247.323 172.091 246.899 172.039C246.485 171.964 246.046 172.014 245.613 172.105C244.746 172.299 243.898 172.655 243.069 173.082C242.235 173.504 241.426 174.011 240.608 174.555C239.778 175.087 238.989 175.698 238.055 176.25Z" fill="#F18B8B"/>
<path d="M239.102 175.093C239.49 174.617 240.073 174.293 240.683 174.144C241.297 173.984 241.952 173.981 242.587 174.135C243.214 174.3 243.839 174.653 244.225 175.217C244.627 175.77 244.703 176.475 244.55 177.059C244.19 175.862 243.397 175.212 242.373 174.968C241.871 174.831 241.33 174.794 240.784 174.806C240.238 174.834 239.679 174.896 239.102 175.093Z" fill="#F18B8B"/>
<path d="M209.127 164.492C203.986 171.221 197.884 174.067 197.115 175.864C196.346 177.661 199.008 181.179 205.646 182.386C209.574 179.896 206.397 175.821 209.127 164.492Z" fill="#F18B8B"/>
<path d="M221.613 167.242C221.708 168.82 220.744 170.161 219.46 170.237C218.175 170.314 217.059 169.097 216.963 167.52C216.869 165.942 217.832 164.601 219.117 164.525C220.401 164.447 221.519 165.663 221.613 167.242Z" fill="#454975"/>
<path d="M204.981 165.681C204.683 167.233 203.419 168.295 202.155 168.053C200.892 167.811 200.108 166.357 200.406 164.805C200.703 163.253 201.969 162.191 203.232 162.433C204.495 162.674 205.279 164.129 204.981 165.681Z" fill="#454975"/>
<path d="M222.163 153.006C226.795 153.139 228.988 158.616 229.69 161.592C230.034 163.058 229.064 163.455 228.279 162.086C227.315 160.403 224.706 157.348 221.756 156.179C219.67 155.352 220.364 152.955 222.163 153.006Z" fill="#454975"/>
<path d="M208.915 150.74C205.008 149.138 201.733 151.915 200.08 154.237C199.206 155.463 199.857 156.682 201.179 155.82C202.804 154.76 204.674 153.449 207.833 153.75C210.066 153.963 210.58 151.422 208.915 150.74Z" fill="#454975"/>
<path d="M166.748 381.261C180.799 386.195 195.284 389.178 219.357 386.909C233.414 341.499 235.676 232.42 236.136 226.34C225.111 230.578 211.503 233.044 205.748 219.634C178.176 250.724 166.586 298.226 166.748 381.261Z" fill="#92E3A9"/>
<path d="M239.943 214.722C225.046 223.322 215.662 249.436 213.187 289.332C210.713 329.228 207.648 365.689 208.661 377.588C209.674 389.486 213.218 408.706 234.548 410.417C255.877 412.128 287.335 413.231 287.335 413.231C287.335 413.231 262.256 259.271 261.404 250.053C260.553 240.836 257.475 226.383 239.943 214.722Z" fill="#7DC291"/>
<path d="M417.303 386.501C407.487 379.936 378.963 360.821 363.507 350.103C348.424 357.992 339.971 374.716 339.971 374.716C339.971 374.716 363.132 383.607 375.67 388.29C388.206 392.974 397.968 396.605 404.399 396.524C405.289 396.512 405.592 395.786 405.699 395.293L406.944 395.994C408.461 396.85 410.385 396.263 411.168 394.707C411.665 393.719 411.547 392.593 410.988 391.712L413.051 393.012C414.755 394.087 416.997 393.681 418.219 392.079C419.577 390.296 419.167 387.747 417.303 386.501Z" fill="#FFB8B8"/>
<path d="M371.507 356.481L406.616 365.527C408.645 366.05 409.892 368.091 409.43 370.134C408.947 372.271 406.791 373.583 404.671 373.03L383.692 367.564C383.692 367.564 367.078 364.712 371.507 356.481Z" fill="#FFB8B8"/>
<path d="M381.665 379.409C380.332 379.838 378.926 380.101 377.464 380.124L377.436 378.402C383.706 378.298 389.577 372.859 391.806 369.453L393.247 370.394C391.832 372.561 387.449 377.549 381.665 379.409Z" fill="#F18B8B"/>
<path d="M393.778 381.351L393.337 382.091L410.567 392.341L411.007 391.601L393.778 381.351Z" fill="#F18B8B"/>
<path d="M388.94 387.035L388.561 387.808L405.211 395.98L405.59 395.207L388.94 387.035Z" fill="#F18B8B"/>
<path d="M239.942 214.722C259.206 228.359 265.175 238.166 270.972 250.076C276.769 261.987 298.544 301.041 305.021 309.324C311.497 317.605 363.505 350.104 363.505 350.104L335.729 380.768C335.729 380.768 282.488 357.314 272.259 346.267C262.027 335.221 239.415 294.137 239.942 214.722Z" fill="#7DC291"/>
<path d="M208.842 217.198L209.038 222.3C197.408 235.093 188.396 257.625 183.423 286.539C177.772 319.288 175.6 354.109 175.377 382.931C175.247 402.759 156.924 402.51 147.86 395.742C149.786 369.65 157.333 306.659 161.43 287.419C165.354 268.984 173.302 215.426 208.842 217.198Z" fill="#7DC291"/>
<path d="M208.863 217.529L208.923 218.982C190.525 226.188 180.71 261.001 180.71 261.001C180.71 261.001 169.251 296.971 158.736 305.285C138.327 321.421 123.117 317.141 111.626 304.937C105.557 298.491 67.2549 237.364 67.2549 237.364L98.5839 212.515L134.066 260.17C134.066 260.17 164.169 238.682 175.517 230.332C185.757 222.764 194.478 217.402 208.863 217.529Z" fill="#7DC291"/>
<path d="M245.492 285.523L243.886 286.148L263.186 335.671L264.791 335.046L245.492 285.523Z" fill="#BB4344"/>
<path d="M167.975 265.122L159.588 291.67L161.23 292.188L169.616 265.641L167.975 265.122Z" fill="#BB4344"/>
<path d="M65.5846 178.622L33.4199 146.457V174.007C33.4199 179.337 37.7399 183.657 43.0695 183.657H88.1007C93.4304 183.657 97.7504 179.337 97.7504 174.007V146.457L65.5846 178.622Z" fill="#7DC291"/>
<path d="M97.7494 146.457V141.842C97.7494 136.513 93.4294 132.193 88.0998 132.193H43.0686C37.7389 132.193 33.4189 136.513 33.4189 141.842V146.457L65.5836 178.622L97.7494 146.457Z" fill="#92E3A9"/>
<path d="M91.5889 150.292C98.1349 150.292 103.441 144.985 103.441 138.439C103.441 131.893 98.1349 126.587 91.5889 126.587C85.0429 126.587 79.7363 131.893 79.7363 138.439C79.7363 144.985 85.0429 150.292 91.5889 150.292Z" fill="#7DC291"/>
<path d="M61.8956 162.283H40.7729V166.999H61.8956V162.283Z" fill="#263238"/>
<path d="M92.2296 204.855L83.4943 169.668C82.99 167.633 80.96 166.37 78.9122 166.813C76.7722 167.277 75.4406 169.421 75.9743 171.545L81.2547 192.572C81.2547 192.572 83.9599 209.212 92.2296 204.855Z" fill="#FFB8B8"/>
<path d="M209.735 186.148C209.724 186.204 209.727 186.26 209.715 186.317C208.434 196.488 196.316 197.523 195.419 185.105C195.359 184.462 195.338 183.775 195.358 183.058C198.706 183.183 206.755 185.231 209.735 186.148Z" fill="#F18B8B"/>
<path d="M209.735 186.148C209.724 186.204 209.727 186.26 209.715 186.317C208.344 186.667 206.853 186.883 205.269 186.964C201.293 187.165 197.704 186.42 195.419 185.105C195.359 184.462 195.338 183.775 195.358 183.058C198.706 183.183 206.755 185.231 209.735 186.148Z" fill="#F3EDFF"/>
<path d="M254.4 179.338C253.123 182.633 250.981 185.277 248.461 186.988C245.247 189.199 241.406 189.906 237.929 188.56C231.74 186.167 229.084 178.142 231.99 170.652C234.885 163.164 242.26 159.038 248.45 161.431C248.485 161.442 248.518 161.454 248.553 161.477C254.674 163.928 257.284 171.895 254.4 179.338Z" fill="#A6AFE2"/>
<path d="M244.634 161.612C249.356 154.972 244.002 142.136 237.864 136.124C237.864 136.124 235.645 133.703 234.898 133.111C236.28 133.133 236.785 133.374 238.189 134.449C239.593 135.523 258.26 146.81 251.116 164.117C251.116 164.117 245.006 163.115 244.634 161.612Z" fill="#A6AFE2"/>
<path d="M254.4 179.337C253.122 182.632 250.98 185.276 248.461 186.987C239.809 188.936 233.016 180.261 238.943 170.037C241.542 165.558 244.996 162.811 248.552 161.477C254.673 163.927 257.283 171.894 254.4 179.337Z" fill="#BBC3ED"/>
<path d="M236.847 182.351C231.613 187.585 221.339 188.146 213.215 188.278C212.431 188.291 211.789 188.899 211.737 189.681C211.677 190.581 212.423 191.332 213.324 191.281C225.673 190.596 233.35 189.816 238.591 184.196L236.847 182.351Z" fill="#A6AFE2"/>
<path d="M213.258 192.901C215.014 192.901 216.438 191.477 216.438 189.722C216.438 187.966 215.014 186.542 213.258 186.542C211.503 186.542 210.079 187.966 210.079 189.722C210.079 191.477 211.503 192.901 213.258 192.901Z" fill="#EA5455"/>
<path d="M113.283 95.1643C119.76 95.1643 125.012 89.9131 125.012 83.4354C125.012 76.9577 119.76 71.7065 113.283 71.7065C106.805 71.7065 101.554 76.9577 101.554 83.4354C101.554 89.9131 106.805 95.1643 113.283 95.1643Z" fill="#DAD4F8"/>
<path d="M236.66 46.54C236.66 49.198 234.505 51.3517 231.848 51.3517C229.19 51.3517 227.036 49.197 227.036 46.54C227.036 43.883 229.191 41.7283 231.848 41.7283C234.506 41.7283 236.66 43.883 236.66 46.54Z" fill="#DAD4F8"/>
<path d="M183.159 117.804C185.057 117.804 186.596 116.265 186.596 114.367C186.596 112.469 185.057 110.93 183.159 110.93C181.261 110.93 179.722 112.469 179.722 114.367C179.722 116.265 181.261 117.804 183.159 117.804Z" fill="#DAD4F8"/>
<path d="M282.571 222.926C282.571 225.014 280.878 226.707 278.79 226.707C276.702 226.707 275.009 225.015 275.009 222.926C275.009 220.838 276.701 219.145 278.79 219.145C280.878 219.146 282.571 220.838 282.571 222.926Z" fill="#DAD4F8"/>
<path d="M301.67 293.589V366.393C301.67 373.586 295.845 379.422 288.641 379.422H159.448C152.255 379.422 146.43 373.586 146.43 366.393V293.589C146.43 286.396 152.255 280.56 159.448 280.56H288.641C295.845 280.56 301.67 286.396 301.67 293.589Z" fill="#263238"/>
<path d="M258.094 379.423H211.302L209.638 324.675H238.454L258.094 379.423Z" fill="#263238"/>
<path d="M272.979 402.504H248.553L238.458 324.681H209.641L199.546 402.504H175.119C173.1 402.504 171.463 404.141 171.463 406.16V409.755H276.634V406.16C276.635 404.141 274.998 402.504 272.979 402.504ZM234.603 363.684C234.603 369.513 229.879 374.238 224.05 374.238C218.221 374.238 213.496 369.513 213.496 363.684V359.28C213.496 353.451 218.221 348.726 224.05 348.726C229.879 348.726 234.603 353.452 234.603 359.28V363.684Z" fill="#B2C6B7"/>
<path d="M223.919 362.099C199.585 362.099 208.072 392.179 208.072 409.036" stroke="#F3EDFF" stroke-width="2.1742" stroke-miterlimit="10"/>
<path d="M344.389 130.828C338.855 130.828 333.622 131.517 328.971 132.742C326.59 133.369 324.925 135.509 324.925 137.971V173.844V178.453C324.925 181.896 328.097 184.431 331.463 183.714C335.461 182.861 339.823 182.393 344.389 182.393C351.593 182.393 358.302 183.56 363.867 185.558V173.843V133.993C358.302 131.995 351.593 130.828 344.389 130.828Z" fill="#92E3A9"/>
<path d="M383.346 130.828C376.142 130.828 369.433 131.995 363.868 133.994V173.844V185.56C369.433 183.561 376.142 182.394 383.346 182.394C387.912 182.394 392.272 182.863 396.271 183.715C399.638 184.432 402.81 181.897 402.81 178.455V173.845V137.972C402.81 135.51 401.145 133.37 398.764 132.743C394.114 131.517 388.88 130.828 383.346 130.828Z" fill="#7DC291"/>
<path d="M401.738 414.714H31.8481C30.4557 414.714 29.3159 413.574 29.3159 412.182C29.3159 410.789 30.4557 409.649 31.8481 409.649H401.739C403.132 409.649 404.272 410.789 404.272 412.182C404.271 413.574 403.132 414.714 401.738 414.714Z" fill="#454975"/>
</svg>
