<svg width="724" height="555" viewBox="0 0 724 555" fill="none" xmlns="http://www.w3.org/2000/svg">
<path d="M66.6157 25.0803C70.0592 25.0803 72.8406 22.3011 72.8406 18.86C72.8406 15.4189 70.0593 12.6396 66.6157 12.6396C63.1721 12.6396 60.3908 15.4189 60.3908 18.86C60.3908 22.3011 63.1721 25.0803 66.6157 25.0803Z" fill="#0A2D47"/>
<path d="M95.4269 25.0803C98.8704 25.0803 101.652 22.3011 101.652 18.86C101.652 15.4189 98.8705 12.6396 95.4269 12.6396C91.9833 12.6396 89.202 15.4189 89.202 18.86C89.202 22.3011 91.9833 25.0803 95.4269 25.0803Z" fill="#0A2D47"/>
<path d="M124.23 25.0803C127.673 25.0803 130.455 22.3011 130.455 18.86C130.455 15.4189 127.673 12.6396 124.23 12.6396C120.786 12.6396 118.005 15.4189 118.005 18.86C118.038 22.301 120.819 25.0803 124.23 25.0803Z" fill="#0A2D47"/>
<path d="M149.591 62.7383H64.3271C63.9298 62.7383 63.5656 63.0692 63.5656 63.4993V273.069C63.5656 273.466 63.8967 273.83 64.3271 273.83H149.591C149.988 273.83 150.353 273.499 150.353 273.069V63.4993C150.353 63.0692 150.021 62.7383 149.591 62.7383ZM148.863 272.308H65.0922V64.229H148.863V272.308Z" fill="#0A2D47"/>
<path d="M106.98 142.843C124.363 142.843 138.601 128.814 138.601 111.245C138.601 93.8078 124.43 79.6465 106.98 79.6465C89.5307 79.6465 75.359 93.8078 75.359 111.245C75.359 128.813 89.5968 142.843 106.98 142.843ZM106.98 81.1355C123.601 81.1355 137.111 94.6353 137.111 111.245C137.111 128.02 123.502 141.354 106.98 141.354C90.4249 141.354 76.8492 127.987 76.8492 111.245C76.8492 94.6353 90.3588 81.1355 106.98 81.1355Z" fill="#0A2D47"/>
<path d="M106.98 109.088C110.523 109.088 113.404 106.209 113.404 102.669C113.404 99.1285 110.523 96.25 106.98 96.25C103.437 96.25 100.557 99.1285 100.557 102.669C100.557 106.209 103.437 109.088 106.98 109.088Z" fill="#0A2D47"/>
<path d="M106.98 112.629C97.875 112.629 90.359 119.279 89.0011 127.981H124.96C123.602 119.28 116.086 112.629 106.98 112.629Z" fill="#0A2D47"/>
<path d="M363.526 164.839C366.54 164.839 369.023 162.391 369.023 159.347V68.5207C369.023 65.5098 366.573 63.0283 363.526 63.0283H172.511C169.498 63.0283 167.015 65.4767 167.015 68.5207V159.347C167.015 162.358 169.465 164.839 172.511 164.839H363.526ZM168.502 159.347V68.5207C168.502 66.3039 170.29 64.5172 172.508 64.5172H363.524C365.742 64.5172 367.53 66.3039 367.53 68.5207V159.347C367.53 161.564 365.742 163.35 363.524 163.35H172.508C170.323 163.35 168.502 161.53 168.502 159.347Z" fill="#0A2D47"/>
<path d="M184.624 119.514H237.27C238.793 119.514 240.051 118.257 240.051 116.735V80.7696C240.051 79.2476 238.793 77.9902 237.27 77.9902H184.624C183.101 77.9902 181.843 79.2476 181.843 80.7696V116.735C181.843 118.257 183.101 119.514 184.624 119.514ZM238.562 116.735C238.562 117.43 237.999 118.025 237.27 118.025H184.624C183.929 118.025 183.333 117.463 183.333 116.735C183.366 78.1226 183.234 80.8687 183.399 80.3723C183.631 80.637 181.744 78.9165 201.544 96.2539L188.829 109.091C188.531 109.389 188.531 109.852 188.829 110.15C189.127 110.448 189.591 110.448 189.889 110.15L202.669 97.2466L208.166 102.044C209.722 103.434 212.106 103.434 213.695 102.044L219.192 97.2466L231.972 110.15C232.27 110.448 232.734 110.448 233.032 110.15C233.33 109.852 233.33 109.389 233.032 109.091L220.317 96.2539C240.383 78.685 238.231 80.6705 238.462 80.3723C238.628 80.8686 238.495 78.3209 238.562 116.735ZM237.27 79.4465L212.702 100.886C211.676 101.78 210.153 101.78 209.159 100.886C200.65 93.4417 189.856 84.045 184.625 79.4465H237.27Z" fill="#0A2D47"/>
<path d="M352.829 125.267H314.818C313.659 125.267 312.732 126.193 312.732 127.351V150.842C312.732 152 313.659 152.927 314.818 152.927H352.829C353.988 152.927 354.915 152 354.915 150.842V127.351C354.882 126.193 353.955 125.267 352.829 125.267ZM353.392 150.842C353.392 151.173 353.127 151.438 352.796 151.438H314.785C314.454 151.438 314.189 151.173 314.189 150.842V127.351C314.189 127.02 314.454 126.756 314.785 126.756H352.796C353.127 126.756 353.392 127.02 353.392 127.351V150.842Z" fill="#0A2D47"/>
<path d="M300.877 124.537H262.866C261.707 124.537 260.78 125.464 260.78 126.622V150.113C260.78 151.271 261.707 152.197 262.866 152.197H300.877C302.036 152.197 302.963 151.271 302.963 150.113V126.622C302.963 125.464 302.036 124.537 300.877 124.537ZM301.473 150.08C301.473 150.411 301.209 150.675 300.877 150.675H262.866C262.535 150.675 262.27 150.411 262.27 150.08V126.589C262.27 126.258 262.535 125.993 262.866 125.993H300.877C301.209 125.993 301.473 126.258 301.473 126.589V150.08Z" fill="#0A2D47"/>
<path d="M289.358 130.89C289.06 130.593 288.596 130.593 288.298 130.89L281.875 137.309L275.452 130.89C275.154 130.593 274.69 130.593 274.392 130.89C274.094 131.188 274.094 131.651 274.392 131.949L280.815 138.368L274.392 144.787C274.094 145.084 274.094 145.548 274.392 145.845C274.524 145.978 274.723 146.077 274.922 146.077C275.12 146.077 275.319 146.011 275.452 145.845L281.875 139.427L288.298 145.845C288.431 145.978 288.63 146.077 288.828 146.077C289.027 146.077 289.226 146.011 289.358 145.845C289.656 145.548 289.656 145.084 289.358 144.787L282.935 138.368L289.358 131.949C289.623 131.651 289.623 131.188 289.358 130.89Z" fill="#0A2D47"/>
<path d="M341.768 132.915L330.941 143.734L327.464 140.26C327.166 139.962 326.702 139.962 326.404 140.26C326.106 140.557 326.106 141.021 326.404 141.318L330.411 145.322C330.543 145.454 330.742 145.554 330.941 145.554C331.139 145.554 331.338 145.487 331.47 145.322L342.827 133.974C343.125 133.676 343.125 133.213 342.827 132.915C342.529 132.617 342.066 132.617 341.768 132.915Z" fill="#0A2D47"/>
<path d="M379.945 208.386H402.56C403.918 208.386 405.01 207.294 405.01 205.937V194.258C406.997 193.662 408.454 191.842 408.454 189.659C408.454 186.979 406.268 184.828 403.62 184.828C401.335 184.828 399.448 186.416 398.918 188.534H379.912C378.555 188.534 377.462 189.626 377.462 190.949V205.937C377.495 207.294 378.587 208.386 379.945 208.386ZM402.56 206.897H379.945C379.448 206.897 378.985 206.467 378.985 205.937V190.883L389.713 200.247C390.573 201.008 391.898 201.008 392.792 200.247L400.639 193.398C401.434 194.027 402.427 194.424 403.52 194.457V205.938C403.52 206.468 403.09 206.897 402.56 206.897ZM399.613 192.338L391.799 199.154C391.468 199.419 391.004 199.419 390.706 199.154L380.276 190.022H398.851C398.884 190.883 399.15 191.677 399.613 192.338Z" fill="#0A2D47"/>
<path d="M210.782 213.975C219.325 213.975 226.311 207.027 226.311 198.458C226.311 189.922 219.357 182.94 210.782 182.94C202.24 182.94 195.253 189.889 195.253 198.458C195.253 207.027 202.24 213.975 210.782 213.975ZM210.782 184.462C218.53 184.462 224.821 190.748 224.821 198.49C224.821 206.232 218.53 212.518 210.782 212.518C203.034 212.518 196.743 206.232 196.743 198.49C196.743 190.748 203.035 184.462 210.782 184.462Z" fill="#0A2D47"/>
<path d="M207.569 203.157C207.867 203.455 208.331 203.455 208.629 203.157L216.94 194.852C217.238 194.555 217.238 194.091 216.94 193.794C216.642 193.496 216.178 193.496 215.88 193.794L208.099 201.569L205.682 199.154C205.384 198.856 204.921 198.856 204.623 199.154C204.325 199.451 204.325 199.915 204.623 200.212L207.569 203.157Z" fill="#0A2D47"/>
<path d="M681.984 492.236C681.587 492.17 681.223 492.501 681.156 492.898L680.891 495.644C680.858 496.041 681.156 496.405 681.554 496.471H681.62C681.984 496.471 682.315 496.173 682.348 495.809L682.613 493.063C682.713 492.633 682.415 492.269 681.984 492.236Z" fill="#0A2D47"/>
<path d="M667.947 485.545C667.55 485.512 667.185 485.81 667.152 486.207L666.921 488.689C666.887 489.086 667.185 489.45 667.583 489.483H667.649C668.046 489.483 668.344 489.185 668.377 488.788L668.609 486.306C668.642 485.943 668.344 485.579 667.947 485.545Z" fill="#0A2D47"/>
<path d="M682.416 474.33C682.019 474.198 681.588 474.396 681.489 474.793L680.959 476.348C680.827 476.745 681.026 477.175 681.423 477.275C681.489 477.308 681.588 477.308 681.655 477.308C681.953 477.308 682.251 477.109 682.35 476.811L682.88 475.256C683.012 474.859 682.814 474.462 682.416 474.33Z" fill="#0A2D47"/>
<path d="M674.635 445.253C674.238 445.32 673.94 445.684 673.973 446.081L674.503 450.282C674.635 451.275 676.092 451.077 675.992 450.084L675.463 445.882C675.396 445.485 675.032 445.187 674.635 445.253Z" fill="#0A2D47"/>
<path d="M667.286 505.07C666.889 504.97 666.491 505.235 666.392 505.632L666.127 506.823C666.028 507.22 666.293 507.617 666.69 507.717C666.756 507.717 666.789 507.75 666.855 507.75C667.187 507.75 667.518 507.518 667.584 507.154L667.849 505.963C667.948 505.533 667.683 505.136 667.286 505.07Z" fill="#0A2D47"/>
<path d="M721.916 439.925C720.294 437.775 717.512 436.782 714.267 436.881C715.592 430.628 715.261 420.073 714.301 414.482C712.877 406.409 707.844 400.751 702.844 401.645C697.944 402.505 695.096 409.685 696.487 417.625C697.447 423.085 703.705 433.011 707.38 438.437C705.361 439.264 703.308 440.422 701.354 441.878C697.05 445.12 691.917 450.745 688.64 455.443C685.229 440.952 679.733 430.198 673.276 430.198C662.349 430.198 654.171 461.002 654.171 488.563C654.171 489.258 654.204 489.919 654.204 490.581C650.032 487.504 643.411 483.699 638.311 482.541C638.013 478.438 637.185 469.836 635.298 466.361C632.649 461.497 628.179 459.016 625.1 460.67C622.021 462.358 621.69 467.453 624.372 472.317C625.796 474.898 628.775 479.033 631.59 481.945C627.319 482.342 624.14 484.195 623.114 487.106C621.392 492.036 626.524 498.323 634.57 501.102C639.736 502.888 649.006 504.245 655.132 503.451C655.828 508.546 656.887 513.046 658.311 516.884H646.987C645.53 516.884 644.372 518.174 644.57 519.63L648.543 552.849C648.676 554.073 649.735 555 650.961 555H694.171C695.396 555 696.455 554.073 696.588 552.849L700.561 519.63C700.727 518.174 699.601 516.884 698.144 516.884H688.277C690.959 509.605 692.415 499.844 692.415 488.528C692.415 482.109 691.952 475.525 691.157 469.172C698.11 468.411 708.938 463.216 714.401 459.114C722.083 453.29 725.492 444.69 721.916 439.925ZM625.76 461.995C626.157 461.763 626.621 461.664 627.118 461.664C629.336 461.664 632.15 463.814 633.938 467.09C635.826 470.531 636.653 480.259 636.885 484.129C636.521 484.063 635.925 483.799 635.197 483.269C631.919 480.92 627.416 474.898 625.628 471.656C623.442 467.619 623.508 463.219 625.76 461.995ZM635.064 489.325H634.899C634.568 489.325 634.27 489.093 634.17 488.762L633.674 486.644C633.574 486.247 633.839 485.85 634.237 485.751C634.634 485.652 635.031 485.917 635.131 486.314L635.627 488.431C635.727 488.828 635.462 489.225 635.064 489.325ZM645.329 494.685C645.196 494.784 645.031 494.85 644.865 494.85C644.633 494.85 644.401 494.751 644.269 494.552L642.315 491.938C642.051 491.608 642.15 491.144 642.481 490.88C642.812 490.648 643.276 490.714 643.541 491.012L645.494 493.626C645.726 493.99 645.66 494.453 645.329 494.685ZM699.001 519.467L695.028 552.686C694.961 553.182 694.564 553.546 694.067 553.546H650.857C650.361 553.546 649.963 553.182 649.897 552.686L645.924 519.467C645.858 518.904 646.288 518.408 646.884 518.408H698.007C698.636 518.408 699.067 518.904 699.001 519.467ZM690.856 488.564C690.856 499.979 689.399 509.739 686.618 516.92H659.864C656.951 509.343 655.891 500.244 655.692 492.105C655.692 491.476 655.626 490.715 655.626 488.597C655.626 459.911 664.334 431.722 673.241 431.722C678.704 431.722 684.101 442.342 687.446 457.198C685.028 461.003 683.207 465.271 684.995 467.687C686.022 469.044 687.876 469.341 689.565 469.341C690.392 475.462 690.856 481.98 690.856 488.564ZM698.902 458.124C698.835 459.116 697.345 459.017 697.412 458.024L697.544 455.576C697.577 455.179 697.908 454.848 698.339 454.881C698.736 454.914 699.067 455.245 699.034 455.675L698.902 458.124ZM697.908 417.328C694.928 400.354 709.696 397.31 712.775 414.714C713.768 420.405 714.033 431.059 712.676 436.981C711.417 437.147 710.093 437.412 708.769 437.875C705.226 432.581 698.835 422.589 697.908 417.328ZM709.365 452.334L708.868 453.624C708.537 454.55 707.113 454.021 707.478 453.095L707.974 451.804C708.107 451.407 708.537 451.209 708.935 451.374C709.299 451.539 709.497 451.97 709.365 452.334Z" fill="#0A2D47"/>
<path d="M708.439 423.577C708.042 423.577 707.677 423.908 707.677 424.338V425.959C707.677 426.356 708.008 426.72 708.439 426.72C708.836 426.72 709.2 426.39 709.2 425.959L709.167 424.338C709.167 423.908 708.836 423.577 708.439 423.577Z" fill="#0A2D47"/>
<path d="M704.269 415.279L704.302 416.569C704.335 417.562 705.825 417.529 705.792 416.536L705.759 415.246C705.725 414.253 704.235 414.286 704.269 415.279Z" fill="#0A2D47"/>
<path d="M633.05 469.868C633.017 469.471 632.652 469.14 632.255 469.173C631.858 469.206 631.527 469.57 631.56 469.967L631.692 471.919L632.421 471.853L633.149 471.688L633.05 469.868Z" fill="#0A2D47"/>
<path d="M592.914 415.209H602.085C606.887 415.209 611.092 411.967 612.283 407.301C618.276 383.777 639.037 302.449 644.467 281.206C646.454 271.511 645.858 261.585 636.587 258.078C636.819 247.556 636.488 236.34 634.468 230.517C627.746 211.194 601.787 193.857 584.205 183.302C583.941 183.137 583.742 183.203 583.411 183.17L578.08 154.715C579.305 152.101 590.894 126.128 578.246 102.405C564.803 77.2252 536.526 82.9493 527.652 74.5452C527.387 74.3136 527.023 74.2805 526.725 74.4459C518.281 79.7729 515.401 89.1367 522.586 97.739C520.599 98.4669 515.533 99.5587 510.103 95.0589C509.672 94.695 508.977 94.9597 508.877 95.5221C508.811 95.9192 507.421 105.183 513.844 113.422C517.188 117.69 521.923 119.345 527.088 119.576C524.539 137.244 528.413 167.254 545.862 170.861C546.16 173.673 546.226 178.372 544.14 182.342C540.664 184.063 507.354 200.871 496.428 214.9C496.262 214.966 496.096 215.065 495.997 215.231L476.727 247.954C476.528 248.285 476.628 248.682 476.892 248.913L481.329 252.454C475.436 263.703 463.748 287.889 462.224 291.066L426.167 297.65L408.75 248.516C407.161 244.314 403.155 241.436 398.685 241.171V222.675H412.326C414.015 222.675 415.406 221.286 415.406 219.598V178.339C415.406 176.652 414.015 175.262 412.326 175.262H398.685V12.5071C398.685 5.59195 393.056 0 386.168 0H50.3258C43.4056 0 37.8096 5.62473 37.8096 12.5071V285.239C37.8096 293.411 44.4649 300.095 52.6763 300.095H285.972L292.991 320.245C294.415 323.95 297.726 326.73 301.633 327.425C302.957 327.689 304.017 327.623 304.547 327.623C301.103 330.435 301.368 335.266 304.547 337.847H285.143C284.746 337.847 284.382 338.177 284.382 338.608V352.306C284.382 352.703 284.713 353.067 285.143 353.067H333.717L325.671 396.013H266.899V379.602C266.899 379.205 266.568 378.841 266.138 378.841C265.741 378.841 265.376 379.172 265.376 379.602V396.013H247.927C247.53 396.013 247.165 396.344 247.165 396.774C247.165 397.171 247.496 397.535 247.927 397.535H293.786V417.089H197.265C196.868 417.089 196.504 417.42 196.504 417.85C196.504 418.247 196.835 418.611 197.265 418.611H272.493V438.166H247.892C247.495 438.166 247.131 438.497 247.131 438.927C247.131 439.324 247.462 439.688 247.892 439.688H273.123C273.156 439.688 273.222 439.721 273.255 439.721C273.289 439.721 273.355 439.688 273.388 439.688H317.458L301.829 523.166C289.876 522.636 261.401 541.727 259.944 548.576C259.746 549.47 260.309 552.249 261.037 552.977C261.699 553.639 262.626 554.036 263.586 554.036H340.569C343.748 554.036 345.403 550.231 343.119 547.881C342.456 547.22 341.529 546.823 340.569 546.823H336.563C341.397 542.521 340.47 532.694 340.172 530.379L417.684 479.326C431.955 497.292 450.464 516.085 457.814 523.298C446.854 521.346 416.327 541.397 414.771 548.577C414.572 549.503 415.102 552.216 415.863 552.977C416.525 553.639 417.453 554.036 418.413 554.036H495.395C498.574 554.036 500.229 550.231 497.945 547.882C497.283 547.22 496.355 546.823 495.395 546.823H491.554C497.614 542.191 495.462 532.033 494.899 529.817C491.025 514.465 478.741 480.915 469.999 457.688C470.628 457.853 470.993 458.085 471.39 457.754L526.122 415.337H539.698C532.248 442.005 500.892 551.953 500.56 553.08C500.296 554.039 501.719 554.436 501.984 553.477C502.315 552.352 534.002 441.28 541.221 415.336H566.054L591.913 553.409C592.112 554.401 593.569 554.104 593.37 553.144L567.577 415.334H591.251C598.469 441.274 630.19 552.348 630.521 553.474C630.62 553.871 631.017 554.103 631.448 553.971C631.845 553.871 632.077 553.441 631.945 553.044C631.713 551.82 600.364 441.907 592.914 415.209ZM528.58 119.582C540.268 119.417 553.479 112.568 557.651 111.741C557.221 121.733 569.935 133.015 572.154 134.902C570.73 157.07 563.181 169.081 550.069 169.676C530.632 170.635 525.799 138.707 528.58 119.582ZM547.32 171.098C547.95 171.164 548.612 171.23 549.241 171.23C565.101 171.197 571.425 155.415 573.213 139.533C573.246 139.699 576.458 154.62 576.491 154.786L581.888 183.604C579.239 185.854 560.796 201.239 550.267 198.46C544.075 196.839 542.155 189.03 545.3 183.174C545.3 183.141 545.333 183.141 545.333 183.108C547.486 179.138 547.652 174.572 547.32 171.098ZM496.528 217.188C496.561 217.155 496.594 217.155 496.628 217.122C505.17 204.581 535.334 188.535 543.149 184.531C540.599 191.777 544.175 200.346 553.016 200.346C564.572 200.346 580.762 186.648 582.982 184.696H583.544C599.802 194.589 626.423 212.059 633.012 231.018C636.952 242.366 634.204 276.049 633.707 281.674L581.491 273.071L590.695 249.878C591.06 248.951 589.669 248.422 589.305 249.315L579.769 273.369C579.603 273.799 579.868 274.295 580.332 274.394L583.577 274.924L575.2 294.511C482.154 299.11 490.899 297.886 485.104 299.507C487.223 279.092 490.269 251.531 492.985 233.962C493.051 233.565 492.753 233.168 492.355 233.102C491.958 233.036 491.561 233.334 491.495 233.731C490.501 240.149 489.475 247.925 488.448 256.163L478.283 248.123L496.528 217.188ZM391.498 351.551V339.342H612.943V351.551H391.498ZM490.332 326.14H482.385L483.015 319.688C484.968 319.159 487.12 319.059 490.1 319.324L593.97 337.621C593.738 337.688 593.506 337.754 593.274 337.853H495.466C497.287 335.934 496.591 333.849 496.757 332.559C496.757 329.019 493.875 326.14 490.332 326.14ZM463.115 326.14C464.87 324.684 466.426 323.294 467.155 322.633C468.612 323.46 472.784 325.445 476.989 322.666C478.645 321.574 480.035 320.78 481.459 320.217L480.863 326.14L463.115 326.14ZM598.568 337.852C600.091 337.621 601.581 337.091 602.905 336.264L602.508 337.852H598.568ZM597.541 336.496C595.422 336.595 601.746 337.422 490.264 317.868C484.172 317.339 481.06 318.232 476.159 321.442C471.954 324.188 467.649 321.243 467.484 321.111C467.186 320.912 466.789 320.945 466.557 321.177C466.524 321.21 463.577 323.923 460.729 326.173H454.372C459.637 320.648 471.888 307.876 474.868 305.792C480.96 301.458 489.602 300.068 489.602 300.068C581.224 295.601 576.053 296.395 576.384 295.568L585.091 275.187L623.798 281.573L606.084 330.178C604.793 333.619 601.515 336.231 597.541 336.496ZM462.843 292.425C463.075 292.392 463.274 292.226 463.373 292.028C463.505 291.763 476.154 265.459 482.478 253.349L488.239 257.915C486.518 272.043 484.862 287.396 483.537 300.002C480.591 300.928 477.015 302.384 473.968 304.535C470.79 306.785 457.91 320.218 452.281 326.141H436.222L426.62 299.043L462.843 292.425ZM413.906 178.339V219.599C413.906 220.459 413.177 221.187 412.316 221.187H186.828C185.967 221.187 185.238 220.459 185.238 219.599V178.339C185.238 177.479 185.967 176.751 186.828 176.751H412.316C413.177 176.751 413.906 177.446 413.906 178.339ZM50.3115 1.49019H386.12C392.213 1.49019 397.146 6.42011 397.146 12.5082V36.2976H39.282V12.5082C39.282 6.42028 44.2189 1.49019 50.3115 1.49019ZM52.6292 298.574C45.2456 298.574 39.2527 292.585 39.2527 285.207L39.2858 37.7841H397.184V175.255H186.8C185.112 175.255 183.721 176.645 183.721 178.333V219.592C183.721 221.279 185.112 222.669 186.8 222.669H397.15V241.098H364.403V238.551C364.403 237.095 363.211 235.904 361.754 235.904H174.214C172.758 235.904 171.566 237.095 171.566 238.551V272.398C171.566 273.854 172.758 275.045 174.214 275.045H277.186L285.397 298.603L52.6292 298.574ZM270.099 251.591H192.818C192.421 251.591 192.057 251.921 192.057 252.352C192.057 252.749 192.388 253.113 192.818 253.113H270.066C270.199 255.76 270.96 256.918 272.119 260.491H192.818C192.421 260.491 192.057 260.822 192.057 261.252C192.057 261.649 192.388 262.013 192.818 262.013H272.649L276.688 273.626H174.209C173.58 273.626 173.05 273.097 173.05 272.468V238.621C173.05 237.959 173.547 237.463 174.209 237.463H361.749C362.378 237.463 362.908 237.992 362.908 238.621V241.168H281.521C275.329 241.102 270.596 245.833 270.099 251.591ZM303.706 326.135C299.7 326.135 295.892 323.621 294.369 319.716C286.952 298.409 279.535 277.134 272.184 256.124C269.734 249.672 274.436 242.624 281.522 242.624H397.97C402.109 242.624 405.851 245.205 407.308 249.043L434.625 326.168C420.552 326.135 320.922 326.135 303.706 326.135ZM303.541 332.719C303.541 329.907 305.825 327.624 308.64 327.624H490.323C493.038 327.624 495.223 329.841 495.223 332.521V334.638C495.223 336.359 493.832 337.782 492.11 337.848H308.614C305.832 337.815 303.541 335.532 303.541 332.719ZM285.86 339.337H389.958V351.546H285.86V339.337ZM274.007 438.065V418.511H317.415C317.812 418.511 318.176 418.18 318.176 417.75C318.176 417.353 317.845 416.989 317.415 416.989H295.264V397.435H325.329L317.746 438.032L274.007 438.065ZM319.004 439.554H332.845C333.242 439.554 333.606 439.223 333.606 438.793C333.606 438.396 333.275 438.032 332.845 438.032H319.269L326.851 397.435H332.811C333.208 397.435 333.573 397.104 333.573 396.674C333.573 396.277 333.241 395.913 332.811 395.913H327.116L335.162 352.966H461.943C442.739 369.575 386.417 419.504 385.821 420.033C385.424 420.397 385.523 421.026 385.986 421.257C389.364 423.011 392.41 424.599 396.384 426.651C386.848 437.636 367.147 460.597 326.089 508.673L308.275 523.561L306.653 524.686C305.626 523.959 304.5 523.396 303.308 523.131L319.004 439.554ZM338.672 529.982C338.705 530.114 340.758 543.878 333.805 546.691H314.964C314.567 540.107 312.646 530.313 307.879 525.747L309.203 524.821L327.149 509.799C347.479 485.977 381.947 445.711 397.741 427.446C400.622 428.935 403.469 430.391 406.317 431.847C402.41 436.049 399.264 441.012 399.231 446.107C399.165 453.32 406.813 465.429 416.78 478.069C334.533 532.397 338.506 529.055 338.672 529.982ZM493.502 530.048C494.064 532.298 496.482 543.581 488.634 546.658H469.794C469.396 539.775 467.377 529.386 461.947 525.052C460.026 523.497 435.855 499.806 418.472 477.837C418.472 477.837 418.472 477.804 418.439 477.804L418.34 477.705C408.373 465.066 400.659 453.022 400.692 446.041C400.725 441.276 403.87 436.545 407.711 432.475C427.313 442.335 446.119 450.838 468.205 457.025C477.012 480.252 489.594 514.531 493.502 530.048ZM525.354 413.719C527.175 398.664 532.87 371.434 543.929 361.177C546.975 358.332 550.585 355.751 554.591 353.468L565.881 413.719L525.354 413.719ZM556.048 353.037H613.661C614.058 353.037 614.422 352.706 614.422 352.276V338.578C614.422 338.181 614.091 337.817 613.661 337.817H604.059L604.721 335.137C608.595 333.317 611.41 331.266 613.264 328.95C618.793 321.175 622.004 311.943 625.647 298.643C625.746 298.246 625.514 297.849 625.117 297.716C624.72 297.617 624.322 297.849 624.19 298.246C620.581 311.414 617.468 320.513 612.071 328.056C610.78 329.678 608.959 331.167 606.509 332.556C607.667 330.604 606.409 333.251 625.282 281.801L634.255 283.29C634.686 283.356 635.083 283.058 635.116 282.628C635.182 281.801 636.176 271.346 636.507 259.699C644.586 263.107 644.718 272.339 642.996 280.908L610.812 406.97C609.786 410.974 606.21 413.753 602.071 413.753H567.405L556.048 353.037Z" fill="#0A2D47"/>
<path d="M552.821 132.712C553.781 132.58 554.443 131.388 554.278 129.999C554.112 128.609 553.185 127.617 552.225 127.716C551.265 127.848 550.602 129.039 550.768 130.429C550.933 131.819 551.861 132.844 552.821 132.712Z" fill="#0A2D47"/>
<path d="M535.732 130.23C534.772 130.363 534.11 131.554 534.275 132.943C534.441 134.3 535.368 135.326 536.328 135.226C537.288 135.094 537.951 133.903 537.785 132.513C537.587 131.157 536.693 130.131 535.732 130.23Z" fill="#0A2D47"/>
<path d="M547.455 145.916C546.694 145.486 545.899 145.552 545.038 145.585C543.614 145.519 543.78 145.056 544.542 143.964C546.628 140.953 547.091 136.817 545.7 133.442C545.535 133.045 545.104 132.88 544.74 133.045C544.343 133.211 544.177 133.641 544.343 134.005C545.568 136.916 545.171 140.49 543.317 143.136C542.853 143.798 542.224 144.691 542.588 145.717C542.886 146.577 543.879 147.041 545.038 147.074C546.296 147.041 546.462 147.074 546.727 147.206C547.555 147.702 548.316 146.412 547.455 145.916Z" fill="#0A2D47"/>
<path d="M549.405 159.444C552.484 160.106 555.497 158.154 556.159 155.11C556.259 154.713 555.994 154.316 555.596 154.216C555.199 154.117 554.802 154.382 554.702 154.779C554.206 157.029 551.987 158.451 549.703 157.988C549.305 157.889 548.908 158.154 548.809 158.551C548.743 158.948 549.007 159.345 549.405 159.444Z" fill="#0A2D47"/>
<path d="M419.682 312.771L398.723 253.611C397.233 249.641 393.326 246.961 389.055 246.961C388.657 246.961 388.293 247.292 388.293 247.722C388.293 248.119 388.624 248.483 389.055 248.483C392.697 248.483 396.041 250.766 397.299 254.174L418.259 313.3C418.59 314.193 420.014 313.697 419.682 312.771Z" fill="#0A2D47"/>
<path d="M351.21 285.176C357.998 296.491 346.707 303.274 339.887 291.958C333.099 280.643 344.423 273.86 351.21 285.176Z" fill="#0A2D47"/>
<path d="M203.501 470.393H193.468V435.023C193.468 434.923 193.435 434.824 193.402 434.725C193.269 433.997 192.64 433.401 191.846 433.401H176.515C175.621 433.401 174.893 434.129 174.893 435.023V444.453C174.396 444.419 159.861 444.419 159.331 444.453V440.846C159.331 439.953 158.603 439.225 157.709 439.225H142.378C141.484 439.225 140.756 439.953 140.756 440.846V470.36L71.9183 470.393L73.7725 467.018C74.3685 465.926 73.9712 464.57 72.8785 463.974L66.2232 460.367C65.1305 459.772 63.773 460.169 63.177 461.261L35.9271 511.321C35.3311 512.413 35.7284 513.77 36.8211 514.365L40.8937 516.582L17.749 516.549C16.3252 516.549 15.1995 517.707 15.1995 519.097V551.323C15.1995 552.746 16.3584 553.871 17.749 553.871H203.5C203.898 553.871 204.262 553.54 204.262 553.11V504.572H209.791C210.255 504.572 210.619 504.141 210.52 503.678L204.262 470.955C204.163 470.691 203.865 470.393 203.501 470.393ZM63.7762 504.372C63.9086 504.538 64.1404 504.637 64.339 504.637H69.8685V516.582L46.7899 516.549L68.9743 475.753L63.6103 503.711C63.5772 503.976 63.6437 504.174 63.7762 504.372ZM176.419 435.023C176.419 434.956 176.485 434.89 176.551 434.89H191.882C191.948 434.89 192.014 434.956 192.014 435.023V470.393H176.452C176.419 463.444 176.419 442.037 176.419 435.023ZM142.315 440.879C142.315 440.813 142.381 440.747 142.447 440.747C158.539 440.813 157.877 440.614 157.877 440.879V470.393H142.315L142.315 440.879ZM37.5553 513.041C37.1911 512.842 37.0587 512.379 37.2573 512.015L64.5072 461.955C64.7059 461.591 65.1363 461.458 65.5336 461.657L72.1889 465.263C72.5531 465.462 72.6856 465.925 72.4869 466.289C43.2171 520.055 45.237 516.383 45.0709 516.548H44.0776L37.5553 513.041ZM16.6628 551.322V519.095C16.6628 518.5 17.1594 518.037 17.7223 518.037C21.6294 518.037 66.4284 518.07 69.8715 518.037V552.381H17.7223C17.1594 552.414 16.6628 551.917 16.6628 551.322ZM71.3947 552.414V510.757H202.779V552.414H71.3947ZM65.2692 503.148L71.2622 471.914H202.909L208.902 503.148H65.2692Z" fill="#0A2D47"/>
<path d="M429.913 51.9834H486.169C486.566 51.9834 486.93 51.6525 486.93 51.2224C486.93 50.8253 486.599 50.4614 486.169 50.4614H449.846V34.944H475.176C475.573 34.944 475.937 34.6131 475.937 34.183C475.937 33.7859 475.606 33.422 475.176 33.422H468.222V28.095C468.222 27.6979 467.891 27.334 467.461 27.334C467.063 27.334 466.699 27.6648 466.699 28.095V33.422H430.145C429.747 33.422 429.383 33.7529 429.383 34.183C429.383 34.58 429.714 34.944 430.145 34.944H448.289V50.4614H429.846C429.449 50.4614 429.085 50.7922 429.085 51.2224C429.151 51.6525 429.483 51.9834 429.913 51.9834Z" fill="#0A2D47"/>
<path d="M112.609 405.874C112.609 405.477 112.278 405.113 111.847 405.113H42.3475V383.309H93.7025C94.0999 383.309 94.4641 382.978 94.4641 382.548C94.4641 382.151 94.133 381.787 93.7025 381.787L69.1015 381.82V357.071H111.881C112.278 357.071 112.643 356.74 112.643 356.31C112.643 355.913 112.311 355.549 111.881 355.549L34.2695 355.582C33.8722 355.582 33.508 355.913 33.508 356.343C33.508 356.74 33.8391 357.104 34.2695 357.104H67.6122V381.82H0.76155C0.364219 381.82 0 382.151 0 382.581C0 382.978 0.331111 383.342 0.76155 383.342H40.8921V405.146H11.9199C11.5225 405.146 11.1583 405.477 11.1583 405.907C11.1583 406.304 11.4894 406.668 11.9199 406.668H111.882C112.279 406.602 112.609 406.271 112.609 405.874Z" fill="#0A2D47"/>
<path d="M75.5245 163.617H138.435C139.429 163.617 139.429 162.128 138.435 162.128H75.5245C74.5311 162.128 74.5311 163.617 75.5245 163.617Z" fill="#0A2D47"/>
<path d="M75.5245 170.963H120.522C121.516 170.963 121.516 169.474 120.522 169.474H75.5245C74.5311 169.474 74.5311 170.963 75.5245 170.963Z" fill="#0A2D47"/>
<path d="M75.5244 194.722H138.435C138.833 194.722 139.197 194.391 139.197 193.961C139.197 193.564 138.866 193.2 138.435 193.2L75.5244 193.233C75.1271 193.233 74.7629 193.564 74.7629 193.994C74.796 194.391 75.1271 194.722 75.5244 194.722Z" fill="#0A2D47"/>
<path d="M75.5244 202.066H120.522C120.919 202.066 121.284 201.735 121.284 201.305C121.284 200.908 120.953 200.544 120.522 200.544L75.5244 200.577C75.1271 200.577 74.7629 200.908 74.7629 201.338C74.796 201.735 75.1271 202.066 75.5244 202.066Z" fill="#0A2D47"/>
<path d="M75.5244 225.816H138.435C138.833 225.816 139.197 225.485 139.197 225.055C139.197 224.658 138.866 224.294 138.435 224.294L75.5244 224.327C75.1271 224.327 74.7629 224.658 74.7629 225.088C74.796 225.485 75.1271 225.816 75.5244 225.816Z" fill="#0A2D47"/>
<path d="M75.5244 233.202H120.522C120.919 233.202 121.284 232.871 121.284 232.441C121.284 232.044 120.953 231.68 120.522 231.68L75.5244 231.713C75.1271 231.713 74.7629 232.044 74.7629 232.474C74.796 232.838 75.1271 233.202 75.5244 233.202Z" fill="#0A2D47"/>
<path d="M254.19 90.3941H354.151C354.549 90.3941 354.913 90.0632 354.913 89.6331C354.913 89.236 354.582 88.8721 354.151 88.8721H254.19C253.792 88.8721 253.428 89.2029 253.428 89.6331C253.428 90.0632 253.759 90.3941 254.19 90.3941Z" fill="#0A2D47"/>
<path d="M254.19 99.4585H281.903C282.3 99.4585 282.665 99.1276 282.665 98.6975C282.665 98.3005 282.333 97.9365 281.903 97.9365H254.19C253.792 97.9365 253.428 98.2674 253.428 98.6975C253.428 99.1276 253.759 99.4585 254.19 99.4585Z" fill="#0A2D47"/>
<path d="M234.558 195.908H352.338C352.735 195.908 353.099 195.577 353.099 195.147C353.099 194.75 352.768 194.386 352.338 194.386H234.558C234.161 194.386 233.797 194.717 233.797 195.147C233.83 195.577 234.161 195.908 234.558 195.908Z" fill="#0A2D47"/>
<path d="M234.558 203.784H270.682C271.079 203.784 271.444 203.453 271.444 203.023C271.444 202.626 271.113 202.262 270.682 202.262H234.558C234.161 202.262 233.797 202.593 233.797 203.023C233.83 203.453 234.161 203.784 234.558 203.784Z" fill="#0A2D47"/>
</svg>
