<svg width="40" height="40" viewBox="0 0 40 40" fill="none" xmlns="http://www.w3.org/2000/svg">
<path d="M0.912281 0.912282C2.12862 -0.304042 4.10078 -0.304094 5.31716 0.912282L20 15.5952L34.6829 0.912282C35.8992 -0.304083 37.8713 -0.304104 39.0877 0.912282C40.3041 2.12862 40.3041 4.10074 39.0877 5.31711L24.4049 20L39.0877 34.6828C40.3041 35.8992 40.3041 37.8714 39.0877 39.0878C37.8713 40.3042 35.8992 40.3041 34.6829 39.0878L20 24.4048L5.31715 39.0878C4.10079 40.3041 2.12863 40.3041 0.912291 39.0878C-0.304106 37.8714 -0.304085 35.8992 0.912291 34.6828L15.5952 20L0.912291 5.31711C-0.304075 4.10075 -0.304116 2.12869 0.912281 0.912282Z" fill="#086099"/>
</svg>
