<svg width="144" height="132" viewBox="0 0 144 132" fill="none" xmlns="http://www.w3.org/2000/svg">
<path d="M56.6007 108.301C47.7232 108.301 41.3585 114.392 40.7596 123.485C40.6678 124.798 41.1692 125.988 42.1535 126.861C45.724 129.985 51.4041 132 56.6009 132C61.7978 132 67.4777 129.985 71.0483 126.861C72.0327 126 72.534 124.798 72.4423 123.485C71.8431 114.41 65.472 108.301 56.6007 108.301ZM69.1039 124.645C66.0835 127.288 61.0579 129.064 56.6007 129.064C52.1375 129.064 47.1179 127.282 44.0976 124.645C43.798 124.377 43.6757 124.084 43.688 123.675C44.171 116.235 49.3679 111.236 56.6007 111.236C63.8336 111.236 69.0121 116.235 69.5135 123.675C69.544 124.084 69.4157 124.383 69.1039 124.645ZM64.6896 98.823C64.6896 94.3676 61.0579 90.7606 56.6129 90.7606C52.1681 90.7606 48.5363 94.3859 48.5363 98.823C48.5363 103.278 52.168 106.885 56.6129 106.885C61.0578 106.885 64.6896 103.272 64.6896 98.823ZM51.4651 98.823C51.4651 95.9972 53.764 93.684 56.6131 93.684C59.4622 93.684 61.7611 95.9789 61.7611 98.823C61.7611 101.649 59.4622 103.962 56.6131 103.962C53.764 103.962 51.4651 101.649 51.4651 98.823ZM136.639 0H48.0968C44.0433 0 40.7539 3.29577 40.7539 7.32993V45.6279L38.3756 41.5022C36.3091 37.9257 32.7569 35.875 28.6238 35.875H17.8998C13.7668 35.875 10.2144 37.9196 8.14791 41.5022L1.1046 53.672C-0.130421 55.8265 -0.338309 58.1579 0.523777 60.2636C1.41642 62.418 3.38508 64.0476 5.91019 64.7312L10.777 66.025V113.227C10.777 117.072 13.9073 120.197 17.7591 120.197C19.9968 120.197 21.9838 119.135 23.2677 117.512C24.5517 119.153 26.5386 120.197 28.7764 120.197C32.6281 120.197 35.7585 117.072 35.7585 113.227L35.7646 61.9659C36.5655 62.8081 37.5805 63.4062 38.7237 63.7175C39.3963 63.9067 40.0994 63.9372 40.7719 63.8884V69.2775C40.7719 73.3238 44.0735 76.6074 48.1148 76.6074H136.657C140.711 76.6074 144 73.3117 144 69.2775V7.32446C143.982 3.27811 140.693 0 136.639 0ZM39.4445 60.8671C38.5702 60.6352 37.8305 60.0676 37.3658 59.2864L35.7211 56.4424V51.9443C35.7211 51.1326 35.0608 50.4734 34.2476 50.4734C33.4344 50.4734 32.7741 51.1326 32.7741 51.9443V113.221C32.7741 115.442 30.9582 117.249 28.7389 117.249C26.5134 117.249 24.7037 115.436 24.7037 113.221L24.6976 79.8663C24.6976 79.0546 24.0373 78.3954 23.2241 78.3954C22.411 78.3954 21.7507 79.0546 21.7507 79.8663V113.257C21.7507 115.478 19.9347 117.285 17.7155 117.285C15.4899 117.285 13.6803 115.472 13.6803 113.257V66.8232L18.1436 68.0134C19.7882 68.4528 21.494 68.2331 22.9613 67.3725C24.4348 66.5303 25.4803 65.1509 25.9205 63.5152C26.8253 60.1401 24.8077 56.6431 21.4145 55.7519L15.4228 54.1407L16.8963 51.5957C17.3059 50.8938 17.0675 50.0028 16.3644 49.5939C15.6613 49.185 14.7687 49.423 14.3591 50.1249L11.9318 54.33C11.6994 54.7206 11.6628 55.2027 11.8523 55.6239C12.0235 56.045 12.3842 56.3562 12.8244 56.4844L20.6686 58.5777C21.5429 58.8097 22.295 59.3773 22.7473 60.1706C23.1998 60.9701 23.3282 61.8733 23.0897 62.7645C22.8574 63.6373 22.2888 64.3881 21.494 64.8396C20.6931 65.2912 19.7883 65.4194 18.8955 65.1814L6.62481 61.8978C4.98012 61.4584 3.72672 60.4574 3.19487 59.1453C2.6813 57.9124 2.82192 56.4904 3.60451 55.1477L10.6478 42.9778C12.1824 40.3352 14.793 38.8215 17.8624 38.8215H28.5864C31.6372 38.8215 34.2662 40.3351 35.8009 42.9778L40.8265 51.6627C41.0161 52.0045 41.3401 52.2425 41.7192 52.3524C42.0921 52.4439 42.5018 52.4012 42.8319 52.212L48.4018 49.0078C49.1844 48.5562 50.1075 48.428 51.0003 48.666C51.8746 48.8979 52.6143 49.4655 53.079 50.2467C53.5314 51.0279 53.6598 51.9494 53.4214 52.8406C53.1891 53.7134 52.6205 54.4518 51.8379 54.9157L42.0372 60.5734C41.2607 60.9945 40.3371 61.1052 39.4445 60.8671ZM141.04 69.2773C141.04 71.7003 139.066 73.6838 136.626 73.6838H48.0963C45.6691 73.6838 43.6821 71.7125 43.6821 69.2773V62.9666L53.3054 57.4187C54.7789 56.5765 55.8244 55.1971 56.2645 53.5614C56.7048 51.9196 56.4663 50.2169 55.6226 48.7521C54.7788 47.2813 53.397 46.2376 51.7584 45.7982C50.1138 45.3588 48.408 45.5968 46.9407 46.4391L43.6881 48.3127V7.32424C43.6881 4.90125 45.6629 2.91775 48.1023 2.91775H136.645C139.072 2.91775 141.059 4.88906 141.059 7.32424L141.053 69.2773L141.04 69.2773ZM125.389 60.8976H123.805V28.3368C123.805 26.225 122.081 24.5101 119.972 24.5101H115.025C112.91 24.5101 111.192 26.2313 111.192 28.3368V60.9164H107.059V42.8392C107.059 40.7274 105.335 39.0125 103.225 39.0125H98.2792C96.1637 39.0125 94.4457 40.7337 94.4457 42.8392V60.9164H90.2944V37.9019C90.2944 35.7902 88.5702 34.0753 86.461 34.0753H81.5147C79.3992 34.0753 77.6812 35.7964 77.6812 37.9019V60.8992H73.5482V47.2768C73.5482 45.165 71.824 43.4501 69.7148 43.4501H64.7685C62.653 43.4501 60.935 45.1712 60.935 47.2768V60.8992H59.3516C58.5384 60.8992 57.8781 61.5583 57.8781 62.37C57.8781 63.1818 58.5384 63.8409 59.3516 63.8409H125.388C126.201 63.8409 126.862 63.1818 126.862 62.37C126.855 61.5583 126.201 60.8992 125.388 60.8992L125.389 60.8976ZM114.121 28.3368C114.121 27.8364 114.53 27.4457 115.013 27.4457H119.959C120.461 27.4457 120.852 27.8547 120.852 28.3368V60.9164H114.108L114.102 28.3368H114.121ZM97.3684 42.8379C97.3684 42.3375 97.778 41.9469 98.261 41.9469H103.207C103.709 41.9469 104.1 42.3558 104.1 42.8379V60.9151H97.3562V42.8379H97.3684ZM80.61 37.9004C80.61 37.3999 81.0196 37.0093 81.5026 37.0093H86.4489C86.9503 37.0093 87.3416 37.4182 87.3416 37.9004V60.8976H80.5978L80.5917 37.9004H80.61ZM63.8579 47.2932C63.8579 46.7927 64.2675 46.4021 64.7505 46.4021H69.6968C70.1981 46.4021 70.5894 46.811 70.5894 47.2932V60.9156H63.8457V47.2932H63.8579ZM23.243 35.2577C28.5011 35.2577 32.7746 30.9915 32.7746 25.7429C32.7746 20.4942 28.5009 16.2281 23.243 16.2281C17.9851 16.2281 13.7113 20.4942 13.7113 25.7429C13.7297 30.9978 18.0034 35.2577 23.243 35.2577ZM23.243 19.1695C26.8747 19.1695 29.8338 22.1234 29.8338 25.7487C29.8338 29.3739 26.8747 32.3278 23.243 32.3278C19.6113 32.3278 16.6522 29.3739 16.6522 25.7487C16.6522 22.1234 19.6113 19.1695 23.243 19.1695ZM51.9969 11.2171C51.9969 10.4053 52.6572 9.7462 53.4704 9.7462H85.0244C85.8376 9.7462 86.4979 10.4053 86.4979 11.2171C86.4979 12.0288 85.8376 12.688 85.0244 12.688L53.4704 12.6818C52.6511 12.6696 51.9969 12.0105 51.9969 11.2171ZM71.5304 29.8567H53.4698C52.6566 29.8567 51.9963 29.1976 51.9963 28.3858C51.9963 27.5741 52.6566 26.915 53.4698 26.915H71.5179C72.331 26.915 72.9913 27.5741 72.9913 28.3858C72.9852 29.1976 72.3252 29.8567 71.5304 29.8567ZM51.9969 19.7926C51.9969 18.9808 52.6572 18.3217 53.4704 18.3217H85.0244C85.8376 18.3217 86.4979 18.9808 86.4979 19.7926C86.4979 20.6043 85.8376 21.2634 85.0244 21.2634H53.4704C52.6511 21.2634 51.9969 20.6043 51.9969 19.7926ZM128.129 108.3C119.251 108.3 112.887 114.391 112.288 123.485C112.196 124.797 112.697 125.988 113.682 126.86C117.252 129.985 122.932 131.999 128.129 131.999C133.326 131.999 139.006 129.985 142.576 126.86C143.561 126 144.062 124.798 143.97 123.485C143.371 114.41 137 108.3 128.129 108.3ZM140.65 124.645C137.63 127.288 132.604 129.064 128.147 129.064C123.684 129.064 118.664 127.282 115.644 124.645C115.344 124.376 115.222 124.083 115.234 123.675C115.717 116.235 120.914 111.236 128.147 111.236C135.38 111.236 140.559 116.235 141.06 123.675C141.072 124.083 140.944 124.382 140.65 124.645ZM136.218 98.8228C136.218 94.3674 132.586 90.7604 128.141 90.7604C123.696 90.7604 120.064 94.3857 120.064 98.8228C120.064 103.278 123.696 106.885 128.141 106.885C132.586 106.885 136.218 103.272 136.218 98.8228ZM122.993 98.8228C122.993 95.997 125.292 93.6839 128.141 93.6839C130.972 93.6839 133.289 95.9788 133.289 98.8228C133.289 101.649 130.99 103.962 128.141 103.962C125.292 103.962 122.993 101.649 122.993 98.8228ZM92.3626 108.301C83.4851 108.301 77.1204 114.392 76.5214 123.486C76.4297 124.798 76.9311 125.988 77.9154 126.861C81.4859 129.986 87.1659 132 92.3628 132C97.5597 132 103.24 129.986 106.81 126.861C107.795 126.001 108.296 124.798 108.204 123.486C107.611 114.41 101.24 108.301 92.3626 108.301ZM104.884 124.646C101.864 127.288 96.8381 129.064 92.3809 129.064C87.9177 129.064 82.8981 127.282 79.8778 124.646C79.5782 124.377 79.4559 124.084 79.4682 123.675C79.9512 116.235 85.148 111.237 92.3809 111.237C99.6138 111.237 104.792 116.235 105.294 123.675C105.306 124.084 105.184 124.383 104.884 124.646ZM100.458 98.8234C100.458 94.3681 96.8259 90.7611 92.3809 90.7611C87.936 90.7611 84.3043 94.3863 84.3043 98.8234C84.3043 103.279 87.936 106.886 92.3809 106.886C96.8259 106.886 100.458 103.273 100.458 98.8234ZM87.227 98.8234C87.227 95.9977 89.5259 93.6845 92.375 93.6845C95.2241 93.6845 97.523 95.9794 97.523 98.8234C97.523 101.649 95.2241 103.962 92.375 103.962C89.532 103.962 87.227 101.649 87.227 98.8234Z" fill="#50A42A"/>
</svg>
