<svg width="144" height="133" viewBox="0 0 144 133" fill="none" xmlns="http://www.w3.org/2000/svg">
<path fill-rule="evenodd" clip-rule="evenodd" d="M84.2558 132.983C77.675 132.748 71.484 131.313 65.6829 128.691C59.8617 126.055 54.4303 122.219 49.3957 117.182C48.9453 116.726 48.8109 116.075 49.0058 115.505C49.5772 113.554 49.967 111.85 50.1821 110.388C50.3771 109.054 50.4174 107.967 50.2964 107.129C49.2948 103.44 47.6479 100.952 45.9338 98.3699C43.44 94.6075 40.825 90.6639 39.5413 82.8306C36.4829 66.7951 42.8552 55.6881 52.6156 49.5794C56.5008 47.1448 60.9306 45.5151 65.5016 44.6969C70.0725 43.8786 74.7846 43.8652 79.2548 44.6566C90.7292 46.6887 100.705 53.9655 102.882 66.5402C103.621 70.8325 103.433 75.4064 103.224 80.5505C103.177 81.6235 103.13 82.7234 103.097 83.7897L110.551 92.9242C110.639 93.0315 110.74 93.1723 110.847 93.3332C111.398 94.1448 111.687 94.916 111.714 95.6404C111.748 96.6129 111.365 97.3975 110.565 98.0079L110.444 98.095C110.383 98.1353 110.323 98.1822 110.256 98.2091L104.797 101.69V106.901C104.797 107.585 104.381 108.168 103.789 108.417L103.177 108.745L104.159 109.523C104.569 109.852 104.791 110.335 104.784 110.824C104.744 114.137 104.058 116.726 102.727 118.59C101.302 120.582 99.218 121.716 96.4823 121.977C96.3882 121.984 96.2941 121.991 96.2 121.977L89.0882 121.414C88.1874 121.434 87.5421 121.622 87.1455 121.977C86.7758 122.313 86.5809 122.896 86.554 123.714L86.0431 131.467C85.9826 132.373 85.1961 133.057 84.2887 132.996L84.2558 132.983ZM59.512 77.6128L66.5096 84.9902C67.1347 85.6474 68.1699 85.6743 68.8288 85.0505L68.9027 84.9902L82.3668 70.7653C82.9919 70.1081 82.9583 69.0685 82.2928 68.4448C81.6341 67.821 80.5922 67.8546 79.967 68.5118L67.6927 81.4758L61.8916 75.3593C61.2665 74.7021 60.2313 74.6753 59.5724 75.2923C58.9204 75.9227 58.8936 76.9555 59.512 77.6128ZM71.867 57.326C66.5297 57.326 61.6966 59.4855 58.1946 62.973C54.6924 66.4604 52.5346 71.2825 52.5346 76.6076C52.5346 81.9327 54.6991 86.7548 58.1946 90.2489C61.6968 93.7431 66.523 95.8959 71.867 95.8959C77.2043 95.8959 82.0374 93.7364 85.5328 90.2489C89.035 86.7546 91.1927 81.9394 91.1927 76.6076C91.1927 71.2825 89.0283 66.4604 85.5328 62.973C82.0373 59.4856 77.2043 57.326 71.867 57.326ZM83.2069 65.3001C80.303 62.4028 76.2968 60.6121 71.867 60.6121C67.4373 60.6121 63.431 62.4028 60.5272 65.3001C57.6233 68.1907 55.8285 72.1945 55.8285 76.6141C55.8285 81.0338 57.6233 85.0309 60.5272 87.9281C63.4243 90.8187 67.4373 92.6161 71.867 92.6161C76.2968 92.6161 80.303 90.8254 83.2069 87.9281C86.1108 85.0309 87.8989 81.0338 87.8989 76.6141C87.8989 72.1945 86.1041 68.1907 83.2069 65.3001ZM124.567 25.0405C124.412 24.5576 124.029 24.1485 123.505 23.9809C122.638 23.7059 121.717 24.1821 121.441 25.0405L117.26 37.9507L103.776 37.9239C103.225 37.8837 102.674 38.1184 102.324 38.6013C101.793 39.3323 101.954 40.3584 102.694 40.8949L113.711 48.8489L109.483 61.7458H109.49C109.335 62.2287 109.402 62.7719 109.725 63.2145C110.256 63.9456 111.284 64.1065 112.017 63.5767L123.007 55.5756L133.897 63.5029C134.32 63.8583 134.912 63.9992 135.477 63.8181C136.337 63.5364 136.814 62.6109 136.532 61.7525L132.304 48.8556L143.321 40.9016C143.731 40.5998 144 40.1169 144 39.5737C144 38.6683 143.267 37.9373 142.36 37.9373L128.755 37.9641L124.567 25.0405ZM125.985 40.0902L123.007 30.8752L120.029 40.0902C119.814 40.7474 119.196 41.2236 118.463 41.2236L108.75 41.2035L116.615 46.884C117.173 47.2931 117.442 48.0241 117.213 48.7216L114.188 57.9299L122.013 52.2359C122.57 51.8134 123.37 51.7866 123.969 52.2158L131.813 57.9231L128.808 48.7552C128.573 48.0846 128.788 47.3133 129.393 46.8773L137.258 41.1968L127.625 41.2169C126.906 41.2638 126.22 40.8145 125.985 40.0902ZM22.5552 25.0405C22.4006 24.5576 22.0174 24.1485 21.4931 23.9809C20.626 23.7059 19.705 24.1754 19.4295 25.0405L15.2551 37.9507L1.77091 37.9239C1.21299 37.8837 0.655064 38.1251 0.312242 38.5946C-0.218787 39.3323 -0.0574598 40.3583 0.681943 40.8882L11.6992 48.8422L7.47111 61.7391H7.47783C7.32322 62.2219 7.39044 62.7652 7.7131 63.2078C8.24413 63.9388 9.27259 64.0998 10.0052 63.57L20.9956 55.5689L31.8852 63.4962C32.3019 63.8516 32.9002 63.9924 33.4581 63.8114C34.3252 63.5297 34.7958 62.6042 34.5134 61.7458L30.2854 48.8489L41.3026 40.8882C41.7126 40.5931 41.9815 40.1035 41.9815 39.5603C41.9815 38.6549 41.2488 37.9239 40.3414 37.9239L26.7362 37.9507L22.5552 25.0405ZM23.9668 40.0902C24.202 40.8078 24.8877 41.2638 25.6137 41.2236L35.2463 41.2035L27.3816 46.884C26.7767 47.32 26.5616 48.0979 26.7968 48.762L29.8016 57.9299L21.957 52.2225C21.3587 51.7866 20.5656 51.8134 20.001 52.2427L12.1765 57.9366L15.1947 48.7283C15.4232 48.0308 15.1544 47.2998 14.5964 46.8907L6.73175 41.2102L16.4449 41.2303C17.1776 41.2303 17.7961 40.7542 18.0112 40.0969L20.989 30.882L23.9668 40.0902ZM73.5609 1.1509L77.742 14.0678L91.3472 14.041C92.2546 14.041 92.9873 14.772 92.9873 15.6774C92.9873 16.2207 92.7252 16.7035 92.3084 17.0053L81.2912 24.9594L85.5192 37.8562C85.8015 38.7147 85.3243 39.6469 84.4639 39.9218C83.8992 40.1029 83.3077 39.9688 82.8909 39.6066L72.0014 31.6793L61.011 39.6804C60.2783 40.2103 59.2499 40.0493 58.7189 39.3183C58.3962 38.8756 58.329 38.3324 58.4836 37.8495H58.4769L62.705 24.9527L51.6877 16.9986C50.9483 16.4688 50.787 15.436 51.318 14.705C51.6609 14.2289 52.2188 13.9941 52.77 14.0277L66.2542 14.0545L70.4352 1.13757C70.7109 0.279122 71.6385 -0.197041 72.4989 0.07792C73.0232 0.259001 73.4063 0.661306 73.5609 1.1509ZM74.9792 16.2072L71.9946 6.9923L69.0168 16.2072C68.8017 16.8645 68.1832 17.3407 67.4505 17.3407L57.7373 17.3206L65.602 23.0011C66.1599 23.4102 66.4288 24.1412 66.2003 24.8387L63.1821 34.0469L71.0065 28.353C71.5645 27.9305 72.3644 27.9037 72.9626 28.3329L80.8071 34.0402L77.8024 24.8723C77.5671 24.2016 77.7822 23.4304 78.3872 22.9944L86.2519 17.3138L76.6192 17.3339C75.9 17.3742 75.2078 16.9249 74.9792 16.2072ZM67.0339 125.699C72.0148 127.952 77.2982 129.267 82.8775 129.636L83.2875 123.553C83.348 121.829 83.9059 120.488 84.9478 119.542C85.9427 118.637 87.3073 118.168 89.0549 118.127C89.149 118.121 89.2431 118.114 89.3372 118.127L96.3415 118.684C98.0018 118.496 99.2387 117.826 100.059 116.679C100.899 115.505 101.376 113.801 101.491 111.575L99.2253 109.791C99.0371 109.65 98.8758 109.469 98.7548 109.248C98.3313 108.449 98.6338 107.457 99.4337 107.034L101.511 105.921V100.797H101.517C101.517 100.254 101.786 99.7307 102.277 99.4155L108.367 95.5458C108.32 95.4452 108.246 95.3244 108.139 95.1769L107.944 94.9154L100.166 85.3852C99.9245 85.0901 99.7833 84.7146 99.7967 84.3054C99.8371 82.9037 99.8909 81.6496 99.9446 80.429C100.146 75.4862 100.328 71.0867 99.6421 67.103C97.7398 56.0973 88.887 49.7056 78.6894 47.9012C74.5689 47.1701 70.2534 47.1835 66.079 47.9347C61.9114 48.6791 57.8917 50.1546 54.3626 52.361C45.6644 57.8069 40.0044 67.7729 42.7672 82.2522L42.7739 82.2925C43.9368 89.4418 46.3567 93.0902 48.6691 96.5642C50.5311 99.3743 52.3326 102.084 53.4687 106.296C53.5023 106.389 53.5225 106.483 53.5359 106.577C53.7107 107.738 53.6771 109.166 53.4284 110.863C53.2267 112.218 52.8839 113.773 52.3999 115.537C56.9506 119.957 61.8311 123.345 67.0339 125.699Z" fill="#50A42A"/>
</svg>
