<svg width="144" height="142" viewBox="0 0 144 142" fill="none" xmlns="http://www.w3.org/2000/svg">
<path fill-rule="evenodd" clip-rule="evenodd" d="M126.326 97.7664C125.071 96.5122 123.42 95.7318 121.653 95.5582C119.887 95.3846 118.115 95.8285 116.639 96.8143C115.164 97.8001 114.076 99.2668 113.56 100.964C113.045 102.662 113.135 104.486 113.815 106.125C114.494 107.764 115.721 109.116 117.286 109.952C118.852 110.789 120.659 111.056 122.4 110.71C124.14 110.364 125.707 109.425 126.833 108.054C127.959 106.682 128.574 104.963 128.574 103.189C128.576 102.182 128.378 101.184 127.992 100.254C127.606 99.323 127.04 98.4777 126.326 97.7664ZM120.901 91.6895C123.562 91.6894 126.142 92.6117 128.199 94.2993C130.256 95.9868 131.665 98.3352 132.184 100.944C132.703 103.553 132.301 106.262 131.047 108.608C129.792 110.954 127.763 112.792 125.304 113.811C122.845 114.829 120.109 114.963 117.562 114.191C115.015 113.419 112.815 111.788 111.336 109.576C109.857 107.364 109.192 104.708 109.452 102.061C109.713 99.4135 110.884 96.9385 112.766 95.0574C113.834 93.9883 115.102 93.1405 116.498 92.5625C117.893 91.9846 119.39 91.6879 120.901 91.6895ZM101.635 138.162H140.168V130.497C140.159 127.961 139.147 125.531 137.353 123.738C135.559 121.945 133.128 120.934 130.59 120.926H111.211C108.674 120.935 106.244 121.946 104.45 123.739C102.656 125.532 101.644 127.961 101.635 130.497V138.162ZM93.7264 97.7664C92.4719 96.5082 90.8197 95.7238 89.0513 95.5469C87.283 95.37 85.508 95.8115 84.0289 96.7962C82.5498 97.7809 81.4581 99.2479 80.94 100.947C80.4219 102.646 80.5094 104.472 81.1876 106.114C81.8658 107.756 83.0927 109.112 84.6592 109.951C86.2257 110.79 88.0348 111.06 89.7782 110.715C91.5215 110.37 93.0912 109.431 94.2196 108.059C95.348 106.687 95.9654 104.966 95.9664 103.189C95.9684 102.183 95.7715 101.185 95.3871 100.255C95.0028 99.3242 94.4384 98.4786 93.7264 97.7664ZM88.3008 91.6895C90.962 91.6905 93.5406 92.6137 95.5972 94.3018C97.6538 95.9898 99.0612 98.3383 99.5798 100.947C100.098 103.556 99.6959 106.264 98.4411 108.61C97.1862 110.955 95.1565 112.793 92.6978 113.811C90.2391 114.829 87.5034 114.963 84.9568 114.191C82.4101 113.419 80.2101 111.788 78.7315 109.576C77.2529 107.365 76.5871 104.709 76.8476 102.062C77.108 99.4152 78.2786 96.9402 80.16 95.059C81.2272 93.9895 82.4954 93.1414 83.8917 92.5635C85.288 91.9855 86.7847 91.689 88.296 91.6911L88.3008 91.6895ZM75.3136 121.505C77.556 123.963 78.7988 127.17 78.7984 130.497V138.162H97.8032V130.497C97.8028 127.17 99.0456 123.963 101.288 121.505C101.152 121.455 101.016 121.409 100.878 121.364C99.944 121.07 98.9699 120.923 97.9904 120.926H78.6112C77.6312 120.923 76.6565 121.07 75.7216 121.364C75.584 121.409 75.448 121.455 75.3136 121.505ZM61.12 97.7664C59.8655 96.5082 58.2133 95.7238 56.4449 95.5469C54.6766 95.37 52.9016 95.8115 51.4225 96.7962C49.9434 97.7809 48.8517 99.2479 48.3336 100.947C47.8155 102.646 47.903 104.472 48.5812 106.114C49.2594 107.756 50.4863 109.112 52.0528 109.951C53.6193 110.79 55.4284 111.06 57.1717 110.715C58.9151 110.37 60.4848 109.431 61.6132 108.059C62.7416 106.687 63.359 104.966 63.36 103.189C63.362 102.183 63.1651 101.185 62.7807 100.255C62.3964 99.3242 61.832 98.4786 61.12 97.7664ZM55.6944 91.6895C58.3559 91.6894 60.9351 92.6117 62.9925 94.2993C65.05 95.9868 66.4583 98.3352 66.9776 100.944C67.4969 103.553 67.095 106.262 65.8405 108.608C64.5859 110.954 62.5562 112.792 60.0974 113.811C57.6385 114.829 54.9025 114.963 52.3555 114.191C49.8086 113.419 47.6083 111.788 46.1296 109.576C44.6509 107.364 43.9853 104.708 44.2461 102.061C44.5069 99.4135 45.6781 96.9385 47.56 95.0574C48.6272 93.9883 49.8952 93.1405 51.2911 92.5625C52.687 91.9846 54.1834 91.6879 55.6944 91.6895ZM42.72 121.505C44.9624 123.963 46.2052 127.17 46.2048 130.497V138.162H74.9728V130.497C74.964 127.961 73.9522 125.532 72.1583 123.739C70.3643 121.946 67.9338 120.935 65.3968 120.926H46.0096C45.0328 120.923 44.0614 121.071 43.1296 121.364C42.992 121.409 42.856 121.455 42.72 121.505ZM28.5248 97.7664C27.2703 96.5082 25.6181 95.7238 23.8497 95.5469C22.0814 95.37 20.3064 95.8115 18.8273 96.7962C17.3482 97.7809 16.2565 99.2479 15.7384 100.947C15.2203 102.646 15.3078 104.472 15.986 106.114C16.6642 107.756 17.8911 109.112 19.4576 109.951C21.0241 110.79 22.8332 111.06 24.5765 110.715C26.3199 110.37 27.8896 109.431 29.018 108.059C30.1464 106.687 30.7638 104.966 30.7648 103.189C30.7668 102.183 30.5699 101.185 30.1855 100.255C29.8012 99.3242 29.2368 98.4786 28.5248 97.7664ZM23.0992 91.6895C25.7606 91.6898 28.3397 92.6124 30.3968 94.3002C32.454 95.9879 33.862 98.3364 34.381 100.945C34.9001 103.554 34.4979 106.263 33.2432 108.609C31.9885 110.954 29.9587 112.793 27.4998 113.811C25.0409 114.829 22.305 114.963 19.7581 114.191C17.2113 113.418 15.0112 111.787 13.5326 109.576C12.054 107.364 11.3884 104.708 11.6493 102.061C11.9102 99.4134 13.0813 96.9384 14.9632 95.0574C16.0304 93.9879 17.2986 93.1398 18.6949 92.5619C20.0912 91.9839 21.5879 91.6874 23.0992 91.6895ZM34.5168 142H1.92C1.41078 142 0.922425 141.798 0.562355 141.438C0.202285 141.078 0 140.59 0 140.081V130.502C0.00802971 126.95 1.4234 123.545 3.93645 121.033C6.4495 118.522 9.85562 117.107 13.4096 117.099H32.7888C35.111 117.098 37.3932 117.704 39.408 118.858C41.4197 117.712 43.694 117.106 46.0096 117.099H65.3888C67.7116 117.097 69.9943 117.704 72.0096 118.858C74.0213 117.712 76.2956 117.106 78.6112 117.099H97.9904C100.306 117.106 102.58 117.712 104.592 118.858C106.607 117.704 108.889 117.098 111.211 117.099H130.59C134.144 117.107 137.549 118.521 140.062 121.032C142.575 123.543 143.991 126.946 144 130.497V140.081C144 140.59 143.798 141.078 143.438 141.438C143.078 141.798 142.589 142 142.08 142H34.5168ZM3.84 138.162H42.3648V130.497C42.3559 127.961 41.3442 125.532 39.5503 123.739C37.7563 121.946 35.3258 120.935 32.7888 120.926H13.4096C10.8737 120.936 8.44481 121.948 6.65226 123.741C4.8597 125.534 3.84885 127.962 3.84 130.497V138.162ZM80.6112 6.3408C79.2085 4.93813 77.3626 4.06501 75.3879 3.87021C73.4133 3.67542 71.4322 4.17101 69.7822 5.27254C68.1323 6.37406 66.9155 8.01335 66.3392 9.91108C65.763 11.8088 65.8629 13.8475 66.6221 15.6798C67.3812 17.5121 68.7525 19.0247 70.5024 19.9597C72.2522 20.8947 74.2723 21.1943 76.2184 20.8074C78.1645 20.4206 79.9162 19.3712 81.1749 17.8382C82.4337 16.3052 83.1217 14.3833 83.1216 12.4001C83.123 11.2747 82.9019 10.16 82.4711 9.12019C82.0403 8.08036 81.4082 7.13582 80.6112 6.3408ZM74.5488 1.30044e-05C77.4195 -0.000440672 80.2015 0.993993 82.4209 2.81387C84.6402 4.63375 86.1595 7.16647 86.72 9.98049C87.2804 12.7945 86.8473 15.7157 85.4945 18.2463C84.1416 20.7769 81.9527 22.7604 79.3007 23.8588C76.6486 24.9571 73.6976 25.1024 70.9504 24.2699C68.2033 23.4373 65.8299 21.6785 64.2347 19.293C62.6396 16.9075 61.9213 14.043 62.2024 11.1876C62.4834 8.33215 63.7463 5.66245 65.776 3.63337C66.9264 2.47958 68.2938 1.56457 69.7994 0.94101C71.305 0.31745 72.9191 -0.0023504 74.5488 1.30044e-05ZM103.989 54.6683H45.1088V65.1861H103.989V54.6683ZM53.2928 50.8302H60.7328V48.86C60.7328 48.3511 60.9351 47.863 61.2952 47.5031C61.6552 47.1432 62.1436 46.941 62.6528 46.941C63.162 46.941 63.6504 47.1432 64.0104 47.5031C64.3705 47.863 64.5728 48.3511 64.5728 48.86V50.8366H84.5312V48.86C84.5143 48.5981 84.5512 48.3356 84.6399 48.0885C84.7285 47.8415 84.8669 47.6152 85.0464 47.4238C85.226 47.2323 85.443 47.0797 85.6839 46.9754C85.9249 46.871 86.1846 46.8172 86.4472 46.8172C86.7098 46.8172 86.9696 46.871 87.2105 46.9754C87.4514 47.0797 87.6684 47.2323 87.848 47.4238C88.0275 47.6152 88.1659 47.8415 88.2545 48.0885C88.3432 48.3356 88.3801 48.5981 88.3632 48.86V50.8366H95.8048V42.273C95.7955 39.4511 94.6699 36.7475 92.6735 34.7521C90.6771 32.7567 87.9721 31.6316 85.1488 31.6224H63.9488C61.1255 31.6316 58.4205 32.7567 56.4241 34.7521C54.4277 36.7475 53.3021 39.4511 53.2928 42.273V50.8366V50.8302ZM27.0528 69.2481C26.5436 69.2481 26.0552 69.0459 25.6952 68.686C25.3351 68.3261 25.1328 67.838 25.1328 67.3291C25.1328 66.8201 25.3351 66.332 25.6952 65.9721C26.0552 65.6122 26.5436 65.41 27.0528 65.41H30.5008V36.0137C30.5004 35.7621 30.5498 35.5129 30.6462 35.2804C30.7426 35.048 30.884 34.8368 31.0624 34.6592L47.5424 18.1876C47.9085 17.8632 48.3847 17.6907 48.8738 17.7053C49.3628 17.72 49.8278 17.9208 50.1738 18.2665C50.5198 18.6123 50.7206 19.0771 50.7353 19.5659C50.75 20.0547 50.5774 20.5307 50.2528 20.8966L34.336 36.8069V65.4228H41.28V52.7525C41.28 52.5004 41.3297 52.2509 41.4262 52.0181C41.5226 51.7852 41.6641 51.5737 41.8424 51.3955C42.0206 51.2173 42.2323 51.076 42.4652 50.9795C42.6982 50.8831 42.9479 50.8334 43.2 50.8334H49.4672V42.273C49.4773 38.4352 51.0072 34.7574 53.7223 32.0437C56.4374 29.3299 60.117 27.8008 63.9568 27.7907H85.1568C88.9963 27.8013 92.6755 29.3305 95.3903 32.0442C98.1051 34.7579 99.6347 38.4354 99.6448 42.273V50.8366H105.914C106.423 50.8366 106.911 51.0388 107.271 51.3987C107.631 51.7586 107.834 52.2467 107.834 52.7557V65.426H116.954C117.463 65.426 117.951 65.6282 118.311 65.9881C118.671 66.348 118.874 66.8361 118.874 67.3451C118.874 67.854 118.671 68.3421 118.311 68.702C117.951 69.0619 117.463 69.2641 116.954 69.2641H27.0544L27.0528 69.2481Z" fill="#50A42A"/>
</svg>
