<svg width="431" height="440" viewBox="0 0 431 440" fill="none" xmlns="http://www.w3.org/2000/svg">
<path d="M428.566 160.711C426.963 140.789 426.785 123.146 418.687 104.276C412.185 89.1237 404.958 73.7927 395.043 60.5257C364.768 20.0197 317.373 1.96439 268.026 0.125258C187.115 -2.89008 108.345 48.8105 81.2958 125.529C76.928 137.919 69.7404 148.36 61.6098 158.198C60.7641 157.686 60.2802 156.31 60.2793 153.931C60.2775 132.754 36.3467 156.434 32.5968 162.203C-15.925 236.834 -5.48337 359.548 75.3826 407.263C108.591 426.858 145.393 436.27 183.585 439.328C218.322 442.11 255.95 436.868 282.157 411.896C304.85 390.274 312.593 358.165 331.562 334.402C330.042 337.421 326.211 346.054 326.269 356.252C326.342 368.966 358.415 363.864 391.217 307.736C421.99 255.079 432.232 206.272 428.566 160.711Z" fill="#92E3A9"/>
<path opacity="0.7" d="M428.566 160.711C426.963 140.789 426.785 123.146 418.687 104.276C412.185 89.1237 404.958 73.7927 395.043 60.5257C364.768 20.0197 317.373 1.96439 268.026 0.125258C187.115 -2.89008 108.345 48.8105 81.2958 125.529C76.928 137.919 69.7404 148.36 61.6098 158.198C60.7641 157.686 60.2802 156.31 60.2793 153.931C60.2775 132.754 36.3467 156.434 32.5968 162.203C-15.925 236.834 -5.48337 359.548 75.3826 407.263C108.591 426.858 145.393 436.27 183.585 439.328C218.322 442.11 255.95 436.868 282.157 411.896C304.85 390.274 312.593 358.165 331.562 334.402C330.042 337.421 326.211 346.054 326.269 356.252C326.342 368.966 358.415 363.864 391.217 307.736C421.99 255.079 432.232 206.272 428.566 160.711Z" fill="white"/>
<path d="M399.075 338.219C399.141 338.25 399.788 333.464 399.794 333.158C399.865 329.609 397.917 322.71 394.157 321.416C391.451 320.483 388.764 322.311 388.136 324.986C387.494 327.718 389.084 330.787 390.779 332.827C392.766 335.222 399.071 338.216 399.075 338.219Z" fill="#263238"/>
<path d="M328.815 345.027C331.794 345.928 338.704 344.948 338.71 344.947C338.781 344.937 336.682 340.589 336.518 340.33C334.619 337.331 329.188 332.652 325.339 333.645C322.566 334.362 321.335 337.368 322.286 339.946C323.258 342.577 326.277 344.26 328.815 345.027Z" fill="#263238"/>
<path d="M364.608 398.628C365.273 399.861 365.94 401.095 366.528 402.32C366.911 403.166 367.338 403.953 367.675 404.824C368.028 405.679 368.376 406.525 368.721 407.363C369.326 409.001 369.96 410.689 370.51 412.302C370.901 413.42 371.254 414.495 371.611 415.575C370.894 414.396 369.442 412.117 369.299 411.94C367.069 409.179 361.136 405.155 357.426 406.584C354.754 407.615 353.875 410.742 355.118 413.194C356.386 415.697 359.578 417.022 362.188 417.493C365.06 418.01 371.105 416.506 371.86 416.313C372.446 418.103 372.999 419.85 373.494 421.506C374.381 424.448 375.131 427.144 375.761 429.537H378.4C377.671 426.97 376.793 424.035 375.742 420.804C375.155 418.984 374.491 417.05 373.79 415.071C374.229 414.833 376.721 413.464 378.886 411.892C381.166 413.839 386.648 415.784 387.356 416.031C386.858 417.847 386.355 419.609 385.854 421.264C384.931 424.342 384.03 427.116 383.205 429.537H385.871C386.581 427.261 387.341 424.721 388.117 421.917C388.631 420.075 389.143 418.097 389.65 416.059C390.411 416.126 396.633 416.638 399.388 415.662C401.887 414.777 404.824 412.954 405.672 410.279C406.502 407.66 405.13 404.714 402.327 404.129C398.435 403.318 393.229 408.245 391.474 411.331C391.37 411.512 390.467 413.612 389.919 414.947C390.122 414.114 390.328 413.307 390.526 412.447C390.93 410.748 391.283 409.042 391.669 407.206C391.824 406.314 391.981 405.411 392.14 404.501C392.316 403.601 392.389 402.628 392.518 401.683C392.773 399.487 392.924 397.247 393.026 394.989C394.515 395.338 399.818 396.505 402.435 396.005C405.038 395.508 408.219 394.152 409.461 391.636C410.678 389.173 409.769 386.054 407.086 385.05C403.363 383.658 397.47 387.741 395.268 390.524C395.13 390.698 393.775 392.873 393.052 394.082C393.103 392.724 393.16 391.368 393.168 389.993C393.189 386.022 393.085 382.001 393.001 377.989C392.974 376.76 392.962 375.536 392.945 374.31C393.473 374.44 399.747 375.963 402.677 375.404C405.281 374.908 408.461 373.551 409.704 371.035C410.921 368.571 410.012 365.452 407.33 364.45C403.607 363.058 397.714 367.141 395.511 369.924C395.345 370.133 393.398 373.266 392.943 374.087C392.908 371.387 392.898 368.696 392.995 366.044C393.125 362.383 393.454 358.797 394.031 355.348C394.277 355.41 400.817 357.028 403.819 356.456C406.423 355.959 409.602 354.603 410.846 352.086C412.062 349.624 411.153 346.504 408.47 345.501C404.747 344.109 398.854 348.191 396.651 350.975C396.507 351.158 395.021 353.542 394.342 354.693C394.224 354.649 394.246 354.657 394.129 354.613C394.791 350.926 395.897 347.437 397.092 344.223C397.781 342.36 398.544 340.617 399.324 338.939C400.511 339.365 405.959 341.253 408.716 341.037C411.36 340.829 414.669 339.83 416.181 337.466C417.661 335.15 417.1 331.95 414.544 330.659C410.996 328.866 404.691 332.278 402.196 334.802C402.06 334.94 400.835 336.488 399.959 337.628C400.323 336.876 400.685 336.093 401.048 335.379C402.403 332.696 403.809 330.322 405.072 328.231C405.8 327.047 406.481 325.991 407.129 325.01C408.512 324.82 414.078 323.986 416.383 322.55C418.633 321.148 421.11 318.736 421.362 315.941C421.608 313.204 419.635 310.622 416.772 310.655C412.797 310.699 408.772 316.632 407.721 320.022C407.631 320.315 406.737 325.06 406.809 325.051C406.809 325.051 406.876 325.042 406.893 325.04C406.25 325.972 405.572 326.977 404.853 328.093C403.542 330.162 402.081 332.51 400.661 335.175C399.236 337.833 397.762 340.762 396.489 343.987C395.208 347.217 394.025 350.681 393.269 354.407C393.259 354.45 393.257 354.495 393.248 354.537C393.131 353.378 392.695 350.15 392.633 349.905C391.765 346.464 388.063 340.324 384.096 340.068C381.238 339.884 379.13 342.356 379.23 345.102C379.333 347.907 381.677 350.447 383.849 351.968C386.299 353.682 392.673 354.867 393.18 354.959C392.492 358.514 392.075 362.219 391.858 365.991C391.732 368.147 391.673 370.323 391.641 372.506C391.508 371.508 391.38 370.615 391.349 370.492C390.48 367.051 386.779 360.911 382.812 360.655C379.954 360.47 377.847 362.943 377.947 365.689C378.049 368.493 380.394 371.034 382.565 372.554C384.769 374.097 390.184 375.216 391.62 375.494C391.617 376.331 391.604 377.167 391.604 378.004C391.601 382.021 391.617 386.031 391.511 389.963C391.474 391.35 391.387 392.713 391.306 394.078C391.185 393.191 391.078 392.445 391.049 392.333C390.181 388.892 386.48 382.752 382.512 382.497C379.654 382.312 377.546 384.785 377.647 387.53C377.749 390.334 380.094 392.874 382.266 394.395C384.37 395.867 389.357 396.944 391.063 397.282C390.936 398.677 390.813 400.074 390.628 401.421C390.48 402.337 390.402 403.229 390.204 404.141C390.026 405.048 389.849 405.945 389.675 406.835C389.275 408.536 388.874 410.293 388.444 411.942C388.152 413.092 387.854 414.181 387.556 415.28C387.609 413.9 387.654 411.198 387.633 410.972C387.409 408.624 386.124 404.916 384.152 402.437C384.121 402.09 384.059 401.747 383.965 401.411C383.212 398.769 380.442 397.069 377.782 398.128C374.088 399.597 372.464 406.58 372.702 410.121C372.716 410.33 373.122 412.579 373.401 413.995C373.11 413.188 372.837 412.401 372.528 411.575C371.927 409.935 371.28 408.317 370.589 406.573C370.227 405.743 369.859 404.904 369.489 404.057C369.14 403.208 368.663 402.358 368.251 401.498C367.251 399.525 366.142 397.574 364.981 395.633C366.415 395.103 371.482 393.15 373.389 391.291C375.287 389.441 377.19 386.555 376.839 383.771C376.495 381.045 374.017 378.945 371.226 379.588C367.352 380.481 364.69 387.137 364.388 390.674C364.369 390.895 364.437 393.457 364.503 394.864C363.796 393.702 363.096 392.54 362.343 391.389C360.169 388.065 357.865 384.769 355.581 381.47C354.881 380.46 354.196 379.445 353.505 378.432C354.018 378.249 360.091 376.057 362.226 373.975C364.124 372.124 366.029 369.238 365.677 366.454C365.333 363.728 362.854 361.628 360.063 362.272C356.189 363.164 353.527 369.821 353.225 373.358C353.202 373.624 353.307 377.311 353.38 378.246C351.861 376.014 350.368 373.776 348.986 371.509C347.074 368.383 345.372 365.212 343.951 362.016C344.189 361.932 350.538 359.673 352.725 357.54C354.623 355.69 356.526 352.804 356.176 350.02C355.831 347.294 353.352 345.194 350.562 345.838C346.688 346.731 344.025 353.387 343.724 356.923C343.704 357.155 343.781 359.966 343.849 361.301C343.728 361.329 343.75 361.324 343.628 361.352C342.145 357.91 341.142 354.391 340.366 351.049C339.913 349.115 339.587 347.24 339.312 345.41C340.538 345.111 346.123 343.681 348.304 341.979C350.394 340.347 352.603 337.689 352.56 334.883C352.517 332.136 350.283 329.776 347.439 330.109C343.491 330.571 340.115 336.895 339.426 340.377C339.388 340.567 339.221 342.534 339.119 343.968C339.008 343.141 338.878 342.288 338.787 341.493C338.437 338.507 338.301 335.752 338.2 333.31C338.154 331.921 338.14 330.665 338.14 329.489C339.189 328.567 343.37 324.802 344.501 322.332C345.603 319.921 346.339 316.543 345.008 314.074C343.704 311.655 340.634 310.59 338.263 312.196C334.972 314.426 334.888 321.594 335.882 325.002C335.968 325.297 337.84 329.747 337.895 329.701C337.895 329.701 337.947 329.656 337.959 329.646C337.937 330.777 337.926 331.991 337.942 333.316C337.99 335.764 338.066 338.531 338.353 341.536C338.631 344.54 339.016 347.795 339.734 351.187C340.448 354.588 341.372 358.13 342.797 361.656C342.813 361.695 342.834 361.735 342.851 361.774C342.114 360.872 339.969 358.42 339.783 358.25C337.16 355.859 330.686 352.78 327.236 354.754C324.75 356.178 324.357 359.402 325.955 361.637C327.588 363.92 330.945 364.745 333.594 364.815C336.583 364.894 342.553 362.366 343.028 362.163C344.415 365.508 346.111 368.828 348.012 372.094C349.096 373.962 350.247 375.81 351.424 377.648C350.762 376.888 350.164 376.214 350.07 376.129C347.447 373.737 340.972 370.659 337.523 372.633C335.038 374.056 334.644 377.28 336.243 379.515C337.875 381.798 341.232 382.623 343.882 382.694C346.571 382.765 351.704 380.712 353.056 380.15C353.515 380.85 353.965 381.555 354.426 382.253C356.641 385.606 358.866 388.941 360.946 392.28C361.681 393.456 362.36 394.641 363.045 395.825C362.456 395.151 361.955 394.589 361.869 394.511C359.246 392.12 352.772 389.041 349.322 391.016C346.837 392.439 346.443 395.663 348.041 397.898C349.674 400.181 353.031 401.006 355.681 401.076C358.244 401.141 363 399.288 364.608 398.628Z" fill="#263238"/>
<path opacity="0.3" d="M328.815 345.027C331.794 345.928 338.704 344.948 338.71 344.947C338.781 344.937 336.682 340.589 336.518 340.33C334.619 337.331 329.188 332.652 325.339 333.645C322.566 334.362 321.335 337.368 322.286 339.946C323.258 342.577 326.277 344.26 328.815 345.027Z" fill="#263238"/>
<path opacity="0.3" d="M399.075 338.219C399.141 338.25 399.788 333.464 399.794 333.158C399.865 329.609 397.917 322.71 394.157 321.416C391.451 320.483 388.764 322.311 388.136 324.986C387.494 327.718 389.084 330.787 390.779 332.827C392.766 335.222 399.071 338.216 399.075 338.219Z" fill="#263238"/>
<path opacity="0.3" d="M364.608 398.628C365.273 399.861 365.94 401.095 366.528 402.32C366.911 403.166 367.338 403.953 367.675 404.824C368.028 405.679 368.376 406.525 368.721 407.363C369.326 409.001 369.96 410.689 370.51 412.302C370.901 413.42 371.254 414.495 371.611 415.575C370.894 414.396 369.442 412.117 369.299 411.94C367.069 409.179 361.136 405.155 357.426 406.584C354.754 407.615 353.875 410.742 355.118 413.194C356.386 415.697 359.578 417.022 362.188 417.493C365.06 418.01 371.105 416.506 371.86 416.313C372.446 418.103 372.999 419.85 373.494 421.506C374.381 424.448 375.131 427.144 375.761 429.537H378.4C377.671 426.97 376.793 424.035 375.742 420.804C375.155 418.984 374.491 417.05 373.79 415.071C374.229 414.833 376.721 413.464 378.886 411.892C381.166 413.839 386.648 415.784 387.356 416.031C386.858 417.847 386.355 419.609 385.854 421.264C384.931 424.342 384.03 427.116 383.205 429.537H385.871C386.581 427.261 387.341 424.721 388.117 421.917C388.631 420.075 389.143 418.097 389.65 416.059C390.411 416.126 396.633 416.638 399.388 415.662C401.887 414.777 404.824 412.954 405.672 410.279C406.502 407.66 405.13 404.714 402.327 404.129C398.435 403.318 393.229 408.245 391.474 411.331C391.37 411.512 390.467 413.612 389.919 414.947C390.122 414.114 390.328 413.307 390.526 412.447C390.93 410.748 391.283 409.042 391.669 407.206C391.824 406.314 391.981 405.411 392.14 404.501C392.316 403.601 392.389 402.628 392.518 401.683C392.773 399.487 392.924 397.247 393.026 394.989C394.515 395.338 399.818 396.505 402.435 396.005C405.038 395.508 408.219 394.152 409.461 391.636C410.678 389.173 409.769 386.054 407.086 385.05C403.363 383.658 397.47 387.741 395.268 390.524C395.13 390.698 393.775 392.873 393.052 394.082C393.103 392.724 393.16 391.368 393.168 389.993C393.189 386.022 393.085 382.001 393.001 377.989C392.974 376.76 392.962 375.536 392.945 374.31C393.473 374.44 399.747 375.963 402.677 375.404C405.281 374.908 408.461 373.551 409.704 371.035C410.921 368.571 410.012 365.452 407.33 364.45C403.607 363.058 397.714 367.141 395.511 369.924C395.345 370.133 393.398 373.266 392.943 374.087C392.908 371.387 392.898 368.696 392.995 366.044C393.125 362.383 393.454 358.797 394.031 355.348C394.277 355.41 400.817 357.028 403.819 356.456C406.423 355.959 409.602 354.603 410.846 352.086C412.062 349.624 411.153 346.504 408.47 345.501C404.747 344.109 398.854 348.191 396.651 350.975C396.507 351.158 395.021 353.542 394.342 354.693C394.224 354.649 394.246 354.657 394.129 354.613C394.791 350.926 395.897 347.437 397.092 344.223C397.781 342.36 398.544 340.617 399.324 338.939C400.511 339.365 405.959 341.253 408.716 341.037C411.36 340.829 414.669 339.83 416.181 337.466C417.661 335.15 417.1 331.95 414.544 330.659C410.996 328.866 404.691 332.278 402.196 334.802C402.06 334.94 400.835 336.488 399.959 337.628C400.323 336.876 400.685 336.093 401.048 335.379C402.403 332.696 403.809 330.322 405.072 328.231C405.8 327.047 406.481 325.991 407.129 325.01C408.512 324.82 414.078 323.986 416.383 322.55C418.633 321.148 421.11 318.736 421.362 315.941C421.608 313.204 419.635 310.622 416.772 310.655C412.797 310.699 408.772 316.632 407.721 320.022C407.631 320.315 406.737 325.06 406.809 325.051C406.809 325.051 406.876 325.042 406.893 325.04C406.25 325.972 405.572 326.977 404.853 328.093C403.542 330.162 402.081 332.51 400.661 335.175C399.236 337.833 397.762 340.762 396.489 343.987C395.208 347.217 394.025 350.681 393.269 354.407C393.259 354.45 393.257 354.495 393.248 354.537C393.131 353.378 392.695 350.15 392.633 349.905C391.765 346.464 388.063 340.324 384.096 340.068C381.238 339.884 379.13 342.356 379.23 345.102C379.333 347.907 381.677 350.447 383.849 351.968C386.299 353.682 392.673 354.867 393.18 354.959C392.492 358.514 392.075 362.219 391.858 365.991C391.732 368.147 391.673 370.323 391.641 372.506C391.508 371.508 391.38 370.615 391.349 370.492C390.48 367.051 386.779 360.911 382.812 360.655C379.954 360.47 377.847 362.943 377.947 365.689C378.049 368.493 380.394 371.034 382.565 372.554C384.769 374.097 390.184 375.216 391.62 375.494C391.617 376.331 391.604 377.167 391.604 378.004C391.601 382.021 391.617 386.031 391.511 389.963C391.474 391.35 391.387 392.713 391.306 394.078C391.185 393.191 391.078 392.445 391.049 392.333C390.181 388.892 386.48 382.752 382.512 382.497C379.654 382.312 377.546 384.785 377.647 387.53C377.749 390.334 380.094 392.874 382.266 394.395C384.37 395.867 389.357 396.944 391.063 397.282C390.936 398.677 390.813 400.074 390.628 401.421C390.48 402.337 390.402 403.229 390.204 404.141C390.026 405.048 389.849 405.945 389.675 406.835C389.275 408.536 388.874 410.293 388.444 411.942C388.152 413.092 387.854 414.181 387.556 415.28C387.609 413.9 387.654 411.198 387.633 410.972C387.409 408.624 386.124 404.916 384.152 402.437C384.121 402.09 384.059 401.747 383.965 401.411C383.212 398.769 380.442 397.069 377.782 398.128C374.088 399.597 372.464 406.58 372.702 410.121C372.716 410.33 373.122 412.579 373.401 413.995C373.11 413.188 372.837 412.401 372.528 411.575C371.927 409.935 371.28 408.317 370.589 406.573C370.227 405.743 369.859 404.904 369.489 404.057C369.14 403.208 368.663 402.358 368.251 401.498C367.251 399.525 366.142 397.574 364.981 395.633C366.415 395.103 371.482 393.15 373.389 391.291C375.287 389.441 377.19 386.555 376.839 383.771C376.495 381.045 374.017 378.945 371.226 379.588C367.352 380.481 364.69 387.137 364.388 390.674C364.369 390.895 364.437 393.457 364.503 394.864C363.796 393.702 363.096 392.54 362.343 391.389C360.169 388.065 357.865 384.769 355.581 381.47C354.881 380.46 354.196 379.445 353.505 378.432C354.018 378.249 360.091 376.057 362.226 373.975C364.124 372.124 366.029 369.238 365.677 366.454C365.333 363.728 362.854 361.628 360.063 362.272C356.189 363.164 353.527 369.821 353.225 373.358C353.202 373.624 353.307 377.311 353.38 378.246C351.861 376.014 350.368 373.776 348.986 371.509C347.074 368.383 345.372 365.212 343.951 362.016C344.189 361.932 350.538 359.673 352.725 357.54C354.623 355.69 356.526 352.804 356.176 350.02C355.831 347.294 353.352 345.194 350.562 345.838C346.688 346.731 344.025 353.387 343.724 356.923C343.704 357.155 343.781 359.966 343.849 361.301C343.728 361.329 343.75 361.324 343.628 361.352C342.145 357.91 341.142 354.391 340.366 351.049C339.913 349.115 339.587 347.24 339.312 345.41C340.538 345.111 346.123 343.681 348.304 341.979C350.394 340.347 352.603 337.689 352.56 334.883C352.517 332.136 350.283 329.776 347.439 330.109C343.491 330.571 340.115 336.895 339.426 340.377C339.388 340.567 339.221 342.534 339.119 343.968C339.008 343.141 338.878 342.288 338.787 341.493C338.437 338.507 338.301 335.752 338.2 333.31C338.154 331.921 338.14 330.665 338.14 329.489C339.189 328.567 343.37 324.802 344.501 322.332C345.603 319.921 346.339 316.543 345.008 314.074C343.704 311.655 340.634 310.59 338.263 312.196C334.972 314.426 334.888 321.594 335.882 325.002C335.968 325.297 337.84 329.747 337.895 329.701C337.895 329.701 337.947 329.656 337.959 329.646C337.937 330.777 337.926 331.991 337.942 333.316C337.99 335.764 338.066 338.531 338.353 341.536C338.631 344.54 339.016 347.795 339.734 351.187C340.448 354.588 341.372 358.13 342.797 361.656C342.813 361.695 342.834 361.735 342.851 361.774C342.114 360.872 339.969 358.42 339.783 358.25C337.16 355.859 330.686 352.78 327.236 354.754C324.75 356.178 324.357 359.402 325.955 361.637C327.588 363.92 330.945 364.745 333.594 364.815C336.583 364.894 342.553 362.366 343.028 362.163C344.415 365.508 346.111 368.828 348.012 372.094C349.096 373.962 350.247 375.81 351.424 377.648C350.762 376.888 350.164 376.214 350.07 376.129C347.447 373.737 340.972 370.659 337.523 372.633C335.038 374.056 334.644 377.28 336.243 379.515C337.875 381.798 341.232 382.623 343.882 382.694C346.571 382.765 351.704 380.712 353.056 380.15C353.515 380.85 353.965 381.555 354.426 382.253C356.641 385.606 358.866 388.941 360.946 392.28C361.681 393.456 362.36 394.641 363.045 395.825C362.456 395.151 361.955 394.589 361.869 394.511C359.246 392.12 352.772 389.041 349.322 391.016C346.837 392.439 346.443 395.663 348.041 397.898C349.674 400.181 353.031 401.006 355.681 401.076C358.244 401.141 363 399.288 364.608 398.628Z" fill="#263238"/>
<path d="M83.7539 375.328C83.7934 375.346 84.1772 372.505 84.1809 372.323C84.2231 370.217 83.0662 366.121 80.835 365.353C79.2282 364.8 77.6333 365.885 77.2605 367.473C76.8794 369.094 77.8233 370.916 78.8287 372.127C80.0086 373.548 83.7512 375.326 83.7539 375.328Z" fill="#263238"/>
<path d="M42.0441 379.369C43.8125 379.903 47.915 379.322 47.9178 379.321C47.96 379.314 46.714 376.733 46.6167 376.579C45.4891 374.799 42.2654 372.021 39.98 372.611C38.3337 373.036 37.6028 374.821 38.1675 376.35C38.746 377.914 40.5383 378.913 42.0441 379.369Z" fill="#263238"/>
<path d="M63.2929 411.188C63.6877 411.92 64.0844 412.653 64.4333 413.38C64.6601 413.882 64.9144 414.35 65.1136 414.866C65.323 415.374 65.5296 415.876 65.7343 416.374C66.0934 417.346 66.4698 418.348 66.7967 419.305C67.029 419.969 67.2374 420.607 67.4505 421.248C67.0253 420.548 66.1622 419.195 66.0778 419.09C64.7537 417.451 61.2315 415.062 59.0297 415.911C57.444 416.522 56.9225 418.379 57.6589 419.834C58.4118 421.32 60.3069 422.107 61.8559 422.386C63.561 422.693 67.1502 421.8 67.5974 421.685C67.9444 422.748 68.2731 423.785 68.567 424.769C69.094 426.515 69.5384 428.115 69.913 429.536H71.4795C71.0461 428.012 70.5255 426.269 69.9011 424.351C69.5522 423.27 69.1583 422.122 68.7423 420.948C69.0031 420.807 70.4823 419.993 71.7678 419.06C73.1212 420.216 76.3753 421.371 76.7967 421.517C76.5001 422.595 76.2017 423.641 75.9052 424.623C75.357 426.452 74.8217 428.098 74.3332 429.536H75.9153C76.3376 428.185 76.7885 426.677 77.2485 425.012C77.5533 423.918 77.8581 422.744 78.1593 421.535C78.6111 421.574 82.305 421.878 83.9403 421.299C85.4231 420.773 87.1668 419.691 87.6709 418.103C88.1639 416.549 87.3495 414.8 85.6848 414.453C83.3746 413.971 80.284 416.896 79.2428 418.728C79.1813 418.836 78.645 420.082 78.32 420.874C78.4403 420.38 78.5624 419.901 78.6808 419.39C78.9205 418.382 79.1298 417.368 79.3594 416.278C79.4521 415.748 79.5449 415.213 79.6385 414.672C79.7432 414.138 79.7864 413.56 79.8635 412.999C80.0141 411.695 80.104 410.366 80.1646 409.025C81.0479 409.233 84.1964 409.925 85.75 409.629C87.2953 409.334 89.1831 408.528 89.9213 407.035C90.644 405.572 90.1041 403.721 88.5119 403.125C86.3018 402.299 82.8035 404.723 81.496 406.374C81.4143 406.477 80.61 407.768 80.1812 408.486C80.2115 407.68 80.2454 406.875 80.25 406.059C80.2629 403.701 80.2014 401.314 80.1509 398.932C80.1353 398.203 80.1279 397.476 80.1187 396.748C80.4318 396.825 84.1569 397.729 85.896 397.397C87.4422 397.103 89.3291 396.297 90.0673 394.803C90.79 393.341 90.2501 391.49 88.6579 390.894C86.4478 390.067 82.9495 392.491 81.642 394.143C81.5438 394.267 80.3878 396.127 80.1169 396.614C80.0958 395.012 80.0903 393.414 80.1481 391.839C80.2252 389.666 80.4208 387.538 80.7633 385.49C80.9093 385.527 84.7923 386.487 86.5736 386.148C88.1199 385.853 90.0067 385.048 90.745 383.554C91.4676 382.092 90.9277 380.24 89.3355 379.644C87.1255 378.818 83.6271 381.242 82.3196 382.894C82.2342 383.002 81.3528 384.417 80.9488 385.101C80.879 385.074 80.8919 385.08 80.8221 385.053C81.2151 382.864 81.8716 380.793 82.5813 378.885C82.9899 377.779 83.4435 376.744 83.9063 375.748C84.6114 376.001 87.8444 377.122 89.4815 376.993C91.0507 376.87 93.0147 376.277 93.9127 374.873C94.7914 373.499 94.4581 371.599 92.9404 370.832C90.834 369.768 87.0915 371.794 85.6104 373.291C85.5296 373.373 84.8024 374.292 84.2827 374.969C84.4985 374.522 84.7134 374.058 84.9291 373.634C85.7335 372.04 86.569 370.632 87.3183 369.391C87.7507 368.688 88.1547 368.061 88.5395 367.479C89.3612 367.367 92.664 366.871 94.033 366.019C95.3681 365.187 96.839 363.755 96.9887 362.096C97.1347 360.471 95.964 358.939 94.2644 358.957C91.9046 358.984 89.5155 362.505 88.8921 364.519C88.8388 364.692 88.3072 367.509 88.3503 367.505C88.3503 367.505 88.3898 367.499 88.3999 367.498C88.0179 368.052 87.6158 368.649 87.1888 369.311C86.4111 370.538 85.5425 371.933 84.7005 373.514C83.8549 375.093 82.9798 376.831 82.2241 378.745C81.4639 380.663 80.7615 382.719 80.3125 384.931C80.307 384.956 80.3051 384.983 80.3005 385.008C80.2308 384.32 79.9718 382.403 79.9351 382.258C79.4191 380.215 77.2228 376.571 74.8676 376.418C73.1708 376.309 71.9202 377.777 71.9799 379.407C72.0414 381.072 73.4325 382.58 74.7216 383.482C76.176 384.499 79.959 385.204 80.2611 385.258C79.8525 387.369 79.6045 389.568 79.476 391.807C79.4016 393.087 79.3658 394.379 79.3465 395.675C79.2676 395.082 79.1923 394.553 79.1739 394.479C78.6579 392.436 76.4607 388.792 74.1064 388.64C72.4096 388.53 71.159 389.998 71.2178 391.628C71.2784 393.293 72.6704 394.801 73.9595 395.703C75.2679 396.619 78.4816 397.283 79.3346 397.448C79.3328 397.944 79.3245 398.441 79.3245 398.938C79.3227 401.323 79.3318 403.703 79.2694 406.037C79.2474 406.86 79.196 407.67 79.1473 408.48C79.0766 407.954 79.0123 407.51 78.9958 407.444C78.4798 405.401 76.2825 401.757 73.9274 401.604C72.2306 401.495 70.98 402.962 71.0397 404.593C71.1003 406.258 72.4922 407.765 73.7814 408.668C75.0301 409.542 77.9913 410.182 79.004 410.382C78.9288 411.211 78.8553 412.04 78.7451 412.839C78.6579 413.382 78.6111 413.912 78.4935 414.454C78.3879 414.992 78.2833 415.525 78.1795 416.053C77.9426 417.062 77.7039 418.105 77.4486 419.085C77.276 419.767 77.0988 420.414 76.9216 421.066C76.9528 420.247 76.9804 418.643 76.9675 418.509C76.8344 417.115 76.0723 414.915 74.9007 413.443C74.8823 413.237 74.8456 413.033 74.7896 412.834C74.3424 411.266 72.6988 410.257 71.1186 410.885C68.926 411.757 67.9628 415.902 68.1033 418.004C68.1115 418.128 68.3521 419.463 68.5183 420.304C68.3457 419.825 68.1841 419.359 68.0004 418.867C67.6442 417.894 67.2595 416.934 66.8499 415.898C66.6342 415.405 66.4166 414.907 66.1971 414.405C65.9896 413.902 65.7068 413.396 65.4616 412.886C64.8676 411.716 64.2101 410.557 63.5206 409.404C64.3717 409.09 67.3797 407.931 68.5119 406.827C69.6385 405.729 70.7688 404.016 70.5604 402.363C70.3565 400.745 68.8847 399.498 67.2282 399.88C64.9291 400.41 63.348 404.362 63.1689 406.461C63.1579 406.592 63.1983 408.113 63.2369 408.948C62.8173 408.259 62.4022 407.569 61.9551 406.885C60.6641 404.912 59.2969 402.955 57.9417 400.997C57.5257 400.397 57.119 399.795 56.7094 399.193C57.0134 399.085 60.6182 397.784 61.8862 396.547C63.0128 395.448 64.1431 393.736 63.9347 392.083C63.7309 390.465 62.259 389.218 60.6026 389.6C58.3034 390.13 56.7223 394.082 56.5433 396.181C56.5295 396.339 56.5919 398.528 56.6351 399.083C55.7334 397.758 54.8474 396.429 54.0265 395.083C52.8916 393.229 51.8807 391.345 51.0369 389.448C51.1783 389.398 54.9474 388.057 56.2458 386.791C57.3724 385.692 58.5027 383.98 58.2942 382.327C58.0904 380.709 56.6185 379.462 54.9621 379.844C52.6621 380.374 51.0819 384.326 50.9028 386.425C50.8909 386.563 50.9368 388.231 50.9763 389.023C50.9037 389.04 50.9175 389.037 50.845 389.054C49.9653 387.011 49.3694 384.921 48.9094 382.938C48.6404 381.79 48.4476 380.677 48.2841 379.59C49.0113 379.413 52.3269 378.563 53.6216 377.552C54.862 376.584 56.1732 375.005 56.1484 373.34C56.1227 371.709 54.7969 370.308 53.1083 370.505C50.7651 370.779 48.7597 374.533 48.3512 376.6C48.3291 376.712 48.23 377.88 48.1684 378.732C48.1023 378.241 48.0252 377.735 47.971 377.262C47.7635 375.49 47.6827 373.854 47.623 372.405C47.5955 371.58 47.5872 370.835 47.5872 370.136C48.2097 369.589 50.6925 367.354 51.3637 365.888C52.0184 364.456 52.4545 362.451 51.6649 360.985C50.8909 359.549 49.0683 358.918 47.6607 359.871C45.7068 361.194 45.6581 365.45 46.2476 367.472C46.299 367.647 47.41 370.289 47.4431 370.262C47.4431 370.262 47.4734 370.235 47.4807 370.229C47.4679 370.9 47.4614 371.621 47.4706 372.408C47.4991 373.861 47.5441 375.503 47.7139 377.287C47.8792 379.07 48.1078 381.003 48.5339 383.016C48.9581 385.035 49.5062 387.137 50.3519 389.23C50.362 389.254 50.3748 389.277 50.384 389.301C49.947 388.765 48.6734 387.309 48.5632 387.209C47.006 385.789 43.1625 383.962 41.1149 385.134C39.6394 385.979 39.4052 387.893 40.3546 389.22C41.3242 390.575 43.3167 391.065 44.8896 391.106C46.6635 391.153 50.2077 389.652 50.4896 389.531C51.3132 391.517 52.3196 393.488 53.448 395.426C54.0917 396.535 54.7748 397.632 55.4736 398.723C55.0806 398.272 54.7262 397.872 54.6701 397.821C53.1129 396.402 49.2693 394.574 47.2218 395.746C45.7462 396.591 45.5121 398.506 46.4615 399.831C47.4302 401.187 49.4236 401.677 50.9965 401.718C52.5932 401.761 55.6398 400.541 56.4422 400.208C56.715 400.624 56.9821 401.042 57.2558 401.457C58.5706 403.446 59.891 405.427 61.1259 407.409C61.5621 408.107 61.9652 408.81 62.3719 409.514C62.0221 409.114 61.7246 408.78 61.6732 408.734C60.1159 407.315 56.2724 405.487 54.2248 406.659C52.7493 407.504 52.5151 409.418 53.4646 410.745C54.4333 412.099 56.4257 412.59 57.9995 412.632C59.5154 412.68 62.338 411.58 63.2929 411.188Z" fill="#263238"/>
<path opacity="0.3" d="M42.0441 379.369C43.8125 379.903 47.915 379.322 47.9178 379.321C47.96 379.314 46.714 376.733 46.6167 376.579C45.4891 374.799 42.2654 372.021 39.98 372.611C38.3337 373.036 37.6028 374.821 38.1675 376.35C38.746 377.914 40.5383 378.913 42.0441 379.369Z" fill="#263238"/>
<path opacity="0.3" d="M83.7539 375.328C83.7934 375.346 84.1772 372.505 84.1809 372.323C84.2231 370.217 83.0662 366.121 80.835 365.353C79.2282 364.8 77.6333 365.885 77.2605 367.473C76.8794 369.094 77.8233 370.916 78.8287 372.127C80.0086 373.548 83.7512 375.326 83.7539 375.328Z" fill="#263238"/>
<path opacity="0.3" d="M63.2929 411.188C63.6877 411.92 64.0844 412.653 64.4333 413.38C64.6601 413.882 64.9144 414.35 65.1136 414.866C65.323 415.374 65.5296 415.876 65.7343 416.374C66.0934 417.346 66.4698 418.348 66.7967 419.305C67.029 419.969 67.2374 420.607 67.4505 421.248C67.0253 420.548 66.1622 419.195 66.0778 419.09C64.7537 417.451 61.2315 415.062 59.0297 415.911C57.444 416.522 56.9225 418.379 57.6589 419.834C58.4118 421.32 60.3069 422.107 61.8559 422.386C63.561 422.693 67.1502 421.8 67.5974 421.685C67.9444 422.748 68.2731 423.785 68.567 424.769C69.094 426.515 69.5384 428.115 69.913 429.536H71.4795C71.0461 428.012 70.5255 426.269 69.9011 424.351C69.5522 423.27 69.1583 422.122 68.7423 420.948C69.0031 420.807 70.4823 419.993 71.7678 419.06C73.1212 420.216 76.3753 421.371 76.7967 421.517C76.5001 422.595 76.2017 423.641 75.9052 424.623C75.357 426.452 74.8217 428.098 74.3332 429.536H75.9153C76.3376 428.185 76.7885 426.677 77.2485 425.012C77.5533 423.918 77.8581 422.744 78.1593 421.535C78.6111 421.574 82.305 421.878 83.9403 421.299C85.4231 420.773 87.1668 419.691 87.6709 418.103C88.1639 416.549 87.3495 414.8 85.6848 414.453C83.3746 413.971 80.284 416.896 79.2428 418.728C79.1813 418.836 78.645 420.082 78.32 420.874C78.4403 420.38 78.5624 419.901 78.6808 419.39C78.9205 418.382 79.1298 417.368 79.3594 416.278C79.4521 415.748 79.5449 415.213 79.6385 414.672C79.7432 414.138 79.7864 413.56 79.8635 412.999C80.0141 411.695 80.104 410.366 80.1646 409.025C81.0479 409.233 84.1964 409.925 85.75 409.629C87.2953 409.334 89.1831 408.528 89.9213 407.035C90.644 405.572 90.1041 403.721 88.5119 403.125C86.3018 402.299 82.8035 404.723 81.496 406.374C81.4143 406.477 80.61 407.768 80.1812 408.486C80.2115 407.68 80.2454 406.875 80.25 406.059C80.2629 403.701 80.2014 401.314 80.1509 398.932C80.1353 398.203 80.1279 397.476 80.1187 396.748C80.4318 396.825 84.1569 397.729 85.896 397.397C87.4422 397.103 89.3291 396.297 90.0673 394.803C90.79 393.341 90.2501 391.49 88.6579 390.894C86.4478 390.067 82.9495 392.491 81.642 394.143C81.5438 394.267 80.3878 396.127 80.1169 396.614C80.0958 395.012 80.0903 393.414 80.1481 391.839C80.2252 389.666 80.4208 387.538 80.7633 385.49C80.9093 385.527 84.7923 386.487 86.5736 386.148C88.1199 385.853 90.0067 385.048 90.745 383.554C91.4676 382.092 90.9277 380.24 89.3355 379.644C87.1255 378.818 83.6271 381.242 82.3196 382.894C82.2342 383.002 81.3528 384.417 80.9488 385.101C80.879 385.074 80.8919 385.08 80.8221 385.053C81.2151 382.864 81.8716 380.793 82.5813 378.885C82.9899 377.779 83.4435 376.744 83.9063 375.748C84.6114 376.001 87.8444 377.122 89.4815 376.993C91.0507 376.87 93.0147 376.277 93.9127 374.873C94.7914 373.499 94.4581 371.599 92.9404 370.832C90.834 369.768 87.0915 371.794 85.6104 373.291C85.5296 373.373 84.8024 374.292 84.2827 374.969C84.4985 374.522 84.7134 374.058 84.9291 373.634C85.7335 372.04 86.569 370.632 87.3183 369.391C87.7507 368.688 88.1547 368.061 88.5395 367.479C89.3612 367.367 92.664 366.871 94.033 366.019C95.3681 365.187 96.839 363.755 96.9887 362.096C97.1347 360.471 95.964 358.939 94.2644 358.957C91.9046 358.984 89.5155 362.505 88.8921 364.519C88.8388 364.692 88.3072 367.509 88.3503 367.505C88.3503 367.505 88.3898 367.499 88.3999 367.498C88.0179 368.052 87.6158 368.649 87.1888 369.311C86.4111 370.538 85.5425 371.933 84.7005 373.514C83.8549 375.093 82.9798 376.831 82.2241 378.745C81.4639 380.663 80.7615 382.719 80.3125 384.931C80.307 384.956 80.3051 384.983 80.3005 385.008C80.2308 384.32 79.9718 382.403 79.9351 382.258C79.4191 380.215 77.2228 376.571 74.8676 376.418C73.1708 376.309 71.9202 377.777 71.9799 379.407C72.0414 381.072 73.4325 382.58 74.7216 383.482C76.176 384.499 79.959 385.204 80.2611 385.258C79.8525 387.369 79.6045 389.568 79.476 391.807C79.4016 393.087 79.3658 394.379 79.3465 395.675C79.2676 395.082 79.1923 394.553 79.1739 394.479C78.6579 392.436 76.4607 388.792 74.1064 388.64C72.4096 388.53 71.159 389.998 71.2178 391.628C71.2784 393.293 72.6704 394.801 73.9595 395.703C75.2679 396.619 78.4816 397.283 79.3346 397.448C79.3328 397.944 79.3245 398.441 79.3245 398.938C79.3227 401.323 79.3318 403.703 79.2694 406.037C79.2474 406.86 79.196 407.67 79.1473 408.48C79.0766 407.954 79.0123 407.51 78.9958 407.444C78.4798 405.401 76.2825 401.757 73.9274 401.604C72.2306 401.495 70.98 402.962 71.0397 404.593C71.1003 406.258 72.4922 407.765 73.7814 408.668C75.0301 409.542 77.9913 410.182 79.004 410.382C78.9288 411.211 78.8553 412.04 78.7451 412.839C78.6579 413.382 78.6111 413.912 78.4935 414.454C78.3879 414.992 78.2833 415.525 78.1795 416.053C77.9426 417.062 77.7039 418.105 77.4486 419.085C77.276 419.767 77.0988 420.414 76.9216 421.066C76.9528 420.247 76.9804 418.643 76.9675 418.509C76.8344 417.115 76.0723 414.915 74.9007 413.443C74.8823 413.237 74.8456 413.033 74.7896 412.834C74.3424 411.266 72.6988 410.257 71.1186 410.885C68.926 411.757 67.9628 415.902 68.1033 418.004C68.1115 418.128 68.3521 419.463 68.5183 420.304C68.3457 419.825 68.1841 419.359 68.0004 418.867C67.6442 417.894 67.2595 416.934 66.8499 415.898C66.6342 415.405 66.4166 414.907 66.1971 414.405C65.9896 413.902 65.7068 413.396 65.4616 412.886C64.8676 411.716 64.2101 410.557 63.5206 409.404C64.3717 409.09 67.3797 407.931 68.5119 406.827C69.6385 405.729 70.7688 404.016 70.5604 402.363C70.3565 400.745 68.8847 399.498 67.2282 399.88C64.9291 400.41 63.348 404.362 63.1689 406.461C63.1579 406.592 63.1983 408.113 63.2369 408.948C62.8173 408.259 62.4022 407.569 61.9551 406.885C60.6641 404.912 59.2969 402.955 57.9417 400.997C57.5257 400.397 57.119 399.795 56.7094 399.193C57.0134 399.085 60.6182 397.784 61.8862 396.547C63.0128 395.448 64.1431 393.736 63.9347 392.083C63.7309 390.465 62.259 389.218 60.6026 389.6C58.3034 390.13 56.7223 394.082 56.5433 396.181C56.5295 396.339 56.5919 398.528 56.6351 399.083C55.7334 397.758 54.8474 396.429 54.0265 395.083C52.8916 393.229 51.8807 391.345 51.0369 389.448C51.1783 389.398 54.9474 388.057 56.2458 386.791C57.3724 385.692 58.5027 383.98 58.2942 382.327C58.0904 380.709 56.6185 379.462 54.9621 379.844C52.6621 380.374 51.0819 384.326 50.9028 386.425C50.8909 386.563 50.9368 388.231 50.9763 389.023C50.9037 389.04 50.9175 389.037 50.845 389.054C49.9653 387.011 49.3694 384.921 48.9094 382.938C48.6404 381.79 48.4476 380.677 48.2841 379.59C49.0113 379.413 52.3269 378.563 53.6216 377.552C54.862 376.584 56.1732 375.005 56.1484 373.34C56.1227 371.709 54.7969 370.308 53.1083 370.505C50.7651 370.779 48.7597 374.533 48.3512 376.6C48.3291 376.712 48.23 377.88 48.1684 378.732C48.1023 378.241 48.0252 377.735 47.971 377.262C47.7635 375.49 47.6827 373.854 47.623 372.405C47.5955 371.58 47.5872 370.835 47.5872 370.136C48.2097 369.589 50.6925 367.354 51.3637 365.888C52.0184 364.456 52.4545 362.451 51.6649 360.985C50.8909 359.549 49.0683 358.918 47.6607 359.871C45.7068 361.194 45.6581 365.45 46.2476 367.472C46.299 367.647 47.41 370.289 47.4431 370.262C47.4431 370.262 47.4734 370.235 47.4807 370.229C47.4679 370.9 47.4614 371.621 47.4706 372.408C47.4991 373.861 47.5441 375.503 47.7139 377.287C47.8792 379.07 48.1078 381.003 48.5339 383.016C48.9581 385.035 49.5062 387.137 50.3519 389.23C50.362 389.254 50.3748 389.277 50.384 389.301C49.947 388.765 48.6734 387.309 48.5632 387.209C47.006 385.789 43.1625 383.962 41.1149 385.134C39.6394 385.979 39.4052 387.893 40.3546 389.22C41.3242 390.575 43.3167 391.065 44.8896 391.106C46.6635 391.153 50.2077 389.652 50.4896 389.531C51.3132 391.517 52.3196 393.488 53.448 395.426C54.0917 396.535 54.7748 397.632 55.4736 398.723C55.0806 398.272 54.7262 397.872 54.6701 397.821C53.1129 396.402 49.2693 394.574 47.2218 395.746C45.7462 396.591 45.5121 398.506 46.4615 399.831C47.4302 401.187 49.4236 401.677 50.9965 401.718C52.5932 401.761 55.6398 400.541 56.4422 400.208C56.715 400.624 56.9821 401.042 57.2558 401.457C58.5706 403.446 59.891 405.427 61.1259 407.409C61.5621 408.107 61.9652 408.81 62.3719 409.514C62.0221 409.114 61.7246 408.78 61.6732 408.734C60.1159 407.315 56.2724 405.487 54.2248 406.659C52.7493 407.504 52.5151 409.418 53.4646 410.745C54.4333 412.099 56.4257 412.59 57.9995 412.632C59.5154 412.68 62.338 411.58 63.2929 411.188Z" fill="#263238"/>
<g opacity="0.2">
<path d="M290.963 165.206C291.153 165.296 293.026 151.443 293.045 150.555C293.25 140.283 287.609 120.313 276.729 116.566C268.892 113.865 261.117 119.158 259.299 126.9C257.442 134.807 262.045 143.691 266.947 149.597C272.701 156.53 290.949 165.199 290.963 165.206Z" fill="black"/>
<path d="M87.5825 184.913C96.2071 187.52 116.211 184.684 116.225 184.681C116.432 184.651 110.354 172.065 109.879 171.314C104.383 162.632 88.6614 149.088 77.5191 151.964C69.4932 154.037 65.9279 162.74 68.6834 170.201C71.4967 177.821 80.2361 182.691 87.5825 184.913Z" fill="black"/>
<path d="M191.192 340.07C193.115 343.639 195.05 347.21 196.751 350.757C197.858 353.205 199.095 355.484 200.07 358.003C201.089 360.477 202.097 362.926 203.097 365.352C204.847 370.095 206.684 374.979 208.276 379.649C209.409 382.887 210.427 385.995 211.463 389.122C209.388 385.709 205.184 379.111 204.77 378.6C198.314 370.607 181.139 358.959 170.402 363.097C162.668 366.079 160.124 375.132 163.719 382.228C167.39 389.474 176.632 393.309 184.185 394.671C192.5 396.169 209.999 391.816 212.181 391.256C213.876 396.438 215.477 401.494 216.91 406.289C219.478 414.805 221.648 422.609 223.476 429.536H231.113C229.002 422.104 226.46 413.607 223.418 404.254C221.718 398.986 219.794 393.389 217.767 387.662C219.038 386.973 226.251 383.007 232.518 378.458C239.118 384.095 254.985 389.725 257.038 390.438C255.593 395.695 254.139 400.795 252.689 405.585C250.015 414.497 247.407 422.526 245.022 429.536H252.739C254.796 422.949 256.994 415.594 259.239 407.477C260.727 402.145 262.213 396.418 263.679 390.521C265.882 390.715 283.893 392.196 291.869 389.37C299.102 386.808 307.604 381.532 310.058 373.789C312.461 366.206 308.49 357.68 300.374 355.988C289.111 353.636 274.041 367.903 268.959 376.833C268.658 377.36 266.045 383.439 264.459 387.303C265.046 384.891 265.643 382.555 266.217 380.065C267.386 375.149 268.408 370.207 269.524 364.893C269.975 362.309 270.428 359.698 270.887 357.062C271.398 354.458 271.607 351.641 271.982 348.906C272.718 342.547 273.157 336.066 273.453 329.527C277.762 330.539 293.113 333.914 300.687 332.47C308.223 331.032 317.428 327.106 321.025 319.823C324.548 312.691 321.917 303.664 314.151 300.759C303.373 296.73 286.316 308.55 279.94 316.606C279.542 317.109 275.617 323.404 273.526 326.905C273.674 322.972 273.841 319.049 273.861 315.067C273.92 303.57 273.623 291.933 273.377 280.32C273.299 276.762 273.266 273.22 273.218 269.67C274.746 270.048 292.908 274.454 301.389 272.836C308.927 271.399 318.13 267.472 321.729 260.19C325.251 253.058 322.619 244.03 314.854 241.127C304.077 237.097 287.018 248.917 280.642 256.973C280.162 257.58 274.528 266.647 273.207 269.022C273.106 261.207 273.076 253.418 273.358 245.739C273.735 235.141 274.689 224.763 276.357 214.78C277.07 214.958 296.002 219.642 304.689 217.985C312.228 216.548 321.431 212.621 325.03 205.337C328.552 198.208 325.92 189.178 318.155 186.276C307.377 182.246 290.32 194.065 283.944 202.122C283.527 202.651 279.228 209.552 277.259 212.884C276.919 212.756 276.981 212.78 276.642 212.653C278.558 201.979 281.758 191.88 285.22 182.575C287.214 177.182 289.422 172.138 291.682 167.279C295.119 168.512 310.887 173.978 318.869 173.352C326.52 172.751 336.098 169.859 340.475 163.017C344.76 156.315 343.135 147.051 335.736 143.313C325.466 138.124 307.214 147.999 299.992 155.306C299.599 155.704 296.053 160.186 293.517 163.487C294.571 161.31 295.617 159.044 296.667 156.976C300.591 149.21 304.661 142.341 308.317 136.286C310.425 132.86 312.396 129.802 314.271 126.962C318.276 126.414 334.385 124 341.059 119.842C347.571 115.783 354.741 108.802 355.471 100.712C356.185 92.79 350.475 85.3187 342.185 85.4105C330.68 85.5381 319.031 102.712 315.988 112.527C315.727 113.375 313.138 127.111 313.347 127.084C313.347 127.084 313.542 127.058 313.589 127.051C311.729 129.749 309.767 132.661 307.686 135.888C303.892 141.876 299.659 148.676 295.55 156.388C291.426 164.082 287.159 172.561 283.474 181.894C279.767 191.246 276.343 201.272 274.153 212.058C274.127 212.18 274.118 212.311 274.094 212.432C273.754 209.079 272.493 199.732 272.314 199.025C269.8 189.063 259.085 171.291 247.602 170.549C239.33 170.016 233.229 177.173 233.519 185.121C233.817 193.238 240.602 200.592 246.889 204.993C253.98 209.956 272.429 213.386 273.9 213.653C271.908 223.945 270.699 234.668 270.074 245.588C269.71 251.83 269.536 258.129 269.443 264.446C269.058 261.555 268.689 258.974 268.599 258.618C266.084 248.656 255.37 230.884 243.888 230.142C235.615 229.609 229.514 236.765 229.805 244.714C230.102 252.832 236.888 260.185 243.175 264.585C249.554 269.051 265.226 272.29 269.385 273.092C269.375 275.517 269.338 277.937 269.337 280.36C269.329 291.989 269.374 303.595 269.068 314.979C268.962 318.992 268.71 322.939 268.473 326.888C268.126 324.321 267.813 322.162 267.732 321.838C265.217 311.876 254.503 294.104 243.02 293.363C234.747 292.829 228.645 299.985 228.937 307.935C229.235 316.051 236.021 323.405 242.308 327.806C248.396 332.068 262.834 335.188 267.772 336.164C267.406 340.201 267.048 344.246 266.512 348.143C266.085 350.795 265.859 353.378 265.284 356.019C264.768 358.644 264.257 361.243 263.752 363.817C262.596 368.74 261.435 373.825 260.187 378.599C259.343 381.926 258.48 385.08 257.618 388.26C257.771 384.267 257.903 376.445 257.84 375.79C257.191 368.995 253.474 358.262 247.763 351.086C247.673 350.082 247.496 349.09 247.22 348.118C245.04 340.469 237.025 335.548 229.322 338.613C218.63 342.865 213.931 363.079 214.619 373.331C214.659 373.935 215.833 380.447 216.642 384.544C215.8 382.208 215.01 379.931 214.114 377.537C212.376 372.791 210.502 368.106 208.504 363.058C207.453 360.655 206.391 358.228 205.319 355.776C204.309 353.32 202.928 350.858 201.734 348.369C198.839 342.657 195.63 337.011 192.27 331.393C196.421 329.861 211.088 324.207 216.607 318.824C222.1 313.467 227.611 305.114 226.595 297.056C225.599 289.165 218.425 283.087 210.345 284.948C199.133 287.533 191.425 306.8 190.552 317.038C190.498 317.677 190.697 325.093 190.886 329.166C188.838 325.804 186.814 322.44 184.635 319.108C178.341 309.487 171.672 299.945 165.062 290.394C163.035 287.47 161.053 284.532 159.054 281.6C160.537 281.07 178.116 274.726 184.297 268.698C189.791 263.34 195.301 254.988 194.285 246.929C193.289 239.039 186.114 232.959 178.036 234.822C166.823 237.407 159.116 256.674 158.243 266.912C158.178 267.683 158.48 278.354 158.689 281.063C154.293 274.602 149.971 268.122 145.97 261.56C140.437 252.514 135.509 243.333 131.393 234.084C132.085 233.84 150.46 227.302 156.792 221.127C162.287 215.771 167.797 207.418 166.78 199.359C165.784 191.468 158.608 185.39 150.531 187.253C139.318 189.837 131.611 209.105 130.739 219.341C130.68 220.014 130.902 228.149 131.099 232.013C130.748 232.093 130.812 232.078 130.459 232.159C126.168 222.197 123.266 212.008 121.019 202.335C119.707 196.737 118.765 191.311 117.969 186.012C121.517 185.146 137.684 181.006 143.996 176.079C150.046 171.357 156.441 163.661 156.316 155.539C156.192 147.587 149.727 140.755 141.493 141.72C130.066 143.057 120.29 161.363 118.297 171.442C118.188 171.99 117.704 177.684 117.408 181.836C117.086 179.441 116.709 176.972 116.445 174.67C115.432 166.028 115.038 158.051 114.746 150.984C114.612 146.964 114.574 143.327 114.57 139.924C117.607 137.256 129.712 126.357 132.984 119.207C136.177 112.229 138.305 102.451 134.452 95.3013C130.677 88.3 121.792 85.2177 114.928 89.8665C105.402 96.3205 105.161 117.07 108.037 126.935C108.287 127.787 113.706 140.672 113.867 140.534C113.867 140.534 114.015 140.405 114.049 140.373C113.985 143.649 113.957 147.163 114.001 151C114.139 158.086 114.36 166.095 115.188 174.793C115.992 183.486 117.111 192.911 119.187 202.728C121.254 212.574 123.928 222.824 128.052 233.03C128.1 233.145 128.162 233.259 128.209 233.373C126.076 230.764 119.867 223.664 119.33 223.173C111.737 216.251 92.9954 207.34 83.01 213.055C75.8151 217.174 74.6738 226.508 79.3024 232.978C84.0283 239.584 93.7446 241.974 101.416 242.175C110.067 242.405 127.349 235.086 128.722 234.498C132.738 244.181 137.646 253.791 143.149 263.243C146.288 268.651 149.618 274.001 153.026 279.321C151.109 277.122 149.379 275.172 149.108 274.926C141.514 268.003 122.772 259.092 112.788 264.808C105.592 268.926 104.453 278.26 109.08 284.729C113.805 291.336 123.522 293.726 131.194 293.929C138.978 294.134 153.837 288.191 157.749 286.564C159.078 288.592 160.381 290.632 161.716 292.654C168.127 302.357 174.567 312.013 180.59 321.679C182.716 325.082 184.683 328.513 186.666 331.939C184.959 329.99 183.508 328.362 183.261 328.136C175.668 321.214 156.927 312.302 146.942 318.018C139.748 322.137 138.607 331.472 143.234 337.941C147.96 344.547 157.676 346.937 165.348 347.139C172.772 347.341 186.537 341.978 191.192 340.07Z" fill="black"/>
<path opacity="0.3" d="M87.5825 184.913C96.2071 187.52 116.211 184.684 116.225 184.681C116.432 184.651 110.354 172.065 109.879 171.314C104.383 162.632 88.6614 149.088 77.5191 151.964C69.4932 154.037 65.9279 162.74 68.6834 170.201C71.4967 177.821 80.2361 182.691 87.5825 184.913Z" fill="black"/>
<path opacity="0.3" d="M290.963 165.206C291.153 165.296 293.026 151.443 293.045 150.555C293.25 140.283 287.609 120.313 276.729 116.566C268.892 113.865 261.117 119.158 259.299 126.9C257.442 134.807 262.045 143.691 266.947 149.597C272.701 156.53 290.949 165.199 290.963 165.206Z" fill="black"/>
<path opacity="0.3" d="M191.192 340.07C193.115 343.639 195.05 347.21 196.751 350.757C197.858 353.205 199.095 355.484 200.07 358.003C201.089 360.477 202.097 362.926 203.097 365.352C204.847 370.095 206.684 374.979 208.276 379.649C209.409 382.887 210.427 385.995 211.463 389.122C209.388 385.709 205.184 379.111 204.77 378.6C198.314 370.607 181.139 358.959 170.402 363.097C162.668 366.079 160.124 375.132 163.719 382.228C167.39 389.474 176.632 393.309 184.185 394.671C192.5 396.169 209.999 391.816 212.181 391.256C213.876 396.438 215.477 401.494 216.91 406.289C219.478 414.805 221.648 422.609 223.476 429.536H231.113C229.002 422.104 226.46 413.607 223.418 404.254C221.718 398.986 219.794 393.389 217.767 387.662C219.038 386.973 226.251 383.007 232.518 378.458C239.118 384.095 254.985 389.725 257.038 390.438C255.593 395.695 254.139 400.795 252.689 405.585C250.015 414.497 247.407 422.526 245.022 429.536H252.739C254.796 422.949 256.994 415.594 259.239 407.477C260.727 402.145 262.213 396.418 263.679 390.521C265.882 390.715 283.893 392.196 291.869 389.37C299.102 386.808 307.604 381.532 310.058 373.789C312.461 366.206 308.49 357.68 300.374 355.988C289.111 353.636 274.041 367.903 268.959 376.833C268.658 377.36 266.045 383.439 264.459 387.303C265.046 384.891 265.643 382.555 266.217 380.065C267.386 375.149 268.408 370.207 269.524 364.893C269.975 362.309 270.428 359.698 270.887 357.062C271.398 354.458 271.607 351.641 271.982 348.906C272.718 342.547 273.157 336.066 273.453 329.527C277.762 330.539 293.113 333.914 300.687 332.47C308.223 331.032 317.428 327.106 321.025 319.823C324.548 312.691 321.917 303.664 314.151 300.759C303.373 296.73 286.316 308.55 279.94 316.606C279.542 317.109 275.617 323.404 273.526 326.905C273.674 322.972 273.841 319.049 273.861 315.067C273.92 303.57 273.623 291.933 273.377 280.32C273.299 276.762 273.266 273.22 273.218 269.67C274.746 270.048 292.908 274.454 301.389 272.836C308.927 271.399 318.13 267.472 321.729 260.19C325.251 253.058 322.619 244.03 314.854 241.127C304.077 237.097 287.018 248.917 280.642 256.973C280.162 257.58 274.528 266.647 273.207 269.022C273.106 261.207 273.076 253.418 273.358 245.739C273.735 235.141 274.689 224.763 276.357 214.78C277.07 214.958 296.002 219.642 304.689 217.985C312.228 216.548 321.431 212.621 325.03 205.337C328.552 198.208 325.92 189.178 318.155 186.276C307.377 182.246 290.32 194.065 283.944 202.122C283.527 202.651 279.228 209.552 277.259 212.884C276.919 212.756 276.981 212.78 276.642 212.653C278.558 201.979 281.758 191.88 285.22 182.575C287.214 177.182 289.422 172.138 291.682 167.279C295.119 168.512 310.887 173.978 318.869 173.352C326.52 172.751 336.098 169.859 340.475 163.017C344.76 156.315 343.135 147.051 335.736 143.313C325.466 138.124 307.214 147.999 299.992 155.306C299.599 155.704 296.053 160.186 293.517 163.487C294.571 161.31 295.617 159.044 296.667 156.976C300.591 149.21 304.661 142.341 308.317 136.286C310.425 132.86 312.396 129.802 314.271 126.962C318.276 126.414 334.385 124 341.059 119.842C347.571 115.783 354.741 108.802 355.471 100.712C356.185 92.79 350.475 85.3187 342.185 85.4105C330.68 85.5381 319.031 102.712 315.988 112.527C315.727 113.375 313.138 127.111 313.347 127.084C313.347 127.084 313.542 127.058 313.589 127.051C311.729 129.749 309.767 132.661 307.686 135.888C303.892 141.876 299.659 148.676 295.55 156.388C291.426 164.082 287.159 172.561 283.474 181.894C279.767 191.246 276.343 201.272 274.153 212.058C274.127 212.18 274.118 212.311 274.094 212.432C273.754 209.079 272.493 199.732 272.314 199.025C269.8 189.063 259.085 171.291 247.602 170.549C239.33 170.016 233.229 177.173 233.519 185.121C233.817 193.238 240.602 200.592 246.889 204.993C253.98 209.956 272.429 213.386 273.9 213.653C271.908 223.945 270.699 234.668 270.074 245.588C269.71 251.83 269.536 258.129 269.443 264.446C269.058 261.555 268.689 258.974 268.599 258.618C266.084 248.656 255.37 230.884 243.888 230.142C235.615 229.609 229.514 236.765 229.805 244.714C230.102 252.832 236.888 260.185 243.175 264.585C249.554 269.051 265.226 272.29 269.385 273.092C269.375 275.517 269.338 277.937 269.337 280.36C269.329 291.989 269.374 303.595 269.068 314.979C268.962 318.992 268.71 322.939 268.473 326.888C268.126 324.321 267.813 322.162 267.732 321.838C265.217 311.876 254.503 294.104 243.02 293.363C234.747 292.829 228.645 299.985 228.937 307.935C229.235 316.051 236.021 323.405 242.308 327.806C248.396 332.068 262.834 335.188 267.772 336.164C267.406 340.201 267.048 344.246 266.512 348.143C266.085 350.795 265.859 353.378 265.284 356.019C264.768 358.644 264.257 361.243 263.752 363.817C262.596 368.74 261.435 373.825 260.187 378.599C259.343 381.926 258.48 385.08 257.618 388.26C257.771 384.267 257.903 376.445 257.84 375.79C257.191 368.995 253.474 358.262 247.763 351.086C247.673 350.082 247.496 349.09 247.22 348.118C245.04 340.469 237.025 335.548 229.322 338.613C218.63 342.865 213.931 363.079 214.619 373.331C214.659 373.935 215.833 380.447 216.642 384.544C215.8 382.208 215.01 379.931 214.114 377.537C212.376 372.791 210.502 368.106 208.504 363.058C207.453 360.655 206.391 358.228 205.319 355.776C204.309 353.32 202.928 350.858 201.734 348.369C198.839 342.657 195.63 337.011 192.27 331.393C196.421 329.861 211.088 324.207 216.607 318.824C222.1 313.467 227.611 305.114 226.595 297.056C225.599 289.165 218.425 283.087 210.345 284.948C199.133 287.533 191.425 306.8 190.552 317.038C190.498 317.677 190.697 325.093 190.886 329.166C188.838 325.804 186.814 322.44 184.635 319.108C178.341 309.487 171.672 299.945 165.062 290.394C163.035 287.47 161.053 284.532 159.054 281.6C160.537 281.07 178.116 274.726 184.297 268.698C189.791 263.34 195.301 254.988 194.285 246.929C193.289 239.039 186.114 232.959 178.036 234.822C166.823 237.407 159.116 256.674 158.243 266.912C158.178 267.683 158.48 278.354 158.689 281.063C154.293 274.602 149.971 268.122 145.97 261.56C140.437 252.514 135.509 243.333 131.393 234.084C132.085 233.84 150.46 227.302 156.792 221.127C162.287 215.771 167.797 207.418 166.78 199.359C165.784 191.468 158.608 185.39 150.531 187.253C139.318 189.837 131.611 209.105 130.739 219.341C130.68 220.014 130.902 228.149 131.099 232.013C130.748 232.093 130.812 232.078 130.459 232.159C126.168 222.197 123.266 212.008 121.019 202.335C119.707 196.737 118.765 191.311 117.969 186.012C121.517 185.146 137.684 181.006 143.996 176.079C150.046 171.357 156.441 163.661 156.316 155.539C156.192 147.587 149.727 140.755 141.493 141.72C130.066 143.057 120.29 161.363 118.297 171.442C118.188 171.99 117.704 177.684 117.408 181.836C117.086 179.441 116.709 176.972 116.445 174.67C115.432 166.028 115.038 158.051 114.746 150.984C114.612 146.964 114.574 143.327 114.57 139.924C117.607 137.256 129.712 126.357 132.984 119.207C136.177 112.229 138.305 102.451 134.452 95.3013C130.677 88.3 121.792 85.2177 114.928 89.8665C105.402 96.3205 105.161 117.07 108.037 126.935C108.287 127.787 113.706 140.672 113.867 140.534C113.867 140.534 114.015 140.405 114.049 140.373C113.985 143.649 113.957 147.163 114.001 151C114.139 158.086 114.36 166.095 115.188 174.793C115.992 183.486 117.111 192.911 119.187 202.728C121.254 212.574 123.928 222.824 128.052 233.03C128.1 233.145 128.162 233.259 128.209 233.373C126.076 230.764 119.867 223.664 119.33 223.173C111.737 216.251 92.9954 207.34 83.01 213.055C75.8151 217.174 74.6738 226.508 79.3024 232.978C84.0283 239.584 93.7446 241.974 101.416 242.175C110.067 242.405 127.349 235.086 128.722 234.498C132.738 244.181 137.646 253.791 143.149 263.243C146.288 268.651 149.618 274.001 153.026 279.321C151.109 277.122 149.379 275.172 149.108 274.926C141.514 268.003 122.772 259.092 112.788 264.808C105.592 268.926 104.453 278.26 109.08 284.729C113.805 291.336 123.522 293.726 131.194 293.929C138.978 294.134 153.837 288.191 157.749 286.564C159.078 288.592 160.381 290.632 161.716 292.654C168.127 302.357 174.567 312.013 180.59 321.679C182.716 325.082 184.683 328.513 186.666 331.939C184.959 329.99 183.508 328.362 183.261 328.136C175.668 321.214 156.927 312.302 146.942 318.018C139.748 322.137 138.607 331.472 143.234 337.941C147.96 344.547 157.676 346.937 165.348 347.139C172.772 347.341 186.537 341.978 191.192 340.07Z" fill="black"/>
</g>
<path d="M97.3431 35.4967C97.3431 35.4967 92.8255 23.8797 76.6902 22.5887C60.5548 21.2978 58.6202 38.7241 55.3927 41.3051C52.1662 43.8871 45.7122 36.7876 39.2583 39.3687C32.8043 41.9506 30.2233 47.7591 30.2233 47.7591C30.2233 47.7591 24.4148 45.1772 20.5428 45.8226C16.6708 46.4681 12.1523 52.2766 12.1523 52.2766H121.222C121.222 52.2766 121.222 41.3051 113.478 37.4322C105.733 33.5602 102.506 41.9497 100.57 41.3042C98.6331 40.6587 97.3431 35.4967 97.3431 35.4967Z" stroke="#263238" stroke-miterlimit="10"/>
<path d="M410.168 121.129C410.168 121.129 406.326 111.248 392.6 110.149C378.875 109.051 377.229 123.874 374.484 126.07C371.739 128.266 366.248 122.227 360.758 124.423C355.269 126.619 353.072 131.56 353.072 131.56C353.072 131.56 348.132 129.363 344.837 129.912C341.544 130.462 337.7 135.402 337.7 135.402H430.48C430.48 135.402 430.48 126.07 423.891 122.775C417.303 119.481 414.559 126.618 412.912 126.069C411.265 125.52 410.168 121.129 410.168 121.129Z" stroke="#263238" stroke-miterlimit="10"/>
<path d="M104.561 302.475C104.561 302.475 99.1483 288.557 79.8158 287.009C60.4842 285.463 58.1639 306.342 54.2974 309.434C50.4309 312.528 42.6979 304.022 34.9658 307.114C27.2328 310.208 24.1394 317.166 24.1394 317.166C24.1394 317.166 17.1795 314.073 12.5399 314.846C7.90029 315.619 2.48755 322.579 2.48755 322.579H133.172C133.172 322.579 133.172 309.433 123.893 304.794C114.613 300.154 110.747 310.207 108.427 309.433C106.108 308.662 104.561 302.475 104.561 302.475Z" stroke="#263238" stroke-miterlimit="10"/>
<path d="M385.191 261.125C409.156 261.125 428.583 241.698 428.583 217.733C428.583 193.768 409.156 174.341 385.191 174.341C361.227 174.341 341.8 193.768 341.8 217.733C341.8 241.698 361.227 261.125 385.191 261.125Z" stroke="#263238" stroke-miterlimit="10"/>
<path d="M385.191 261.125C398.969 261.125 410.139 241.698 410.139 217.733C410.139 193.768 398.969 174.341 385.191 174.341C371.413 174.341 360.244 193.768 360.244 217.733C360.244 241.698 371.413 261.125 385.191 261.125Z" stroke="#263238" stroke-miterlimit="10"/>
<path d="M385.192 174.341V261.125" stroke="#263238" stroke-miterlimit="10"/>
<path d="M359.724 182.777H410.399" stroke="#263238" stroke-miterlimit="10"/>
<path d="M359.724 253.207H410.399" stroke="#263238" stroke-miterlimit="10"/>
<path d="M345.123 200.098H425" stroke="#263238" stroke-miterlimit="10"/>
<path d="M345.123 234.74H425" stroke="#263238" stroke-miterlimit="10"/>
<path d="M341.973 217.419H428.149" stroke="#263238" stroke-miterlimit="10"/>
<path d="M376.24 48.7299H274.606C271.069 48.7299 268.203 45.8624 268.203 42.3255V31.0382C268.203 27.5013 271.07 24.6338 274.606 24.6338H376.24C379.777 24.6338 382.643 27.5013 382.643 31.0382V42.3264C382.643 45.8624 379.777 48.7299 376.24 48.7299Z" stroke="#263238" stroke-miterlimit="10"/>
<path d="M354.746 24.552V49.1972" stroke="#263238" stroke-miterlimit="10"/>
<path d="M379.997 43.596L373.428 38.668C373.975 37.6002 374.29 36.3937 374.29 35.1137C374.29 30.7955 370.777 27.2825 366.458 27.2825C362.14 27.2825 358.627 30.7955 358.627 35.1137C358.627 39.432 362.14 42.9459 366.458 42.9459C368.504 42.9459 370.363 42.1507 371.76 40.8616L378.344 45.8006C378.593 45.986 378.882 46.076 379.17 46.076C379.589 46.076 380.002 45.8859 380.273 45.5251C380.729 44.9163 380.606 44.0532 379.997 43.596ZM366.458 40.1913C363.658 40.1913 361.381 37.9142 361.381 35.1137C361.381 32.3142 363.658 30.037 366.458 30.037C369.257 30.037 371.534 32.3142 371.534 35.1137C371.535 37.9142 369.257 40.1913 366.458 40.1913Z" stroke="#263238" stroke-miterlimit="10"/>
<path d="M85.5397 136.978L59.5503 117.485C61.7136 113.259 62.9595 108.489 62.9595 103.425C62.9595 86.3424 49.0618 72.4456 31.9798 72.4456C14.8968 72.4456 1 86.3424 1 103.425C1 120.508 14.8977 134.407 31.9798 134.407C40.0736 134.407 47.4283 131.261 52.9531 126.161L78.9994 145.697C79.9819 146.432 81.1278 146.786 82.2664 146.786C83.9228 146.786 85.5581 146.034 86.6296 144.606C88.4338 142.199 87.9445 138.785 85.5397 136.978ZM31.9789 123.51C20.9045 123.51 11.8953 114.501 11.8953 103.424C11.8953 92.3501 20.9045 83.3408 31.9789 83.3408C43.0522 83.3408 52.0625 92.3501 52.0625 103.424C52.0625 114.5 43.0532 123.51 31.9789 123.51Z" stroke="#263238" stroke-miterlimit="10"/>
<path d="M214.049 167.652C164.33 167.652 122.142 195.814 107.213 234.88C106.934 235.609 107.176 236.438 107.795 236.915L149.603 269.057C149.912 269.295 150.291 269.423 150.682 269.423H157.381C158.391 269.423 159.188 268.582 159.146 267.572C159.124 267.078 159.112 266.581 159.112 266.081C159.112 239.564 183.708 218.067 214.049 218.067C244.39 218.067 268.985 239.564 268.985 266.081C268.985 292.599 244.39 314.095 214.049 314.095C209.26 314.095 204.618 313.549 200.19 312.542C199.768 312.446 199.338 312.395 198.906 312.395C194.782 312.395 191.931 316.518 193.387 320.376L199.489 336.555V373.631H266.601V358.303C266.601 355.241 268.283 352.403 271.006 351.005C304.309 333.907 326.668 302.279 326.668 266.082C326.669 211.721 276.247 167.652 214.049 167.652Z" fill="#263238" stroke="#263238" stroke-miterlimit="10"/>
<path d="M266.602 380.893H199.49V429.536H266.602V380.893Z" fill="#263238" stroke="#263238" stroke-miterlimit="10"/>
<path d="M317.489 266.082C317.489 211.721 267.067 167.653 204.869 167.653C155.2 167.653 113.048 195.757 98.0786 234.762C97.7774 235.546 98.0813 236.437 98.7911 236.887L147.219 267.61C148.396 268.357 149.933 267.511 149.933 266.117V266.083C149.933 239.566 174.529 218.069 204.87 218.069C235.21 218.069 259.806 239.566 259.806 266.083C259.806 292.601 235.21 314.097 204.87 314.097C202.216 314.097 199.609 313.929 197.057 313.609C193.516 313.163 190.378 315.882 190.378 319.451V336.556H190.311V373.632H257.423V358.304C257.423 355.242 259.105 352.404 261.828 351.007C295.129 333.907 317.489 302.279 317.489 266.082Z" fill="#92E3A9" stroke="#263238" stroke-miterlimit="10"/>
<path d="M257.422 380.893H190.309V429.536H257.422V380.893Z" fill="#92E3A9" stroke="#263238" stroke-miterlimit="10"/>
<path d="M198.972 72.6646C198.972 72.6646 192.344 75.5642 189.361 76.9727C186.377 78.3812 184.058 78.9615 184.058 78.9615L189.113 81.6132L203.364 79.3765L198.972 72.6646Z" fill="white" stroke="#263238" stroke-miterlimit="10"/>
<path d="M177.844 75.73C177.844 75.73 176.269 74.2389 175.607 72.6642C174.944 71.0895 173.618 71.836 173.618 72.9957C173.618 74.1553 174.364 75.9789 174.695 76.1441C175.027 76.3094 178.507 76.8897 178.507 76.8897L177.844 75.73Z" stroke="#263238" stroke-miterlimit="10"/>
<path d="M201.618 82.757L203.021 90.7085C203.021 90.7085 200.258 106.495 199.732 115.571C199.206 124.649 198.811 130.568 199.338 132.936C199.864 135.304 206.704 158.326 206.704 158.326C206.704 158.326 205.521 159.773 205.521 160.168C205.521 160.563 205.389 162.01 205.389 162.01C205.389 162.01 203.547 163.852 202.1 164.904C200.653 165.956 197.628 166.877 198.154 167.929C198.68 168.982 202.232 167.929 206.179 167.929C210.125 167.929 212.888 168.455 214.335 167.403C215.782 166.351 214.467 162.405 214.467 162.405C214.467 162.405 214.598 159.642 214.73 158.853C214.861 158.063 213.02 153.986 213.152 152.802C213.283 151.619 209.994 127.938 209.994 127.938L216.572 103.602C216.572 103.602 227.359 130.965 228.675 132.28C229.99 133.595 247.75 156.222 247.75 156.222C247.75 156.222 246.567 157.538 246.96 158.196C247.355 158.853 248.013 159.643 248.013 159.643C248.013 159.643 246.697 162.405 245.908 163.589C245.119 164.774 242.883 165.431 243.277 166.22C243.671 167.009 247.749 167.141 248.802 166.877C249.855 166.614 254.064 162.01 255.248 161.089C256.432 160.168 258.668 158.458 258.668 157.274C258.668 156.09 256.432 154.643 256.3 154.248C256.169 153.853 255.905 152.144 255.117 151.618C254.327 151.092 253.275 150.565 252.749 150.302C252.223 150.038 239.068 127.149 239.068 127.149C239.068 127.149 233.148 91.893 231.569 87.8153C229.99 83.7376 221.02 72.0178 221.02 72.0178L201.618 82.757Z" fill="#263238" stroke="#263238" stroke-miterlimit="10"/>
<path d="M187.298 60.9308C187.298 60.9308 189.031 68.8988 191.224 70.9776C193.419 73.0564 197.807 73.6339 197.807 73.6339L201.618 82.7571C201.618 82.7571 215.476 78.4838 221.02 72.017C221.02 72.017 214.553 61.7388 209.818 55.1563C205.083 48.5737 207.047 47.4187 200.349 43.4925C193.65 39.5663 188.223 44.9937 188.223 44.9937C188.223 44.9937 183.141 45.2251 187.298 60.9308Z" fill="#92E3A9" stroke="#263238" stroke-miterlimit="10"/>
<path d="M179.115 22.5964C179.115 22.5964 177.763 19.8565 168.986 21.2421C160.209 22.6276 157.9 29.672 157.554 32.444C157.207 35.2151 157.52 35.0682 156.711 35.7614C155.903 36.4547 152.091 35.9919 152.784 40.0338C153.478 44.0756 158.212 41.7664 158.905 43.1519C159.598 44.5375 160.638 45.4612 162.601 45.5769C164.564 45.6926 166.411 43.3824 166.643 42.4587C166.873 41.535 168.837 40.7261 172.302 42.8049C175.766 44.8836 180.385 48.5784 185.235 44.5366C190.086 40.4965 183.734 26.1764 179.115 22.5964Z" fill="#263238" stroke="#263238" stroke-miterlimit="10"/>
<path d="M160.974 39.8263C160.974 39.8263 161.701 42.2173 162.429 43.4642C163.156 44.7111 165.859 45.8552 165.963 47.7255C166.067 49.5959 165.444 50.8437 165.963 51.155C166.483 51.4672 168.978 50.739 168.978 50.739C168.978 50.739 174.486 54.3769 175.838 53.8572C177.188 53.3375 179.787 49.6996 179.787 49.6996L185.682 53.8866L187.299 60.931L189.378 57.5823C189.378 57.5823 185.452 52.8472 186.837 48.921C188.223 44.9948 188.223 44.9948 188.223 44.9948C188.223 44.9948 179.372 43.7755 178.229 42.3201C177.085 40.8648 175.007 37.2278 173.136 36.7082C171.265 36.1885 170.538 38.7869 170.745 39.4104C170.953 40.0338 167.627 39.9301 165.548 39.0982C163.47 38.2663 163.989 38.4748 163.47 38.2663C162.949 38.0588 160.974 38.8907 160.974 39.8263Z" fill="white" stroke="#263238" stroke-miterlimit="10"/>
<path d="M164.924 44.0876C164.924 44.0876 164.82 42.2172 166.379 42.0088" stroke="#263238" stroke-miterlimit="10"/>
<path d="M167.776 44.7201C168.285 45.1388 168.492 45.7311 168.238 46.0414C167.982 46.3518 167.363 46.2636 166.852 45.8449C166.343 45.4262 166.136 44.834 166.39 44.5236C166.647 44.2133 167.266 44.3014 167.776 44.7201Z" fill="#263238"/>
<path d="M171.68 50.8427C171.68 50.8427 172.303 50.4268 171.783 48.7639" stroke="#263238" stroke-miterlimit="10"/>
<path d="M176.045 39.2019C176.045 39.2019 177.5 40.761 176.981 41.5929C176.461 42.4248 175.941 42.736 175.941 42.736C175.941 42.736 177.292 44.0876 177.396 44.9186" fill="white"/>
<path d="M176.045 39.2019C176.045 39.2019 177.5 40.761 176.981 41.5929C176.461 42.4248 175.941 42.736 175.941 42.736C175.941 42.736 177.292 44.0876 177.396 44.9186" stroke="#263238" stroke-miterlimit="10"/>
<path d="M171.656 35.0735C171.656 35.0735 176.784 38.4222 179.486 42.599C182.188 46.7768 189.912 46.5564 192.638 44.2563C195.365 41.9563 195.871 39.7388 197.976 40.2677C200.08 40.7966 205.124 42.5136 208.418 40.1034C211.71 37.6922 209.237 32.8818 212.586 33.755C215.935 34.6282 219.97 33.6016 222.225 30.0997C224.48 26.5977 226.215 20.6074 219.889 12.7881C215.004 6.74914 207.778 8.32017 205.603 8.62868C203.428 8.93719 204.141 6.53979 197.038 6.53979C189.715 6.53979 186.235 12.7982 185.753 14.54C185.271 16.2818 187.257 17.469 181.579 15.5225C175.902 13.5759 173.12 15.7346 173.222 18.6562C173.324 21.5779 166.903 22.5723 165.701 23.0434" fill="#263238"/>
<path d="M171.656 35.0735C171.656 35.0735 176.784 38.4222 179.486 42.599C182.188 46.7768 189.912 46.5564 192.638 44.2563C195.365 41.9563 195.871 39.7388 197.976 40.2677C200.08 40.7966 205.124 42.5136 208.418 40.1034C211.71 37.6922 209.237 32.8818 212.586 33.755C215.935 34.6282 219.97 33.6016 222.225 30.0997C224.48 26.5977 226.215 20.6074 219.889 12.7881C215.004 6.74914 207.778 8.32017 205.603 8.62868C203.428 8.93719 204.141 6.53979 197.038 6.53979C189.715 6.53979 186.235 12.7982 185.753 14.54C185.271 16.2818 187.257 17.469 181.579 15.5225C175.902 13.5759 173.12 15.7346 173.222 18.6562C173.324 21.5779 166.903 22.5723 165.701 23.0434" stroke="#263238" stroke-miterlimit="10"/>
<path d="M237.218 95.2509C236.955 95.2509 236.688 95.2197 236.422 95.1545L165.082 76.7503C163.827 76.4436 163.06 75.1783 163.367 73.9241C163.673 72.6698 164.938 71.9013 166.193 72.2089L238.009 88.6665C239.8 89.1045 240.898 90.9124 240.46 92.7038C240.085 94.229 238.72 95.2509 237.218 95.2509Z" fill="#8F8F8F" stroke="#263238" stroke-miterlimit="10"/>
<path d="M207.508 82.8729L205.313 84.4899C205.313 84.4899 204.274 86.2225 203.466 86.8C202.658 87.3776 202.196 87.7237 203.004 88.0699C203.812 88.416 205.775 87.608 205.775 87.608C205.775 87.608 205.082 90.6105 205.659 90.8419C206.237 91.0724 207.507 91.1881 207.854 90.7262C208.201 90.2644 208.778 90.033 208.778 90.033C208.778 90.033 209.124 90.4948 211.203 89.9173C213.281 89.3397 213.397 85.7597 213.628 84.1428C213.858 82.5258 223.097 62.2017 223.674 59.5453C224.252 56.889 223.674 55.2721 222.866 54.8102C222.058 54.3484 198.961 47.1883 196.19 46.9569C193.419 46.7265 190.417 50.6527 192.033 54.4632C193.65 58.2736 200.116 59.5444 201.849 59.7749C203.582 60.0063 213.743 61.2761 213.743 61.2761C213.743 61.2761 211.664 71.7848 211.203 75.5962C210.742 79.4086 208.893 81.8335 207.508 82.8729Z" fill="white" stroke="#263238" stroke-miterlimit="10"/>
<path d="M174.281 77.4703C174.281 77.4703 173.867 80.4535 174.032 80.8676C174.198 81.2817 175.524 82.0273 175.855 80.785C176.186 79.5418 176.269 77.4703 175.69 77.1388C175.109 76.8074 174.778 76.6421 174.281 77.4703Z" fill="white" stroke="#263238" stroke-miterlimit="10"/>
<path d="M176.44 78.7382C176.44 78.7382 176.635 81.7434 176.881 82.1153C177.127 82.4881 178.576 82.9509 178.65 81.6663C178.724 80.3827 178.387 78.337 177.753 78.1285C177.117 77.9219 176.759 77.8265 176.44 78.7382Z" fill="white" stroke="#263238" stroke-miterlimit="10"/>
<path d="M178.594 79.0698C178.594 79.0698 178.79 82.075 179.036 82.4469C179.282 82.8187 180.731 83.2824 180.804 81.9979C180.878 80.7133 180.541 78.6685 179.907 78.4601C179.273 78.2535 178.914 78.158 178.594 79.0698Z" fill="white" stroke="#263238" stroke-miterlimit="10"/>
<path d="M180.959 79.5168C180.959 79.5168 181.125 82.074 181.335 82.3908C181.544 82.7075 182.777 83.1014 182.84 82.0088C182.902 80.9161 182.617 79.1753 182.076 78.998C181.536 78.8217 181.231 78.7409 180.959 79.5168Z" fill="white" stroke="#263238" stroke-miterlimit="10"/>
<path d="M167.655 77.6714L167.858 73.725L165.099 69.6482C163.303 64.6459 151.649 60.3873 143.363 58.3545C135.076 56.3216 125.275 57.6924 120.968 59.8814C116.66 62.0704 115.667 63.3889 115.667 63.3889L115.398 68.6244C114.221 74.5679 124.95 81.7004 139.362 84.5541C153.774 87.4079 166.412 84.903 167.588 78.9596C167.674 78.5372 167.69 78.1057 167.655 77.6714ZM155.191 78.3343C146.735 79.5959 139.017 78.6639 132.294 75.7294C127.215 73.5129 122.362 69.9861 120.29 68.3921C122.084 64.2538 131.986 62.6846 143.253 64.9158C153.923 67.0286 162.152 71.8262 163.064 76.16C161.691 76.8707 159.306 77.72 155.191 78.3343Z" fill="#8F8F8F" stroke="#263238" stroke-miterlimit="10"/>
<path d="M143.894 57.7961C129.483 54.9424 116.846 57.4472 115.668 63.3907C114.491 69.3341 125.22 76.4657 139.632 79.3204C154.044 82.1741 166.681 79.6693 167.858 73.7258C169.035 67.7815 158.306 60.6499 143.894 57.7961ZM163.376 72.388C162.452 77.0525 152.065 78.9246 140.177 76.5704C128.288 74.2162 119.398 68.527 120.322 63.8626C121.245 59.1982 131.632 57.326 143.521 59.6803C155.41 62.0345 164.299 67.7236 163.376 72.388Z" fill="white" stroke="#263238" stroke-miterlimit="10"/>
</svg>
