<svg width="442" height="439" viewBox="0 0 442 439" fill="none" xmlns="http://www.w3.org/2000/svg">
<path d="M91.3495 119.658C83.6968 121.099 77.5916 123.681 73.6795 127.124C73.142 127.49 65.0808 133.17 59.062 143.799C53.3872 153.868 45.6267 196.792 48.8939 213.856C50.0117 219.708 61.2116 239.115 71.6587 248.066L60.1797 416.298C59.9863 416.621 60.1152 415.438 60.0723 436.201C60.0723 436.588 60.3732 436.889 60.7601 436.889H166.008C166.394 436.889 166.695 436.588 166.695 436.201V430.176C166.695 430.047 166.674 427.207 164.524 425.184C159.645 420.623 152.809 426.755 148.466 419.526C146.746 416.664 147.219 412.942 144.446 412.017L138.084 232.487C140.384 231.626 140.427 230.873 140.448 230.464C140.47 230.206 143.458 205.097 144.576 179.687C146.467 181.774 148.316 183.495 150.036 184.657C162.998 193.328 175.746 188.465 178.54 180.268C181.12 173.103 180.518 165.637 177.917 158.795C173.961 148.489 158.441 106.361 158.355 106.21C157.903 105.457 156.743 105.457 155.281 105.866C151.884 96.334 148.746 91.3426 145.994 91.0413C143.716 90.7831 140.642 90.2022 138.019 89.8364C138.965 82.091 139.567 72.4299 138.449 65.244C141.287 58.7891 134.924 51.8396 134.924 51.8396C134.924 51.8396 144.619 55.5834 149.52 46.3531C154.421 37.1228 133.591 43.1688 133.591 43.1688C133.591 43.1688 145.672 38.758 120.8 31.8299C95.9505 24.8803 93.3492 51.3235 93.3492 51.3235C85.0945 52.5714 82.3 66.8149 84.127 76.5184C85.4383 83.5109 90.1893 96.5067 98.3576 101.821L98.5725 114.172C94.0797 116.065 91.9515 118.776 91.3495 119.658ZM109.987 113.526C119.574 113.676 122.025 117.807 122.627 120.067C114.179 118.216 103.237 117.764 93.4346 119.292C95.4338 117.183 100.378 113.354 109.987 113.526ZM133.934 104.962C135.697 107.953 138.793 111.912 140.792 114.386C139.76 115.44 139.18 116.43 139.566 117.183L142.812 126.349L144.468 130.631C141.136 127.532 138.9 125.596 138.879 125.574C138.75 125.467 138.599 125.424 138.449 125.424C134.837 122.691 127.786 121.25 124.132 120.411C123.917 119.206 123.272 117.183 121.23 115.462L121.595 109.351C123.616 109.05 130.452 107.867 133.934 104.962ZM74.7317 417.479C77.7842 419.006 80.5573 420.9 82.9649 420.9C85.8024 420.857 86.9203 418.791 88.0596 416.403C88.1456 416.403 94.2935 415.822 94.2077 415.844C94.6161 417.221 94.9385 418.727 95.8199 420.211C98.0341 423.912 100.786 425.031 106.719 424.665C108.74 424.536 110.352 424.902 111.556 425.719V431.313H84.4054C84.4054 431.313 73.3777 426.085 61.4469 428.43V418.383L74.7317 417.479ZM103.666 324.123L107.256 376.944L111.555 416.662V424.128C110.222 423.44 108.567 423.16 106.633 423.289C101.194 423.633 98.937 422.751 97.0021 419.502C95.8412 417.566 95.7553 415.565 94.9599 413.887L103.666 324.123ZM145.843 416.427C146.165 417.61 146.53 418.944 147.304 420.214C149.518 423.914 152.292 425.033 158.203 424.667C160.546 424.517 162.352 425.012 163.577 426.174C165.276 427.766 165.319 430.111 165.319 430.154V431.337H135.868C135.868 431.337 124.862 426.109 112.91 428.454V417.008C121.831 411.586 129.182 420.924 134.363 420.924C138.748 420.924 139.071 416.018 140.941 414.039C141.435 413.522 141.951 413.264 142.618 413.2C144.81 413.006 145.176 414.06 145.843 416.427ZM143.069 411.801C141.952 411.801 141.049 412.081 140.146 412.898L123.228 414.749C119.466 413.501 116.048 413.759 112.803 415.523L108.611 376.838C100.678 259.791 104.29 310.179 101.087 260.91C101.065 260.587 100.829 260.329 100.528 260.286C100.42 260.264 90.0378 258.22 86.6413 255.789C85.9534 255.294 85.1581 256.241 85.7599 256.843C86.0609 257.144 92.7032 263.793 96.2071 265.88L103.107 315.796C101.753 329.803 94.9386 399.965 93.5199 414.556L81.2666 415.675C80.9442 415.696 74.4306 416.148 74.8604 416.127L61.5324 417.052C62.3493 405.175 73.2909 245.118 74.1082 233.027C82.6209 236.922 123.658 236.642 136.75 232.963L143.069 411.801ZM157.171 106.858C159.729 113.786 174.025 152.428 176.647 159.249C180.194 168.63 178.582 175.816 177.701 178.549C177.572 178.656 177.486 178.785 177.443 178.958C176.26 185.929 164.158 192.405 150.809 183.476C141.028 176.935 125.98 149.782 125.829 149.524C125.636 149.179 125.228 149.072 124.905 149.244C124.583 149.438 124.454 149.846 124.626 150.169C125.12 151.051 134.428 167.833 143.263 178.161C142.21 204.002 139.114 230.015 139.093 230.316C139.071 230.38 138.512 231.908 126.281 233.285C108.138 235.307 77.4192 234.576 73.851 231.241C73.7435 231.133 73.679 231.047 73.679 230.897C73.679 230.423 70.3255 184.659 71.0564 153.073C71.0564 152.686 70.7555 152.385 70.39 152.363C70.0246 152.385 69.7022 152.664 69.6806 153.03C69.4872 161.723 69.6161 171.706 69.8526 180.42C68.6703 194.9 63.6187 200.301 64.6934 208.477C65.3813 213.663 68.6488 218.095 71.744 222.269C72.1955 229.477 72.3029 230.789 72.3029 230.897C72.2814 231.198 72.3889 231.628 72.7759 232.059L71.8085 246.323C61.9629 237.394 51.322 218.977 50.2687 213.576C46.9152 196.127 55.3634 153.136 60.2646 144.444C66.1975 133.966 74.4093 128.265 74.4951 128.2C74.5166 128.2 74.5166 128.179 74.5166 128.179C74.5381 128.179 74.5381 128.157 74.5596 128.157C85.0068 118.884 109.148 118.195 123.336 121.616C128.086 122.735 132.751 123.51 137.309 126.264C137.867 126.586 137.846 126.78 138.233 126.845C147.197 134.698 159.429 146.768 167.447 157.16C167.683 157.462 168.113 157.526 168.414 157.29C168.715 157.053 168.78 156.623 168.543 156.321C167.812 155.375 167.06 154.428 166.286 153.503C160.611 142.96 153.109 132.095 144.381 126.672C139.458 112.881 141.156 117.636 140.791 116.603C140.834 115.183 149.475 109.288 155.086 107.287C155.108 107.287 155.108 107.265 155.129 107.265C156.204 106.921 156.935 106.772 157.171 106.858ZM145.843 92.3778C146.853 92.4854 149.604 94.0775 153.968 106.255C150.464 107.589 144.639 111.01 141.78 113.442C139.716 110.903 136.556 106.836 134.923 103.91C135.611 103.049 135.783 102.533 136.041 101.479C137.502 102.189 137.674 102.511 138.061 102.511C138.663 102.511 139.05 101.737 138.448 101.242C138.319 101.134 137.459 100.403 136.535 99.3702C136.75 98.3374 136.965 97.111 137.201 95.734C139.372 96.0352 140.705 96.5301 140.985 96.5301C141.78 96.5301 141.952 95.3897 141.157 95.1746C140.813 95.0455 139.458 94.6152 137.502 93.7545C137.631 92.9154 137.76 92.0548 137.868 91.1511C140.555 91.5384 143.499 92.1196 145.843 92.3778ZM99.7538 102.62C102.591 104.083 105.795 104.642 109.384 103.738C124.346 99.9945 126.689 91.9048 128.43 89.8178C130.15 87.7307 126.517 77.575 129.591 76.3274C132.665 75.0795 133.245 83.1481 133.245 83.1481L135.352 82.2874C135.352 82.2874 135.352 75.1655 134.879 72.39C134.514 70.3245 136.384 67.9577 137.373 66.8604C138.834 79.5119 135.524 99.2418 134.449 102.103C133.073 105.804 124.174 107.654 120.863 108.041C120.54 108.085 120.283 108.343 120.261 108.687L119.917 114.496C114.801 111.355 105.622 111.656 99.9467 113.636L99.7538 102.62Z" fill="#0A2D47"/>
<path d="M274.846 88.1575C271.578 91.7292 228.22 139.774 238.323 160.88C244.686 174.156 273.384 171.294 287.98 169.035L287.464 199.846L278.113 307.832C277.963 310.844 282.95 313.017 288.84 314.523L304.296 405.428C300.706 409.581 296.084 415.734 295.698 416.444C290.968 423.609 282.886 431.613 285.573 435.808C288.582 440.52 302.211 437.895 306.704 434.991C308.703 433.7 314.292 428.988 316.119 427.439C314.614 429.719 312.529 433.227 313.862 435.615C316.227 440.607 333.789 437.982 338.411 434.991C340.41 433.7 343.978 429.16 345.419 427.267V435.55C345.419 435.938 345.741 436.239 346.106 436.239C351.954 436.174 351.932 436.411 352.297 436.024C352.426 435.895 352.491 435.701 352.491 435.507C351.975 424.642 354.426 421.953 353.931 413.884C353.759 411.216 353.243 408.742 352.254 406.375C352.19 406.246 352.147 406.095 352.082 405.966L348.88 317C358.381 315.537 365.41 312.869 366.679 308.566C366.829 308.071 360.617 246.126 354.963 215.055L354.856 214.496C363.175 210.214 372.827 197.003 373.6 195.971C375.256 194.422 403.932 167.225 398.644 154.122C395.097 145.3 373.364 132.692 365.066 128.023C366.098 125.032 366.163 121.805 363.411 119.438C363.411 119.438 370.806 110.015 360.036 103.387C360.036 103.387 368.119 92.8657 357.478 89.1004C357.478 89.1004 364.744 82.775 361.111 74.8136C357.478 66.8523 352.362 67.2615 352.362 67.2615C352.362 67.2615 357.07 53.5128 346.042 49.7475C346.042 49.7475 346.171 40.8399 336.476 41.9156C336.476 41.9156 334.455 31.0069 324.223 36.386C324.223 36.386 318.57 28.5541 312.099 36.5151C312.099 36.5151 307.929 30.8567 301.329 32.9435C294.73 35.0305 296.342 39.2045 296.342 39.2045C296.342 39.2045 284.927 40.56 286.454 49.726C286.454 49.726 279.037 54.8468 282.154 61.0434C282.154 61.0434 274.372 68.5955 279.618 74.6632C279.618 74.6632 273.642 78.493 275.576 84.8405C275.34 85.8948 275.082 86.9957 274.846 88.1575ZM288.174 66.6419C294.343 62.8551 301.48 50.419 301.48 50.419C307.564 59.1328 327.556 67.9545 327.556 67.9545L328.093 79.6591L331.167 80.0679C331.167 80.111 331.167 80.154 331.189 80.2185C331.232 80.907 332.178 81.1007 332.479 80.4767C332.5 80.4337 334.8 75.9584 337.767 75.7432C339.164 75.6356 340.583 76.5608 341.937 78.4757C342.647 79.4869 342.862 80.5412 342.604 81.7031C341.658 85.9202 334.779 89.7933 334.714 89.8363C334.607 89.9008 334.521 89.9869 334.456 90.0945C334.435 90.1375 332.178 94.075 328.287 98.2707C321.773 105.306 313.39 110.147 304.125 107.974C288.024 104.209 286.175 83.1231 288.174 66.6419ZM271.622 130.954C272.374 131.793 273.191 132.267 274.18 132.804C270.762 135.58 268.849 137.108 267.43 138.248L271.622 130.954ZM311.691 113.462C312.078 113.096 311.884 112.881 311.111 109.675C318.312 108.814 324.266 104.317 328.286 100.23L329.598 112.752C328.114 114.623 317.108 127.963 309.455 125.317C307.757 124.736 306.811 123.854 306.553 122.67C305.908 119.615 310.036 114.99 311.691 113.462ZM281.574 75.5292C282.262 75.4646 282.498 75.7228 282.584 75.8089C282.928 76.1747 283.057 76.9707 282.928 77.982C282.842 78.3047 282.563 79.4236 282.498 79.983C282.412 80.5424 283.036 80.9942 283.552 80.6499C283.788 80.4993 283.81 80.3057 283.874 80.155C284.046 79.5096 284.175 78.9717 284.283 78.3047C284.713 76.5619 285.4 74.3242 286.303 72.7322C285.873 81.2526 286.54 92.1178 291.248 99.9497C290.065 100.574 288.689 101.219 287.486 101.693L276.264 88.3096C276.35 87.9008 276.501 87.1477 276.737 86.201C278.5 78.4336 280.456 75.6151 281.574 75.5292ZM285.83 158.773C293.118 159.848 315.13 162.667 328.759 159.095C336.39 157.094 339.701 152.253 341.055 147.585C342.41 149.758 344.172 151.823 346.387 153.674C346.516 153.781 346.537 153.76 348.128 154.47L349.052 186.227C348.579 186.507 348.128 186.808 347.719 187.174C344.495 190.078 339.55 195.931 338.175 200.191C321.558 203.397 293.655 204.107 289.249 200.492C288.84 200.148 288.84 199.911 288.84 199.847L289.399 165.981C289.399 165.637 289.206 165.529 288.776 164.798C288.195 163.851 287.206 162.13 286.196 160.086C286.089 159.655 285.938 159.203 285.83 158.773ZM361.218 181.171L358.294 184.333C357.176 184.312 353.479 184.355 350.405 185.581L349.524 155.093L370.569 164.452L361.218 181.171ZM305.543 406.098C305.951 405.625 306.574 411.305 290.302 314.89C298.685 316.848 309.24 317.816 317.86 318.203L319.472 327.735L322.289 405.988C321.278 407.752 311.433 424.47 301.523 423.739C297.116 423.416 293.892 422.061 296.149 418.231C296.342 417.951 296.536 417.671 296.729 417.392C299.244 413.712 302.791 409.218 305.543 406.098ZM325.556 414.424C325.405 411.498 324.911 408.658 323.686 405.968L321.235 337.999L332.693 405.429C331.854 406.375 328.78 409.992 325.556 414.424ZM350.707 405.947C349.696 407.733 339.829 424.429 329.941 423.698C325.491 423.375 322.332 422.02 324.567 418.168C325.513 416.77 325.169 417.308 325.277 417.135C327.469 413.973 330.93 409.497 333.918 406.076C334.327 405.603 334.928 411.068 319.257 318.228C328.2 318.573 338.561 318.422 347.504 317.174L350.707 405.947ZM365.324 308.289C362.186 317.756 321.385 318.939 296.21 314.657C283.721 312.527 279.378 309.773 279.464 307.944L287.504 215.188H345.997C348.34 216.092 350.898 216.114 353.348 215.188H353.585C353.649 215.597 359.047 243.335 365.324 308.289ZM353.802 213.49C349.631 215.469 345.504 214.436 342.559 211.058C340.345 208.519 338.539 204.195 339.356 200.989C340.431 197.03 345.525 191.027 348.642 188.209C350.9 186.165 355.5 185.648 358.552 185.713C358.746 185.713 358.961 185.648 359.09 185.498L362.013 182.313C368.29 183.54 370.935 189.113 372.332 195.331C370.934 197.267 361.454 209.853 353.802 213.49ZM397.376 154.619C401.847 165.764 378.351 189.432 373.471 194.166C371.945 187.991 369.043 182.568 362.83 181.084C372.461 163.677 372.353 164.452 372.181 163.914C372.117 163.721 371.988 163.592 371.816 163.506C363.69 159.891 355.5 156.255 347.202 152.554C343.268 149.219 340.538 145.152 339.592 140.161C339.528 139.795 339.162 139.537 338.797 139.623C338.431 139.687 338.173 140.053 338.259 140.419C338.345 140.914 338.474 141.409 338.603 141.882C337.399 146.766 334.153 152.102 326.092 154.211C312.915 157.653 291.87 155.136 283.894 153.995C283.357 152.038 282.97 149.649 283.615 147.734C286.13 140.204 291.891 138.397 291.934 138.375C292.299 138.268 292.514 137.88 292.385 137.515C292.278 137.149 291.891 136.934 291.526 137.041C291.418 137.063 290.365 137.407 288.946 138.311C285.335 140.226 279.853 145.39 278.756 148.187C274.866 158.213 280.799 162.387 281.293 168.519C268.932 170.068 244.985 171.531 239.568 160.235C230.26 140.828 270.352 95.1742 275.467 89.4899L286.409 102.529L264.418 140.655C264.053 141.3 264.848 142.01 265.429 141.537C275.102 133.92 286.646 123.916 293.073 121.076L308.572 114.729C304.595 119.527 303.219 124.54 308.98 126.562C316.182 129.058 325.748 119.677 330.499 113.739C340.967 117.935 344.149 119.268 344.428 119.311C347.459 119.656 392.517 142.506 397.376 154.619Z" fill="#0A2D47"/>
<path d="M315.624 71.3086C314.334 71.3086 313.281 72.8793 313.281 74.8157C313.281 76.7521 314.313 78.3228 315.624 78.3228C316.914 78.3228 317.967 76.7521 317.967 74.8157C317.967 72.8793 316.914 71.3086 315.624 71.3086Z" fill="#0A2D47"/>
<path d="M296.104 71.3086C294.815 71.3086 293.761 72.8793 293.761 74.8157C293.761 76.7521 294.793 78.3228 296.104 78.3228C297.394 78.3228 298.448 76.7521 298.448 74.8157C298.448 72.8793 297.394 71.3086 296.104 71.3086Z" fill="#0A2D47"/>
<path d="M320.72 69.1395C318.549 65.783 313.647 66.0412 311.606 68.451C316.808 67.4613 318.076 68.2789 320.72 69.1395Z" fill="#0A2D47"/>
<path d="M299.979 67.9321C297.356 65.049 292.562 65.9311 290.886 68.7282C292.477 68.1472 293.917 67.6739 295.379 67.5448C297.356 67.3512 298.646 67.7385 299.979 67.9321Z" fill="#0A2D47"/>
<path d="M304.403 85.6188C305.134 85.3391 305.714 84.9088 306.23 84.4139C305.026 84.7797 303.608 85.3821 302.554 84.5861C301.351 83.6824 302.533 81.8536 303.393 77.2063C303.672 75.8293 303.887 74.4093 303.973 72.9893C302.748 75.4206 301.823 78.4328 301.093 80.9715C300.921 81.6385 300.706 82.3916 300.727 83.2307C300.77 85.2532 302.554 86.3073 304.403 85.6188Z" fill="#0A2D47"/>
<path d="M301.156 98.6999C301.5 98.6999 308.186 98.4202 308.401 98.3987C312.722 98.1405 312.958 98.3987 313.28 97.9469C313.409 97.7748 313.452 97.5596 313.388 97.366C312.958 95.7307 311.045 93.6222 309.734 92.8261C307.455 91.3845 303.994 91.7073 302.081 93.9664C301.329 94.8701 300.318 97.0432 300.469 98.119C300.533 98.4418 300.812 98.6999 301.156 98.6999ZM303.392 94.5689C304.789 93.1489 307.605 92.8046 309.411 94.2462C309.583 94.4183 310.83 95.3005 311.69 96.8711H311.626C308.831 95.1068 304.704 95.6447 302.554 97.2584L301.931 97.2799C302.167 96.4838 302.726 95.2359 303.392 94.5689Z" fill="#0A2D47"/>
<path d="M439.274 44.1151C441.144 40.6726 441.66 36.3697 440.263 31.9588C437.49 23.288 425.946 16.962 417.885 15.9942C408.383 14.8754 401.074 19.1571 397.721 25.4395C397.097 26.6874 397.592 27.8277 398.516 28.3011L405.416 31.7866C406.749 32.4536 407.781 32.1954 408.727 31.0981C410.726 28.6238 412.833 27.1822 415.09 26.7734C422.054 25.4609 431.212 32.8411 426.891 39.5752C422.527 46.0731 408.705 44.1796 402.234 54.2707C400.902 56.9172 400.472 57.3906 400.816 58.2942C400.988 58.7676 401.289 59.0903 401.718 59.327L409.672 63.3505C410.274 63.6517 410.811 63.7162 411.327 63.5226C411.822 63.3289 412.359 62.9632 412.897 62.4253C414.444 60.1015 415.648 58.2082 418.787 56.53C426.547 52.3559 434.652 52.1835 439.274 44.1151Z" fill="#0A2D47"/>
<path d="M407.224 67.4146L399.334 63.4341C398.302 62.9177 396.991 63.2405 396.368 64.4884L392.799 71.5674C392.24 72.6647 392.67 73.9556 393.767 74.5151L401.656 78.4955C402.903 79.1195 404.15 78.6246 404.665 77.5703L408.234 70.4914C408.814 69.2865 408.406 68.0385 407.224 67.4146Z" fill="#0A2D47"/>
<path d="M215.451 204.709C216.203 204.859 216.697 204.601 217.02 203.891C218.202 201.116 220.201 199.782 223.426 200.406C227.274 201.159 229.058 204.752 226.049 207.549C223.039 210.346 218.482 211.745 217.063 216.478C216.934 217.102 217.02 216.693 216.784 217.984C216.676 218.565 217.063 219.017 217.536 219.103C222.029 219.878 222.416 220.265 222.975 219.835C223.211 219.663 223.405 219.404 223.62 219.06C223.706 218.823 223.77 218.565 223.856 218.307C224.845 215.187 227.059 214.176 230.628 211.358C233.379 209.184 234.905 206.473 234.325 202.988C233.895 200.385 232.24 198.384 229.961 196.985C228.607 196.168 226.887 195.544 224.759 195.135C217.02 193.65 211.732 197.631 210.636 202.623C210.571 202.967 210.614 203.268 210.786 203.505C211.216 204.107 211.603 203.87 215.451 204.709Z" fill="#0A2D47"/>
<path d="M220.222 228.762C220.566 228.827 220.867 228.784 221.125 228.59C221.791 228.139 221.555 227.687 222.393 223.771C222.522 223.082 222.135 222.501 221.447 222.372L216.911 221.49C216.309 221.382 215.707 221.727 215.557 222.437C214.891 226.353 214.504 226.718 214.934 227.364C215.127 227.665 215.88 227.837 220.222 228.762Z" fill="#0A2D47"/>
<path d="M418.615 129.618C419.045 128.284 419.346 127.144 420.743 125.788C423.215 123.379 425.795 122.346 427.88 119.635C430.546 116.149 430.073 110.663 425 107.521C422.528 106.015 418.013 104.918 414.488 105.499C409.543 106.295 406.469 109.501 405.674 113.158C405.609 113.503 405.652 113.804 405.824 114.041C406.233 114.665 406.663 114.428 410.467 115.246C411.241 115.396 411.714 115.116 412.037 114.428C412.682 112.9 413.542 111.868 414.616 111.33C416.444 110.426 419.023 110.727 420.743 111.911C423.129 113.524 423.086 116.214 421.065 118.107C418.12 120.84 413.52 122.281 412.08 127.036C411.8 128.478 411.628 128.865 411.929 129.274C412.338 129.812 412.531 129.575 417.132 130.543C417.476 130.608 418.25 130.264 418.615 129.618Z" fill="#0A2D47"/>
<path d="M411.07 132.244C410.404 132.696 410.619 133.255 409.802 137.106C409.673 137.73 410.081 138.333 410.705 138.44L415.241 139.322C415.95 139.452 416.509 139.021 416.638 138.419C417.283 134.546 417.713 134.094 417.261 133.427C417.089 133.169 416.831 132.997 416.487 132.932C411.952 132.179 411.737 131.792 411.07 132.244Z" fill="#0A2D47"/>
<path d="M28.6248 175.45C29.0978 175.88 29.8071 175.859 30.2371 175.385L33.3541 171.964C33.8485 171.426 33.7625 170.716 33.3111 170.308C28.4314 166.026 30.2586 165.94 25.4433 170.996C25.0349 171.448 25.0134 172.158 25.5508 172.653L28.6248 175.45Z" fill="#0A2D47"/>
<path d="M18.3725 155.89C19.2109 160.107 17.8781 165.121 21.8335 168.735C22.3709 169.23 22.6074 169.553 23.1018 169.51C23.7682 169.445 23.6607 169.165 26.9067 165.744C27.4012 165.206 27.2507 164.647 26.9067 163.98C26.7348 163.786 26.5628 163.593 26.3908 163.378C23.4028 159.935 25.015 155.438 23.2523 150.856C22.113 147.886 19.1895 145.713 15.4274 145.842C9.12909 146.058 0.702149 155.31 3.99137 163.249C4.48579 164.475 5.19518 165.508 6.11954 166.39C6.65696 166.885 7.30183 166.799 7.66729 166.39C10.1609 163.572 10.7628 163.27 10.8273 162.56C10.8488 162.281 10.7413 161.98 10.5264 161.635C8.78511 159.182 8.69915 156.773 10.9133 154.363C13.4929 151.587 17.5553 151.781 18.3725 155.89Z" fill="#0A2D47"/>
<path d="M238.883 12.5087C237.808 10.3787 236.067 8.39922 233.702 6.52753C231.338 4.65567 228.178 3.10652 224.243 1.8801C210.227 -2.53065 199.071 3.53681 195.846 12.9821C195.438 14.3161 196.104 15.3489 197.093 15.6716C204.208 17.7802 205.025 18.5117 206.272 18.0384C206.767 17.8447 207.218 17.4359 207.626 16.7905C210.485 11.7773 214.548 9.71152 220.525 11.5837C223.448 12.5088 226.264 14.6174 227.253 17.6299C227.726 19.0499 227.619 20.5776 226.909 22.2127C223.685 29.2697 209.648 29.7863 204.961 40.7165C204.94 40.8026 204.123 43.406 204.08 43.4921C203.736 44.5679 204.359 45.4931 205.262 45.7728L213.775 48.4622C215.108 48.8926 215.968 48.1825 216.806 47.0207C217.881 44.6324 218.762 42.4593 221.664 40.243C228.522 34.9716 236.626 33.3364 239.872 24.6871C241.183 20.9433 240.968 16.5963 238.883 12.5087Z" fill="#0A2D47"/>
<path d="M211.153 63.2828L213.539 55.7307C213.926 54.4828 213.345 53.2779 212.055 52.8691L203.629 50.2227C202.511 49.8784 201.286 50.4163 200.856 51.7288L198.47 59.2809C198.104 60.4428 198.728 61.6477 199.889 62.0134L208.315 64.6599C209.648 65.0902 210.787 64.3801 211.153 63.2828Z" fill="#0A2D47"/>
<path d="M37.0061 102.485L45.0456 98.8486C46.3139 98.2676 46.7008 96.9767 46.2279 95.9224L42.9604 88.6931C42.423 87.4882 41.1977 86.9933 39.9508 87.5527L31.9113 91.189C30.858 91.6623 30.2776 92.8887 30.858 94.1581L34.1254 101.387C34.6199 102.485 35.8882 102.98 37.0061 102.485Z" fill="#0A2D47"/>
<path d="M33.1593 39.5549C30.9452 38.6942 28.3226 38.35 25.313 38.5436C22.3034 38.7373 18.9282 39.684 15.1663 41.3838C1.77388 47.43 -2.5037 59.3924 1.36555 68.6013C1.94596 69.8923 3.14977 70.1935 4.0956 69.7632L11.1462 66.5788C12.522 65.9549 12.9519 65.0082 12.694 63.5881C12.0276 60.4899 12.2425 57.9297 13.3174 55.9071C15.1661 52.4646 19.5298 50.1407 23.507 50.0548C29.0315 49.9472 31.9119 54.1429 30.7942 59.3497C29.2035 66.8159 23.6357 74.26 26.6024 83.1891C26.9033 83.8346 27.4192 84.9964 27.8062 85.8571C28.2791 86.8899 29.3539 87.1481 30.2138 86.7608L38.3397 83.0816C38.9416 82.8019 39.3286 82.4146 39.5005 81.8982C39.6725 81.3818 39.7155 80.7579 39.6295 79.9833C38.8557 77.4875 38.0602 75.2928 38.7481 71.6997C40.3604 63.2008 45.326 56.5955 41.9726 47.9462C40.4894 44.31 37.4374 41.2111 33.1593 39.5549Z" fill="#0A2D47"/>
</svg>
