<svg width="19" height="26" viewBox="0 0 19 26" fill="none" xmlns="http://www.w3.org/2000/svg">
<path fill-rule="evenodd" clip-rule="evenodd" d="M2.43507 10.9764C1.24779 10.9764 1 11.2095 1 12.3256V14.3495C1 15.4658 1.24779 15.6987 2.43507 15.6987H5.30519V23.7939C5.30519 24.9101 5.55298 25.1431 6.74026 25.1431H9.61038C10.7977 25.1431 11.0454 24.9101 11.0454 23.7939V15.6987H14.2681C15.1686 15.6987 15.4007 15.5341 15.6481 14.7202L16.2631 12.6963C16.6867 11.302 16.4257 10.9764 14.8832 10.9764H11.0454V7.60346C11.0454 6.85831 11.6879 6.25424 12.4805 6.25424H16.565C17.7522 6.25424 18 6.02128 18 4.90504V2.20663C18 1.09038 17.7522 0.857422 16.565 0.857422H12.4805C8.51764 0.857422 5.30519 3.87773 5.30519 7.60346V10.9764H2.43507Z" stroke="#F8F0FD" stroke-width="1.5" stroke-linejoin="round"/>
</svg>
