<svg width="50" height="50" viewBox="0 0 65 63" fill="none" xmlns="http://www.w3.org/2000/svg">
<path d="M57.3523 11.6637V6.61883C36.2883 27.3027 6.09375 31.0157 4.80391 31.1771H4.57031C4.03159 31.2079 3.50263 31.0248 3.09979 30.6681C2.69696 30.3115 2.45324 29.8104 2.42227 29.2752C2.39129 28.74 2.57559 28.2145 2.93462 27.8143C3.29365 27.4141 3.798 27.172 4.33672 27.1413C4.64141 27.1413 34.0641 23.4484 54.1633 4.03587H49.7047C49.166 4.03587 48.6493 3.82327 48.2684 3.44483C47.8874 3.0664 47.6734 2.55313 47.6734 2.01794C47.6734 1.48275 47.8874 0.969475 48.2684 0.591039C48.6493 0.212602 49.166 0 49.7047 0H59.3836C59.9223 0 60.439 0.212602 60.8199 0.591039C61.2008 0.969475 61.4148 1.48275 61.4148 2.01794V11.6435C61.4148 12.1787 61.2008 12.692 60.8199 13.0704C60.439 13.4488 59.9223 13.6614 59.3836 13.6614C58.8449 13.6614 58.3282 13.4488 57.9473 13.0704C57.5663 12.692 57.3523 12.1787 57.3523 11.6435V11.6637ZM62.9688 16.7993H53.2898C52.7511 16.7993 52.2345 17.0119 51.8535 17.3904C51.4726 17.7688 51.2586 18.2821 51.2586 18.8173V60.9417C51.2586 61.4769 51.4726 61.9902 51.8535 62.3686C52.2345 62.747 52.7511 62.9596 53.2898 62.9596H62.9688C63.5075 62.9596 64.0241 62.747 64.4051 62.3686C64.786 61.9902 65 61.4769 65 60.9417V18.8173C65 18.2821 64.786 17.7688 64.4051 17.3904C64.0241 17.0119 63.5075 16.7993 62.9688 16.7993ZM45.8859 27.1513H36.207C35.6683 27.1513 35.1517 27.3639 34.7707 27.7424C34.3898 28.1208 34.1758 28.6341 34.1758 29.1693V60.9417C34.1758 61.4769 34.3898 61.9902 34.7707 62.3686C35.1517 62.747 35.6683 62.9596 36.207 62.9596H45.8859C46.1527 62.9596 46.4168 62.9074 46.6633 62.806C46.9097 62.7046 47.1336 62.556 47.3223 62.3686C47.5109 62.1812 47.6605 61.9588 47.7626 61.7139C47.8646 61.4691 47.9172 61.2067 47.9172 60.9417V29.1693C47.9172 28.9043 47.8646 28.6419 47.7626 28.397C47.6605 28.1522 47.5109 27.9298 47.3223 27.7424C47.1336 27.555 46.9097 27.4064 46.6633 27.305C46.4168 27.2035 46.1527 27.1513 45.8859 27.1513ZM28.793 32.4383H19.1141C18.5753 32.4383 18.0587 32.6509 17.6777 33.0294C17.2968 33.4078 17.0828 33.9211 17.0828 34.4563V60.9417C17.0828 61.4769 17.2968 61.9902 17.6777 62.3686C18.0587 62.747 18.5753 62.9596 19.1141 62.9596H28.793C29.3317 62.9596 29.8483 62.747 30.2293 62.3686C30.6102 61.9902 30.8242 61.4769 30.8242 60.9417V34.4563C30.8242 33.9211 30.6102 33.4078 30.2293 33.0294C29.8483 32.6509 29.3317 32.4383 28.793 32.4383ZM11.7102 38.7848H2.03125C1.49253 38.7848 0.975873 38.9974 0.59494 39.3758C0.214006 39.7542 0 40.2675 0 40.8027V60.9821C0 61.5173 0.214006 62.0305 0.59494 62.409C0.975873 62.7874 1.49253 63 2.03125 63H11.7102C12.2489 63 12.7655 62.7874 13.1465 62.409C13.5274 62.0305 13.7414 61.5173 13.7414 60.9821V40.8027C13.7414 40.2675 13.5274 39.7542 13.1465 39.3758C12.7655 38.9974 12.2489 38.7848 11.7102 38.7848Z" fill="#50A42A"/>
</svg>
