<svg width="592" height="445" viewBox="0 0 592 480" fill="none" xmlns="http://www.w3.org/2000/svg">
<path d="M176.125 121.463C179.174 117.983 189.102 106.034 186.917 101.152C184.327 95.3798 173.913 110.862 170.46 116.176C169.974 113.533 169.057 110.188 167.573 109.568C167.034 109.325 166.467 109.406 165.954 109.784C161.287 113.074 164.174 117.147 163.364 123.055C163.068 125.239 162.177 127.235 160.775 128.908C160.262 128.26 160.127 127.586 159.453 127.559C158.724 127.505 158.616 128.18 156.89 130.31C156.782 130.203 156.62 129.744 156.107 129.69C155.352 129.609 157.294 128.261 123.572 160.79C120.172 155.126 102.637 126.804 87.8253 120.466C83.158 117.391 76.1167 115.907 71.584 114.666C71.2603 114.37 70.397 114.262 69.9384 114.208C69.7765 113.749 69.6955 113.345 69.6955 112.967C75.1722 113.56 80.9993 111.591 83.4815 109.46C90.685 103.418 92.7079 85.4002 91.0082 70.7267C90.9812 70.457 90.9272 70.1873 90.9003 69.9445C93.733 65.9794 93.1664 58.5082 92.3841 54.1379C93.0315 53.6524 93.5171 53.1129 93.8139 52.4386C106.143 25.4657 64.92 29.7815 60.7927 30.1046C56.665 30.4283 47.2768 26.3553 39.3178 43.8341C39.3178 43.8341 27.4746 41.3256 27.744 63.8211C28.0677 89.877 38.0229 96.2428 44.7401 94.4627C45.2527 94.5436 45.6843 94.5975 45.9811 94.6245C46.4397 95.4067 47.5458 97.241 49.1915 99.4257C49.7041 105.36 50.6753 110.89 51.053 112.804L46.1429 114.854C34.1644 116.392 25.6121 118.981 20.0552 122.838L20.0282 122.865C-4.35989 133.816 -5.65554 196.909 11.6921 217.728C8.83241 272.43 8.64352 269.436 9.15611 269.948C9.64173 270.407 10.1004 270.083 12.5015 270.002L12.4205 276.907L5.67596 435.781C5.62201 437.858 7.91517 439.422 12.4475 440.474L12.1238 441.985C5.29828 447.434 5.46017 459.949 5.86481 465.128C5.9997 467.043 7.61843 468.554 9.56087 468.554H66.3775C68.32 468.554 69.9387 467.016 70.0736 465.047C70.829 453.88 60.6311 452.693 53.1852 451.803C47.304 451.102 45.5501 450.886 42.2861 446.813C40.9372 445.114 39.3724 443.199 36.243 442.066L36.189 440.825C40.9912 439.908 43.5002 438.371 43.5541 436.321L58.4458 278.579L62.0878 278.498L81.4045 436.64C81.2696 438.879 84.0754 440.497 89.7406 441.414L89.6057 442.008C82.7802 447.456 82.9421 459.972 83.3467 465.151C83.4816 467.066 85.1003 468.577 87.0428 468.577H143.859C145.802 468.577 147.421 467.039 147.555 465.07C148.311 453.903 138.113 452.716 130.667 451.826C124.786 451.125 123.032 450.909 119.768 446.836C118.419 445.137 116.854 443.222 113.725 442.089L113.671 440.551C116.396 439.661 117.826 438.501 117.96 436.991C117.987 436.829 118.77 444.031 97.9697 261.559L99.6694 261.235C100.101 261.154 100.398 260.749 100.371 260.318L96.8366 217.08C100.856 216.082 103.311 215.408 106.522 214.517C106.98 214.437 107.304 214.032 107.25 213.573L107.196 213.007C110.352 213.061 110.46 213.142 110.811 212.764C111.162 212.387 111 211.955 111 211.82C117.394 213.465 123.761 212.656 124.273 206.075C124.3 205.616 124.327 205.185 124.354 204.753C142.781 199.817 170.19 154.071 171.351 152.101C171.513 151.805 171.513 151.454 171.324 151.157L170.784 150.402L172.808 148.325C173.104 148.028 173.131 147.597 172.916 147.246L172.322 146.329C176.342 144.953 180.119 143.065 183.545 140.638C192.124 134.542 185.271 126.669 176.125 121.463ZM73.9304 139.562L80.2703 140.101L73.6336 186.496C73.121 166.428 72.4465 139.211 71.934 119.117L78.9751 132.873L73.3906 138.079C72.851 138.564 73.175 139.481 73.9304 139.562ZM43.8493 137.539L36.0795 132.522L45.5759 118.415C47.7342 182.773 47.977 190.325 47.977 190.491C44.227 170.504 37.1049 146.551 35.7022 141.939L43.6335 139.107C44.335 138.837 44.4698 137.917 43.8493 137.539ZM49.7846 192.132L48.004 139.022C51.7001 143.068 56.0169 145.037 56.2054 145.118C56.6371 145.307 57.1766 145.118 57.3655 144.633C57.3925 144.579 57.4195 144.498 57.4464 144.444C58.2558 145.523 59.227 146.494 60.3061 147.249L55.0723 165.105L55.0454 191.755L49.7846 192.132ZM70.0453 115.989C70.0723 115.989 70.0993 115.989 70.1263 116.016C70.9896 150.03 70.7738 141.668 70.8277 143.017C70.0453 143.961 69.4518 144.473 69.0471 144.716C67.7792 141.075 65.9716 137.029 63.2198 134.331C69.0471 129.045 69.5598 123.946 70.0453 115.989ZM69.9914 190.572L67.7792 162.304L63.7594 147.225C63.7594 147.225 65.3512 145.445 66.754 143.503C67.0777 144.312 67.4015 145.149 67.6982 146.12C67.8062 146.47 68.1569 146.713 68.5076 146.713C68.7774 146.713 69.6137 146.605 70.8817 145.472L72.0148 190.437L69.9914 190.572ZM46.5205 92.9262C46.4665 92.9262 40.4773 92.6564 37.6719 89.2848C36.4849 87.8552 36.0533 86.048 36.35 83.9171C36.7277 81.1929 37.8068 79.008 40.5586 79.008C42.7169 79.008 44.9561 80.3566 44.983 80.3836C45.1719 80.4915 45.3607 80.5185 45.5766 80.4915L46.0622 83.9171L49.6503 83.4046L49.8931 64.7932C49.8931 64.7932 55.0999 59.4524 54.2096 53.4376C54.2096 53.4376 74.1734 57.8343 85.9365 56.2429C92.3843 73.2088 90.9005 104.417 80.7567 109.192C74.3089 112.293 69.0212 111.188 69.1559 111.188C69.048 111.161 68.9131 111.134 68.8052 111.161C60.6846 109.92 54.4798 103.554 50.8373 98.7796C50.7834 98.6448 50.7024 98.5369 50.5945 98.456C48.5982 95.7587 47.4381 93.6547 47.2762 93.358C47.1143 93.1153 46.8443 92.9531 46.5205 92.9262ZM67.9146 112.725C67.8876 113.426 68.0495 114.208 68.3732 115.098C67.8606 123.406 67.5099 128.126 61.9254 133.143C49.3267 122.759 52.9954 113.993 52.8877 113.507C53.0226 112.994 52.0783 110.027 51.1881 101.854C55.019 106.332 60.7651 111.349 67.9146 112.725ZM60.7381 134.411C59.1464 136.488 57.6895 139.266 56.1248 143.123C54.5061 142.233 50.7292 139.94 47.9234 136.218C47.8425 134.168 48.1662 143.609 47.2489 116.258L50.891 114.747C49.9737 121.518 53.3459 128.287 60.7381 134.411ZM13.337 219.482C14.3082 220.426 15.3065 221.29 16.3856 222.018C24.1823 227.251 39.8296 226.549 49.2182 225.74C49.3531 229.948 49.1103 222.665 49.7848 242.815L49.6229 265.769L10.6933 268.412L13.337 219.482ZM56.0707 224.985L63.7058 232.51L72.4736 222.584L72.4466 222.395C72.5545 222.368 72.6624 222.341 72.7973 222.341C72.8782 225.983 72.5545 213.008 73.2559 240.333C54.938 241.573 52.2665 241.762 51.4847 241.816H51.4308L50.8912 225.551C52.6178 225.389 54.3441 225.201 56.0707 224.985ZM48.1663 452.827C55.3159 454.419 68.3463 453.097 68.3732 463.94L7.48313 463.913C7.21335 459.139 7.34824 450.265 11.395 445.113C11.0983 447.406 11.2871 449.833 12.7709 451.64C13.904 453.043 15.6576 453.852 17.9778 454.041C27.5819 454.85 27.4741 440.635 35.1092 443.468C38.1847 444.466 40.5046 451.128 48.1663 452.827ZM125.677 452.827C132.827 454.419 145.857 453.097 145.884 463.94H85.0212C84.7514 459.166 84.8863 450.292 88.9331 445.14C88.6633 447.459 88.8252 449.833 90.309 451.667C90.5518 451.856 91.7118 453.771 95.5159 454.095C105.093 454.904 105.093 440.662 112.62 443.522C112.62 443.522 112.647 443.522 112.674 443.549C115.696 444.466 118.016 451.128 125.677 452.827ZM90.9021 439.853C85.3985 439.071 83.0515 437.695 83.1323 436.697C83.1593 436.535 83.9956 443.549 63.7079 277.527C63.6539 277.095 63.2762 276.771 62.8446 276.771C62.7367 276.771 57.5029 276.906 57.6108 276.906C57.1792 276.906 56.8014 277.257 56.7745 277.689L41.8283 436.21C41.8013 437.154 40.0207 438.449 35.1376 439.285C23.8338 441.227 7.29631 439.096 7.40406 435.832C7.53895 432.542 6.48681 457.384 14.1486 276.876L42.5031 274.259C52.1611 273.369 59.4184 265.089 58.9867 255.405L58.8248 251.17C62.7637 251.089 66.8377 250.846 70.965 250.415L72.4758 271.535L96.9454 268.001L116.208 436.908C115.669 439.767 101.613 441.364 90.9021 439.853ZM98.5641 259.67L75.8211 263.851L75.0118 241.112L74.5261 222.016C82.3228 220.532 89.4994 218.887 95.1378 217.484L98.5641 259.67ZM17.3304 220.559C-4.0907 206.236 -4.00921 135.322 20.8106 124.342C20.8376 124.342 20.8376 124.315 20.8645 124.315C20.8915 124.288 20.9185 124.288 20.9725 124.261C26.0444 120.755 33.7874 118.3 44.6057 116.763C33.7066 133.109 33.9221 132.219 34.0574 132.893C34.1923 133.54 34.2193 133.19 41.4764 137.991L34.4083 140.499C33.9766 140.661 33.7338 141.12 33.8687 141.578C33.9497 141.875 42.6095 170.062 46.6298 192.342L35.5684 193.205C35.5954 188.377 35.6224 166.124 33.3562 148.079C33.3022 147.593 32.8436 147.27 32.385 147.323C31.8994 147.377 31.5756 147.809 31.6296 148.294C34.1656 168.444 33.8418 193.88 33.8418 194.149C33.8418 194.634 34.2195 195.039 34.759 195.012C44.1207 194.284 88.0686 190.885 103.068 189.725C103.095 189.941 105.631 214.541 105.469 213.003C87.0157 218.155 33.1945 231.186 17.3304 220.559ZM95.6772 184.819C96.6754 186.087 97.6466 187.247 98.5639 188.326C98.2671 188.353 99.67 188.245 95.5423 188.568C95.5963 187.408 95.6502 186.168 95.6772 184.819ZM122.521 205.912C122.386 207.692 121.738 208.96 120.551 209.742C117.718 211.658 112.62 210.471 110.758 209.931L108.707 192.776C111 190.78 111.594 188.326 112.322 185.574C112.781 183.929 113.51 181.177 114.076 180.962C114.076 180.962 114.13 180.962 114.292 181.096C117.125 183.335 115.371 190.133 114.939 190.996C114.373 191.778 115.371 192.776 116.153 192.209C118.77 190.321 132.151 182.769 132.637 185.817C133.15 189.054 124.57 193.073 119.04 194.853C118.095 195.15 118.311 196.525 119.309 196.525C119.309 196.525 120.119 196.552 120.928 197.442C121.872 198.44 122.925 200.76 122.521 205.912ZM124.328 202.918C124.22 200.329 123.654 197.389 121.657 195.743C126.001 194.125 135.119 190.16 134.364 185.52C133.473 180.098 121.873 186.653 117.178 189.512C118.824 182.014 115.506 178.696 113.59 179.343C112.133 179.828 111.486 182.175 110.677 185.142C110.029 187.489 109.705 188.999 108.437 190.564L108.275 189.188C108.222 188.676 107.709 188.325 107.223 188.46L105.659 188.81C102.071 182.661 99.8043 175.782 99.0759 168.715C98.8331 166.449 98.8871 147.865 95.326 143.63C95.299 143.36 95.299 143.091 95.272 142.821C95.245 142.335 94.8134 142.012 94.3547 142.039C92.1965 142.2 95.5148 144.062 93.8422 188.702L74.8763 190.159L82.1067 139.395C82.1876 138.909 81.8099 138.451 81.3243 138.424L76.0096 137.965L80.6499 133.65C80.9467 133.38 81.0006 132.975 80.8388 132.625L72.6912 116.737C85.8839 120.082 85.9378 121.646 87.1243 122.024C102.745 128.686 122.412 162.214 122.601 162.565C122.736 162.808 122.978 162.942 123.221 162.996C124.004 163.104 122.061 164.426 155.865 131.842L169.57 151.614C166.576 156.577 141.109 197.82 124.328 202.918ZM171.298 144.818L161.774 130.387C163.582 128.391 164.715 125.937 165.066 123.267C165.902 117.144 163.285 113.799 166.873 111.156C167.548 111.479 168.627 115.067 169.085 118.681C169.193 119.49 170.245 119.706 170.677 119.032C175.992 110.562 183.006 101.526 185.11 101.634C185.164 101.634 185.245 101.634 185.326 101.877C186.81 105.195 179.229 115.444 174.103 121.136C173.725 121.541 173.833 122.215 174.346 122.485C174.454 122.539 185.299 128.176 185.703 133.975C185.838 135.891 184.786 137.617 182.493 139.235C179.094 141.636 175.317 143.496 171.298 144.818Z" fill="#0A2D47"/>
<path d="M65.5666 79.1964C66.9425 79.1964 67.9946 77.5241 67.9946 75.5011C67.9676 73.4511 66.8616 71.8327 65.4857 71.8327C64.1368 71.8597 63.0576 73.5051 63.0576 75.555C63.1116 77.578 64.2447 79.2234 65.5666 79.1964Z" fill="#0A2D47"/>
<path d="M83.2402 68.887C81.8913 68.914 80.8122 70.5594 80.8391 72.6093C80.8661 74.6323 81.9992 76.2777 83.3481 76.2507C84.724 76.2507 85.7761 74.5783 85.7761 72.5553C85.7222 70.5323 84.6161 68.887 83.2402 68.887Z" fill="#0A2D47"/>
<path d="M69.1303 69.619C67.3498 66.7599 62.2509 67.0026 60.8212 70.5361C63.4111 69.7269 64.0316 68.9447 69.1303 69.619Z" fill="#0A2D47"/>
<path d="M82.6463 66.4634C83.9413 66.3015 85.2633 66.4634 86.8819 66.6791C85.1283 63.9009 80.0025 64.0088 78.5458 67.5962C79.8678 67.1916 80.6769 66.7061 82.6463 66.4634Z" fill="#0A2D47"/>
<path d="M78.9997 82.5109C78.9997 80.4069 76.8144 74.4456 75.3306 71.8293C75.4385 74.6884 76.1939 77.9252 76.9223 80.5954C77.354 81.998 77.6508 83.2927 76.9223 83.8861C75.8971 84.7492 74.3324 84.1558 73.1184 83.8591C73.658 84.3716 74.2785 84.8571 75.0338 85.1538C77.0842 85.8821 78.9997 84.6957 78.9997 82.5109Z" fill="#0A2D47"/>
<path d="M64.6481 92.9239C64.1355 92.9239 63.7578 93.3555 63.7848 93.868C63.7848 94.0029 64.0816 97.2667 66.2669 99.8561C69.3424 103.471 75.3585 104.118 78.434 100.989C81.1858 98.2917 81.1588 93.8138 81.1588 93.5984C81.1588 93.3556 81.0508 93.1398 80.889 92.978C80.4303 92.5194 81.0782 92.816 64.6481 92.9239ZM77.2469 99.7482C76.2217 98.8311 74.5221 97.9679 71.7973 98.0758C69.9628 98.1567 68.6678 98.4804 67.7505 98.858C66.6714 97.6712 65.9969 96.1607 65.6732 94.6502L79.4053 94.4884C79.2704 95.7561 78.8116 98.1837 77.2469 99.7482Z" fill="#0A2D47"/>
<path d="M579.856 149.139C576.538 138.188 568.579 129.259 563.912 126.859C563.804 126.805 563.669 126.751 563.561 126.697C564.91 101.531 566.286 43.4275 530.054 41.9498C499.163 40.6821 494.469 54.7085 494.146 90.4474C494.011 105.229 497.437 119.74 501.511 131.635C492.122 138.81 487.832 153.187 484.488 164.678C482.599 164.948 481.385 166.674 481.682 168.481L482.329 172.554C480.333 180.322 476.151 198.664 478.31 208.024C474.371 211.854 474.182 217.842 476.367 222.482C478.714 227.445 482.653 232.624 488.156 232.624C489.829 232.624 491.097 232.084 491.717 231.464L493.471 242.442C493.552 243.116 492.257 245.975 495.575 248.942C485.027 446.119 485.836 432.82 486.16 433.172C486.619 433.657 486.78 433.361 492.662 433.442C488.291 439.834 478.525 452.404 477.554 453.645C474.883 454.724 459.1 461.359 458.858 467.24C458.642 472.257 467.464 472.688 472.482 472.688C476.772 472.688 482.113 472.311 488.615 471.582C498.948 470.422 505.261 463.922 507.932 460.496L508.525 471.851C508.552 472.31 508.93 472.661 509.389 472.661H517.105C517.563 472.661 517.914 472.31 517.968 471.878C518.238 469.154 519.748 450.705 520.072 443.988C520.342 438.728 518.858 435.195 517.887 433.442H518.831C519.29 433.442 519.641 433.091 519.694 432.659C522.257 403.771 531.942 299.818 532.833 290.213L537.554 289.728C538.957 300.112 552.986 403.849 556.951 432.713C557.005 433.144 557.383 433.468 557.815 433.468H560.405C556.169 439.672 546.78 451.782 545.324 453.671C542.707 454.723 526.843 461.358 526.601 467.266C526.385 472.283 535.207 472.714 540.225 472.714C544.515 472.714 549.856 472.337 556.358 471.608C566.691 470.449 573.004 463.948 575.675 460.522L576.268 471.878C576.295 472.336 576.673 472.687 577.132 472.687H584.874C585.333 472.687 585.684 472.336 585.738 471.905C587.195 455.694 587.842 444.149 587.842 444.014C588.085 438.727 586.601 435.194 585.63 433.468C589.542 433.387 589.973 433.684 590.432 433.171C590.918 432.632 591.43 440.966 570.737 244.737C572.329 243.199 573.166 241.554 573.139 239.8C573.139 239.585 573.408 240.691 568.067 221.054C575.243 220.623 583.525 219.247 587.95 215.417C596.151 208.269 586.412 170.826 579.856 149.139ZM512.464 114.208C498.031 110.189 497.302 76.7962 502.968 61.6912C508.93 69.3518 540.468 72.2644 540.468 72.2644L541.628 87.5579H545.135C544.568 85.2652 545.135 83.1613 545.54 82.0553C545.701 82.1362 545.863 82.1632 546.025 82.1362C550.315 81.4889 555.278 82.0284 555.333 86.5059C555.144 87.2881 555.98 92.9525 549.155 97.0791C545.486 99.2909 542.599 102.096 540.792 104.793C534.209 114.45 523.93 117.499 512.464 114.208ZM517.185 126.4C518.912 125.942 520.746 125.564 522.689 125.213C523.121 125.132 523.444 124.728 523.39 124.296L522.797 117.148C531.484 116.635 537.23 112.158 540.792 107.761L539.712 123.082C539.685 123.568 540.036 123.972 540.495 123.999L547.482 124.566C547.104 131.147 544.191 144.472 526.763 144.903C520.8 145.038 516.942 143.717 515.216 140.938C512.491 136.596 515.54 129.556 517.185 126.4ZM484.973 166.375H538.471C539.253 166.375 539.928 166.941 540.063 167.75L544.568 196.099C543.867 196.153 543.138 196.261 542.41 196.423C536.475 197.799 532.752 199.795 531.699 202.222C530.836 204.218 531.969 206.214 533.804 206.808C532.751 207.779 531.726 208.993 531.726 210.045C531.726 210.611 531.969 211.096 532.455 211.42C533.561 212.202 535.503 212.041 537.203 211.69C536.124 213.012 535.287 214.441 535.584 215.412C536.151 217.354 539.928 216.383 541.897 215.817C540.683 217.165 539.685 218.703 539.901 219.917C539.982 220.348 540.278 221.104 541.411 221.481C543.57 222.182 546.268 221.373 548.453 220.402L551.906 242.008C552.068 243.006 551.285 243.869 550.314 243.869H496.816C496.034 243.869 495.359 243.275 495.224 242.52L492.769 227.091C498.381 225.392 500.512 221.427 494.01 220.079C495.872 219.377 499.217 217.975 498.543 216.14C498.192 215.223 496.762 214.603 495.224 214.198C496.708 213.497 498.273 212.499 498.65 211.285C498.812 210.746 498.731 210.206 498.408 209.775C497.787 208.965 496.33 208.615 494.981 208.453C496.007 206.943 495.764 204.758 493.929 203.733C492.769 203.085 491.097 202.95 488.992 203.274L483.408 168.236C483.219 167.265 483.975 166.375 484.973 166.375ZM556.275 207.266C557.921 215.278 555.736 219.026 554.306 220.564C552.903 222.075 551.419 222.317 551.068 222.237C550.906 222.048 550.825 220.861 551.716 218.433C551.905 217.867 551.473 217.3 550.906 217.3C550.475 217.3 550.367 217.57 548.748 218.352C545.942 219.782 543.46 220.294 541.95 219.836C541.788 219.782 541.626 219.701 541.599 219.593C541.437 218.703 543.784 216.087 545.996 214.333C546.725 213.74 546.05 212.499 545.106 212.877C542.489 213.929 538.928 215.035 537.282 214.792C537.471 214.064 538.928 212.175 540.574 210.611C541.248 209.964 540.547 208.858 539.683 209.181C537.714 209.91 534.396 210.665 533.478 210.045C533.424 209.532 534.989 207.887 536.689 206.7C537.471 206.133 536.851 204.893 535.933 205.162C532.588 206.053 529.809 201.116 542.813 198.096C545.565 197.448 548.37 197.61 550.853 199.121C554.009 201.009 555.763 204.704 556.275 207.266ZM483.032 176.975L487.268 203.652C485.163 204.192 481.872 205.378 479.795 206.835C478.743 200.82 479.903 190.192 483.032 176.975ZM487.268 230.868C485.244 230.571 481.359 229.034 477.933 221.778C476.908 219.593 476.125 215.871 477.339 212.607C478.257 210.153 480.145 208.265 483.005 207.024C494.876 201.764 495.253 207.348 492.34 208.427C491.422 208.75 491.692 210.126 492.663 210.099C494.633 210.045 496.764 210.396 497.034 210.773C496.71 211.798 493.743 213.093 491.827 213.686C490.937 213.956 491.045 215.251 491.962 215.359C494.066 215.628 496.251 216.222 496.845 216.653C495.55 217.921 491.287 219.243 489.723 219.647C488.752 219.89 488.914 221.32 489.912 221.347C490.775 221.374 490.775 221.401 490.883 221.401C491.8 221.401 495.874 221.967 496.306 222.83C496.36 222.911 496.225 223.127 496.171 223.181C494.687 225.285 489.966 226.067 488.293 226.202C487.457 226.256 487.187 227.362 487.916 227.793C489.399 228.71 490.587 229.897 490.56 230.248C490.29 230.518 489.102 231.138 487.268 230.868ZM490.532 227.631C490.694 227.604 490.883 227.55 491.072 227.523L491.18 228.279C490.991 228.036 490.775 227.82 490.532 227.631ZM514.893 433.467C510.766 439.32 504.102 447.736 498.302 451.971C496.467 453.292 494.714 454.209 492.367 454.776C488.185 455.801 483.49 455.315 479.471 453.994C482.088 450.622 491.126 438.889 494.713 433.467L514.893 433.467ZM582.636 433.467C578.346 439.563 569.525 450.973 562.618 453.939C557.87 455.962 552.07 455.585 547.24 453.993C549.965 450.46 558.922 438.834 562.483 433.466L582.636 433.467ZM588.787 431.741H558.544C554.255 400.452 539.282 289.805 539.147 288.673C539.093 288.214 538.661 287.864 538.203 287.918L531.944 288.565C531.539 288.619 531.215 288.942 531.161 289.347C531.053 290.453 520.802 400.479 518.023 431.711H487.673C489.318 398.399 495.766 277.18 497.223 250.181C510.55 258.408 555.739 255.522 569.119 246.027L588.787 431.741ZM571.386 239.936C571.359 241.824 569.848 243.686 566.908 245.439C550.343 255.284 497.305 256.525 495.039 245.088C496.577 246.059 494.311 245.412 550.291 245.601H555.767C557.818 245.601 559.383 243.767 559.059 241.744L555.821 221.433C555.929 221.325 556.01 221.19 556.118 221.082C559.248 221.271 562.755 221.298 566.262 221.163L571.386 239.936ZM557.196 219.382C559.381 215.067 558.76 208.242 557.223 204.385L567.636 198.883C568.014 198.667 568.203 198.208 568.041 197.804C567.96 197.561 558.922 174.256 557.115 161.255C556.71 158.422 556.17 154.161 555.901 149.845C555.874 149.36 555.415 149.009 554.983 149.036C554.498 149.063 554.147 149.468 554.174 149.953C554.201 150.439 554.228 150.951 554.282 151.437C550.856 159.907 558.437 170.614 558.679 180.568C558.76 183.94 560.163 193.569 560.973 200.447L556.494 202.794C555.496 200.933 554.066 199.126 552.097 197.831L547.241 167.459C546.971 165.814 545.595 164.627 543.949 164.627H494.984C496.576 162.038 496.818 162.065 496.71 161.498C496.71 161.471 495.793 157.506 495.281 153.028C495.227 152.543 494.795 152.219 494.309 152.273C493.824 152.327 493.5 152.759 493.554 153.244C493.608 153.676 493.662 154.107 493.716 154.512C492.313 157.587 491.612 160.419 490.371 164.627H486.297C493.122 141.322 498.275 132.043 514.921 127.026C509.228 139.191 512.897 146.959 526.764 146.608C545.891 146.15 548.778 130.802 549.156 124.733C561.512 126.297 565.019 129.588 564.911 129.534C564.992 129.615 574.3 136.844 578.185 149.629C588.949 185.315 592.159 209.402 586.764 214.095C580.046 219.948 563.076 219.679 557.196 219.382Z" fill="#0A2D47"/>
<path d="M523.416 80.6258C522.256 80.5179 521.177 81.8126 521.015 83.5389C520.853 85.2652 521.636 86.7757 522.796 86.8836C523.956 86.9915 525.035 85.6967 525.197 83.9705C525.359 82.2442 524.549 80.7607 523.416 80.6258Z" fill="#0A2D47"/>
<path d="M520.073 77.7394C522.07 77.7934 523.931 77.7664 526.09 78.4407C526.737 78.6295 527.358 78.8993 528.14 79.142C526.98 75.8782 522.097 75.2848 520.073 77.7394Z" fill="#0A2D47"/>
<path d="M507.2 78.3057C506.04 78.1978 504.961 79.4926 504.799 81.2188C504.637 82.9451 505.419 84.4556 506.579 84.5635C507.739 84.6714 508.818 83.3767 508.98 81.6504C509.169 79.9241 508.36 78.4136 507.2 78.3057Z" fill="#0A2D47"/>
<path d="M511.952 76.8211C510.765 73.4764 505.855 72.9909 503.885 75.4185C505.477 75.4455 506.772 75.4455 508.013 75.6883C509.847 75.958 510.846 76.4975 511.952 76.8211Z" fill="#0A2D47"/>
<path d="M510.819 93.573C510.846 96.0545 513.598 97.7808 516.646 94.8138C515.459 95.1375 513.921 95.7309 512.896 94.8947C512.168 94.3013 512.438 93.0336 512.869 91.6579C513.544 88.9876 514.245 85.8047 514.326 82.9726C512.95 85.4542 511.952 88.5561 511.197 91.2263C511.008 91.9007 510.792 92.6829 510.819 93.573Z" fill="#0A2D47"/>
<path d="M523.603 100.554C509.061 100.635 509.547 100.338 509.061 100.797C508.899 100.959 508.818 101.175 508.818 101.417C508.818 101.579 508.872 105.625 511.354 107.999C512.784 109.428 514.646 109.887 516.669 109.725C519.016 109.509 520.905 108.565 522.308 106.866C524.25 104.519 524.466 101.606 524.493 101.471C524.493 100.986 524.088 100.554 523.603 100.554ZM520.797 105.922C519.988 105.598 518.855 105.355 517.29 105.301C514.916 105.221 513.432 105.976 512.515 106.785C511.166 105.49 510.734 103.44 510.572 102.28H522.551C522.308 103.575 521.768 104.843 520.797 105.922Z" fill="#0A2D47"/>
<path d="M434.82 239.575C446.34 238.146 453.597 234.72 456.349 229.352C467.194 208.394 445.288 156.199 431.259 144.626L431.232 144.599C430.612 144.249 426.079 139.636 412.024 137.506L406.224 132.623V118.975C409.677 115.603 421.224 102.845 422.924 86.9307C424.003 76.7884 421.413 73.6866 419.524 72.7157C420.172 69.5329 419.47 66.1612 418.148 63.1673C416.772 60.1463 414.749 57.4759 412.699 54.8597C407.33 48.0894 401.395 41.5348 393.733 37.543C386.098 33.551 376.413 32.5259 368.94 36.8417C364.624 39.3502 361.224 43.4501 356.503 45.0954C353.562 46.1204 350.352 46.0664 347.411 47.1184C344.498 48.1703 341.719 50.9486 342.339 53.9965C343.068 57.53 347.843 59.4182 347.789 63.0057C346.062 62.1696 343.796 62.736 342.69 64.2734C341.584 65.7839 341.746 68.1306 343.068 69.5062C344.659 71.1516 347.411 71.1516 349.462 70.0996C350.514 69.5602 351.431 68.8049 352.24 67.9418C352.645 77.6794 356.206 84.9077 356.125 86.4994C355.586 96.3716 354.102 122.644 372.096 129.252C375.334 130.574 379.623 131.005 383.913 129.764C383.697 133.46 383.724 133.001 383.67 133.783L377.114 138.666C370.127 140.176 361.386 143.008 356.773 148.457L337.914 168.687C309.237 146.596 267.206 160.487 257.468 195.391C256.173 195.526 254.905 195.903 254.15 196.658C248.107 202.592 248.754 216.591 252.72 220.125C254.042 221.312 255.634 221.986 257.306 222.283C262 239.977 276.11 254.192 294.077 258.696C315.012 264.037 337.431 255.783 349.653 236.902C350.705 245.992 351.73 252.6 352.054 254.543L352.162 266.007C349.302 319.468 342.693 443.973 342.747 445.865C342.747 446.998 344.041 447.538 347.764 447.915L347.737 448.293C341.64 450.532 342.423 455.36 336.353 456.681C329.959 458.111 315.445 456.87 316.308 469.682C316.443 471.543 317.981 473 319.815 473H372.612C374.446 473 375.984 471.57 376.092 469.763C376.47 464.935 376.605 453.283 370.265 448.212L370.157 447.753C374.338 447.267 375.175 446.62 375.175 445.649C375.202 443.599 383.835 350.462 388.475 300.827L392.981 300.342C394.707 313.127 412.081 441.683 412.729 445.73C412.81 446.917 414.348 447.618 417.882 448.103V448.265C411.785 450.504 412.567 455.332 406.497 456.654C400.103 458.083 385.589 456.842 386.453 469.655C386.587 471.516 388.125 472.972 389.96 472.972H442.756C444.591 472.972 446.128 471.543 446.236 469.736C446.614 464.907 446.749 453.255 440.409 448.184L440.382 448.022C443.754 447.51 445.103 446.808 445.103 445.567L431.047 267.056V258.073C431.938 254.324 433.448 247.068 434.824 239.57L434.82 239.575ZM376.952 254.869C376.952 254.707 377.06 254.599 377.168 254.599H398.075C398.21 254.599 398.291 254.734 398.291 254.869V268.436C398.291 268.571 398.237 268.652 398.075 268.706L377.168 268.733C377.06 268.733 376.952 268.625 376.952 268.463V254.869ZM430.18 254.168C429.829 254.195 416.016 254.788 400.045 254.734C399.964 253.682 399.128 252.873 398.102 252.873H377.168C376.385 252.873 375.711 253.358 375.414 254.06C364.893 253.412 357.419 252.28 353.238 250.715C352.752 247.478 352.051 242.488 351.376 236.392C356.179 236.5 361.628 235.206 366.133 233.506V233.56C366.107 233.965 366.403 234.342 366.808 234.45L367.078 234.504C367.401 234.585 395.998 240.358 420.791 240.358C425.054 240.358 429.154 240.169 433.039 239.791C432.014 245.213 431.124 249.717 430.18 254.168ZM357.987 214.193C358.769 214.112 359.039 213.168 358.418 212.683C358.391 212.656 358.364 212.629 358.31 212.602C357.96 212.413 357.933 212.386 357.771 212.278C357.906 209.877 357.933 207.693 357.717 204.968C361.952 207.423 366.377 210.767 367.618 211.712L366.296 231.564C363.787 232.562 352.078 236.824 345.037 233.236C342.42 231.914 340.721 229.595 339.992 226.385C339.156 222.798 339.668 219.938 341.503 217.915C346.143 212.817 357.555 214.22 357.987 214.193ZM454.815 228.57C445.993 245.671 386.587 236.608 367.863 232.912L367.89 232.535C367.998 232.292 369.347 211.468 369.347 211.334C369.347 211.118 369.266 210.902 369.104 210.74C369.077 210.713 369.077 210.686 369.05 210.66L369.158 208.717C456.11 203.08 412.836 205.885 425.38 205.076C425.947 205.049 426.325 204.456 426.136 203.916C426.082 203.754 420.147 187.49 417.664 175.432C417.557 174.974 417.098 174.677 416.639 174.758C416.181 174.866 415.884 175.325 415.965 175.783C416.342 177.563 416.774 179.452 417.26 181.367C418.069 190.376 418.231 195.312 411.81 200.626C409.787 202.298 401.99 204.078 394.382 205.373C389.904 205.67 370.965 206.911 368.268 207.072C367.836 207.099 367.485 207.45 367.458 207.882L367.377 209.392C365.192 207.774 361.226 204.914 357.476 202.891C356.505 194.988 353.726 187.436 349.248 180.747C351.298 153.504 358.96 148.999 359.23 148.325C362.656 145.034 368.645 142.364 376.496 140.584C375.956 146.491 378.25 153.126 382.647 158.143C383.052 158.602 383.807 158.521 384.077 157.954C386.613 152.749 389.284 149.862 392.494 148.784C395.57 149.512 396.865 153.342 398.807 159.088C399.185 159.951 399.104 160.652 399.779 160.868C400.048 160.949 400.345 160.895 400.561 160.706C407.144 155.554 410.894 146.437 412.323 139.316C420.282 140.584 426.433 142.876 430.156 145.978C441.703 154.61 465.741 207.476 454.815 228.57ZM373.478 127.906C358.019 122.674 357.021 102.848 357.911 86.6101C358.154 82.1595 357.83 79.8398 358.127 75.8208C358.559 73.8787 359.125 72.1254 359.935 70.8577C363.091 65.9486 367.57 71.3972 374.287 73.3123C381.032 75.2274 389.287 70.5071 395.816 70.3992C402.345 70.3182 402.992 81.917 401.994 85.855C400.51 91.6812 406.121 103.091 405.042 90.8719C405.663 90.818 405.609 90.3595 406.796 89.3884C408.792 87.6892 411.679 86.3405 413.702 87.1767C416.94 88.4714 417.452 95.5927 416.562 98.9368C414.889 101.742 409.979 105.303 406.364 104.574C405.986 104.52 405.609 104.709 405.447 105.06C405.366 105.329 392.12 134.029 373.478 127.906ZM404.503 110.617C404.449 135 404.665 132.788 404.287 133.787C402.911 137.293 395.492 144.144 392.605 146.653C391.041 144.63 385.24 136.808 385.429 134.245C385.456 133.922 385.726 129.309 385.726 129.174C394.547 125.722 401.104 116.415 404.503 110.617ZM352.651 155.419C350.87 159.6 349.764 164.158 349.009 168.636C347.066 170.632 345.393 172.844 344.989 174.247C344.908 174.49 344.854 174.732 344.773 175.002C343.073 173.114 341.239 171.361 339.323 169.742L352.651 155.419ZM255.422 197.848C256.312 196.985 258.578 196.958 259.873 197.093C263.893 197.551 266.591 200.006 265.943 201.705C265.458 202.946 263.407 203.782 262.652 203.998C261.977 204.187 261.815 205.05 262.328 205.481C263.704 206.641 267.211 210.31 265.916 211.55C264.378 213.061 262.949 212.602 262.382 212.333C261.465 211.901 260.682 213.142 261.465 213.789C263.38 215.354 265.269 217.538 265.188 218.671C265.161 218.86 265.107 219.103 264.702 219.319C261.519 221.207 256.798 221.315 253.938 218.779C250.646 215.866 250.161 202.999 255.422 197.848ZM294.54 257C277.247 252.657 263.866 239.063 259.199 222.448C261.6 222.501 263.866 221.827 265.566 220.829C266.591 220.236 266.861 219.4 266.915 218.806C267.022 217.296 265.754 215.569 264.513 214.248C265.323 214.086 266.213 213.654 267.13 212.791C269.289 210.714 266.645 207.262 264.486 205.13C267.913 203.539 268.398 201.165 267.076 199.061C265.539 196.661 262.22 195.474 259.334 195.312C265.512 174.004 284.963 159.708 306.762 159.708C334.873 159.708 357.912 183.39 356.051 212.306C344.801 211.739 335.79 215.758 338.299 226.764C339.459 231.889 342.778 235.071 348.12 236.043C336.195 254.412 314.477 262.098 294.54 257ZM374.476 468.581H318.064C318.091 458.601 330.123 459.815 336.787 458.331C344.098 456.712 342.992 450.967 349.575 449.484C355.833 447.893 356.049 459.599 364.17 459.518C368.837 459.491 371.589 456.497 370.995 451.345C374.584 456.146 374.718 464.211 374.476 468.581ZM444.618 468.581H388.206C388.233 458.601 400.265 459.815 406.928 458.331C413.97 456.766 412.972 451.588 419.096 449.673C419.905 449.43 420.741 449.214 421.658 449.403C425.786 450.293 427.081 458.844 433.475 459.491C438.682 460.003 441.784 456.604 441.164 451.345C444.725 456.146 444.861 464.211 444.618 468.581ZM439.249 446.436C433.718 447.137 424.6 447.137 418.934 446.463C418.422 446.382 415.346 446.031 414.483 445.411C413.916 441.986 394.815 300.672 394.627 299.243C394.573 298.784 394.141 298.461 393.683 298.488L387.639 299.135C387.235 299.189 386.911 299.513 386.857 299.917C386.318 305.662 374.015 437.723 373.503 445.277C370.319 446.761 348.089 447.004 344.501 445.466C344.663 440.476 348.116 374.309 353.863 266.906C356.534 267.257 364.843 268.255 375.365 269.091C375.635 269.846 376.336 270.386 377.172 270.386C399.267 270.359 398.08 270.467 398.593 270.305C408.251 270.494 419.906 270.278 429.484 268.659L443.405 445.39C443.162 445.633 442.244 446.058 439.249 446.436Z" fill="#0A2D47"/>
<path d="M386.613 87.5862C385.264 87.5862 384.158 89.2316 384.158 91.2546C384.158 93.2776 385.237 94.923 386.613 94.923C387.962 94.923 389.068 93.2776 389.068 91.2546C389.041 89.2316 387.962 87.5862 386.613 87.5862Z" fill="#0A2D47"/>
<path d="M368.615 91.2528C368.615 89.2298 367.509 87.5845 366.16 87.5845C364.811 87.5845 363.705 89.2298 363.705 91.2528C363.705 93.2758 364.784 94.9212 366.16 94.9212C367.509 94.9212 368.615 93.2758 368.615 91.2528Z" fill="#0A2D47"/>
<path d="M382.4 84.5894C384.774 84.2657 386.96 83.996 389.495 84.6163C390.278 84.7782 391.033 85.0749 391.923 85.3176C389.873 81.6763 384.478 81.8381 382.4 84.5894Z" fill="#0A2D47"/>
<path d="M370.231 84.0507C367.668 80.8409 362.327 81.785 360.708 84.8869C362.434 84.3744 363.918 83.9159 365.429 83.781C367.56 83.5652 368.963 83.9159 370.231 84.0507Z" fill="#0A2D47"/>
<path d="M374.575 105.843C375.519 105.493 376.167 104.872 376.76 104.225C375.951 104.576 375.142 104.98 374.386 105.007C373.118 105.115 372.228 104.198 372.552 102.121C372.741 100.664 374.359 94.7843 374.413 89.3355C372.606 93.4084 371.041 100.125 370.906 101.986C370.879 102.903 370.906 104.009 371.608 104.953C372.363 105.87 373.496 106.167 374.575 105.843Z" fill="#0A2D47"/>
<path d="M383.913 109.379C367.807 109.46 368.158 109.163 367.698 109.622C367.536 109.784 367.456 109.999 367.456 110.242C367.456 110.431 367.51 114.908 370.261 117.552C371.853 119.116 373.876 119.629 376.116 119.44C378.706 119.197 380.81 118.145 382.375 116.284C384.533 113.668 384.776 110.431 384.776 110.296C384.83 109.811 384.425 109.379 383.913 109.379ZM380.891 115.34C379.974 114.962 378.679 114.666 376.871 114.612C374.147 114.531 372.474 115.421 371.449 116.338C369.857 114.828 369.371 112.4 369.236 111.132H382.915C382.591 112.616 381.97 114.126 380.891 115.34Z" fill="#0A2D47"/>
<path d="M300.089 200.306C300.089 196.988 303.165 195.855 306.51 195.855C308.318 195.855 309.828 196.233 311.042 197.015C312.256 197.797 312.985 198.769 313.201 199.928C313.497 200.576 314.01 200.899 314.792 200.899C319.999 200.792 320.215 201.142 320.782 200.576C320.997 200.36 321.105 200.09 321.105 199.767C320.863 195.613 316.762 190.784 309.721 189.813C309.613 186.145 309.964 185.579 309.37 185.012C309.127 184.769 308.83 184.662 308.426 184.662C305.215 184.742 304.757 184.446 304.136 185.012C303.516 185.606 303.84 186.226 303.759 189.706C295.935 190.677 292.292 195.424 292.292 200.468C292.292 203.597 293.291 205.971 295.287 207.643C301.438 212.768 314.495 211.77 314.495 217.596C314.495 219.08 313.848 220.24 312.553 221.103C309.639 223.045 300.764 223.395 299.037 218.028C298.551 217.219 298.12 217.003 297.364 217.003H292.454C291.78 217.003 291.267 217.596 291.267 218.136C291.429 221.885 293.749 224.771 297.067 226.579C298.929 227.604 301.168 228.224 303.785 228.494V232.297C303.785 233.133 304.406 233.592 305.08 233.592C308.183 233.511 308.83 233.807 309.397 233.241C309.99 232.647 309.666 232.027 309.747 228.494C316.681 227.765 322.319 224.178 322.319 217.3C322.319 215.169 321.86 213.416 320.97 212.013C316.195 204.811 300.089 207.211 300.089 200.306Z" fill="#0A2D47"/>
<path d="M258.029 79.1965V5.98808C258.029 2.67036 255.331 0 252.039 0H130.824C127.506 0 124.835 2.69729 124.835 5.98808V79.1965C124.835 82.4872 127.533 85.1846 130.824 85.1846H136.274C138.297 85.1846 140.051 86.6141 140.456 88.6101L142.182 97.1069C142.695 99.6424 145.797 100.586 147.659 98.7793L160.177 86.4253C160.986 85.6161 162.038 85.1845 163.171 85.1845H252.009C255.354 85.1845 258.029 82.4873 258.029 79.1965ZM158.99 85.1846L146.472 97.5386C145.582 98.4017 144.125 97.9432 143.882 96.7563L142.156 88.2596C141.589 85.4813 139.107 83.4583 136.274 83.4583H130.825C128.478 83.4583 126.562 81.5433 126.562 79.1965V5.98815C126.562 3.6415 128.478 1.72636 130.825 1.72636H252.04C254.387 1.72636 256.303 3.64143 256.303 5.98815V79.1965C256.303 81.5432 254.387 83.4583 252.04 83.4583H163.202C161.611 83.4583 160.123 84.0787 158.99 85.1846Z" fill="#0A2D47"/>
<path d="M238.2 34.3406H229.109C227.922 34.3406 226.923 35.3117 226.923 36.4985V72.1305C226.923 73.3173 227.895 74.2883 229.109 74.2883H238.2C239.414 74.2883 240.386 73.3173 240.386 72.1305V36.4985C240.386 35.3117 239.414 34.3406 238.2 34.3406ZM238.659 72.1574C238.659 72.4001 238.443 72.589 238.2 72.589H229.109C228.866 72.589 228.65 72.4001 228.65 72.1574V36.5254C228.65 36.2827 228.839 36.0939 229.109 36.0939H238.2C238.47 36.0939 238.659 36.2827 238.659 36.5254V72.1574Z" fill="#0A2D47"/>
<path d="M153.762 59.9864H144.67C143.483 59.9864 142.512 60.9574 142.512 62.1712V72.1513C142.512 73.3381 143.483 74.3091 144.67 74.3091H153.762C154.976 74.3091 155.947 73.3381 155.947 72.1513V62.1712C155.947 60.9575 154.976 59.9864 153.762 59.9864ZM154.221 72.1512C154.221 72.3939 154.005 72.5828 153.762 72.5828H144.67C144.428 72.5828 144.239 72.3939 144.239 72.1512V62.1712C144.239 61.9015 144.428 61.7126 144.67 61.7126H153.762C154.032 61.7126 154.221 61.9284 154.221 62.1712V72.1512Z" fill="#0A2D47"/>
<path d="M195.981 53.7302H186.889C185.702 53.7302 184.731 54.7012 184.731 55.9151V72.1532C184.731 73.3401 185.702 74.3111 186.889 74.3111H195.981C197.195 74.3111 198.166 73.3401 198.166 72.1532V55.9151C198.166 54.7013 197.195 53.7302 195.981 53.7302ZM196.44 72.1532C196.44 72.3959 196.224 72.5847 195.981 72.5847H186.889C186.647 72.5847 186.458 72.3959 186.458 72.1532V55.915C186.458 55.6723 186.647 55.4565 186.889 55.4565H195.981C196.224 55.4565 196.44 55.6723 196.44 55.915V72.1532Z" fill="#0A2D47"/>
<path d="M217.108 40.6795H208.016C206.802 40.6795 205.831 41.6505 205.831 42.8643V72.1574C205.831 73.3442 206.802 74.3152 208.016 74.3152H217.108C218.295 74.3152 219.293 73.3442 219.293 72.1574V42.8643C219.266 41.6505 218.295 40.6795 217.108 40.6795ZM217.54 72.1573C217.54 72.4 217.351 72.5889 217.081 72.5889H207.989C207.747 72.5889 207.531 72.3731 207.531 72.1573V42.8643C207.531 42.6215 207.747 42.4057 207.989 42.4057H217.081C217.324 42.4057 217.54 42.5945 217.54 42.8643V72.1573Z" fill="#0A2D47"/>
<path d="M174.882 52.2733H165.79C164.576 52.2733 163.605 53.2443 163.605 54.4311V72.1256C163.605 73.3124 164.576 74.2834 165.79 74.2834H174.882C176.069 74.2834 177.04 73.3124 177.04 72.1256V54.4311C177.04 53.2443 176.069 52.2733 174.882 52.2733ZM175.314 72.1525C175.314 72.3953 175.125 72.5841 174.882 72.5841H165.79C165.521 72.5841 165.332 72.3953 165.332 72.1525V54.458C165.332 54.2153 165.548 54.0265 165.79 54.0265H174.882C175.125 54.0265 175.314 54.2153 175.314 54.458V72.1525Z" fill="#0A2D47"/>
<path d="M170.324 45.2646C174.532 45.2646 177.284 40.7061 175.099 36.93L187.671 26.1677C190.422 28.6223 194.415 27.894 196.196 24.9269L207.149 29.89C206.286 33.4235 208.983 36.7412 212.518 36.7412C216.672 36.7412 219.559 32.2367 217.266 28.3528L230.215 16.8081C233.992 19.7212 239.199 16.9699 239.199 12.4654C239.199 9.41737 236.717 6.90887 233.642 6.90887C229.46 6.90887 226.601 11.4404 228.921 15.3518L215.971 26.8696C213.3 24.7387 209.685 25.467 207.904 28.1104L196.843 23.0934C197.49 19.5059 194.712 16.5389 191.393 16.5389C187.481 16.5389 184.487 20.6388 186.483 24.6041L173.804 35.4203C169.46 32.0217 163.795 35.9058 164.874 40.8689L154.325 45.1846C153.462 43.0807 151.466 41.705 149.199 41.705C146.124 41.705 143.642 44.1866 143.642 47.2615C143.642 50.3365 146.124 52.818 149.199 52.818C152.167 52.818 154.811 50.4714 154.73 47.1267L165.656 42.6761C166.762 44.4024 168.516 45.2646 170.324 45.2646ZM233.669 8.66174C235.773 8.66174 237.5 10.388 237.5 12.492C237.5 15.6208 233.939 17.428 231.403 15.5669C230.459 14.8926 229.838 13.7057 229.838 12.492C229.838 10.388 231.538 8.66174 233.669 8.66174ZM209.442 28.9726C211.574 25.9246 216.376 27.543 216.376 31.2113C216.376 33.3153 214.649 35.0416 212.545 35.0416C209.604 35.0416 207.581 31.7778 209.442 28.9726ZM191.448 18.264C194.442 18.264 196.277 21.5548 194.712 24.1173C192.662 27.408 187.617 25.8975 187.617 22.0943C187.617 19.9903 189.316 18.264 191.448 18.264ZM153.031 47.4763C152.95 49.5263 151.277 51.1446 149.227 51.1446C147.122 51.1446 145.396 49.4184 145.396 47.3144C145.396 45.2105 147.122 43.4842 149.227 43.4842C151.385 43.4842 153.058 45.2644 153.058 47.3144H153.921L153.031 47.4763ZM172.671 36.7139C173.507 37.3343 174.155 38.4672 174.155 39.7079C174.155 43.4572 169.299 44.9677 167.195 41.8928C166.763 41.2724 166.52 40.5171 166.52 39.7079C166.493 37.604 170.189 34.7448 172.671 36.7139Z" fill="#0A2D47"/>
</svg>
