<svg width="129" height="150" viewBox="0 0 129 150" fill="none" xmlns="http://www.w3.org/2000/svg">
<path d="M54.046 144.745C54.046 147.647 56.3995 150 59.3016 150C62.2043 150 64.5572 147.647 64.5572 144.745V117.785C61.9294 118.319 58.2505 118.702 54.046 118.751V144.745Z" fill="#FEFEFE"/>
<path d="M41.9582 144.744C41.9582 147.647 44.3132 150 47.2138 150C50.1169 150 52.4693 147.647 52.4693 144.744V118.75C48.2649 118.701 45.1115 118.318 41.9582 117.784V144.744Z" fill="#FEFEFE"/>
<path d="M69.5726 95.7681C68.7927 95.7681 68.0443 95.5925 67.369 95.2772L69.2258 104.402C69.4344 105.428 68.8253 106.45 67.8178 106.736C64.4773 107.683 59.6411 108.598 53.419 108.598C47.1969 108.598 42.3602 107.683 39.0198 106.736C38.0123 106.45 37.4031 105.428 37.6118 104.402L44.2591 71.7329L40.1981 54.7953C33.8803 52.6364 23.2398 47.7624 12.3093 37.3007L20.5416 16.2186L24.9884 17.955L30.2455 4.49244L18.7411 0L13.4834 13.4626L17.9301 15.199L9.96001 35.6089C8.80168 35.2873 7.5088 35.5858 6.60694 36.5034C5.28411 37.8488 5.3025 40.0115 6.64741 41.3343C6.90861 41.5913 7.16982 41.8341 7.43102 42.0853L5.98205 45.7958L8.59355 46.8159L9.63732 44.1434C20.2026 53.6822 30.3822 58.5378 37.0836 60.937C32.1186 63.3997 24.0891 66.069 13.578 64.7746V61.7122C13.578 60.8513 13.0104 60.0914 12.3487 59.6383C12.5358 59.4933 12.5268 59.2683 12.5268 59.0129V57.3753C12.5268 56.937 12.3545 56.6716 11.9161 56.6716H10.525C10.4556 55.6205 9.20951 54.4022 9.20951 54.0186C9.20951 53.9192 9.20426 53.781 9.19322 53.658C9.34458 53.4278 9.43445 53.1414 9.43445 52.845C9.43445 52.0362 8.77855 51.3756 7.97077 51.3756C7.16193 51.3756 6.50656 52.0278 6.50656 52.8366C6.50656 53.1325 6.5959 53.4058 6.74674 53.636C6.7357 53.7589 6.73045 53.9198 6.73045 54.0191C6.73045 54.4028 5.48487 55.6199 5.4155 56.671H4.02487C3.58655 56.671 3.06677 56.9359 3.06677 57.3748V59.0124C3.06677 59.2678 3.32062 59.4922 3.50772 59.6378C2.84551 60.0908 2.54121 60.8508 2.54121 61.7116V74.0806C2.54121 75.4659 3.57026 76.6421 4.95616 76.6421H10.9854C12.3702 76.6421 13.578 75.4659 13.578 74.0806V71.6472C15.1546 71.8512 17.2569 71.9573 19.0101 71.9573C26.5887 71.9573 32.8334 70.2219 37.5098 68.2511C33.6328 74.3969 26.2261 83.1369 13.4707 88.5238L10.4141 82.4511L1.64566 86.8557L3.31589 90.182L5.8391 88.9138L12.5936 102.356L10.0693 103.624L12.262 107.987L21.0278 103.582L16.5379 94.6471C25.7946 90.6749 32.5044 85.1897 37.2644 79.9168L33.9528 96.1917L30.6444 112.45C30.6444 112.45 38.5352 117.18 53.419 117.18C68.3029 117.18 76.1931 112.45 76.1931 112.45L73.1033 97.2633L72.6035 94.8058C72.0223 95.2152 71.3601 95.5074 70.6432 95.6556C70.2916 95.7313 69.9311 95.7681 69.5726 95.7681ZM27.3923 6.19891L24.1428 14.5221L22.6738 13.9487L25.9233 5.62606L27.3923 6.19891ZM24.272 4.98015L21.0215 13.3028L19.5536 12.73L22.8026 4.4073L24.272 4.98015ZM16.4328 11.5107L19.6823 3.18749L21.1513 3.76192L17.9012 12.0841L16.4328 11.5107ZM10.9854 75.592H4.95616C4.29501 75.592 3.59233 74.7422 3.59233 74.0816V73.4898H7.27125V72.4387H3.59233V70.3365H7.27125V69.2854H3.59233V67.1832H7.27125V66.1321H3.59233V64.0299H7.27125V62.9787H3.59233V61.7127C3.59233 61.0515 4.29448 60.351 4.95616 60.351H10.9854C11.646 60.351 12.0013 61.0515 12.0013 61.7127V74.0816C12.0013 74.7417 11.646 75.592 10.9854 75.592Z" fill="#FEFEFE"/>
<path d="M63.1566 74.5739C63.6596 74.0289 64.2824 73.5832 65.0029 73.2847L69.0828 71.594L65.7229 64.1379C65.581 63.8247 65.4586 63.502 65.3545 63.1709L64.5846 63.3648L62.5785 71.7317L63.1566 74.5739Z" fill="#FEFEFE"/>
<path d="M47.0861 71.9134H59.7505L61.5647 64.2366L58.3167 65.0002C57.9368 65.0959 57.5468 65.1169 57.1584 65.1169C54.9899 65.1169 53.1053 63.6333 52.5745 61.5284C52.2654 60.3033 52.452 59.0241 53.1 57.9394C53.7475 56.8547 54.7792 56.0842 56.0043 55.7752L57.0097 55.5197C55.8797 55.3889 54.6531 55.2964 53.4185 55.2964C50.1317 55.2964 46.8869 55.9402 45.4353 56.2713C44.9644 56.1741 44.2233 56.1152 43.2621 55.8519L47.0861 71.9134Z" fill="#FEFEFE"/>
<path d="M63.7521 37.0741C61.9983 33.1072 58.035 30.3359 53.419 30.3359C47.1785 30.3359 42.1195 35.3949 42.1195 41.6354C42.1195 47.8758 47.1785 52.9348 53.419 52.9348C57.263 52.9348 60.6534 51.0118 62.6946 48.0792C62.4897 47.7349 62.3015 47.3781 62.1391 47.0039C60.6513 43.5605 61.4102 39.7087 63.7521 37.0741Z" fill="#FEFEFE"/>
<path d="M73.9137 50.6681C77.9879 48.9085 79.8652 44.1764 78.1014 40.0997C76.3387 36.0277 71.606 34.1504 67.5319 35.9137C63.4562 37.6774 61.5852 42.409 63.3453 46.482C65.1085 50.5582 69.8386 52.4297 73.9137 50.6681Z" fill="#FEFEFE"/>
<path d="M65.9084 91.9507C66.4981 93.4595 67.9618 94.4539 69.5732 94.4539C69.8381 94.4539 70.1071 94.4271 70.3762 94.3714C72.5084 93.9299 73.8786 91.844 73.4366 89.7123L73.3924 89.5L65.9084 91.9507Z" fill="#FEFEFE"/>
<path d="M66.3331 61.5686C66.4324 62.2529 66.6216 62.9356 66.9201 63.5973L70.8371 72.2889L65.5059 74.4983C63.7579 75.2225 62.7714 77.0867 63.155 78.9392L63.966 82.8546L73.3462 79.7833L79.5309 77.2202C80.0712 77.1093 80.6083 76.9432 81.1328 76.7067C84.9458 74.995 86.6444 70.5099 84.9263 66.6996L80.7255 57.3747C79.2992 54.2098 75.9677 52.5102 72.696 53.0031C72.4527 53.0105 72.2068 53.042 71.9608 53.1035L56.3254 57.0452C54.4959 57.5061 53.3865 59.3634 53.8479 61.1928C54.2384 62.7422 55.6301 63.7749 57.1579 63.7749C57.4343 63.7749 57.7155 63.7413 57.9956 63.6703L66.3331 61.5686Z" fill="#FEFEFE"/>
<path d="M27.7592 120.264C27.1721 118.688 26.1546 117.174 24.6342 116.15L24.5023 116.099L24.4339 115.974C24.4134 115.931 22.3359 111.626 18.3953 110.574C17.815 110.419 17.2206 110.347 16.6141 110.347C14.7657 110.347 12.8012 111.067 10.7499 112.494C8.1705 114.29 7.67333 115.3 7.65546 115.801C9.26997 115.654 10.5881 115.833 11.038 115.909C15.0611 114.573 19.6245 116.534 21.4025 118.551C22.1089 119.353 22.1824 120.265 22.0747 120.265H27.7592V120.264Z" fill="#FEFEFE"/>
<path d="M28.7766 121.841H18.041C16.8406 121.841 15.9036 123.032 14.9329 123.964C13.6799 125.167 12.3839 126.344 10.4971 126.434C9.47388 126.483 7.8005 127.779 6.3242 128.953C5.73926 129.417 5.16377 129.854 4.603 130.262L6.41197 148.119H26.09L28.7766 121.841Z" fill="#FEFEFE"/>
<path d="M5.60471 128.013C7.37479 126.607 9.04607 125.278 10.442 125.212C11.8962 125.143 12.9321 124.148 14.1319 122.995C15.624 121.563 17.3142 119.936 20.1101 120.177C20.8013 120.232 20.9736 120.093 20.9752 120.092C20.9778 119.996 20.7466 119.49 19.932 118.816C17.9606 117.187 14.412 115.939 11.276 117.05L11.1262 117.103L10.9696 117.071C10.9502 117.068 10.1219 116.909 8.9315 116.909C7.26548 116.909 4.88942 117.22 3.02737 118.701C1.12484 120.215 0.109986 122.664 0.0111812 125.982C-0.0928795 129.469 0.553558 130.321 0.947728 130.518C1.87061 130.981 3.94131 129.335 5.60471 128.013Z" fill="#FEFEFE"/>
<path d="M7.26899 80.2522L1.75134 83.0249L2.81324 85.138L8.33089 82.3653L7.26899 80.2522Z" fill="#FEFEFE"/>
<path d="M106.265 136.459C106.441 137.061 106.203 137.671 105.559 138.274C105.123 138.683 104.988 139.048 105.034 139.165C105.135 139.418 106.116 140.078 109.409 140.078C109.661 140.078 109.925 140.074 110.2 140.067C110.37 140.062 110.535 140.029 110.699 140.029C114.211 140.029 116.427 141.286 117.459 142.337H123.244L124.98 116.059H126.573V112.906H99.7697V116.059H101.013L101.145 118.09L113.371 114.698C113.93 114.544 114.51 114.878 114.666 115.436C114.821 115.995 114.494 116.579 113.935 116.735L101.286 120.261L102.242 134.747C102.651 134.837 103.05 134.914 103.421 134.984C104.903 135.262 105.974 135.464 106.265 136.459Z" fill="#FEFEFE"/>
<path d="M101.643 118.931C101.487 118.372 100.909 118.162 100.349 118.162H100.348L97.3411 119.091C96.7819 119.247 96.455 119.872 96.6111 120.431C96.7409 120.897 97.1629 121.223 97.6228 121.223C97.7164 121.223 97.811 121.17 97.9056 121.144L100.913 120.265C101.471 120.264 101.799 119.49 101.643 118.931Z" fill="#FEFEFE"/>
<path d="M82.3942 81.6856C81.8076 79.8929 79.8799 78.9144 78.0851 79.5025L63.1067 84.4075C61.3135 84.9945 60.3364 86.9243 60.9235 88.717C61.3944 90.157 62.7319 91.071 64.1694 91.071C64.5215 91.071 64.8799 91.0163 65.2326 90.9002L80.211 85.9952C82.0042 85.4081 82.9812 83.4788 82.3942 81.6856Z" fill="#FEFEFE"/>
<path d="M110.898 77.418L107.838 78.2153L108.429 80.4846L111.49 79.6873L110.898 77.418Z" fill="#FEFEFE"/>
<path d="M112.857 84.9209L111.999 81.6294L108.939 82.4267L109.796 85.7161C107.372 88.1279 102.446 94.0997 102.346 102.895C102.259 110.541 116.726 106.102 116.726 106.102C116.726 106.102 131.526 102.939 127.727 96.3013C123.36 88.6671 116.15 85.848 112.857 84.9209Z" fill="#FEFEFE"/>
<path d="M103.224 47.9518C103.258 47.925 103.291 47.9003 103.325 47.873C104.798 46.6947 105.037 44.5451 103.859 43.0715C103.283 42.3515 102.474 41.9289 101.626 41.8196L91.6188 3.41211L88.5574 4.20675L98.5877 42.8702C95.9962 44.9146 93.4624 46.7057 90.8346 48.264V29.3435H88.2068V49.8128C85.5791 51.4893 82.4425 52.8568 79.8063 53.9704C80.6677 54.7645 81.403 55.73 81.9012 56.8352L83.2703 59.947C84.8669 59.2517 86.6302 58.4687 88.2068 57.5931V82.6904C86.1046 81.2719 83.6429 79.6438 81.5585 77.9315C81.2032 78.0876 80.8522 78.2148 80.4701 78.3246C81.8875 78.7535 83.0522 79.8461 83.5315 81.3108C83.9157 82.4844 83.8258 83.7384 83.2676 84.8399C82.9055 85.5557 82.3763 86.1491 81.7278 86.5842C83.2871 87.6585 84.9084 88.6738 86.5876 89.5909C87.1074 89.8752 87.6256 90.0098 88.179 90.0098C88.2026 90.0098 88.2068 90.0051 88.2068 90.0051V135.297V136.374C85.5791 137.061 82.9539 137.964 84.7334 139.513C87.7275 142.121 82.0604 146.789 89.546 147.391C97.032 147.993 109.619 147.737 114.41 146.533C119.201 145.33 117.41 140.917 110.224 141.118C103.037 141.318 103.339 138.911 104.836 137.507C106.333 136.104 103.64 136.304 100.945 135.502C98.2498 134.7 96.1118 134.125 93.4167 135.128C92.816 135.351 91.8858 135.564 90.8346 135.787V134.711V88.6859C90.8346 88.5435 91.048 88.3937 91.1368 88.2308C91.8096 86.9994 91.8858 85.5368 90.8346 84.4957V56.193C93.988 54.4734 97.1965 52.4353 100.454 50.0351L107.31 76.2639L110.382 75.4666L103.224 47.9518Z" fill="#FEFEFE"/>
</svg>
