<svg width="26" height="26" viewBox="0 0 26 26" fill="none" xmlns="http://www.w3.org/2000/svg">
<path d="M1 13C1 7.34315 1 4.51472 2.75736 2.75736C4.51472 1 7.34315 1 13 1C18.6568 1 21.4853 1 23.2427 2.75736C25 4.51472 25 7.34315 25 13C25 18.6568 25 21.4853 23.2427 23.2427C21.4853 25 18.6568 25 13 25C7.34315 25 4.51472 25 2.75736 23.2427C1 21.4853 1 18.6568 1 13Z" stroke="#F8F0FD" stroke-width="1.5" stroke-linejoin="round"/>
<path d="M18.6842 12.9996C18.6842 16.139 16.1393 18.6839 13 18.6839C9.86071 18.6839 7.3158 16.139 7.3158 12.9996C7.3158 9.86034 9.86071 7.31543 13 7.31543C16.1393 7.31543 18.6842 9.86034 18.6842 12.9996Z" stroke="#F8F0FD" stroke-width="1.5"/>
<path d="M19.9562 6.05273H19.9458" stroke="#F8F0FD" stroke-width="2" stroke-linecap="round" stroke-linejoin="round"/>
</svg>
