<svg width="428" height="402" viewBox="0 0 428 402" fill="none" xmlns="http://www.w3.org/2000/svg">
<path d="M405.037 78.1329C403.629 75.7446 402.152 73.4016 400.604 71.1083C379.998 40.5799 344.544 19.6991 309.664 10.2595C294.39 6.12547 278.617 3.95846 262.812 3.42248C159.16 -0.0911388 117.875 81.6012 83.6166 102.683C49.3586 123.765 -3.34657 159.779 0.167051 235.323C3.68067 310.867 58.1422 382.018 163.552 386.41C268.961 390.801 275.988 343.368 334.842 325.799C373.79 314.173 401.463 274.904 415.013 238.614C433.479 189.156 432.609 124.916 405.037 78.1329Z" fill="#92E3A9"/>
<path opacity="0.7" d="M405.037 78.1329C403.629 75.7446 402.152 73.4016 400.604 71.1083C379.998 40.5799 344.544 19.6991 309.664 10.2595C294.39 6.12547 278.617 3.95846 262.812 3.42248C159.16 -0.0911388 117.875 81.6012 83.6166 102.683C49.3586 123.765 -3.34657 159.779 0.167051 235.323C3.68067 310.867 58.1422 382.018 163.552 386.41C268.961 390.801 275.988 343.368 334.842 325.799C373.79 314.173 401.463 274.904 415.013 238.614C433.479 189.156 432.609 124.916 405.037 78.1329Z" fill="white"/>
<g opacity="0.3">
<path d="M205.103 16.1709V341.074H310.642V16.1709H205.103ZM305.327 23.391V71.3471H261.4V23.391H305.327ZM254.836 23.391V71.3471H210.418V23.391H254.836ZM210.418 78.953H254.836V126.535H210.418V78.953ZM305.327 333.854H210.418V134.787H305.327V333.854ZM261.401 126.535V78.953H305.328V126.535H261.401Z" stroke="black" stroke-miterlimit="10" stroke-linecap="round" stroke-linejoin="round"/>
<path d="M310.233 16.1709V341.074H415.772V16.1709H310.233ZM410.457 23.391V71.3471H366.53V23.391H410.457ZM359.965 23.391V71.3471H315.548V23.391H359.965ZM315.548 78.953H359.966V126.535H315.548V78.953ZM410.457 333.854H315.548V134.787H410.457V333.854ZM366.53 126.535V78.953H410.457V126.535H366.53Z" stroke="black" stroke-miterlimit="10" stroke-linecap="round" stroke-linejoin="round"/>
<path d="M281.7 188.715L255.204 221.692" stroke="black" stroke-miterlimit="10" stroke-linecap="round" stroke-linejoin="round"/>
<path d="M288.278 180.529L284.066 185.771" stroke="black" stroke-miterlimit="10" stroke-linecap="round" stroke-linejoin="round"/>
<path d="M226.399 245.74L220.971 252.117" stroke="black" stroke-miterlimit="10" stroke-linecap="round" stroke-linejoin="round"/>
<path d="M261.587 204.392L230.461 240.968" stroke="black" stroke-miterlimit="10" stroke-linecap="round" stroke-linejoin="round"/>
<path d="M388.462 198.784L361.967 231.761" stroke="black" stroke-miterlimit="10" stroke-linecap="round" stroke-linejoin="round"/>
<path d="M395.039 190.598L390.828 195.84" stroke="black" stroke-miterlimit="10" stroke-linecap="round" stroke-linejoin="round"/>
<path d="M333.161 255.808L327.733 262.186" stroke="black" stroke-miterlimit="10" stroke-linecap="round" stroke-linejoin="round"/>
<path d="M368.349 214.461L337.222 251.036" stroke="black" stroke-miterlimit="10" stroke-linecap="round" stroke-linejoin="round"/>
<path d="M400.7 30.9297L388.018 46.7139" stroke="black" stroke-miterlimit="10" stroke-linecap="round" stroke-linejoin="round"/>
<path d="M403.848 27.0107L401.833 29.52" stroke="black" stroke-miterlimit="10" stroke-linecap="round" stroke-linejoin="round"/>
<path d="M374.229 58.2236L371.632 61.2768" stroke="black" stroke-miterlimit="10" stroke-linecap="round" stroke-linejoin="round"/>
<path d="M391.073 38.4326L376.174 55.9394" stroke="black" stroke-miterlimit="10" stroke-linecap="round" stroke-linejoin="round"/>
<path d="M351.209 30.9297L338.527 46.7139" stroke="black" stroke-miterlimit="10" stroke-linecap="round" stroke-linejoin="round"/>
<path d="M354.358 27.0107L352.343 29.52" stroke="black" stroke-miterlimit="10" stroke-linecap="round" stroke-linejoin="round"/>
<path d="M324.739 58.2236L322.141 61.2768" stroke="black" stroke-miterlimit="10" stroke-linecap="round" stroke-linejoin="round"/>
<path d="M341.582 38.4326L326.683 55.9394" stroke="black" stroke-miterlimit="10" stroke-linecap="round" stroke-linejoin="round"/>
<path d="M351.209 90.0645L338.527 105.849" stroke="black" stroke-miterlimit="10" stroke-linecap="round" stroke-linejoin="round"/>
<path d="M354.358 86.1455L352.343 88.6547" stroke="black" stroke-miterlimit="10" stroke-linecap="round" stroke-linejoin="round"/>
<path d="M324.739 117.359L322.141 120.412" stroke="black" stroke-miterlimit="10" stroke-linecap="round" stroke-linejoin="round"/>
<path d="M341.582 97.5684L326.683 115.075" stroke="black" stroke-miterlimit="10" stroke-linecap="round" stroke-linejoin="round"/>
<path d="M395.349 90.0645L382.667 105.849" stroke="black" stroke-miterlimit="10" stroke-linecap="round" stroke-linejoin="round"/>
<path d="M398.499 86.1455L396.483 88.6547" stroke="black" stroke-miterlimit="10" stroke-linecap="round" stroke-linejoin="round"/>
<path d="M368.879 117.359L366.281 120.412" stroke="black" stroke-miterlimit="10" stroke-linecap="round" stroke-linejoin="round"/>
<path d="M385.722 97.5684L370.823 115.075" stroke="black" stroke-miterlimit="10" stroke-linecap="round" stroke-linejoin="round"/>
<path d="M296.369 30.9297L283.687 46.7139" stroke="black" stroke-miterlimit="10" stroke-linecap="round" stroke-linejoin="round"/>
<path d="M299.517 27.0107L297.501 29.52" stroke="black" stroke-miterlimit="10" stroke-linecap="round" stroke-linejoin="round"/>
<path d="M269.898 58.2236L267.3 61.2768" stroke="black" stroke-miterlimit="10" stroke-linecap="round" stroke-linejoin="round"/>
<path d="M286.742 38.4326L271.842 55.9394" stroke="black" stroke-miterlimit="10" stroke-linecap="round" stroke-linejoin="round"/>
<path d="M296.369 88.6895L283.687 104.474" stroke="black" stroke-miterlimit="10" stroke-linecap="round" stroke-linejoin="round"/>
<path d="M299.517 84.7705L297.501 87.2797" stroke="black" stroke-miterlimit="10" stroke-linecap="round" stroke-linejoin="round"/>
<path d="M269.898 115.984L267.3 119.037" stroke="black" stroke-miterlimit="10" stroke-linecap="round" stroke-linejoin="round"/>
<path d="M286.742 96.1934L271.842 113.7" stroke="black" stroke-miterlimit="10" stroke-linecap="round" stroke-linejoin="round"/>
<path d="M248.216 88.6895L235.533 104.474" stroke="black" stroke-miterlimit="10" stroke-linecap="round" stroke-linejoin="round"/>
<path d="M251.364 84.7705L249.348 87.2797" stroke="black" stroke-miterlimit="10" stroke-linecap="round" stroke-linejoin="round"/>
<path d="M221.746 115.984L219.147 119.037" stroke="black" stroke-miterlimit="10" stroke-linecap="round" stroke-linejoin="round"/>
<path d="M238.589 96.1934L223.69 113.7" stroke="black" stroke-miterlimit="10" stroke-linecap="round" stroke-linejoin="round"/>
<path d="M244.872 30.9297L232.19 46.7139" stroke="black" stroke-miterlimit="10" stroke-linecap="round" stroke-linejoin="round"/>
<path d="M248.02 27.0107L246.004 29.52" stroke="black" stroke-miterlimit="10" stroke-linecap="round" stroke-linejoin="round"/>
<path d="M218.402 58.2236L215.804 61.2768" stroke="black" stroke-miterlimit="10" stroke-linecap="round" stroke-linejoin="round"/>
<path d="M235.244 38.4326L220.345 55.9394" stroke="black" stroke-miterlimit="10" stroke-linecap="round" stroke-linejoin="round"/>
</g>
<path d="M82.5198 285.72C82.5198 285.72 72.7656 280.3 72.0429 292.583C71.3203 304.866 69.5142 384.705 69.5142 384.705" stroke="#263238" stroke-miterlimit="10" stroke-linecap="round"/>
<path d="M66.9775 293.666C66.9775 293.666 74.9336 311.369 71.3205 383.622" stroke="#263238" stroke-miterlimit="10" stroke-linecap="round"/>
<path d="M74.794 288.192C74.794 288.192 71.0626 290.583 68.94 287.847C66.8166 285.111 70.3764 280.099 67.2388 277.956C64.102 275.813 58.6871 279.083 58.6871 279.083C58.6871 279.083 62.8576 280.308 62.7234 282.585C62.5892 284.861 60.5804 285.722 60.3129 284.727C60.0453 283.732 58.0561 278.719 54.6696 280.803C51.283 282.889 50.7657 286.121 50.7657 286.121C50.7657 286.121 58.648 285.282 59.1262 288.247C59.6044 291.212 55.8935 287.729 52.6403 287.537C49.388 287.345 46.4228 287.824 46.6326 289.794C46.8423 291.765 46.3259 294.998 46.3259 294.998C46.3259 294.998 49.0814 292.549 52.659 292.76C56.2366 292.971 56.1024 295.248 52.8501 295.056C49.5978 294.864 46.8041 297.963 46.8041 297.963C46.8041 297.963 49.7684 303.033 53.5372 305.54C57.3059 308.047 58.664 307.148 59.1049 305.216C59.5449 303.283 58.5325 298.328 60.8088 298.462C63.0852 298.596 57.0383 307.051 59.9466 307.55C62.8541 308.048 65.1891 307.207 65.9544 305.293C66.7197 303.38 66.7197 303.38 66.7197 303.38C66.7197 303.38 65.7064 298.425 66.1473 296.493C66.5872 294.56 67.1232 296.55 67.6387 298.865C68.1552 301.179 68.4787 306.747 69.4742 306.48C70.4688 306.212 73.6456 302.156 74.3922 300.569C75.1389 298.981 70.204 294.121 70.2609 293.145C70.3186 292.169 74.1256 294.026 74.7184 295.04C75.3113 296.054 75.8855 297.394 75.8855 297.394C75.8855 297.394 78.2578 295.902 78.2018 291.329C78.1423 286.758 74.794 288.192 74.794 288.192Z" fill="#92E3A9"/>
<path opacity="0.3" d="M74.794 288.192C74.794 288.192 71.0626 290.583 68.94 287.847C66.8166 285.111 70.3764 280.099 67.2388 277.956C64.102 275.813 58.6871 279.083 58.6871 279.083C58.6871 279.083 62.8576 280.308 62.7234 282.585C62.5892 284.861 60.5804 285.722 60.3129 284.727C60.0453 283.732 58.0561 278.719 54.6696 280.803C51.283 282.889 50.7657 286.121 50.7657 286.121C50.7657 286.121 58.648 285.282 59.1262 288.247C59.6044 291.212 55.8935 287.729 52.6403 287.537C49.388 287.345 46.4228 287.824 46.6326 289.794C46.8423 291.765 46.3259 294.998 46.3259 294.998C46.3259 294.998 49.0814 292.549 52.659 292.76C56.2366 292.971 56.1024 295.248 52.8501 295.056C49.5978 294.864 46.8041 297.963 46.8041 297.963C46.8041 297.963 49.7684 303.033 53.5372 305.54C57.3059 308.047 58.664 307.148 59.1049 305.216C59.5449 303.283 58.5325 298.328 60.8088 298.462C63.0852 298.596 57.0383 307.051 59.9466 307.55C62.8541 308.048 65.1891 307.207 65.9544 305.293C66.7197 303.38 66.7197 303.38 66.7197 303.38C66.7197 303.38 65.7064 298.425 66.1473 296.493C66.5872 294.56 67.1232 296.55 67.6387 298.865C68.1552 301.179 68.4787 306.747 69.4742 306.48C70.4688 306.212 73.6456 302.156 74.3922 300.569C75.1389 298.981 70.204 294.121 70.2609 293.145C70.3186 292.169 74.1256 294.026 74.7184 295.04C75.3113 296.054 75.8855 297.394 75.8855 297.394C75.8855 297.394 78.2578 295.902 78.2018 291.329C78.1423 286.758 74.794 288.192 74.794 288.192Z" fill="#263238"/>
<path d="M55.8784 298.914C58.3112 295.906 61.8977 291.836 64.902 289.894" stroke="#263238" stroke-miterlimit="10" stroke-linecap="round"/>
<path d="M53.0579 302.575C53.0579 302.575 53.6827 301.707 54.6951 300.405" stroke="#263238" stroke-miterlimit="10" stroke-linecap="round"/>
<path d="M66.4902 290.64C66.4902 290.64 70.1052 295.749 70.7736 301.01" stroke="#263238" stroke-miterlimit="10" stroke-linecap="round"/>
<path d="M62.3955 293.662C62.3955 293.662 63.4097 293.069 63.0257 299.573" stroke="#263238" stroke-miterlimit="10" stroke-linecap="round"/>
<path d="M65.0361 287.617C65.0361 287.617 67.1027 285.781 66.013 282.126" stroke="#263238" stroke-miterlimit="10" stroke-linecap="round"/>
<path d="M62.2424 290.715L60.7695 288.018" stroke="#263238" stroke-miterlimit="10" stroke-linecap="round"/>
<path d="M59.1429 293.47C59.1429 293.47 54.456 289.929 51.5291 289.757" stroke="#263238" stroke-miterlimit="10" stroke-linecap="round"/>
<path d="M88.0919 278.553C88.0919 278.553 87.9426 283.918 83.7561 284.179C79.5696 284.439 76.9777 277.46 72.6935 279.14C68.4092 280.82 67.9932 288.471 67.9932 288.471C67.9932 288.471 72.0624 285.13 74.2507 286.817C76.4382 288.503 75.9307 291.101 74.7521 290.691C73.5734 290.281 67.1986 288.856 66.9782 293.667C66.7569 298.479 69.6412 301.2 69.6412 301.2C69.6412 301.2 74.1725 292.735 77.4675 294.278C80.7624 295.822 74.7458 297.163 72.337 300.289C69.9283 303.414 68.3852 306.709 70.5016 307.842C72.6179 308.975 75.5022 311.696 75.5022 311.696C75.5022 311.696 74.9289 307.269 77.5786 303.831C80.2282 300.393 82.4166 302.079 80.0069 305.205C77.5981 308.33 78.7963 313.24 78.7963 313.24C78.7963 313.24 85.8938 313.728 90.9718 311.664C96.0506 309.6 96.0764 307.627 94.4418 305.869C92.8072 304.111 87.1559 301.748 88.8421 299.56C90.5282 297.373 94.872 309.19 97.3528 306.618C99.8336 304.045 100.582 301.135 99.1883 299.064C97.7946 296.994 97.7946 296.994 97.7946 296.994C97.7946 296.994 92.1424 294.63 90.5087 292.872C88.8741 291.114 91.2313 291.935 93.9005 292.996C96.5697 294.057 102.365 297.527 102.776 296.349C103.185 295.17 101.29 289.225 100.21 287.396C99.1287 285.567 90.8989 287.194 89.9611 286.472C89.0234 285.749 93.4765 283.203 94.896 283.3C96.3155 283.398 98.0479 283.736 98.0479 283.736C98.0479 283.736 98.1714 280.344 93.5548 277.284C88.9381 274.223 88.0919 278.553 88.0919 278.553Z" fill="#92E3A9"/>
<path opacity="0.2" d="M88.0919 278.553C88.0919 278.553 87.9426 283.918 83.7561 284.179C79.5696 284.439 76.9777 277.46 72.6935 279.14C68.4092 280.82 67.9932 288.471 67.9932 288.471C67.9932 288.471 72.0624 285.13 74.2507 286.817C76.4382 288.503 75.9307 291.101 74.7521 290.691C73.5734 290.281 67.1986 288.856 66.9782 293.667C66.7569 298.479 69.6412 301.2 69.6412 301.2C69.6412 301.2 74.1725 292.735 77.4675 294.278C80.7624 295.822 74.7458 297.163 72.337 300.289C69.9283 303.414 68.3852 306.709 70.5016 307.842C72.6179 308.975 75.5022 311.696 75.5022 311.696C75.5022 311.696 74.9289 307.269 77.5786 303.831C80.2282 300.393 82.4166 302.079 80.0069 305.205C77.5981 308.33 78.7963 313.24 78.7963 313.24C78.7963 313.24 85.8938 313.728 90.9718 311.664C96.0506 309.6 96.0764 307.627 94.4418 305.869C92.8072 304.111 87.1559 301.748 88.8421 299.56C90.5282 297.373 94.872 309.19 97.3528 306.618C99.8336 304.045 100.582 301.135 99.1883 299.064C97.7946 296.994 97.7946 296.994 97.7946 296.994C97.7946 296.994 92.1424 294.63 90.5087 292.872C88.8741 291.114 91.2313 291.935 93.9005 292.996C96.5697 294.057 102.365 297.527 102.776 296.349C103.185 295.17 101.29 289.225 100.21 287.396C99.1287 285.567 90.8989 287.194 89.9611 286.472C89.0234 285.749 93.4765 283.203 94.896 283.3C96.3155 283.398 98.0479 283.736 98.0479 283.736C98.0479 283.736 98.1714 280.344 93.5548 277.284C88.9381 274.223 88.0919 278.553 88.0919 278.553Z" fill="#263238"/>
<path d="M85.934 304.799C84.5803 300.313 82.9501 293.949 83.0532 289.616" stroke="#263238" stroke-miterlimit="10" stroke-linecap="round"/>
<path d="M87.677 310.118C87.677 310.118 87.2334 308.901 86.6201 307" stroke="#263238" stroke-miterlimit="10" stroke-linecap="round"/>
<path d="M84.8826 288.535C84.8826 288.535 92.4618 288.398 98.1851 291.315" stroke="#263238" stroke-miterlimit="10" stroke-linecap="round"/>
<path d="M85.1169 294.694C85.1169 294.694 85.2147 293.274 91.4651 298.092" stroke="#263238" stroke-miterlimit="10" stroke-linecap="round"/>
<path d="M80.8647 287.929C80.8647 287.929 80.4345 284.608 76.033 283.208" stroke="#263238" stroke-miterlimit="10" stroke-linecap="round"/>
<path d="M82.0638 292.839L78.3582 292.474" stroke="#263238" stroke-miterlimit="10" stroke-linecap="round"/>
<path d="M82.7084 297.819C82.7084 297.819 75.9692 300.098 73.8013 302.912" stroke="#263238" stroke-miterlimit="10" stroke-linecap="round"/>
<path d="M43.1418 314.26C43.1418 314.26 64.4564 328.349 64.0947 382.899" stroke="#263238" stroke-miterlimit="10" stroke-linecap="round"/>
<path d="M69.4216 310.538C69.4216 310.538 68.7425 316.714 63.8867 316.62C59.0309 316.526 56.6995 308.227 51.5966 309.762C46.4946 311.296 45.292 320.085 45.292 320.085C45.292 320.085 50.3033 316.615 52.6686 318.767C55.0338 320.92 54.2027 323.869 52.8819 323.285C51.561 322.7 44.34 320.454 43.6307 325.985C42.9214 331.516 45.9933 334.93 45.9933 334.93C45.9933 334.93 52.0206 325.59 55.6773 327.681C59.3331 329.772 52.265 330.753 49.1896 334.132C46.1151 337.512 44.0236 341.167 46.3586 342.675C48.6936 344.182 51.7655 347.595 51.7655 347.595C51.7655 347.595 51.5219 342.431 54.904 338.714C58.2861 334.997 60.6513 337.15 57.5768 340.528C54.5022 343.908 55.4213 349.685 55.4213 349.685C55.4213 349.685 63.565 350.918 69.6198 349.015C75.6746 347.112 75.8906 344.838 74.1707 342.655C72.4508 340.472 66.1524 337.212 68.3043 334.847C70.4571 332.482 74.3529 346.528 77.4586 343.794C80.5633 341.06 81.7019 337.772 80.2895 335.251C78.8772 332.731 78.8772 332.731 78.8772 332.731C78.8772 332.731 72.5788 329.47 70.8588 327.287C69.1389 325.104 71.7815 326.273 74.7618 327.75C77.7421 329.227 84.1018 333.778 84.6858 332.457C85.2706 331.136 83.6441 324.097 82.5703 321.884C81.4957 319.671 71.8455 320.773 70.8313 319.85C69.818 318.928 75.1964 316.41 76.8257 316.657C78.4541 316.903 80.4211 317.457 80.4211 317.457C80.4211 317.457 80.8842 313.555 75.8453 309.588C70.8073 305.622 69.4216 310.538 69.4216 310.538Z" fill="#92E3A9"/>
<path opacity="0.3" d="M69.4216 310.538C69.4216 310.538 68.7425 316.714 63.8867 316.62C59.0309 316.526 56.6995 308.227 51.5966 309.762C46.4946 311.296 45.292 320.085 45.292 320.085C45.292 320.085 50.3033 316.615 52.6686 318.767C55.0338 320.92 54.2027 323.869 52.8819 323.285C51.561 322.7 44.34 320.454 43.6307 325.985C42.9214 331.516 45.9933 334.93 45.9933 334.93C45.9933 334.93 52.0206 325.59 55.6773 327.681C59.3331 329.772 52.265 330.753 49.1896 334.132C46.1151 337.512 44.0236 341.167 46.3586 342.675C48.6936 344.182 51.7655 347.595 51.7655 347.595C51.7655 347.595 51.5219 342.431 54.904 338.714C58.2861 334.997 60.6513 337.15 57.5768 340.528C54.5022 343.908 55.4213 349.685 55.4213 349.685C55.4213 349.685 63.565 350.918 69.6198 349.015C75.6746 347.112 75.8906 344.838 74.1707 342.655C72.4508 340.472 66.1524 337.212 68.3043 334.847C70.4571 332.482 74.3529 346.528 77.4586 343.794C80.5633 341.06 81.7019 337.772 80.2895 335.251C78.8772 332.731 78.8772 332.731 78.8772 332.731C78.8772 332.731 72.5788 329.47 70.8588 327.287C69.1389 325.104 71.7815 326.273 74.7618 327.75C77.7421 329.227 84.1018 333.778 84.6858 332.457C85.2706 331.136 83.6441 324.097 82.5703 321.884C81.4957 319.671 71.8455 320.773 70.8313 319.85C69.818 318.928 75.1964 316.41 76.8257 316.657C78.4541 316.903 80.4211 317.457 80.4211 317.457C80.4211 317.457 80.8842 313.555 75.8453 309.588C70.8073 305.622 69.4216 310.538 69.4216 310.538Z" fill="#263238"/>
<path d="M64.4538 340.62C63.3161 335.315 62.0344 327.818 62.5632 322.828" stroke="#263238" stroke-miterlimit="10" stroke-linecap="round"/>
<path d="M65.9641 346.924C65.9641 346.924 65.5668 345.477 65.0388 343.225" stroke="#263238" stroke-miterlimit="10" stroke-linecap="round"/>
<path d="M64.7766 321.753C64.7766 321.753 73.5353 322.31 79.8639 326.216" stroke="#263238" stroke-miterlimit="10" stroke-linecap="round"/>
<path d="M64.4663 328.883C64.4663 328.883 64.7125 327.254 71.4713 333.403" stroke="#263238" stroke-miterlimit="10" stroke-linecap="round"/>
<path d="M60.1982 320.675C60.1982 320.675 60.0159 316.802 55.0686 314.772" stroke="#263238" stroke-miterlimit="10" stroke-linecap="round"/>
<path d="M61.1172 326.454L56.8765 325.683" stroke="#263238" stroke-miterlimit="10" stroke-linecap="round"/>
<path d="M61.3909 332.262C61.3909 332.262 53.3993 334.256 50.6323 337.298" stroke="#263238" stroke-miterlimit="10" stroke-linecap="round"/>
<path d="M51.4509 357.25C51.4509 357.25 65.1792 367.727 66.6236 383.261L63.7339 331.239" stroke="#263238" stroke-miterlimit="10" stroke-linecap="round"/>
<path d="M84.687 349.664C66.6238 346.412 66.6238 383.261 66.6238 383.261" stroke="#263238" stroke-miterlimit="10" stroke-linecap="round"/>
<path d="M68.7916 382.9C68.7916 382.9 58.3148 306.674 88.6609 306.674" stroke="#263238" stroke-miterlimit="10" stroke-linecap="round"/>
<path d="M77.8044 347.472C75.3369 344.696 70.0936 344.696 67.0093 351.79C63.925 358.883 66.7009 357.65 66.7009 357.65C66.7009 357.65 72.5611 355.799 76.2622 354.565C79.9634 353.332 84.8983 350.247 85.2067 352.098C85.5151 353.949 82.7393 355.799 79.3465 356.416C75.9538 357.033 67.0093 359.5 67.9346 361.351C68.8599 363.202 71.0189 368.753 71.0189 368.753C71.0189 368.753 75.3369 365.052 79.3465 362.585C83.3561 360.117 85.8236 361.043 83.6646 363.818C81.5056 366.594 75.3369 369.679 76.5707 373.38C77.8044 377.081 85.2067 381.707 85.2067 381.707C85.2067 381.707 86.132 373.997 88.291 371.529C90.45 369.062 90.45 371.838 89.8332 376.156C89.2163 380.474 89.2163 381.707 89.2163 381.707L97.8524 384.792C97.8524 384.792 100.937 380.165 102.479 378.623C104.021 377.081 104.021 377.081 104.021 377.081C104.021 377.081 97.2355 371.221 96.9271 367.52C96.6187 363.818 101.554 367.52 103.096 368.136C104.638 368.753 107.105 373.071 107.105 373.071C107.105 373.071 108.647 365.977 108.956 363.51C109.264 361.042 109.264 361.042 109.264 361.042C109.264 361.042 102.787 358.575 100.32 358.575C97.8524 358.575 96.6187 360.426 96.6187 357.958C96.6187 355.491 99.0861 353.949 101.862 354.257C104.638 354.565 109.264 356.108 109.264 356.108C109.264 356.108 111.115 354.565 110.498 349.939C109.881 345.313 108.339 345.313 104.638 346.546C100.937 347.78 98.4692 350.556 95.6934 350.556C92.9175 350.556 94.4596 347.163 96.3102 346.238C98.1608 345.313 102.787 343.462 103.713 343.154C104.638 342.845 98.7777 338.527 95.6934 337.91C92.6091 337.293 88.6155 339.466 88.9079 342.537C89.5239 349.014 80.2718 350.247 77.8044 347.472Z" fill="#92E3A9"/>
<path d="M97.6587 379.228C97.7511 380.156 97.816 381.086 97.8516 382.015" stroke="#263238" stroke-miterlimit="10" stroke-linecap="round"/>
<path d="M91.4624 357.087C93.6285 362.093 96.1333 368.995 97.2675 376.199" stroke="#263238" stroke-miterlimit="10" stroke-linecap="round"/>
<path d="M90.3514 354.61C88.8235 351.324 87.6733 349.322 87.6733 349.322C87.6733 349.322 90.4492 348.088 91.6829 345.621C92.9167 343.153 94.7672 341.919 94.7672 341.919" stroke="#263238" stroke-miterlimit="10" stroke-linecap="round"/>
<path d="M76.8792 359.809C76.8792 359.809 87.9818 355.182 87.9818 356.108" stroke="#263238" stroke-miterlimit="10" stroke-linecap="round"/>
<path d="M94.1504 353.949C94.1504 353.949 99.0853 351.481 103.403 351.481" stroke="#263238" stroke-miterlimit="10" stroke-linecap="round"/>
<path d="M92.2998 361.351C92.2998 361.351 89.5239 363.51 86.4396 367.211C83.3553 370.912 82.1216 374.305 82.1216 374.305" stroke="#263238" stroke-miterlimit="10" stroke-linecap="round"/>
<path d="M95.6926 362.585C95.6926 362.585 102.17 360.734 105.562 363.818" stroke="#263238" stroke-miterlimit="10" stroke-linecap="round"/>
<path d="M107.424 320.911C104.066 318.926 100.353 318.882 98.5333 316.785C96.7138 314.689 100.286 313.63 102.198 314.42C104.11 315.211 108.54 317.491 109.38 317.988C110.219 318.485 109.639 311.229 108.082 308.495C106.526 305.762 102.267 304.171 100.14 306.404C95.6534 311.116 88.6564 304.938 89.1355 301.255C89.6137 297.573 86.1765 293.613 78.7982 295.935C71.4198 298.256 74.1708 299.543 74.1708 299.543C74.1708 299.543 79.4097 302.755 82.7678 304.741C86.1258 306.727 91.69 308.432 90.4945 309.878C89.299 311.324 86.0823 310.441 83.3926 308.283C80.703 306.126 72.9762 300.99 72.1851 302.901C71.3941 304.813 68.6173 310.082 68.6173 310.082C68.6173 310.082 74.2428 310.917 78.7342 312.327C83.2255 313.737 84.1446 316.207 80.6336 316.396C77.1218 316.585 70.7496 313.949 68.7631 317.307C66.7774 320.665 68.1364 329.287 68.1364 329.287C68.1364 329.287 74.5655 324.931 77.8435 324.944C81.1216 324.956 79.0257 326.777 75.361 329.141C71.6963 331.506 70.7648 332.314 70.7648 332.314L74.097 340.857C74.097 340.857 79.6124 340.153 81.7874 340.307C83.9624 340.461 83.9624 340.461 83.9624 340.461C83.9624 340.461 83.9393 331.496 86.532 328.836C89.1248 326.177 89.5648 332.329 90.1106 333.898C90.6554 335.467 89.0128 340.161 89.0128 340.161C89.0128 340.161 95.3805 336.675 97.4453 335.291C99.511 333.906 99.511 333.906 99.511 333.906C99.511 333.906 97.128 327.398 95.5103 325.535C93.8926 323.672 91.6865 323.954 93.5495 322.336C95.4125 320.718 98.1946 321.571 99.7812 323.869C101.368 326.168 103.236 330.673 103.236 330.673C103.236 330.673 105.614 331.059 108.703 327.561C111.793 324.061 110.783 322.897 107.424 320.911ZM78.2364 330.783C75.769 329.549 81.6292 327.082 81.6292 327.082C83.7882 326.773 80.7039 332.017 78.2364 330.783ZM82.3918 319.269C81.3403 318.743 84.4957 317.691 84.4957 317.691C89.0528 318.567 83.4433 319.795 82.3918 319.269Z" fill="#92E3A9"/>
<path d="M78.1715 337.066C77.5307 337.744 76.8712 338.404 76.1938 339.039" stroke="#263238" stroke-miterlimit="10" stroke-linecap="round"/>
<path d="M90.8289 317.872C88.469 322.789 84.8985 329.206 80.2036 334.785" stroke="#263238" stroke-miterlimit="10" stroke-linecap="round"/>
<path d="M91.97 315.41C93.449 312.103 94.2081 309.92 94.2081 309.92C94.2081 309.92 96.9591 311.207 99.6319 310.522C102.304 309.836 104.449 310.425 104.449 310.425" stroke="#263238" stroke-miterlimit="10" stroke-linecap="round"/>
<path d="M79.2134 308.644C79.2134 308.644 89.9853 313.996 89.2867 314.602" stroke="#263238" stroke-miterlimit="10" stroke-linecap="round"/>
<path d="M94.9609 317.845C94.9609 317.845 100.059 319.954 102.889 323.214" stroke="#263238" stroke-miterlimit="10" stroke-linecap="round"/>
<path d="M88.1578 321.299C88.1578 321.299 84.7082 320.619 79.8915 320.715C75.0749 320.813 71.7043 322.106 71.7043 322.106" stroke="#263238" stroke-miterlimit="10" stroke-linecap="round"/>
<path d="M89.4502 324.67C89.4502 324.67 95.0935 328.348 94.9886 332.932" stroke="#263238" stroke-miterlimit="10" stroke-linecap="round"/>
<path d="M59.4994 363.646C56.7973 362.048 53.809 362.013 52.3442 360.326C50.8794 358.639 53.7548 357.787 55.2934 358.423C56.832 359.06 60.3972 360.895 61.0727 361.294C61.7482 361.694 61.2807 355.854 60.0283 353.655C58.7759 351.456 55.3485 350.176 53.6375 351.973C50.027 355.765 44.3961 350.793 44.781 347.829C45.1658 344.866 42.3997 341.679 36.4622 343.548C30.5247 345.416 32.7389 346.451 32.7389 346.451C32.7389 346.451 36.9547 349.036 39.6576 350.634C42.3597 352.232 46.8378 353.604 45.876 354.768C44.9143 355.932 42.3251 355.222 40.1607 353.485C37.9964 351.749 31.778 347.615 31.1416 349.153C30.5052 350.692 28.2706 354.933 28.2706 354.933C28.2706 354.933 32.7975 355.604 36.4125 356.739C40.0274 357.874 40.7669 359.861 37.9413 360.013C35.1156 360.165 29.987 358.045 28.3888 360.747C26.7907 363.449 27.884 370.388 27.884 370.388C27.884 370.388 33.0579 366.882 35.6961 366.893C38.3342 366.903 36.648 368.368 33.6979 370.271C30.7487 372.174 29.9985 372.824 29.9985 372.824L32.6802 379.7C32.6802 379.7 37.1191 379.133 38.8692 379.257C40.6203 379.381 40.6203 379.381 40.6203 379.381C40.6203 379.381 40.6016 372.166 42.6877 370.025C44.7739 367.885 45.1285 372.837 45.5676 374.099C46.0067 375.361 44.6841 379.139 44.6841 379.139C44.6841 379.139 49.8083 376.334 51.4705 375.219C53.1326 374.104 53.1326 374.104 53.1326 374.104C53.1326 374.104 51.2153 368.866 49.9132 367.368C48.6119 365.868 46.836 366.095 48.3355 364.793C49.835 363.491 52.074 364.177 53.3504 366.026C54.6268 367.876 56.1307 371.501 56.1307 371.501C56.1307 371.501 58.0444 371.812 60.5305 368.996C63.0166 366.18 62.2015 365.244 59.4994 363.646ZM36.0107 371.591C34.025 370.598 38.7412 368.612 38.7412 368.612C40.4781 368.364 37.9964 372.584 36.0107 371.591ZM39.3546 362.324C38.5084 361.901 41.0478 361.055 41.0478 361.055C44.7152 361.76 40.2007 362.748 39.3546 362.324Z" fill="#92E3A9"/>
<path d="M35.9577 376.647C35.4421 377.193 34.9115 377.723 34.3657 378.234" stroke="#263238" stroke-miterlimit="10" stroke-linecap="round"/>
<path d="M46.1437 361.201C44.2443 365.158 41.3715 370.321 37.593 374.811" stroke="#263238" stroke-miterlimit="10" stroke-linecap="round"/>
<path d="M47.0627 359.22C48.2529 356.558 48.8636 354.802 48.8636 354.802C48.8636 354.802 51.0777 355.838 53.2278 355.286C55.3779 354.734 57.1041 355.208 57.1041 355.208" stroke="#263238" stroke-miterlimit="10" stroke-linecap="round"/>
<path d="M36.7966 353.774C36.7966 353.774 45.4656 358.081 44.9029 358.569" stroke="#263238" stroke-miterlimit="10" stroke-linecap="round"/>
<path d="M49.469 361.179C49.469 361.179 53.5719 362.876 55.85 365.499" stroke="#263238" stroke-miterlimit="10" stroke-linecap="round"/>
<path d="M43.9943 363.96C43.9943 363.96 41.2175 363.412 37.3412 363.491C33.465 363.569 30.7522 364.609 30.7522 364.609" stroke="#263238" stroke-miterlimit="10" stroke-linecap="round"/>
<path d="M45.0354 366.672C45.0354 366.672 49.5765 369.632 49.4921 373.32" stroke="#263238" stroke-miterlimit="10" stroke-linecap="round"/>
<path d="M48.4814 312.717C48.4814 312.717 45.0886 315.184 42.9296 312.717C40.7706 310.249 43.8549 305.315 40.7706 303.464C37.6863 301.613 32.7514 305.006 32.7514 305.006C32.7514 305.006 36.761 305.931 36.761 308.09C36.761 310.249 34.9104 311.175 34.602 310.249C34.2936 309.324 32.1346 304.698 29.0503 306.857C25.9659 309.016 25.6575 312.1 25.6575 312.1C25.6575 312.1 33.0599 310.866 33.6767 313.642C34.2936 316.418 30.5924 313.334 27.5081 313.334C24.4238 313.334 21.6479 313.951 21.9564 315.801C22.2648 317.652 21.9564 320.736 21.9564 320.736C21.9564 320.736 24.4238 318.269 27.8165 318.269C31.2093 318.269 31.2093 320.428 28.125 320.428C25.0407 320.428 22.5732 323.512 22.5732 323.512C22.5732 323.512 25.6575 328.138 29.3587 330.297C33.0599 332.456 34.2936 331.531 34.602 329.681C34.9104 327.83 33.6767 323.204 35.8357 323.204C37.9947 323.204 32.7514 331.531 35.5273 331.84C38.3032 332.148 40.4622 331.223 41.0791 329.372C41.6959 327.522 41.6959 327.522 41.6959 327.522C41.6959 327.522 40.4622 322.895 40.7706 321.044C41.0791 319.194 41.6959 321.045 42.3128 323.204C42.9296 325.363 43.5465 330.606 44.4718 330.297C45.3971 329.989 48.173 325.979 48.7898 324.437C49.4067 322.895 44.4718 318.577 44.4718 317.652C44.4718 316.726 48.173 318.269 48.7898 319.194C49.4067 320.119 50.0235 321.353 50.0235 321.353C50.0235 321.353 52.1825 319.811 51.8741 315.493C51.5657 311.175 48.4814 312.717 48.4814 312.717Z" fill="#92E3A9"/>
<path d="M31.2039 323.903C33.3353 320.925 36.497 316.879 39.2284 314.876" stroke="#263238" stroke-miterlimit="10" stroke-linecap="round"/>
<path d="M28.7417 327.521C28.7417 327.521 29.2839 326.665 30.1683 325.378" stroke="#263238" stroke-miterlimit="10" stroke-linecap="round"/>
<path d="M40.7705 315.493C40.7705 315.493 44.4717 320.119 45.397 325.054" stroke="#263238" stroke-miterlimit="10" stroke-linecap="round"/>
<path d="M37.0696 318.576C37.0696 318.576 37.9949 317.959 37.9949 324.128" stroke="#263238" stroke-miterlimit="10" stroke-linecap="round"/>
<path d="M39.2285 312.717C39.2285 312.717 41.0791 310.866 39.8454 307.474" stroke="#263238" stroke-miterlimit="10" stroke-linecap="round"/>
<path d="M36.7611 315.801L35.219 313.334" stroke="#263238" stroke-miterlimit="10" stroke-linecap="round"/>
<path d="M33.9851 318.576C33.9851 318.576 29.3586 315.492 26.5828 315.492" stroke="#263238" stroke-miterlimit="10" stroke-linecap="round"/>
<path d="M79.6302 381.816H55.7869V394.406H79.6302V381.816Z" fill="#263238" stroke="#263238" stroke-width="2" stroke-miterlimit="10" stroke-linecap="round"/>
<path opacity="0.2" d="M276.819 297.781H51.7433C46.5889 297.781 42.4104 293.603 42.4104 288.448V15.6659C42.4104 10.5115 46.5889 6.33301 51.7433 6.33301H276.819C281.973 6.33301 286.151 10.5115 286.151 15.6659V288.448C286.151 293.603 281.973 297.781 276.819 297.781Z" fill="black"/>
<path d="M269.708 292.448H44.6325C39.478 292.448 35.2996 288.27 35.2996 283.115V10.3329C35.2996 5.17848 39.478 1 44.6325 1H269.708C274.862 1 279.041 5.17848 279.041 10.3329V283.115C279.041 288.27 274.862 292.448 269.708 292.448Z" fill="#E3E3E3" stroke="#263238" stroke-miterlimit="10" stroke-linecap="round" stroke-linejoin="round"/>
<path d="M243.424 1H61.7527V292.448H243.424V1Z" fill="white" stroke="#263238" stroke-miterlimit="10" stroke-linecap="round" stroke-linejoin="round"/>
<path d="M270.945 1.6875V293.018C275.499 292.514 279.041 288.657 279.041 283.969V10.736C279.041 6.04819 275.499 2.19148 270.945 1.6875Z" fill="#B2B2B2" stroke="#263238" stroke-miterlimit="10" stroke-linecap="round" stroke-linejoin="round"/>
<path d="M279.041 114.68H270.945V160.363H279.041V114.68Z" fill="#808080" stroke="#263238" stroke-miterlimit="10" stroke-linecap="round" stroke-linejoin="round"/>
<path d="M279.041 39.2698V10.736C279.041 5.70597 274.963 1.62793 269.933 1.62793H44.4076C39.3776 1.62793 35.2996 5.70597 35.2996 10.736V39.2698H279.041Z" fill="#B2B2B2" stroke="#263238" stroke-miterlimit="10" stroke-linecap="round" stroke-linejoin="round"/>
<path d="M152.371 16.3789H48.6697V23.2737H152.371V16.3789Z" fill="white" stroke="#263238" stroke-miterlimit="10" stroke-linecap="round" stroke-linejoin="round"/>
<path d="M279.041 26.9854H35.2996V39.2701H279.041V26.9854Z" fill="#263238" stroke="#263238" stroke-miterlimit="10" stroke-linecap="round" stroke-linejoin="round"/>
<path d="M40.9473 30.1689H47.2901" stroke="white" stroke-miterlimit="10" stroke-linecap="round" stroke-linejoin="round"/>
<path d="M40.9473 32.9268H47.2901" stroke="white" stroke-miterlimit="10" stroke-linecap="round" stroke-linejoin="round"/>
<path d="M40.9473 35.6855H47.2901" stroke="white" stroke-miterlimit="10" stroke-linecap="round" stroke-linejoin="round"/>
<path d="M73.7415 30.0557V37.2198" stroke="white" stroke-miterlimit="10" stroke-linecap="round" stroke-linejoin="round"/>
<path d="M111.096 30.0557V37.2198" stroke="white" stroke-miterlimit="10" stroke-linecap="round" stroke-linejoin="round"/>
<path d="M148.452 30.0557V37.2198" stroke="white" stroke-miterlimit="10" stroke-linecap="round" stroke-linejoin="round"/>
<path d="M185.807 30.0557V37.2198" stroke="white" stroke-miterlimit="10" stroke-linecap="round" stroke-linejoin="round"/>
<path d="M223.161 30.0557V37.2198" stroke="white" stroke-miterlimit="10" stroke-linecap="round" stroke-linejoin="round"/>
<path d="M279.041 12.2435V10.736C279.041 5.70597 274.963 1.62793 269.933 1.62793H44.4076C39.3776 1.62793 35.2996 5.70597 35.2996 10.736V12.2435H279.041Z" fill="#263238" stroke="#263238" stroke-miterlimit="10" stroke-linecap="round" stroke-linejoin="round"/>
<path d="M244.181 9.68665C245.683 9.68665 246.902 8.46852 246.902 6.96588C246.902 5.46325 245.683 4.24512 244.181 4.24512C242.678 4.24512 241.46 5.46325 241.46 6.96588C241.46 8.46852 242.678 9.68665 244.181 9.68665Z" fill="white" stroke="#263238" stroke-miterlimit="10" stroke-linecap="round" stroke-linejoin="round"/>
<path d="M252.76 9.68665C254.263 9.68665 255.481 8.46852 255.481 6.96588C255.481 5.46325 254.263 4.24512 252.76 4.24512C251.257 4.24512 250.039 5.46325 250.039 6.96588C250.039 8.46852 251.257 9.68665 252.76 9.68665Z" fill="white" stroke="#263238" stroke-miterlimit="10" stroke-linecap="round" stroke-linejoin="round"/>
<path d="M264.06 6.96588C264.06 5.46373 262.842 4.24512 261.34 4.24512C259.838 4.24512 258.619 5.46284 258.619 6.96588C258.619 8.46893 259.837 9.68665 261.34 9.68665C262.842 9.68665 264.06 8.46893 264.06 6.96588Z" fill="white" stroke="#263238" stroke-miterlimit="10" stroke-linecap="round" stroke-linejoin="round"/>
<path d="M35.2996 275.439V283.968C35.2996 288.998 39.3776 293.076 44.4076 293.076H269.933C274.963 293.076 279.041 288.998 279.041 283.968V275.439H35.2996Z" fill="#B2B2B2" stroke="#263238" stroke-miterlimit="10" stroke-linecap="round" stroke-linejoin="round"/>
<path d="M214.462 80.7148H79.3696V156.448H214.462V80.7148Z" fill="#92E3A9" stroke="#263238" stroke-miterlimit="10" stroke-linecap="round" stroke-linejoin="round"/>
<path d="M214.463 123.188L184.272 103.743L153.569 134.446L132.077 109.371L80.7962 155.592L79.3696 156.449H214.463V123.188Z" fill="white" stroke="#263238" stroke-miterlimit="10" stroke-linecap="round" stroke-linejoin="round"/>
<path d="M100.35 108.86C106.285 108.86 111.096 104.048 111.096 98.1134C111.096 92.1784 106.285 87.3672 100.35 87.3672C94.415 87.3672 89.6038 92.1784 89.6038 98.1134C89.6038 104.048 94.415 108.86 100.35 108.86Z" fill="white" stroke="#263238" stroke-miterlimit="10" stroke-linecap="round" stroke-linejoin="round"/>
<path d="M79.8816 161.566H213.951" stroke="#263238" stroke-miterlimit="10"/>
<path d="M79.8816 167.708H160.221" stroke="#263238" stroke-miterlimit="10"/>
<path d="M197.236 179.199H214.462" stroke="#263238" stroke-miterlimit="10"/>
<path d="M176.734 179.199H195.246" stroke="#263238" stroke-miterlimit="10"/>
<path d="M169.369 179.199H174.744" stroke="#263238" stroke-miterlimit="10"/>
<path d="M144.089 179.199H167.975" stroke="#263238" stroke-miterlimit="10"/>
<path d="M113.037 179.199H141.502" stroke="#263238" stroke-miterlimit="10"/>
<path d="M90.3462 179.199H110.052" stroke="#263238" stroke-miterlimit="10"/>
<path d="M79.5635 179.199H87.7578" stroke="#263238" stroke-miterlimit="10"/>
<path d="M96.7894 186.317H79.5635" stroke="#263238" stroke-miterlimit="10"/>
<path d="M117.292 186.317H98.7805" stroke="#263238" stroke-miterlimit="10"/>
<path d="M124.657 186.317H119.283" stroke="#263238" stroke-miterlimit="10"/>
<path d="M149.936 186.317H126.05" stroke="#263238" stroke-miterlimit="10"/>
<path d="M180.988 186.317H152.524" stroke="#263238" stroke-miterlimit="10"/>
<path d="M203.681 186.317H183.974" stroke="#263238" stroke-miterlimit="10"/>
<path d="M214.462 186.317H206.268" stroke="#263238" stroke-miterlimit="10"/>
<path d="M197.236 193.126H214.462" stroke="#263238" stroke-miterlimit="10"/>
<path d="M176.734 193.126H195.246" stroke="#263238" stroke-miterlimit="10"/>
<path d="M169.369 193.126H174.744" stroke="#263238" stroke-miterlimit="10"/>
<path d="M144.089 193.126H167.975" stroke="#263238" stroke-miterlimit="10"/>
<path d="M113.037 193.126H141.502" stroke="#263238" stroke-miterlimit="10"/>
<path d="M90.3462 193.126H110.052" stroke="#263238" stroke-miterlimit="10"/>
<path d="M79.5635 193.126H87.7578" stroke="#263238" stroke-miterlimit="10"/>
<path d="M96.7894 200.245H79.5635" stroke="#263238" stroke-miterlimit="10"/>
<path d="M117.292 200.245H98.7805" stroke="#263238" stroke-miterlimit="10"/>
<path d="M124.657 200.245H119.283" stroke="#263238" stroke-miterlimit="10"/>
<path d="M149.936 200.245H126.05" stroke="#263238" stroke-miterlimit="10"/>
<path d="M180.988 200.245H152.524" stroke="#263238" stroke-miterlimit="10"/>
<path d="M203.681 200.245H183.974" stroke="#263238" stroke-miterlimit="10"/>
<path d="M214.462 200.245H206.268" stroke="#263238" stroke-miterlimit="10"/>
<path d="M197.236 207.053H214.462" stroke="#263238" stroke-miterlimit="10"/>
<path d="M176.734 207.053H195.246" stroke="#263238" stroke-miterlimit="10"/>
<path d="M169.369 207.053H174.744" stroke="#263238" stroke-miterlimit="10"/>
<path d="M144.089 207.053H167.975" stroke="#263238" stroke-miterlimit="10"/>
<path d="M113.037 207.053H141.502" stroke="#263238" stroke-miterlimit="10"/>
<path d="M90.3462 207.053H110.052" stroke="#263238" stroke-miterlimit="10"/>
<path d="M79.5635 207.053H87.7578" stroke="#263238" stroke-miterlimit="10"/>
<path d="M96.7894 214.172H79.5635" stroke="#263238" stroke-miterlimit="10"/>
<path d="M117.292 214.172H98.7805" stroke="#263238" stroke-miterlimit="10"/>
<path d="M124.657 214.172H119.283" stroke="#263238" stroke-miterlimit="10"/>
<path d="M149.936 214.172H126.05" stroke="#263238" stroke-miterlimit="10"/>
<path d="M180.988 214.172H152.524" stroke="#263238" stroke-miterlimit="10"/>
<path d="M203.681 214.172H183.974" stroke="#263238" stroke-miterlimit="10"/>
<path d="M214.462 214.172H206.268" stroke="#263238" stroke-miterlimit="10"/>
<path d="M197.236 220.98H214.462" stroke="#263238" stroke-miterlimit="10"/>
<path d="M176.734 220.98H195.246" stroke="#263238" stroke-miterlimit="10"/>
<path d="M169.369 220.98H174.744" stroke="#263238" stroke-miterlimit="10"/>
<path d="M144.089 220.98H167.975" stroke="#263238" stroke-miterlimit="10"/>
<path d="M113.037 220.98H141.502" stroke="#263238" stroke-miterlimit="10"/>
<path d="M90.3462 220.98H110.052" stroke="#263238" stroke-miterlimit="10"/>
<path d="M79.5635 220.98H87.7578" stroke="#263238" stroke-miterlimit="10"/>
<path d="M96.7894 228.098H79.5635" stroke="#263238" stroke-miterlimit="10"/>
<path d="M117.292 228.098H98.7805" stroke="#263238" stroke-miterlimit="10"/>
<path d="M124.657 228.098H119.283" stroke="#263238" stroke-miterlimit="10"/>
<path d="M149.936 228.098H126.05" stroke="#263238" stroke-miterlimit="10"/>
<path d="M180.988 228.098H152.524" stroke="#263238" stroke-miterlimit="10"/>
<path d="M203.681 228.098H183.974" stroke="#263238" stroke-miterlimit="10"/>
<path d="M214.462 228.098H206.268" stroke="#263238" stroke-miterlimit="10"/>
<path d="M197.236 234.907H214.462" stroke="#263238" stroke-miterlimit="10"/>
<path d="M176.734 234.907H195.246" stroke="#263238" stroke-miterlimit="10"/>
<path d="M169.369 234.907H174.744" stroke="#263238" stroke-miterlimit="10"/>
<path d="M144.089 234.907H167.975" stroke="#263238" stroke-miterlimit="10"/>
<path d="M113.037 234.907H141.502" stroke="#263238" stroke-miterlimit="10"/>
<path d="M90.3462 234.907H110.052" stroke="#263238" stroke-miterlimit="10"/>
<path d="M79.5635 234.907H87.7578" stroke="#263238" stroke-miterlimit="10"/>
<path d="M96.7894 242.025H79.5635" stroke="#263238" stroke-miterlimit="10"/>
<path d="M117.292 242.025H98.7805" stroke="#263238" stroke-miterlimit="10"/>
<path d="M124.657 242.025H119.283" stroke="#263238" stroke-miterlimit="10"/>
<path d="M149.936 242.025H126.05" stroke="#263238" stroke-miterlimit="10"/>
<path d="M180.988 242.025H152.524" stroke="#263238" stroke-miterlimit="10"/>
<path d="M203.681 242.025H183.974" stroke="#263238" stroke-miterlimit="10"/>
<path d="M214.462 242.025H206.268" stroke="#263238" stroke-miterlimit="10"/>
<path d="M197.236 248.834H214.462" stroke="#263238" stroke-miterlimit="10"/>
<path d="M176.734 248.834H195.246" stroke="#263238" stroke-miterlimit="10"/>
<path d="M169.369 248.834H174.744" stroke="#263238" stroke-miterlimit="10"/>
<path d="M144.089 248.834H167.975" stroke="#263238" stroke-miterlimit="10"/>
<path d="M113.037 248.834H141.502" stroke="#263238" stroke-miterlimit="10"/>
<path d="M90.3462 248.834H110.052" stroke="#263238" stroke-miterlimit="10"/>
<path d="M79.5635 248.834H87.7578" stroke="#263238" stroke-miterlimit="10"/>
<path d="M96.7894 255.953H79.5635" stroke="#263238" stroke-miterlimit="10"/>
<path d="M117.292 255.953H98.7805" stroke="#263238" stroke-miterlimit="10"/>
<path d="M124.657 255.953H119.283" stroke="#263238" stroke-miterlimit="10"/>
<path d="M149.936 255.953H126.05" stroke="#263238" stroke-miterlimit="10"/>
<path d="M180.988 255.953H152.524" stroke="#263238" stroke-miterlimit="10"/>
<path d="M203.681 255.953H183.974" stroke="#263238" stroke-miterlimit="10"/>
<path d="M214.462 255.953H206.268" stroke="#263238" stroke-miterlimit="10"/>
<path d="M197.236 262.762H214.462" stroke="#263238" stroke-miterlimit="10"/>
<path d="M176.734 262.762H195.246" stroke="#263238" stroke-miterlimit="10"/>
<path d="M169.369 262.762H174.744" stroke="#263238" stroke-miterlimit="10"/>
<path d="M144.089 262.762H167.975" stroke="#263238" stroke-miterlimit="10"/>
<path d="M113.037 262.762H141.502" stroke="#263238" stroke-miterlimit="10"/>
<path d="M90.3462 262.762H110.052" stroke="#263238" stroke-miterlimit="10"/>
<path d="M79.5635 262.762H87.7578" stroke="#263238" stroke-miterlimit="10"/>
<path d="M96.7894 269.879H79.5635" stroke="#263238" stroke-miterlimit="10"/>
<path d="M117.292 269.879H98.7805" stroke="#263238" stroke-miterlimit="10"/>
<path d="M124.657 269.879H119.283" stroke="#263238" stroke-miterlimit="10"/>
<path d="M149.936 269.879H126.05" stroke="#263238" stroke-miterlimit="10"/>
<path d="M180.988 269.879H152.524" stroke="#263238" stroke-miterlimit="10"/>
<path d="M203.681 269.879H183.974" stroke="#263238" stroke-miterlimit="10"/>
<path d="M214.462 269.879H206.268" stroke="#263238" stroke-miterlimit="10"/>
<path d="M84.316 70.8387L83.3739 75.7594H80.8611L85.5373 51.332H89.4803L94.1565 75.7594H91.4339L90.4918 70.8387H84.316ZM84.6654 68.5001H90.1096L87.3523 54.4012L84.6654 68.5001Z" fill="#263238"/>
<path d="M101.731 51.3311C105.569 51.3311 107.175 53.2847 107.175 56.9148V58.904C107.175 61.591 106.232 63.2665 104.139 63.9287C106.373 64.5918 107.21 66.4068 107.21 69.0236V72.827C107.21 73.9087 107.245 74.9202 107.699 75.7584H104.942C104.627 75.0606 104.489 74.4322 104.489 72.7923V68.9543C104.489 66.197 103.197 65.3251 100.929 65.3251H99.0097V75.7593H96.2871V51.3311H101.731ZM101.033 62.847C103.197 62.847 104.488 62.1492 104.488 59.4969V57.1583C104.488 54.9602 103.685 53.8083 101.661 53.8083H99.0088V62.847H101.033Z" fill="#263238"/>
<path d="M113.563 75.7584V53.8083H109.062V51.3311H120.752V53.8083H116.251V75.7584H113.563Z" fill="#263238"/>
<path d="M125.325 51.3311V75.7584H122.602V51.3311H125.325Z" fill="#263238"/>
<path d="M138.899 57.2279V59.4269H136.317V57.0892C136.317 54.8902 135.445 53.5649 133.455 53.5649C131.501 53.5649 130.594 54.8911 130.594 57.0892V70.0006C130.594 72.1997 131.501 73.5249 133.455 73.5249C135.444 73.5249 136.317 72.1988 136.317 70.0006V66.8248H138.899V69.8611C138.899 73.5605 137.155 76.003 133.386 76.003C129.652 76.003 127.907 73.5596 127.907 69.8611V57.2279C127.907 53.5285 129.652 51.0859 133.386 51.0859C137.155 51.0859 138.899 53.5285 138.899 57.2279Z" fill="#263238"/>
<path d="M141.378 75.7584V51.3311H144.101V73.2812H151.08V75.7584H141.378Z" fill="#263238"/>
<path d="M161.829 62.1492V64.5918H155.862V73.2812H163.191V75.7584H153.14V51.3311H163.19V53.8083H155.861V62.1492H161.829Z" fill="#263238"/>
<path d="M270.088 270.084C270.088 270.084 249.645 274.972 242.534 285.194C235.423 295.416 218.535 327.414 214.091 333.636C209.647 339.858 194.536 348.747 191.87 361.635C189.203 374.523 192.314 383.412 206.091 390.523C219.868 397.633 238.09 382.967 248.756 378.968L249.2 394.967H360.306L364.306 375.857C364.306 375.857 388.75 378.079 395.416 375.857C402.082 373.635 410.971 378.968 411.86 373.635C412.749 368.301 408.749 357.191 403.416 347.858C398.083 338.525 398.083 341.192 392.749 328.303C387.416 315.415 383.417 303.415 378.972 292.305C374.528 281.194 365.253 271.756 356.653 268.89C348.053 266.023 328.308 267.861 320.753 266.973C313.198 266.084 270.088 270.084 270.088 270.084Z" fill="#92E3A9" stroke="#263238" stroke-miterlimit="10" stroke-linecap="round" stroke-linejoin="round"/>
<path d="M361.936 363.412C361.936 363.412 369.639 351.264 383.564 347.413" stroke="#263238" stroke-miterlimit="10" stroke-linecap="round" stroke-linejoin="round"/>
<path d="M383.18 336.584C384.364 335.981 385.58 335.438 386.824 334.968" stroke="#263238" stroke-miterlimit="10" stroke-linecap="round" stroke-linejoin="round"/>
<path d="M359.862 358.672C359.862 358.672 367.78 346.169 379.597 338.639" stroke="#263238" stroke-miterlimit="10" stroke-linecap="round" stroke-linejoin="round"/>
<path d="M365.192 314.11C360.756 325.278 354.226 344.378 355.418 357.487" stroke="#263238" stroke-miterlimit="10" stroke-linecap="round" stroke-linejoin="round"/>
<path d="M369.047 305.044C369.047 305.044 368.237 306.774 367.009 309.675" stroke="#263238" stroke-miterlimit="10" stroke-linecap="round" stroke-linejoin="round"/>
<path d="M214.697 350.027C219.391 351.288 225.095 354.037 230.386 359.857" stroke="#263238" stroke-miterlimit="10" stroke-linecap="round" stroke-linejoin="round"/>
<path d="M204.61 349.191C204.61 349.191 207.01 348.782 210.665 349.237" stroke="#263238" stroke-miterlimit="10" stroke-linecap="round" stroke-linejoin="round"/>
<path d="M221.147 341.86C226.366 345.573 233.017 351.707 235.719 360.153" stroke="#263238" stroke-miterlimit="10" stroke-linecap="round" stroke-linejoin="round"/>
<path d="M214.091 337.636C214.091 337.636 215.931 338.475 218.566 340.132" stroke="#263238" stroke-miterlimit="10" stroke-linecap="round" stroke-linejoin="round"/>
<path d="M289.126 292.46C289.126 292.46 294.859 302.016 309.193 301.697C323.527 301.379 329.579 285.771 329.579 277.808C329.579 269.844 324.482 264.43 311.104 267.615C297.725 270.801 282.754 271.119 289.126 292.46Z" fill="white" stroke="#263238" stroke-miterlimit="10" stroke-linecap="round" stroke-linejoin="round"/>
<path d="M291.355 273.667C291.355 273.667 287.533 286.727 289.126 292.46C290.718 298.193 293.903 303.29 293.903 303.29C293.903 303.29 304.733 293.097 306.326 291.823C307.919 290.548 317.793 301.697 319.066 302.971C320.34 304.246 327.667 299.786 329.896 289.275C332.125 278.764 330.534 266.341 328.303 263.156C326.073 259.971 323.526 259.652 323.526 259.652C323.526 259.652 299.637 257.103 291.355 273.667Z" fill="white" stroke="#263238" stroke-miterlimit="10" stroke-linecap="round" stroke-linejoin="round"/>
<path d="M293.585 274.941C293.585 274.941 302.822 290.549 305.689 290.867C308.556 291.185 321.297 280.675 324.8 272.074C328.304 263.474 325.438 254.237 325.438 254.237C325.438 254.237 314.608 267.934 307.281 272.393C299.955 276.852 293.585 274.941 293.585 274.941Z" fill="white" stroke="#263238" stroke-miterlimit="10" stroke-linecap="round" stroke-linejoin="round"/>
<path d="M307.281 272.393C301.112 276.147 295.638 275.388 294.057 275.053L293.744 275.208C294.348 276.217 296.642 280.008 299.129 283.614C300.804 284.046 302.801 283.878 305.151 282.638C314.338 277.791 321.482 261.459 321.482 261.459L317.398 263.483C314.123 266.949 310.388 270.502 307.281 272.393Z" fill="#263238" stroke="#263238" stroke-miterlimit="10" stroke-linecap="round" stroke-linejoin="round"/>
<path d="M261.732 190.213C261.732 190.213 241.23 222.909 245.052 241.702C248.874 260.495 266.51 282.905 261.095 288.956C255.68 295.008 252.813 292.778 255.361 296.282C257.909 299.786 273.517 303.608 284.984 299.786C296.451 295.964 297.724 279.718 291.672 271.119C285.62 262.518 274.472 229.71 279.25 222.066C284.027 214.421 303.139 218.88 309.828 222.066C316.516 225.251 325.117 244.044 324.161 252.644C323.206 261.244 327.028 280.993 340.088 281.311C353.148 281.629 356.652 268.889 356.652 268.889C356.652 268.889 348.051 270.8 348.051 266.022C348.051 261.244 355.059 255.192 351.873 241.814C348.687 228.436 341.362 225.888 340.406 211.872C339.45 197.857 334.036 184.161 323.206 176.198C312.378 168.234 283.711 156.767 261.732 190.213Z" fill="#263238" stroke="#263238" stroke-miterlimit="10" stroke-linecap="round" stroke-linejoin="round"/>
<path d="M263.56 234.654C262.633 237.895 262.284 242.174 263.352 247.707C266.497 264.004 281.365 280.303 278.506 290.311C275.646 300.318 266.783 299.461 261.635 295.172" stroke="#6B6B6B" stroke-miterlimit="10" stroke-linecap="round" stroke-linejoin="round"/>
<path d="M269.356 225.976C269.356 225.976 267.18 227.268 265.314 230.483" stroke="#6B6B6B" stroke-miterlimit="10" stroke-linecap="round" stroke-linejoin="round"/>
<path d="M273.324 277.753C275.093 280.442 276.219 283.219 276.219 286.308" stroke="#6B6B6B" stroke-miterlimit="10" stroke-linecap="round" stroke-linejoin="round"/>
<path d="M278.455 194.904C271.943 200.214 264.112 207.686 258.491 216.54C247.053 234.554 248.197 239.128 254.487 253.426C258.514 262.578 266.29 268.8 271.366 275.094" stroke="#6B6B6B" stroke-miterlimit="10" stroke-linecap="round" stroke-linejoin="round"/>
<path d="M290.515 186.231C290.515 186.231 287.267 188.172 282.635 191.639" stroke="#6B6B6B" stroke-miterlimit="10" stroke-linecap="round" stroke-linejoin="round"/>
<path d="M294.518 175.938C294.518 175.938 289.086 193.093 289.943 196.524" stroke="#6B6B6B" stroke-miterlimit="10" stroke-linecap="round" stroke-linejoin="round"/>
<path d="M340.105 274.505C341.375 275.496 342.906 276.272 344.556 276.872" stroke="#6B6B6B" stroke-miterlimit="10" stroke-linecap="round" stroke-linejoin="round"/>
<path d="M328.983 216.16C332.782 218.809 337.183 223.017 341.411 229.693C352.277 246.849 343.985 250.852 338.838 260.288C335.99 265.509 336.119 269.33 337.868 272.089" stroke="#6B6B6B" stroke-miterlimit="10" stroke-linecap="round" stroke-linejoin="round"/>
<path d="M318.537 211.679C318.537 211.679 321.058 211.859 324.834 213.703" stroke="#6B6B6B" stroke-miterlimit="10" stroke-linecap="round" stroke-linejoin="round"/>
<path d="M334.561 208.609C336.098 210.419 337.228 212.115 337.98 213.394" stroke="#6B6B6B" stroke-miterlimit="10" stroke-linecap="round" stroke-linejoin="round"/>
<path d="M294.232 190.806C294.232 190.806 295.947 197.097 311.388 197.383C320.984 197.561 327.819 201.824 332.305 206.194" stroke="#6B6B6B" stroke-miterlimit="10" stroke-linecap="round" stroke-linejoin="round"/>
<path d="M291.037 198.176C291.037 198.176 273.518 213.784 270.014 223.659C266.51 233.533 277.977 256.785 279.251 260.29C280.611 264.023 284.336 267.499 286.897 270.415C291.052 275.143 297.284 281.41 304.188 280.475C312.802 279.308 321.642 265.973 325.438 259.014C329.26 252.007 329.897 241.495 329.897 241.495C329.897 241.495 334.357 241.813 334.357 235.761C334.357 229.709 334.994 220.472 331.808 220.472C328.623 220.472 326.075 222.702 326.075 222.702C326.075 222.702 315.245 218.88 304.734 210.598C294.221 202.317 291.037 198.176 291.037 198.176Z" fill="white" stroke="#263238" stroke-miterlimit="10" stroke-linecap="round" stroke-linejoin="round"/>
<path d="M291.992 254.556C291.992 254.556 292.948 259.015 297.725 257.741C302.503 256.467 303.14 254.875 303.14 254.875" stroke="#263238" stroke-miterlimit="10" stroke-linecap="round" stroke-linejoin="round"/>
<path d="M291.673 261.245C291.673 261.245 302.185 265.067 308.237 258.696" stroke="#263238" stroke-miterlimit="10" stroke-linecap="round" stroke-linejoin="round"/>
<path d="M300.593 228.755C300.593 228.755 304.734 223.977 314.289 226.844" stroke="#263238" stroke-width="2" stroke-miterlimit="10" stroke-linecap="round" stroke-linejoin="round"/>
<path d="M286.577 232.258C286.577 232.258 280.207 230.028 274.792 230.028" stroke="#263238" stroke-width="2" stroke-miterlimit="10" stroke-linecap="round" stroke-linejoin="round"/>
<path d="M292.948 236.081C292.948 236.081 286.258 232.895 277.977 232.577C269.695 232.259 268.421 233.532 268.74 234.807C269.058 236.081 269.377 249.459 276.703 250.733C284.029 252.007 291.037 250.733 292.311 247.229C293.585 243.726 292.948 236.081 292.948 236.081Z" stroke="#263238" stroke-miterlimit="10" stroke-linecap="round" stroke-linejoin="round"/>
<path d="M297.404 235.482C297.404 235.482 303.514 231.292 311.645 229.686C319.775 228.08 321.233 229.139 321.117 230.448C321.001 231.756 322.773 245.02 315.736 247.421C308.698 249.823 301.577 249.658 299.772 246.395C297.967 243.133 297.404 235.482 297.404 235.482Z" stroke="#263238" stroke-miterlimit="10" stroke-linecap="round" stroke-linejoin="round"/>
<path d="M292.948 236.081C292.948 236.081 294.852 234.247 297.404 235.482" stroke="#263238" stroke-miterlimit="10" stroke-linecap="round" stroke-linejoin="round"/>
<path d="M286.56 241.587C286.812 243.328 286.309 244.841 285.439 244.967C284.569 245.092 283.659 243.783 283.408 242.042C283.157 240.301 283.659 238.788 284.529 238.662C285.401 238.536 286.31 239.846 286.56 241.587Z" fill="#263238"/>
<path d="M309.176 239.994C309.428 241.735 308.925 243.248 308.055 243.374C307.184 243.5 306.275 242.19 306.024 240.449C305.772 238.708 306.275 237.195 307.145 237.069C308.016 236.944 308.925 238.253 309.176 239.994Z" fill="#263238"/>
<path d="M320.977 229.074L326.074 222.703" stroke="#263238" stroke-miterlimit="10" stroke-linecap="round" stroke-linejoin="round"/>
<path d="M327.863 351.857C327.863 351.857 326.975 348.302 322.53 344.747C318.086 341.191 307.42 338.525 307.42 341.636C307.42 344.747 318.086 354.079 321.197 358.524C324.308 362.968 327.419 372.745 334.085 377.634C340.752 382.523 374.084 393.189 388.305 394.078C402.527 394.967 411.86 385.634 411.415 375.856C410.971 366.079 403.86 357.19 392.305 355.413C380.75 353.635 375.417 359.413 368.751 361.19C362.084 362.968 356.751 364.746 356.751 364.746C356.751 364.746 360.306 352.746 359.418 349.191C358.529 345.635 352.485 343.389 352.485 343.389L347.863 338.969C347.863 338.969 338.53 331.414 337.196 331.414C335.863 331.414 330.53 325.192 323.864 325.192C317.197 325.192 308.753 330.081 311.42 332.747C314.086 335.414 319.864 333.636 322.975 333.636C326.086 333.636 329.197 340.302 329.197 340.302C329.197 340.302 325.197 342.969 326.53 344.747C327.863 346.524 328.752 347.858 328.752 347.858L327.863 351.857Z" fill="white" stroke="#263238" stroke-miterlimit="10" stroke-linecap="round" stroke-linejoin="round"/>
<path d="M328.518 347.276C328.518 347.276 329.166 350.839 331.919 350.839C334.671 350.839 333.538 346.79 334.51 345.494C335.481 344.198 338.072 339.502 338.072 339.502" stroke="#263238" stroke-miterlimit="10" stroke-linecap="round" stroke-linejoin="round"/>
<path d="M351.028 344.036C351.028 344.036 344.712 350.028 344.226 350.353C343.741 350.677 342.283 354.077 341.149 355.859C340.016 357.64 337.262 358.126 336.452 355.859C335.643 353.592 336.776 350.029 337.748 348.41C338.72 346.79 341.797 341.932 341.797 341.932C341.797 341.932 343.902 338.854 346.817 338.854" stroke="#263238" stroke-miterlimit="10" stroke-linecap="round" stroke-linejoin="round"/>
<path d="M347.627 347.6C347.627 347.6 344.226 352.297 344.226 354.078C344.226 355.859 343.093 360.394 344.55 361.041C346.007 361.688 347.951 361.689 348.922 359.584C349.894 357.479 351.027 355.05 351.027 355.05C351.027 355.05 353.294 354.888 354.266 353.268" stroke="#263238" stroke-miterlimit="10" stroke-linecap="round" stroke-linejoin="round"/>
<path d="M351.028 355.049C351.028 355.049 351.514 356.507 353.457 357.479" stroke="#263238" stroke-miterlimit="10" stroke-linecap="round" stroke-linejoin="round"/>
<path d="M336.129 331.243C336.129 331.243 334.348 330.92 333.538 333.025C332.728 335.13 329.197 340.302 329.197 340.302" stroke="#263238" stroke-miterlimit="10" stroke-linecap="round" stroke-linejoin="round"/>
<path d="M333.214 342.58C333.214 342.58 333.701 344.523 333.862 346.142" stroke="#263238" stroke-miterlimit="10" stroke-linecap="round" stroke-linejoin="round"/>
<path d="M336.939 341.77C336.939 341.77 337.425 343.875 339.206 344.847" stroke="#263238" stroke-miterlimit="10" stroke-linecap="round" stroke-linejoin="round"/>
<path d="M356.751 364.746C356.751 364.746 353.344 376.152 350.677 379.116" stroke="#263238" stroke-miterlimit="10" stroke-linecap="round" stroke-linejoin="round"/>
<path d="M234.493 325.375L259.683 394.257C260.327 396.018 262.002 397.188 263.877 397.188H329.9C333.008 397.188 335.164 394.092 334.088 391.176L309.528 324.676C308.263 321.25 304.989 318.984 301.337 319.006L238.659 319.377C235.568 319.394 233.43 322.472 234.493 325.375Z" fill="#263238" stroke="#263238" stroke-miterlimit="10" stroke-linecap="round" stroke-linejoin="round"/>
<path d="M227.424 364.746L228.757 354.08C228.757 354.08 233.201 352.746 230.979 345.191C228.757 337.636 227.424 336.747 230.09 336.747C232.757 336.747 238.09 338.08 239.423 342.525C240.756 346.969 241.201 354.968 241.201 354.968C241.201 354.968 272.755 350.524 274.977 350.524C277.199 350.524 279.421 352.746 275.866 354.524C272.31 356.302 254.534 364.301 254.534 364.301C254.534 364.301 277.199 359.413 278.532 359.413C279.866 359.413 284.31 359.413 282.088 361.635C279.866 363.857 274.088 366.524 274.088 366.524C274.088 366.524 284.31 364.746 283.866 367.857C283.421 370.968 272.755 374.079 272.755 374.079C272.755 374.079 277.644 374.079 276.31 376.301C274.977 378.523 255.422 385.634 251.423 387.411C247.423 389.189 235.423 389.189 235.423 389.189C235.423 389.189 228.312 393.633 218.535 395.411C208.758 397.189 198.536 396.744 194.092 386.523C189.648 376.301 193.203 362.079 202.091 357.635C210.98 353.191 217.202 354.524 220.757 357.191C224.313 359.857 227.424 364.746 227.424 364.746Z" fill="white" stroke="#263238" stroke-miterlimit="10" stroke-linecap="round" stroke-linejoin="round"/>
<path d="M254.534 364.301L245.645 366.968" stroke="#263238" stroke-miterlimit="10" stroke-linecap="round" stroke-linejoin="round"/>
<path d="M274.088 366.523L248.312 374.523" stroke="#263238" stroke-miterlimit="10" stroke-linecap="round" stroke-linejoin="round"/>
<path d="M272.755 374.079L250.978 381.634" stroke="#263238" stroke-miterlimit="10" stroke-linecap="round" stroke-linejoin="round"/>
<path d="M227.424 364.746C227.424 364.746 225.646 368.301 220.313 364.746" stroke="#263238" stroke-miterlimit="10" stroke-linecap="round" stroke-linejoin="round"/>
<path d="M235.423 389.189L225.201 386.967" stroke="#263238" stroke-miterlimit="10" stroke-linecap="round" stroke-linejoin="round"/>
<path d="M241.201 354.968L231.868 356.746" stroke="#263238" stroke-miterlimit="10" stroke-linecap="round" stroke-linejoin="round"/>
<path d="M141.064 336.433C140.999 337.861 141.175 339.391 141.778 340.9C143.968 346.374 144.607 348.63 143.718 353.074" stroke="#263238" stroke-miterlimit="10" stroke-linecap="round"/>
<path d="M143.176 329.439C143.176 329.439 142.236 330.957 141.607 333.183" stroke="#263238" stroke-miterlimit="10" stroke-linecap="round"/>
<path d="M151.003 329.439C151.003 329.439 147.369 335.309 149.606 340.899C151.796 346.374 152.434 348.63 151.545 353.074" stroke="#263238" stroke-miterlimit="10" stroke-linecap="round"/>
<path d="M159.756 349.846C159.739 350.833 159.61 351.874 159.37 353.074" stroke="#263238" stroke-miterlimit="10" stroke-linecap="round"/>
<path d="M158.829 329.439C158.829 329.439 155.195 335.309 157.432 340.899C158.231 342.898 158.824 344.466 159.21 345.87" stroke="#263238" stroke-miterlimit="10" stroke-linecap="round"/>
<path d="M165.547 364.92C165.547 364.92 169.174 361.293 171.812 364.26C174.449 367.227 173.461 382.064 171.152 386.68C168.845 391.296 163.552 386.92 163.552 386.92L163.569 383.713C163.569 383.713 165.932 385.901 168.57 383.264C171.207 380.627 170.493 370.195 169.503 368.546C168.514 366.897 164.558 369.206 164.558 369.206L165.547 364.92Z" fill="white" stroke="#263238" stroke-miterlimit="10" stroke-linecap="round" stroke-linejoin="round"/>
<path d="M163.502 401H138.447L135.315 357.034H166.633L163.502 401Z" fill="white" stroke="#263238" stroke-miterlimit="10" stroke-linecap="round" stroke-linejoin="round"/>
</svg>
