<svg width="50" height="38" viewBox="0 0 50 38" fill="none" xmlns="http://www.w3.org/2000/svg">
<path fill-rule="evenodd" clip-rule="evenodd" d="M3.125 0H46.875C48.6009 0 50 1.39911 50 3.125C50 4.85089 48.6009 6.25 46.875 6.25H3.125C1.39911 6.25 0 4.85089 0 3.125C0 1.39911 1.39911 0 3.125 0ZM3.125 15.625H46.875C48.6009 15.625 50 17.0241 50 18.75C50 20.4759 48.6009 21.875 46.875 21.875H3.125C1.39911 21.875 0 20.4759 0 18.75C0 17.0241 1.39911 15.625 3.125 15.625ZM3.125 31.25H46.875C48.6009 31.25 50 32.6491 50 34.375C50 36.1009 48.6009 37.5 46.875 37.5H3.125C1.39911 37.5 0 36.1009 0 34.375C0 32.6491 1.39911 31.25 3.125 31.25Z" fill="#086099"/>
</svg>
