<svg width="380" height="380" viewBox="0 0 380 380" fill="none" xmlns="http://www.w3.org/2000/svg">
<path d="M146.907 12.0417C138.633 14.6221 106.527 25.5882 69.872 57.3934C60.9931 65.0976 25.1009 96.2388 9.76619 138.109C-16.3346 209.373 14.8978 317.792 104.859 361.363C209.647 412.112 340.528 351.946 370.717 268.349C384.105 231.271 386.19 167.489 352.459 126.945C325.315 94.3147 278.892 78.8111 280.692 47.9476C281.56 33.0828 292.776 28.9724 289.664 19.6101C282.286 -2.59202 205.376 -6.18396 146.907 12.0417Z" fill="#CADDFF"/>
<path d="M116.029 13.9134C123.413 12.7407 130.351 17.7811 131.521 25.1669C132.692 32.5527 127.656 39.49 120.27 40.6608C112.882 41.8316 105.947 36.7931 104.774 29.4073C103.603 22.0235 108.642 15.0862 116.029 13.9134ZM90.8625 28.951L91.6857 34.1467L97.4192 34.5156C97.825 35.6845 98.3201 36.8067 98.9026 37.8688L95.3495 42.3733L98.6599 46.4603L103.813 43.9129C104.739 44.709 105.727 45.4293 106.774 46.0642L105.947 51.7511L110.857 53.6364L114.041 48.862C115.231 49.0873 116.449 49.2115 117.686 49.2368L119.814 54.5761L125.007 53.7529L125.378 48.0194C126.547 47.6136 127.667 47.1166 128.729 46.5321L133.234 50.0891L137.321 46.7748L134.773 41.6257C135.571 40.6996 136.292 39.7075 136.925 38.6629L142.612 39.49L144.495 34.5797L139.723 31.3955C139.95 30.2053 140.074 28.986 140.099 27.7492L145.435 25.6232L144.612 20.4294L138.88 20.0586C138.472 18.8897 137.977 17.7694 137.393 16.7093L140.948 12.2048L137.637 8.11585L132.486 10.6613C131.56 9.86328 130.568 9.14489 129.523 8.50999L130.351 2.82307L125.44 0.941671L122.256 5.7141C121.068 5.48693 119.848 5.36267 118.61 5.33743L116.486 0L111.29 0.825176L110.919 6.55869C109.75 6.96448 108.63 7.45959 107.57 8.04206L103.063 4.48896L98.9764 7.79937L101.522 12.9523C100.726 13.8765 100.005 14.8668 99.3725 15.9113L93.6856 15.0862L91.8022 19.9984L96.5746 23.1806C96.3475 24.3689 96.2232 25.5882 96.1999 26.825L90.8625 28.951Z" fill="white"/>
<path d="M118.229 16.1113C114.839 16.6511 111.859 18.4743 109.842 21.2546C107.824 24.0311 107.009 27.4289 107.547 30.8228C108.657 37.8203 115.253 42.614 122.256 41.5035C129.255 40.3929 134.049 33.7934 132.939 26.794C131.828 19.7965 125.231 15.0027 118.229 16.1113ZM120.235 43.0373C113.364 43.0373 107.3 38.0319 106.191 31.0363C105.595 27.2832 106.498 23.5224 108.731 20.4488C110.964 17.3714 114.263 15.3502 118.016 14.758C125.763 13.5271 133.065 18.8315 134.294 26.5784C135.523 34.3273 130.219 41.6297 122.472 42.8587C121.72 42.9791 120.973 43.0373 120.235 43.0373ZM116.134 49.6931C116.177 49.6931 116.222 49.6989 116.264 49.7067C117.408 49.9241 118.596 50.0484 119.794 50.0697C120.07 50.0756 120.316 50.2464 120.417 50.5027L122.341 55.3315L126.452 54.6791L126.788 49.4931C126.805 49.2174 126.988 48.9805 127.248 48.8893C128.38 48.4971 129.471 48.0117 130.492 47.4505C130.733 47.3185 131.032 47.3438 131.248 47.5146L135.321 50.7279L138.556 48.1087L136.253 43.4489C136.131 43.2023 136.169 42.9053 136.348 42.6956C137.119 41.8005 137.822 40.8355 138.431 39.8259C138.575 39.5929 138.847 39.4648 139.119 39.5036L144.262 40.2531L145.753 36.366L141.435 33.4866C141.208 33.3352 141.089 33.0595 141.142 32.7877C141.359 31.6441 141.482 30.4558 141.507 29.2559C141.511 28.9802 141.682 28.7336 141.938 28.6307L146.765 26.7085L146.114 22.5982L140.928 22.2642C140.653 22.2448 140.414 22.0643 140.326 21.8041C139.93 20.6702 139.449 19.579 138.886 18.5577C138.754 18.3189 138.779 18.018 138.948 17.8044L142.163 13.729L139.544 10.4943L134.884 12.797C134.636 12.9194 134.341 12.8805 134.133 12.7019C133.236 11.9311 132.271 11.2282 131.263 10.6186C131.026 10.4749 130.898 10.205 130.939 9.93125L131.686 4.78798L127.801 3.29878L124.922 7.613C124.768 7.84405 124.495 7.96054 124.221 7.90812C123.079 7.69066 121.891 7.5664 120.691 7.54504C120.415 7.53922 120.169 7.36836 120.068 7.11207L118.146 2.28333L114.033 2.93571L113.699 8.12363C113.68 8.3974 113.499 8.63427 113.239 8.72553C112.105 9.11773 111.014 9.60313 109.993 10.1642C109.752 10.2963 109.455 10.271 109.238 10.1021L105.164 6.88684L101.93 9.50605L104.232 14.1659C104.355 14.4124 104.318 14.7095 104.137 14.9192C103.366 15.8143 102.665 16.7792 102.054 17.7889C101.91 18.0238 101.638 18.15 101.368 18.1112L96.2252 17.3637L94.734 21.2488L99.0502 24.1301C99.2793 24.2815 99.3958 24.5553 99.3434 24.8291C99.1259 25.9707 99.0036 27.159 98.9803 28.3589C98.9745 28.6346 98.8036 28.8812 98.5473 28.9841L93.7205 30.9063L94.3709 35.0185L99.5569 35.3506C99.8326 35.37 100.07 35.5525 100.161 35.8107C100.555 36.9465 101.038 38.0358 101.599 39.059C101.733 39.2978 101.708 39.5968 101.537 39.8123L98.3221 43.8858L100.943 47.1205L105.601 44.8177C105.85 44.6954 106.145 44.7343 106.354 44.9129C107.248 45.6837 108.213 46.3827 109.224 46.9962C109.459 47.1399 109.587 47.4098 109.548 47.6816L108.799 52.8268L112.686 54.316L115.565 50.0018C115.693 49.8057 115.909 49.6931 116.134 49.6931ZM121.907 56.7818C121.629 56.7818 121.375 56.6129 121.27 56.3488L119.311 51.4289C118.346 51.392 117.39 51.2949 116.457 51.1357L113.523 55.5353C113.344 55.8013 113.004 55.91 112.705 55.7974L107.795 53.9122C107.496 53.7957 107.316 53.4908 107.362 53.1705L108.123 47.9301C107.317 47.4214 106.541 46.8564 105.807 46.2487L101.058 48.5961C100.77 48.7359 100.423 48.6602 100.221 48.4116L96.9105 44.3246C96.7086 44.0741 96.7067 43.7188 96.9047 43.4664L100.18 39.3172C99.7433 38.4765 99.3531 37.5989 99.0191 36.6941L93.736 36.3524C93.4157 36.3311 93.1516 36.0922 93.1011 35.7758L92.2779 30.5801C92.2274 30.2597 92.4041 29.951 92.7012 29.8345L97.6192 27.8754C97.6581 26.9085 97.7571 25.9533 97.9143 25.0213L93.5147 22.0876C93.2468 21.9089 93.14 21.5711 93.2545 21.2701L95.1379 16.3599C95.2544 16.0589 95.5592 15.8803 95.8776 15.9269L101.12 16.688C101.631 15.8822 102.196 15.1056 102.803 14.3717L100.456 9.62254C100.312 9.33713 100.39 8.9857 100.638 8.78572L104.725 5.47531C104.976 5.27144 105.331 5.2695 105.584 5.46948L109.735 8.74494C110.574 8.30614 111.451 7.91783 112.358 7.58387L112.7 2.30081C112.719 1.98044 112.96 1.71639 113.276 1.66785L118.472 0.842672C118.788 0.792191 119.097 0.968876 119.217 1.26594L121.177 6.18593C122.142 6.22476 123.097 6.3199 124.029 6.47911L126.964 2.07947C127.141 1.81347 127.483 1.7028 127.78 1.81735L132.692 3.70263C132.991 3.81913 133.172 4.12396 133.125 4.44432L132.362 9.68661C133.168 10.1953 133.942 10.7584 134.678 11.3661L139.427 9.02065C139.713 8.87891 140.062 8.95463 140.266 9.2051L143.575 13.2902C143.779 13.5407 143.781 13.896 143.582 14.1484L140.305 18.2976C140.742 19.1383 141.132 20.0159 141.468 20.9207L146.749 21.2624C147.07 21.2837 147.334 21.5245 147.386 21.839L148.209 27.0347C148.258 27.3512 148.081 27.6638 147.784 27.7822L142.866 29.7413C142.827 30.7063 142.73 31.6615 142.571 32.5935L146.971 35.5272C147.238 35.7059 147.345 36.0437 147.233 36.3446L145.345 41.2569C145.233 41.5559 144.928 41.7345 144.608 41.6879L139.365 40.9268C138.855 41.7326 138.29 42.5092 137.684 43.2431L140.031 47.9922C140.171 48.2796 140.097 48.6291 139.847 48.8291L135.76 52.1395C135.509 52.3433 135.154 52.3433 134.902 52.1453L130.751 48.8718C129.912 49.3086 129.034 49.697 128.129 50.0309L127.788 55.314C127.766 55.6343 127.527 55.8984 127.209 55.9469L122.013 56.7741C121.978 56.7779 121.942 56.7818 121.907 56.7818Z" fill="black"/>
<path d="M43.0645 45.1361C55.7023 43.1344 67.5731 51.755 69.5769 64.3948C71.5806 77.0326 62.9599 88.9035 50.3221 90.9072C37.6824 92.9128 25.8115 84.2902 23.8078 71.6524C21.8041 59.0107 30.4247 47.1399 43.0645 45.1361ZM0 70.87L1.40959 79.7605L11.2185 80.3935C11.9136 82.3933 12.7621 84.3116 13.76 86.127L7.67899 93.8351L13.3445 100.829L22.1594 96.4737C23.7437 97.8387 25.4387 99.0677 27.2269 100.151L25.8115 109.882L34.2147 113.107L39.6628 104.939C41.6995 105.327 43.7848 105.541 45.9011 105.582L49.5397 114.715L58.4302 113.307L59.0651 103.495C61.063 102.801 62.9813 101.953 64.7967 100.953L72.5048 107.036L79.4984 101.37L75.1415 92.5556C76.5064 90.9693 77.7393 89.2762 78.8227 87.488L88.554 88.9035L91.777 80.5003L83.6087 75.0522C83.9971 73.0154 84.2106 70.9302 84.2533 68.8138L93.3846 65.1753L91.975 56.2867L82.1661 55.6499C81.471 53.65 80.6226 51.7337 79.6227 49.9183L85.7057 42.2102L80.0401 35.2166L71.2253 39.5735C69.6409 38.2066 67.9459 36.9756 66.1577 35.8922L67.5731 26.161L59.1699 22.936L53.7218 31.1043C51.6871 30.7198 49.5999 30.5043 47.4835 30.4616L43.845 21.3284L34.9544 22.7399L34.3195 32.5488C32.3216 33.2458 30.4034 34.0943 28.588 35.0904L20.8799 29.0093L13.8862 34.6729L18.2432 43.4897C16.8782 45.074 15.6473 46.771 14.5619 48.5572L4.83068 47.1399L1.60764 55.545L9.7759 60.995C9.38759 63.0298 9.17401 65.1132 9.1313 67.2334L0 70.87Z" fill="#086099"/>
<path d="M46.7535 48.4174C40.8219 49.3572 35.6126 52.553 32.0828 57.4109C28.553 62.2707 27.1279 68.2119 28.0696 74.1435C29.0093 80.0751 32.2032 85.2863 37.063 88.8161C41.9228 92.344 47.8641 93.771 53.7976 92.8313C59.7272 91.8896 64.9384 88.6938 68.4682 83.8379C71.998 78.9781 73.4232 73.0348 72.4815 67.1033C71.5418 61.1717 68.3478 55.9605 63.488 52.4326C58.6283 48.9028 52.687 47.4758 46.7535 48.4174ZM50.225 94.4855C45.2293 94.4855 40.3773 92.9187 36.2553 89.9267C31.1004 86.1814 27.7104 80.6536 26.7124 74.361C25.7144 68.0663 27.2269 61.76 30.9722 56.6051C34.7176 51.4502 40.2453 48.0582 46.5399 47.0603C52.8326 46.0642 59.1389 47.5748 64.2958 51.3221C69.4507 55.0654 72.8407 60.5931 73.8387 66.8858C74.8366 73.1824 73.3241 79.4887 69.5788 84.6436C65.8335 89.8005 60.3058 93.1885 54.0111 94.1865C52.7472 94.3865 51.4813 94.4855 50.225 94.4855ZM43.247 106.853C43.2897 106.853 43.3324 106.859 43.3751 106.867C45.3614 107.244 47.4214 107.457 49.4989 107.496C49.7746 107.504 50.0212 107.675 50.1221 107.931L53.5568 116.554L61.362 115.315L61.962 106.054C61.9794 105.776 62.16 105.539 62.4221 105.45C64.3851 104.768 66.2781 103.927 68.0488 102.953C68.2915 102.819 68.5886 102.846 68.8041 103.015L76.0831 108.758L82.2224 103.784L78.1102 95.4602C77.9878 95.2156 78.0247 94.9166 78.2053 94.7069C79.5431 93.1536 80.7585 91.4819 81.8186 89.7325C81.9623 89.4976 82.2322 89.3694 82.5059 89.4083L91.6916 90.746L94.5224 83.366L86.8104 78.2247C86.5813 78.0713 86.4668 77.7956 86.5172 77.5238C86.8959 75.5414 87.1075 73.4834 87.1502 71.402C87.156 71.1243 87.3249 70.8797 87.5832 70.7768L96.2058 67.3421L94.967 59.535L85.7037 58.937C85.428 58.9176 85.1911 58.737 85.0999 58.4768C84.4184 56.5139 83.5777 54.6208 82.6049 52.8501C82.4729 52.6074 82.4962 52.3084 82.6671 52.0948L88.4103 44.8177L83.4359 38.6765L75.1123 42.7888C74.8658 42.9111 74.5687 42.8742 74.3609 42.6936C72.8096 41.3578 71.136 40.1424 69.3847 39.0823C69.1497 38.9366 69.0216 38.6687 69.0604 38.393L70.3982 29.2073L63.0182 26.3765L57.8769 34.0885C57.7235 34.3176 57.4458 34.4322 57.1759 34.3817C55.1936 34.005 53.1316 33.7914 51.0522 33.7507C50.7765 33.7468 50.5318 33.574 50.4289 33.3177L46.9942 24.6951L39.1871 25.9319L38.5891 35.1933C38.5716 35.4709 38.3891 35.7097 38.1289 35.7971C36.1641 36.4825 34.271 37.3212 32.5022 38.294C32.2615 38.428 31.9625 38.4027 31.745 38.2319L24.4679 32.4886L18.3286 37.463L22.4409 45.7866C22.5632 46.0332 22.5263 46.3302 22.3458 46.5399C21.0099 48.0893 19.7945 49.763 18.7325 51.5143C18.5888 51.7511 18.3189 51.8773 18.0451 51.8385L8.85948 50.5008L6.02864 57.8807L13.7406 63.0221C13.9697 63.1774 14.0843 63.4512 14.0338 63.723C13.6552 65.7073 13.4416 67.7673 13.4009 69.8468C13.397 70.1225 13.2261 70.369 12.9698 70.47L4.34722 73.9066L5.58402 81.7118L14.8473 82.3118C15.1211 82.3292 15.3599 82.5098 15.4512 82.77C16.1327 84.7349 16.9734 86.626 17.9461 88.3967C18.0781 88.6394 18.0548 88.9384 17.884 89.1539L12.1408 96.431L17.1151 102.57L25.4387 98.46C25.6872 98.3357 25.9824 98.3726 26.1921 98.5532C27.7414 99.889 29.417 101.104 31.1664 102.166C31.4013 102.31 31.5295 102.58 31.4906 102.854L30.1529 112.039L37.5329 114.872L42.6761 107.16C42.8043 106.966 43.0198 106.853 43.247 106.853ZM53.1219 118.002C52.8443 118.002 52.5899 117.835 52.4851 117.571L49.0135 108.859C47.1709 108.801 45.342 108.613 43.5673 108.296L38.3697 116.09C38.1911 116.356 37.8513 116.466 37.5523 116.352L29.1491 113.125C28.8501 113.01 28.6695 112.705 28.7161 112.385L30.0655 103.102C28.52 102.139 27.0347 101.06 25.6426 99.889L17.2316 104.046C16.9443 104.188 16.5967 104.112 16.3948 103.861L10.7292 96.8698C10.5254 96.6193 10.5234 96.2621 10.7234 96.0116L16.5249 88.6588C15.6764 87.0687 14.9328 85.3872 14.3056 83.6515L4.94718 83.0457C4.62875 83.0243 4.3647 82.7875 4.31422 82.4671L2.90462 73.5785C2.85414 73.2601 3.03083 72.9514 3.32789 72.8329L12.0398 69.3633C12.098 67.5169 12.2864 65.6898 12.6009 63.9133L4.80932 58.7176C4.54138 58.5389 4.4346 58.1992 4.54915 57.9021L7.77413 49.497C7.88868 49.198 8.1974 49.0174 8.51388 49.062L17.7966 50.4134C18.7596 48.8659 19.8392 47.3826 21.0099 45.9904L16.8549 37.5795C16.7113 37.2941 16.787 36.9426 17.0375 36.7427L24.0311 31.0771C24.2815 30.8752 24.6368 30.8732 24.8892 31.0713L32.242 36.8747C33.8303 36.0262 35.5117 35.2806 37.2475 34.6554L37.8532 25.297C37.8746 24.9747 38.1134 24.7126 38.4318 24.6601L47.3204 23.2525C47.6389 23.202 47.9476 23.3767 48.066 23.6758L51.5376 32.3896C53.3821 32.4459 55.2111 32.6342 56.9837 32.9507L62.1814 25.1591C62.36 24.8912 62.6998 24.7844 62.9988 24.897L71.402 28.122C71.7029 28.2385 71.8815 28.5433 71.8349 28.8617L70.4836 38.1445C72.031 39.1075 73.5164 40.187 74.9104 41.3578L83.3194 37.2028C83.6068 37.0611 83.9543 37.1368 84.1563 37.3853L89.8238 44.3809C90.0257 44.6294 90.0276 44.9847 89.8277 45.239L84.0262 52.5899C84.8747 54.1781 85.6183 55.8595 86.2454 57.5953L95.6019 58.203C95.9223 58.2225 96.1864 58.4632 96.2368 58.7797L97.6464 67.6683C97.6969 67.9867 97.5202 68.2954 97.2232 68.4139L88.5113 71.8854C88.453 73.7299 88.2627 75.5589 87.9501 77.3335L95.7417 82.5312C96.0097 82.7079 96.1165 83.0476 96.0019 83.3466L92.7769 91.7518C92.6624 92.0527 92.3556 92.2294 92.0372 92.1847L82.7544 90.8334C81.7914 92.3789 80.7138 93.8642 79.5411 95.2563L83.6981 103.665C83.8398 103.957 83.7641 104.304 83.5136 104.506L76.52 110.172C76.2695 110.372 75.9142 110.376 75.6638 110.176L68.309 104.376C66.7189 105.223 65.0394 105.968 63.3036 106.591L62.6978 115.952C62.6765 116.272 62.4376 116.534 62.1192 116.587L53.2306 117.996C53.1937 118 53.1568 118.002 53.1219 118.002Z" fill="black"/>
<path d="M48.2893 320.535H206.045C210.385 320.535 213.854 317.108 213.798 312.881L210.866 98.7667C210.672 93.0313 207.791 89.7714 202.894 89.7714H45.1362C41.2355 89.7714 37.9484 92.5439 37.3776 96.3087L40.3288 312.881C40.387 317.108 43.9498 320.535 48.2893 320.535Z" fill="#086099"/>
<path d="M56.143 320.966H213.901C218.24 320.966 221.71 317.518 221.658 313.268L218.848 97.8484C218.66 92.078 215.784 88.7967 210.886 88.7967H53.1258C49.2251 88.7967 45.938 91.5867 45.3633 95.3748L48.1864 313.268C48.2427 317.518 51.8055 320.966 56.143 320.966Z" fill="#CADDFF"/>
<path d="M46.0506 95.4253L48.8737 313.258C48.9242 317.132 52.186 320.279 56.143 320.279H213.901C215.845 320.279 217.652 319.533 218.992 318.174C220.293 316.858 220.994 315.12 220.97 313.276L218.163 97.8581C217.986 92.4624 215.402 89.4859 210.886 89.4859H53.1258C49.5668 89.4859 46.6001 91.9809 46.0506 95.4253ZM213.901 321.652H56.143C51.4385 321.652 47.5592 317.897 47.501 313.276L44.676 95.3282L44.6837 95.2738C45.3128 91.1227 48.864 88.1113 53.1258 88.1113H210.886C216.18 88.1113 219.336 91.6528 219.537 97.8251L222.345 313.258C222.374 315.47 221.53 317.559 219.97 319.139C218.371 320.76 216.213 321.652 213.901 321.652Z" fill="#086099"/>
<path d="M56.1449 321.652C51.4385 321.652 47.5592 317.897 47.501 313.276L44.2294 144.734C44.2236 144.355 44.5245 144.041 44.9031 144.035C45.2914 144.021 45.5963 144.328 45.6021 144.707L48.8737 313.254C48.9242 317.132 52.186 320.279 56.143 320.279L165.169 320.1C165.169 320.1 165.169 320.1 165.171 320.1C165.55 320.1 165.856 320.405 165.858 320.786C165.858 321.164 165.552 321.471 165.171 321.475L56.1449 321.652Z" fill="#086099"/>
<path d="M62.4998 134.583C61.9076 134.583 61.3484 134.82 60.9232 135.249C60.463 135.717 60.2126 136.348 60.2223 137.03L60.3912 150.898C60.4067 152.254 61.463 153.36 62.7464 153.36H76.0074C76.5996 153.36 77.1588 153.124 77.584 152.694C78.0441 152.228 78.2946 151.595 78.2868 150.916L78.1179 137.045C78.1004 135.688 77.0442 134.583 75.7628 134.583H62.4998ZM76.0074 154.733H62.7464C60.7155 154.733 59.0437 153.021 59.0166 150.916L58.8496 137.045C58.836 135.997 59.2263 135.016 59.9485 134.286C60.632 133.593 61.5387 133.211 62.4998 133.211H75.7628C77.7937 133.211 79.4654 134.925 79.4906 137.03L79.6595 150.898C79.6712 151.949 79.2829 152.927 78.5606 153.659C77.8772 154.353 76.9704 154.733 76.0074 154.733Z" fill="#086099"/>
<path d="M62.8687 170.169C62.2765 170.169 61.7154 170.404 61.2921 170.835C60.83 171.301 60.5815 171.934 60.5892 172.613L60.7582 186.48C60.7756 187.839 61.8319 188.944 63.1133 188.944H76.3744C76.9665 188.944 77.5277 188.707 77.9509 188.276C78.413 187.81 78.6616 187.179 78.6538 186.499L78.4849 172.631C78.4693 171.272 77.4131 170.169 76.1297 170.169H62.8687ZM76.3744 190.317H63.1133C61.0843 190.317 59.4107 188.604 59.3854 186.499L59.2165 172.631C59.2029 171.58 59.5932 170.6 60.3155 169.87C60.9989 169.177 61.9056 168.794 62.8687 168.794H76.1297C78.1606 168.794 79.8323 170.508 79.8576 172.613L80.0265 186.48C80.0401 187.53 79.6498 188.513 78.9276 189.243C78.2441 189.934 77.3374 190.317 76.3744 190.317Z" fill="#086099"/>
<path d="M63.29 204.915C62.6978 204.915 62.1386 205.152 61.7134 205.581C61.2532 206.049 61.0028 206.68 61.0105 207.362L61.1794 221.229C61.1969 222.588 62.2531 223.693 63.5346 223.693H76.7976C77.3898 223.693 77.949 223.456 78.3722 223.025C78.8343 222.559 79.0848 221.928 79.0751 221.244L78.9062 207.377C78.8906 206.018 77.8344 204.915 76.551 204.915H63.29ZM76.7976 225.065H63.5346C61.5056 225.065 59.8339 223.353 59.8067 221.244L59.6378 207.377C59.6262 206.327 60.0164 205.344 60.7368 204.618C61.4221 203.925 62.3269 203.543 63.29 203.543H76.551C78.5819 203.543 80.2536 205.255 80.2808 207.362L80.4478 221.229C80.4614 222.279 80.0711 223.261 79.3508 223.992C78.6654 224.685 77.7587 225.065 76.7976 225.065Z" fill="#086099"/>
<path d="M64.0259 240.841C63.4337 240.841 62.8745 241.078 62.4493 241.509C61.9892 241.975 61.7387 242.606 61.7484 243.287L61.9173 257.154C61.9329 258.513 62.9891 259.618 64.2705 259.618H77.5335C78.1257 259.618 78.6868 259.379 79.1101 258.95C79.5722 258.484 79.8207 257.851 79.813 257.171L79.644 243.305C79.6266 241.945 78.5703 240.841 77.2889 240.841H64.0259ZM77.5335 260.99H64.2705C62.2416 260.99 60.5699 259.278 60.5446 257.171L60.3757 243.305C60.3621 242.252 60.7524 241.272 61.4746 240.542C62.1581 239.848 63.0648 239.466 64.0259 239.466H77.2889C79.3179 239.466 80.9915 241.18 81.0168 243.287L81.1857 257.154C81.1973 258.206 80.809 259.187 80.0867 259.915C79.4013 260.61 78.4946 260.99 77.5335 260.99Z" fill="#086099"/>
<path d="M169.951 114.608H94.5942C93.0429 114.608 91.7692 113.292 91.7498 111.672L91.7207 109.224C91.7013 107.603 92.9419 106.288 94.4933 106.288H169.852C171.402 106.288 172.675 107.603 172.695 109.224L172.726 111.672C172.745 113.292 171.503 114.608 169.951 114.608Z" fill="white"/>
<path d="M203.762 147.602H93.1109C91.4916 147.602 90.1616 146.287 90.1403 144.666C90.1189 143.043 91.4159 141.728 93.0352 141.728H203.688C205.308 141.728 206.638 143.043 206.659 144.666C206.678 146.287 205.383 147.602 203.762 147.602Z" fill="white"/>
<path d="M188.326 162.738H93.3186C91.6993 162.738 90.3694 161.426 90.348 159.804C90.3286 158.181 91.6236 156.867 93.2429 156.867H188.251C189.872 156.867 191.2 158.181 191.221 159.804C191.243 161.426 189.946 162.738 188.326 162.738Z" fill="white"/>
<path d="M196.207 183.447H93.6953C92.076 183.447 90.746 182.133 90.7266 180.512C90.7052 178.888 92.0022 177.574 93.6215 177.574H196.134C197.753 177.574 199.081 178.888 199.102 180.512C199.124 182.133 197.827 183.447 196.207 183.447Z" fill="white"/>
<path d="M151.669 198.302H94.004C92.3847 198.302 91.0547 196.986 91.0334 195.365C91.0139 193.745 92.309 192.431 93.9283 192.431H151.595C153.215 192.431 154.545 193.745 154.564 195.365C154.585 196.986 153.29 198.302 151.669 198.302Z" fill="white"/>
<path d="M204.653 217.441H94.0001C92.3809 217.441 91.0509 216.126 91.0295 214.505C91.0101 212.882 92.3051 211.567 93.9244 211.567H204.578C206.197 211.567 207.527 212.882 207.548 214.505C207.568 216.126 206.273 217.441 204.653 217.441Z" fill="white"/>
<path d="M189.216 232.579H94.2078C92.5886 232.579 91.2586 231.265 91.2372 229.643C91.2178 228.02 92.5128 226.706 94.1341 226.706H189.142C190.761 226.706 192.089 228.02 192.111 229.643C192.132 231.265 190.835 232.579 189.216 232.579Z" fill="white"/>
<path d="M202.754 253.286H94.3515C92.7322 253.286 91.4022 251.972 91.3828 250.351C91.3615 248.729 92.6565 247.415 94.2758 247.415H202.681C204.3 247.415 205.63 248.729 205.649 250.351C205.671 251.972 204.376 253.286 202.754 253.286Z" fill="white"/>
<path d="M152.547 267.11H94.8797C93.2604 267.11 91.9304 265.794 91.911 264.173C91.8896 262.552 93.1846 261.235 94.8039 261.235H152.473C154.092 261.235 155.42 262.552 155.442 264.173C155.463 265.794 154.166 267.11 152.547 267.11Z" fill="white"/>
<path d="M205.892 286.936H95.2389C93.6196 286.936 92.2896 285.62 92.2682 283.998C92.2488 282.377 93.5458 281.065 95.1651 281.065H205.818C207.438 281.065 208.767 282.377 208.789 283.998C208.808 285.62 207.513 286.936 205.892 286.936Z" fill="white"/>
<path d="M190.454 302.075H95.4466C93.8273 302.075 92.4973 300.758 92.4779 299.137C92.4565 297.518 93.7515 296.201 95.3728 296.201H190.379C191.998 296.201 193.328 297.518 193.349 299.137C193.371 300.758 192.074 302.075 190.454 302.075Z" fill="white"/>
<path d="M309.229 378.923H288.031V118.336L309.02 116.853L309.229 378.923Z" fill="white"/>
<path d="M288.718 378.235H308.544L308.332 117.59L288.718 118.975V378.235ZM309.229 379.608H288.031C287.652 379.608 287.346 379.301 287.346 378.923V118.336C287.346 117.975 287.623 117.674 287.98 117.649L308.969 116.169C309.157 116.156 309.346 116.22 309.486 116.35C309.623 116.48 309.701 116.662 309.701 116.853L309.917 378.921C309.917 379.103 309.845 379.276 309.715 379.408C309.586 379.536 309.412 379.608 309.229 379.608Z" fill="black"/>
<path d="M366.071 378.923H309.231C309.113 378.923 309.02 378.789 309.02 378.626V117.159C309.02 116.991 309.119 116.857 309.239 116.862L366.079 119.864C366.194 119.868 366.285 120 366.285 120.161V378.626C366.285 378.789 366.19 378.923 366.071 378.923Z" fill="#086099"/>
<path d="M309.705 378.235H365.597V120.528L309.705 117.575V378.235ZM366.071 379.608H309.229C308.726 379.608 308.33 379.175 308.33 378.626V117.159C308.33 116.874 308.443 116.6 308.639 116.416C308.814 116.251 309.043 116.165 309.274 116.177L366.118 119.179C366.597 119.206 366.972 119.637 366.972 120.161V378.626C366.972 379.175 366.578 379.608 366.071 379.608Z" fill="black"/>
<path d="M347.414 242.996C347.036 242.996 346.727 242.689 346.727 242.31V136.488C346.727 136.109 347.036 135.801 347.414 135.801C347.793 135.801 348.1 136.109 348.1 136.488V242.31C348.1 242.689 347.793 242.996 347.414 242.996Z" fill="#CADDFF"/>
<path d="M329.431 205.29C329.053 205.29 328.746 204.983 328.746 204.605V173.384C328.746 173.007 329.053 172.699 329.431 172.699C329.812 172.699 330.119 173.007 330.119 173.384V204.605C330.119 204.983 329.812 205.29 329.431 205.29Z" fill="#CADDFF"/>
<path d="M329.431 312.338C329.053 312.338 328.746 312.031 328.746 311.652V257.781C328.746 257.402 329.053 257.092 329.431 257.092C329.812 257.092 330.119 257.402 330.119 257.781V311.652C330.119 312.031 329.812 312.338 329.431 312.338Z" fill="#CADDFF"/>
<path d="M237.746 378.952H216.645V184.408L237.631 177.778L237.746 378.952Z" fill="white"/>
<path d="M217.33 378.264H237.058L236.946 178.716L217.33 184.911V378.264ZM237.746 379.637H216.644C216.264 379.637 215.959 379.33 215.959 378.952V184.408C215.959 184.107 216.153 183.841 216.437 183.752L237.425 177.123C237.631 177.057 237.86 177.096 238.037 177.224C238.212 177.355 238.318 177.56 238.318 177.778L238.433 378.952C238.433 379.134 238.359 379.307 238.231 379.437C238.103 379.565 237.928 379.637 237.746 379.637Z" fill="black"/>
<path d="M294.683 378.952H237.843C237.726 378.952 237.631 378.851 237.631 378.723V178.015C237.631 177.887 237.73 177.784 237.849 177.789L294.693 180.092C294.807 180.096 294.896 180.195 294.896 180.319V378.723C294.896 378.851 294.799 378.952 294.683 378.952Z" fill="#086099"/>
<path d="M238.317 378.264H294.209V180.758L238.317 178.494V378.264ZM294.685 379.639H237.841C237.346 379.639 236.944 379.227 236.944 378.723V178.015C236.944 177.764 237.045 177.523 237.225 177.353C237.4 177.184 237.645 177.094 237.88 177.104L294.72 179.405C295.201 179.424 295.582 179.826 295.582 180.317V378.723C295.582 379.227 295.18 379.639 294.685 379.639Z" fill="black"/>
<path d="M266.277 283.119C265.899 283.119 265.592 282.812 265.592 282.431V193.32C265.592 192.942 265.899 192.633 266.277 192.633C266.658 192.633 266.965 192.942 266.965 193.32V282.431C266.965 282.812 266.658 283.119 266.277 283.119Z" fill="#CADDFF"/>
<path d="M251.271 223.085C250.89 223.085 250.583 222.778 250.583 222.397V207.21C250.583 206.83 250.89 206.523 251.271 206.523C251.649 206.523 251.956 206.83 251.956 207.21V222.397C251.956 222.778 251.649 223.085 251.271 223.085Z" fill="#CADDFF"/>
<path d="M251.271 323.865C250.89 323.865 250.583 323.558 250.583 323.178V247.52C250.583 247.143 250.89 246.834 251.271 246.834C251.649 246.834 251.956 247.143 251.956 247.52V323.178C251.956 323.558 251.649 323.865 251.271 323.865Z" fill="#CADDFF"/>
<path d="M281.286 253.03C280.907 253.03 280.599 252.723 280.599 252.343V237.154C280.599 236.773 280.907 236.466 281.286 236.466C281.666 236.466 281.971 236.773 281.971 237.154V252.343C281.971 252.723 281.666 253.03 281.286 253.03Z" fill="#CADDFF"/>
<path d="M166.761 378.952H145.776V267.139L166.761 262.536V378.952Z" fill="white"/>
<path d="M146.464 378.264H166.076V263.388L146.464 267.691V378.264ZM166.761 379.637H145.776C145.398 379.637 145.091 379.33 145.091 378.952V267.139C145.091 266.815 145.314 266.538 145.631 266.466L166.617 261.866C166.819 261.821 167.031 261.872 167.194 262.002C167.355 262.132 167.45 262.328 167.45 262.536V378.952C167.45 379.33 167.142 379.637 166.761 379.637Z" fill="black"/>
<path d="M224.03 378.952H166.761V262.781C166.761 262.647 166.874 262.54 167.006 262.546L224.03 264.454V378.952Z" fill="#086099"/>
<path d="M167.45 378.264H223.343V265.118L167.45 263.247V378.264ZM224.716 379.637H166.076V262.781C166.076 262.532 166.179 262.289 166.357 262.117C166.536 261.946 166.773 261.851 167.031 261.858L224.716 263.79V379.637Z" fill="black"/>
<path d="M181.985 346.49C181.607 346.49 181.298 346.184 181.298 345.805V276.447C181.298 276.067 181.607 275.76 181.985 275.76C182.366 275.76 182.673 276.067 182.673 276.447V345.805C182.673 346.184 182.366 346.49 181.985 346.49Z" fill="#CADDFF"/>
<path d="M212 354.602C211.622 354.602 211.315 354.296 211.315 353.915V284.557C211.315 284.181 211.622 283.872 212 283.872C212.379 283.872 212.688 284.181 212.688 284.557V353.915C212.688 354.296 212.379 354.602 212 354.602Z" fill="#CADDFF"/>
<path d="M196.994 327.428C196.613 327.428 196.306 327.119 196.306 326.742V312.546C196.306 312.167 196.613 311.858 196.994 311.858C197.372 311.858 197.679 312.167 197.679 312.546V326.742C197.679 327.119 197.372 327.428 196.994 327.428Z" fill="#CADDFF"/>
<path d="M96.1864 378.952H74.9998V323.496L95.9864 319.359L96.1864 378.952Z" fill="white"/>
<path d="M75.687 378.264H95.4971L95.3029 320.191L75.687 324.059V378.264ZM96.1863 379.637H74.9997C74.6211 379.637 74.3143 379.33 74.3143 378.952V323.496C74.3143 323.168 74.5454 322.886 74.8677 322.822L95.8543 318.685C96.0543 318.644 96.264 318.696 96.4213 318.827C96.5805 318.957 96.6737 319.151 96.6737 319.357L96.8737 378.95C96.8737 379.132 96.8018 379.305 96.6737 379.437C96.5436 379.565 96.3688 379.637 96.1863 379.637Z" fill="black"/>
<path d="M153.054 378.952H96.1863C96.0756 378.952 95.9863 378.862 95.9863 378.752V319.56C95.9863 319.45 96.0776 319.36 96.1902 319.36L153.057 320.29C153.168 320.292 153.254 320.378 153.254 320.489V378.752C153.254 378.862 153.164 378.952 153.054 378.952Z" fill="#086099"/>
<path d="M96.6737 378.264H152.568V320.968L96.6737 320.056V378.264ZM153.054 379.637H96.1863C95.699 379.637 95.301 379.239 95.301 378.752V319.56C95.301 319.322 95.3942 319.096 95.565 318.929C95.7359 318.761 95.965 318.671 96.1999 318.673L153.067 319.603C153.549 319.611 153.941 320.007 153.941 320.489V378.752C153.941 379.239 153.543 379.637 153.054 379.637Z" fill="black"/>
<path d="M135.946 365.553C135.568 365.553 135.259 365.246 135.259 364.866V329.579C135.259 329.2 135.568 328.892 135.946 328.892C136.325 328.892 136.634 329.2 136.634 329.579V364.866C136.634 365.246 136.325 365.553 135.946 365.553Z" fill="#CADDFF"/>
<path d="M117.965 352.981C117.587 352.981 117.278 352.674 117.278 352.294V341.883C117.278 341.504 117.587 341.196 117.965 341.196C118.344 341.196 118.651 341.504 118.651 341.883V352.294C118.651 352.674 118.344 352.981 117.965 352.981Z" fill="#CADDFF"/>
<path d="M25.5804 378.952H4.3938V349.908L25.3804 346.368L25.5804 378.952Z" fill="white"/>
<path d="M5.0792 378.264H24.8892L24.699 347.18L5.0792 350.49V378.264ZM25.5804 379.637H4.39382C4.01521 379.637 3.70844 379.33 3.70844 378.952V349.908C3.70844 349.576 3.94919 349.288 4.27926 349.232L25.2659 345.69C25.4639 345.657 25.6678 345.714 25.8212 345.842C25.9765 345.972 26.0658 346.162 26.0658 346.364L26.2658 378.948C26.2678 379.128 26.1959 379.305 26.0678 379.435C25.9377 379.565 25.763 379.637 25.5804 379.637Z" fill="black"/>
<path d="M82.4476 378.952H25.5804C25.4697 378.952 25.3804 378.903 25.3804 378.843V346.479C25.3804 346.418 25.4717 346.368 25.5843 346.37L82.4515 346.877C82.5583 346.879 82.6476 346.925 82.6476 346.985V378.843C82.6476 378.903 82.5583 378.952 82.4476 378.952Z" fill="#086099"/>
<path d="M26.0658 378.264H81.9603V347.558L26.0658 347.061V378.264ZM82.4476 379.637H25.5804C25.0834 379.637 24.6931 379.29 24.6931 378.843V346.479C24.6931 346.277 24.7747 346.085 24.9222 345.939C25.0873 345.776 25.3319 345.686 25.5901 345.685L82.4554 346.189C82.9563 346.193 83.333 346.537 83.333 346.985V378.843C83.333 379.29 82.9447 379.637 82.4476 379.637Z" fill="black"/>
<path d="M65.3403 371.937C64.9598 371.937 64.653 371.63 64.653 371.251V351.958C64.653 351.577 64.9598 351.27 65.3403 351.27C65.7189 351.27 66.0257 351.577 66.0257 351.958V371.251C66.0257 371.63 65.7189 371.937 65.3403 371.937Z" fill="#CADDFF"/>
<path d="M47.3593 365.062C46.9787 365.062 46.6719 364.755 46.6719 364.374V358.684C46.6719 358.305 46.9787 357.996 47.3593 357.996C47.7379 357.996 48.0446 358.305 48.0446 358.684V364.374C48.0446 364.755 47.7379 365.062 47.3593 365.062Z" fill="#CADDFF"/>
<path d="M104.92 289.398L102.844 307.804L110.671 311.062L113.554 290.998L104.92 289.398Z" fill="white"/>
<path d="M103.584 307.369L110.117 310.089L112.781 291.553L105.518 290.207L103.584 307.369ZM110.671 311.749C110.581 311.749 110.492 311.732 110.407 311.697L102.58 308.439C102.299 308.321 102.128 308.029 102.163 307.726L104.236 289.322C104.258 289.134 104.357 288.961 104.51 288.846C104.663 288.736 104.858 288.689 105.044 288.724L113.68 290.324C114.041 290.39 114.286 290.732 114.233 291.095L111.35 311.159C111.321 311.371 111.195 311.553 111.01 311.66C110.906 311.72 110.789 311.749 110.671 311.749Z" fill="black"/>
<path d="M101.023 306.066C100.776 307.81 100.378 311.049 100.345 313.949C100.324 315.77 101.693 317.308 103.5 317.539C108.611 318.194 120.202 318.912 130.075 318.017C130.751 317.957 131.947 317.464 132.28 315.776C133.397 310.109 123.538 308.719 112.729 304.608C112.305 304.449 111.826 304.544 111.502 304.859L110.335 305.987C109.17 307.115 107.438 307.437 105.945 306.8L102.399 305.288C101.796 305.03 101.114 305.416 101.023 306.066Z" fill="#086099"/>
<path d="M101.702 306.162C101.466 307.835 101.064 311.076 101.031 313.957C101.015 315.423 102.114 316.671 103.588 316.86C108.857 317.535 120.243 318.219 130.013 317.333C130.228 317.312 131.312 317.141 131.605 315.642C132.31 312.072 127.821 310.416 119.825 307.791C117.468 307.018 115.031 306.22 112.484 305.251C112.309 305.183 112.111 305.224 111.977 305.35L110.812 306.478C109.443 307.804 107.428 308.177 105.677 307.431L102.131 305.919C102.009 305.866 101.906 305.905 101.858 305.934C101.807 305.964 101.722 306.028 101.702 306.162ZM119.788 319.126C113.134 319.126 106.927 318.671 103.413 318.223C101.248 317.945 99.6326 316.104 99.6579 313.941C99.6909 310.983 100.103 307.678 100.341 305.971C100.417 305.445 100.722 304.999 101.182 304.738C101.642 304.48 102.184 304.449 102.669 304.655L106.215 306.167C107.457 306.697 108.886 306.433 109.857 305.494L111.022 304.366C111.537 303.867 112.302 303.711 112.973 303.968C115.49 304.923 117.911 305.717 120.252 306.488C127.892 308.992 133.927 310.973 132.952 315.908C132.578 317.815 131.201 318.603 130.137 318.7C126.774 319.005 123.223 319.126 119.788 319.126Z" fill="black"/>
<path d="M100.353 313.512C100.353 313.512 100.347 313.806 100.345 313.949C100.324 315.77 101.693 317.308 103.5 317.539C108.611 318.194 120.202 318.912 130.075 318.017C130.751 317.957 131.947 317.464 132.28 315.776C132.381 315.258 132.319 314.324 132.319 314.324L131.618 314.361C121.641 314.852 111.641 314.613 101.699 313.644L100.353 313.512Z" fill="white"/>
<path d="M101.044 314.272C101.174 315.596 102.219 316.683 103.588 316.86C108.857 317.535 120.243 318.219 130.013 317.333C130.228 317.312 131.312 317.141 131.605 315.642C131.636 315.489 131.649 315.266 131.651 315.046C121.674 315.538 111.573 315.295 101.632 314.326L101.044 314.272ZM119.788 319.126C113.134 319.126 106.927 318.671 103.413 318.223C101.248 317.945 99.6326 316.104 99.6579 313.942L99.6657 313.499C99.6695 313.307 99.753 313.126 99.8967 313C100.038 312.872 100.227 312.813 100.419 312.829L101.765 312.959C111.641 313.922 121.674 314.163 131.585 313.674L132.284 313.641C132.663 313.621 132.979 313.905 133.005 314.279C133.011 314.384 133.069 315.32 132.952 315.908C132.578 317.815 131.201 318.603 130.137 318.7C126.774 319.005 123.223 319.126 119.788 319.126Z" fill="black"/>
<path d="M115.208 311.415C115.031 311.415 114.857 311.349 114.723 311.214C114.453 310.946 114.453 310.511 114.723 310.243L118.515 306.449C118.783 306.179 119.217 306.179 119.485 306.449C119.753 306.717 119.753 307.15 119.485 307.42L115.693 311.214C115.559 311.349 115.383 311.415 115.208 311.415Z" fill="black"/>
<path d="M118.934 311.81C118.761 311.81 118.59 311.746 118.456 311.615C118.185 311.353 118.175 310.918 118.439 310.645L121.47 307.497C121.732 307.224 122.167 307.216 122.439 307.478C122.714 307.742 122.722 308.177 122.458 308.449L119.429 311.598C119.293 311.738 119.113 311.81 118.934 311.81Z" fill="black"/>
<path d="M133.346 168.113C133.346 168.113 128.582 170.877 126.722 187.092C124.862 203.306 125.483 222.423 112.533 241.38C102.19 256.517 103.098 282.068 101.596 298.815C101.522 299.624 102.145 300.325 102.957 300.352L112.872 300.692C113.503 300.715 114.072 300.317 114.266 299.715C116.037 294.227 124.85 267.753 134.75 252.401C145.213 236.177 157.933 194.068 157.933 194.068C157.933 194.068 155.574 183.422 155.246 173.221C154.917 163.02 133.346 168.113 133.346 168.113Z" fill="black"/>
<path d="M191.738 234.806L187.556 252.849L194.957 256.989L200.131 237.388L191.738 234.806Z" fill="white"/>
<path d="M188.342 252.5L194.518 255.956L199.3 237.851L192.239 235.678L188.342 252.5ZM194.957 257.676C194.84 257.676 194.724 257.643 194.621 257.587L187.224 253.447C186.956 253.298 186.82 252.991 186.89 252.694L191.07 234.651C191.113 234.464 191.231 234.307 191.394 234.212C191.561 234.117 191.757 234.094 191.942 234.15L200.335 236.734C200.685 236.841 200.89 237.208 200.795 237.565L195.621 257.162C195.567 257.367 195.419 257.536 195.223 257.62C195.139 257.657 195.048 257.676 194.957 257.676Z" fill="black"/>
<path d="M186.668 251.783C186.422 253.527 184.853 256.835 184.82 259.736C184.8 261.557 186.169 263.095 187.975 263.326C193.085 263.984 205.847 264.629 215.722 263.732C216.398 263.674 217.592 263.179 217.926 261.493C219.042 255.824 209.185 254.438 198.374 250.325C197.951 250.164 197.471 250.261 197.147 250.576L195.982 251.704C194.815 252.832 193.083 253.154 191.59 252.517L188.045 251.005C187.443 250.747 186.76 251.133 186.668 251.783Z" fill="#086099"/>
<path d="M187.346 251.879C187.249 252.581 186.971 253.457 186.651 254.471C186.15 256.051 185.527 258.02 185.507 259.746C185.49 261.21 186.591 262.458 188.062 262.647C192.691 263.243 205.539 263.969 215.66 263.051C215.874 263.031 216.955 262.858 217.252 261.361C217.955 257.789 213.468 256.133 205.471 253.51C203.114 252.735 200.677 251.937 198.129 250.968C197.955 250.898 197.757 250.941 197.623 251.069L196.458 252.197C195.089 253.521 193.074 253.894 191.322 253.146L187.777 251.636C187.655 251.583 187.552 251.624 187.501 251.649C187.453 251.679 187.367 251.747 187.346 251.879ZM204.653 264.854C197.968 264.854 191.47 264.468 187.89 264.01C185.723 263.732 184.109 261.891 184.135 259.728C184.156 257.799 184.812 255.723 185.342 254.055C185.645 253.1 185.905 252.277 185.989 251.686C186.063 251.162 186.367 250.714 186.827 250.455C187.29 250.195 187.829 250.164 188.315 250.372L191.86 251.884C193.105 252.414 194.534 252.15 195.504 251.211L196.667 250.081C197.182 249.584 197.947 249.428 198.619 249.685C201.135 250.642 203.556 251.436 205.9 252.203C213.538 254.711 219.572 256.69 218.598 261.625C218.223 263.532 216.848 264.322 215.784 264.417C212.352 264.728 208.47 264.854 204.653 264.854Z" fill="black"/>
<path d="M185.098 259.179C185.098 259.179 185.094 259.472 185.09 259.616C185.068 261.437 186.439 262.973 188.245 263.206C193.355 263.862 205.847 264.629 215.722 263.732C216.398 263.674 217.592 263.179 217.926 261.493C218.027 260.975 217.963 260.041 217.963 260.041L217.264 260.076C207.286 260.569 197.287 260.328 187.346 259.361L185.098 259.179Z" fill="white"/>
<path d="M185.789 259.923C185.913 261.256 186.961 262.35 188.332 262.526C192.806 263.101 205.372 263.984 215.66 263.05C215.874 263.031 216.955 262.858 217.252 261.361C217.281 261.206 217.293 260.983 217.297 260.763C207.319 261.255 197.219 261.014 187.278 260.043L185.789 259.923ZM205.603 264.831C198.196 264.831 191.256 264.285 188.157 263.887C185.993 263.61 184.379 261.769 184.404 259.608L184.412 259.163C184.416 258.975 184.498 258.796 184.637 258.67C184.779 258.542 184.964 258.48 185.154 258.494L187.398 258.676C197.287 259.641 207.319 259.88 217.229 259.391L217.93 259.358C218.308 259.338 218.625 259.622 218.65 259.996C218.656 260.101 218.714 261.037 218.598 261.625C218.223 263.532 216.848 264.322 215.784 264.417C212.509 264.714 209.006 264.831 205.603 264.831Z" fill="black"/>
<path d="M200.854 257.133C200.677 257.133 200.502 257.065 200.368 256.931C200.1 256.663 200.1 256.228 200.368 255.96L204.16 252.166C204.428 251.896 204.865 251.896 205.131 252.166C205.399 252.434 205.399 252.867 205.131 253.137L201.339 256.931C201.205 257.065 201.03 257.133 200.854 257.133Z" fill="black"/>
<path d="M204.577 257.525C204.409 257.525 204.236 257.461 204.104 257.332C203.83 257.072 203.82 256.635 204.084 256.362L207.115 253.214C207.377 252.943 207.812 252.933 208.086 253.195C208.36 253.459 208.367 253.894 208.103 254.168L205.075 257.313C204.939 257.455 204.758 257.525 204.577 257.525Z" fill="black"/>
<path d="M152.448 196.926C152.448 196.926 174.728 195.174 199.59 181.824C200.324 181.43 200.797 182.645 200.353 183.348C199.1 185.329 198.434 188.299 196.568 193.367C194.27 199.605 189.416 231.878 187.818 241.922C187.672 242.829 188.357 243.658 189.276 243.685L198.834 243.996C199.44 244.017 199.997 243.679 200.259 243.134C203.71 235.95 226.232 179.391 225.372 168.856C224.444 157.467 211.441 158.228 206.016 157.878C200.409 157.521 149.547 167.023 149.547 167.023L152.448 196.926Z" fill="black"/>
<path d="M84.6844 180.294C85.4552 179.378 86.4531 178.3 87.3094 177.452C88.418 176.358 92.1148 169.163 92.1148 169.163L98.5803 170.994C98.5803 170.994 95.5573 176.279 96.2834 178.914C96.9591 181.366 97.493 186.544 93.903 190.315C93.4914 190.746 92.5886 190.862 92.276 190.788C91.3382 190.571 91.3188 189.268 91.7789 188.424L93.074 186.033C93.1885 185.826 93.0177 185.575 92.7808 185.608C91.81 185.744 89.6762 186.365 87.4453 189.121C85.727 191.241 82.3214 195.969 81.1778 195.184C79.1334 193.786 80.4692 185.319 84.6844 180.294Z" fill="white"/>
<path d="M85.2105 180.735C82.1603 184.371 80.5643 190.119 80.9876 193.204C81.0788 193.876 81.2711 194.371 81.5157 194.58C82.3836 194.444 84.9348 191.194 86.0357 189.792C86.3561 189.385 86.6532 189.006 86.9114 188.69C89.2568 185.793 91.5343 185.09 92.6837 184.929C93.0526 184.876 93.4118 185.034 93.6235 185.336C93.8351 185.641 93.8545 186.033 93.6778 186.362L92.3808 188.752C92.1731 189.134 92.111 189.664 92.2391 189.952C92.2896 190.066 92.3537 190.101 92.4313 190.12C92.6216 190.153 93.2138 190.043 93.406 189.841C97.229 185.826 95.9223 180.185 95.6214 179.096C94.9903 176.809 96.7145 173.066 97.5688 171.421L92.4682 169.975C91.5615 171.72 88.8064 176.939 87.7929 177.941C86.9405 178.784 85.9503 179.853 85.2105 180.735ZM81.4672 195.967C81.2264 195.967 81.0012 195.897 80.7895 195.751C80.1741 195.332 79.7838 194.538 79.6265 193.39C79.1664 190.027 80.7663 183.896 84.1601 179.853C84.9348 178.929 85.9328 177.848 86.8279 176.964C87.5773 176.225 90.0936 171.594 91.5052 168.848C91.6527 168.557 91.9886 168.412 92.3032 168.501L98.7667 170.334C98.9706 170.39 99.1356 170.54 99.2152 170.734C99.2948 170.93 99.2813 171.151 99.1764 171.334C98.3745 172.737 96.4135 176.801 96.9455 178.731C97.9144 182.249 97.7571 187.264 94.4001 190.788C93.7768 191.443 92.6022 191.571 92.1187 191.458C91.6081 191.338 91.2062 191.002 90.9868 190.515C90.6761 189.825 90.7518 188.876 91.1751 188.095L92.0488 186.488C91.0606 186.814 89.5519 187.61 87.9773 189.554C87.723 189.866 87.4317 190.239 87.1152 190.641C84.6436 193.788 82.8185 195.965 81.4672 195.967Z" fill="black"/>
<path d="M239.662 99.0269L235.484 91.9848C234.796 90.8237 232.635 90.4742 231.556 91.278C207.946 108.877 182.83 101.7 178.949 100.774C169.32 98.4833 164.472 98.1338 156.873 97.6717C145.751 96.9921 129.753 103.423 118.988 114.189C110.424 122.753 95.8155 150.533 89.1927 169.829C88.915 170.641 89.2723 171.53 90.0334 171.926L96.6795 175.374C97.5221 175.813 98.557 175.491 99.0035 174.654C102.386 168.281 117.039 141.853 132.374 133.129C133.5 132.488 135.197 133.164 135.131 134.461C134.927 138.521 132.407 153.58 131.638 167.53C131.537 169.369 132.807 171.006 134.62 171.339L141.328 172.582C153.028 175.308 164.002 172.273 168.837 170.549C170.316 170.017 171.031 168.592 171.256 167.037C171.629 164.458 176.822 143.773 186.292 130.092C187.486 128.372 189.293 127.178 191.382 127.058C199.826 126.564 223.863 123.188 239.561 101.194C240.019 100.553 240.064 99.7045 239.662 99.0269Z" fill="#086099"/>
<path d="M155.187 98.3066C143.88 98.3066 129.153 104.993 119.474 114.674C111.307 122.841 96.631 150.269 89.8432 170.05C89.6723 170.542 89.8878 171.075 90.3499 171.316L96.996 174.763C97.5027 175.029 98.1299 174.83 98.3978 174.33C102.44 166.713 116.812 141.192 132.034 132.531C132.853 132.065 133.956 132.094 134.777 132.599C135.478 133.03 135.857 133.719 135.818 134.494C135.744 135.971 135.368 138.884 134.892 142.569C134.014 149.349 132.816 158.632 132.325 167.567C132.242 169.062 133.282 170.394 134.744 170.664L141.456 171.908C152.793 174.547 163.33 171.784 168.606 169.901C169.949 169.419 170.421 168.025 170.576 166.938C170.908 164.637 175.986 143.777 185.731 129.7C187.105 127.712 189.152 126.498 191.346 126.37C200.57 125.831 223.681 122.26 239.004 100.794C239.305 100.371 239.334 99.8133 239.074 99.3745L234.894 92.3323C234.688 91.9828 234.208 91.7013 233.622 91.5829C232.985 91.4567 232.338 91.5518 231.968 91.8275C217.165 102.86 198.473 106.32 179.331 101.574C179.119 101.522 178.939 101.477 178.789 101.442C169.377 99.1978 164.55 98.8231 156.83 98.3532C156.292 98.3221 155.745 98.3066 155.187 98.3066ZM97.4717 176.254C97.0969 176.254 96.7183 176.166 96.363 175.982L89.717 172.534C88.6452 171.976 88.152 170.747 88.5442 169.606C95.3845 149.671 110.224 121.982 118.503 113.703C128.912 103.295 145.064 96.264 156.915 96.9824C164.711 97.4581 169.584 97.8367 179.106 100.106C179.261 100.141 179.446 100.188 179.663 100.24C198.667 104.957 216.472 101.666 231.148 90.7247C231.836 90.2141 232.863 90.0315 233.894 90.2393C234.87 90.4315 235.666 90.9402 236.074 91.6314L240.252 98.6736C240.252 98.6736 240.252 98.6736 240.252 98.6774C240.79 99.5803 240.738 100.726 240.12 101.592C224.456 123.539 200.848 127.192 191.421 127.741C189.658 127.844 187.992 128.844 186.859 130.483C177.339 144.237 172.219 165.19 171.936 167.134C171.638 169.2 170.617 170.641 169.066 171.194C163.651 173.128 152.824 175.964 141.173 173.252L134.496 172.013C132.356 171.617 130.832 169.674 130.954 167.491C131.449 158.506 132.651 149.196 133.529 142.394C134.003 138.736 134.375 135.851 134.447 134.424C134.465 134.09 134.243 133.882 134.057 133.766C133.655 133.519 133.104 133.504 132.713 133.725C117.812 142.202 103.609 167.441 99.6094 174.974C99.1783 175.788 98.3376 176.254 97.4717 176.254Z" fill="black"/>
<path d="M233.913 94.1011C233.822 93.5788 234.006 93.0449 234.412 92.7012C234.948 92.2469 235.849 91.4702 237.159 90.3247C239.47 88.3035 242.357 84.2728 244.877 83.0612C247.395 81.8535 256.531 78.283 257.993 79.0421C259.451 79.7974 258.727 81.5138 256.653 82.5079C254.579 83.5058 251.879 84.5291 251.879 84.5291C251.879 84.5291 253.389 84.4417 254.504 86.1852C255.618 87.9288 254.073 88.6336 254.725 89.4956C255.562 90.6004 255.313 91.8857 254.653 92.4488C253.143 93.7322 251.317 91.1945 249.954 93.8215C249.007 95.6466 246.77 96.8349 242.231 97.7027C241.013 97.9357 239.854 98.4017 238.802 99.0599C238.367 99.3298 237.814 99.3512 237.367 99.1007C236.288 98.4871 234.404 97.031 233.913 94.1011Z" fill="white"/>
<path d="M234.589 93.9827C235.039 96.6349 236.734 97.9493 237.709 98.5007C237.932 98.625 238.214 98.6153 238.443 98.4755C239.588 97.7571 240.817 97.2698 242.105 97.0251C246.316 96.2194 248.485 95.167 249.347 93.5011C250.37 91.5324 251.807 91.8314 252.756 92.0294C253.457 92.175 253.84 92.2372 254.208 91.9246C254.589 91.6003 254.793 90.7169 254.177 89.9073C253.678 89.2432 253.913 88.585 254.069 88.1521C254.247 87.6589 254.383 87.2686 253.929 86.5522C253.063 85.1989 251.954 85.2125 251.912 85.2125C251.585 85.2242 251.281 84.9873 251.213 84.6572C251.148 84.3291 251.325 84.0029 251.638 83.8845C251.665 83.8747 254.337 82.8593 256.36 81.8866C257.527 81.3254 258.064 80.5954 258.072 80.1527C258.074 80.0731 258.078 79.8557 257.676 79.6479C256.529 79.1819 248.386 82.1351 245.176 83.6786C243.693 84.3893 242.002 86.2377 240.365 88.022C239.398 89.0801 238.48 90.0801 237.614 90.8373C236.301 91.9886 235.398 92.7633 234.86 93.2216C234.641 93.408 234.54 93.6914 234.589 93.9827ZM238.049 99.9608C237.699 99.9608 237.348 99.8715 237.033 99.6948C235.849 99.0269 233.777 97.4251 233.235 94.2118C233.107 93.4507 233.389 92.6701 233.971 92.175C234.501 91.7207 235.404 90.9499 236.709 89.8063C237.519 89.0957 238.41 88.1249 239.353 87.092C241.077 85.2125 242.86 83.267 244.584 82.4399C244.695 82.3875 256.162 77.3141 258.309 78.4286C259.043 78.8072 259.457 79.444 259.445 80.1741C259.429 81.2633 258.474 82.3933 256.952 83.1234C255.929 83.6165 254.764 84.1116 253.838 84.4902C254.261 84.7834 254.696 85.2028 255.084 85.8125C255.905 87.0978 255.579 88.0103 255.36 88.6142C255.224 89.0064 255.237 89.0277 255.276 89.0782C256.336 90.4859 256.01 92.1945 255.098 92.9692C254.201 93.7341 253.203 93.5264 252.477 93.3749C251.566 93.1847 251.11 93.0876 250.566 94.136C249.485 96.2135 247.032 97.4814 242.361 98.3745C241.244 98.5862 240.169 99.0133 239.167 99.6385C238.825 99.8521 238.435 99.9608 238.049 99.9608Z" fill="black"/>
<path d="M172.877 78.5781L160.387 99.2793C160.214 99.5162 158.381 99.4541 156.314 99.6618C155.349 99.7608 154.339 99.9065 153.504 100.042C152.815 100.153 152.621 101.05 153.203 101.436L155.438 102.918C160.125 106.022 165.691 107.626 171.301 107.246C172.858 107.139 174.355 106.888 175.681 106.475L180.467 104.968C181.183 104.743 181.176 103.728 180.457 103.508L174.366 101.662L179.51 90.7441L172.877 78.5781Z" fill="white"/>
<path d="M172.846 79.9566L160.973 99.6366C160.962 99.6521 160.954 99.6676 160.942 99.6851C160.647 100.089 160.146 100.114 158.653 100.19C158.01 100.223 157.205 100.264 156.381 100.345C155.576 100.427 154.642 100.555 153.613 100.722C153.591 100.724 153.558 100.73 153.547 100.782C153.537 100.835 153.564 100.854 153.58 100.866L155.816 102.343C160.465 105.424 165.948 106.921 171.252 106.562C172.819 106.454 174.238 106.207 175.477 105.821L180.261 104.314C180.284 104.308 180.313 104.298 180.313 104.238C180.313 104.182 180.28 104.174 180.259 104.166L174.168 102.32C173.976 102.262 173.819 102.124 173.739 101.943C173.658 101.761 173.66 101.551 173.747 101.37L178.739 90.7674L172.846 79.9566ZM169.697 107.985C164.618 107.985 159.478 106.417 155.059 103.491L152.822 102.009C152.322 101.675 152.077 101.081 152.205 100.493C152.331 99.9065 152.797 99.4638 153.393 99.3648C154.45 99.1939 155.409 99.0638 156.245 98.9803C157.102 98.893 157.925 98.8522 158.585 98.8192C159.088 98.7939 159.647 98.7648 159.921 98.726L172.289 78.2228C172.415 78.0131 172.646 77.8869 172.891 77.8927C173.137 77.8966 173.361 78.0345 173.479 78.25L180.11 90.416C180.216 90.6101 180.222 90.8412 180.129 91.0392L175.325 101.236L180.655 102.852C181.271 103.036 181.682 103.594 181.688 104.232C181.692 104.873 181.282 105.434 180.671 105.624L175.889 107.131C174.547 107.549 173.017 107.817 171.347 107.931C170.798 107.968 170.246 107.985 169.697 107.985Z" fill="black"/>
<path d="M178.453 91.1712C179.108 91.2567 179.785 91.2819 180.477 91.247L181.711 91.1829C181.711 91.1829 188.783 90.2451 189.918 88.488C191.052 86.7367 188.654 80.3702 188.654 80.3702C189.746 79.5198 189.992 78.4441 189.759 78.083C189.526 77.7238 187.946 77.1704 187.307 76.7006C186.785 76.3161 185.618 73.2678 185.119 71.9612C185.119 71.9612 184.193 66.7926 175.9 67.4625C156.909 69.0041 170.565 86.5774 170.565 86.5774C170.86 86.9211 171.163 87.2492 171.475 87.5599L178.453 91.1712Z" fill="white"/>
<path d="M179.877 91.9518C178.807 91.9518 177.756 91.8081 176.743 91.5227C176.376 91.4217 176.162 91.0431 176.265 90.68C176.366 90.3131 176.745 90.0975 177.112 90.2024C178.182 90.5014 179.298 90.6218 180.442 90.5635L181.645 90.5014C184.453 90.1247 188.678 89.1423 189.34 88.1191C189.99 87.1114 188.954 83.1233 188.012 80.6129C187.905 80.3333 187.992 80.0129 188.229 79.8304C188.934 79.2829 189.14 78.6907 189.154 78.4558C188.965 78.3315 188.532 78.1257 188.231 77.982C187.746 77.7471 187.237 77.5044 186.899 77.2559C186.393 76.8831 185.76 75.5628 184.472 72.2097C184.459 72.1689 184.447 72.1281 184.439 72.0854C184.404 71.9029 183.472 67.544 175.955 68.1498C171.338 68.5245 168.402 69.837 167.227 72.0563C165.229 75.8171 168.45 81.5157 170.374 84.9213L170.545 85.228C170.734 85.5562 170.615 85.9755 170.285 86.1619C169.955 86.3483 169.538 86.2318 169.349 85.8998L169.18 85.5969C167.115 81.9467 163.664 75.8346 166.012 71.4097C167.423 68.7536 170.732 67.1945 175.844 66.7829C184.067 66.117 185.598 71.0505 185.773 71.7592C187.033 75.0424 187.534 75.9686 187.734 76.1666C187.948 76.322 188.416 76.5452 188.823 76.7433C189.637 77.1316 190.107 77.3685 190.334 77.7102C190.746 78.3509 190.505 79.5664 189.46 80.5799C190.082 82.3195 191.627 87.1075 190.493 88.8646C189.247 90.7887 183.032 91.7013 181.797 91.8644C181.781 91.8663 181.762 91.8683 181.744 91.8702L180.512 91.9343C180.3 91.9459 180.088 91.9518 179.877 91.9518Z" fill="black"/>
<path d="M172.025 65.2161C174.096 64.8083 176.456 65.1306 177.465 64.785C179.09 64.2317 179.051 62.36 181.348 62.1736C183.366 62.0125 185.239 62.3872 186.259 63.9346C186.428 64.1909 186.575 64.4783 186.694 64.8045C188.286 69.1711 186.088 71.2777 185.119 71.9612C185.119 71.9612 178.968 74.9143 177.906 75.7667C176.912 76.5588 175.743 78.45 176.38 81.1857C176.461 81.5371 176.294 81.9021 175.978 82.0788C175.607 82.2885 175.137 82.1836 174.894 81.8341C174.131 80.7313 172.458 78.6014 171.217 79.0926C169.771 79.6673 169.279 83.302 171.937 84.2009C172.759 84.4786 173.027 85.5503 172.436 86.1833C171.947 86.7075 171.2 87.0726 170.072 86.7852C170.072 86.7852 163.455 82.0691 162.67 75.8502C161.888 69.6351 169.268 65.7597 172.025 65.2161Z" fill="black"/>
<path d="M174.079 25.53C173.712 25.53 173.407 25.2387 173.396 24.8718L173.285 21.9594C173.271 21.5808 173.566 21.2604 173.945 21.2468C174.326 21.2313 174.642 21.5284 174.656 21.907L174.766 24.8194C174.78 25.198 174.487 25.5183 174.106 25.53C174.098 25.53 174.089 25.53 174.079 25.53Z" fill="black"/>
<path d="M167.794 19.7033C167.427 19.7033 167.124 19.412 167.109 19.0431C167.095 18.6626 167.39 18.3461 167.769 18.3306L170.683 18.2218C171.068 18.2063 171.378 18.5014 171.394 18.88C171.407 19.2606 171.11 19.579 170.734 19.5945L167.821 19.7033C167.812 19.7033 167.804 19.7033 167.794 19.7033Z" fill="black"/>
<path d="M176.995 19.3557C176.628 19.3557 176.325 19.0645 176.312 18.6936C176.296 18.315 176.591 17.9985 176.97 17.9811L179.882 17.8723C180.273 17.8588 180.581 18.1539 180.595 18.5325C180.609 18.9111 180.313 19.2315 179.935 19.2451L177.022 19.3557C177.015 19.3557 177.007 19.3557 176.995 19.3557Z" fill="black"/>
<path d="M15.8045 200.557C15.4764 200.557 15.1871 200.32 15.1288 199.986C12.0573 182.125 13.2785 163.278 18.6567 145.479C20.0119 140.996 21.6293 136.599 23.4621 132.403C23.6136 132.055 24.0174 131.896 24.365 132.048C24.7145 132.201 24.8717 132.605 24.7203 132.95C22.9088 137.098 21.3109 141.447 19.9712 145.876C14.6532 163.47 13.4474 182.102 16.4821 199.755C16.5462 200.127 16.2957 200.481 15.923 200.545C15.8822 200.553 15.8433 200.557 15.8045 200.557Z" fill="black"/>
<path d="M16.257 203.015C15.9347 203.015 15.6473 202.785 15.5832 202.459C15.4221 201.64 15.2706 200.815 15.1289 199.986C15.0648 199.613 15.3153 199.256 15.69 199.192C16.0609 199.128 16.4181 199.378 16.4822 199.755C16.6239 200.57 16.7715 201.386 16.9307 202.195C17.0025 202.568 16.7618 202.929 16.389 203.001C16.3443 203.011 16.2997 203.015 16.257 203.015Z" fill="black"/>
<path d="M10.372 211.082C10.0535 211.082 9.76812 210.859 9.70016 210.534C4.90444 187.571 6.63245 162.231 14.5677 139.179C14.69 138.822 15.0803 138.631 15.4395 138.754C15.7968 138.876 15.989 139.266 15.8647 139.626C8.01098 162.447 6.2985 187.53 11.0437 210.255C11.1214 210.626 10.8845 210.989 10.5137 211.066C10.4651 211.076 10.4186 211.082 10.372 211.082Z" fill="black"/>
<path d="M238.625 135.729C238.416 135.729 238.208 135.634 238.074 135.451C237.847 135.146 237.911 134.717 238.216 134.49L258.224 119.67C258.529 119.443 258.96 119.509 259.185 119.814C259.41 120.118 259.346 120.548 259.041 120.773L239.033 135.595C238.911 135.686 238.767 135.729 238.625 135.729Z" fill="black"/>
<path d="M207.1 55.6285C206.89 55.6285 206.682 55.5334 206.55 55.3489C206.321 55.046 206.387 54.6169 206.69 54.3898L257.742 16.5754C258.049 16.3501 258.474 16.4142 258.701 16.719C258.927 17.0219 258.862 17.451 258.558 17.6782L207.509 55.4926C207.387 55.5858 207.243 55.6285 207.1 55.6285Z" fill="black"/>
<path d="M243.2 38.6182C242.992 38.6182 242.784 38.5212 242.65 38.3406C242.425 38.0358 242.487 37.6047 242.792 37.3795L269.64 17.4918C269.947 17.2646 270.376 17.3287 270.603 17.6335C270.828 17.9403 270.764 18.3694 270.46 18.5946L243.609 38.4843C243.487 38.5736 243.343 38.6182 243.2 38.6182Z" fill="black"/>
<path d="M234.53 51.223C234.068 51.223 233.602 51.1357 233.16 50.9648C232.191 50.5881 231.43 49.8484 231.01 48.8854C230.164 46.9185 231.045 44.6139 232.977 43.746C233.323 43.5906 233.729 43.746 233.884 44.0916C234.041 44.4372 233.886 44.843 233.54 45.0002C232.29 45.5594 231.721 47.0603 232.274 48.3398C232.542 48.965 233.034 49.4407 233.655 49.6834C234.263 49.9183 234.925 49.9008 235.517 49.6348C236.769 49.0718 237.338 47.5728 236.783 46.2953C236.633 45.9458 236.792 45.54 237.142 45.3905C237.489 45.2391 237.893 45.4002 238.047 45.7497C238.893 47.7165 238.014 50.0212 236.082 50.8871C235.585 51.1104 235.057 51.223 234.53 51.223Z" fill="black"/>
<path d="M370.591 66.9499C370.591 95.6039 347.362 118.833 318.706 118.833C290.052 118.833 266.823 95.6039 266.823 66.9499C266.823 38.292 290.052 15.0629 318.706 15.0629C347.362 15.0629 370.591 38.292 370.591 66.9499Z" fill="black"/>
<path d="M318.706 15.7521C290.477 15.7521 267.508 38.7153 267.508 66.948C267.508 95.1787 290.477 118.148 318.706 118.148C346.937 118.148 369.906 95.1787 369.906 66.948C369.906 38.7153 346.937 15.7521 318.706 15.7521ZM318.706 119.52C289.72 119.52 266.136 95.9359 266.136 66.948C266.136 37.96 289.72 14.3775 318.706 14.3775C347.694 14.3775 371.279 37.96 371.279 66.948C371.279 95.9359 347.694 119.52 318.706 119.52Z" fill="black"/>
<path d="M364.198 66.9499C364.198 95.6058 340.968 118.835 312.314 118.835C283.657 118.835 260.427 95.6058 260.427 66.9499C260.427 38.294 283.657 15.0648 312.314 15.0648C340.968 15.0648 364.198 38.294 364.198 66.9499Z" fill="#086099"/>
<path d="M312.314 15.7521C284.082 15.7521 261.115 38.7211 261.115 66.9519C261.115 95.1806 284.082 118.15 312.314 118.15C340.541 118.15 363.512 95.1806 363.512 66.9519C363.512 38.7211 340.541 15.7521 312.314 15.7521ZM312.314 119.52C283.326 119.52 259.74 95.9378 259.74 66.9519C259.74 37.962 283.326 14.3794 312.314 14.3794C341.3 14.3794 364.883 37.962 364.883 66.9519C364.883 95.9378 341.3 119.52 312.314 119.52Z" fill="black"/>
<path d="M346.902 66.9499C346.902 86.0532 331.416 101.541 312.314 101.541C293.209 101.541 277.723 86.0532 277.723 66.9499C277.723 47.8466 293.209 32.3605 312.314 32.3605C331.416 32.3605 346.902 47.8466 346.902 66.9499Z" fill="white"/>
<path d="M329.608 66.9519C329.608 76.5025 321.863 84.2456 312.314 84.2456C302.762 84.2456 295.017 76.5025 295.017 66.9519C295.017 57.3992 302.762 49.6562 312.314 49.6562C321.863 49.6562 329.608 57.3992 329.608 66.9519Z" fill="#086099"/>
<path d="M311.761 67.5751L320.654 57.6109L321.982 58.9389L312.019 67.8333C311.845 67.9867 311.608 67.746 311.761 67.5751Z" fill="white"/>
<path d="M320.681 58.6108L318.174 61.4203L320.984 58.9137L320.681 58.6108ZM311.895 68.5692C311.672 68.5692 311.452 68.4838 311.281 68.3129C310.951 67.9809 310.934 67.4683 311.248 67.1188L320.139 57.1546C320.265 57.0148 320.444 56.9313 320.632 56.9255C320.822 56.9216 321.003 56.9934 321.137 57.1255L322.467 58.4574C322.601 58.5894 322.673 58.7719 322.665 58.9603C322.665 59.1505 322.58 59.3292 322.44 59.4534L312.476 68.3459C312.307 68.4954 312.101 68.5692 311.895 68.5692Z" fill="black"/>
<path d="M320.644 58.9506C320.129 58.4341 320.129 57.5992 320.644 57.0847L324.306 53.4228L326.172 55.2868L322.508 58.9506C321.993 59.4651 321.16 59.4651 320.644 58.9506Z" fill="white"/>
<path d="M324.302 54.3975L321.127 57.572C320.881 57.8205 320.881 58.2205 321.127 58.4671C321.366 58.7059 321.782 58.7059 322.02 58.4671L325.199 55.2907L324.302 54.3975ZM321.574 60.0243C321.04 60.0243 320.535 59.8165 320.156 59.4379C319.372 58.6554 319.372 57.3856 320.156 56.6012L323.818 52.9394C324.088 52.6715 324.521 52.6715 324.789 52.9394L326.653 54.8033C326.923 55.0732 326.923 55.5062 326.653 55.7741L322.991 59.4379C322.615 59.8165 322.11 60.0243 321.574 60.0243Z" fill="black"/>
<path d="M323.308 56.2886C322.422 55.4033 322.422 53.9723 323.308 53.0908L366.021 10.3759C366.902 9.49439 368.333 9.49439 369.219 10.3759C370.098 11.2574 370.098 12.6922 369.219 13.5737L326.504 56.2886C325.62 57.1701 324.187 57.1701 323.308 56.2886Z" fill="white"/>
<path d="M367.621 10.3992C367.217 10.3992 366.815 10.5525 366.51 10.8593L323.795 53.5743C323.18 54.1878 323.18 55.1858 323.795 55.7994C324.409 56.4148 325.405 56.4148 326.02 55.7994L368.735 13.0863C369.347 12.4728 369.347 11.4729 368.735 10.8593C368.426 10.5525 368.026 10.3992 367.621 10.3992ZM324.906 57.6342C324.119 57.6342 323.378 57.3293 322.824 56.7721C322.263 56.2149 321.958 55.4751 321.958 54.6888C321.958 53.9005 322.263 53.1607 322.824 52.6035L365.539 9.88853C366.685 8.74105 368.556 8.74105 369.704 9.88853C370.853 11.0379 370.853 12.9077 369.704 14.0571L326.989 56.7721C326.436 57.3293 325.694 57.6342 324.906 57.6342Z" fill="black"/>
<path d="M353.54 22.8564L352.218 16.4278C351.694 13.896 352.482 11.269 354.311 9.44002L362.505 1.24457C362.805 0.947507 363.314 1.10283 363.4 1.51445L365.361 11.0379L353.54 22.8564Z" fill="#086099"/>
<path d="M362.78 1.93965L354.793 9.9293C353.125 11.5971 352.41 13.9775 352.886 16.2919L353.954 21.472L364.611 10.8166L362.78 1.93965ZM353.536 23.5476C353.47 23.5476 353.404 23.536 353.338 23.5165C353.099 23.4447 352.917 23.2447 352.865 22.9981L351.542 16.5695C350.972 13.8008 351.826 10.9564 353.824 8.95656L362.017 0.764992C362.336 0.444629 362.8 0.328134 363.227 0.45822C363.654 0.588307 363.98 0.937793 364.068 1.37853L366.029 10.9001C366.077 11.1273 366.007 11.3602 365.842 11.5272L354.022 23.3457C353.892 23.4758 353.717 23.5476 353.536 23.5476Z" fill="black"/>
<path d="M356.738 26.0542L363.163 27.3764C365.698 27.9007 368.325 27.1104 370.152 25.2834L378.348 17.0879C378.645 16.7909 378.494 16.2802 378.078 16.1948L368.556 14.2338L356.738 26.0542Z" fill="#086099"/>
<path d="M358.122 25.6387L363.303 26.7066C365.617 27.1823 367.997 26.4697 369.667 24.7999L377.655 16.8103L368.78 14.9833L358.122 25.6387ZM364.726 28.223C364.161 28.223 363.59 28.1667 363.025 28.0482L356.598 26.7279C356.35 26.6755 356.152 26.4949 356.078 26.2522C356.006 26.0095 356.072 25.7494 356.251 25.5688L368.069 13.7503C368.234 13.5873 368.467 13.5154 368.692 13.562L378.218 15.5211C378.655 15.6123 379.012 15.9366 379.138 16.3637C379.266 16.7928 379.148 17.2588 378.835 17.5753L370.64 25.7668C369.048 27.359 366.922 28.223 364.726 28.223Z" fill="black"/>
<path d="M374.962 19.7033C374.921 19.7033 374.876 19.7013 374.836 19.6935L367.093 18.2432C366.718 18.1752 366.477 17.8141 366.545 17.4432C366.615 17.0705 366.972 16.8239 367.345 16.8938L375.088 18.3422C375.461 18.4121 375.707 18.7694 375.635 19.1441C375.573 19.4741 375.286 19.7033 374.962 19.7033Z" fill="black"/>
<path d="M371.816 22.8506C371.774 22.8506 371.733 22.8448 371.69 22.837L363.947 21.3886C363.574 21.3187 363.33 20.9614 363.4 20.5867C363.47 20.2158 363.825 19.9693 364.2 20.0392L371.943 21.4876C372.315 21.5575 372.56 21.9167 372.492 22.2895C372.43 22.6215 372.139 22.8506 371.816 22.8506Z" fill="black"/>
<path d="M353.884 27.9958C353.709 27.9958 353.532 27.9278 353.397 27.7919L351.801 26.1959C351.533 25.928 351.533 25.4931 351.801 25.2251C352.069 24.9572 352.503 24.9572 352.771 25.2251L354.367 26.8211C354.639 27.0891 354.639 27.524 354.367 27.7919C354.235 27.9278 354.061 27.9958 353.884 27.9958Z" fill="black"/>
<path d="M355.732 26.1455C355.554 26.1455 355.383 26.0794 355.247 25.9455L353.649 24.3475C353.381 24.0777 353.381 23.6447 353.649 23.3748C353.919 23.1069 354.352 23.1069 354.622 23.3748L356.216 24.9727C356.486 25.2407 356.486 25.6756 356.216 25.9455C356.086 26.0794 355.907 26.1455 355.732 26.1455Z" fill="black"/>
<path d="M357.579 24.2971C357.402 24.2971 357.227 24.233 357.093 24.099L355.495 22.5011C355.227 22.2332 355.227 21.7982 355.495 21.5303C355.761 21.2624 356.196 21.2624 356.464 21.5303L358.062 23.1263C358.332 23.3942 358.332 23.8311 358.062 24.099C357.93 24.233 357.755 24.2971 357.579 24.2971Z" fill="black"/>
<path d="M64.0394 328.6C65.2277 327.418 65.8995 326.073 65.8995 324.642C65.8995 319.935 58.6069 316.118 49.6115 316.118C40.6161 316.118 33.3235 319.935 33.3235 324.642C33.3235 326.073 33.9972 327.418 35.1835 328.6C33.9972 329.785 33.3235 331.13 33.3235 332.559C33.3235 334.792 34.9661 336.825 37.6513 338.343C37.5911 338.6 37.5581 338.856 37.5581 339.118C37.5581 342.603 42.9538 345.424 49.6115 345.424C56.2692 345.424 61.6649 342.603 61.6649 339.118C61.6649 338.856 61.6319 338.6 61.5717 338.343C64.2569 336.825 65.8995 334.792 65.8995 332.559C65.8995 331.13 65.2277 329.785 64.0394 328.6Z" fill="black"/>
<path d="M93.3206 258.68C93.3206 234.54 73.7513 214.973 49.6115 214.973C25.5183 214.973 6.06358 234.29 5.90437 258.385C5.82282 270.652 10.7972 281.758 18.8664 289.743C24.6854 295.504 28.9297 302.665 30.9897 310.59L31.0887 310.973C33.0886 318.665 40.0336 324.036 47.9825 324.036H51.2405C59.1894 324.036 66.1344 318.665 68.1343 310.973L68.1944 310.742C70.2409 302.872 74.3124 295.644 80.1333 289.965C88.2685 282.028 93.3206 270.945 93.3206 258.68Z" fill="white"/>
<path d="M49.6115 215.66C26.0464 215.66 6.74698 234.828 6.58971 258.389C6.51204 270.073 11.0437 281.035 19.3479 289.256C25.3416 295.188 29.5975 302.506 31.6537 310.417L31.7527 310.8C33.6749 318.19 40.3481 323.348 47.9825 323.348H51.2405C58.8748 323.348 65.548 318.19 67.4702 310.8L67.5304 310.569C69.6428 302.445 73.8328 295.151 79.6537 289.474C88.0239 281.305 92.6332 270.372 92.6332 258.68C92.6332 234.958 73.3338 215.66 49.6115 215.66ZM51.2405 324.721H47.9825C39.7229 324.721 32.5041 319.139 30.4247 311.146L30.3256 310.763C28.3297 303.09 24.1999 295.99 18.3829 290.231C9.81275 281.75 5.1374 270.438 5.217 258.377C5.29661 246.543 9.94089 235.457 18.2994 227.156C26.656 218.856 37.7755 214.285 49.6115 214.285C74.091 214.285 94.0059 234.202 94.0059 258.68C94.0059 270.745 89.249 282.03 80.6128 290.456C74.9725 295.96 70.9068 303.034 68.8584 310.913L68.7983 311.146C66.7208 319.139 59.5 324.721 51.2405 324.721Z" fill="black"/>
<path d="M52.65 317.815C52.2986 317.815 51.9996 317.547 51.9666 317.194C49.7629 293.37 61.193 255.669 61.3095 255.29C61.4183 254.927 61.8027 254.723 62.1658 254.834C62.5289 254.946 62.7327 255.329 62.6201 255.692C62.5056 256.069 51.155 293.514 53.3335 317.067C53.3684 317.444 53.0908 317.778 52.7141 317.813C52.6908 317.815 52.6714 317.815 52.65 317.815Z" fill="black"/>
<path d="M47.2486 316.805C46.8739 316.805 46.569 316.506 46.5613 316.132C45.7322 270.568 36.7931 257.723 36.7019 257.598C36.4786 257.292 36.5485 256.863 36.8553 256.639C37.162 256.416 37.5911 256.484 37.8144 256.791C38.193 257.313 47.0971 270.112 47.934 316.106C47.9417 316.485 47.6389 316.8 47.2602 316.805C47.2564 316.805 47.2525 316.805 47.2486 316.805Z" fill="black"/>
<path d="M53.2908 250.826C52.8287 251.308 52.054 253.176 52.1394 255.1C52.1899 256.202 52.5044 257.4 52.9821 258.389C53.45 257.377 53.7781 256.251 53.8965 255.197C54.1257 253.179 53.6344 251.347 53.2908 250.826ZM46.3884 252.156C46.0117 252.401 45.3516 254.28 45.5807 256.309C45.7011 257.373 46.0778 258.507 46.6117 259.459C47.4485 258.294 47.9339 256.647 47.8155 255.265C47.6776 253.647 46.769 252.29 46.3884 252.156ZM49.4697 263.12C49.4212 263.12 49.3688 263.12 49.3183 263.116C48.2077 263.068 47.2369 262.458 46.4447 261.573C45.6972 262.117 44.8604 262.41 43.975 262.429C41.6296 262.472 39.3773 260.614 38.4939 257.903C38.3774 257.542 38.5735 257.154 38.9347 257.039C39.2938 256.921 39.6822 257.117 39.8006 257.478C40.4879 259.585 42.2373 261.101 43.9498 261.055C44.6255 261.041 45.1866 260.787 45.6273 260.468C44.8526 259.214 44.3575 257.719 44.2158 256.465C44.0003 254.562 44.4313 252.387 45.2196 251.403C45.5865 250.943 45.9749 250.813 46.237 250.784C46.5049 250.754 46.9243 250.799 47.398 251.189C48.2873 251.921 49.0542 253.622 49.1843 255.148C49.3416 257.014 48.6445 259.187 47.4369 260.635C48.0194 261.288 48.6892 261.715 49.3804 261.746C50.392 261.794 51.3919 260.979 52.2015 259.785C51.3375 258.42 50.8327 256.622 50.7686 255.162C50.6696 252.911 51.5297 250.628 52.384 249.803C52.7898 249.411 53.1684 249.353 53.4131 249.372C53.6383 249.389 53.9723 249.49 54.2868 249.875C55.0596 250.813 55.4964 253.269 55.2615 255.35C55.1081 256.715 54.613 258.317 53.8519 259.713C54.2887 260.189 54.7722 260.48 55.2867 260.468C56.3643 260.451 57.603 259.115 58.2962 257.214C58.4243 256.857 58.8204 256.676 59.1757 256.804C59.531 256.934 59.7155 257.329 59.5854 257.686C58.6729 260.185 56.9934 261.818 55.3061 261.843C54.4615 261.856 53.7296 261.489 53.1024 260.895C52.1355 262.2 50.8948 263.12 49.4697 263.12Z" fill="black"/>
<path d="M62.9987 234.763C64.3831 236.107 65.946 237.256 67.2721 238.66C68.7031 240.173 69.9302 241.945 71.0718 243.681C72.1766 245.361 73.2153 247.143 73.9706 249.009C74.3201 249.873 74.5123 250.797 74.7647 251.692C75.1511 253.051 75.7841 256.125 77.6247 256.241C78.646 256.305 79.3818 255.265 79.8517 254.506C80.6846 253.158 81.0594 251.572 81.1797 250.005C81.4341 246.716 80.5817 243.417 79.2867 240.415C77.9451 237.307 76.0559 234.404 73.691 231.971C72.7164 230.968 71.6213 229.997 70.4253 229.183C70.3884 229.158 70.3534 229.129 70.3185 229.102C68.9361 228.063 67.4197 226.982 65.6431 226.84C64.2976 226.735 62.8473 227.114 61.7988 227.983C59.234 230.104 61.1348 232.954 62.9987 234.763Z" fill="#CADDFF"/>
<path d="M59.2049 227.733C59.7776 226.549 59.5874 224.512 58.6748 223.368C58.669 223.333 58.6554 223.296 58.634 223.26C57.0361 220.636 52.9957 221.277 52.4132 224.343C51.8035 227.554 57.4477 231.372 59.2049 227.733Z" fill="#CADDFF"/>
<path d="M62.6454 290.606C62.3794 290.606 62.1269 290.45 62.0143 290.192C61.8648 289.844 62.024 289.441 62.3716 289.289C70.8525 285.614 77.5587 278.542 80.7681 269.885C80.9002 269.528 81.2963 269.347 81.6516 269.479C82.0069 269.611 82.1875 270.005 82.0554 270.363C78.7159 279.37 71.7398 286.726 62.9172 290.549C62.8279 290.588 62.7366 290.606 62.6454 290.606Z" fill="black"/>
<path d="M23.2739 282.198C23.0875 282.198 22.903 282.123 22.769 281.975C16.7676 275.434 13.4611 266.939 13.4611 258.057C13.4611 244.392 21.1012 232.185 33.3973 226.207C33.7371 226.04 34.1487 226.182 34.3157 226.523C34.4807 226.863 34.339 227.275 33.9973 227.44C22.1769 233.189 14.8357 244.92 14.8357 258.057C14.8357 266.596 18.0121 274.76 23.7806 281.049C24.0369 281.327 24.0175 281.762 23.7379 282.018C23.6059 282.14 23.4408 282.198 23.2739 282.198Z" fill="black"/>
<path d="M29.8635 282.95C29.7276 282.95 29.5898 282.909 29.4675 282.824C23.3922 278.539 19.1751 272.176 17.5946 264.907C15.1618 253.723 19.2392 242.376 28.2365 235.294C28.5355 235.059 28.9665 235.111 29.2015 235.41C29.4344 235.707 29.384 236.14 29.085 236.375C20.5051 243.128 16.6161 253.95 18.9363 264.613C20.4449 271.547 24.4659 277.614 30.2596 281.701C30.5703 281.921 30.6441 282.35 30.4247 282.659C30.2907 282.847 30.0791 282.95 29.8635 282.95Z" fill="black"/>
<path d="M43.5751 331.474C39.4939 331.474 36.6805 331.039 36.4223 330.998C36.0495 330.938 35.7932 330.585 35.8534 330.212C35.9136 329.837 36.2669 329.583 36.6397 329.641C36.7814 329.665 50.8424 331.827 62.3949 326.267C62.7366 326.104 63.1463 326.245 63.3113 326.587C63.4744 326.929 63.3308 327.338 62.989 327.504C56.2517 330.748 48.8523 331.474 43.5751 331.474Z" fill="white"/>
<path d="M45.2196 339.116C42.2354 339.116 40.1793 338.798 39.9909 338.767C39.6181 338.706 39.3618 338.355 39.422 337.98C39.4822 337.606 39.8337 337.351 40.2084 337.411C40.3113 337.427 50.4813 338.992 58.8263 334.971C59.168 334.808 59.5777 334.951 59.7427 335.293C59.9058 335.635 59.7621 336.046 59.4204 336.21C54.4907 338.582 49.0795 339.116 45.2196 339.116Z" fill="white"/>
</svg>
