<svg width="58" height="49" viewBox="0 0 58 49" fill="none" xmlns="http://www.w3.org/2000/svg">
<path fill-rule="evenodd" clip-rule="evenodd" d="M46.1466 21.1631C47.8209 21.1631 49.4095 21.5558 50.8547 22.2709C52.3402 23.0061 53.6645 24.0736 54.7597 25.3979C55.7818 26.6341 56.6027 28.0994 57.1616 29.7208C57.6802 31.2263 57.9748 32.8679 57.99 34.5824C57.9975 34.6328 58 34.6831 58 34.736C58 36.4934 57.7029 38.1853 57.1616 39.7462C56.6002 41.3726 55.7769 42.8405 54.7572 44.0741C53.6645 45.3984 52.3402 46.4684 50.8522 47.2011C49.407 47.9136 47.8159 48.3089 46.1441 48.3089C44.4698 48.3089 42.8811 47.9161 41.436 47.2011C39.9505 46.4659 38.6262 45.3984 37.531 44.0741C36.5113 42.8404 35.688 41.3726 35.1266 39.7462C34.5878 38.1877 34.2881 36.4933 34.2881 34.736C34.2881 32.9786 34.5852 31.2868 35.1266 29.7258C35.688 28.0994 36.5113 26.6316 37.531 25.398C38.6237 24.0736 39.948 23.0037 41.436 22.271C42.8811 21.5584 44.4723 21.1631 46.1441 21.1631L46.1466 21.1631ZM46.1466 28.5197C45.6128 28.5197 45.0967 28.6557 44.6183 28.9024C44.0972 29.1718 43.6138 29.5747 43.1958 30.0807C42.7124 30.6673 42.3222 31.3748 42.0553 32.1679C41.7935 32.9433 41.65 33.8119 41.65 34.7334C41.65 35.6574 41.7935 36.5235 42.0553 37.299C42.3222 38.0921 42.7124 38.7995 43.1958 39.3861C43.6138 39.8922 44.0972 40.2951 44.6183 40.5644C45.0942 40.8111 45.6128 40.9471 46.1466 40.9471C46.6803 40.9471 47.1965 40.8111 47.6748 40.5644C48.196 40.295 48.6794 39.8922 49.0973 39.3861C49.5807 38.7995 49.971 38.0921 50.2378 37.299C50.4997 36.5235 50.6432 35.6549 50.6432 34.7334C50.6432 34.6856 50.6457 34.6377 50.6532 34.5924C50.6381 33.7289 50.4971 32.9131 50.2454 32.178C50.2403 32.1628 50.2353 32.1452 50.2303 32.1301C49.9634 31.3547 49.5757 30.6598 49.0973 30.0807C48.6794 29.5747 48.196 29.1718 47.6748 28.9024C47.199 28.6557 46.6803 28.5197 46.1466 28.5197Z" fill="#0A2D47"/>
<path fill-rule="evenodd" clip-rule="evenodd" d="M11.8509 0C13.5252 0 15.1139 0.392757 16.5591 1.10782C18.0445 1.84297 19.3688 2.9105 20.464 4.23481C21.4837 5.4685 22.307 6.93629 22.8685 8.5627C23.4073 10.1212 23.7069 11.8156 23.7069 13.5729C23.7069 13.6257 23.7018 13.6761 23.6968 13.7265C23.6792 15.441 23.3871 17.08 22.8685 18.5881C22.3095 20.2095 21.4888 21.6749 20.4665 22.911C19.3739 24.2353 18.0495 25.3053 16.5616 26.038C15.1164 26.7505 13.5252 27.1458 11.8534 27.1458C10.1791 27.1458 8.59049 26.753 7.14531 26.038C5.65986 25.3028 4.33554 24.2353 3.24034 22.911C2.21818 21.6748 1.39737 20.2095 0.838426 18.5881C0.319776 17.0826 0.025218 15.441 0.0100714 13.7265C0.00251816 13.6761 0 13.6257 0 13.5729C0 11.8155 0.297091 10.1236 0.838409 8.5627C1.39986 6.93629 2.22312 5.46844 3.24284 4.23481C4.33552 2.9105 5.65984 1.84052 7.14781 1.10782C8.59298 0.39529 10.1841 0 11.8559 0H11.8509ZM14.8017 8.92028C14.3837 8.41422 13.9004 8.01137 13.3792 7.74202C12.9033 7.49528 12.3847 7.35933 11.8509 7.35933C11.3172 7.35933 10.8011 7.49528 10.3227 7.74202C9.80152 8.01141 9.31812 8.41426 8.9002 8.92028C8.4168 9.5069 8.02654 10.2144 7.7597 11.0075C7.49786 11.7829 7.35435 12.6515 7.35435 13.573C7.35435 13.6208 7.35183 13.6687 7.34427 13.714C7.35938 14.5775 7.50037 15.3933 7.75214 16.1285C7.75718 16.1436 7.76221 16.1612 7.76725 16.1763C8.03412 16.9517 8.42184 17.6466 8.90021 18.2257C9.31815 18.7318 9.80153 19.1346 10.3227 19.404C10.7985 19.6507 11.3172 19.7867 11.8509 19.7867C12.3847 19.7867 12.9008 19.6507 13.3792 19.404C13.9004 19.1346 14.3838 18.7317 14.8017 18.2257C15.2876 17.6366 15.6804 16.9266 15.9497 16.1285C16.199 15.3908 16.3425 14.5776 16.3576 13.714C16.3526 13.6687 16.3475 13.6209 16.3475 13.573C16.3475 12.649 16.204 11.783 15.9422 11.0075C15.6753 10.2144 15.2851 9.50693 14.8017 8.92028Z" fill="#0A2D47"/>
<path fill-rule="evenodd" clip-rule="evenodd" d="M18.0339 48.3107H14.5897C14.1919 48.3107 13.8218 48.2024 13.502 48.0186C13.1621 47.8223 12.8902 47.5453 12.7039 47.223C12.5126 46.8932 12.4068 46.518 12.4068 46.1329C12.4068 45.7729 12.5 45.4002 12.7039 45.0452L38.0798 1.09416L38.0773 1.09164C38.2712 0.754266 38.5431 0.484872 38.8704 0.296032L38.8679 0.293514C39.1977 0.102173 39.5678 0.00146484 39.9606 0.00146484H43.4048C43.8051 0.00146484 44.1778 0.109727 44.4975 0.293514C44.8324 0.487375 45.1043 0.764323 45.2931 1.08912C45.4845 1.41894 45.5902 1.79411 45.5902 2.17928C45.5902 2.54182 45.4971 2.91694 45.2931 3.26943L19.9198 47.216C19.9047 47.2437 19.887 47.2689 19.8694 47.294C19.6756 47.6012 19.4213 47.8429 19.1267 48.0141C19.099 48.0292 19.0713 48.0443 19.0436 48.0569C18.734 48.218 18.3916 48.3062 18.034 48.3062L18.0339 48.3107Z" fill="#0A2D47"/>
</svg>
