<svg width="50" height="75" viewBox="0 0 50 75" fill="none" xmlns="http://www.w3.org/2000/svg">
<path fill-rule="evenodd" clip-rule="evenodd" d="M26.1295 69.85H45.1017C45.2483 69.85 45.3604 69.6432 45.3604 69.4622V55.3809C45.3604 55.1999 45.2483 54.9931 45.1017 54.9931H37.5473V62.8696C37.5427 63.085 37.4661 63.2926 37.3298 63.4595C37.1935 63.6264 37.0052 63.7429 36.7949 63.7904C36.5847 63.838 36.3646 63.8139 36.1696 63.722C35.9746 63.6301 35.816 63.4757 35.7191 63.2833L29.5445 52.0803C29.466 51.9362 29.4248 51.7747 29.4248 51.6106C29.4248 51.4465 29.466 51.2851 29.5445 51.1409L35.7363 39.9379C35.8369 39.7489 35.998 39.5991 36.1939 39.5124C36.3898 39.4258 36.6091 39.4072 36.8168 39.4599C37.0244 39.5125 37.2084 39.6332 37.3393 39.8027C37.4702 39.9722 37.5404 40.1806 37.5387 40.3947V48.2971H44.6705C43.8839 45.1714 42.2762 42.3124 40.0137 40.0155C37.6929 37.5704 34.727 35.8316 31.4589 35C28.6131 35.2585 25.5689 35.3878 22.5161 35.3878C19.4633 35.3878 16.4795 35.2585 13.5991 35C10.965 35.6232 8.50935 36.8429 6.4217 38.5648C4.33405 40.2868 2.67023 42.4651 1.55861 44.9316C0.447 47.398 -0.082674 50.0867 0.0104632 52.7902C0.1036 55.4937 0.817059 58.1396 2.09578 60.5238C3.37451 62.9081 5.18431 64.9668 7.38552 66.5413C9.58673 68.1157 12.1205 69.1637 14.7913 69.6044C17.4621 70.0451 20.1985 69.8667 22.7894 69.083C25.3803 68.2993 27.7563 66.9313 29.7342 65.0844C29.9194 64.9107 30.1662 64.8176 30.4201 64.8257C30.674 64.8338 30.9143 64.9423 31.0881 65.1275C31.2619 65.3126 31.355 65.5592 31.347 65.8129C31.3389 66.0666 31.2303 66.3068 31.045 66.4805C29.5841 67.8467 27.9238 68.9829 26.1208 69.85H26.1295ZM16.1087 43.8676C15.8548 43.8676 15.6113 43.7668 15.4318 43.5874C15.2523 43.408 15.1514 43.1647 15.1514 42.911C15.1514 42.6574 15.2523 42.414 15.4318 42.2347C15.6113 42.0553 15.8548 41.9545 16.1087 41.9545H28.9839C29.2378 41.9545 29.4813 42.0553 29.6608 42.2347C29.8403 42.414 29.9412 42.6574 29.9412 42.911C29.9412 43.1647 29.8403 43.408 29.6608 43.5874C29.4813 43.7668 29.2378 43.8676 28.9839 43.8676H25.75C26.4518 44.6571 26.9179 45.6274 27.0953 46.6684H28.9839C29.2378 46.6684 29.4813 46.7691 29.6608 46.9485C29.8403 47.1279 29.9412 47.3712 29.9412 47.6249C29.9412 47.8786 29.8403 48.1219 29.6608 48.3013C29.4813 48.4807 29.2378 48.5815 28.9839 48.5815H27.1039C26.8695 49.8956 26.1808 51.0857 25.1579 51.9441C24.1349 52.8025 22.8429 53.2746 21.5071 53.2781H19.2391L26.483 61.1289C26.6532 61.3186 26.7422 61.5674 26.7309 61.822C26.7197 62.0765 26.609 62.3165 26.4227 62.4905C26.2342 62.66 25.9866 62.7487 25.7333 62.7374C25.48 62.7261 25.2413 62.6158 25.0687 62.4301L16.3846 53.0282C16.2483 52.8948 16.1546 52.7239 16.1153 52.5373C16.076 52.3506 16.093 52.1565 16.164 51.9795C16.2351 51.8024 16.357 51.6504 16.5145 51.5426C16.6719 51.4348 16.8578 51.376 17.0486 51.3736H21.5071C22.3352 51.3715 23.1395 51.0968 23.7957 50.5922C24.452 50.0875 24.9236 49.3808 25.1377 48.5815H16.1087C15.8548 48.5815 15.6113 48.4807 15.4318 48.3013C15.2523 48.1219 15.1514 47.8786 15.1514 47.6249C15.1514 47.3712 15.2523 47.1279 15.4318 46.9485C15.6113 46.7691 15.8548 46.6684 16.1087 46.6684H25.1377C24.9239 45.8681 24.4526 45.1604 23.7965 44.6543C23.1404 44.1482 22.336 43.8717 21.5071 43.8676H16.1087Z" fill="#50A42A"/>
<path fill-rule="evenodd" clip-rule="evenodd" d="M44.506 6.137C45.2265 4.21298 45.4778 2.14504 45.239 0.10461C43.1971 -0.134038 41.1278 0.117068 39.2024 0.837114C36.8025 1.74072 34.6229 3.14499 32.8088 4.95638C30.9947 6.76776 29.5876 8.94468 28.6814 11.3421C27.9618 13.2663 27.7134 15.3347 27.957 17.3745C29.9982 17.6179 32.068 17.3697 33.9936 16.6506C36.3936 15.7465 38.5728 14.3409 40.3856 12.5279C42.1985 10.7148 43.6032 8.53599 44.506 6.137ZM33.045 7.2573C32.8552 7.08245 32.7426 6.83941 32.7321 6.58164C32.7216 6.32387 32.814 6.07248 32.989 5.88278C33.1639 5.69307 33.4071 5.5806 33.6651 5.5701C33.9231 5.55959 34.1746 5.65192 34.3645 5.82676C35.0711 6.5178 35.5187 7.43055 35.6321 8.41207L39.2024 4.83573C39.3869 4.67559 39.6254 4.59133 39.8696 4.59992C40.1139 4.60851 40.3458 4.70932 40.5186 4.88202C40.6914 5.05472 40.7923 5.28647 40.8009 5.53056C40.8095 5.77464 40.7252 6.01291 40.5649 6.19732L38.9523 7.72266C40.0087 7.8867 41.0124 8.29383 41.8844 8.9119C41.9845 8.98862 42.0684 9.08455 42.131 9.19406C42.1936 9.30358 42.2337 9.42447 42.249 9.54967C42.2642 9.67487 42.2543 9.80186 42.2199 9.92319C42.1854 10.0445 42.127 10.1578 42.0482 10.2563C41.9722 10.3561 41.877 10.4397 41.7681 10.5022C41.6593 10.5646 41.539 10.6047 41.4144 10.6199C41.2899 10.6352 41.1635 10.6254 41.0428 10.591C40.922 10.5567 40.8094 10.4985 40.7115 10.42C39.6439 9.68657 38.3318 9.39898 37.0551 9.61855L33.3382 13.3414C33.1575 13.5208 32.9129 13.6212 32.6582 13.6203C32.4035 13.6195 32.1595 13.5176 31.98 13.3371C31.8004 13.1565 31.7 12.9121 31.7008 12.6575C31.7017 12.403 31.8036 12.1592 31.9843 11.9798L33.4848 10.4717C34.2092 8.23972 33.0881 7.2573 33.045 7.2573Z" fill="#50A42A"/>
<path fill-rule="evenodd" clip-rule="evenodd" d="M3.86221 0.0875198C3.62339 2.12795 3.87468 4.19589 4.59523 6.11991C5.49593 8.52209 6.89975 10.7043 8.71271 12.5204C10.5257 14.3366 12.7059 15.7448 15.1076 16.6507C17.0332 17.3698 19.103 17.618 21.1442 17.3746C21.383 15.3342 21.1317 13.2663 20.4112 11.3422C19.5118 8.94308 18.1103 6.76338 16.3005 4.94882C14.4906 3.13426 12.314 1.72664 9.91608 0.820024C7.99071 0.0999776 5.92133 -0.151128 3.87946 0.0875198H3.86221ZM8.5794 6.163C8.48919 6.07402 8.41755 5.96801 8.36866 5.85115C8.31977 5.73428 8.2946 5.60887 8.2946 5.4822C8.2946 5.35553 8.31977 5.23012 8.36866 5.11325C8.41755 4.99638 8.48919 4.89038 8.5794 4.8014C8.76148 4.62349 9.00602 4.52388 9.26068 4.52388C9.51533 4.52388 9.75987 4.62349 9.94195 4.8014L13.5122 8.41222C13.6188 7.43937 14.0466 6.52971 14.7281 5.82691C14.8216 5.7426 14.9307 5.6775 15.0493 5.63534C15.1679 5.59317 15.2937 5.57477 15.4194 5.58117C15.5451 5.58757 15.6683 5.61865 15.782 5.67265C15.8957 5.72664 15.9977 5.80248 16.0821 5.89585C16.1664 5.98921 16.2316 6.09827 16.2738 6.21679C16.316 6.33531 16.3344 6.46098 16.328 6.58662C16.3216 6.71225 16.2905 6.8354 16.2364 6.94902C16.1824 7.06264 16.1065 7.16452 16.0131 7.24883C16.0131 7.24883 14.892 8.23124 15.6164 10.4632L17.1169 11.9713C17.2235 12.0534 17.3117 12.157 17.3755 12.2753C17.4394 12.3937 17.4775 12.5242 17.4875 12.6583C17.4975 12.7924 17.4791 12.9271 17.4334 13.0536C17.3878 13.1801 17.316 13.2956 17.2227 13.3925C17.1294 13.4894 17.0167 13.5656 16.8919 13.616C16.7672 13.6664 16.6332 13.69 16.4987 13.6852C16.3642 13.6804 16.2322 13.6473 16.1114 13.5881C15.9906 13.5289 15.8836 13.4449 15.7975 13.3415L12.0375 9.61869C10.7635 9.39959 9.45425 9.68724 8.38968 10.4201C8.2911 10.4989 8.17779 10.5572 8.05637 10.5917C7.93496 10.6261 7.80788 10.636 7.6826 10.6208C7.55731 10.6055 7.43633 10.5654 7.32674 10.5029C7.21715 10.4403 7.12115 10.3565 7.04437 10.2564C6.8857 10.0599 6.81038 9.80916 6.83456 9.55785C6.85874 9.30654 6.9805 9.0747 7.17373 8.91204C8.04733 8.29698 9.05036 7.89016 10.1058 7.7228L8.5794 6.163Z" fill="#50A42A"/>
<path fill-rule="evenodd" clip-rule="evenodd" d="M16.427 28.1636C21.8331 28.6204 27.2681 28.6204 32.6742 28.1636C33.3018 26.3154 34.3093 24.6187 35.6321 23.1826C28.2844 24.0013 20.8685 24.0013 13.5208 23.1826C14.8232 24.6247 15.8127 26.3207 16.427 28.1636Z" fill="#50A42A"/>
<path fill-rule="evenodd" clip-rule="evenodd" d="M32.1826 30.1279C27.1135 30.5157 22.0222 30.5157 16.9531 30.1279C17.0774 30.8428 17.1494 31.5657 17.1687 32.291C22.0919 32.6529 27.0352 32.6529 31.9584 32.291C31.9797 31.5654 32.0546 30.8424 32.1826 30.1279Z" fill="#50A42A"/>
<path fill-rule="evenodd" clip-rule="evenodd" d="M4.49246 71.8559V74.7083H45.0241C47.8958 74.7083 50 72.0196 50 69.0896V55.9476C50 53.0262 47.8958 50.3288 45.0241 50.3288H36.5814C36.3276 50.3288 36.0841 50.2281 35.9046 50.0487C35.7251 49.8693 35.6242 49.626 35.6242 49.3723V44.2017L31.4848 51.7077L35.6242 59.2137V54.1206C35.6242 53.8661 35.7248 53.6219 35.904 53.4412C36.0833 53.2604 36.3268 53.1577 36.5814 53.1555H45.0931C45.6878 53.1757 46.2506 53.4296 46.6591 53.8621C47.0676 54.2945 47.2889 54.8705 47.2749 55.465V69.5463C47.2889 70.1408 47.0676 70.7168 46.6591 71.1493C46.2506 71.5817 45.6878 71.8356 45.0931 71.8559H4.49246Z" fill="#50A42A"/>
</svg>
