<svg width="35" height="41" viewBox="0 0 35 41" fill="none" xmlns="http://www.w3.org/2000/svg">
<path d="M31.6408 6.12377H3.06194C1.37218 6.12377 6.10352e-05 4.75165 6.10352e-05 3.06188C6.10352e-05 1.37212 1.37218 0 3.06194 0H31.6389C33.3286 0 34.7007 1.37212 34.7007 3.06188C34.7027 4.75356 33.3306 6.12377 31.6408 6.12377Z" fill="#0A2D47"/>
<path d="M21.4332 40.8264C20.6505 40.8264 19.8659 40.5279 19.2688 39.9289L0.897548 21.5576C0.0229763 20.6831 -0.24108 19.3645 0.233487 18.2202C0.708079 17.0758 1.82376 16.3314 3.06188 16.3314H17.3513C20.1663 16.3314 22.4551 14.0426 22.4551 11.2276C22.4551 8.41254 20.1663 6.12377 17.3513 6.12377H3.06188C1.37212 6.12377 0 4.75165 0 3.06188C0 1.37212 1.37212 0 3.06188 0H17.3513C23.5402 0 28.5789 5.03668 28.5789 11.2276C28.5789 17.4165 23.5422 22.4551 17.3513 22.4551H10.4545L23.5995 35.6002C24.7956 36.7962 24.7956 38.7347 23.5995 39.9308C23.0005 40.5259 22.2179 40.8264 21.4332 40.8264Z" fill="#0A2D47"/>
<path d="M31.6408 14.2898H3.06193C1.37216 14.2898 4.57764e-05 12.9177 4.57764e-05 11.2279C4.57764e-05 9.53813 1.37216 8.16602 3.06193 8.16602H31.6389C33.3286 8.16602 34.7007 9.53813 34.7007 11.2279C34.7026 12.9177 33.3306 14.2898 31.6408 14.2898Z" fill="#0A2D47"/>
</svg>
