<svg width="40" height="40" viewBox="0 0 40 40" fill="none" xmlns="http://www.w3.org/2000/svg">
<path d="M38.9589 15.9534C38.9589 15.5538 38.9389 15.1652 38.9298 14.7656C38.9098 14.1435 38.8916 13.5195 38.8807 12.8974C38.8807 12.5471 38.8807 12.1876 38.8716 11.8374C38.8516 11.4287 38.8335 11.02 38.8044 10.6204C38.7844 10.3577 38.7462 10.0859 38.7262 9.82314C38.6972 9.40534 38.6881 8.98569 38.6681 8.5679C38.6681 8.51864 38.6481 8.46026 38.6299 8.41283C38.6299 8.39276 38.5917 8.37451 38.5718 8.37451C38.5336 8.37451 38.4754 8.39458 38.4754 8.41283C38.4554 8.52047 38.4373 8.62629 38.4464 8.73393C38.5045 9.64798 38.5045 10.5529 38.3882 11.4688C38.3301 11.8976 38.281 12.3245 38.2628 12.7533C38.2137 13.5907 38.1174 14.4172 38.0502 15.2546C38.012 15.6542 37.972 16.0428 37.9539 16.4424C37.9339 16.8127 37.9339 17.1922 37.9248 17.5607H37.9048C37.8957 17.6976 37.8757 17.8435 37.8666 17.9785C37.8575 18.3672 37.8575 18.7466 37.8466 19.1371V19.6534C37.8466 20.042 37.8557 20.4215 37.8466 20.812C37.8466 21.4049 37.8176 21.9888 37.8085 22.5836C37.8085 23.109 37.8575 23.6344 37.8085 24.1599V24.3259C37.8285 24.9189 37.8375 25.5027 37.8575 26.0975C37.8775 26.6138 37.8957 27.1283 37.9248 27.6355C37.9339 27.849 37.9448 28.0643 37.9629 28.2777C37.992 28.6189 38.0411 28.9583 38.0702 29.2995C38.1083 29.7957 38.1283 30.2829 38.1574 30.7791C38.2065 31.383 38.2828 31.976 38.2646 32.5799C38.2555 32.8426 38.2646 33.1144 38.3137 33.3772C38.3809 33.795 38.4791 34.2036 38.5663 34.6123C38.5663 34.6324 38.6154 34.6506 38.6445 34.6707C38.6644 34.6506 38.7117 34.6324 38.7117 34.6032C38.7117 34.4663 38.7026 34.3204 38.7026 34.1854C38.7026 33.7384 38.7226 33.2804 38.7226 32.8335V31.9376C38.7226 31.4505 38.7226 30.9743 38.7317 30.4872C38.7608 29.845 38.8098 29.2027 38.848 28.5605C38.8862 27.8599 38.9062 27.1684 38.9352 26.4679C38.9352 26.2544 38.9643 26.0391 38.9643 25.8256C38.9643 25.2619 38.9734 24.6872 38.9843 24.1234C38.9843 23.7239 38.9934 23.3353 38.9934 22.9357C38.9934 22.2844 38.9734 21.6312 38.9734 20.9799V19.1207C38.9734 18.9747 38.9352 18.8197 38.9443 18.6737C38.9534 18.1574 38.9825 17.6429 38.9934 17.1357C38.9934 16.7471 39.0025 16.3676 38.9934 15.9771L38.9589 15.9534Z" fill="#50A42A"/>
<path d="M25.389 19.4169C25.389 19.0957 25.369 18.7746 25.36 18.4535C25.34 17.9482 25.3218 17.4409 25.3109 16.9356C25.3109 16.6437 25.3109 16.3609 25.3018 16.0689C25.2818 15.7387 25.2636 15.4066 25.2346 15.0764C25.2146 14.863 25.1764 14.6386 25.1564 14.4251C25.1273 14.0839 25.1182 13.7446 25.0983 13.4034C25.0983 13.3651 25.0783 13.3158 25.0601 13.2775C25.0601 13.2684 25.0219 13.2392 25.0019 13.2483C24.9638 13.2483 24.9056 13.2684 24.9056 13.2775C24.8856 13.3651 24.8674 13.4527 24.8765 13.5402C24.9347 14.2791 24.9347 15.0199 24.8184 15.7679C24.7602 16.1182 24.7112 16.4594 24.693 16.8097C24.6439 17.4902 24.5476 18.1726 24.4804 18.8531C24.4422 19.1742 24.4022 19.4953 24.384 19.8164C24.364 20.1174 24.364 20.4294 24.355 20.7305H24.335C24.3259 20.8472 24.3059 20.9549 24.2968 21.0716C24.2877 21.3836 24.2877 21.7047 24.2768 22.0149V22.4327C24.2768 22.7447 24.2859 23.0658 24.2768 23.3759C24.2768 23.8521 24.2477 24.3392 24.2386 24.8154C24.2386 25.2441 24.2877 25.6711 24.2386 26.0998V26.2257C24.2586 26.7019 24.2677 27.189 24.2877 27.6652C24.3077 28.083 24.3259 28.5026 24.355 28.9204C24.364 29.0956 24.3749 29.2707 24.3931 29.4459C24.4222 29.7287 24.4713 30.0005 24.5003 30.2833C24.5385 30.6829 24.5585 31.0806 24.5876 31.4893C24.6366 31.9764 24.713 32.4617 24.6948 32.958C24.6857 33.1714 24.6948 33.3958 24.7439 33.6093C24.8111 33.9505 24.9093 34.2807 24.9965 34.6109C24.9965 34.631 25.0456 34.6401 25.0746 34.6602C25.0946 34.6401 25.1419 34.6219 25.1419 34.6109C25.1419 34.4941 25.1328 34.3865 25.1328 34.2697C25.1328 33.8994 25.1528 33.5399 25.1528 33.1696V32.4398C25.1528 32.0512 25.1528 31.6516 25.1619 31.263C25.1909 30.7376 25.24 30.2212 25.2782 29.6958C25.3163 29.132 25.3363 28.5573 25.3654 27.9936C25.3654 27.8184 25.3945 27.6433 25.3945 27.4681C25.3945 27.0011 25.4036 26.5431 25.4145 26.076C25.4145 25.7549 25.4236 25.4338 25.4236 25.1036C25.4236 24.569 25.4036 24.0436 25.4036 23.5072V21.9892C25.4036 21.8633 25.3654 21.7466 25.3745 21.6189C25.3836 21.2011 25.4127 20.7814 25.4236 20.3636C25.4236 20.0516 25.4327 19.7305 25.4236 19.4204L25.389 19.4169Z" fill="#50A42A"/>
<path d="M35.5658 15.4664C35.5658 15.4664 35.5458 15.4372 35.5367 15.4171C35.5167 15.3971 35.4985 15.3679 35.4876 15.3496C35.4876 15.3405 35.4876 15.3204 35.4786 15.3113C35.4586 15.2912 35.4404 15.2821 35.4113 15.262C35.3913 15.2529 35.3532 15.242 35.3332 15.2329C35.3041 15.2128 35.295 15.2037 35.275 15.1836H35.2368H35.1787H35.0824C35.0624 15.1836 35.0442 15.1836 35.0533 15.1927C35.1115 15.2219 35.1115 15.2602 34.9951 15.2894C34.937 15.3095 34.8879 15.3186 34.8697 15.3387C34.8207 15.3679 34.7244 15.3971 34.6571 15.4354C34.6189 15.4554 34.579 15.4646 34.5608 15.4846C34.5408 15.4938 34.5408 15.5138 34.5317 15.5229H34.5117C34.5117 15.5229 34.4826 15.5321 34.4736 15.543C34.4645 15.5521 34.4645 15.5722 34.4536 15.5813V15.6014C34.4536 15.6105 34.4627 15.6306 34.4536 15.6397C34.4536 15.6598 34.4245 15.678 34.4154 15.7072C34.4154 15.7273 34.4645 15.7455 34.4154 15.7656C34.4354 15.7857 34.4445 15.8039 34.4645 15.8331C34.4845 15.8532 34.5026 15.8714 34.5317 15.8915C34.5408 15.8915 34.5517 15.9116 34.5699 15.9116C34.599 15.9207 34.648 15.9407 34.6771 15.9499C34.7153 15.9699 34.7353 15.9882 34.7643 16.0083C34.8134 16.0283 34.8897 16.0575 34.8716 16.0758C34.8625 16.0849 34.8716 16.0958 34.9206 16.105C34.9879 16.125 35.086 16.1341 35.1732 16.1542H35.2514H35.3186C35.3186 16.1542 35.3095 16.1451 35.3095 16.1341C35.3095 16.1141 35.3295 16.105 35.3295 16.0849V16.0557C35.3295 16.0356 35.3295 16.0174 35.3386 16.0064C35.3677 15.9864 35.4168 15.9572 35.4549 15.9389C35.4931 15.9097 35.5131 15.8897 35.5422 15.8605L35.5712 15.8404C35.5712 15.8203 35.5803 15.8021 35.5912 15.782C35.5912 15.7619 35.6003 15.7528 35.6003 15.7328C35.6003 15.7127 35.5803 15.6835 35.5803 15.6653V15.5977C35.5803 15.5977 35.5422 15.5886 35.5513 15.5777C35.5603 15.5576 35.5894 15.5394 35.6003 15.5193C35.6003 15.5102 35.6094 15.4901 35.6003 15.481L35.5658 15.4664Z" fill="#50A42A"/>
<path d="M35.5658 20.3316C35.5658 20.3316 35.5458 20.3024 35.5367 20.2824C35.5167 20.2623 35.4985 20.2331 35.4876 20.2149C35.4876 20.2057 35.4876 20.1857 35.4786 20.1765C35.4586 20.1565 35.4404 20.1474 35.4113 20.1273C35.3913 20.1182 35.3532 20.1072 35.3332 20.0981C35.3041 20.078 35.295 20.0689 35.275 20.0488H35.2368H35.1787H35.0824C35.0624 20.0488 35.0442 20.0488 35.0533 20.0579C35.1115 20.0871 35.1115 20.1255 34.9951 20.1546C34.937 20.1747 34.8879 20.1838 34.8697 20.2039C34.8207 20.2331 34.7244 20.2623 34.6571 20.3006C34.6189 20.3207 34.579 20.3298 34.5608 20.3499C34.5408 20.359 34.5408 20.3791 34.5317 20.3882H34.5117C34.5117 20.3882 34.4826 20.3973 34.4736 20.4082C34.4645 20.4174 34.4645 20.4374 34.4536 20.4466V20.4666C34.4536 20.4758 34.4627 20.4958 34.4536 20.5049C34.4536 20.525 34.4245 20.5433 34.4154 20.5724C34.4154 20.5925 34.4645 20.6108 34.4154 20.6308C34.4354 20.6509 34.4445 20.6691 34.4645 20.6983C34.4845 20.7184 34.5026 20.7367 34.5317 20.7567C34.5408 20.7567 34.5517 20.7768 34.5699 20.7768C34.599 20.7859 34.648 20.806 34.6771 20.8151C34.7153 20.8352 34.7353 20.8534 34.7643 20.8735C34.8134 20.8936 34.8897 20.9227 34.8716 20.941C34.8625 20.9501 34.8716 20.9611 34.9206 20.9702C34.9879 20.9903 35.086 20.9994 35.1732 21.0194H35.2514H35.3186C35.3186 21.0194 35.3095 21.0103 35.3095 20.9994C35.3095 20.9793 35.3295 20.9702 35.3295 20.9501V20.9209C35.3295 20.9009 35.3295 20.8826 35.3386 20.8717C35.3677 20.8516 35.4168 20.8224 35.4549 20.8042C35.4931 20.775 35.5131 20.7549 35.5422 20.7257L35.5712 20.7056C35.5712 20.6856 35.5803 20.6673 35.5912 20.6473C35.5912 20.6272 35.6003 20.6181 35.6003 20.598C35.6003 20.5779 35.5803 20.5487 35.5803 20.5305V20.463C35.5803 20.463 35.5422 20.4539 35.5513 20.4429C35.5603 20.4228 35.5894 20.4046 35.6003 20.3845C35.6003 20.3754 35.6094 20.3553 35.6003 20.3462L35.5658 20.3316Z" fill="#50A42A"/>
<path d="M35.5658 25.1964C35.5658 25.1964 35.5458 25.1672 35.5367 25.1471C35.5167 25.127 35.4985 25.0978 35.4876 25.0796C35.4876 25.0705 35.4876 25.0504 35.4786 25.0413C35.4586 25.0212 35.4404 25.0121 35.4113 24.992C35.3913 24.9829 35.3532 24.972 35.3332 24.9628C35.3041 24.9428 35.295 24.9336 35.275 24.9136H35.2368H35.1787H35.0824C35.0624 24.9136 35.0442 24.9136 35.0533 24.9227C35.1115 24.9519 35.1115 24.9902 34.9951 25.0194C34.937 25.0395 34.8879 25.0486 34.8697 25.0687C34.8207 25.0978 34.7244 25.127 34.6571 25.1654C34.6189 25.1854 34.579 25.1945 34.5608 25.2146C34.5408 25.2237 34.5408 25.2438 34.5317 25.2529H34.5117C34.5117 25.2529 34.4826 25.262 34.4736 25.273C34.4645 25.2821 34.4645 25.3022 34.4536 25.3113V25.3314C34.4536 25.3405 34.4627 25.3606 34.4536 25.3697C34.4536 25.3898 34.4245 25.408 34.4154 25.4372C34.4154 25.4573 34.4645 25.4755 34.4154 25.4956C34.4354 25.5156 34.4445 25.5339 34.4645 25.5631C34.4845 25.5832 34.5026 25.6014 34.5317 25.6215C34.5408 25.6215 34.5517 25.6415 34.5699 25.6415C34.599 25.6507 34.648 25.6707 34.6771 25.6799C34.7153 25.6999 34.7353 25.7182 34.7643 25.7382C34.8134 25.7583 34.8897 25.7875 34.8716 25.8057C34.8625 25.8149 34.8716 25.8258 34.9206 25.8349C34.9879 25.855 35.086 25.8641 35.1732 25.8842H35.2514H35.3186C35.3186 25.8842 35.3095 25.8751 35.3095 25.8641C35.3095 25.8441 35.3295 25.8349 35.3295 25.8149V25.7857C35.3295 25.7656 35.3295 25.7474 35.3386 25.7364C35.3677 25.7163 35.4168 25.6871 35.4549 25.6689C35.4931 25.6397 35.5131 25.6196 35.5422 25.5905L35.5712 25.5704C35.5712 25.5503 35.5803 25.5321 35.5912 25.512C35.5912 25.4919 35.6003 25.4828 35.6003 25.4627C35.6003 25.4427 35.5803 25.4135 35.5803 25.3952V25.3277C35.5803 25.3277 35.5422 25.3186 35.5513 25.3077C35.5603 25.2876 35.5894 25.2693 35.6003 25.2493C35.6003 25.2402 35.6094 25.2201 35.6003 25.211L35.5658 25.1964Z" fill="#50A42A"/>
<path d="M35.5658 30.0626C35.5658 30.0626 35.5458 30.0334 35.5367 30.0133C35.5167 29.9932 35.4985 29.9641 35.4876 29.9458C35.4876 29.9367 35.4876 29.9166 35.4786 29.9075C35.4586 29.8874 35.4404 29.8783 35.4113 29.8582C35.3913 29.8491 35.3532 29.8382 35.3332 29.829C35.3041 29.809 35.295 29.7999 35.275 29.7798H35.2368H35.1787H35.0824C35.0624 29.7798 35.0442 29.7798 35.0533 29.7889C35.1115 29.8181 35.1115 29.8564 34.9951 29.8856C34.937 29.9057 34.8879 29.9148 34.8697 29.9349C34.8207 29.9641 34.7244 29.9932 34.6571 30.0316C34.6189 30.0516 34.579 30.0608 34.5608 30.0808C34.5408 30.0899 34.5408 30.11 34.5317 30.1191H34.5117C34.5117 30.1191 34.4826 30.1283 34.4736 30.1392C34.4645 30.1483 34.4645 30.1684 34.4536 30.1775V30.1976C34.4536 30.2067 34.4627 30.2268 34.4536 30.2359C34.4536 30.256 34.4245 30.2742 34.4154 30.3034C34.4154 30.3235 34.4645 30.3417 34.4154 30.3618C34.4354 30.3819 34.4445 30.4001 34.4645 30.4293C34.4845 30.4494 34.5026 30.4676 34.5317 30.4877C34.5408 30.4877 34.5517 30.5077 34.5699 30.5077C34.599 30.5169 34.648 30.5369 34.6771 30.5461C34.7153 30.5661 34.7353 30.5844 34.7643 30.6044C34.8134 30.6245 34.8897 30.6537 34.8716 30.672C34.8625 30.6811 34.8716 30.692 34.9206 30.7011C34.9879 30.7212 35.086 30.7303 35.1732 30.7504H35.2514H35.3186C35.3186 30.7504 35.3095 30.7413 35.3095 30.7303C35.3095 30.7103 35.3295 30.7011 35.3295 30.6811V30.6519C35.3295 30.6318 35.3295 30.6136 35.3386 30.6026C35.3677 30.5826 35.4168 30.5534 35.4549 30.5351C35.4931 30.5059 35.5131 30.4859 35.5422 30.4567L35.5712 30.4366C35.5712 30.4165 35.5803 30.3983 35.5912 30.3782C35.5912 30.3581 35.6003 30.349 35.6003 30.329C35.6003 30.3089 35.5803 30.2797 35.5803 30.2614V30.1939C35.5803 30.1939 35.5422 30.1848 35.5513 30.1739C35.5603 30.1538 35.5894 30.1356 35.6003 30.1155C35.6003 30.1064 35.6094 30.0863 35.6003 30.0772L35.5658 30.0626Z" fill="#50A42A"/>
<path d="M28.7816 17.4127C28.7816 17.4127 28.7616 17.3835 28.7525 17.3634C28.7325 17.3433 28.7144 17.3142 28.7035 17.2959C28.7035 17.2868 28.7035 17.2667 28.6944 17.2576C28.6744 17.2375 28.6562 17.2284 28.6271 17.2083C28.6071 17.1992 28.569 17.1883 28.549 17.1791C28.5199 17.1591 28.5108 17.15 28.4908 17.1299H28.4527H28.3945H28.2982C28.2782 17.1299 28.26 17.1299 28.2691 17.139C28.3273 17.1682 28.3273 17.2065 28.211 17.2357C28.1528 17.2558 28.1037 17.2649 28.0856 17.285C28.0365 17.3142 27.9402 17.3433 27.8729 17.3817C27.8348 17.4017 27.7948 17.4108 27.7766 17.4309C27.7566 17.44 27.7566 17.4601 27.7475 17.4692H27.7275C27.7275 17.4692 27.6985 17.4784 27.6894 17.4893C27.6803 17.4984 27.6803 17.5185 27.6694 17.5276V17.5477C27.6694 17.5568 27.6785 17.5769 27.6694 17.586C27.6694 17.6061 27.6403 17.6243 27.6312 17.6535C27.6312 17.6736 27.6803 17.6918 27.6312 17.7119C27.6512 17.732 27.6603 17.7502 27.6803 17.7794C27.7003 17.7995 27.7185 17.8177 27.7475 17.8378C27.7566 17.8378 27.7675 17.8578 27.7857 17.8578C27.8148 17.867 27.8638 17.887 27.8929 17.8962C27.9311 17.9162 27.9511 17.9345 27.9802 17.9545C28.0292 17.9746 28.1056 18.0038 28.0874 18.022C28.0783 18.0312 28.0874 18.0421 28.1365 18.0512C28.2037 18.0713 28.3018 18.0804 28.3891 18.1005H28.4672H28.5345C28.5345 18.1005 28.5254 18.0914 28.5254 18.0804C28.5254 18.0604 28.5454 18.0512 28.5454 18.0312V18.002C28.5454 17.9819 28.5454 17.9637 28.5544 17.9527C28.5835 17.9326 28.6326 17.9035 28.6708 17.8852C28.7089 17.856 28.7289 17.8359 28.758 17.8068L28.7871 17.7867C28.7871 17.7666 28.7962 17.7484 28.8071 17.7283C28.8071 17.7082 28.8161 17.6991 28.8161 17.679C28.8161 17.659 28.7962 17.6298 28.7962 17.6115V17.544C28.7962 17.544 28.758 17.5349 28.7671 17.524C28.7762 17.5039 28.8052 17.4857 28.8161 17.4656C28.8161 17.4565 28.8252 17.4364 28.8161 17.4273L28.7816 17.4127Z" fill="#50A42A"/>
<path d="M28.7816 22.2769C28.7816 22.2769 28.7616 22.2477 28.7525 22.2277C28.7325 22.2076 28.7144 22.1784 28.7035 22.1602C28.7035 22.151 28.7035 22.131 28.6944 22.1219C28.6744 22.1018 28.6562 22.0927 28.6271 22.0726C28.6071 22.0635 28.569 22.0525 28.549 22.0434C28.5199 22.0233 28.5108 22.0142 28.4908 21.9941H28.4527H28.3945H28.2982C28.2782 21.9941 28.26 21.9941 28.2691 22.0033C28.3273 22.0325 28.3273 22.0708 28.211 22.1C28.1528 22.12 28.1037 22.1292 28.0856 22.1492C28.0365 22.1784 27.9402 22.2076 27.8729 22.2459C27.8348 22.266 27.7948 22.2751 27.7766 22.2952C27.7566 22.3043 27.7566 22.3244 27.7475 22.3335H27.7275C27.7275 22.3335 27.6985 22.3426 27.6894 22.3536C27.6803 22.3627 27.6803 22.3828 27.6694 22.3919V22.4119C27.6694 22.4211 27.6785 22.4411 27.6694 22.4503C27.6694 22.4703 27.6403 22.4886 27.6312 22.5178C27.6312 22.5378 27.6803 22.5561 27.6312 22.5761C27.6512 22.5962 27.6603 22.6145 27.6803 22.6437C27.7003 22.6637 27.7185 22.682 27.7475 22.702C27.7566 22.702 27.7675 22.7221 27.7857 22.7221C27.8148 22.7312 27.8638 22.7513 27.8929 22.7604C27.9311 22.7805 27.9511 22.7987 27.9802 22.8188C28.0292 22.8389 28.1056 22.8681 28.0874 22.8863C28.0783 22.8954 28.0874 22.9064 28.1365 22.9155C28.2037 22.9356 28.3018 22.9447 28.3891 22.9648H28.4672H28.5345C28.5345 22.9648 28.5254 22.9556 28.5254 22.9447C28.5254 22.9246 28.5454 22.9155 28.5454 22.8954V22.8662C28.5454 22.8462 28.5454 22.8279 28.5544 22.817C28.5835 22.7969 28.6326 22.7677 28.6708 22.7495C28.7089 22.7203 28.7289 22.7002 28.758 22.671L28.7871 22.6509C28.7871 22.6309 28.7962 22.6126 28.8071 22.5926C28.8071 22.5725 28.8161 22.5634 28.8161 22.5433C28.8161 22.5232 28.7962 22.494 28.7962 22.4758V22.4083C28.7962 22.4083 28.758 22.3992 28.7671 22.3882C28.7762 22.3682 28.8052 22.3499 28.8161 22.3298C28.8161 22.3207 28.8252 22.3006 28.8161 22.2915L28.7816 22.2769Z" fill="#50A42A"/>
<path d="M28.7816 27.1431C28.7816 27.1431 28.7616 27.114 28.7525 27.0939C28.7325 27.0738 28.7144 27.0446 28.7035 27.0264C28.7035 27.0173 28.7035 26.9972 28.6944 26.9881C28.6744 26.968 28.6562 26.9589 28.6271 26.9388C28.6071 26.9297 28.569 26.9187 28.549 26.9096C28.5199 26.8895 28.5108 26.8804 28.4908 26.8604H28.4527H28.3945H28.2982C28.2782 26.8604 28.26 26.8604 28.2691 26.8695C28.3273 26.8987 28.3273 26.937 28.211 26.9662C28.1528 26.9862 28.1037 26.9954 28.0856 27.0154C28.0365 27.0446 27.9402 27.0738 27.8729 27.1121C27.8348 27.1322 27.7948 27.1413 27.7766 27.1614C27.7566 27.1705 27.7566 27.1906 27.7475 27.1997H27.7275C27.7275 27.1997 27.6985 27.2088 27.6894 27.2198C27.6803 27.2289 27.6803 27.249 27.6694 27.2581V27.2782C27.6694 27.2873 27.6785 27.3073 27.6694 27.3165C27.6694 27.3365 27.6403 27.3548 27.6312 27.384C27.6312 27.404 27.6803 27.4223 27.6312 27.4424C27.6512 27.4624 27.6603 27.4807 27.6803 27.5099C27.7003 27.5299 27.7185 27.5482 27.7475 27.5682C27.7566 27.5682 27.7675 27.5883 27.7857 27.5883C27.8148 27.5974 27.8638 27.6175 27.8929 27.6266C27.9311 27.6467 27.9511 27.6649 27.9802 27.685C28.0292 27.7051 28.1056 27.7343 28.0874 27.7525C28.0783 27.7616 28.0874 27.7726 28.1365 27.7817C28.2037 27.8018 28.3018 27.8109 28.3891 27.831H28.4672H28.5345C28.5345 27.831 28.5254 27.8218 28.5254 27.8109C28.5254 27.7908 28.5454 27.7817 28.5454 27.7616V27.7324C28.5454 27.7124 28.5454 27.6941 28.5544 27.6832C28.5835 27.6631 28.6326 27.6339 28.6708 27.6157C28.7089 27.5865 28.7289 27.5664 28.758 27.5372L28.7871 27.5172C28.7871 27.4971 28.7962 27.4788 28.8071 27.4588C28.8071 27.4387 28.8161 27.4296 28.8161 27.4095C28.8161 27.3894 28.7962 27.3603 28.7962 27.342V27.2745C28.7962 27.2745 28.758 27.2654 28.7671 27.2544C28.7762 27.2344 28.8052 27.2161 28.8161 27.1961C28.8161 27.1869 28.8252 27.1669 28.8161 27.1577L28.7816 27.1431Z" fill="#50A42A"/>
<path d="M28.7816 32.0089C28.7816 32.0089 28.7616 31.9797 28.7525 31.9596C28.7325 31.9395 28.7144 31.9103 28.7035 31.8921C28.7035 31.883 28.7035 31.8629 28.6944 31.8538C28.6744 31.8337 28.6562 31.8246 28.6271 31.8045C28.6071 31.7954 28.569 31.7845 28.549 31.7753C28.5199 31.7553 28.5108 31.7461 28.4908 31.7261H28.4527H28.3945H28.2982C28.2782 31.7261 28.26 31.7261 28.2691 31.7352C28.3273 31.7644 28.3273 31.8027 28.211 31.8319C28.1528 31.852 28.1037 31.8611 28.0856 31.8812C28.0365 31.9103 27.9402 31.9395 27.8729 31.9779C27.8348 31.9979 27.7948 32.007 27.7766 32.0271C27.7566 32.0362 27.7566 32.0563 27.7475 32.0654H27.7275C27.7275 32.0654 27.6985 32.0745 27.6894 32.0855C27.6803 32.0946 27.6803 32.1147 27.6694 32.1238V32.1439C27.6694 32.153 27.6785 32.1731 27.6694 32.1822C27.6694 32.2023 27.6403 32.2205 27.6312 32.2497C27.6312 32.2698 27.6803 32.288 27.6312 32.3081C27.6512 32.3281 27.6603 32.3464 27.6803 32.3756C27.7003 32.3957 27.7185 32.4139 27.7475 32.434C27.7566 32.434 27.7675 32.454 27.7857 32.454C27.8148 32.4632 27.8638 32.4832 27.8929 32.4924C27.9311 32.5124 27.9511 32.5307 27.9802 32.5507C28.0292 32.5708 28.1056 32.6 28.0874 32.6182C28.0783 32.6274 28.0874 32.6383 28.1365 32.6474C28.2037 32.6675 28.3018 32.6766 28.3891 32.6967H28.4672H28.5345C28.5345 32.6967 28.5254 32.6876 28.5254 32.6766C28.5254 32.6566 28.5454 32.6474 28.5454 32.6274V32.5982C28.5454 32.5781 28.5454 32.5599 28.5544 32.5489C28.5835 32.5288 28.6326 32.4996 28.6708 32.4814C28.7089 32.4522 28.7289 32.4321 28.758 32.403L28.7871 32.3829C28.7871 32.3628 28.7962 32.3446 28.8071 32.3245C28.8071 32.3044 28.8161 32.2953 28.8161 32.2752C28.8161 32.2552 28.7962 32.226 28.7962 32.2077V32.1402C28.7962 32.1402 28.758 32.1311 28.7671 32.1202C28.7762 32.1001 28.8052 32.0818 28.8161 32.0618C28.8161 32.0527 28.8252 32.0326 28.8161 32.0235L28.7816 32.0089Z" fill="#50A42A"/>
<path d="M21.996 20.3316C21.996 20.3316 21.976 20.3024 21.9669 20.2824C21.9469 20.2623 21.9287 20.2331 21.9178 20.2149C21.9178 20.2057 21.9178 20.1857 21.9087 20.1765C21.8887 20.1565 21.8706 20.1474 21.8415 20.1273C21.8215 20.1182 21.7833 20.1072 21.7633 20.0981C21.7343 20.078 21.7252 20.0689 21.7052 20.0488H21.667H21.6089H21.5125C21.4926 20.0488 21.4744 20.0488 21.4835 20.0579C21.5416 20.0871 21.5416 20.1255 21.4253 20.1546C21.3672 20.1747 21.3181 20.1838 21.2999 20.2039C21.2508 20.2331 21.1545 20.2623 21.0873 20.3006C21.0491 20.3207 21.0091 20.3298 20.991 20.3499C20.971 20.359 20.971 20.3791 20.9619 20.3882H20.9419C20.9419 20.3882 20.9128 20.3973 20.9037 20.4082C20.8946 20.4174 20.8946 20.4374 20.8837 20.4466V20.4666C20.8837 20.4758 20.8928 20.4958 20.8837 20.5049C20.8837 20.525 20.8547 20.5433 20.8456 20.5724C20.8456 20.5925 20.8947 20.6108 20.8456 20.6308C20.8656 20.6509 20.8747 20.6691 20.8946 20.6983C20.9146 20.7184 20.9328 20.7367 20.9619 20.7567C20.971 20.7567 20.9819 20.7768 21.0001 20.7768C21.0291 20.7859 21.0782 20.806 21.1073 20.8151C21.1454 20.8352 21.1654 20.8534 21.1945 20.8735C21.2436 20.8936 21.3199 20.9227 21.3017 20.941C21.2927 20.9501 21.3017 20.9611 21.3508 20.9702C21.418 20.9903 21.5162 20.9994 21.6034 21.0194H21.6816H21.7488C21.7488 21.0194 21.7397 21.0103 21.7397 20.9994C21.7397 20.9793 21.7597 20.9702 21.7597 20.9501V20.9209C21.7597 20.9009 21.7597 20.8826 21.7688 20.8717C21.7979 20.8516 21.8469 20.8224 21.8851 20.8042C21.9233 20.775 21.9433 20.7549 21.9723 20.7257L22.0014 20.7056C22.0014 20.6856 22.0105 20.6673 22.0214 20.6473C22.0214 20.6272 22.0305 20.6181 22.0305 20.598C22.0305 20.5779 22.0105 20.5487 22.0105 20.5305V20.463C22.0105 20.463 21.9723 20.4539 21.9814 20.4429C21.9905 20.4228 22.0196 20.4046 22.0305 20.3845C22.0305 20.3754 22.0396 20.3553 22.0305 20.3462L21.996 20.3316Z" fill="#50A42A"/>
<path d="M39.0844 0.0241241H38.3374C38.3374 0.0241241 38.2411 0.0533156 38.192 0.0533156C38.0376 0.0332464 37.8631 0.0241241 37.7068 0.00405432C37.5905 0.00405432 37.4651 -0.0050679 37.3488 0.00405432C37.2325 0.00405432 37.0962 0.0241236 36.9798 0.0332458C36.7854 0.0533151 36.5818 0.0715596 36.3983 0.0825071C36.2911 0.0825071 36.1748 0.082507 36.0694 0.0916293C35.944 0.111699 35.8167 0.129943 35.6913 0.159134C35.6041 0.179203 35.526 0.217517 35.4387 0.237587C35.2933 0.257656 35.1861 0.2759 35.0407 0.29597C35.0207 0.29597 35.0116 0.316039 34.9917 0.334284C34.9917 0.334284 34.9826 0.372598 34.9826 0.392667C34.9826 0.430981 34.9826 0.489363 34.9917 0.489363C35.0207 0.509432 35.0589 0.527676 35.088 0.518554C35.3697 0.460171 35.6605 0.460171 35.9403 0.576937C36.0766 0.63532 36.2111 0.684582 36.3383 0.702825C36.6 0.752086 36.8617 0.848783 37.1234 0.916287C37.2488 0.954602 37.376 0.99474 37.4923 1.01298C37.6086 1.03305 37.7249 1.03305 37.8413 1.04217V1.06224C37.8413 1.06224 37.9285 1.10056 37.9776 1.10056C38.0848 1.10056 38.172 1.10968 38.2683 1.12063L37.6959 1.62599L36.998 2.25909C36.62 2.60027 36.251 2.93961 35.873 3.26071C35.3587 3.66939 34.8262 4.10727 34.3028 4.52506C33.7413 4.99212 33.1779 5.45918 32.6254 5.91714C32.4509 6.0631 32.2765 6.20905 32.1111 6.34589L30.7735 7.52266L29.843 8.34913L29.5432 8.62097C29.4759 8.68848 29.505 8.65929 29.4941 8.67023L29.2324 8.58266L28.6418 8.38744L26.8008 7.76531C26.6554 7.71605 26.49 7.69781 26.3447 7.64855C25.8413 7.46428 25.336 7.27818 24.8326 7.09391C24.4546 6.96802 24.0766 6.83118 23.6986 6.7053L23.1952 7.11398C22.8844 7.3767 22.5646 7.64853 22.2447 7.91126C21.7504 8.32906 21.2561 8.7487 20.7617 9.16649C20.471 9.40002 20.2002 9.63355 19.9094 9.86709C19.5987 10.1389 19.2897 10.4308 18.9589 10.7227C18.7645 10.907 18.5428 11.1223 18.3574 11.3066C18.0284 11.5985 17.7086 11.8813 17.3778 12.1732C17.3778 12.1732 17.3687 12.1933 17.3578 12.1933H17.2706C16.8253 12.155 16.3892 11.9889 16.0202 11.7171C15.7495 11.5128 15.3715 11.1534 14.9062 11.0256C14.441 10.8997 13.9848 10.8888 13.5196 11.0256C12.8708 11.1917 12.4437 11.7061 12.0657 11.9105C11.6968 12.1349 11.2134 12.1349 10.8063 12.0272C10.3701 11.9305 10.0993 11.5018 9.4687 11.084C9.15793 10.8888 8.77083 10.783 8.4219 10.7538C8.07297 10.7246 7.70403 10.7538 7.33696 10.8797C6.8808 11.0347 6.53186 11.3467 6.28109 11.5511C6.10662 11.6879 5.96124 11.7937 5.81585 11.8521C5.60322 11.9306 5.27244 11.978 5.05983 11.9306C4.75997 11.8631 4.64366 11.8722 3.81856 11.4343C3.53687 11.2792 3.23701 11.0749 2.89715 10.8213L2.43191 11.1424C2.43191 11.1424 2.33559 11.2208 2.29561 11.25L1.99574 11.5036C2.15022 11.8448 2.34467 12.2042 2.51914 12.5545L2.85899 13.1092C2.95531 13.2752 3.12068 13.5379 3.16975 13.5853C3.44054 13.974 3.72223 14.3352 4.00393 14.6946C4.67272 15.5211 5.30336 16.3093 5.79768 17.1759C5.86492 17.2835 5.92307 17.3894 5.99213 17.497H5.32335C5.04166 17.5171 4.7618 17.5755 4.48917 17.6922C3.48052 18.0808 2.80266 19.2011 2.92805 20.2812C2.95712 20.5439 3.06435 20.7865 3.16067 21.02C3.50051 21.8465 4.3147 22.4504 5.21611 22.5289C5.3615 22.5289 5.4978 22.538 5.6232 22.538C5.53596 22.6165 5.42874 22.684 5.34151 22.7716C4.7218 23.3262 4.12024 23.91 3.56777 24.5431C2.52097 25.7309 1.61049 27.0737 0.979858 28.5515C0.83447 28.9109 0.738151 29.2904 0.601849 29.6516C0.194762 30.927 -0.00878181 32.2698 0.000290419 33.6126C0.0293681 34.6252 0.203834 35.6268 0.503683 36.5901C0.658157 37.0864 0.843528 37.5625 1.06523 38.0296C1.31784 38.5642 1.71401 39.0312 2.19019 39.3724C2.5682 39.6351 2.99529 39.8194 3.44053 39.9179C3.89668 40.0256 4.351 39.9964 4.71087 39.9964L7.01708 39.9672C7.88941 39.9672 8.76173 39.9672 9.64314 39.9581C10.6408 39.938 11.6495 39.9088 12.6581 39.8906C13.3179 39.8614 13.9866 39.8413 14.6354 39.8121C15.6731 39.792 16.6999 39.7738 17.7377 39.7537C17.8631 39.7537 17.9994 39.7337 18.1248 39.7154C18.1629 39.7154 18.232 39.6771 18.2211 39.657C18.2011 39.6187 18.1629 39.5603 18.1138 39.5603C17.8521 39.5403 17.5904 39.522 17.3287 39.5312C15.0698 39.5895 12.8217 39.5895 10.5734 39.4728C9.51756 39.4144 8.45983 39.3651 7.40397 39.3469C5.43576 39.1626 2.906 39.7464 2.01553 37.8782C1.63752 37.0608 1.36675 36.0975 1.21043 35.1835C1.04505 34.3077 1.02688 33.4119 1.07413 32.5179H1.09412C1.11411 32.1877 1.21043 31.8666 1.24859 31.5455C1.38489 30.6497 1.67567 29.7739 2.03369 28.9274C2.21724 28.568 2.36263 28.1775 2.57709 27.8382C3.01326 27.0299 3.55666 26.2819 4.13821 25.5613C5.05962 24.4903 6.12456 23.527 7.26952 22.7096L7.52214 22.5344H7.57121H7.81291L8.78155 22.5253C9.43033 22.5253 10.081 22.5253 10.7298 22.5454H11.1278L13.3176 22.5253H14.4135L14.9279 22.5053H14.9478L15.1314 22.622C16.14 23.3226 17.0887 24.1309 17.9319 25.0358C18.2899 25.4062 18.6207 25.8039 18.9496 26.2035C19.464 26.8457 19.9474 27.5171 20.3363 28.256C20.9178 29.2978 21.2868 30.4453 21.4994 31.6221C21.7611 33.0434 21.7811 34.5504 21.3631 35.9716C21.1795 36.6047 20.976 37.236 20.7434 37.8399C20.3745 38.774 19.4549 39.5038 18.379 39.6407C18.3209 39.6407 18.2718 39.699 18.2246 39.7282C18.2827 39.7483 18.3409 39.7957 18.399 39.7866C18.777 39.7666 19.146 39.6607 19.4949 39.5148C20.0565 39.2721 20.5617 38.8726 20.8997 38.3471C21.2395 37.8016 21.4031 37.2871 21.6066 36.7416C21.703 36.4588 21.772 36.1778 21.8393 35.8859H21.9174C22.2173 35.8859 22.528 35.906 22.8279 35.906H23.4385C23.7675 35.906 24.0873 35.906 24.4181 35.9151C24.8542 35.9443 25.2813 35.9936 25.7175 36.0319C26.1827 36.0702 26.6571 36.0903 27.1223 36.1195C27.2677 36.1195 27.4131 36.1486 27.5585 36.1486C27.9456 36.1486 28.3236 36.1578 28.7125 36.1687C28.9833 36.1687 29.245 36.1778 29.5176 36.1687C29.9629 36.1687 30.399 36.1486 30.8461 36.1486H32.1055C32.2018 36.1486 32.3091 36.1103 32.4054 36.1195C32.7543 36.1286 33.1032 36.1578 33.4431 36.1687C33.7048 36.1687 33.9665 36.1778 34.2282 36.1687C34.499 36.1687 34.7607 36.1486 35.0333 36.1395C35.4495 36.1195 35.8765 36.1012 36.2927 36.0903C36.5344 36.0903 36.767 36.0903 37.0106 36.0811C37.2814 36.0611 37.5631 36.0428 37.8338 36.0136C38.0174 35.9936 38.1918 35.9553 38.3772 35.9352C38.6589 35.906 38.9388 35.8969 39.2205 35.8768C39.2586 35.8768 39.2877 35.8567 39.3277 35.8385C39.3368 35.8385 39.3568 35.8002 39.3568 35.7801C39.3568 35.7418 39.3368 35.6834 39.3277 35.6834C39.2605 35.6633 39.1823 35.6451 39.1151 35.6542C38.5044 35.7126 37.8847 35.7126 37.2741 35.5958C36.9833 35.5374 36.7016 35.4882 36.4109 35.4699C35.8493 35.4207 35.2859 35.324 34.7244 35.2565C34.4536 35.2182 34.1919 35.178 33.9192 35.1598C33.6666 35.1397 33.4159 35.1397 33.1632 35.1306V35.1105C33.0669 35.1014 32.9797 35.0722 32.8815 35.0722C32.6198 35.0631 32.3581 35.0631 32.0964 35.0521H31.7475C31.4858 35.0521 31.2241 35.0613 30.9624 35.0521C30.5644 35.0521 30.1682 35.023 29.7702 35.0138C29.4122 35.0138 29.0633 35.0631 28.7034 35.0138H28.5962C28.1982 35.0339 27.802 35.043 27.404 35.0631C27.0551 35.0832 26.7062 35.1014 26.3663 35.1306C26.2209 35.1397 26.0755 35.1507 25.9301 35.1689C25.6975 35.1981 25.4649 35.2474 25.2413 35.2766C24.9124 35.3149 24.5726 35.3349 24.2436 35.3641C23.8365 35.4134 23.4385 35.49 23.0314 35.4718C22.8479 35.4627 22.6734 35.4718 22.488 35.521C22.2936 35.5703 22.11 35.6287 21.9156 35.6962C22.0028 35.3076 22.07 34.9171 22.1191 34.5285C22.2736 33.3025 22.1682 32.0564 21.9537 30.8504C21.6339 29.2358 20.9851 27.6977 20.0928 26.3257C19.1332 24.8278 17.9119 23.5142 16.5453 22.3849C16.5071 22.3557 16.4671 22.3265 16.429 22.2882C16.5453 22.2882 16.6707 22.2882 16.787 22.279C16.8542 22.279 16.9324 22.259 16.9996 22.2407C17.0196 22.2407 17.0578 22.2024 17.0578 22.1823C17.0578 22.144 17.0287 22.0856 16.9996 22.0856C16.8542 22.0656 16.7179 22.0473 16.5725 22.0565H16.1364C16.0582 21.9981 15.9819 21.9306 15.9038 21.8722L15.5639 21.6186C15.4567 21.5602 15.3604 21.4434 15.235 21.4343H14.8951L10.6789 21.4142H7.73295H7.32586C7.21864 21.3942 7.1314 21.4434 7.05508 21.5109L6.91877 21.5985C6.67707 21.5894 6.42445 21.5693 6.19183 21.5602C5.93922 21.5602 5.68844 21.5511 5.43581 21.5401C5.24136 21.5401 5.04872 21.4909 4.87427 21.4234V21.4033C4.75796 21.3358 4.65073 21.2482 4.54533 21.1606C4.25455 20.918 4.07101 20.5567 4.04193 20.1772C4.02194 20.0112 4.04193 19.8361 4.091 19.681C4.18732 19.3216 4.43085 18.9895 4.76886 18.8143C4.89426 18.7468 5.03056 18.7067 5.17595 18.6775C5.31225 18.6483 5.44673 18.6574 5.67027 18.6684L6.86245 18.6885C7.56939 18.6885 8.27818 18.6392 8.98512 18.6885H9.19775H9.43037H10.8933C11.5621 18.6793 12.2309 18.6684 12.8997 18.6593L14.4699 18.6301H15.2841L15.653 18.61H15.8365H15.9238C15.9437 18.5899 15.9528 18.5516 15.9619 18.5316L16.011 18.4239C16.3109 18.4148 16.6016 18.3947 16.8924 18.3856C17.2213 18.3655 17.483 18.3856 17.7647 18.4932C18.4244 18.7268 18.9769 19.4657 18.8497 20.2447C18.8006 20.575 18.6952 20.8961 18.5098 21.1989C18.239 21.666 17.7447 22.0455 17.1432 22.1532C17.1141 22.1532 17.085 22.2115 17.0559 22.2407C17.085 22.2608 17.1232 22.3082 17.1523 22.3082C17.3649 22.3082 17.5793 22.2407 17.7829 22.1714C18.4517 21.947 18.9951 21.3923 19.2077 20.7118C19.344 20.2539 19.3331 19.7686 19.1786 19.3197C18.9842 18.7359 18.5389 18.2688 17.9864 18.0061C18.0737 17.9569 18.1609 17.9094 18.2391 17.831C18.8588 17.218 19.5094 16.6542 20.2454 16.1871C20.5853 15.9627 20.9233 15.7401 21.2541 15.4957C21.8938 15.0195 22.5535 14.5706 23.2023 14.1145C23.513 13.9011 23.822 13.6767 24.1237 13.4522C24.3945 13.2388 24.638 13.0344 24.8997 12.8301V12.8502H24.9488L24.9688 12.8703H24.9778L25.1032 12.9195L25.3649 12.998L25.8883 13.153L26.3536 13.2899L27.4094 13.5818C27.9419 13.7478 28.4762 13.912 29.0087 14.0872C29.483 14.2331 29.9773 14.3207 30.4426 14.505C30.4917 14.525 30.5389 14.5342 30.588 14.5433L31.6729 14.8261C31.7111 15.419 31.702 16.0229 31.6057 16.6159C31.5475 16.9461 31.4985 17.2782 31.4803 17.6084C31.4312 18.2597 31.3349 18.9019 31.2677 19.5551C31.2295 19.8671 31.1895 20.1681 31.1713 20.4801C31.1513 20.772 31.1513 21.0639 31.1423 21.3559H31.1223C31.1132 21.4635 31.0932 21.5693 31.0841 21.677C31.075 21.978 31.075 22.2809 31.0641 22.5728V22.9724C31.0641 23.2734 31.0732 23.5763 31.0641 23.8682C31.0641 24.3261 31.035 24.7822 31.0259 25.2402C31.0259 25.6489 31.075 26.0575 31.0259 26.4662V26.5921C31.0459 27.0501 31.055 27.5062 31.075 27.9641C31.095 28.3637 31.1132 28.7614 31.1423 29.161C31.1513 29.327 31.1623 29.4912 31.1804 29.6572C31.2095 29.9199 31.2586 30.1918 31.2876 30.4545C31.3258 30.834 31.3458 31.2226 31.3749 31.6021C31.4239 32.0691 31.5003 32.5362 31.4821 33.0033C31.473 33.2076 31.4821 33.4211 31.5312 33.6254C31.5984 33.9465 31.6966 34.2676 31.7838 34.5887C31.7838 34.6088 31.8329 34.6179 31.8619 34.638C31.8819 34.6179 31.9292 34.6088 31.9292 34.5887C31.9292 34.4811 31.9201 34.3753 31.9201 34.2676C31.9201 33.9173 31.9401 33.567 31.9401 33.2167V32.5161C31.9401 32.1366 31.9401 31.7662 31.9492 31.3868C31.9782 30.8905 32.0273 30.3851 32.0655 29.8889C32.1036 29.3434 32.1236 28.8088 32.1527 28.2633C32.1527 28.0972 32.1818 27.933 32.1818 27.767C32.1818 27.3291 32.1909 26.8822 32.2018 26.4443C32.2018 26.1323 32.2109 25.8313 32.2109 25.5193C32.2109 25.0139 32.1909 24.5067 32.1909 23.9922V22.5417C32.1909 22.425 32.1527 22.3082 32.1618 22.1914C32.1709 21.7919 32.2 21.3942 32.2109 20.9946C32.2109 20.6935 32.22 20.3907 32.2109 20.0988C32.2109 19.7868 32.1909 19.4857 32.1818 19.1737C32.1618 18.6866 32.1436 18.2104 32.1327 17.7233C32.1327 17.4514 32.1327 17.1686 32.1236 16.8968C32.1036 16.5757 32.0855 16.2637 32.0564 15.9536C32.0364 15.7492 31.9982 15.5358 31.9782 15.3314C31.9583 15.118 31.9492 14.8936 31.9401 14.6801L32.5889 14.0963C32.9378 13.7661 33.2958 13.4249 33.6557 13.0947C33.792 12.9578 33.9373 12.8228 34.0918 12.6659C34.3154 12.4324 34.5571 12.1788 34.7606 11.9562C35.1005 11.615 35.4203 11.3049 35.7693 10.9728C36.1673 10.5641 36.5453 10.1354 36.9996 9.77596C37.2031 9.62088 37.3776 9.43478 37.543 9.2414C37.7956 8.92942 38.0282 8.6083 38.2699 8.28719C38.279 8.26712 38.2699 8.21969 38.2699 8.1905C38.2409 8.1905 38.1918 8.16131 38.1827 8.18137C38.0864 8.26895 37.9882 8.36565 37.8919 8.45322L36.9033 9.27969L36.2545 9.84344C35.9056 10.1445 35.5657 10.4473 35.2077 10.7283C34.7334 11.0877 34.2281 11.4672 33.7448 11.8376C33.2214 12.2462 32.707 12.6549 32.1836 13.0636C32.0183 13.1895 31.8547 13.3172 31.6984 13.4431L31.5148 13.5982H31.5057H31.4967L31.2931 13.5398L30.7897 13.3847L29.7048 13.0636L27.911 12.5674L26.2155 12.0802C26.0792 12.0419 25.9338 12.0309 25.7993 11.9926C25.4504 11.885 25.0924 11.7682 24.7325 11.6624C24.4908 11.8667 24.2382 12.062 23.9965 12.2663C23.7148 12.509 23.4349 12.7425 23.1623 12.976C22.8915 13.2296 22.6098 13.4814 22.3281 13.735C21.892 14.1346 21.4558 14.5323 21.0196 14.9318C20.767 15.1563 20.5253 15.3697 20.2636 15.6033C19.9928 15.866 19.7202 16.1378 19.4294 16.4115C19.264 16.5867 19.0605 16.791 18.906 16.9661C18.6152 17.2489 18.3335 17.5117 18.0428 17.7835C18.0046 17.8218 17.9846 17.862 17.9555 17.9094V17.9769C17.9555 17.9769 17.9755 17.997 17.9937 18.0061C17.8774 17.9568 17.7611 17.8984 17.6357 17.8601C17.1614 17.7525 16.7834 17.7726 16.3944 17.7525C16.618 17.3055 16.8687 16.8676 17.1414 16.448C17.4994 15.8933 17.9065 15.3478 18.3135 14.7932C18.5843 14.4228 18.8369 14.0433 19.0896 13.6547C19.4876 13.0508 19.8547 12.4086 20.1364 11.7481C20.1745 11.6606 20.1945 11.573 20.2145 11.4854C20.2145 11.4562 20.2145 11.3979 20.1945 11.3979C20.1564 11.3979 20.0873 11.3979 20.0782 11.427C19.9819 11.5821 19.8947 11.739 19.8256 11.9032C19.2059 13.3427 18.1391 14.5104 17.1214 15.6598C16.6471 16.2053 16.2109 16.7892 15.851 17.4314C15.7838 17.539 15.7347 17.6357 15.6856 17.7324C15.4439 17.7233 15.2004 17.7124 14.9678 17.7032C14.0282 17.674 13.0868 17.6448 12.1472 17.6157C11.8565 17.6065 11.5657 17.5956 11.284 17.5865L8.98685 17.5664H7.37851H7.25312C7.10773 17.2544 6.95325 16.9534 6.78787 16.6615C6.64248 16.3987 6.46802 16.1451 6.30262 15.8934C5.91553 15.3296 5.48845 14.8133 5.09044 14.3079C4.77967 13.9193 4.48888 13.5398 4.22718 13.1403C4.03272 12.8575 4.11995 12.9742 4.10178 12.9359V12.9268C4.10178 12.9268 4.08179 12.9067 4.0727 12.8885L4.10178 12.9086C4.10178 12.9086 4.12177 12.9286 4.12177 12.9377C4.34531 13.0253 4.75241 13.1512 5.13042 13.1804C5.5575 13.2005 5.88644 13.1421 6.28445 12.9852C6.75877 12.7808 7.08955 12.4305 7.34032 12.2262C7.6311 11.9835 7.86372 11.8759 8.22172 11.8558C8.57974 11.8358 8.8705 11.8942 9.16128 12.0894C9.41389 12.2444 9.68468 12.5272 10.0827 12.7316C10.7424 13.0618 11.4493 13.0436 12.089 12.81C12.5543 12.6258 12.8941 12.2645 13.174 12.0219C13.4648 11.7683 13.7756 11.6223 14.1536 11.5931C14.6188 11.5347 15.064 11.6314 15.453 11.9233C15.8401 12.2353 16.3253 12.5163 16.8287 12.6622C17.2849 12.7991 17.7883 12.779 18.2244 12.613C18.9132 12.3594 19.4366 11.8631 19.8146 11.3085C19.8346 11.2793 19.8146 11.2209 19.8146 11.1826C19.7765 11.1917 19.7183 11.1826 19.6983 11.2118C19.5529 11.3668 19.4075 11.5329 19.2331 11.6697C18.7969 12.0109 18.2935 12.2335 17.7701 12.2827C18.4589 11.6606 19.1749 11.0768 19.971 10.5896C20.349 10.3561 20.727 10.1135 21.0959 9.85073C21.8138 9.34537 22.5407 8.86733 23.2677 8.38205L23.7129 8.08101C23.7711 8.0427 23.8874 7.95512 23.9074 7.95512L23.9746 7.92593L24.0237 7.95512L24.0528 7.97519L24.1891 8.02445L24.4598 8.12115L25.0123 8.31637V8.33644C25.1377 8.39482 25.274 8.46233 25.4103 8.51159C25.7883 8.64842 26.1663 8.77431 26.5443 8.91115L27.0587 9.07717L28.2018 9.45666C28.7452 9.65188 29.2867 9.84527 29.8392 10.0405L30.4207 9.52415C30.8278 9.16473 31.2058 8.75607 31.6511 8.42398C31.7001 8.39479 31.7383 8.34553 31.7765 8.30722C32.2217 7.87847 32.6688 7.46067 33.114 7.0319C33.4921 6.66153 33.8791 6.28203 34.2681 5.90254C34.4226 5.74746 34.5679 5.59056 34.7333 5.42637C34.9659 5.16364 35.2276 4.88084 35.4603 4.62909C35.8292 4.2496 36.1781 3.8993 36.5452 3.52892C36.9814 3.07098 37.3885 2.59479 37.8737 2.19522C38.0863 2.02007 38.2808 1.81573 38.4643 1.59131C38.5806 1.45447 38.677 1.29939 38.7842 1.16256H38.8333C38.8423 1.16256 38.8423 1.19175 38.8333 1.20087C38.8333 1.20087 38.8823 1.20087 38.8333 1.22094V1.25925C38.8532 1.44352 38.8623 1.61867 38.8823 1.81389C38.9023 1.96897 38.9205 2.135 38.9496 2.30104C38.9587 2.36854 38.9696 2.43787 38.9877 2.50538C39.0168 2.61302 39.0659 2.71884 39.095 2.82649C39.1331 3.00163 39.1531 3.1184 39.1822 3.29355C39.2313 3.47782 39.3076 3.67304 39.2894 3.8573C39.2803 3.94487 39.2894 4.02332 39.3385 4.1109C39.4057 4.23678 39.5039 4.37362 39.5911 4.49951C39.5911 4.49951 39.6402 4.50863 39.6692 4.51958C39.6892 4.51958 39.7365 4.51046 39.7365 4.49951C39.7365 4.46119 39.7274 4.41193 39.7274 4.37362C39.7274 4.23678 39.7365 4.09083 39.7474 3.94487V3.66208C39.7474 3.507 39.7383 3.36104 39.7474 3.20413C39.7765 2.99979 39.8255 2.79545 39.8637 2.60022C39.8928 2.36669 39.9219 2.16235 39.9509 1.93792C39.9509 1.87042 39.98 1.80109 39.98 1.73358C39.98 1.54931 39.9891 1.36322 40 1.17895V0.44005V0.0514391C39.7292 0.0514391 39.4475 0.0605612 39.1768 0.0715078L39.0844 0.0241241Z" fill="#50A42A"/>
<path d="M12.5855 34.9754C12.8672 34.8386 13.1289 34.6543 13.3615 34.4409C13.5851 34.2365 13.7777 33.9939 13.914 33.702C13.9431 33.6345 13.9431 33.5469 13.9722 33.4776C14.0685 33.2349 14.1376 32.9722 14.1557 32.6985C14.1557 32.4942 14.1357 32.2898 14.0776 32.0946C14.0194 31.8994 13.9231 31.7151 13.8068 31.5491C13.6323 31.2863 13.4088 31.0729 13.1762 30.8977C13.0399 30.8011 12.9054 30.7025 12.76 30.635C12.5855 30.5566 12.402 30.5091 12.2166 30.4799C12.1003 30.4599 11.9749 30.4708 11.8586 30.4599H11.7913V29.7593C11.7913 29.7009 11.7532 29.6334 11.7622 29.575C11.7713 29.3615 11.8004 29.1572 11.8113 28.9419C11.8113 28.7868 11.8204 28.6299 11.8113 28.4748C11.8113 28.3088 11.7913 28.1537 11.7822 27.9877C11.7731 27.7742 11.7532 27.5589 11.7441 27.3546H11.7731C11.8404 27.3546 11.9095 27.3747 11.9858 27.3747C12.1021 27.3747 12.2184 27.3747 12.3347 27.413C12.5001 27.4622 12.6455 27.5389 12.8 27.6264C12.9835 27.7231 13.187 27.8508 13.2652 28.0552C13.2943 28.1428 13.3524 28.2212 13.4197 28.3088C13.536 28.4347 13.6523 28.5806 13.7395 28.7558C13.7395 28.7558 13.7886 28.7758 13.8177 28.785C13.8377 28.785 13.8849 28.7649 13.8849 28.7558C13.8849 28.6974 13.8649 28.6189 13.8558 28.5606C13.8268 28.3562 13.7977 28.1519 13.7104 27.9566C13.6614 27.8308 13.585 27.714 13.5069 27.6063C13.3906 27.4221 13.2252 27.2852 13.0798 27.1302C12.8763 26.9258 12.6527 26.7416 12.391 26.6047C12.1584 26.4788 11.9167 26.4004 11.655 26.342V26.3037C11.635 26.196 11.5969 26.0902 11.5769 25.9735C11.5478 25.8074 11.5387 25.6323 11.5187 25.4681C11.5187 25.448 11.4987 25.4298 11.4806 25.4097C11.4806 25.4097 11.4424 25.3896 11.4224 25.3896C11.3842 25.3896 11.3261 25.3896 11.3261 25.4097C11.3061 25.448 11.2879 25.4973 11.297 25.5356C11.3352 25.7783 11.3352 26.0319 11.297 26.2745C11.2588 26.2745 11.2298 26.2654 11.1898 26.2654C10.9281 26.2654 10.6664 26.2946 10.4047 26.353C10.2211 26.3913 10.0467 26.4496 9.87221 26.5281C9.59052 26.6649 9.32881 26.8492 9.09619 27.0627C8.87265 27.267 8.68001 27.5096 8.54371 27.8015C8.51463 27.8691 8.51463 27.9566 8.48555 28.026C8.38924 28.2686 8.32017 28.5313 8.302 28.805C8.302 29.0094 8.32199 29.2137 8.38015 29.4089C8.4383 29.6042 8.53462 29.7884 8.65093 29.9545C8.8254 30.2172 9.04894 30.4306 9.28157 30.6058C9.41787 30.7025 9.55236 30.801 9.69774 30.8685C9.87221 30.947 10.0558 30.9944 10.2411 31.0236C10.3575 31.0437 10.4829 31.0327 10.5992 31.0437H10.6573V31.1896C10.6573 31.4031 10.7064 31.6184 10.6573 31.8318V31.8993C10.6773 32.142 10.6864 32.3755 10.7064 32.62C10.7264 32.8335 10.7446 33.0378 10.7736 33.2531C10.7827 33.3407 10.7936 33.4283 10.8118 33.5158C10.8409 33.6527 10.8899 33.7986 10.919 33.9336C10.9281 34.0121 10.939 34.0796 10.9481 34.1581H10.6955C10.6282 34.1581 10.5592 34.138 10.4829 34.138C10.3665 34.138 10.2502 34.138 10.1339 34.0997C9.96854 34.0504 9.82315 33.9738 9.66868 33.8862C9.48513 33.7895 9.28158 33.6618 9.20344 33.4575C9.17436 33.3699 9.1162 33.2914 9.04896 33.2039C8.93265 33.078 8.81634 32.932 8.72911 32.7569C8.72911 32.7569 8.68004 32.7368 8.65096 32.7277C8.63097 32.7277 8.58372 32.7477 8.58372 32.7569C8.58372 32.8152 8.60371 32.8937 8.6128 32.9521C8.64188 33.1564 8.67095 33.3608 8.75819 33.556C8.80726 33.6819 8.88358 33.7987 8.96173 33.9063C9.07804 34.0906 9.24342 34.2274 9.38881 34.3825C9.59235 34.5868 9.81589 34.7711 10.0776 34.9079C10.3593 35.0539 10.6682 35.1506 10.979 35.209C11.0172 35.209 11.0572 35.209 11.0953 35.229V35.2673C11.0862 35.375 11.0953 35.4808 11.1444 35.5976C11.2116 35.7636 11.3098 35.9387 11.397 36.1029C11.397 36.1029 11.4461 36.123 11.4751 36.1321C11.4951 36.1321 11.5424 36.112 11.5424 36.1029C11.5424 36.0445 11.5333 35.9862 11.5333 35.9369C11.5333 35.7526 11.5533 35.5665 11.5533 35.3823V35.2272C11.7187 35.2181 11.8931 35.2071 12.0567 35.1779C12.2402 35.1396 12.4147 35.0812 12.5892 35.0028L12.5855 34.9754ZM10.074 30.5C9.94856 30.3741 9.83225 30.2574 9.73411 30.1406C9.52148 29.9162 9.39426 29.6243 9.3561 29.3524C9.33611 29.2265 9.33611 29.0988 9.34701 28.9821C9.34701 28.8744 9.34701 28.7686 9.367 28.6701H9.38699C9.38699 28.6701 9.43606 28.6026 9.44515 28.5624C9.47423 28.4657 9.51239 28.3672 9.56146 28.2796L9.6287 28.1538C9.68686 28.0662 9.74501 27.9695 9.83224 27.9002C9.95764 27.7834 10.123 27.7049 10.2775 27.6374C10.4138 27.5699 10.5483 27.4714 10.7227 27.4824H10.7718C10.8681 27.4532 10.9754 27.444 11.0826 27.424C11.0335 27.6867 10.9663 27.9494 10.9081 28.2121C10.87 28.3782 10.83 28.5332 10.8118 28.6993C10.7918 28.8544 10.7918 29.0003 10.7827 29.1572H10.7627C10.7536 29.2156 10.7337 29.274 10.7246 29.3233C10.7155 29.4783 10.7155 29.6352 10.7046 29.7903V30.0038C10.7046 30.1589 10.7137 30.3158 10.7046 30.4708C10.7046 30.5785 10.6955 30.6953 10.6846 30.8011C10.461 30.7628 10.2484 30.6752 10.083 30.5092L10.074 30.5ZM11.7132 34.0322C11.7132 34.0322 11.6459 34.0413 11.606 34.0523C11.626 33.9063 11.655 33.7604 11.6641 33.6144C11.7023 33.3316 11.7223 33.0506 11.7514 32.7678C11.7514 32.6803 11.7804 32.5927 11.7804 32.5051C11.7804 32.2716 11.7895 32.0381 11.8004 31.8136C11.8004 31.6476 11.8095 31.4925 11.8095 31.3265C11.8095 31.1221 11.8004 30.9178 11.7895 30.7135C12.0131 30.7518 12.2166 30.8393 12.3801 31.0054C12.5055 31.1313 12.6218 31.248 12.72 31.3648C12.9326 31.5892 13.0598 31.8811 13.098 32.153C13.118 32.2789 13.118 32.4066 13.1071 32.5233C13.1071 32.631 13.1071 32.7368 13.0871 32.8353H13.0671C13.0671 32.8353 13.018 32.9028 13.0089 32.943C12.9799 33.0397 12.9417 33.1382 12.8926 33.2258L12.8254 33.3516C12.7672 33.4392 12.7091 33.5359 12.6219 33.6052C12.4965 33.722 12.3311 33.8005 12.1766 33.868C12.0403 33.9355 11.9058 34.034 11.7313 34.023H11.6823L11.7132 34.0322Z" fill="#50A42A"/>
</svg>
