<svg width="214" height="226" viewBox="0 0 214 226" fill="none" xmlns="http://www.w3.org/2000/svg">
<path d="M192.121 0.00236947H79.205C67.2173 0.00236947 57.4708 9.74877 57.4708 21.7366V61.7186C50.1611 59.8475 41.1138 62.6131 35.4693 65.4197C33.6495 66.3244 32.8168 68.4733 33.5467 70.3752L42.4706 93.4975C35.3562 93.8881 29.6706 99.7484 29.6706 106.966C29.6706 111.212 31.6754 114.954 34.7392 117.442C19.7494 128.957 0 148.523 0 171.705C0 208.245 19.7192 226 60.2771 226C62.7549 226 65.1607 225.928 67.4842 225.794C67.8646 225.918 68.2656 226 68.6768 226H192.121C204.109 226 213.855 216.254 213.855 204.266V21.7342C213.855 9.74641 204.109 0.00236947 192.121 0.00236947ZM59.5154 72.2786C60.1014 73.2656 61.0781 73.9544 62.2089 74.16C63.3398 74.3656 64.5016 74.0778 65.3959 73.3478C67.082 71.9907 72.932 68.2279 77.6201 68.7419C78.8538 68.8756 79.9127 69.2868 80.8587 70.0168L73.4666 93.4062H50.8996L42.2944 71.1064C47.2499 69.2969 56.3486 66.9015 59.5154 72.2786ZM43.2096 101.312H48.1856H48.1958H48.2061H80.7161C83.8313 101.312 86.3603 103.851 86.3603 106.956C86.3603 110.071 83.8209 112.6 80.7161 112.6H43.2107C40.0955 112.6 37.5664 110.061 37.5664 106.956C37.5561 103.851 40.0945 101.312 43.2096 101.312ZM7.88343 171.706C7.88343 148.903 32.2598 128.781 43.8465 120.507H76.5407C90.194 130.222 112.659 149.571 112.659 171.706C112.659 203.792 96.5075 218.105 60.2778 218.105C24.0358 218.105 7.88606 203.794 7.88606 171.706H7.88343ZM205.959 204.266C205.959 211.895 199.75 218.104 192.121 218.104H97.7311C109.03 211.833 116.042 201.747 118.951 187.826L134.455 166.771L157.783 176.918C159.51 177.679 161.546 177.093 162.615 175.53L187.341 139.557V147.37C187.341 149.55 189.109 151.318 191.289 151.318C193.468 151.318 195.237 149.55 195.237 147.37V126.901V126.891V126.86C195.237 126.829 195.227 126.798 195.227 126.767C195.216 126.52 195.196 126.274 195.144 126.027C195.124 125.934 195.093 125.842 195.062 125.76C195.011 125.575 194.949 125.4 194.867 125.225C194.826 125.133 194.774 125.04 194.723 124.958C194.63 124.793 194.527 124.639 194.414 124.495C194.353 124.413 194.291 124.331 194.229 124.259C194.096 124.115 193.952 123.981 193.797 123.858C193.746 123.806 193.695 123.755 193.633 123.703C193.612 123.693 193.592 123.683 193.571 123.673C193.551 123.652 193.53 123.632 193.51 123.621C193.325 123.498 193.129 123.395 192.934 123.303C192.893 123.282 192.862 123.261 192.831 123.241C192.564 123.128 192.296 123.045 192.019 122.994C191.937 122.974 191.854 122.974 191.782 122.963C191.587 122.932 191.381 122.922 191.186 122.922C191.083 122.922 190.98 122.943 190.878 122.953C190.693 122.974 190.518 123.004 190.343 123.045C190.281 123.056 190.23 123.056 190.168 123.076L168.455 129.553C166.368 130.18 165.175 132.381 165.802 134.468C166.429 136.555 168.619 137.747 170.716 137.12L181.717 133.841L157.958 168.396L134.723 158.289C133.026 157.559 131.063 158.084 129.962 159.564L120.524 172.385C120.524 172.148 120.545 171.943 120.545 171.706C120.545 149.355 101.947 130.284 87.306 118.717C91.4287 116.393 94.256 112.024 94.256 106.955C94.256 99.8305 88.7041 94.0318 81.7131 93.5075L89.095 70.1283C89.4959 68.8741 89.2389 67.5067 88.4164 66.4786C85.8359 63.2502 82.4019 61.3279 78.4747 60.896C73.5603 60.3511 68.7796 62.1811 65.356 64.0111V21.7366C65.356 14.1082 71.5658 7.89831 79.1943 7.89831H192.111C199.739 7.89831 205.949 14.1082 205.949 21.7366L205.959 204.266Z" fill="#50A42A"/>
<path d="M68.2561 171.245C63.8866 168.983 61.4707 167.934 61.3678 167.893C61.2753 167.852 61.121 167.8 61.0182 167.759C60.4219 167.554 59.0648 166.844 58.6639 165.929C58.4171 165.364 58.5199 164.552 58.9826 163.524C59.5686 162.208 60.2985 161.796 60.8743 161.591C63.0745 160.779 66.5083 162.002 67.5158 162.485C69.4692 163.441 71.8338 162.639 72.8002 160.676C73.7564 158.722 72.9544 156.347 70.9908 155.391C70.5384 155.165 67.8037 153.901 64.4006 153.53V150.641C64.4006 148.462 62.6322 146.693 60.4527 146.693C58.2731 146.693 56.5047 148.462 56.5047 150.641V154.98C54.4588 156.152 52.8344 157.951 51.7856 160.305C50.007 164.274 50.6444 167.338 51.4875 169.209C53.2661 173.157 57.2449 174.812 58.3758 175.213C58.9104 175.449 61.0899 176.436 64.6267 178.266C65.1716 178.544 65.5109 179.48 65.3978 180.425C65.3156 181.186 64.894 182.533 63.0537 183.016C58.2525 184.281 53.5642 182.019 53.4308 181.957C51.4979 180.97 49.123 181.741 48.1361 183.674C47.1388 185.617 47.8996 187.992 49.8427 188.989C50.0175 189.082 52.7008 190.418 56.5047 191.004V194.387C56.5047 196.567 58.2731 198.335 60.4527 198.335C62.6323 198.335 64.4006 196.567 64.4006 194.387V190.778C64.6268 190.727 64.8427 190.706 65.0689 190.655C69.6132 189.462 72.749 185.874 73.2527 181.289C73.7257 176.991 71.7619 173.054 68.2561 171.245Z" fill="#50A42A"/>
<path d="M168.31 50.811H113.842C111.662 50.811 109.894 52.5794 109.894 54.759C109.894 56.9386 111.662 58.7069 113.842 58.7069H168.31C170.49 58.7069 172.258 56.9386 172.258 54.759C172.258 52.5691 170.49 50.811 168.31 50.811Z" fill="#50A42A"/>
<path d="M168.31 77.1309H113.842C111.662 77.1309 109.894 78.8992 109.894 81.0788C109.894 83.2584 111.662 85.0267 113.842 85.0267H168.31C170.49 85.0267 172.258 83.2584 172.258 81.0788C172.258 78.8889 170.49 77.1309 168.31 77.1309Z" fill="#50A42A"/>
<path d="M168.31 103.451H113.842C111.662 103.451 109.894 105.219 109.894 107.399C109.894 109.578 111.662 111.347 113.842 111.347H168.31C170.49 111.347 172.258 109.578 172.258 107.399C172.258 105.209 170.49 103.451 168.31 103.451Z" fill="#50A42A"/>
</svg>
