<svg width="221" height="226" viewBox="0 0 221 226" fill="none" xmlns="http://www.w3.org/2000/svg">
<path d="M210.816 157.047H207.733C214.939 142.259 218.755 125.844 218.755 109.284C218.755 87.4485 212.319 66.4035 200.179 48.3596V21.6621C200.179 18.0615 197.269 15.1539 193.666 15.1539H178.251C175.341 15.1539 172.894 17.0794 172.055 19.7175C153.634 6.80672 132.071 0 109.382 0C80.1488 0 52.7016 11.3607 32.0349 32.0113C11.3683 52.6434 0 80.0924 0 109.274C0 133.825 8.3629 157.76 23.5087 176.957C12.8527 191.129 13.4501 207.179 25.2815 217.402C31.9198 223.14 40.6006 226 49.301 226C58.0107 226 66.711 223.14 73.3204 217.402C74.6789 216.218 75.8639 214.967 76.9237 213.657C87.4064 216.911 98.313 218.558 109.383 218.558C118.709 218.558 127.93 217.326 136.879 215.005C138.411 218.702 142.034 221.311 146.273 221.311H210.797C216.423 221.311 220.981 216.748 220.981 211.135L221 167.224C221 161.602 216.433 157.047 210.816 157.047ZM69.7247 213.245C58.4809 223.007 40.1563 223.007 28.9017 213.245C16.6656 202.644 21.4252 187.952 29.2196 178.594L41.504 163.834L42.7662 162.477H55.8406L57.1027 163.834L69.3871 178.594C77.201 187.952 81.9609 202.643 69.7247 213.245ZM48.6921 145.956C48.1718 144.233 47.5552 141.595 47.7094 138.88C47.7575 137.965 47.902 137.551 47.9791 137.397C48.1526 137.368 48.6247 137.397 49.5592 137.715C51.9968 138.552 53.8467 138.601 55.4749 138.552C55.7254 138.552 55.947 138.524 56.1878 138.524C57.7198 138.447 58.5773 138.427 59.8876 139.169C60.7547 139.66 61.2653 140.228 61.5448 140.988C61.8146 141.826 61.8434 142.885 61.5448 144.194C60.8029 147.593 58.2111 152.33 54.6174 156.941H44.578L44.5491 156.913C40.6759 153.36 38.2094 149.326 37.2265 144.888C37.0338 144.002 37.0531 143.289 37.2747 142.991C37.5252 142.673 38.3827 142.346 39.7123 142.423L42.3714 142.548C42.6219 144.493 43.0362 146.216 43.4313 147.526C43.8745 148.979 45.4064 149.817 46.8612 149.374C48.2968 148.96 49.1353 147.41 48.6921 145.956ZM106.625 213.013C97.5685 212.763 88.6466 211.386 80.0339 208.844C85.0438 198.764 82.9436 186.219 73.6461 175.051L63.1154 162.41C64.5221 162.284 65.63 161.129 65.63 159.695C65.63 158.164 64.3968 156.931 62.8648 156.931H61.3811C64.1944 152.763 66.1407 148.7 66.8826 145.349C67.374 143.058 67.3258 140.988 66.7092 139.188C65.9962 137.118 64.5895 135.462 62.5374 134.335C59.8494 132.833 57.7297 132.93 55.8798 133.007C55.6871 133.007 55.4558 133.035 55.2343 133.035C54.1455 133.064 52.9604 133.064 51.2839 132.496C48.7886 131.63 46.7749 131.688 45.1658 132.593C43.6627 133.459 42.7282 134.932 42.3332 137.031L39.9149 136.906C36.7837 136.781 34.2689 137.772 32.8334 139.669C31.5712 141.325 31.234 143.491 31.7928 146.081C32.6599 149.999 34.4327 153.62 37.0437 156.951H35.7141C34.1822 156.951 32.9489 158.183 32.9489 159.714C32.9489 161.139 34.0569 162.304 35.4635 162.429L27.0234 172.557C13.7179 155.218 6.16426 133.951 5.5765 112.037H106.626L106.625 213.013ZM106.625 106.521H5.57527C7.03011 51.4799 51.5532 7.01942 106.625 5.56526V106.521ZM177.239 21.6621C177.239 21.123 177.711 20.6801 178.221 20.6801H193.637C194.176 20.6801 194.62 21.1518 194.62 21.6621V89.017H177.21L177.219 21.6621H177.239ZM112.128 5.53568C133.835 6.10372 154.357 13.2282 171.719 26.2642V38.2218H155.291C151.688 38.2218 148.778 41.1583 148.778 44.7301V61.3186H132.351C128.747 61.3186 125.838 64.2262 125.838 67.8269V91.7324C125.838 93.2632 127.071 94.4955 128.603 94.4955H197.413C198.945 94.4955 200.178 93.2632 200.178 91.7324V58.9028C208.291 73.4695 212.761 89.7113 213.176 106.54H112.126L112.128 5.53568ZM171.719 43.7679V89.017H154.308V44.7784C154.308 44.2392 154.781 43.7964 155.291 43.7964H171.719L171.719 43.7679ZM148.778 66.8647V89.018H131.368V67.8757C131.368 67.3365 131.84 66.8937 132.351 66.8937L148.778 66.884L148.778 66.8647ZM136.099 167.224V209.548C128.304 211.618 120.259 212.754 112.127 212.975V112.039H213.158C212.734 127.742 208.764 143.195 201.567 157.049H197.395V148.49C197.395 142.867 192.828 138.313 187.211 138.313H169.869C164.242 138.313 159.685 142.877 159.685 148.49V157.068H146.264C140.666 157.049 136.099 161.601 136.099 167.224ZM191.893 148.489V157.067H165.233V148.489C165.233 145.928 167.333 143.829 169.896 143.829H187.239C189.792 143.839 191.893 145.908 191.893 148.489ZM215.47 211.166C215.47 213.727 213.369 215.825 210.807 215.825H146.293C143.73 215.825 141.63 213.726 141.63 211.166V179.867L169.109 192.556C172.192 193.981 175.372 194.703 178.58 194.703C181.759 194.703 184.939 193.99 188.051 192.556L215.53 179.867L215.52 211.166H215.47ZM215.47 173.811L185.679 187.559C180.939 189.754 176.131 189.754 171.401 187.559L141.61 173.811L141.601 167.225C141.601 164.664 143.701 162.566 146.264 162.566H210.787C213.35 162.566 215.45 164.665 215.45 167.225V173.811H215.47ZM49.7039 86.2849L79.7927 44.2399C80.6791 43.0075 82.4037 42.7091 83.6369 43.5948C84.8702 44.4805 85.1689 46.2039 84.2825 47.4363L54.1937 89.4887C53.6541 90.2493 52.8159 90.644 51.9488 90.644C51.3803 90.644 50.8408 90.4707 50.3494 90.1241C49.1065 89.2384 48.8078 87.5173 49.7039 86.2849ZM53.2975 63.9775C59.0398 63.9775 63.7321 58.2876 63.7321 51.2884C63.7321 44.2892 59.0497 38.5992 53.2975 38.5992C47.5553 38.5992 42.863 44.2892 42.863 51.2884C42.863 58.2876 47.555 63.9775 53.2975 63.9775ZM53.2975 44.0676C55.9567 44.0676 58.2017 47.3698 58.2017 51.2691C58.2017 55.1587 55.9568 58.4707 53.2975 58.4707C50.6383 58.4707 48.3934 55.1685 48.3934 51.2691C48.3934 47.3698 50.6383 44.0676 53.2975 44.0676ZM70.2451 81.8265C70.2451 88.8258 74.9275 94.5157 80.6796 94.5157C86.4219 94.5157 91.1141 88.8258 91.1141 81.8265C91.1141 74.8273 86.4317 69.1374 80.6796 69.1374C74.9277 69.1277 70.2451 74.8273 70.2451 81.8265ZM85.5837 81.8265C85.5837 85.7161 83.3388 89.0281 80.6796 89.0281C78.0204 89.0281 75.7755 85.7259 75.7755 81.8265C75.7755 77.937 78.0204 74.625 80.6796 74.625C83.3388 74.625 85.5837 77.9272 85.5837 81.8265ZM58.0083 200.691C58.0083 204.532 55.513 207.786 52.0636 208.952V210.752C52.0636 212.283 50.8303 213.515 49.2984 213.515C47.7664 213.515 46.5332 212.283 46.5332 210.752V208.952C44.3846 208.239 42.5636 206.679 41.5037 204.59C40.81 203.233 41.3785 201.586 42.737 200.893C44.0955 200.2 45.7432 200.768 46.4367 202.126C46.9763 203.214 48.0939 203.897 49.2984 203.897C51.0519 203.897 52.5068 202.472 52.5068 200.691C52.5068 198.814 50.5124 197.783 48.807 197.466C43.9029 196.551 40.6175 193.056 40.6175 188.81C40.6175 184.969 43.1129 181.715 46.5623 180.55V178.749C46.5623 177.219 47.7955 175.986 49.3275 175.986C50.8594 175.986 52.0927 177.219 52.0927 178.749V180.55C54.2412 181.262 56.0622 182.822 57.1221 184.911C57.8158 186.269 57.2473 187.915 55.8888 188.608C54.5303 189.301 52.8827 188.733 52.1891 187.376C51.6496 186.288 50.5319 185.604 49.3275 185.604C47.5739 185.604 46.1191 187.029 46.1191 188.81C46.1191 190.688 48.1134 191.718 49.8188 192.036C54.7326 192.96 58.0083 196.436 58.0083 200.691Z" fill="#50A42A"/>
</svg>
