<svg width="581" height="418" viewBox="0 0 581 418" fill="none" xmlns="http://www.w3.org/2000/svg">
<path d="M107.713 257.907H198.099C198.258 258.238 198.47 258.569 198.682 258.925C197.729 258.848 196.67 258.899 195.637 259.23C194.499 259.611 193.81 260.959 193.996 262.434C194.102 263.248 194.79 265.74 198.841 266.478C197.861 268.487 198.655 269.733 200.164 270.064C201.091 270.267 201.965 269.962 202.759 269.479C202.282 271.64 202.812 272.683 203.553 273.192C205.512 294.935 207.577 316.298 207.71 317.671L201.594 403.323C201.567 403.806 201.965 404.188 202.441 404.188H203.765C203.474 405.612 203.235 406.07 203.156 406.324C200.906 411.08 200.429 416.827 200.429 417.081C200.403 417.564 200.773 417.946 201.276 417.946H230.213C230.716 417.946 231.114 417.514 231.061 417.03C230.611 413.038 228.122 412.453 224.971 410.825C224.601 410.647 224.389 410.495 224.071 410.342C221.265 409.07 219.438 407.01 218.617 404.188H221.212C221.609 404.188 221.953 403.908 222.033 403.552L235.217 344.042L234.29 403.374C234.29 403.857 234.714 404.239 235.217 404.188H235.27C234.873 408.282 234.476 407.672 232.358 416.98C232.252 417.488 232.649 417.971 233.178 417.971H280.463C280.913 417.971 281.284 417.615 281.311 417.183C281.575 410.902 267.199 409.427 261.851 407.392C259.415 406.476 256.847 404.162 255.153 402.204C255.524 402.153 255.815 401.873 255.868 401.517C255.921 401.085 262.063 358.767 270.27 322.656C274.48 304.116 273.765 278.583 272.044 257.933H479.745C477.945 304.549 480.804 351.443 488.296 397.426C488.349 397.833 488.72 398.113 489.143 398.113H490.123C488.667 400.834 485.808 402.614 482.498 402.741C470.002 403.199 463.251 407.599 463.542 415.152C463.595 416.728 464.971 418 466.613 418H549.239C550.828 418 552.178 416.805 552.284 415.304C552.522 412.558 552.39 404.674 551.119 398.138H552.416C552.919 398.138 553.316 397.706 553.263 397.222C547.598 354.04 546.406 310.171 549.636 266.759L550.325 266.708C550.775 266.683 551.119 266.301 551.092 265.894L551.066 264.114L554.958 258.112C555.937 256.612 555.461 254.603 553.872 253.662L551.913 252.492C555.064 250.254 558.055 247.151 558.108 243.362L557.605 235.122L578.123 200.409C580.347 196.645 580.718 192.169 579.129 188.125C556.705 130.701 557.791 132.862 557.155 132.659C536.61 125.513 538.543 126.429 536.425 125.386C531.606 122.97 531.103 121.342 528.8 119.435C527.82 118.646 527.106 118.011 526.761 117.705L524.643 113.662C524.034 112.238 523.24 110.076 522.737 107.635C526.285 104.176 528.535 100.565 529.25 99.3949C529.541 99.3695 529.991 99.3186 530.494 99.2169C536.319 100.412 544.632 94.8935 544.658 73.5057C544.658 54.8135 534.439 57.0003 534.439 57.0003C527.37 42.5809 519.269 46.0393 515.721 45.8101C512.147 45.5812 508.228 42.5549 501.689 42.3769C495.15 42.1989 499.492 53.5671 499.492 53.5671C474.949 36.4771 481.753 56.0594 487.392 64.6805C487.71 65.1637 488.16 65.6214 488.69 66.0029C488.054 69.5887 487.604 75.7686 490.04 79.0746C489.987 79.5324 489.908 80.0156 489.775 81.8213C487.075 78.4643 487.498 72.3355 488.054 68.8257C488.107 68.5714 488.001 68.2916 487.79 68.1136C486.784 67.1981 485.486 64.6803 484.93 63.6122C484.533 62.8492 483.315 63.129 483.315 63.9682V131.97C474.578 136.548 474.499 136.243 474.287 136.802C474.261 136.904 472.911 140.541 471.216 146.313V12.7183C471.216 12.2605 470.846 11.9045 470.369 11.9045H121.585C121.109 11.9045 120.738 12.2605 120.738 12.7183C120.764 256.126 120.685 245.338 120.817 245.618C120.95 245.923 121.241 246.126 121.585 246.126H200.03C198.706 247.601 195.952 251.467 197.514 256.35H108.666L108.56 1.6272H483.208C483.208 1.72892 483.208 47.6583 483.287 44.6576C483.446 45.0899 483.87 45.2425 484.24 45.1662C485.564 44.8865 487.391 45.1916 489.641 46.1072C490.197 46.336 490.806 45.9291 490.806 45.3442V0.81381C490.806 0.356039 490.436 0 489.959 0H107.714C107.237 0 106.867 0.356039 106.867 0.81381V257.086C106.867 257.544 107.264 257.9 107.714 257.9L107.713 257.907ZM229.209 416.32H202.23C202.442 414.616 203.051 410.675 204.587 407.292C208.346 405.944 210.57 406.682 213.112 408.869C215.521 410.954 216.156 411.946 219.148 412.658C220.922 413.065 222.907 413.218 224.575 412.48C227.143 413.752 228.679 414.21 229.209 416.32ZM279.512 416.32H234.239C234.583 414.845 235.272 411.972 236.039 409.225C243.638 414.642 251.713 412.582 259.92 408.259C264.156 410.548 278.082 411.946 279.512 416.32ZM268.577 322.302C260.926 356.05 255.048 395.213 254.254 400.656L253.751 400.707C253.407 400.58 254.837 400.504 235.986 402.487L237.019 335.833C243.187 311.699 234.848 258.293 233.577 250.533C244.538 249.464 251.05 241.784 251.342 241.454C251.845 240.843 251.262 239.953 250.468 240.157C236.066 243.743 224.655 237.614 224.523 237.537C224.125 237.308 223.596 237.461 223.358 237.842C223.119 238.224 223.278 238.733 223.675 238.961C224.125 239.216 234.371 244.734 248.086 242.318C245.385 244.684 239.932 248.524 232.545 248.956C232.042 248.981 231.671 249.414 231.75 249.897C231.856 250.507 241.837 310.399 235.351 335.497C235.324 335.598 220.525 402.431 220.498 402.535H203.343C209.617 314.416 209.406 317.671 209.379 317.541C209.326 317.058 204.772 270.009 202.707 243.536C202.204 236.975 201.092 228.074 203.846 222.148C207.261 221.436 231.751 216.604 256.452 221.029C259.92 221.665 263.097 222.402 266.142 223.267C267.148 229.37 276.361 288.046 268.577 322.302ZM205.513 141.409C205.54 141.383 205.54 141.358 205.566 141.358C205.566 141.332 205.593 141.332 205.619 141.332C206.361 140.341 208.293 138.789 213.297 136.958C220.472 140.213 229.341 138.357 234.292 131.618C239.534 130.651 243.585 130.041 244.353 129.939C244.485 129.914 244.565 129.914 244.644 129.888L281.312 118.444C281.577 118.368 281.789 118.164 281.868 117.91L291.611 87.8499C291.638 87.7736 291.955 87.5193 293.041 87.3921C296.059 87.0869 301.672 88.2822 303.605 89.6301C303.975 89.9098 304.081 90.0879 304.081 90.1133C301.937 102.066 297.198 125.692 294.683 129.634C292.114 133.652 265.983 145.478 256.029 149.75C254.943 150.106 245.465 153.438 245.783 158.143C245.81 158.575 246.18 158.906 246.63 158.906C247.133 158.906 247.504 158.499 247.478 158.041C247.292 155.294 253.302 152.497 256.082 151.48C257.326 152.828 261.483 157.583 263.31 162.415C264.951 166.739 257.326 172.384 254.255 174.216C253.938 174.394 253.779 174.75 253.885 175.106L265.798 221.518C247.001 216.305 223.438 216.763 204.641 220.425C206.706 215.033 213.907 195.858 214.278 191.051C214.543 187.644 213.06 182.761 211.339 178.336C211.339 178.31 211.313 178.285 211.313 178.259C209.433 173.478 207.236 169.231 206.521 167.883C206.309 167.476 205.806 167.324 205.383 167.527C204.959 167.73 204.8 168.214 205.012 168.621C206.653 171.723 208.321 175.233 209.672 178.666C204.641 197.562 204.827 196.519 204.879 196.85L207.262 208.472C205.7 212.872 203.768 218.035 202.523 221.264C199.505 227.393 200.511 236.167 201.041 242.957L199.611 243.084C197.44 233.369 191.615 206.463 190.689 196.596C188.147 170.579 203.29 143.546 205.513 141.409ZM231.962 110.382C237.786 107.966 242.684 104.228 245.226 98.633C245.649 101.151 246.391 102.371 246.92 102.931C246.364 104.94 243.611 113.002 236.012 115.876C235.059 113.765 233.683 111.908 231.962 110.382ZM240.116 120.987L239.957 125.667C239.083 125.412 238.13 125.209 237.124 125.031C237.548 122.513 237.415 120.174 236.78 118.012C236.727 117.809 236.648 117.605 236.595 117.427C246.179 113.867 248.588 103.287 248.694 102.804C248.774 102.448 248.641 102.092 248.297 101.939C248.271 101.939 246.603 100.769 246.603 94.1827C246.603 94.0555 246.603 93.496 246.709 92.7585C246.814 92.0718 247.079 91.2326 247.662 91.0291C248.641 90.6985 250.494 91.8938 251.236 92.5041C251.633 92.8347 252.242 92.7584 252.507 92.3261C252.798 91.8683 253.062 91.3343 253.274 90.7748C254.545 97.616 254.677 105.143 254.492 108.959C254.122 117.02 240.884 120.174 240.752 120.2C240.381 120.301 240.116 120.631 240.116 120.987ZM265.982 67.1489H243.399C242.446 66.5894 241.466 66.0808 240.46 65.6739V41.3612H265.982L265.982 67.1489ZM235.694 122.412C235.588 130.499 228.784 136.908 220.497 136.908C212.846 136.908 206.492 131.44 205.433 124.37C212.395 135.967 230.347 134.873 235.694 122.412ZM293.066 77.4999C291.424 77.0676 290.921 75.8723 291.027 75.6943C291.106 75.5417 291.556 75.2874 292.695 75.1602C292.827 76.0249 293.039 77.3473 293.066 77.4999ZM304.132 64.3266C303.126 65.115 301.988 66.234 301.352 66.7172C301.458 63.64 303.603 56.1123 299.605 55.7308C296.984 55.4765 294.177 64.6827 293.489 67.1495H278.61V41.3621H304.132L304.132 64.3266ZM292.668 70.8879C292.377 73.1513 292.536 72.1849 292.483 72.8716C290.603 72.3375 290.021 71.8288 289.968 71.7017C290.047 71.5491 290.683 71.1168 292.668 70.8879ZM294.23 73.8125C293.621 70.4047 297.752 58.4009 299.525 57.3586C300.902 57.6383 300.134 62.5975 299.949 63.9706C299.578 66.7427 299.34 68.4211 300.69 68.65C302.014 68.8789 303.55 66.7935 305.482 65.344C305.906 65.0388 306.753 64.4284 307.283 64.4793C307.309 64.4793 307.362 64.4793 307.441 64.5047C307.759 64.6065 308.05 65.0388 308.262 65.7509C309.348 69.1333 306.303 76.8135 305.191 78.0088C304.529 78.7209 303.656 80.552 302.597 83.4512C300.611 82.8408 298.043 82.5102 295.978 82.8663C294.363 76.1527 294.257 73.9141 294.23 73.8125ZM212.526 190.897C212.341 193.186 210.408 199.238 208.29 205.316L206.516 196.67L210.62 181.334C211.917 185.047 212.711 188.481 212.526 190.897ZM271.883 256.282C271.565 252.696 271.221 249.263 270.877 246.058L470.262 246.084C470.738 246.084 471.109 245.728 471.109 245.27V214.651C473.386 215.007 475.742 215.083 478.019 214.6C476.907 245.219 476.933 243.338 476.986 243.541C477.357 244.914 478.733 246.287 480.19 247.406C479.898 252.238 479.845 254.858 479.766 256.307L271.883 256.282ZM423.241 167.961C420.197 164.324 416.384 158.475 417.205 156.669C418.741 156.999 423.85 163.561 427.795 169.69C428.245 170.402 429.41 170.046 429.357 169.207C429.251 167.655 429.516 163.383 431.925 162.289C432.031 162.238 432.084 162.238 432.243 162.315C433.99 163.179 436.055 170.377 437.035 175.412L430.76 185.025C428.775 184.517 421.918 182.584 416.014 178.362C414.769 177.472 414.24 176.608 414.346 175.667C414.716 172.895 420.647 170.072 422.897 169.207C423.427 169.029 423.586 168.393 423.241 167.961ZM440.053 173.835L464.887 188.077C465.443 188.408 466.185 188.001 466.158 187.365C465.999 165.061 474.63 140.469 475.662 137.57C476.139 137.316 494.937 127.779 494.804 127.83L489.588 134.747C489.323 135.103 489.403 135.586 489.747 135.866L495.969 140.724H488.105C487.549 140.724 487.152 141.232 487.285 141.741L498.907 184.974C496.656 217.832 494.83 240.059 494.644 251.023C491.044 252.218 479.792 246.624 478.653 243.19C480.268 199.422 479.871 213.079 479.712 202.424C479.289 186.86 478.865 170.787 478.044 157.766C477.991 156.825 476.588 156.723 476.376 157.639C476.297 157.969 476.588 154.282 472.643 213.13C459.485 211.808 439.655 197.845 429.647 189.707C432.03 186.147 436.691 178.998 440.053 173.835ZM498.51 113.054C501.899 114.58 505.473 115.241 509.18 114.758L509.047 115.623L508.915 115.902L497.133 124.829L490.779 128.059V100.313C491.865 104.891 494.089 111.122 498.51 113.054ZM521.253 108.858C521.729 110.791 522.338 112.495 522.868 113.766C520.564 116.437 517.943 118.013 514.899 118.547C512.728 117.734 511.404 116.818 510.768 115.648L510.954 114.427C514.952 113.486 518.42 111.299 521.253 108.858ZM522.815 189.575C523.185 200.816 523.583 212.972 523.953 223.755H497.849C498.272 217.677 498.722 211.192 499.199 204.656C503.038 151.453 502.27 142.348 505.765 128.236C506.056 128.948 506.797 128.973 507.274 128.592C507.3 128.566 507.327 128.541 508.306 127.524C508.756 129.024 509.551 130.652 510.848 131.593L506.003 140.545C505.368 141.689 505.235 142.605 505.129 143.825C504.176 153.896 500.178 194.485 500.364 198.935C500.602 202.928 506.321 214.499 508.121 218.085C508.412 218.645 509.233 218.695 509.603 218.161C510.636 216.508 520.114 201.351 520.088 199.393L519.293 143.037C519.32 141.257 518.843 140.723 516.222 131.898C517.731 131.034 519.426 129.152 520.458 127.346C522.682 129.914 522.735 129.965 522.735 129.965C522.947 130.194 523.397 130.321 523.715 130.245C524.138 130.143 524.562 129.584 524.959 128.795C523.979 137.747 521.994 149.09 521.623 150.285C521.544 150.412 521.517 150.565 521.517 150.718C521.835 160.051 520.803 128.513 522.815 189.575ZM506.056 245.829C501.343 242.625 499.172 237.539 499.093 231.893H520.591L520.671 233.775L518.632 232.554C517.043 231.613 514.978 232.071 513.999 233.597L506.056 245.829ZM498.907 140.926L491.441 135.128L498.245 126.099L507.512 119.08L507.326 119.513C507.009 119.894 506.559 120.708 506.479 120.912C504.996 123.938 501.475 133.755 500.39 160.636C500.204 165.417 499.834 171.724 499.278 179.837L489.217 142.401H498.378C499.172 142.35 499.516 141.409 498.907 140.926ZM518.42 199.215C518.128 200.029 517.625 201.046 517.228 201.834L506.109 209.922C505.209 207.938 504.6 206.539 503.964 204.937L518.367 194.484L518.42 199.215ZM514.607 206.641C512.516 210.303 510.159 214.067 508.968 215.974C507.988 214.016 507.141 212.21 507.088 212.109L514.607 206.641ZM503.091 202.648C501.952 199.494 502.005 198.884 502.111 196.799L518.208 185.1L518.287 191.585L503.091 202.648ZM502.323 193.772C502.561 190.237 502.799 187.516 502.852 186.829L518.076 175.767L518.155 182.252L502.323 193.772ZM503.117 183.752C503.488 179.505 503.594 178.361 503.726 176.758L517.943 166.433L518.023 172.918L503.117 183.752ZM504.017 173.656C504.255 171.011 504.573 167.374 504.653 166.637L517.811 157.074L517.89 163.559L504.017 173.656ZM504.944 163.508C505.341 159.109 505.579 156.82 505.606 156.489L517.678 147.715L517.757 154.2L504.944 163.508ZM505.923 153.361C506.4 148.478 506.585 146.469 506.612 146.317L516.699 138.992C517.255 141.001 517.678 141.688 517.652 142.985L517.679 144.842L505.923 153.361ZM506.903 143.188C507.141 141.357 507.591 141.357 512.41 132.202C513.31 132.38 513.998 132.405 514.634 132.355L515.931 136.627L506.903 143.188ZM515.084 130.6L512.198 130.447C510.768 129.837 509.974 127.523 509.683 126.047C510.795 124.878 512.41 123.148 514.766 120.631C516.725 122.894 518.208 124.623 519.32 125.92C518.446 127.726 516.434 130.04 515.084 130.6ZM481.831 248.55C485.088 250.636 492.792 254.323 495.995 252.238C496.683 251.78 495.942 253.28 497.345 231.918H497.425C497.425 232.35 497.425 232.808 497.451 233.266C496.551 237.996 497.319 242.905 499.622 247.101C500.469 248.601 501.237 249.618 502.402 251.5L497.425 259.181C496.445 260.706 496.922 262.716 498.51 263.631L505.924 268.056C506.48 282.323 504.838 296.794 508.756 310.68C508.253 337.561 509.471 366.731 512.754 396.462H489.827C481.805 346.87 479.237 296.389 481.831 248.55ZM513.257 403.656C513.045 401.647 512.78 399.79 512.436 398.086H513.707C514.21 398.086 514.607 397.654 514.554 397.196C511.166 366.882 509.921 337.763 510.504 308.543C513.416 338.451 518.367 368.307 525.25 397.476C525.33 397.858 525.674 398.112 526.071 398.112H528.666C527.21 400.833 524.35 402.613 521.041 402.74C518.129 402.817 515.534 403.147 513.257 403.656ZM482.519 404.317C486.729 404.164 490.329 401.723 491.918 398.061H510.715C511.085 399.867 511.377 401.876 511.588 404.063C505.737 405.792 501.846 409.251 502.084 415.075C502.111 415.507 502.217 415.914 502.428 416.295H501.766C501.052 416.295 500.416 415.71 500.39 415.024C500.363 414.235 500.416 413.472 500.575 412.786C500.681 412.277 500.284 411.819 499.754 411.819H465.681C467.64 406.173 475.609 404.571 482.519 404.317ZM550.614 412.633H503.991C505.447 406.275 514.078 404.596 521.094 404.342C525.304 404.19 528.904 401.748 530.493 398.086H549.316C550.349 403.122 550.64 409.072 550.614 412.633ZM551.408 396.458H526.76C517.096 355.361 511.245 312.714 509.604 270.24L533.723 284.634C535.285 285.575 537.377 285.117 538.357 283.591L547.702 269.12C544.71 311.464 545.928 354.29 551.408 396.458ZM553.447 257.166C543.995 271.79 545.928 268.763 536.9 282.725C536.423 283.463 535.391 283.717 534.597 283.234C526.125 278.199 507.857 267.263 499.385 262.227C498.59 261.769 498.352 260.752 498.855 260.015L515.402 234.456C515.879 233.693 516.938 233.464 517.705 233.947C517.811 234.024 521.306 236.109 521.094 235.982C521.2 236.058 528.216 240.229 527.766 239.949C527.845 240 530.97 241.856 530.89 241.806C530.361 242.289 526.813 245.671 527.21 249.613C527.448 251.953 528.984 253.987 531.817 255.64C537.112 258.743 541.772 255.284 545.133 250.325L552.917 254.979C553.711 255.411 553.95 256.404 553.447 257.166ZM536.264 236.923L545.954 245.544C543.121 251.241 538.356 257.548 532.717 254.241C530.387 252.868 529.116 251.266 528.931 249.46C528.587 246.103 532.081 242.975 532.108 242.924C532.214 242.848 532.214 242.823 532.823 242.06C533.114 241.704 533.008 241.119 532.611 240.864L529.566 239.059C531.049 238.016 534.676 237.177 536.264 236.923ZM556.359 243.306C556.306 246.638 553.155 249.562 550.296 251.47L546.007 248.901C546.483 248.138 546.88 247.375 547.225 246.689C547.331 246.79 547.992 247.375 547.886 247.273C548.178 247.528 548.495 247.757 548.787 247.96C549.184 248.265 549.793 248.138 550.031 247.706L555.988 237.609L556.359 243.306ZM576.586 199.513L549.052 246.103C547.966 245.238 552.626 249.282 536.767 235.167L553.526 193.129C553.738 192.621 553.817 193.562 547.675 176.345C544.313 167.011 544.286 156.737 547.649 147.378C547.808 146.946 547.569 146.488 547.119 146.335C546.669 146.183 546.193 146.412 546.034 146.844C545.531 148.217 545.134 149.616 544.763 151.04C537.085 167.85 542.036 177.845 544.71 191.934C548.046 209.558 541.692 214.491 538.488 220.112C537.323 222.197 535.761 229.369 535.629 233.336C534.994 235.014 534.835 235.065 534.914 235.472C532.902 235.854 529.54 236.693 528.004 238.117L526.045 236.947C525.913 233.209 526.23 242.898 524.457 189.568C530.758 167.723 536.423 152.388 542.274 141.299C542.539 140.816 542.221 140.206 541.639 140.129L535.55 139.214L543.863 133.822C544.313 133.543 544.366 132.932 543.995 132.576L539.442 128.176L556.121 133.899L577.433 188.525C578.889 192.188 578.571 196.181 576.586 199.513ZM535.47 126.673L542.115 133.082L532.875 139.084C532.24 139.491 532.452 140.457 533.219 140.559L540.288 141.627C535.02 151.851 529.91 165.508 524.324 184.225L523.212 150.707C524.032 148.494 527.448 126.954 527.183 120.214C530.254 122.732 530.572 124.181 535.47 126.673ZM527.898 98.1393C527.792 98.3173 519.611 113.271 506.744 113.271C503.038 113.271 499.304 111.898 497.849 110.728C490.224 104.726 489.138 81.253 494.248 67.7229C504.441 68.8928 521.544 65.078 521.544 65.078C520.855 70.088 525.409 74.4622 525.409 74.4622L525.806 89.9246L528.904 90.3061L529.301 87.5594C529.486 87.5849 529.698 87.5594 529.857 87.4577C529.883 87.4323 532.901 85.6266 535.019 86.5421C536.158 87.0253 536.873 88.2715 537.19 90.2297C537.482 91.9845 537.111 93.4595 536.131 94.6294C533.775 97.4014 528.639 97.7066 528.586 97.7066C528.321 97.7066 528.03 97.885 527.898 98.1393ZM464.463 185.953L440.212 172.016C439.815 171.787 439.312 171.915 439.047 172.271L438.332 173.364C437.485 169.397 435.023 159.046 431.184 160.801C428.854 161.869 428.033 164.539 427.769 166.625C424.645 161.971 419.562 155.028 417.073 155.028H417.046C416.49 155.028 416.04 155.308 415.749 155.791C414.081 158.64 419.085 165.43 421.229 168.125C414.611 170.999 409.395 175.653 415.008 179.671C420.779 183.766 427.239 185.775 429.807 186.461L427.822 189.488C427.61 189.818 427.663 190.276 427.981 190.531C428.007 190.556 430.072 192.285 433.382 194.778C441.959 201.237 457.262 211.69 469.414 214.309V244.42L270.694 244.445C269.158 230.585 267.755 222.6 267.729 222.473L255.603 175.246C257.959 173.771 267.04 167.566 264.843 161.818C263.043 157.113 259.309 152.612 257.668 150.781C264.366 147.882 292.986 135.319 296.084 130.461C299.42 125.273 305.456 91.8053 305.721 90.33C305.8 89.7451 305.535 89.1856 304.953 88.6261L305.165 85.4471C305.244 84.9131 304.9 84.4299 304.159 83.9975C305.562 80.1574 306.25 79.2164 306.436 79.0129C307.839 77.5379 311.175 69.2726 309.877 65.1781C309.533 64.11 308.951 63.1181 307.812 62.813V42.1878C307.812 41.73 307.442 41.374 306.965 41.374H305.8V40.4585C305.8 40.0007 305.429 39.6447 304.953 39.6447H277.737C277.26 39.6447 276.889 40.0007 276.889 40.4585V67.8735C276.889 68.3312 277.26 68.6873 277.737 68.6873H278.902V69.6028C278.902 70.0605 279.272 70.4166 279.749 70.4166H288.777C288.512 70.6963 288.327 71.0015 288.274 71.3321C288.115 72.3494 288.909 73.1886 290.656 73.8752C289.28 74.4856 288.935 75.63 289.677 76.9015C290.392 78.0968 291.662 78.8598 293.383 79.1141C293.727 80.7925 294.098 82.3185 294.31 83.2086C293.542 83.5646 292.907 84.0732 292.563 84.8107C292.51 84.887 292.536 84.887 292.245 85.7772C291.08 86.006 290.286 86.4384 289.968 87.2013L280.331 116.931L245.225 127.892C244.986 127.739 243.663 126.9 241.598 126.137L241.73 121.559C244.563 120.796 255.735 117.236 256.132 108.971C256.397 103.452 256.08 94.3222 254.094 86.9217C254.544 82.9543 253.882 78.4529 252.452 76.139C251.102 73.9519 249.54 72.07 247.819 70.4424H268.814C269.291 70.4424 269.662 70.0863 269.662 69.6286V42.2136C269.662 41.7558 269.291 41.3998 268.814 41.3998H267.649V40.4843C267.649 40.0265 267.279 39.6705 266.802 39.6705H239.586C239.109 39.6705 238.739 40.0265 238.739 40.4843V64.9747C223.886 60.041 206.386 70.4934 204.586 84.2262C203.58 92.0082 204.824 101.927 210.463 109.149C200.932 115.889 201.302 129.672 211.337 135.878C207.763 137.302 205.433 138.726 204.268 140.252C200.985 143.456 186.476 171.329 188.939 196.685C189.892 206.628 195.875 234.4 198.073 244.064C198.099 244.191 198.179 244.292 198.258 244.394H125.982V17.595H469.418V152.408C467.009 161.766 464.569 174.102 464.463 185.953ZM201.301 246.988C201.804 253.067 202.387 260.009 203.022 267.079C202.069 268.096 201.195 268.605 200.56 268.452C200.322 268.402 200.189 268.325 200.136 268.224C200.004 267.868 200.427 266.901 200.904 266.265C201.301 265.757 200.931 265.019 200.295 264.968C197.621 264.765 195.9 263.722 195.688 262.171C195.583 261.382 195.927 260.823 196.218 260.721C197.727 260.213 199.527 260.594 200.269 260.798H200.295C201.195 261.052 201.751 260.111 201.222 259.501C196.006 253.499 199.951 248.438 201.301 246.988Z" fill="#0A2D47"/>
<path d="M401.212 142.978C401 142.571 400.47 142.444 400.073 142.647L399.067 143.181L398.617 142.367C398.405 141.961 397.876 141.833 397.479 142.037C372.274 155.109 373.254 154.269 373.068 154.88C372.882 155.491 372.512 154.168 386.624 179.651C386.835 180.057 387.365 180.185 387.762 179.981L388.794 179.447C389.139 179.93 389.245 180.693 390.012 180.693C390.409 180.693 389.165 181.202 414.396 168.232C414.82 168.028 414.952 167.519 414.74 167.138L401.212 142.978ZM387.683 178.149L375.001 155.439L397.505 143.842L410.187 166.553L387.683 178.149Z" fill="#0A2D47"/>
<path d="M398.751 151.422C398.539 151.015 398.01 150.888 397.613 151.091L381.225 159.535C380.457 159.942 380.748 161.061 381.622 161.061C382.019 161.061 381.092 161.417 398.407 152.541C398.804 152.312 398.963 151.803 398.751 151.422Z" fill="#0A2D47"/>
<path d="M391.181 159.84L383.582 163.756C383.159 163.96 383.026 164.468 383.238 164.85C383.397 165.13 383.688 165.282 383.979 165.282C384.112 165.282 384.244 165.257 384.376 165.181L391.975 161.264C392.398 161.061 392.531 160.552 392.319 160.171C392.107 159.789 391.604 159.636 391.181 159.84Z" fill="#0A2D47"/>
<path d="M315.881 68.7711H317.046V69.6866C317.046 70.1444 317.417 70.5004 317.893 70.5004H345.11C345.586 70.5004 345.957 70.1444 345.957 69.6866V42.2716C345.957 41.8139 345.586 41.4578 345.11 41.4578H343.945V40.5423C343.945 40.0846 343.574 39.7285 343.097 39.7285H315.881C315.405 39.7285 315.034 40.0846 315.034 40.5423V67.9573C315.034 68.4151 315.431 68.7711 315.881 68.7711ZM316.728 41.3561H342.25V67.1435H316.728V41.3561Z" fill="#0A2D47"/>
<path d="M320.198 49.416H338.784C339.261 49.416 339.631 49.0599 339.631 48.6021C339.631 48.1444 339.261 47.7883 338.784 47.7883H320.198C319.722 47.7883 319.351 48.1444 319.351 48.6021C319.351 49.0599 319.748 49.416 320.198 49.416Z" fill="#0A2D47"/>
<path d="M320.198 54.2204H328.829C329.306 54.2204 329.676 53.8643 329.676 53.4066C329.676 52.9488 329.306 52.5928 328.829 52.5928H320.198C319.722 52.5928 319.351 52.9488 319.351 53.4066C319.351 53.8643 319.748 54.2204 320.198 54.2204Z" fill="#0A2D47"/>
<path d="M243.923 49.416H262.509C262.985 49.416 263.356 49.0599 263.356 48.6021C263.356 48.1444 262.985 47.7883 262.509 47.7883H243.923C243.446 47.7883 243.076 48.1444 243.076 48.6021C243.076 49.0599 243.473 49.416 243.923 49.416Z" fill="#0A2D47"/>
<path d="M243.923 54.2204H252.554C253.03 54.2204 253.401 53.8643 253.401 53.4066C253.401 52.9488 253.03 52.5928 252.554 52.5928H243.923C243.446 52.5928 243.076 52.9488 243.076 53.4066C243.076 53.8643 243.473 54.2204 243.923 54.2204Z" fill="#0A2D47"/>
<path d="M80.9682 163.121C81.6831 163.121 82.239 162.308 82.239 161.29C82.239 160.273 81.6831 159.459 80.9682 159.459C80.2534 159.459 79.6974 160.273 79.6974 161.29C79.671 162.308 80.2534 163.121 80.9682 163.121Z" fill="#0A2D47"/>
<path d="M9.93716 341.678C9.88422 343.356 10.5196 344.958 11.7374 346.179C12.9553 347.4 14.5968 348.061 16.3441 348.061H62.4639V366.906C62.4639 368.889 63.7347 370.644 65.588 371.382V391.116H32.1234C26.8019 391.116 22.1156 393.939 19.4946 398.186C16.5294 399.992 14.4643 403.857 14.4643 408.333V408.613C14.4643 409.045 14.8615 409.401 15.3116 409.401H15.4704C15.4439 409.783 15.4175 410.19 15.4175 410.571C15.4175 414.64 17.0324 417.692 19.1504 417.692H26.9339C29.0784 417.692 30.6669 414.615 30.6669 410.571C30.6669 410.19 30.6404 409.808 30.6139 409.401H31.1434C31.5935 409.401 31.9906 408.944 31.9906 408.511C31.9641 408.409 32.2554 404.366 29.7137 400.78C30.4286 400.399 31.2229 400.17 32.0965 400.17H67.6262C65.6935 402.509 64.7669 405.892 64.8993 408.588C64.8993 409.02 65.27 409.376 65.72 409.401C65.6935 409.783 65.6671 410.164 65.6671 410.571C65.6671 414.64 67.282 417.693 69.4001 417.693H77.1835C79.328 417.693 80.9165 414.615 80.9165 410.571C80.9165 410.19 80.89 409.808 80.8635 409.401H81.6049C82.0814 409.401 82.4521 408.944 82.4521 408.511V408.333C82.4521 405.18 81.446 402.281 79.7252 400.195H86.5028C82.7433 404.468 82.8757 412.046 83.1405 415.352C83.2464 416.802 84.5172 417.946 86.0528 417.946H127.407C128.916 417.946 130.214 416.776 130.319 415.276C130.346 414.691 130.346 414.208 130.293 413.75C130.637 412.351 130.743 410.876 130.637 409.401H130.796C131.246 409.401 131.643 408.944 131.643 408.511V408.308C131.643 404.162 129.896 400.551 127.275 398.593C124.707 394.117 119.889 391.091 114.382 391.091H107.895L112.025 348.035H128.785L135.112 394.625C135.112 395.465 136.012 395.744 137.468 395.922L137.098 399.076C132.173 402.967 132.279 411.715 132.544 415.352C132.65 416.802 133.921 417.946 135.456 417.946H176.784C178.32 417.946 179.591 416.776 179.697 415.301C180.385 405.586 168.762 406.4 163.865 405.358C159.258 404.391 159.735 400.78 155.075 399.076L154.969 396.05C157.458 395.821 158.384 395.541 158.384 394.626C158.119 377.713 158.755 324.306 152.057 313.525C150.336 310.753 146.285 308.464 139.666 306.506C139.905 304.497 141.017 294.655 141.255 292.544C141.573 289.619 140.673 286.695 138.819 284.38C139.11 284.38 139.243 284.406 139.455 284.33C148.482 280.845 146.921 293.485 151.686 293.485C152.375 293.485 153.222 293.154 153.937 291.832C155.869 288.271 155.975 277.514 153.592 275.148C151.263 272.809 143.77 272.656 141.202 272.682C141.149 272.249 141.096 271.995 141.096 271.995C141.017 271.613 140.646 271.283 140.249 271.308L136.304 271.334C135.96 271.13 137.813 271.461 108.082 268.028C106.096 262.636 89.9195 219.047 84.6777 212.612C81.5536 208.772 78.3766 206.076 75.1999 204.55C72.7906 203.381 70.9904 203.228 70.0637 203.253C68.5546 202.745 66.7543 202.363 64.7158 202.083C64.6628 201.931 64.5834 201.753 64.4775 201.575L66.5955 188.579C71.4934 189.24 80.3358 189.597 82.1366 185.146C83.4339 181.967 83.9634 177.898 83.9899 174.516C85.8961 173.931 88.067 172.71 87.1669 170.981C85.2342 166.708 84.3606 161.953 84.6253 157.222C84.7312 155.34 84.7577 153.484 84.6783 151.754C84.6783 151.703 84.6518 151.678 84.6518 151.627C88.3053 150.661 89.2849 146.363 86.7433 143.998C88.067 144.583 89.735 143.718 90.291 142.446C90.8469 141.175 90.4763 139.649 89.7085 138.479C88.9407 137.309 87.7758 136.419 86.6639 135.529C85.2078 134.384 83.4074 133.189 81.6071 133.316C82.322 132.935 82.7721 131.943 82.5338 131.129C82.2426 129.985 81.1835 129.222 80.098 128.662C77.0799 127.162 73.4793 126.831 70.223 127.747C70.0377 127.798 69.8524 127.874 69.667 127.95C69.4817 127.798 69.2699 127.696 69.0581 127.594C63.0747 124.466 56.1386 126.577 55.1321 128.51H54.9997C52.3258 128.332 49.6782 129.324 48.0635 130.799C47.4546 130.646 46.8192 130.646 46.2102 130.722C30.987 132.909 32.3899 147.405 31.8077 151.017C29.981 153.051 26.7245 158.417 31.1988 167.98C36.2555 178.737 44.8598 186.189 47.2428 188.122C46.9251 188.503 47.1369 188.3 46.2103 194.989C41.8154 196.438 39.1677 199.286 38.2412 202.237C38.1882 202.288 38.1353 202.313 38.1088 202.364C26.6187 203.534 17.9874 212.74 17.9874 223.879V226.295H8.42953C3.29337 226.295 -0.651143 230.695 0.0896528 235.578L9.93716 341.678ZM64.1583 366.906V348.061H82.3996V366.931C82.3996 368.712 80.8641 370.161 79.0373 370.161C66.8321 370.136 67.3614 370.237 66.6471 370.059C65.191 369.652 64.1583 368.356 64.1583 366.906ZM91.8774 283.162C91.9304 283.645 92.0098 284.306 92.0892 285.12C91.0302 286.671 90.3948 288.451 90.2095 290.308L89.3094 300.048C87.1649 299.946 85.5499 299.87 83.6173 299.768L76.0717 245.879C88.0383 280.008 87.5354 278.635 87.6147 278.762C88.5678 280.593 90.0771 282.119 91.8774 283.162ZM131.511 304.498C122.774 302.769 111.443 301.421 97.7814 300.556L98.6551 291.071C98.8405 289.341 100.323 288.019 102.123 288.019H129.419C131.405 288.019 133.099 289.672 132.887 291.707L131.511 304.498ZM97.6228 302.184C111.31 303.074 122.642 304.397 131.326 306.151L128.996 327.87L95.0551 330.057L97.6228 302.184ZM80.9702 391.117V371.383C82.8235 370.645 84.0943 368.89 84.0943 366.907V348.037H85.974L85.3121 391.093L80.9702 391.117ZM87.0859 324.437L83.856 301.421C85.6563 301.497 87.2183 301.574 89.1775 301.675L87.0859 324.437ZM19.174 416.091C18.3533 416.091 17.1354 413.955 17.1354 410.598C17.1354 410.217 17.1619 409.835 17.1884 409.428H23.2512C23.0658 411.565 23.3571 414.286 24.4955 416.091L19.174 416.091ZM28.9961 410.573C28.9961 413.879 27.7783 416.066 26.9576 416.066C26.1369 416.066 24.919 413.879 24.919 410.573C24.919 410.191 24.9455 409.81 24.9719 409.403H28.9432C28.9697 409.81 28.9961 410.191 28.9961 410.573ZM67.4118 410.573C67.4118 410.166 67.4383 409.784 67.4647 409.403H71.436C71.4625 409.784 71.489 410.191 71.489 410.573C71.489 413.879 70.2711 416.066 69.4504 416.066C68.6297 416.091 67.4118 413.93 67.4118 410.573ZM79.2727 410.573C79.2727 413.879 78.0548 416.066 77.2341 416.066H71.8861C73.0246 414.235 73.3158 411.539 73.1304 409.403H79.2197C79.2462 409.81 79.2727 410.191 79.2727 410.573ZM120.283 415.074C120.045 415.507 119.7 415.99 119.197 416.091C118.747 416.091 118.059 415.303 117.609 413.828C117.238 412.582 117.079 411.081 117.238 409.428H121.209C121.368 411.31 121.183 413.37 120.283 415.074ZM114.458 405.334C110.672 404.495 110.566 402.155 107.866 400.197H114.432C115.173 400.197 115.888 400.349 116.523 400.655C115.544 401.952 114.829 403.554 114.458 405.334ZM87.1626 402.104C87.0832 403.579 87.4009 404.724 87.904 405.537C89.0954 407.445 91.6635 408.106 93.8344 407.724C99.4471 406.733 99.7648 398.595 104.637 400.4C109.349 401.799 108.476 405.665 114.194 406.911C114.089 408.081 114.141 408.487 114.141 408.589C114.141 409.021 114.539 409.377 114.989 409.377H115.545C115.412 411.056 115.571 412.633 115.942 414.006H85.231C85.0986 414.006 84.9662 413.955 84.8338 413.93C84.6485 410.776 84.8593 405.537 87.1626 402.104ZM129.02 410.573C129.02 412.328 128.676 413.396 128.649 413.548C128.199 415.201 127.484 416.066 126.981 416.066H121.633C121.792 415.812 121.686 416.041 122.031 415.379C122.851 413.65 123.063 411.31 122.904 409.429H128.967C128.994 409.785 129.02 410.191 129.02 410.573ZM124.307 397.247C121.766 396.713 119.436 397.628 117.636 399.383C116.683 398.874 115.571 398.595 114.432 398.595H32.1177C30.8734 398.595 29.682 398.951 28.676 399.535C26.9816 397.806 24.7577 396.84 22.3219 397.17C24.7312 394.475 28.2259 392.771 32.1177 392.771H114.432C118.35 392.745 121.899 394.475 124.307 397.247ZM106.251 391.118H87.004L87.6658 348.062H110.382L106.251 391.118ZM163.57 406.936C164.602 407.165 165.82 407.292 167.091 407.445C173.127 408.131 177.787 409.072 178.078 414.006C177.416 414.108 181.255 414.031 134.632 414.057C134.5 414.057 134.367 414.006 134.208 413.981C134.076 410.776 134.261 405.537 136.565 402.13C136.512 403.096 136.697 404.342 137.121 405.207C138.391 407.75 141.992 408.36 144.348 407.445C149.008 405.588 149.458 398.824 154.038 400.426C158.751 401.825 157.957 405.741 163.57 406.936ZM150.676 314.364C157.057 324.638 156.554 379.291 156.766 394.169C153.377 394.932 139.557 394.805 136.83 394.169L130.555 348.036C136.089 347.731 140.483 343.332 140.483 337.94C140.483 335.168 139.345 332.498 137.015 330.463L139.53 308.185C145.487 309.965 149.221 312.024 150.676 314.364ZM139.636 292.391L135.48 329.292C134.05 328.453 132.329 327.944 130.741 327.817L134.606 291.882C134.924 288.882 132.462 286.389 129.443 286.389H102.148C99.4739 286.389 97.2499 288.322 96.9852 290.916L93.3846 330.131L88.2484 330.462L91.9285 290.458C92.4315 285.321 96.8793 281.506 102.148 281.506H129.443C135.533 281.506 140.246 286.618 139.636 292.391ZM152.424 276.292C154.065 277.92 154.383 287.635 152.477 291.093C152.344 291.347 151.974 291.907 151.682 291.856C149.326 291.5 149.008 280.564 140.748 282.268C141.622 279.827 141.622 276.673 141.41 274.308C144.56 274.308 150.756 274.639 152.424 276.292ZM57.0082 201.526C51.7661 201.399 46.8153 201.628 41.2027 202.06C45.9683 199.059 51.6078 199.695 57.0082 201.526ZM48.7476 188.657C51.9246 188.734 63.3087 188.25 68.6569 178.383C68.6569 178.383 61.2706 165.794 66.9096 162.921C72.5753 160.047 71.8604 167.346 74.0051 167.422C76.8379 167.549 76.0702 160.327 74.0051 156.537C73.1049 154.91 72.6548 153.384 72.6548 152.138C75.3553 149.722 79.6975 151.858 83.0599 151.832C83.1658 154.197 83.0599 155.851 82.9804 157.554C81.8155 155.876 78.665 156.257 78.1884 158.267C78.612 158.267 81.8685 158.063 82.9539 157.936C82.8216 162.641 83.7217 167.371 85.6544 171.644C85.6544 171.669 85.7074 171.746 85.7074 171.771L85.6809 171.796C85.4426 172.254 84.0924 172.839 82.9804 173.119C82.5833 173.221 82.3185 173.551 82.345 173.933C82.345 173.933 82.3715 174.975 82.2656 176.527H79.4592C78.9562 176.527 78.5855 176.934 78.612 177.391C78.7444 179.044 80.0681 180.367 81.7361 180.596C81.5508 181.562 80.8889 184.411 80.2535 185.148C78.0296 188.073 69.2663 187.361 66.0896 186.852C65.6395 186.776 65.1895 187.081 65.11 187.539L63.1509 199.466C59.9739 195.524 53.9638 193.261 47.9805 194.481C48.007 194.38 48.7476 188.784 48.7476 188.657ZM19.6776 223.854C19.6776 213.478 27.779 204.907 38.5276 203.941C46.4439 203.102 61.3493 202.39 68.9741 204.628C69.3183 205.009 69.6889 204.908 70.0066 204.908H70.1125C70.7744 204.908 72.3364 205.009 74.4809 206.052C77.4196 207.451 80.4113 209.994 83.3766 213.656C88.6716 220.141 106.516 268.589 106.675 269.072C106.781 269.377 107.045 269.58 107.363 269.606L135.215 272.785C135.956 275.099 136.406 279.066 135.612 281.33C135.586 281.406 135.533 281.482 135.506 281.558C133.653 280.49 131.561 279.931 129.364 279.931H102.068C99.2356 279.931 96.5351 280.897 94.4172 282.601C92.1403 281.813 90.2077 280.185 89.0957 278.125L74.8253 237.435L74.1105 232.348C73.7399 230.721 72.8397 229.322 71.6218 228.279L69.6891 222.735C69.5303 222.303 69.0537 222.074 68.6036 222.227C68.1535 222.379 67.9153 222.837 68.0741 223.269L69.3714 226.932C68.4448 226.576 67.4652 226.347 66.4062 226.347H19.6249L19.6776 223.854ZM8.42541 227.923H55.7631C58.9931 227.923 61.773 230.136 62.3819 233.137C62.4613 233.671 76.0165 331.354 78.1081 346.432L63.3084 346.407H63.2819L16.3414 346.432C15.0441 346.432 13.8527 345.949 12.9526 345.059C12.0524 344.169 11.5759 342.999 11.6288 341.651C2.07099 238.779 1.78023 235.472 1.7538 235.374C1.14487 231.406 4.32175 227.923 8.42541 227.923Z" fill="#0A2D47"/>
<path d="M282.074 49.416H300.66C301.136 49.416 301.507 49.0599 301.507 48.6021C301.507 48.1444 301.136 47.7883 300.66 47.7883H282.074C281.598 47.7883 281.227 48.1444 281.227 48.6021C281.227 49.0599 281.598 49.416 282.074 49.416Z" fill="#0A2D47"/>
<path d="M282.074 54.2204H290.705C291.181 54.2204 291.552 53.8643 291.552 53.4066C291.552 52.9488 291.181 52.5928 290.705 52.5928H282.074C281.598 52.5928 281.227 52.9488 281.227 53.4066C281.227 53.8643 281.598 54.2204 282.074 54.2204Z" fill="#0A2D47"/>
<path d="M302.116 148.271L301.851 149.161C301.719 149.593 301.983 150.051 302.433 150.178C330.259 157.808 328.617 157.401 328.829 157.401C329.2 157.401 329.544 157.172 329.65 156.816L337.513 130.469C337.645 130.036 337.381 129.579 336.931 129.451L335.819 129.146L336.083 128.256C336.216 127.824 335.951 127.366 335.501 127.239L309.343 120.042C308.893 119.914 308.417 120.169 308.284 120.601C300.104 148.347 300.183 147.025 300.501 147.584C300.739 148.042 301.216 147.991 302.116 148.271ZM309.661 121.847L334.204 128.612L326.817 153.383L302.275 146.643L309.661 121.847Z" fill="#0A2D47"/>
<path d="M310.696 130.517C329.705 135.73 328.567 135.476 328.805 135.476C329.176 135.476 329.52 135.247 329.626 134.891C329.758 134.459 329.494 134.001 329.044 133.874L311.173 128.965C310.723 128.838 310.246 129.093 310.114 129.525C309.982 129.932 310.246 130.39 310.696 130.517Z" fill="#0A2D47"/>
<path d="M318.057 135.862L309.77 133.573C309.319 133.446 308.843 133.7 308.711 134.133C308.578 134.565 308.843 135.023 309.293 135.15C318.03 137.54 317.606 137.464 317.818 137.464C318.189 137.464 318.533 137.235 318.639 136.879C318.771 136.447 318.507 135.989 318.057 135.862Z" fill="#0A2D47"/>
<path d="M359.224 194.938C358.8 194.582 358.377 194.811 357.45 194.836L357.371 193.921C357.344 193.463 356.921 193.132 356.471 193.158L329.334 195.167C328.857 195.192 328.513 195.599 328.566 196.032L330.737 223.37C330.763 223.803 331.16 224.159 331.637 224.108L332.802 224.032L332.881 224.947C332.908 225.379 333.331 225.735 333.781 225.71L360.918 223.701C361.395 223.676 361.739 223.269 361.686 222.836C359.303 194.073 359.727 195.345 359.224 194.938ZM330.313 196.718L355.756 194.836C358.324 227.109 357.715 219.301 357.821 220.548C356.921 220.624 337.753 222.023 332.378 222.429L330.313 196.718Z" fill="#0A2D47"/>
<path d="M334.337 204.495H334.416L352.949 203.122C353.425 203.097 353.769 202.69 353.717 202.257C353.69 201.8 353.266 201.469 352.816 201.52L334.284 202.893C333.807 202.919 333.463 203.325 333.516 203.758C333.516 204.165 333.887 204.495 334.337 204.495Z" fill="#0A2D47"/>
<path d="M343.256 207.041L334.652 207.677C334.175 207.702 333.831 208.109 333.884 208.542C333.91 208.974 334.281 209.305 334.731 209.305H334.811L343.415 208.669C343.891 208.643 344.236 208.237 344.183 207.804C344.13 207.346 343.706 206.99 343.256 207.041Z" fill="#0A2D47"/>
<path d="M303.891 185.068L296.902 160.425C296.849 160.221 296.69 160.043 296.505 159.942C296.029 159.687 295.658 159.967 294.864 160.12C294.652 159.56 294.705 159.102 294.255 158.848C294.069 158.746 293.831 158.721 293.619 158.772L269.156 165.181C268.706 165.308 268.441 165.74 268.574 166.172L275.563 190.816C275.669 191.172 275.986 191.426 276.383 191.426C276.569 191.426 276.648 191.375 277.601 191.146C277.813 191.706 277.76 192.164 278.21 192.418C278.422 192.52 278.634 192.545 278.846 192.494L303.309 186.111C303.759 185.958 304.024 185.526 303.891 185.068ZM270.427 166.528L293.248 160.552C301.455 189.518 299.47 182.499 299.788 183.619L277.945 189.341C277.84 189.366 276.834 189.62 276.966 189.595L270.427 166.528Z" fill="#0A2D47"/>
<path d="M292.851 167.62C292.718 167.188 292.268 166.933 291.818 167.061L275.113 171.435C274.663 171.562 274.398 171.994 274.53 172.427C274.663 172.859 275.113 173.113 275.563 172.986L292.268 168.612C292.692 168.485 292.957 168.052 292.851 167.62Z" fill="#0A2D47"/>
<path d="M285.117 174.287C284.985 173.855 284.535 173.6 284.085 173.727L276.328 175.762C275.878 175.889 275.613 176.321 275.745 176.754C275.878 177.186 276.328 177.44 276.778 177.313L284.535 175.279C284.985 175.177 285.25 174.719 285.117 174.287Z" fill="#0A2D47"/>
<path d="M353.768 49.292C355.621 49.5718 358.957 39.0686 360.175 31.9989C361.393 24.9038 354.721 23.8608 353.503 30.9308C352.286 38.0259 351.915 49.0121 353.768 49.292Z" fill="#0A2D47"/>
<path d="M352.528 56.5903C354.116 56.8446 355.625 55.802 355.89 54.276C356.155 52.7501 355.069 51.3006 353.481 51.0463C351.892 50.7919 350.383 51.8346 350.118 53.3605C349.854 54.8865 350.913 56.336 352.528 56.5903Z" fill="#0A2D47"/>
<path d="M375.267 143.44L369.707 139.523C369.336 139.269 368.807 139.345 368.516 139.701C368.251 140.057 368.33 140.566 368.701 140.846L371.719 142.982C361.764 142.906 351.678 140.261 341.802 135.175C341.405 134.971 340.875 135.098 340.664 135.505C340.452 135.912 340.584 136.395 341.008 136.599C351.042 141.787 361.288 144.457 371.454 144.61C370.051 145.424 368.833 146.492 367.88 147.763C367.483 148.297 367.88 149.06 368.568 149.06C368.833 149.06 369.098 148.933 369.257 148.73C370.633 146.899 372.725 145.5 374.975 144.915C375.664 144.686 375.849 143.821 375.267 143.44Z" fill="#0A2D47"/>
<path d="M403.387 181.025C402.937 180.898 402.461 181.152 402.355 181.584C398.939 193.436 388.958 203.125 375.456 205.897C376.356 204.117 377.071 202.235 377.6 200.302C377.706 199.87 377.441 199.412 376.991 199.31C376.541 199.209 376.064 199.463 375.959 199.895C375.217 202.667 374.026 205.287 372.49 207.728C372.199 208.186 372.437 208.796 372.993 208.949C379.718 210.704 379.374 210.627 379.586 210.627C380.565 210.627 380.751 209.279 379.798 209.025L374.503 207.652C374.582 207.525 374.661 207.372 374.741 207.219C374.926 207.474 375.244 207.601 375.588 207.525C389.62 204.727 400.342 194.681 403.996 181.991C404.102 181.584 403.837 181.127 403.387 181.025Z" fill="#0A2D47"/>
<path d="M322.53 216.937C309.61 217.497 297.008 211.215 290.151 199.873C292.19 200.152 294.281 200.229 296.346 200.101C296.823 200.076 297.167 199.695 297.14 199.237C297.114 198.779 296.717 198.448 296.24 198.474C293.275 198.626 290.31 198.372 287.398 197.711C286.842 197.584 286.339 198.016 286.365 198.55L286.683 204.883C286.709 205.315 287.08 205.646 287.53 205.646C288.007 205.646 288.404 205.264 288.377 204.781L288.112 199.517C288.271 199.542 288.43 199.567 288.589 199.593C288.404 199.847 288.377 200.178 288.536 200.458C295.632 212.385 308.843 219.124 322.583 218.539C323.059 218.514 323.404 218.132 323.404 217.7C323.377 217.268 322.98 216.912 322.53 216.937Z" fill="#0A2D47"/>
<path d="M411.351 32.6577C394.83 35.1246 381.99 48.9593 381.99 65.6678C381.99 84.1055 397.584 99.0848 416.752 99.0848C435.973 99.0848 451.54 84.1563 451.54 65.6678C451.54 45.1448 432.425 29.504 411.351 32.6577ZM449.846 65.4901C399.967 64.5237 427.051 65.0577 417.837 64.8797L417.652 33.9295C435.417 34.3619 449.74 48.3232 449.846 65.4901ZM383.658 65.6427C383.658 55.6992 388.583 46.2889 396.843 40.2876L415.931 65.8718C416.117 66.533 417.414 67.3214 439.521 88.6839C433.352 94.3297 425.303 97.4327 416.726 97.4327C398.511 97.4581 383.658 83.1904 383.658 65.6427Z" fill="#0A2D47"/>
<path d="M401.903 130.595C402.379 130.595 402.75 130.239 402.75 129.781V126.551C402.75 126.093 402.379 125.737 401.903 125.737H391.525C391.048 125.737 390.678 126.093 390.678 126.551V129.781C390.678 130.239 391.048 130.595 391.525 130.595H401.903Z" fill="#0A2D47"/>
<path d="M416.725 122.483H406.348C405.871 122.483 405.5 122.839 405.5 123.297V129.782C405.5 130.24 405.871 130.596 406.348 130.596H416.725C417.202 130.596 417.573 130.24 417.573 129.782V123.297C417.573 122.864 417.202 122.483 416.725 122.483Z" fill="#0A2D47"/>
<path d="M431.555 109.234H421.177C420.7 109.234 420.33 109.59 420.33 110.048V129.782C420.33 130.24 420.7 130.596 421.177 130.596H431.555C432.032 130.596 432.402 130.24 432.402 129.782V110.048C432.402 109.615 432.005 109.234 431.555 109.234Z" fill="#0A2D47"/>
<path d="M446.351 124.032H435.973C435.496 124.032 435.125 124.388 435.125 124.846V129.78C435.125 130.238 435.496 130.594 435.973 130.594H446.351C446.827 130.594 447.198 130.238 447.198 129.78V124.846C447.198 124.388 446.827 124.032 446.351 124.032Z" fill="#0A2D47"/>
<path d="M141.967 46.3884C146.785 46.3884 149.433 41.3784 153.563 41.5564C156.263 41.6835 158.752 44.2267 161.955 44.3539C164.179 44.4556 166.033 43.3875 167.886 42.7771C170.772 41.8107 174.028 41.8107 177.179 41.8107C177.655 41.8107 178.026 41.4546 178.026 40.9969C178.026 40.5391 177.655 40.1831 177.179 40.1831C173.922 40.1831 170.454 40.2085 167.33 41.2512C165.53 41.8615 163.809 42.8279 162.009 42.7516C159.282 42.6499 156.846 40.0813 153.616 39.9542C151.127 39.8524 149.009 41.2003 147.235 42.4464C145.779 43.4892 143.952 44.7607 141.94 44.7607C140.775 44.7607 139.69 44.0232 139.293 43.3111C139.002 42.777 139.24 42.4464 139.293 42.3447C139.558 41.9886 139.478 41.48 139.081 41.2003C138.71 40.9459 138.181 41.0222 137.89 41.4037C136.354 43.6162 139.081 46.3884 141.967 46.3884Z" fill="#0A2D47"/>
<path d="M169.186 53.8427C168.392 54.2242 168.657 55.394 169.557 55.394C169.689 55.394 169.821 55.3686 169.927 55.3177C174.216 53.3087 179.697 53.1561 184.224 54.9617C184.648 55.1397 185.151 54.9363 185.336 54.5293C185.521 54.1224 185.31 53.6392 184.886 53.4612C179.909 51.4776 173.899 51.6302 169.186 53.8427Z" fill="#0A2D47"/>
<path d="M157.298 54.6306C159.045 54.8595 160.634 56.0548 162.487 56.6906C162.937 56.8432 163.414 56.6143 163.573 56.2074C163.731 55.7751 163.493 55.3173 163.069 55.1647C159.972 54.0966 157.483 51.0957 151.526 54.6306C149.912 55.5971 148.508 56.6652 146.787 57.1484C145.305 57.5807 143.24 57.4281 142.34 56.3346C142.048 55.9785 141.519 55.9022 141.148 56.182C140.778 56.4617 140.698 56.9703 140.989 57.3264C141.916 58.4963 143.557 59.0049 145.172 59.0049C147.555 59.0049 149.356 57.9368 151.341 56.6906C151.685 56.4617 155.153 54.3509 157.298 54.6306Z" fill="#0A2D47"/>
<path d="M184.435 62.1305L179.485 63.2496C179.035 63.3513 178.743 63.7836 178.849 64.216C178.955 64.6483 179.405 64.9281 179.855 64.8263L184.806 63.7073C185.256 63.6056 185.547 63.1732 185.442 62.7409C185.362 62.3086 184.912 62.0288 184.435 62.1305Z" fill="#0A2D47"/>
<path d="M175.564 64.9823C175.458 64.55 175.008 64.2703 174.558 64.372L163.491 66.8643C159.838 67.6781 158.964 67.3475 157.296 66.5845C156.396 66.1776 155.681 65.8724 154.648 65.7453C154.172 65.6944 153.748 65.9996 153.695 66.4574C153.642 66.9151 153.96 67.322 154.437 67.3729C156.502 67.6272 157.296 68.975 160.235 68.975C161.956 68.975 162.432 68.7716 174.929 65.9741C175.379 65.8469 175.67 65.4147 175.564 64.9823Z" fill="#0A2D47"/>
<path d="M149.199 66.4795C148.96 66.5304 148.696 66.6067 148.457 66.6575C146.419 67.0899 143.851 66.7084 143.295 65.4368C143.109 65.0299 142.606 64.8265 142.183 65.0045C141.759 65.1825 141.547 65.6657 141.733 66.0726C142.474 67.7257 144.619 68.4377 146.789 68.4377C147.875 68.4377 148.669 68.2851 149.622 68.0562C150.072 67.9545 150.364 67.4967 150.231 67.0644C150.099 66.6321 149.649 66.3778 149.199 66.4795Z" fill="#0A2D47"/>
<path d="M183.378 75.2296C182.028 75.6111 180.89 76.3232 179.831 77.0098C179.142 77.4676 179.486 78.4848 180.307 78.4848C180.466 78.4848 180.651 78.434 180.784 78.3323C181.737 77.6965 182.69 77.0861 183.802 76.7809C185.099 76.4249 186.873 76.6284 187.508 77.5948C187.747 77.9762 188.276 78.1034 188.673 77.8491C189.07 77.6202 189.203 77.1116 188.938 76.73C187.879 75.077 185.258 74.721 183.378 75.2296Z" fill="#0A2D47"/>
<path d="M175.509 77.9773C175.536 77.5195 175.165 77.138 174.715 77.1126C170.823 76.9092 169.155 75.6885 165.422 75.0781C164.972 75.0018 164.522 75.307 164.443 75.7393C164.363 76.1717 164.681 76.604 165.131 76.6803C168.626 77.2652 170.506 78.5114 174.609 78.7403C175.112 78.7657 175.483 78.4097 175.509 77.9773Z" fill="#0A2D47"/>
<path d="M140.089 76.9874C139.984 77.4198 140.275 77.8521 140.725 77.9538C147.582 79.4289 153.407 76.606 158.913 76.1228C159.39 76.0719 159.734 75.6904 159.681 75.2327C159.628 74.7749 159.231 74.4443 158.754 74.4952C155.127 74.8003 152.533 75.7413 149.25 76.3262C146.285 76.8349 143.32 76.8603 141.07 76.3771C140.646 76.2754 140.195 76.5551 140.089 76.9874Z" fill="#0A2D47"/>
<path d="M184.517 86.037C180.387 84.918 175.753 85.1977 171.862 86.7999C171.015 87.156 171.279 88.3512 172.206 88.3512C172.312 88.3512 172.418 88.3258 172.55 88.275C176.098 86.8253 180.307 86.571 184.093 87.5883C184.543 87.7155 185.02 87.4611 185.126 87.0288C185.231 86.6219 184.967 86.1641 184.517 86.037Z" fill="#0A2D47"/>
<path d="M150.493 89.2662C152.532 88.2744 154.809 87.0537 156.9 87.5114C160.157 88.2235 162.063 92.9029 167.729 90.665C168.152 90.4869 168.364 90.0292 168.205 89.5969C168.02 89.1899 167.543 88.9865 167.093 89.1391C162.407 90.9956 161.269 86.774 157.271 85.9093C154.624 85.3498 152.188 86.6214 149.752 87.7912C147.846 88.6813 145.119 89.2917 143.716 88.071C143.372 87.7658 142.842 87.7912 142.524 88.1218C142.207 88.4524 142.233 88.9611 142.577 89.2662C145.145 91.5042 149.302 89.8257 150.493 89.2662Z" fill="#0A2D47"/>
<path d="M178.742 98.5239C178.372 98.2696 177.842 98.3459 177.551 98.7274C171.488 106.967 165.399 121.616 161.03 131.127C160.739 129.5 160.316 127.923 159.76 126.346C159.601 125.914 159.124 125.685 158.701 125.838C158.251 125.99 158.012 126.448 158.171 126.855C158.965 129.118 159.468 131.458 159.733 133.823C159.786 134.357 160.369 134.688 160.898 134.484L167.702 131.839C168.126 131.661 168.338 131.204 168.179 130.771C167.993 130.364 167.517 130.161 167.067 130.314L162.434 132.119C166.776 122.735 172.944 107.806 178.981 99.6175C179.219 99.3123 179.113 98.8037 178.742 98.5239Z" fill="#0A2D47"/>
<path d="M177.522 146.162L172.863 147.154C172.413 147.255 172.121 147.688 172.227 148.12C172.333 148.552 172.783 148.832 173.234 148.73L177.893 147.739C178.343 147.637 178.634 147.204 178.529 146.772C178.423 146.34 177.973 146.06 177.522 146.162Z" fill="#0A2D47"/>
<path d="M149.273 151.422C150.65 151.524 151.497 152.058 152.821 152.338C155.336 152.846 156.872 152.21 168.547 149.743C168.997 149.642 169.288 149.209 169.182 148.777C169.076 148.345 168.626 148.065 168.176 148.167C156.527 150.608 155.257 151.168 153.165 150.735C151.974 150.506 151.021 149.921 149.379 149.794C148.929 149.769 148.506 150.099 148.479 150.557C148.453 151.015 148.823 151.397 149.273 151.422Z" fill="#0A2D47"/>
<path d="M144.698 152.112C145.148 152.01 145.44 151.578 145.334 151.12C145.228 150.688 144.778 150.408 144.301 150.51C144.063 150.561 143.825 150.612 143.613 150.663C141.495 151.095 139.165 150.764 138.715 149.95C138.477 149.544 137.974 149.416 137.576 149.62C137.153 149.849 137.02 150.332 137.232 150.713C138.424 152.85 142.262 152.672 144.698 152.112Z" fill="#0A2D47"/>
<path d="M171.145 160.25C171.171 159.792 170.827 159.411 170.35 159.385C166.379 159.157 164.632 158.572 160.978 158.19C160.502 158.139 160.105 158.47 160.052 158.902C159.999 159.36 160.343 159.742 160.793 159.792C164.367 160.174 166.194 160.784 170.271 160.988C170.244 161.013 171.118 160.682 171.145 160.25Z" fill="#0A2D47"/>
<path d="M154.384 159.462C154.86 159.488 155.231 159.106 155.257 158.674C155.257 158.216 154.887 157.86 154.437 157.835C148.453 157.733 143.449 158.242 136.698 157.58C136.248 157.529 135.824 157.86 135.771 158.318C135.719 158.776 136.063 159.157 136.539 159.208C143.317 159.869 148.532 159.361 154.384 159.462Z" fill="#0A2D47"/>
<path d="M180.227 166.226C176.123 165.336 171.543 165.489 167.704 166.633C167.254 166.761 167.015 167.218 167.148 167.651C167.28 168.083 167.783 168.312 168.207 168.185C171.781 167.117 176.017 166.964 179.829 167.803C180.279 167.905 180.729 167.625 180.835 167.193C180.967 166.786 180.677 166.328 180.227 166.226Z" fill="#0A2D47"/>
<path d="M162.964 168.388C158.172 169.762 156.954 166.481 153.009 165.794C150.441 165.337 148.085 166.252 145.649 167.142C143.717 167.829 140.937 168.261 139.454 167.269C139.057 167.015 138.554 167.091 138.263 167.473C137.998 167.854 138.077 168.337 138.475 168.617C140.99 170.296 145.04 169.1 146.205 168.693C148.35 167.93 150.521 167.04 152.691 167.422C156.08 168.032 157.907 171.567 163.44 169.99C163.89 169.863 164.155 169.406 163.996 168.973C163.89 168.49 163.414 168.261 162.964 168.388Z" fill="#0A2D47"/>
<path d="M333.781 78.9147C333.41 78.6349 332.881 78.7112 332.589 79.0927C325.785 87.8668 321.523 97.1996 319.881 106.838C319.246 105.389 318.319 104.092 317.154 102.973C316.81 102.668 316.281 102.668 315.963 102.998C315.645 103.329 315.645 103.837 315.99 104.143C317.684 105.719 318.796 107.906 319.087 110.144C319.167 110.831 320.04 111.111 320.543 110.628L325.388 105.923C325.706 105.592 325.706 105.084 325.388 104.778C325.044 104.473 324.514 104.473 324.197 104.778L321.576 107.322C323.138 97.8611 327.321 88.68 334.019 80.0335C334.231 79.6774 334.151 79.169 333.781 78.9147Z" fill="#0A2D47"/>
<path d="M276.144 96.4409C275.667 96.4409 275.297 96.8224 275.297 97.2547L275.323 100.434C269.843 93.2363 266.242 84.5898 264.654 74.6717C264.574 74.2394 264.151 73.9342 263.701 73.985C263.25 74.0613 262.933 74.4682 262.986 74.9005C264.601 84.997 268.254 93.8473 273.841 101.222C272.464 100.714 270.955 100.434 269.472 100.485C268.996 100.485 268.625 100.866 268.652 101.324C268.652 101.782 269.075 102.138 269.525 102.113C271.723 102.062 273.973 102.774 275.694 104.071C276.25 104.478 277.071 104.096 277.071 103.41L276.991 97.2043C276.991 96.7974 276.62 96.4409 276.144 96.4409Z" fill="#0A2D47"/>
<path d="M533.64 87.8926C533.322 87.562 532.793 87.562 532.448 87.8672C532.104 88.1723 532.104 88.681 532.422 89.0116C533.878 90.4866 533.56 92.8263 532.21 94.047C531.628 94.5557 532.025 95.4712 532.793 95.4712C533.004 95.4712 533.19 95.3949 533.375 95.2677C535.387 93.4367 535.784 90.0542 533.64 87.8926Z" fill="#0A2D47"/>
<path d="M515.639 81.5906C514.447 81.5906 513.521 82.9639 513.521 84.6424C513.521 86.3208 514.474 87.6942 515.639 87.6942C516.804 87.6942 517.757 86.3208 517.757 84.6424C517.757 82.9639 516.804 81.5906 515.639 81.5906Z" fill="#0A2D47"/>
<path d="M500.016 84.6634C500.016 82.9849 499.063 81.6116 497.898 81.6116C496.706 81.6116 495.78 82.9849 495.78 84.6634C495.78 86.3418 496.733 87.7151 497.898 87.7151C499.063 87.7151 500.016 86.3418 500.016 84.6634Z" fill="#0A2D47"/>
<path d="M511.985 79.123C513.574 78.9958 514.871 78.8687 516.168 78.9449C518.022 79.0467 519.134 79.479 520.246 79.7079C518.71 76.6561 513.76 76.6053 511.985 79.123Z" fill="#0A2D47"/>
<path d="M501.419 78.6609C499.354 75.8635 494.483 76.6264 493.158 79.3731C494.72 78.9916 495.965 78.6609 497.262 78.5593C499.115 78.3304 500.28 78.5846 501.419 78.6609Z" fill="#0A2D47"/>
<path d="M507.112 93.0295C506.079 93.2584 504.729 93.7416 503.882 93.0295C503.3 92.5717 503.538 91.5545 503.908 90.3846C504.517 88.1466 505.1 85.3491 505.1 83.0603C503.803 85.1711 501.896 90.1554 501.949 91.9868C501.896 94.123 504.544 95.5726 507.112 93.0295Z" fill="#0A2D47"/>
<path d="M499.413 97.8668C498.936 97.8668 498.565 98.2228 498.565 98.6806C498.565 98.8332 498.618 102.623 501.028 104.835C503.781 107.454 509.023 106.819 511.697 103.767C513.577 101.58 513.815 98.8332 513.815 98.7315C513.841 98.5026 513.762 98.2737 513.577 98.1211C513.1 97.6379 513.259 97.9685 499.413 97.8668ZM510.373 102.75C510.32 102.801 510.268 102.851 510.215 102.902C509.42 102.597 508.335 102.368 506.826 102.317C504.522 102.241 503.066 102.953 502.193 103.691C502.14 103.589 500.71 102.546 500.313 99.4945H511.962C511.751 100.359 511.327 101.656 510.373 102.75Z" fill="#0A2D47"/>
</svg>
