<svg width="56" height="150" viewBox="0 0 56 150" fill="none" xmlns="http://www.w3.org/2000/svg">
<path d="M28.1364 30.4384C36.5418 30.4384 43.3556 23.6246 43.3556 15.2192C43.3556 6.81388 36.5418 0 28.1364 0C19.7311 0 12.9172 6.81388 12.9172 15.2192C12.9172 23.6246 19.7311 30.4384 28.1364 30.4384Z" fill="#FEFEFE"/>
<path d="M55.4415 62.8916C54.5462 52.82 47.1604 41.1818 45.1461 40.0627C35.9698 34.2436 26.7935 31.7817 15.8267 36.7056C13.5886 37.6008 11.3505 39.1675 10.2314 39.8389C10.2314 39.8389 10.2314 39.8389 10.0076 39.8389C9.33617 40.2865 8.66473 40.7342 8.2171 41.4056C7.54567 42.5247 -5.65926 66.0249 2.84561 101.387C3.51705 103.849 5.75517 105.192 8.2171 104.744C10.679 104.073 12.0219 101.835 11.5743 99.3729C9.78379 92.2109 9.11236 85.7204 9.11236 79.6775L10.679 62.6677L11.7981 85.7204C11.7981 87.2871 12.6933 88.6299 13.8124 89.5252C11.1267 105.64 10.679 124.664 12.6933 143.912C13.141 147.269 16.0505 150.178 20.0792 149.954C23.884 149.507 26.3459 146.373 26.1221 142.569C24.1078 123.992 24.5554 105.863 27.2411 90.6442H28.584C31.046 104.968 31.2698 123.321 29.2555 142.569C28.8078 146.15 31.4936 149.507 35.2984 149.954C39.327 150.402 42.2366 147.493 42.6842 143.912C44.6985 123.992 44.4747 104.744 42.0128 89.5252L36.6413 94.6729C36.1936 95.1205 35.5222 95.1205 35.2984 94.6729C32.165 91.3157 29.9269 89.3014 30.1507 89.5252C29.9269 89.3014 27.9126 87.0633 28.1364 87.2871L22.0935 81.6918C21.6458 81.2441 21.6458 80.5727 22.0935 80.3489C22.3173 80.1251 32.3888 70.2774 31.7174 70.9488C33.0603 69.8297 35.0746 69.8297 36.1936 70.9488L39.5508 74.5298C40.2223 73.8583 40.8937 73.4107 41.3413 72.7393C45.3699 68.263 43.5794 64.2344 44.4747 56.401C48.7271 67.144 45.5938 74.0822 37.7603 78.5584C35.746 79.6775 34.8508 82.3632 35.9698 84.6013C37.0889 86.6156 39.5508 87.0633 40.2223 86.8394C40.6699 86.8394 41.1175 86.6156 41.5651 86.6156C41.5651 86.6156 41.5651 86.8394 41.3413 87.0633L42.0128 86.3918C47.3843 83.7061 53.2034 77.6632 54.7701 69.8297C55.4415 67.3678 55.6653 65.1297 55.4415 62.8916ZM13.141 39.6151C14.0362 38.9437 15.1553 38.496 16.0505 38.0484C18.5125 45.658 19.8553 53.9391 15.6029 60.8773C15.6029 60.6534 12.2457 39.8389 12.2457 40.0627C12.4695 39.8389 12.6933 39.6151 13.141 39.6151ZM30.8221 41.8532L29.4793 45.8818H25.4507L24.1078 41.8532C23.884 40.5104 30.8221 40.5104 30.8221 41.8532ZM42.2366 40.958L40.8937 49.239L39.1032 60.8773C34.8508 53.9391 36.1936 45.658 38.6556 38.0484C39.7746 38.496 40.8937 39.1675 42.4604 40.0627L42.2366 40.958ZM30.8221 61.3249L27.465 64.9059L24.1078 61.3249L25.2268 47.6723H29.7031L30.8221 61.3249Z" fill="#FEFEFE"/>
</svg>
