<svg width="71" height="89" viewBox="0 0 71 89" fill="none" xmlns="http://www.w3.org/2000/svg">
<path fill-rule="evenodd" clip-rule="evenodd" d="M67.4453 26.3636H53.5233C52.9921 26.3636 52.5585 25.9339 52.5585 25.3988C52.5585 24.8675 52.9882 24.4339 53.5233 24.4339H67.4453C67.9844 24.4339 68.4219 23.9964 68.4219 23.4574V2.89836C68.4219 2.3593 67.9844 1.9218 67.4453 1.9218H2.9023C2.36324 1.9218 1.92574 2.3593 1.92574 2.89836V23.4574C1.92574 23.9964 2.36324 24.4339 2.9023 24.4339H16.8243C17.3555 24.4339 17.7891 24.8675 17.7891 25.3988C17.7891 25.93 17.3594 26.3636 16.8243 26.3636H2.9023C1.3007 26.3636 0 25.0628 0 23.4613V2.9023C0 1.3007 1.3008 0 2.9023 0H67.4453C69.0469 0 70.3476 1.3008 70.3476 2.9023V23.4613C70.3476 25.0629 69.0468 26.3636 67.4453 26.3636Z" fill="#0A2D47"/>
<path fill-rule="evenodd" clip-rule="evenodd" d="M16.8274 14.7886H9.5188C8.98755 14.7886 8.55396 14.3589 8.55396 13.8237C8.55396 13.2925 8.98365 12.8589 9.5188 12.8589H16.8274C17.3586 12.8589 17.7922 13.2925 17.7922 13.8237C17.7922 14.355 17.3625 14.7886 16.8274 14.7886Z" fill="#0A2D47"/>
<path fill-rule="evenodd" clip-rule="evenodd" d="M52.4763 7.29296H20.9993C20.468 7.29296 20.0344 6.86327 20.0344 6.32812C20.0344 5.79687 20.4641 5.36328 20.9993 5.36328H52.4763C53.0075 5.36328 53.4411 5.79297 53.4411 6.32812C53.4411 6.85937 53.0114 7.29296 52.4763 7.29296Z" fill="#0A2D47"/>
<path fill-rule="evenodd" clip-rule="evenodd" d="M53.5234 58.6756H50.6757C50.1444 58.6756 49.7108 58.242 49.7108 57.7107C49.7108 57.1795 50.1444 56.7459 50.6757 56.7459H52.5624V14.7889H17.7924V56.7459H39.7184C40.2496 56.7459 40.6832 57.1795 40.6832 57.7107C40.6832 58.242 40.2535 58.6756 39.7184 58.6756H16.8274C16.2961 58.6756 15.8625 58.242 15.8625 57.7107V13.8237C15.8625 13.2925 16.2922 12.8589 16.8274 12.8589H53.5224C54.0536 12.8589 54.4872 13.2925 54.4872 13.8237V57.7107C54.4872 58.242 54.0546 58.6756 53.5234 58.6756Z" fill="#0A2D47"/>
<path fill-rule="evenodd" clip-rule="evenodd" d="M60.8313 14.7886H53.5227C52.9914 14.7886 52.5579 14.3589 52.5579 13.8237C52.5579 13.2925 52.9875 12.8589 53.5227 12.8589H60.8313C61.3625 12.8589 61.7961 13.2925 61.7961 13.8237C61.7961 14.355 61.3664 14.7886 60.8313 14.7886Z" fill="#0A2D47"/>
<path fill-rule="evenodd" clip-rule="evenodd" d="M40.6833 86.3515H65.0503V79.5781H40.6833V86.3515ZM66.0113 88.2773H39.7183C39.187 88.2773 38.7534 87.8476 38.7534 87.3125V78.6133C38.7534 78.082 39.1831 77.6484 39.7183 77.6484H66.0113C66.5425 77.6484 66.9761 78.082 66.9761 78.6133V87.3125C66.9761 87.8437 66.5464 88.2773 66.0113 88.2773Z" fill="#0A2D47"/>
<path fill-rule="evenodd" clip-rule="evenodd" d="M42.1283 79.5779C41.9213 79.5779 41.7142 79.5115 41.5385 79.3747C33.7065 73.3044 35.8197 66.9997 37.519 61.9337C38.5033 59.0001 39.351 56.4689 38.3783 54.3556C36.8744 51.7931 33.5853 45.5001 34.8861 41.4966C35.265 40.3247 36.0306 39.4575 37.1009 38.9927C37.1087 38.9888 37.1166 38.9849 37.1244 38.981C38.6088 38.3795 40.14 38.606 41.5463 39.6412C44.0736 41.5006 46.7768 47.1451 48.851 51.8562L48.9994 52.1921C49.9018 54.2351 51.5658 57.4226 53.9447 61.6726C54.2064 62.1375 54.0385 62.7234 53.5736 62.9851C53.1088 63.2429 52.5228 63.0789 52.2611 62.614C49.8549 58.3132 48.1634 55.071 47.2377 52.9734L47.0893 52.6336C46.0385 50.2469 42.8432 42.9852 40.4057 41.1956C39.5346 40.555 38.726 40.4183 37.8627 40.762C37.3041 41.0081 36.933 41.4456 36.7221 42.0901C35.9955 44.3323 37.2768 48.6721 40.0659 53.4181C40.0815 53.4415 40.0932 53.4689 40.1049 53.4962C41.4369 56.3165 40.4214 59.3439 39.3471 62.547C37.6869 67.5001 35.9721 72.621 42.7182 77.852C43.1401 78.1762 43.2143 78.7856 42.8901 79.2036C42.6987 79.4497 42.4136 79.5786 42.1284 79.5747L42.1283 79.5779Z" fill="#0A2D47"/>
<path fill-rule="evenodd" clip-rule="evenodd" d="M64.2804 79.5777C63.7492 79.5777 63.3156 79.148 63.3156 78.6129C63.3156 78.0191 63.3156 77.4762 63.3117 76.9723C63.3 70.7731 63.3195 70.6676 65.5969 65.4723C65.8703 64.8512 66.175 64.1559 66.5148 63.3668C68.2843 59.2809 68.921 56.0816 66.6555 52.7618L52.7215 32.3518C52.4207 31.9104 52.534 31.3127 52.9754 31.012C53.4168 30.7112 54.0145 30.8245 54.3152 31.2659L68.2492 51.6759C71.0031 55.7111 70.257 59.5743 68.2843 64.1329C67.9406 64.9298 67.632 65.6251 67.3624 66.2501C65.2257 71.1212 65.2257 71.1212 65.2374 76.9731C65.2374 77.477 65.2413 78.0239 65.2413 78.6176C65.2413 79.1489 64.8117 79.5824 64.2765 79.5824L64.2804 79.5777Z" fill="#0A2D47"/>
<path fill-rule="evenodd" clip-rule="evenodd" d="M47.2573 51.6136C46.726 51.6136 46.2924 51.1839 46.2924 50.6488V13.8208C46.2924 13.2895 46.7221 12.856 47.2573 12.856C47.7885 12.856 48.2221 13.2856 48.2221 13.8208V50.6448C48.2221 51.176 47.7924 51.6096 47.2573 51.6096V51.6136ZM37.8979 52.4105H23.0889C22.5576 52.4105 22.124 51.9808 22.124 51.4457V13.8247C22.124 13.2934 22.5537 12.8598 23.0889 12.8598C23.6201 12.8598 24.0537 13.2895 24.0537 13.8247V50.4847H37.8977C38.429 50.4847 38.8625 50.9144 38.8625 51.4495C38.8625 51.9808 38.4329 52.4144 37.8977 52.4144L37.8979 52.4105Z" fill="#0A2D47"/>
<path fill-rule="evenodd" clip-rule="evenodd" d="M38.0582 26.1056C37.527 26.1056 37.0934 25.6759 37.0934 25.1407C37.0934 24.6095 37.5231 24.1759 38.0582 24.1759C39.1168 24.1759 39.9762 23.3165 39.9762 22.2579C39.9762 21.1992 39.1129 20.3399 38.0582 20.3399C36.9996 20.3399 36.1402 21.1993 36.1402 22.2579C36.1402 24.379 34.4136 26.1056 32.2925 26.1056C30.1714 26.1056 28.4448 24.379 28.4448 22.2579C28.4448 20.1368 30.1714 18.4102 32.2925 18.4102C32.8238 18.4102 33.2574 18.8399 33.2574 19.375C33.2574 19.9063 32.8277 20.3399 32.2925 20.3399C31.2339 20.3399 30.3745 21.1992 30.3745 22.2579C30.3745 23.3165 31.2339 24.1759 32.2925 24.1759C33.3511 24.1759 34.2105 23.3165 34.2105 22.2579C34.2105 20.1368 35.9371 18.4102 38.0582 18.4102C40.1793 18.4102 41.9059 20.1368 41.9059 22.2579C41.9059 24.379 40.1793 26.1056 38.0582 26.1056Z" fill="#0A2D47"/>
<path fill-rule="evenodd" clip-rule="evenodd" d="M29.4094 23.2226H26.5852C26.054 23.2226 25.6204 22.793 25.6204 22.2578C25.6204 21.7266 26.0501 21.293 26.5852 21.293H29.4094C29.9407 21.293 30.3742 21.7266 30.3742 22.2578C30.3742 22.7891 29.9446 23.2226 29.4094 23.2226Z" fill="#0A2D47"/>
<path fill-rule="evenodd" clip-rule="evenodd" d="M43.7654 23.2226H40.9412C40.4099 23.2226 39.9763 22.793 39.9763 22.2578C39.9763 21.7266 40.4099 21.293 40.9412 21.293H43.7654C44.2966 21.293 44.7302 21.7266 44.7302 22.2578C44.7302 22.7891 44.2966 23.2226 43.7654 23.2226Z" fill="#0A2D47"/>
<path fill-rule="evenodd" clip-rule="evenodd" d="M37.4643 36.3706H32.8862C32.355 36.3706 31.9214 35.9409 31.9214 35.4058C31.9214 34.8745 32.3511 34.4409 32.8862 34.4409H37.4643C37.9956 34.4409 38.4292 34.8745 38.4292 35.4058C38.4292 35.937 37.9956 36.3706 37.4643 36.3706Z" fill="#0A2D47"/>
</svg>
