<svg width="72" height="155" viewBox="0 0 72 155" fill="none" xmlns="http://www.w3.org/2000/svg">
<path d="M21.7936 29.1028C22.1636 29.2261 22.6568 29.3494 23.0268 29.3494C23.6434 29.4727 24.26 29.4727 24.9999 29.4727C26.233 29.4727 27.4662 29.3494 28.6994 28.9795C29.1926 28.8561 29.6859 28.7328 30.1792 28.4862C34.3719 26.8831 37.8248 23.1836 39.3046 18.8675C39.6745 17.6343 39.9212 16.2778 39.9212 14.798C40.0445 6.90574 33.2621 0 25.3698 0C17.3542 0 10.5718 6.53579 10.4485 14.5514C10.4485 16.2778 10.6951 18.0043 11.435 19.6074C13.0381 24.1701 17.1076 27.8696 21.7936 29.1028Z" fill="#FEFEFE"/>
<path d="M61.3783 90.5143C62.9814 91.0076 64.8312 90.761 66.311 89.6511C68.5307 87.9247 69.1472 84.8418 67.6674 82.3754L63.7213 76.0863L56.8156 65.1111L50.1565 42.0508L49.5399 39.9544C48.5534 36.7482 45.2238 36.1316 42.3875 35.7617C40.1678 35.515 37.9481 35.1451 35.7284 34.8984C35.7284 34.8984 35.4818 34.8984 35.3585 34.8984H35.1118C34.6186 35.0218 34.1253 35.3917 33.8787 36.0083C33.8787 36.1316 33.7553 36.2549 33.7553 36.3782C33.7553 36.5016 33.1388 38.4746 32.2755 40.941C32.1522 41.3109 32.0289 41.6809 31.9056 42.0508C31.0424 44.8871 29.9325 48.34 29.3159 50.4364L28.8227 46.4902V46.2436L28.6994 45.3804C28.576 44.7638 28.576 44.2705 28.4527 43.7773V43.5306C28.4527 43.4073 28.4527 43.284 28.4527 43.284L28.3294 42.4208C28.3294 42.0508 28.2061 41.8042 28.2061 41.5575C28.3294 41.1876 28.4527 40.941 28.6994 40.4477C28.8227 40.2011 28.8227 40.0777 28.946 39.8311L29.0693 39.5845C29.1926 39.3378 29.4393 38.8446 29.4393 38.4746C29.4393 38.228 28.946 36.8715 28.8227 36.8715C28.6994 36.6249 28.4527 36.3782 27.9595 36.2549H27.4662C27.3429 36.2549 27.2196 36.2549 27.2196 36.2549C26.9729 36.2549 26.1097 36.2549 25.1232 36.2549H24.7532C24.0133 36.2549 23.3967 36.2549 23.1501 36.2549C23.0268 36.2549 22.9035 36.2549 22.7802 36.2549H22.5335C22.1636 36.3782 21.9169 36.5016 21.7936 36.7482C21.6703 36.8715 21.6703 36.8715 21.4237 37.4881C21.177 38.1047 21.177 38.3513 21.177 38.4746C21.177 38.8446 21.3004 39.2145 21.547 39.5845L21.6703 39.8311C21.7936 39.9544 21.7936 40.2011 21.9169 40.571C22.0403 40.8176 22.1636 41.0643 22.2869 41.4342V41.5575C22.2869 41.6809 22.2869 41.9275 22.1636 42.4208L22.0403 43.284C22.0403 43.4073 22.0403 43.5306 22.0403 43.5306C21.9169 44.7638 21.6703 46.3669 21.4237 47.97L21.0537 50.4364C20.3138 48.0933 19.0807 44.1472 18.0941 41.0643C17.2309 38.1047 16.6143 36.5016 16.6143 36.3782C16.491 35.885 16.2444 35.6383 15.9977 35.3917C15.7511 35.1451 15.5045 35.0218 15.2578 34.8984H15.0112C14.6413 34.8984 13.778 35.1451 12.1749 35.6383L11.435 35.885C11.0651 36.0083 10.8184 36.1316 10.6951 36.1316C8.47543 36.8715 6.25573 37.4881 4.03602 38.3513C2.43291 38.9679 1.32306 40.0777 1.19974 41.8042C1.19974 42.1741 1.07642 43.1607 0.953108 44.2705C0.829791 45.627 0.706475 47.1068 0.583158 47.7234C0.459842 53.8892 0.459839 71.7702 0.459839 79.1692C0.459839 81.0189 0.459842 82.992 0.583158 84.8418C0.583158 86.6915 0.953106 88.5413 1.69301 90.2677C2.43291 92.1175 3.54276 93.8439 5.02256 95.5703L5.14588 95.6936C5.39251 95.9403 5.51583 96.3102 5.76246 96.5569C5.76246 97.2968 5.76246 98.0367 5.88578 98.6532V99.3931C6.00909 101.12 6.13241 108.395 6.37904 116.658C6.62568 129.606 6.99563 145.02 6.99563 145.39C6.99563 146.624 7.11894 148.103 7.36558 149.336C7.61221 150.2 7.85884 150.94 8.22879 151.679C9.58528 154.269 12.2982 155.379 15.2578 154.886C18.0941 154.392 20.1905 152.296 20.8071 149.213C20.8071 148.967 20.9304 148.597 20.9304 148.35C21.6703 138.978 22.1636 125.413 22.9035 116.041C22.9035 115.424 23.0268 114.684 23.0268 114.068C23.2734 109.628 23.6434 105.312 24.1366 100.873C24.1366 100.75 24.1366 100.626 24.26 100.503C24.8765 99.3932 26.4797 99.3932 27.2196 100.38C27.3429 100.503 27.3429 100.626 27.4662 100.75C27.4662 100.873 27.5895 100.996 27.5895 101.12C28.3294 108.395 28.946 115.671 29.5626 122.947C30.1792 130.222 30.7957 141.691 31.5356 148.967C31.5356 149.213 31.5356 149.336 31.659 149.583C32.0289 152.666 34.002 154.516 37.0849 154.886C41.5243 155.502 44.3606 152.419 44.3606 147.24C44.3606 137.375 44.8539 95.5703 45.2238 70.6603L45.4704 71.0303L58.7886 88.2946C59.5285 89.5278 60.3918 90.1444 61.3783 90.5143Z" fill="#FEFEFE"/>
<path d="M67.4208 94.7075H60.0218C57.6788 94.7075 55.7057 96.6806 55.7057 99.0236V133.059C55.7057 135.402 57.6788 137.375 60.0218 137.375H67.4208C69.7638 137.375 71.7369 135.402 71.7369 133.059V98.9003C71.6135 96.5573 69.7638 94.7075 67.4208 94.7075Z" fill="#FEFEFE"/>
</svg>
