<svg width="30" height="26" viewBox="0 0 30 26" fill="none" xmlns="http://www.w3.org/2000/svg">
<path d="M15.1176 25C17.6725 25 20.1225 24.7476 22.393 24.2848C25.2291 23.7067 26.6472 23.4176 27.9413 21.7538C29.2353 20.09 29.2353 18.1802 29.2353 14.3602V11.6398C29.2353 7.81985 29.2353 5.90993 27.9413 4.24617C26.6472 2.58242 25.2291 2.29336 22.393 1.71523C20.1225 1.25238 17.6725 1 15.1176 1C12.5628 1 10.1128 1.25238 7.8422 1.71523C5.00611 2.29336 3.58806 2.58242 2.29402 4.24617C1 5.90993 1 7.81985 1 11.6398V14.3602C1 18.1802 1 20.09 2.29402 21.7538C3.58806 23.4176 5.00611 23.7067 7.8422 24.2848C10.1128 24.7476 12.5628 25 15.1176 25Z" stroke="#F8F0FD" stroke-width="1.5"/>
<path d="M20.7112 13.4415C20.5017 14.2968 19.3869 14.911 17.1575 16.1397C14.7325 17.4758 13.5201 18.144 12.538 17.8866C12.2054 17.7993 11.8991 17.646 11.6418 17.4381C10.8823 16.8241 10.8823 15.5493 10.8823 12.9998C10.8823 10.4503 10.8823 9.17547 11.6418 8.56143C11.8991 8.35345 12.2054 8.20018 12.538 8.113C13.5201 7.85559 14.7325 8.5237 17.1575 9.8599C19.3869 11.0885 20.5017 11.7028 20.7112 12.558C20.7825 12.8491 20.7825 13.1504 20.7112 13.4415Z" stroke="#F8F0FD" stroke-width="1.5" stroke-linejoin="round"/>
</svg>
