<svg width="458" height="401" viewBox="0 0 458 401" fill="none" xmlns="http://www.w3.org/2000/svg">
<path d="M47.372 399.843C47.372 399.843 -70.1304 283.251 64.9819 197.309C200.094 111.369 144.525 113.314 153.722 58.8732C162.919 4.43239 272.857 -33.323 312.39 43.3188C351.924 119.961 313.992 159.333 388.162 205.345C462.333 251.359 479.414 349.037 428.172 399.843H47.372Z" fill="#0A2D47"/>
<path opacity="0.7" d="M47.372 399.843C47.372 399.843 -70.1304 283.251 64.9819 197.309C200.094 111.369 144.525 113.314 153.722 58.8732C162.919 4.43239 272.857 -33.323 312.39 43.3188C351.924 119.961 313.992 159.333 388.162 205.345C462.333 251.359 479.414 349.037 428.172 399.843H47.372Z" fill="#0A2D47"/>
<path d="M247.391 86.1266H200.956V48.8293" stroke="#50A42A" stroke-miterlimit="10" stroke-linecap="round" stroke-linejoin="round"/>
<path d="M209.277 79.3447H205.561V86.1276H209.277V79.3447Z" stroke="#50A42A" stroke-miterlimit="10" stroke-linecap="round" stroke-linejoin="round"/>
<path d="M216.997 77.1983H213.281V86.1276H216.997V77.1983Z" stroke="#50A42A" stroke-miterlimit="10" stroke-linecap="round" stroke-linejoin="round"/>
<path d="M224.717 73.6195H221.001V86.1266H224.717V73.6195Z" stroke="#50A42A" stroke-miterlimit="10" stroke-linecap="round" stroke-linejoin="round"/>
<path d="M232.437 70.0418H228.721V86.1276H232.437V70.0418Z" stroke="#50A42A" stroke-miterlimit="10" stroke-linecap="round" stroke-linejoin="round"/>
<path d="M240.157 64.9843H236.442V86.1266H240.157V64.9843Z" stroke="#50A42A" stroke-miterlimit="10" stroke-linecap="round" stroke-linejoin="round"/>
<path d="M200.956 79.5872C200.956 79.5872 230.731 73.2429 244.972 54.3781" stroke="#50A42A" stroke-miterlimit="10" stroke-linecap="round" stroke-linejoin="round"/>
<path d="M243.104 53.7909L245.99 52.9911V56.1695" stroke="#50A42A" stroke-miterlimit="10" stroke-linecap="round" stroke-linejoin="round"/>
<path d="M236.443 30.3205C235.129 30.0491 233.793 29.8242 232.437 29.6477" stroke="#50A42A" stroke-miterlimit="10" stroke-linecap="round" stroke-linejoin="round"/>
<path d="M248.248 106.958C259.288 112.635 274.568 113.078 274.568 113.078C266.873 107.807 261.597 100.072 258.918 95.4677C267.083 88.4299 272.115 78.8576 272.115 68.302C272.115 52.0005 260.136 38.0271 243.102 32.145" stroke="#50A42A" stroke-miterlimit="10" stroke-linecap="round" stroke-linejoin="round"/>
<path d="M225.089 107.432C231.752 107.432 238.089 106.272 243.833 104.192" stroke="#50A42A" stroke-miterlimit="10" stroke-linecap="round" stroke-linejoin="round"/>
<path d="M183.212 86.1255C189.888 96.964 202.466 104.872 217.415 106.913" stroke="#50A42A" stroke-miterlimit="10" stroke-linecap="round" stroke-linejoin="round"/>
<path d="M178.06 68.302C178.06 70.4071 178.259 72.473 178.644 74.4884" stroke="#50A42A" stroke-miterlimit="10" stroke-linecap="round" stroke-linejoin="round"/>
<path d="M225.089 29.172C204.208 29.172 186.505 40.4965 180.367 56.1664" stroke="#50A42A" stroke-miterlimit="10" stroke-linecap="round" stroke-linejoin="round"/>
<path d="M306.544 133.516C306.544 133.516 286.724 139.356 282.256 148.848C277.789 158.339 268.855 184.861 268.855 184.861C268.855 184.861 260.48 199.658 260.48 204.124C260.48 208.59 272.875 225.172 278.458 229.639C284.042 234.105 304.927 204.685 304.927 204.685L306.544 133.516Z" fill="white" stroke="#263238" stroke-miterlimit="10" stroke-linecap="round" stroke-linejoin="round"/>
<path d="M396.158 265.472C396.416 265.704 397.19 275.628 397.19 275.628C397.19 275.628 402.487 286.085 402.417 302.08C402.349 318.075 407.509 400 407.509 400H280.839C280.839 400 289.639 338.583 302.125 307.497C302.125 307.497 302.514 281.989 309.348 274.879C309.348 274.879 306.384 264.414 312.444 263.124C318.505 261.834 396.158 265.472 396.158 265.472Z" fill="#999999"/>
<mask id="mask0_19_447" style="mask-type:luminance" maskUnits="userSpaceOnUse" x="280" y="262" width="128" height="138">
<path d="M396.158 265.472C396.416 265.704 397.19 275.628 397.19 275.628C397.19 275.628 402.487 286.085 402.417 302.08C402.349 318.075 407.509 400 407.509 400H280.839C280.839 400 289.639 338.583 302.125 307.497C302.125 307.497 302.514 281.989 309.348 274.879C309.348 274.879 306.384 264.414 312.444 263.124C318.505 261.834 396.158 265.472 396.158 265.472Z" fill="white"/>
</mask>
<g mask="url(#mask0_19_447)">
<path opacity="0.2" d="M407.509 400H280.839C280.839 400 289.641 338.579 302.128 307.497C302.128 307.497 302.2 302.647 302.85 296.579C308.681 299.386 316.369 303.431 318.515 306.207C322.116 310.851 309.332 317.631 309.332 317.631C309.332 317.631 312.861 321.8 318.515 321.221C324.18 320.653 346.47 315.567 346.47 315.567C346.47 315.567 338.143 320.654 339.154 324.266C340.175 327.878 349.319 339.642 354.292 342.532C359.266 345.421 344.179 339.642 344.179 339.642C344.179 339.642 361.33 367.36 371.649 372.901C381.969 378.443 403.051 361.292 400.028 359.868C397.004 358.444 384.745 341.758 386.974 338.951C388.253 337.331 395.839 341.592 404.197 343.717C405.662 370.693 407.509 400 407.509 400Z" fill="black"/>
</g>
<path d="M396.158 265.472C396.416 265.704 397.19 275.628 397.19 275.628C397.19 275.628 402.487 286.085 402.417 302.08C402.349 318.075 407.509 400 407.509 400H280.839C280.839 400 289.639 338.583 302.125 307.497C302.125 307.497 302.514 281.989 309.348 274.879C309.348 274.879 306.384 264.414 312.444 263.124C318.505 261.834 396.158 265.472 396.158 265.472Z" stroke="#263238" stroke-miterlimit="10" stroke-linecap="round" stroke-linejoin="round"/>
<path d="M312.055 265.845C312.055 265.845 311.281 270.66 312.055 274.761C312.055 274.761 325.396 284.538 343.621 285.312C361.846 286.086 387.826 281.184 394.959 277.056V267.253L312.055 265.845Z" fill="#263238"/>
<path d="M323.664 271.194C323.664 271.194 322.116 279.377 323.664 282.473C325.212 285.569 339.204 286.415 339.204 286.415L338.759 274.76L323.664 271.194Z" fill="#BFBFBF" stroke="#263238" stroke-miterlimit="10" stroke-linecap="round" stroke-linejoin="round"/>
<path d="M371.649 287.952C371.649 287.952 371.264 281.754 369.521 274.761L365.2 274.879C365.2 274.879 367.522 282.855 366.232 287.952" fill="#999999"/>
<path d="M371.649 287.952C371.649 287.952 371.264 281.754 369.521 274.761L365.2 274.879C365.2 274.879 367.522 282.855 366.232 287.952" stroke="#263238" stroke-miterlimit="10" stroke-linecap="round" stroke-linejoin="round"/>
<path opacity="0.2" d="M305.461 180.91L304.923 204.686C304.923 204.686 298.009 214.437 291.065 221.857C290.807 218.731 290.497 215.098 290.125 210.929C288.402 191.663 294.945 176.184 294.552 175.038L305.461 180.91Z" fill="#92E3A9"/>
<path d="M297.452 136.982C304.928 133.517 309.973 131.819 309.973 131.819C310.508 130.422 309.225 126.232 322.143 119.534C335.061 112.838 353.725 117.023 353.725 117.023L360.983 125.956C360.983 125.956 386.11 135.963 391.971 141.01C397.835 146.057 402.694 264.27 397.835 268.507C383.992 280.579 325.274 282.223 309.348 266.235C305.909 262.783 303.587 237.834 296.952 200.812C296.952 200.812 284.367 171.955 285.047 156.108" fill="white"/>
<path d="M297.452 136.982C304.928 133.517 309.973 131.819 309.973 131.819C310.508 130.422 309.225 126.232 322.143 119.534C335.061 112.838 353.725 117.023 353.725 117.023L360.983 125.956C360.983 125.956 386.11 135.963 391.971 141.01C397.835 146.057 402.694 264.27 397.835 268.507C383.992 280.579 325.274 282.223 309.348 266.235C305.909 262.783 303.587 237.834 296.952 200.812C296.952 200.812 284.367 171.955 285.047 156.108" stroke="#263238" stroke-miterlimit="10" stroke-linecap="round" stroke-linejoin="round"/>
<path opacity="0.2" d="M360.564 127.814C360.564 127.814 361.951 140.195 349.257 148.45C349.257 148.45 343.4 144.71 339.272 144.323C335.145 143.936 333.726 145.358 333.726 145.358C333.726 145.358 332.863 140.513 334.842 137.322C336.822 134.132 340.698 136.589 347.079 145.358C347.079 145.358 357.864 140.07 360.564 127.814Z" fill="#92E3A9"/>
<path opacity="0.2" d="M321.204 141.008C321.204 141.008 316.187 141.233 313.669 145.358C311.152 149.482 310.378 151.03 310.378 151.03C310.378 151.03 306.339 147.031 309.326 134.648C309.326 134.648 308.721 140.634 309.806 145.358C309.806 145.358 312.404 135.781 313.669 135.656C314.935 135.532 317.454 136.273 321.204 141.008Z" fill="#92E3A9"/>
<path d="M313.669 113.597C313.669 113.597 320.468 120.093 317.955 130.701L327.01 145.358L332.575 132.376C332.575 132.376 345.488 129.026 349.255 120.232C349.255 120.232 340.742 106.367 343.289 86.9243C345.837 67.4826 313.669 113.597 313.669 113.597Z" fill="#BFBFBF" stroke="#263238" stroke-miterlimit="10" stroke-linecap="round" stroke-linejoin="round"/>
<path d="M344.127 95.9351C348.125 66.139 339.197 54.248 315.757 55.9208C292.282 57.5956 291.947 83.7717 297.541 94.897C299.418 98.6316 298.804 106.81 310.455 119.874C314.922 124.883 326.656 121.11 335.061 112.837" fill="#BFBFBF"/>
<path d="M344.127 95.9351C348.125 66.139 339.197 54.248 315.757 55.9208C292.282 57.5956 291.947 83.7717 297.541 94.897C299.418 98.6316 298.804 106.81 310.455 119.874C314.922 124.883 326.656 121.11 335.061 112.837" stroke="#263238" stroke-miterlimit="10" stroke-linecap="round" stroke-linejoin="round"/>
<path d="M309.266 88.7332C309.266 88.7332 311.569 84.6633 317.851 88.7332" stroke="#263238" stroke-miterlimit="10" stroke-linecap="round" stroke-linejoin="round"/>
<path d="M299.843 88.7332C299.843 88.7332 296.438 85.9191 295.419 88.7332" stroke="#263238" stroke-miterlimit="10" stroke-linecap="round" stroke-linejoin="round"/>
<path d="M314.814 94.8877C315.08 95.9093 314.783 96.869 314.15 97.0341C313.517 97.1982 312.79 96.5037 312.525 95.4831C312.258 94.4615 312.557 93.5008 313.188 93.3367C313.821 93.1726 314.548 93.8671 314.814 94.8877Z" fill="#263238"/>
<path d="M302.171 94.8877C302.437 95.9093 302.139 96.869 301.508 97.0341C300.875 97.1982 300.148 96.5037 299.883 95.4831C299.616 94.4615 299.913 93.5008 300.546 93.3367C301.179 93.1726 301.906 93.8671 302.171 94.8877Z" fill="#263238"/>
<path d="M302.701 91.0231C305.288 94.5823 302.891 99.067 302.042 102.54C301.195 106.011 306.439 105.785 307.905 104.633" stroke="#263238" stroke-miterlimit="10" stroke-linecap="round" stroke-linejoin="round"/>
<path d="M331.461 93.313C331.461 93.313 329.263 86.3464 333.975 82.8915C338.685 79.4365 338.371 100.236 338.371 100.236L342.872 102.749C342.872 102.749 349.363 85.5796 346.223 73.0158C343.081 60.453 330.383 51.5351 312.802 56.2809C289.257 62.6377 294.556 81.9152 294.556 81.9152C294.556 81.9152 295.552 76.4707 296.703 76.7855C297.854 77.0992 301.547 80.6583 319.802 74.3769C319.802 74.3769 321.829 76.157 321.41 80.5531C320.992 84.9502 328.772 88.8808 329.994 96.222L331.461 93.313Z" fill="#999999"/>
<mask id="mask1_19_447" style="mask-type:luminance" maskUnits="userSpaceOnUse" x="294" y="54" width="54" height="49">
<path d="M331.461 93.313C331.461 93.313 329.263 86.3464 333.975 82.8915C338.685 79.4365 338.371 100.236 338.371 100.236L342.872 102.749C342.872 102.749 349.363 85.5796 346.223 73.0158C343.081 60.453 330.383 51.5351 312.802 56.2809C289.257 62.6377 294.556 81.9152 294.556 81.9152C294.556 81.9152 295.552 76.4707 296.703 76.7855C297.854 77.0992 301.547 80.6583 319.802 74.3769C319.802 74.3769 321.829 76.157 321.41 80.5531C320.992 84.9502 328.772 88.8808 329.994 96.222L331.461 93.313Z" fill="white"/>
</mask>
<g mask="url(#mask1_19_447)">
<path opacity="0.4" d="M331.461 93.313C331.461 93.313 329.263 86.3464 333.975 82.8915C338.685 79.4365 338.371 100.236 338.371 100.236L342.872 102.749C342.872 102.749 349.363 85.5796 346.223 73.0158C343.081 60.453 330.383 51.5351 312.802 56.2809C289.257 62.6377 294.556 81.9152 294.556 81.9152C294.556 81.9152 295.552 76.4707 296.703 76.7855C297.854 77.0992 301.547 80.6583 319.802 74.3769C319.802 74.3769 321.829 76.157 321.41 80.5531C320.992 84.9502 328.772 88.8808 329.994 96.222L331.461 93.313Z" fill="black"/>
</g>
<path d="M331.461 93.313C331.461 93.313 329.263 86.3464 333.975 82.8915C338.685 79.4365 338.371 100.236 338.371 100.236L342.872 102.749C342.872 102.749 349.363 85.5796 346.223 73.0158C343.081 60.453 330.383 51.5351 312.802 56.2809C289.257 62.6377 294.556 81.9152 294.556 81.9152C294.556 81.9152 295.552 76.4707 296.703 76.7855C297.854 77.0992 301.547 80.6583 319.802 74.3769C319.802 74.3769 321.829 76.157 321.41 80.5531C320.992 84.9502 328.772 88.8808 329.994 96.222L331.461 93.313Z" stroke="#263238" stroke-miterlimit="10" stroke-linecap="round" stroke-linejoin="round"/>
<path d="M301.107 105.818C301.107 105.818 303.141 106.726 305.969 106.308L306.964 107.46L307.905 106.427C307.905 106.427 313.663 107.173 316.489 106.427C319.316 105.68 322.248 107.46 323.713 107.46C323.713 107.46 329.994 99.9215 329.366 96.0486C328.738 92.1748 328.319 91.0231 328.319 91.0231C328.319 91.0231 329.504 92.1046 330.134 91.8961C330.931 91.6299 330.936 91.0231 330.936 91.0231C330.936 91.0231 337.041 103.377 336.903 113.427C336.903 113.427 329.924 125.022 320.676 125.677C310.311 126.408 304.926 122.378 304.926 122.378C303.152 117.167 304.029 112.276 304.029 112.276C302.706 110.965 301.569 110.444 301.569 110.444C300.986 108.874 301.107 105.818 301.107 105.818Z" fill="#263238"/>
<path d="M296.703 76.7855C296.703 76.7855 291.468 74.3078 292.445 68.3051C293.423 62.3033 297.884 60.2095 301.097 58.3944C301.097 58.3944 307.635 52.8075 319.802 52.113C334.462 51.275 348.7 58.9526 345.36 70.275C345.36 70.275 324.676 61.4695 319.802 74.377C319.802 74.377 305.566 82.6128 296.703 76.7855Z" fill="#263238"/>
<path d="M332.577 86.9232C332.577 86.9232 337.185 78.0754 340.255 81.0072C343.326 83.9389 342.487 88.2668 341.442 92.3842C340.394 96.5027 340.044 95.8041 338.091 97.6894C336.137 99.5737 334.07 101.477 333.346 99.4334C332.621 97.3891 332.977 95.7545 332.977 95.7545" fill="#BFBFBF"/>
<path d="M332.577 86.9232C332.577 86.9232 337.185 78.0754 340.255 81.0072C343.326 83.9389 342.487 88.2668 341.442 92.3842C340.394 96.5027 340.044 95.8041 338.091 97.6894C336.137 99.5737 334.07 101.477 333.346 99.4334C332.621 97.3891 332.977 95.7545 332.977 95.7545" stroke="#263238" stroke-miterlimit="10" stroke-linecap="round" stroke-linejoin="round"/>
<path d="M318.425 112.592C310.208 112.798 307.46 111.568 307.46 111.568C307.068 112.091 306.544 111.96 306.544 111.96L307.904 114.787C307.904 114.787 309.265 115.624 312.801 115.624C315.781 115.625 318.425 112.592 318.425 112.592Z" fill="white"/>
<path opacity="0.2" d="M311.36 74.5865C311.36 74.5865 308.009 67.8861 316.803 63.8038C325.596 59.7204 339.835 61.291 343.29 65.8976" stroke="white" stroke-miterlimit="10" stroke-linecap="round" stroke-linejoin="round"/>
<path opacity="0.2" d="M302.269 75.8433C302.269 75.8433 292.609 75.4244 299.786 66.0018C306.964 56.5792 322.143 53.6485 322.143 53.6485" stroke="white" stroke-miterlimit="10" stroke-linecap="round" stroke-linejoin="round"/>
<path d="M360.983 125.955C360.983 125.955 359.139 138.518 347.079 145.358C347.079 145.358 340.413 135.429 336.906 135.656C335.189 135.767 332.577 141.009 332.577 141.009" stroke="#263238" stroke-miterlimit="10" stroke-linecap="round" stroke-linejoin="round"/>
<path d="M309.972 131.818C308.778 136.563 309.604 145.999 309.604 145.999C309.604 145.999 312.509 136.584 313.669 135.656C315.754 133.99 322.142 142.147 322.142 142.147" stroke="#263238" stroke-miterlimit="10" stroke-linecap="round" stroke-linejoin="round"/>
<path d="M327.011 145.358L322.142 148.568C322.142 148.568 327.658 154.71 327.011 160.294C326.365 165.877 328.319 178.161 328.319 178.161" stroke="#263238" stroke-miterlimit="10" stroke-linecap="round" stroke-linejoin="round"/>
<path d="M280.275 201.785C285.858 212.821 284.106 223.056 284.106 223.056C284.106 223.056 276.906 233.059 271.345 234.56C257.868 238.196 249.75 208.238 233.553 168.013C232.514 165.432 241.723 151.797 241.723 151.797L268.437 193.399C268.437 193.399 276.364 194.054 280.275 201.785Z" fill="#BFBFBF" stroke="#263238" stroke-miterlimit="10" stroke-linecap="round" stroke-linejoin="round"/>
<path d="M240.597 154.819L233.727 145.583C233.727 145.583 223.392 139.661 222.267 143.205C220.582 148.511 212.124 150.071 212.124 150.071C212.871 152.786 221.134 164.88 225.818 167.589C230.499 170.298 230.937 171.13 232.912 171.659C237.814 172.97 238.976 169.456 238.976 169.456" fill="#BFBFBF"/>
<path d="M240.597 154.819L233.727 145.583C233.727 145.583 223.392 139.661 222.267 143.205C220.582 148.511 212.124 150.071 212.124 150.071C212.871 152.786 221.134 164.88 225.818 167.589C230.499 170.298 230.937 171.13 232.912 171.659C237.814 172.97 238.976 169.456 238.976 169.456" stroke="#263238" stroke-miterlimit="10" stroke-linecap="round" stroke-linejoin="round"/>
<path d="M185.985 195.262C185.985 195.262 148.285 160.237 195.105 147.586C241.926 134.933 229.609 181.273 229.609 181.273L226.48 181.809C226.48 181.809 238.742 140.35 196.651 151.157C154.559 161.965 187.681 193.15 187.681 193.15L185.985 195.262Z" fill="#757575" stroke="#263238" stroke-miterlimit="10" stroke-linecap="round" stroke-linejoin="round"/>
<path d="M236.083 161.159C228.173 157.301 230.926 150.23 223.222 145.776C221.149 144.575 214.47 145.303 212.351 143.823C209.171 141.604 210.318 140.075 210.363 139.81C210.468 139.196 212.701 141.181 220.297 139.034C223.333 138.176 231.628 140.779 234.243 143.047C240.354 148.351 245.668 154.607 245.093 159.498C244.763 162.316 241.629 163.446 241.629 163.446" fill="#BFBFBF"/>
<path d="M236.083 161.159C228.173 157.301 230.926 150.23 223.222 145.776C221.149 144.575 214.47 145.303 212.351 143.823C209.171 141.604 210.318 140.075 210.363 139.81C210.468 139.196 212.701 141.181 220.297 139.034C223.333 138.176 231.628 140.779 234.243 143.047C240.354 148.351 245.668 154.607 245.093 159.498C244.763 162.316 241.629 163.446 241.629 163.446" stroke="#263238" stroke-miterlimit="10" stroke-linecap="round" stroke-linejoin="round"/>
<path d="M213.377 149.191C213.377 149.191 220.016 147.567 222.134 147.586C225.039 147.61 225.964 148.026 226.653 149.264C227.346 150.502 226.525 152.024 226.525 152.024C226.525 152.024 228.388 152.888 228.908 154.49C229.429 156.093 228.244 157.891 228.244 157.891C228.244 157.891 230.169 158.429 231.262 159.727C232.675 161.406 231.426 162.788 231.426 162.788C231.426 162.788 235.165 165.349 233.088 166.874C231.011 168.399 225.348 170.701 222.801 170.452C220.256 170.202 204.021 150.626 213.377 149.191Z" fill="#BFBFBF" stroke="#263238" stroke-miterlimit="10" stroke-linecap="round" stroke-linejoin="round"/>
<path d="M226.525 152.023C226.525 152.023 215.983 155.253 213.088 155.181" stroke="#263238" stroke-miterlimit="10" stroke-linecap="round" stroke-linejoin="round"/>
<path d="M228.244 157.89C228.244 157.89 219.267 161.117 217.416 161.48" stroke="#263238" stroke-miterlimit="10" stroke-linecap="round" stroke-linejoin="round"/>
<path d="M231.426 162.788C231.426 162.788 224.528 165.63 221.546 166.219" stroke="#263238" stroke-miterlimit="10" stroke-linecap="round" stroke-linejoin="round"/>
<path d="M185.286 189.93C185.286 189.93 196.836 170.153 225.485 173.691L249.063 222.772C249.063 222.772 234.268 250.848 192.398 244.195L185.286 189.93Z" fill="#757575" stroke="#263238" stroke-miterlimit="10" stroke-linecap="round" stroke-linejoin="round"/>
<path d="M196.39 229.175C196.39 229.175 171.16 210.457 154.07 229.524L161.822 235.337C161.822 235.337 169.781 218.604 196.651 239.26" fill="#757575"/>
<path d="M196.39 229.175C196.39 229.175 171.16 210.457 154.07 229.524L161.822 235.337C161.822 235.337 169.781 218.604 196.651 239.26" stroke="#263238" stroke-miterlimit="10" stroke-linecap="round" stroke-linejoin="round"/>
<path d="M187.682 190.138C187.682 190.138 214.896 192.822 223.33 175.042Z" fill="#757575"/>
<path d="M187.682 190.138C187.682 190.138 214.896 192.822 223.33 175.042" stroke="#263238" stroke-miterlimit="10" stroke-linecap="round" stroke-linejoin="round"/>
<path d="M139.698 231.201C139.698 231.201 150.411 223.675 159.902 229.214C169.39 234.756 167.171 244.711 167.171 244.711C167.171 244.711 152.897 245.809 139.698 231.201Z" fill="#757575" stroke="#263238" stroke-miterlimit="10" stroke-linecap="round" stroke-linejoin="round"/>
<path d="M144.947 231.237C144.947 231.237 161.594 235.686 167.171 244.711" stroke="#263238" stroke-miterlimit="10" stroke-linecap="round" stroke-linejoin="round"/>
<path d="M209.22 177.47L207.298 169.433C207.298 169.433 196.55 169.147 192.866 175.327L197.653 181.66" fill="#757575"/>
<path d="M209.22 177.47L207.298 169.433C207.298 169.433 196.55 169.147 192.866 175.327L197.653 181.66" stroke="#263238" stroke-miterlimit="10" stroke-linecap="round" stroke-linejoin="round"/>
<path d="M208.627 179.159C208.627 179.159 205.816 180.882 201.733 181.273" stroke="#263238" stroke-miterlimit="10" stroke-linecap="round" stroke-linejoin="round"/>
<path d="M199.616 230.777C199.616 230.777 202.045 234.067 198.999 238.254" stroke="#263238" stroke-miterlimit="10" stroke-linecap="round" stroke-linejoin="round"/>
<path opacity="0.2" d="M392.976 190.283C392.976 190.283 383.001 224.685 360.983 241.883C350.924 249.74 304.928 237.068 304.928 237.068L307.905 219.239L322.977 212.092C322.977 212.092 349.636 170.357 364.083 166.218C378.529 162.08 392.976 190.283 392.976 190.283Z" fill="#92E3A9"/>
<path d="M379.975 141.871C369.355 142.174 341.44 193.329 341.44 193.329C333.877 196.195 337.486 202.815 337.486 202.815C337.486 202.815 355.218 225.318 358.577 227.239C366.875 231.983 369.818 223.677 369.818 223.677C369.818 223.677 404.712 192.004 402.299 166.219C399.885 140.434 391.972 141.009 391.972 141.009" fill="white"/>
<path d="M379.975 141.871C369.355 142.174 341.44 193.329 341.44 193.329C333.877 196.195 337.486 202.815 337.486 202.815C337.486 202.815 355.218 225.318 358.577 227.239C366.875 231.983 369.818 223.677 369.818 223.677C369.818 223.677 404.712 192.004 402.299 166.219C399.885 140.434 391.972 141.009 391.972 141.009" stroke="#263238" stroke-miterlimit="10" stroke-linecap="round" stroke-linejoin="round"/>
<path d="M339.344 200.811L328.712 212.27C306.122 210.071 264.934 227.179 253.027 220.957C246.099 217.339 229.48 221.063 227.002 222.312C224.524 223.558 219.291 230.041 221.229 230.874C223.166 231.707 227.466 227.839 229.843 228.19C232.22 228.539 236.513 228.133 236.513 228.133C236.513 228.133 226.041 238.091 223.699 238.521C221.356 238.95 209.463 244.025 213.768 244.909C219.807 246.151 222.106 245.526 222.106 245.526C222.106 245.526 227.554 249.4 231.611 249.813C233.716 250.029 245.133 247.965 245.133 247.965L255.602 237.982C255.602 237.982 325.231 241.608 337.486 236.458C353.459 229.748 358.577 224.21 358.577 224.21C358.577 224.21 351.819 204.602 339.344 200.811Z" fill="#BFBFBF" stroke="#263238" stroke-miterlimit="10" stroke-linecap="round" stroke-linejoin="round"/>
<path d="M329.197 285.066C328.955 285.009 323.811 315.495 331.09 321.944C331.09 321.944 335.306 336.506 334.515 346.511C333.725 356.514 339.203 376.895 339.203 376.895L342.86 400" stroke="#263238" stroke-miterlimit="10" stroke-linecap="round" stroke-linejoin="round"/>
<path d="M334.516 285.962C334.516 285.962 331.92 301.048 332.952 306.465C333.984 311.883 331.74 317.442 328.605 317.629" stroke="#263238" stroke-miterlimit="10" stroke-linecap="round" stroke-linejoin="round"/>
<path d="M382.616 281.356C382.616 281.356 387.309 306.484 394.959 308.556" stroke="#263238" stroke-miterlimit="10" stroke-linecap="round" stroke-linejoin="round"/>
<path d="M392.03 277.894C392.03 277.894 395.566 293.934 394.959 316.065C394.352 338.197 399.36 382.571 399.823 387.988C400.286 393.406 399.823 400 399.823 400" stroke="#263238" stroke-miterlimit="10" stroke-linecap="round" stroke-linejoin="round"/>
<path d="M350.67 314.119C348.689 314.979 324.438 322.202 319.795 327.878" stroke="#263238" stroke-miterlimit="10" stroke-linecap="round" stroke-linejoin="round"/>
<path d="M334.516 328.453C334.516 328.453 351.273 348.775 359.397 350.839" stroke="#263238" stroke-miterlimit="10" stroke-linecap="round" stroke-linejoin="round"/>
<path d="M327.208 330.458C327.208 330.458 301.456 355.684 296.953 352.875" stroke="#263238" stroke-miterlimit="10" stroke-linecap="round" stroke-linejoin="round"/>
<path d="M335.232 359.868C335.232 359.868 328.129 387.931 328.605 391.056C329.082 394.18 326.19 400 326.19 400" stroke="#263238" stroke-miterlimit="10" stroke-linecap="round" stroke-linejoin="round"/>
<path d="M328.32 249.83C328.32 249.83 329.881 257.926 328.32 262.846C326.76 267.768 328.468 275.204 330.603 275.618" stroke="#263238" stroke-miterlimit="10" stroke-linecap="round" stroke-linejoin="round"/>
<path d="M268.436 193.4C268.436 193.4 276.711 202.311 276.711 209.242" stroke="#263238" stroke-miterlimit="10" stroke-linecap="round" stroke-linejoin="round"/>
<path d="M163.972 249.83C163.972 249.83 163.293 252.03 162.33 255.796" stroke="#263238" stroke-linecap="round" stroke-linejoin="round"/>
<path d="M160.86 261.932C160.243 264.682 159.595 267.808 158.982 271.207" stroke="#263238" stroke-linecap="round" stroke-linejoin="round" stroke-dasharray="6.11 6.11"/>
<path d="M158.443 274.319C158.117 276.292 157.807 278.339 157.523 280.446" stroke="#263238" stroke-linecap="round" stroke-linejoin="round"/>
<path d="M149.919 244.451C149.919 244.451 148.65 246.425 146.809 249.801" stroke="#263238" stroke-linecap="round" stroke-linejoin="round"/>
<path d="M142.786 257.778C141.09 261.423 139.32 265.639 137.759 270.192" stroke="#263238" stroke-linecap="round" stroke-linejoin="round" stroke-dasharray="8.66 8.66"/>
<path d="M136.394 274.456C135.812 276.412 135.281 278.414 134.82 280.445" stroke="#263238" stroke-linecap="round" stroke-linejoin="round"/>
<path d="M139.698 235.954C139.088 236.07 137.053 237.095 134.311 238.964" stroke="#263238" stroke-linecap="round" stroke-linejoin="round"/>
<path d="M128.741 243.246C126.321 245.323 123.755 247.824 121.316 250.724" stroke="#263238" stroke-linecap="round" stroke-linejoin="round" stroke-dasharray="6.82 6.82"/>
<path d="M119.129 253.49C117.924 255.109 116.777 256.833 115.722 258.659" stroke="#263238" stroke-linecap="round" stroke-linejoin="round"/>
<path d="M341.442 193.328C349.205 194.5 360.556 208.69 362.62 214.107" stroke="#263238" stroke-miterlimit="10" stroke-linecap="round" stroke-linejoin="round"/>
<path d="M399.823 175.043C399.823 175.043 381.196 186.388 362.62 187.535" stroke="#263238" stroke-miterlimit="10" stroke-linecap="round" stroke-linejoin="round"/>
<path d="M267.39 187.535C267.39 187.535 276.969 185.592 281.871 193.4C286.773 201.208 288.321 209.242 288.321 209.242" stroke="#263238" stroke-miterlimit="10" stroke-linecap="round" stroke-linejoin="round"/>
<path d="M280.839 170.471C280.839 170.471 285.477 180.626 290.897 184.854" stroke="#263238" stroke-miterlimit="10" stroke-linecap="round" stroke-linejoin="round"/>
<path d="M328.321 199.922C328.321 199.922 329.117 207.598 328.713 212.271" stroke="#263238" stroke-miterlimit="10" stroke-linecap="round" stroke-linejoin="round"/>
<path d="M313.345 247.387C313.345 247.387 333.726 270.325 365.2 264.145" stroke="#263238" stroke-miterlimit="10" stroke-linecap="round" stroke-linejoin="round"/>
<path d="M330.028 151.362C330.028 152.028 329.511 152.568 328.871 152.568C328.233 152.568 327.716 152.028 327.716 151.362C327.716 150.697 328.233 150.156 328.871 150.156C329.511 150.156 330.028 150.696 330.028 151.362Z" fill="#263238"/>
<path d="M331.464 181.809C331.464 182.474 330.947 183.014 330.307 183.014C329.668 183.014 329.151 182.474 329.151 181.809C329.151 181.143 329.668 180.602 330.307 180.602C330.947 180.602 331.464 181.142 331.464 181.809Z" fill="#263238"/>
<path d="M8.4082 400H450.076" stroke="#263238" stroke-miterlimit="10" stroke-linecap="round" stroke-linejoin="round"/>
<path d="M98.7241 340.73C98.7241 340.73 115.385 334.877 104.529 301.949C93.6728 269.021 107.569 269.741 113.754 253.086C119.941 236.432 110.806 225.152 110.806 225.152" stroke="#50A42A" stroke-width="3" stroke-miterlimit="10" stroke-linecap="round" stroke-linejoin="round"/>
<path d="M106.958 332.58H103.862H58.457C58.457 332.58 64.9954 381.867 66.8869 396.13C67.2305 398.721 69.2924 400 71.7865 400C77.6665 400 96.4209 400 103.862 400C105.78 400 106.958 400 106.958 400C114.4 400 133.155 400 139.035 400C141.529 400 143.59 398.721 143.933 396.13C145.826 381.867 152.363 332.58 152.363 332.58H106.958Z" fill="#50A42A"/>
<path d="M156.464 334.401C156.464 335.673 155.431 336.706 154.158 336.706H56.6634C55.39 336.706 54.3571 335.673 54.3571 334.401V330.758C54.3571 329.486 55.39 328.453 56.6634 328.453H154.158C155.431 328.453 156.464 329.486 156.464 330.758V334.401Z" fill="#50A42A"/>
<path d="M63.631 336.707H112.819" stroke="white" stroke-miterlimit="10" stroke-linecap="round" stroke-linejoin="round"/>
<path d="M119.011 336.707H122.795" stroke="white" stroke-miterlimit="10" stroke-linecap="round" stroke-linejoin="round"/>
<path d="M145.498 336.707H138.618" stroke="white" stroke-miterlimit="10" stroke-linecap="round" stroke-linejoin="round"/>
<path d="M67.4142 352.875H86.6773" stroke="white" stroke-miterlimit="10" stroke-linecap="round" stroke-linejoin="round"/>
<path d="M97.6849 352.875H102.845" stroke="white" stroke-miterlimit="10" stroke-linecap="round" stroke-linejoin="round"/>
<path d="M144.122 352.875H125.547" stroke="white" stroke-miterlimit="10" stroke-linecap="round" stroke-linejoin="round"/>
<path d="M142.057 366.29H138.618" stroke="white" stroke-miterlimit="10" stroke-linecap="round" stroke-linejoin="round"/>
<path d="M86.6773 366.29H79.4537" stroke="white" stroke-miterlimit="10" stroke-linecap="round" stroke-linejoin="round"/>
<path d="M120.902 379.361H132.771" stroke="white" stroke-miterlimit="10" stroke-linecap="round" stroke-linejoin="round"/>
<path d="M93.2125 379.361H74.6377" stroke="white" stroke-miterlimit="10" stroke-linecap="round" stroke-linejoin="round"/>
<path d="M70.8546 391.056H77.0452" stroke="white" stroke-miterlimit="10" stroke-linecap="round" stroke-linejoin="round"/>
<path d="M86.6774 391.056H122.795" stroke="white" stroke-miterlimit="10" stroke-linecap="round" stroke-linejoin="round"/>
<path d="M140.338 391.056H134.835" stroke="white" stroke-miterlimit="10" stroke-linecap="round" stroke-linejoin="round"/>
<path d="M123.125 364.227C123.125 374.009 115.194 381.941 105.41 381.941C95.6274 381.941 87.6949 374.01 87.6949 364.227C87.6949 354.443 95.6274 346.511 105.41 346.511C115.194 346.511 123.125 354.442 123.125 364.227Z" fill="#92E3A9" stroke="#50A42A" stroke-miterlimit="10" stroke-linecap="round" stroke-linejoin="round"/>
<path d="M104.03 356.073V354.887H106.791V356.073C109.182 356.438 110.409 357.805 110.409 359.971V360.473H107.22V359.81C107.22 358.67 106.606 358.238 105.533 358.238C104.46 358.238 103.847 358.671 103.847 359.81C103.847 360.951 104.46 361.748 106.729 363.094C109.489 364.736 110.44 365.991 110.44 367.814C110.44 369.98 109.182 371.37 106.791 371.735V372.898H104.03V371.735C101.607 371.37 100.381 369.98 100.381 367.814V366.719H103.57V367.973C103.57 369.112 104.245 369.524 105.318 369.524C106.392 369.524 107.066 369.113 107.066 367.973C107.066 366.833 106.452 366.012 104.184 364.689C101.424 363.071 100.472 361.794 100.472 359.97C100.473 357.828 101.669 356.461 104.03 356.073Z" fill="white" stroke="#50A42A" stroke-miterlimit="10" stroke-linecap="round" stroke-linejoin="round"/>
<path d="M120.119 364.226C120.119 372.348 113.533 378.934 105.411 378.934C97.2877 378.934 90.7019 372.348 90.7019 364.226C90.7019 356.101 97.2877 349.517 105.411 349.517C113.533 349.517 120.119 356.101 120.119 364.226Z" stroke="#50A42A" stroke-miterlimit="10" stroke-linecap="round" stroke-linejoin="round"/>
<path d="M103.201 297.666C103.201 297.666 106.739 279.324 121.562 277.891C136.384 276.458 138.122 264.845 138.122 264.845" stroke="#50A42A" stroke-width="3" stroke-miterlimit="10" stroke-linecap="round" stroke-linejoin="round"/>
<path d="M104.712 265.867C104.712 265.867 101.104 264.137 87.7536 256.007C74.4045 247.876 74.9132 234.91 74.9132 234.91" stroke="#50A42A" stroke-width="3" stroke-miterlimit="10" stroke-linecap="round" stroke-linejoin="round"/>
<path d="M107.571 314.122C107.571 314.122 81.4288 313.1 77.5498 291.65" stroke="#50A42A" stroke-width="3" stroke-miterlimit="10" stroke-linecap="round" stroke-linejoin="round"/>
<path d="M124.089 215.982C123.299 222.44 117.424 227.036 110.965 226.248C104.505 225.457 99.9099 219.582 100.699 213.124C101.49 206.664 107.365 202.068 113.823 202.858C120.281 203.647 124.878 209.524 124.089 215.982Z" fill="white"/>
<path d="M124.089 215.982C123.299 222.44 117.424 227.036 110.965 226.248C104.505 225.457 99.9099 219.582 100.699 213.124C101.49 206.664 107.365 202.068 113.823 202.858C120.281 203.647 124.878 209.524 124.089 215.982Z" stroke="#50A42A" stroke-miterlimit="10" stroke-linecap="round" stroke-linejoin="round"/>
<path d="M121.842 215.708C121.205 220.926 116.457 224.64 111.241 224.001C106.021 223.365 102.308 218.617 102.946 213.398C103.584 208.18 108.331 204.467 113.549 205.105C118.767 205.741 122.479 210.489 121.842 215.708Z" stroke="#50A42A" stroke-miterlimit="10" stroke-linecap="round" stroke-linejoin="round"/>
<path d="M110.97 209.822C111.32 209.421 111.787 209.191 112.376 209.13L112.472 208.347L113.827 208.512L113.731 209.296C114.297 209.488 114.705 209.819 114.952 210.293C115.2 210.767 115.281 211.363 115.192 212.086L115.151 212.417L113.585 212.225L113.639 211.788C113.683 211.427 113.645 211.156 113.525 210.972C113.405 210.79 113.209 210.683 112.938 210.649C112.668 210.616 112.451 210.673 112.291 210.822C112.13 210.969 112.028 211.225 111.984 211.585C111.945 211.897 111.974 212.183 112.07 212.444C112.165 212.705 112.292 212.939 112.45 213.147C112.608 213.355 112.836 213.614 113.134 213.926C113.487 214.286 113.769 214.608 113.978 214.891C114.188 215.177 114.355 215.518 114.479 215.915C114.604 216.312 114.635 216.761 114.574 217.264C114.486 217.986 114.262 218.55 113.902 218.953C113.542 219.358 113.063 219.585 112.466 219.633L112.373 220.401L111.018 220.236L111.112 219.468C110.534 219.276 110.123 218.94 109.875 218.461C109.628 217.983 109.548 217.383 109.637 216.66L109.725 215.938L111.29 216.13L111.189 216.957C111.105 217.641 111.349 218.016 111.922 218.086C112.493 218.156 112.821 217.85 112.905 217.167C112.943 216.856 112.914 216.57 112.818 216.309C112.722 216.048 112.597 215.814 112.438 215.606C112.28 215.398 112.052 215.138 111.753 214.826C111.401 214.467 111.119 214.146 110.909 213.86C110.699 213.576 110.533 213.234 110.408 212.837C110.283 212.44 110.252 211.991 110.313 211.488C110.402 210.777 110.62 210.221 110.97 209.822Z" fill="#50A42A"/>
<path d="M86.9952 225.342C87.8734 231.787 83.3597 237.727 76.9121 238.606C70.4646 239.485 64.5258 234.97 63.6476 228.523C62.7684 222.076 67.2832 216.137 73.7317 215.258C80.1792 214.38 86.117 218.894 86.9952 225.342Z" fill="white"/>
<path d="M86.9952 225.342C87.8734 231.787 83.3597 237.727 76.9121 238.606C70.4646 239.485 64.5258 234.97 63.6476 228.523C62.7684 222.076 67.2832 216.137 73.7317 215.258C80.1792 214.38 86.117 218.894 86.9952 225.342Z" stroke="#50A42A" stroke-miterlimit="10" stroke-linecap="round" stroke-linejoin="round"/>
<path d="M84.7519 225.647C85.4618 230.857 81.815 235.654 76.6058 236.364C71.3955 237.074 66.5991 233.425 65.8891 228.216C65.1792 223.007 68.826 218.209 74.0363 217.499C79.2465 216.79 84.0429 220.437 84.7519 225.647Z" stroke="#50A42A" stroke-miterlimit="10" stroke-linecap="round" stroke-linejoin="round"/>
<path d="M72.7596 222.697C72.996 222.221 73.3902 221.88 73.9433 221.671L73.8359 220.89L75.1888 220.705L75.2951 221.488C75.8926 221.529 76.3714 221.747 76.7316 222.141C77.0917 222.536 77.3208 223.093 77.4188 223.815L77.4642 224.145L75.9008 224.357L75.841 223.922C75.7915 223.561 75.6862 223.308 75.5232 223.162C75.3611 223.016 75.1434 222.962 74.873 222.998C74.6027 223.035 74.4087 223.146 74.2921 223.33C74.1734 223.514 74.1393 223.787 74.1878 224.148C74.2301 224.459 74.3313 224.727 74.4902 224.955C74.6481 225.184 74.8307 225.378 75.0361 225.539C75.2404 225.699 75.5283 225.892 75.8947 226.117C76.3281 226.374 76.682 226.615 76.9565 226.837C77.232 227.06 77.4797 227.347 77.7016 227.7C77.9234 228.052 78.0679 228.478 78.136 228.978C78.2351 229.7 78.1608 230.301 77.9162 230.783C77.6706 231.266 77.2651 231.608 76.7006 231.806L76.8048 232.573L75.453 232.756L75.3477 231.991C74.7409 231.951 74.257 231.732 73.8968 231.331C73.5357 230.931 73.3066 230.37 73.2085 229.65L73.1095 228.929L74.6728 228.715L74.7853 229.542C74.8782 230.224 75.2095 230.525 75.7801 230.448C76.3518 230.369 76.5902 229.991 76.4973 229.309C76.455 228.998 76.3539 228.73 76.196 228.501C76.0371 228.273 75.8554 228.079 75.6501 227.918C75.4447 227.758 75.1568 227.564 74.7905 227.338C74.3581 227.082 74.0031 226.841 73.7286 226.618C73.4531 226.395 73.2054 226.109 72.9836 225.756C72.7617 225.404 72.6172 224.978 72.5491 224.476C72.4542 223.767 72.5244 223.174 72.7596 222.697Z" fill="#50A42A"/>
<path d="M86.3141 281.705C86.8321 288.19 81.9934 293.869 75.5077 294.387C69.0209 294.905 63.3432 290.067 62.8262 283.58C62.3082 277.094 67.1459 271.416 73.6326 270.898C80.1184 270.38 85.7971 275.218 86.3141 281.705Z" fill="white"/>
<path d="M86.3141 281.705C86.8321 288.19 81.9934 293.869 75.5077 294.387C69.0209 294.905 63.3432 290.067 62.8262 283.58C62.3082 277.094 67.1459 271.416 73.6326 270.898C80.1184 270.38 85.7971 275.218 86.3141 281.705Z" stroke="#50A42A" stroke-miterlimit="10" stroke-linecap="round" stroke-linejoin="round"/>
<path d="M84.0593 281.886C84.4772 287.126 80.5693 291.712 75.3291 292.132C70.0879 292.551 65.501 288.641 65.082 283.401C64.6641 278.159 68.572 273.573 73.8132 273.153C79.0534 272.734 83.6403 276.645 84.0593 281.886Z" stroke="#50A42A" stroke-miterlimit="10" stroke-linecap="round" stroke-linejoin="round"/>
<path d="M72.221 278.321C72.4831 277.859 72.8948 277.539 73.4593 277.363L73.3963 276.576L74.7564 276.468L74.8194 277.254C75.4127 277.328 75.8781 277.572 76.2166 277.987C76.5541 278.401 76.7522 278.97 76.81 279.696L76.8358 280.028L75.2641 280.154L75.2291 279.716C75.2002 279.352 75.1093 279.093 74.9546 278.939C74.7998 278.784 74.5862 278.717 74.3148 278.739C74.0423 278.761 73.8421 278.86 73.7152 279.038C73.5872 279.215 73.5377 279.486 73.5656 279.848C73.5903 280.16 73.676 280.435 73.8225 280.672C73.968 280.908 74.1393 281.114 74.3344 281.285C74.5304 281.457 74.806 281.666 75.1609 281.912C75.5789 282.192 75.9184 282.451 76.1815 282.689C76.4426 282.927 76.6758 283.227 76.8771 283.592C77.0772 283.956 77.199 284.389 77.2393 284.894C77.2981 285.619 77.1908 286.216 76.9183 286.683C76.6459 287.152 76.2228 287.47 75.6491 287.637L75.711 288.408L74.3509 288.516L74.289 287.745C73.6842 287.672 73.2137 287.425 72.8762 287.006C72.5388 286.587 72.3407 286.014 72.2829 285.289L72.2251 284.564L73.7967 284.438L73.8628 285.269C73.9175 285.956 74.2312 286.276 74.806 286.229C75.3808 286.184 75.6408 285.818 75.5851 285.132C75.5603 284.821 75.4747 284.546 75.3291 284.309C75.1836 284.072 75.0123 283.868 74.8163 283.696C74.6212 283.523 74.3447 283.315 73.9907 283.069C73.5728 282.789 73.2323 282.53 72.9712 282.291C72.708 282.054 72.4769 281.754 72.2746 281.388C72.0734 281.025 71.9516 280.592 71.9114 280.086C71.8557 279.371 71.9588 278.783 72.221 278.321Z" fill="#50A42A"/>
<path d="M155.015 261.467C152.281 267.371 145.277 269.939 139.373 267.205C133.468 264.469 130.901 257.464 133.636 251.563C136.37 245.658 143.374 243.089 149.278 245.825C155.182 248.558 157.751 255.563 155.015 261.467Z" fill="white"/>
<path d="M155.015 261.467C152.281 267.371 145.277 269.939 139.373 267.205C133.468 264.469 130.901 257.464 133.636 251.563C136.37 245.658 143.374 243.089 149.278 245.825C155.182 248.558 157.751 255.563 155.015 261.467Z" stroke="#50A42A" stroke-miterlimit="10" stroke-linecap="round" stroke-linejoin="round"/>
<path d="M152.963 260.514C150.752 265.285 145.095 267.361 140.325 265.151C135.554 262.94 133.478 257.283 135.689 252.514C137.898 247.742 143.557 245.667 148.328 247.877C153.098 250.086 155.173 255.744 152.963 260.514Z" stroke="#50A42A" stroke-miterlimit="10" stroke-linecap="round" stroke-linejoin="round"/>
<path d="M144.395 251.577C144.851 251.304 145.368 251.23 145.945 251.353L146.277 250.638L147.515 251.21L147.184 251.926C147.665 252.283 147.949 252.723 148.04 253.25C148.131 253.776 148.023 254.37 147.717 255.03L147.577 255.334L146.146 254.67L146.33 254.271C146.483 253.941 146.532 253.671 146.473 253.459C146.414 253.25 146.261 253.086 146.014 252.971C145.766 252.856 145.543 252.844 145.344 252.937C145.146 253.028 144.969 253.239 144.817 253.569C144.684 253.853 144.625 254.134 144.636 254.411C144.646 254.69 144.695 254.951 144.781 255.198C144.868 255.443 145.005 255.76 145.193 256.149C145.419 256.599 145.587 256.991 145.7 257.329C145.811 257.665 145.866 258.04 145.862 258.458C145.859 258.873 145.75 259.31 145.538 259.77C145.232 260.43 144.845 260.897 144.379 261.171C143.913 261.445 143.387 261.513 142.805 261.376L142.48 262.08L141.242 261.505L141.567 260.803C141.076 260.442 140.788 259.997 140.7 259.465C140.611 258.934 140.721 258.338 141.026 257.678L141.333 257.018L142.764 257.682L142.413 258.437C142.124 259.061 142.241 259.493 142.764 259.737C143.287 259.979 143.693 259.788 143.982 259.165C144.114 258.881 144.174 258.598 144.163 258.32C144.152 258.042 144.103 257.782 144.018 257.534C143.931 257.289 143.794 256.972 143.606 256.583C143.379 256.133 143.211 255.741 143.099 255.405C142.988 255.069 142.933 254.692 142.937 254.276C142.94 253.859 143.049 253.422 143.261 252.965C143.562 252.315 143.94 251.851 144.395 251.577Z" fill="#50A42A"/>
<path d="M137.564 266.832C137.513 267.563 148.559 259.594 159.278 264.672C159.278 264.672 148.106 274.821 137.312 268.51C126.519 262.199 128.051 246.74 128.051 246.74C128.051 246.74 138.436 254.029 137.564 266.832Z" fill="#92E3A9" stroke="#50A42A" stroke-miterlimit="10" stroke-linecap="round" stroke-linejoin="round"/>
<path d="M112.402 226.616C112.758 227.258 117.712 214.569 129.47 213.02C129.47 213.02 125.592 227.607 113.101 228.162C100.611 228.717 93.5099 214.901 93.5099 214.901C93.5099 214.901 106.188 215.389 112.402 226.616Z" fill="#92E3A9" stroke="#50A42A" stroke-miterlimit="10" stroke-linecap="round" stroke-linejoin="round"/>
<path d="M76.6489 239.915C77.1009 240.494 79.9893 227.182 91.356 223.796C91.356 223.796 89.8298 238.812 77.5838 241.331C65.3368 243.852 56.1433 231.33 56.1433 231.33C56.1433 231.33 68.7401 229.809 76.6489 239.915Z" fill="#92E3A9" stroke="#50A42A" stroke-miterlimit="10" stroke-linecap="round" stroke-linejoin="round"/>
<path d="M79.0379 296.089C79.5827 296.582 80.1513 282.971 90.77 277.691C90.77 277.691 91.8349 292.746 80.2009 297.324C68.5668 301.902 57.3662 291.139 57.3662 291.139C57.3662 291.139 69.5183 287.486 79.0379 296.089Z" fill="#92E3A9" stroke="#50A42A" stroke-miterlimit="10" stroke-linecap="round" stroke-linejoin="round"/>
<path d="M230.79 332.58H227.694H182.289C182.289 332.58 188.828 381.867 190.719 396.13C191.063 398.721 193.125 400 195.619 400C201.499 400 220.253 400 227.694 400C229.612 400 230.79 400 230.79 400C238.232 400 256.987 400 262.866 400C265.361 400 267.422 398.721 267.765 396.13C269.658 381.867 276.195 332.58 276.195 332.58H230.79Z" fill="#50A42A"/>
<path d="M280.296 334.401C280.296 335.673 279.263 336.706 277.99 336.706H180.496C179.222 336.706 178.189 335.673 178.189 334.401V330.758C178.189 329.486 179.222 328.453 180.496 328.453H277.99C279.263 328.453 280.296 329.486 280.296 330.758V334.401Z" fill="#50A42A"/>
<path d="M187.464 336.707H236.652" stroke="white" stroke-miterlimit="10" stroke-linecap="round" stroke-linejoin="round"/>
<path d="M242.843 336.707H246.627" stroke="white" stroke-miterlimit="10" stroke-linecap="round" stroke-linejoin="round"/>
<path d="M269.33 336.707H262.45" stroke="white" stroke-miterlimit="10" stroke-linecap="round" stroke-linejoin="round"/>
<path d="M191.246 352.875H210.509" stroke="white" stroke-miterlimit="10" stroke-linecap="round" stroke-linejoin="round"/>
<path d="M221.517 352.875H226.677" stroke="white" stroke-miterlimit="10" stroke-linecap="round" stroke-linejoin="round"/>
<path d="M267.953 352.875H249.378" stroke="white" stroke-miterlimit="10" stroke-linecap="round" stroke-linejoin="round"/>
<path d="M265.889 366.29H262.45" stroke="white" stroke-miterlimit="10" stroke-linecap="round" stroke-linejoin="round"/>
<path d="M210.51 366.29H203.286" stroke="white" stroke-miterlimit="10" stroke-linecap="round" stroke-linejoin="round"/>
<path d="M244.735 379.361H256.602" stroke="white" stroke-miterlimit="10" stroke-linecap="round" stroke-linejoin="round"/>
<path d="M217.045 379.361H198.47" stroke="white" stroke-miterlimit="10" stroke-linecap="round" stroke-linejoin="round"/>
<path d="M194.687 391.056H200.877" stroke="white" stroke-miterlimit="10" stroke-linecap="round" stroke-linejoin="round"/>
<path d="M210.509 391.056H246.627" stroke="white" stroke-miterlimit="10" stroke-linecap="round" stroke-linejoin="round"/>
<path d="M264.17 391.056H258.666" stroke="white" stroke-miterlimit="10" stroke-linecap="round" stroke-linejoin="round"/>
<path d="M246.958 364.227C246.958 374.009 239.026 381.941 229.242 381.941C219.46 381.941 211.527 374.01 211.527 364.227C211.527 354.443 219.46 346.511 229.242 346.511C239.026 346.511 246.958 354.442 246.958 364.227Z" fill="#92E3A9" stroke="#50A42A" stroke-miterlimit="10" stroke-linecap="round" stroke-linejoin="round"/>
<path d="M243.952 364.226C243.952 372.348 237.366 378.934 229.243 378.934C221.12 378.934 214.534 372.348 214.534 364.226C214.534 356.101 221.12 349.517 229.243 349.517C237.366 349.517 243.952 356.101 243.952 364.226Z" stroke="#50A42A" stroke-miterlimit="10" stroke-linecap="round" stroke-linejoin="round"/>
<path d="M229.242 355.913L224.911 360.211V357.289H223.536V361.576L221.187 363.905H223.245V370.993H235.241V363.905H237.298L229.242 355.913Z" fill="white" stroke="#50A42A" stroke-miterlimit="10" stroke-linecap="round" stroke-linejoin="round"/>
<path d="M230.157 337.681C230.157 337.681 236.353 325.814 221.517 315.495C206.68 305.175 203.454 294.486 205.842 286.415" stroke="#50A42A" stroke-width="3" stroke-miterlimit="10" stroke-linecap="round" stroke-linejoin="round"/>
<path d="M227.704 321.225C227.704 321.225 225.972 313.496 239.545 308.046C253.117 302.597 255.137 286.416 255.137 286.416" stroke="#50A42A" stroke-width="3" stroke-miterlimit="10" stroke-linecap="round" stroke-linejoin="round"/>
<path d="M213.388 273.458C215.567 273.451 215.188 287.117 205.13 289.696C205.13 289.696 200.231 288.163 199.457 281.577C198.683 274.991 203.286 272.1 203.286 272.1C203.286 272.1 204.486 276.154 205.842 278.281C205.842 278.281 209.26 273.471 213.388 273.458Z" fill="#92E3A9" stroke="#50A42A" stroke-miterlimit="10" stroke-linecap="round" stroke-linejoin="round"/>
<path d="M205.841 278.282C205.841 278.282 203.057 280.592 205.074 284.795Z" fill="#92E3A9"/>
<path d="M205.841 278.282C205.841 278.282 203.057 280.592 205.074 284.795" stroke="#50A42A" stroke-miterlimit="10" stroke-linecap="round" stroke-linejoin="round"/>
<path d="M254.434 289.696C254.434 289.696 247.212 283.12 249.378 278.282C251.544 273.444 256.213 271.195 256.213 271.195C256.213 271.195 257.765 274.202 258.666 275.629L262.372 273.459C262.372 273.459 269.941 288.149 254.434 289.696Z" fill="#92E3A9" stroke="#50A42A" stroke-miterlimit="10" stroke-linecap="round" stroke-linejoin="round"/>
<path d="M258.666 275.628C258.666 275.628 263.179 282.875 257.503 286.415Z" fill="#92E3A9"/>
<path d="M258.666 275.628C258.666 275.628 263.179 282.875 257.503 286.415" stroke="#50A42A" stroke-miterlimit="10" stroke-linecap="round" stroke-linejoin="round"/>
<path d="M232.499 311.972C232.499 311.972 225.519 294.425 231.306 274.76" stroke="#50A42A" stroke-width="3" stroke-miterlimit="10" stroke-linecap="round" stroke-linejoin="round"/>
<path d="M231.633 274.879C231.633 274.879 240.932 271.89 240.969 266.591C241.005 261.29 237.691 257.307 237.691 257.307C237.691 257.307 235.031 259.399 233.619 260.324L231.148 256.812C231.148 256.812 218.167 267.038 231.633 274.879Z" fill="#92E3A9" stroke="#50A42A" stroke-miterlimit="10" stroke-linecap="round" stroke-linejoin="round"/>
<path d="M233.619 260.323C233.619 260.323 226.506 265.046 230.202 270.62Z" fill="#92E3A9"/>
<path d="M233.619 260.323C233.619 260.323 226.506 265.046 230.202 270.62" stroke="#50A42A" stroke-miterlimit="10" stroke-linecap="round" stroke-linejoin="round"/>
<path d="M354.622 332.58H351.527H306.121C306.121 332.58 312.659 381.867 314.551 396.13C314.895 398.721 316.956 400 319.451 400C325.33 400 344.084 400 351.527 400C353.444 400 354.622 400 354.622 400C362.065 400 380.819 400 386.698 400C389.193 400 391.254 398.721 391.598 396.13C393.49 381.867 400.028 332.58 400.028 332.58H354.622Z" fill="#50A42A"/>
<path d="M404.128 334.401C404.128 335.673 403.096 336.706 401.822 336.706H304.327C303.054 336.706 302.022 335.673 302.022 334.401V330.758C302.022 329.486 303.054 328.453 304.327 328.453H401.822C403.096 328.453 404.128 329.486 404.128 330.758V334.401Z" fill="#50A42A"/>
<path d="M311.294 336.707H360.484" stroke="white" stroke-miterlimit="10" stroke-linecap="round" stroke-linejoin="round"/>
<path d="M366.675 336.707H370.46" stroke="white" stroke-miterlimit="10" stroke-linecap="round" stroke-linejoin="round"/>
<path d="M393.162 336.707H386.282" stroke="white" stroke-miterlimit="10" stroke-linecap="round" stroke-linejoin="round"/>
<path d="M315.079 352.875H334.342" stroke="white" stroke-miterlimit="10" stroke-linecap="round" stroke-linejoin="round"/>
<path d="M345.348 352.875H350.508" stroke="white" stroke-miterlimit="10" stroke-linecap="round" stroke-linejoin="round"/>
<path d="M391.785 352.875H373.211" stroke="white" stroke-miterlimit="10" stroke-linecap="round" stroke-linejoin="round"/>
<path d="M389.722 366.29H386.282" stroke="white" stroke-miterlimit="10" stroke-linecap="round" stroke-linejoin="round"/>
<path d="M334.342 366.29H327.118" stroke="white" stroke-miterlimit="10" stroke-linecap="round" stroke-linejoin="round"/>
<path d="M368.567 379.361H380.434" stroke="white" stroke-miterlimit="10" stroke-linecap="round" stroke-linejoin="round"/>
<path d="M340.877 379.361H322.302" stroke="white" stroke-miterlimit="10" stroke-linecap="round" stroke-linejoin="round"/>
<path d="M318.518 391.056H324.71" stroke="white" stroke-miterlimit="10" stroke-linecap="round" stroke-linejoin="round"/>
<path d="M334.342 391.056H370.459" stroke="white" stroke-miterlimit="10" stroke-linecap="round" stroke-linejoin="round"/>
<path d="M388.002 391.056H382.498" stroke="white" stroke-miterlimit="10" stroke-linecap="round" stroke-linejoin="round"/>
<path d="M370.79 364.227C370.79 374.009 362.858 381.941 353.075 381.941C343.291 381.941 335.359 374.01 335.359 364.227C335.359 354.443 343.291 346.511 353.075 346.511C362.858 346.511 370.79 354.442 370.79 364.227Z" fill="#92E3A9" stroke="#50A42A" stroke-miterlimit="10" stroke-linecap="round" stroke-linejoin="round"/>
<path d="M359.84 362.279V368.515C359.84 368.515 358.546 370.684 353.073 370.684C347.603 370.684 346.309 368.515 346.309 368.515V362.279" fill="white"/>
<path d="M359.84 362.279V368.515C359.84 368.515 358.546 370.684 353.073 370.684C347.603 370.684 346.309 368.515 346.309 368.515V362.279" stroke="#50A42A" stroke-miterlimit="10" stroke-linecap="round" stroke-linejoin="round"/>
<path d="M353.073 357.818L362.464 361.304L353.073 364.789L343.685 361.304L353.073 357.818Z" fill="white" stroke="#50A42A" stroke-miterlimit="10" stroke-linecap="round" stroke-linejoin="round"/>
<path d="M353.073 361.304L357.002 363.331V372.697" stroke="#50A42A" stroke-miterlimit="10" stroke-linecap="round" stroke-linejoin="round"/>
<path d="M367.783 364.226C367.783 372.348 361.198 378.934 353.076 378.934C344.951 378.934 338.366 372.348 338.366 364.226C338.366 356.101 344.951 349.517 353.076 349.517C361.198 349.517 367.783 356.101 367.783 364.226Z" stroke="#50A42A" stroke-miterlimit="10" stroke-linecap="round" stroke-linejoin="round"/>
<path d="M353.075 341.637C353.075 341.637 348.376 329.598 353.075 314.119" stroke="#50A42A" stroke-width="3" stroke-miterlimit="10" stroke-linecap="round" stroke-linejoin="round"/>
<path d="M353.074 301.048C353.074 301.048 367.783 311.022 350.987 320.998C350.987 320.998 334.342 311.022 353.074 301.048Z" fill="#92E3A9" stroke="#50A42A" stroke-miterlimit="10" stroke-linecap="round" stroke-linejoin="round"/>
<path d="M353.075 301.048C353.075 301.048 355.598 304.832 353.073 308.271C350.549 311.711 351.602 316.065 351.602 316.065" stroke="#50A42A" stroke-miterlimit="10" stroke-linecap="round" stroke-linejoin="round"/>
</svg>
