<svg width="388" height="380" viewBox="0 0 388 380" fill="none" xmlns="http://www.w3.org/2000/svg">
<path d="M269.351 18.4083C249.662 29.6725 235.781 48.6142 218.945 63.8155C198.158 82.5856 172.397 95.7972 145.024 101.727C122.506 106.605 98.9006 106.674 77.1608 114.308C34.7855 129.188 5.69769 173.353 4.92616 218.258C4.15464 263.162 29.7395 306.663 67.2852 331.308C80.0348 339.678 94.0757 346.076 108.756 350.208C136.373 357.981 165.653 357.637 194.189 354.666C243.479 349.534 295.147 321.546 326.21 282.084C340.066 264.481 351.762 245.193 361.081 224.826C376.383 191.381 385.293 154.974 386.817 118.21C388.125 86.6201 386.79 51.6154 361.76 28.6014C336.786 5.63885 298.729 1.59985 269.351 18.4083Z" fill="#92E3A9"/>
<path opacity="0.7" d="M269.351 18.4083C249.662 29.6725 235.781 48.6142 218.945 63.8155C198.158 82.5856 172.397 95.7972 145.024 101.727C122.506 106.605 98.9006 106.674 77.1608 114.308C34.7855 129.188 5.69769 173.353 4.92616 218.258C4.15464 263.162 29.7395 306.663 67.2852 331.308C80.0348 339.678 94.0757 346.076 108.756 350.208C136.373 357.981 165.653 357.637 194.189 354.666C243.479 349.534 295.147 321.546 326.21 282.084C340.066 264.481 351.762 245.193 361.081 224.826C376.383 191.381 385.293 154.974 386.817 118.21C388.125 86.6201 386.79 51.6154 361.76 28.6014C336.786 5.63885 298.729 1.59985 269.351 18.4083Z" fill="#0A2D47"/>
<path d="M217.551 380C306.925 380 379.377 360.488 379.377 336.419C379.377 312.35 306.925 292.838 217.551 292.838C128.178 292.838 55.7258 312.35 55.7258 336.419C55.7258 360.488 128.178 380 217.551 380Z" fill="#92E3A9"/>
<path opacity="0.5" d="M217.551 380C306.925 380 379.377 360.488 379.377 336.419C379.377 312.35 306.925 292.838 217.551 292.838C128.178 292.838 55.7258 312.35 55.7258 336.419C55.7258 360.488 128.178 380 217.551 380Z" fill="white"/>
<path d="M245.355 30.5172V137.163C245.355 141.624 241.739 145.24 237.278 145.24H47.0307C42.5694 145.24 38.9536 141.624 38.9536 137.163V30.5172C38.9536 26.0559 42.5694 22.4401 47.0307 22.4401H237.278C241.739 22.4401 245.355 26.0559 245.355 30.5172Z" fill="white"/>
<path d="M245.355 30.5172V33.7152H38.9536V30.5172C38.9536 26.0559 42.5694 22.4401 47.0307 22.4401H237.278C241.739 22.4401 245.355 26.0559 245.355 30.5172Z" fill="#92E3A9"/>
<path d="M245.355 30.5172V137.163C245.355 141.624 241.739 145.24 237.278 145.24H47.0307C42.5694 145.24 38.9536 141.624 38.9536 137.163V30.5172C38.9536 26.0559 42.5694 22.4401 47.0307 22.4401H237.278C241.739 22.4401 245.355 26.0559 245.355 30.5172Z" stroke="#263238" stroke-miterlimit="10" stroke-linecap="round" stroke-linejoin="round"/>
<path d="M245.355 30.5172V33.7152H38.9536V30.5172C38.9536 26.0559 42.5694 22.4401 47.0307 22.4401H237.278C241.739 22.4401 245.355 26.0559 245.355 30.5172Z" stroke="#263238" stroke-miterlimit="10" stroke-linecap="round" stroke-linejoin="round"/>
<path d="M62.1329 28.0772C62.1329 29.216 61.2097 30.1391 60.0709 30.1391C58.9322 30.1391 58.009 29.216 58.009 28.0772C58.009 26.9384 58.9322 26.0153 60.0709 26.0153C61.2097 26.0153 62.1329 26.9384 62.1329 28.0772Z" fill="#263238"/>
<path d="M72.917 28.0772C72.917 29.216 71.9939 30.1391 70.8551 30.1391C69.7163 30.1391 68.7932 29.216 68.7932 28.0772C68.7932 26.9384 69.7163 26.0153 70.8551 26.0153C71.9939 26.0153 72.917 26.9384 72.917 28.0772Z" fill="#263238"/>
<path d="M81.6393 30.1391C82.7781 30.1391 83.7012 29.216 83.7012 28.0772C83.7012 26.9385 82.7781 26.0153 81.6393 26.0153C80.5005 26.0153 79.5774 26.9385 79.5774 28.0772C79.5774 29.216 80.5005 30.1391 81.6393 30.1391Z" fill="#263238"/>
<path d="M112.878 77.3844H54.5241C52.685 77.3844 51.1943 75.8937 51.1943 74.0547V45.9829C51.1943 44.1439 52.685 42.6531 54.5241 42.6531H112.878C114.717 42.6531 116.208 44.1439 116.208 45.9829V74.0547C116.208 75.8937 114.717 77.3844 112.878 77.3844Z" stroke="#263238" stroke-miterlimit="10" stroke-linecap="round" stroke-linejoin="round"/>
<path d="M55.0168 73.0179H111.391" stroke="#263238" stroke-miterlimit="10" stroke-linecap="round" stroke-linejoin="round"/>
<path d="M65.7423 66.3864H59.2019V72.9267H65.7423V66.3864Z" fill="#92E3A9" stroke="#263238" stroke-miterlimit="10"/>
<path d="M75.3175 57.7868H68.7771V73.0179H75.3175V57.7868Z" fill="#92E3A9" stroke="#263238" stroke-miterlimit="10"/>
<path d="M86.1014 60.4064H79.561V73.1713H86.1014V60.4064Z" fill="#92E3A9" stroke="#263238" stroke-miterlimit="10"/>
<path d="M97.4307 47.6929H90.8904V72.7346H97.4307V47.6929Z" fill="#92E3A9" stroke="#263238" stroke-miterlimit="10"/>
<path d="M108.759 47.8851H102.219V72.9268H108.759V47.8851Z" fill="#92E3A9" stroke="#263238" stroke-miterlimit="10"/>
<path d="M196.81 79.1838C206.911 79.1838 215.101 70.9946 215.101 60.8928C215.101 50.7909 206.911 42.6017 196.81 42.6017C186.708 42.6017 178.519 50.7909 178.519 60.8928C178.519 70.9946 186.708 79.1838 196.81 79.1838Z" fill="#92E3A9" stroke="#263238" stroke-miterlimit="10"/>
<path d="M198.308 72.3032V74.1765H195.243V72.3032C192.654 71.6562 190.986 69.4761 190.986 66.6147V65.7628L194.46 65.3884V66.2736C194.46 68.0106 195.345 69.0664 196.776 69.0664C198.206 69.0664 199.092 68.1812 199.092 66.7843C199.092 65.1149 197.526 63.6847 195.686 62.1516C193.506 60.3468 191.326 58.2001 191.326 55.169C191.326 52.2057 192.756 50.0941 195.243 49.4805V47.6072H198.308V49.4805C200.829 50.0598 202.293 52.1714 202.293 55.2024V55.8151L198.819 56.1896V55.5083C198.819 53.6693 198.103 52.7155 196.844 52.7155C195.584 52.7155 194.868 53.4987 194.868 54.9976C194.868 56.667 196.469 58.0629 198.275 59.6303C200.421 61.4694 202.634 63.5818 202.634 66.6129C202.634 69.5095 200.931 71.6896 198.308 72.3032Z" fill="#263238"/>
<path d="M49.6719 95.1322H55.0166" stroke="#263238" stroke-miterlimit="10" stroke-linecap="round" stroke-linejoin="round"/>
<path d="M49.6719 105.456H55.0166" stroke="#263238" stroke-miterlimit="10" stroke-linecap="round" stroke-linejoin="round"/>
<path d="M49.6719 115.78H55.0166" stroke="#263238" stroke-miterlimit="10" stroke-linecap="round" stroke-linejoin="round"/>
<path d="M49.6719 126.104H55.0166" stroke="#263238" stroke-miterlimit="10" stroke-linecap="round" stroke-linejoin="round"/>
<path d="M66.7891 133.907V129.757" stroke="#263238" stroke-miterlimit="10" stroke-linecap="round" stroke-linejoin="round"/>
<path d="M75.2559 133.907V129.757" stroke="#263238" stroke-miterlimit="10" stroke-linecap="round" stroke-linejoin="round"/>
<path d="M83.7229 133.907V129.757" stroke="#263238" stroke-miterlimit="10" stroke-linecap="round" stroke-linejoin="round"/>
<path d="M92.1887 133.907V129.757" stroke="#263238" stroke-miterlimit="10" stroke-linecap="round" stroke-linejoin="round"/>
<path d="M100.656 133.907V129.757" stroke="#263238" stroke-miterlimit="10" stroke-linecap="round" stroke-linejoin="round"/>
<path d="M109.122 133.907V129.757" stroke="#263238" stroke-miterlimit="10" stroke-linecap="round" stroke-linejoin="round"/>
<path d="M117.589 133.907V129.757" stroke="#263238" stroke-miterlimit="10" stroke-linecap="round" stroke-linejoin="round"/>
<path d="M126.055 133.907V129.757" stroke="#263238" stroke-miterlimit="10" stroke-linecap="round" stroke-linejoin="round"/>
<path d="M134.522 133.907V129.757" stroke="#263238" stroke-miterlimit="10" stroke-linecap="round" stroke-linejoin="round"/>
<path d="M142.988 133.907V129.757" stroke="#263238" stroke-miterlimit="10" stroke-linecap="round" stroke-linejoin="round"/>
<path d="M151.455 133.907V129.757" stroke="#263238" stroke-miterlimit="10" stroke-linecap="round" stroke-linejoin="round"/>
<path d="M159.921 133.907V129.757" stroke="#263238" stroke-miterlimit="10" stroke-linecap="round" stroke-linejoin="round"/>
<path d="M168.388 133.907V129.757" stroke="#263238" stroke-miterlimit="10" stroke-linecap="round" stroke-linejoin="round"/>
<path d="M176.854 133.907V129.757" stroke="#263238" stroke-miterlimit="10" stroke-linecap="round" stroke-linejoin="round"/>
<path d="M185.321 133.907V129.757" stroke="#263238" stroke-miterlimit="10" stroke-linecap="round" stroke-linejoin="round"/>
<path d="M193.466 133.907V129.757" stroke="#263238" stroke-miterlimit="10" stroke-linecap="round" stroke-linejoin="round"/>
<path d="M201.612 133.907V129.757" stroke="#263238" stroke-miterlimit="10" stroke-linecap="round" stroke-linejoin="round"/>
<path d="M209.758 133.907V129.757" stroke="#263238" stroke-miterlimit="10" stroke-linecap="round" stroke-linejoin="round"/>
<path d="M231.306 88.8102V128.933C231.306 131.681 228.509 133.906 225.056 133.906H55.9218C53.627 133.906 51.6166 132.923 50.5355 131.454C49.9896 130.715 49.6729 129.854 49.6729 128.933V88.8102C49.6729 86.0625 52.4702 83.8373 55.9227 83.8373H225.058C228.509 83.8373 231.306 86.0625 231.306 88.8102Z" stroke="#92E3A9" stroke-miterlimit="10" stroke-linecap="round" stroke-linejoin="round"/>
<path d="M179.831 11.1109L125.841 83.8373L105.192 111.65L82.639 97.2871L55.0437 133.907H54.6439C52.8184 133.907 51.2185 132.924 50.3577 131.455L81.3694 90.2973L103.904 104.642L119.345 83.8373L175.639 8.00763L179.831 11.1109Z" fill="#263238"/>
<path d="M166.131 12.0331L185.98 0L180.489 20.8086L176.992 11.1821L166.131 12.0331Z" fill="#263238"/>
<path d="M353.921 241.016H36.5687L1 272.641" stroke="#263238" stroke-miterlimit="10" stroke-linecap="round" stroke-linejoin="round"/>
<path d="M36.7688 218.869V157.371" stroke="#263238" stroke-miterlimit="10" stroke-linecap="round" stroke-linejoin="round"/>
<path d="M36.7688 237.446V225.551" stroke="#263238" stroke-miterlimit="10" stroke-linecap="round" stroke-linejoin="round"/>
<path d="M334.819 91.4036C334.819 91.4036 334.819 87.6877 329.613 82.4819C324.407 77.2761 321.068 74.3082 321.068 74.3082C321.068 74.3082 318.466 82.8528 323.294 88.0576C326.847 91.7276 330.702 95.0925 334.818 98.1172V91.4036H334.819Z" fill="#92E3A9"/>
<path d="M327.269 114.616C327.269 114.616 327.269 110.9 322.063 105.694C316.857 100.489 313.519 97.5216 313.519 97.5216C313.519 97.5216 310.916 106.066 315.744 111.272C319.3 114.939 323.155 118.304 327.269 121.332V114.616Z" fill="#92E3A9"/>
<path d="M334.492 97.7346C334.492 97.7346 334.882 94.0376 340.609 89.4103C346.337 84.7829 349.97 82.1868 349.97 82.1868C349.97 82.1868 351.655 90.9885 346.299 95.6222C342.379 98.8888 338.192 101.821 333.781 104.386L334.492 97.7346Z" fill="#92E3A9"/>
<path d="M325.37 125.147C325.37 125.147 326.15 121.513 332.324 117.515C338.498 113.516 342.383 111.309 342.383 111.309C342.383 111.309 343.138 120.212 337.353 124.291C333.112 127.125 328.641 129.597 323.987 131.684L325.37 125.147Z" fill="#92E3A9"/>
<path d="M327.086 155.03C327.086 155.03 327.086 151.314 332.286 146.114C337.485 140.915 340.837 137.941 340.837 137.941C340.837 137.941 343.439 146.491 338.605 151.691C335.054 155.361 331.202 158.726 327.087 161.75V155.03H327.086Z" fill="#92E3A9"/>
<path d="M326.998 162.328C326.998 162.328 327.526 158.65 323.112 152.759C318.699 146.869 315.813 143.448 315.813 143.448C315.813 143.448 312.041 151.539 316.071 157.379C319.069 161.507 322.407 165.376 326.048 168.948L326.998 162.328Z" fill="#92E3A9"/>
<path d="M321.868 183.943C321.868 183.943 321.868 180.227 327.067 175.028C332.267 169.828 335.617 166.855 335.617 166.855C335.617 166.855 338.219 175.405 333.385 180.604C329.836 184.274 325.982 187.639 321.868 190.664V183.943Z" fill="#92E3A9"/>
<path d="M325.338 203.546C325.338 203.546 324.402 199.95 328.124 193.588C331.846 187.225 334.323 183.528 334.323 183.528C334.323 183.528 339.001 191.141 335.65 197.398C333.138 201.838 330.259 206.061 327.043 210.022L325.338 203.546Z" fill="#92E3A9"/>
<path d="M335.291 90.4796C335.026 94.348 334.55 98.1993 333.863 102.016C331.807 112.642 326.664 119.501 324.608 129.095C322.553 138.689 328.456 151.062 326.878 163.391C325.3 175.72 320.496 182.573 321.848 190.802C323.2 199.032 330.417 221.307 330.417 221.307" stroke="#263238" stroke-width="1.1775" stroke-linecap="round" stroke-linejoin="round"/>
<path d="M334.441 100.206L340.05 95.8992" stroke="#263238" stroke-width="1.1775" stroke-linecap="round" stroke-linejoin="round"/>
<path d="M334.7 95.2513L332.354 91.0769" stroke="#263238" stroke-width="1.1775" stroke-linecap="round" stroke-linejoin="round"/>
<path d="M324.923 128.63C324.923 128.63 329.614 125.109 334.442 121.589" stroke="#263238" stroke-width="1.1775" stroke-linecap="round" stroke-linejoin="round"/>
<path d="M327.269 121.286C327.269 121.286 323.358 113.616 318.925 108.53" stroke="#263238" stroke-width="1.1775" stroke-linecap="round" stroke-linejoin="round"/>
<path d="M327.269 160.317C329.956 155.378 333.344 150.854 337.328 146.888" stroke="#263238" stroke-width="1.1775" stroke-linecap="round" stroke-linejoin="round"/>
<path d="M326.356 165.535C324.93 162.177 323.23 158.943 321.27 155.865C318.528 151.823 318.126 151.301 318.126 151.301" stroke="#263238" stroke-width="1.1775" stroke-linecap="round" stroke-linejoin="round"/>
<path d="M321.868 190.778C323.055 187.824 324.468 184.966 326.093 182.227C327.718 179.689 329.55 177.29 331.568 175.053" stroke="#263238" stroke-width="1.1775" stroke-linecap="round" stroke-linejoin="round"/>
<path d="M327.036 210.016C327.036 210.016 326.489 205.565 328.444 201.787C330.4 198.009 332.612 193.047 333.531 191.099" stroke="#263238" stroke-width="1.1775" stroke-linecap="round" stroke-linejoin="round"/>
<path d="M300.75 141.053C300.75 141.053 300.341 138.726 303.045 134.898C305.748 131.069 307.515 128.831 307.515 128.831C307.515 128.831 310.074 133.905 307.609 137.696C305.778 140.378 303.725 142.902 301.473 145.241L300.75 141.053Z" fill="#92E3A9"/>
<path d="M308.005 154.79C308.005 154.79 307.596 152.458 310.293 148.629C312.99 144.8 314.77 142.574 314.77 142.574C314.77 142.574 317.329 147.655 314.865 151.439C313.035 154.122 310.982 156.646 308.728 158.984L308.005 154.79Z" fill="#92E3A9"/>
<path d="M301.642 144.989C301.642 144.989 301.013 142.713 296.902 140.437C292.79 138.162 290.244 136.916 290.244 136.916C290.244 136.916 290.143 142.574 294.016 144.951C296.831 146.57 299.775 147.951 302.818 149.081L301.642 144.989Z" fill="#92E3A9"/>
<path d="M310.338 161.185C310.338 161.185 309.451 158.99 305.144 157.155C300.837 155.319 298.153 154.364 298.153 154.364C298.153 154.364 298.649 160.022 302.736 161.953C305.704 163.268 308.776 164.335 311.921 165.14L310.338 161.185Z" fill="#92E3A9"/>
<path d="M312.506 180.115C312.506 180.115 312.103 177.782 308.275 175.085C304.446 172.388 302.026 170.885 302.026 170.885C302.026 170.885 301.322 176.544 304.918 179.265C307.543 181.171 310.323 182.854 313.229 184.295L312.506 180.115Z" fill="#92E3A9"/>
<path d="M313.349 184.679C313.349 184.679 312.619 182.428 314.744 178.259C316.87 174.091 318.315 171.627 318.315 171.627C318.315 171.627 321.566 176.292 319.667 180.391C318.226 183.304 316.543 186.094 314.637 188.728L313.349 184.679Z" fill="#92E3A9"/>
<path d="M319.881 203.478C319.881 203.478 320.152 201.126 323.817 198.215C327.483 195.304 329.815 193.67 329.815 193.67C329.815 193.67 330.84 199.259 327.408 202.202C324.895 204.256 322.216 206.099 319.398 207.709L319.881 203.478Z" fill="#92E3A9"/>
<path d="M318.912 197.681C318.912 197.681 318.51 195.348 314.681 192.651C310.852 189.954 308.439 188.452 308.439 188.452C308.439 188.452 307.735 194.11 311.324 196.832C313.951 198.739 316.733 200.421 319.642 201.862L318.912 197.681Z" fill="#92E3A9"/>
<path d="M318.862 210.349C318.862 210.349 319.063 207.991 316.046 204.414C313.028 200.837 311.067 198.756 311.067 198.756C311.067 198.756 308.954 204.037 311.74 207.595C313.796 210.112 316.059 212.453 318.505 214.593L318.862 210.349Z" fill="#92E3A9"/>
<path d="M300.347 140.506C300.933 142.905 301.65 145.271 302.498 147.591C304.937 154.03 308.905 157.77 311.237 163.567C313.57 169.364 311.237 177.757 313.538 185.314C315.839 192.871 319.624 196.631 319.655 201.963C319.687 207.294 317.593 222.025 317.593 222.025" stroke="#263238" stroke-width="1.1775" stroke-linecap="round" stroke-linejoin="round"/>
<path d="M301.937 146.529L297.958 144.442" stroke="#263238" stroke-width="1.1775" stroke-linecap="round" stroke-linejoin="round"/>
<path d="M301.24 143.455L302.259 140.582" stroke="#263238" stroke-width="1.1775" stroke-linecap="round" stroke-linejoin="round"/>
<path d="M310.997 163.321C310.997 163.321 307.671 161.624 304.264 159.939" stroke="#263238" stroke-width="1.1775" stroke-linecap="round" stroke-linejoin="round"/>
<path d="M308.728 159.009C309.705 155.918 310.994 152.936 312.575 150.106" stroke="#263238" stroke-width="1.1775" stroke-linecap="round" stroke-linejoin="round"/>
<path d="M312.965 183.447C310.747 180.641 308.134 178.172 305.207 176.116" stroke="#263238" stroke-width="1.1775" stroke-linecap="round" stroke-linejoin="round"/>
<path d="M314.103 186.622C314.631 184.366 315.346 182.157 316.241 180.02C317.498 177.185 317.712 176.814 317.712 176.814" stroke="#263238" stroke-width="1.1775" stroke-linecap="round" stroke-linejoin="round"/>
<path d="M319.478 205.985C319.478 205.985 322.112 202.754 323.76 201.54C324.749 200.809 325.678 199.999 326.538 199.12" stroke="#263238" stroke-width="1.1775" stroke-linecap="round" stroke-linejoin="round"/>
<path d="M319.654 201.962C318.588 200.239 317.392 198.6 316.077 197.057C314.782 195.643 313.374 194.338 311.865 193.153" stroke="#263238" stroke-width="1.1775" stroke-linecap="round" stroke-linejoin="round"/>
<path d="M318.504 214.593C318.372 212.788 317.76 211.052 316.731 209.563C315.09 207.4 313.16 204.534 312.38 203.408" stroke="#263238" stroke-width="1.1775" stroke-linecap="round" stroke-linejoin="round"/>
<path d="M335.831 247.443H312.135C311.159 247.443 310.368 246.652 310.368 245.676L306.967 219.452H340.999L337.598 245.676C337.598 246.652 336.807 247.443 335.831 247.443Z" fill="#263238"/>
<path d="M340.698 223.891H306.967C305.504 223.891 304.315 222.713 304.302 221.251C304.302 219.782 305.492 218.591 306.961 218.591C306.963 218.591 306.965 218.591 306.967 218.591H340.698C342.167 218.588 343.36 219.776 343.363 221.244C343.363 221.246 343.363 221.249 343.363 221.251C343.35 222.714 342.159 223.891 340.698 223.891Z" fill="#263238"/>
<path d="M264.652 119.01C264.652 134.556 253.81 147.582 239.268 150.926C239.232 150.937 239.208 150.937 239.172 150.949C238.312 151.14 237.453 151.307 236.569 151.439C235.04 151.654 233.476 151.773 231.888 151.773C213.787 151.773 199.112 137.099 199.112 119.009C199.112 101.313 213.142 86.89 230.682 86.2691C230.98 86.2448 231.291 86.2448 231.601 86.2448C231.697 86.233 231.792 86.233 231.888 86.233C231.996 86.233 232.115 86.233 232.222 86.2448C236.783 86.2809 241.118 87.2599 245.057 89.0033C256.592 94.0665 264.652 105.601 264.652 119.01Z" fill="#92E3A9"/>
<path opacity="0.4" d="M245.058 89.0042C207.22 87.0343 207.04 129.04 207.04 129.04C207.04 129.04 201.262 115.333 210.694 100.145C215.959 91.6554 225.142 87.906 232.222 86.2466C236.783 86.2818 241.117 87.2608 245.058 89.0042Z" fill="white"/>
<path d="M264.652 119.01C264.652 134.592 253.763 147.642 239.172 150.949C236.832 151.487 234.396 151.773 231.889 151.773C213.788 151.773 199.113 137.099 199.113 119.009C199.113 101.313 213.143 86.89 230.683 86.2691C231.077 86.2457 231.483 86.233 231.888 86.233C249.977 86.2339 264.652 100.908 264.652 119.01Z" stroke="#263238" stroke-miterlimit="10" stroke-linecap="round" stroke-linejoin="round"/>
<path d="M264.652 119.01C264.652 134.592 253.762 147.642 239.172 150.949C238.778 150.973 238.373 150.985 237.967 150.985C219.865 150.985 205.202 136.311 205.202 118.209C205.202 102.627 216.092 89.5772 230.683 86.2691C231.077 86.2457 231.483 86.233 231.888 86.233C249.977 86.2339 264.652 100.908 264.652 119.01Z" stroke="#263238" stroke-miterlimit="10" stroke-linecap="round" stroke-linejoin="round"/>
<path d="M243.177 139.516L244.027 142.977L238.363 144.365L237.514 140.905C232.438 140.882 228.368 137.611 227.071 132.326L226.686 130.753L232.934 128.486L233.334 130.122C234.121 133.332 236.235 134.881 238.878 134.233C241.521 133.584 242.756 131.547 242.123 128.967C241.366 125.886 237.825 123.952 233.731 121.954C228.887 119.607 223.887 116.63 222.514 111.031C221.172 105.556 222.857 101.007 227.174 98.7479L226.325 95.2874L231.987 93.8986L232.836 97.3592C237.755 97.2861 241.417 100.525 242.79 106.124L243.068 107.256L236.82 109.522L236.512 108.264C235.678 104.866 233.924 103.429 231.596 104C229.269 104.571 228.301 106.341 228.981 109.111C229.737 112.192 233.327 114.048 237.372 116.124C242.169 118.551 247.216 121.449 248.59 127.048C249.903 132.395 247.744 137.194 243.177 139.516Z" stroke="#263238" stroke-miterlimit="10"/>
<path opacity="0.3" d="M243.177 139.516L244.027 142.977L238.363 144.365L237.514 140.905C232.438 140.882 228.368 137.611 227.071 132.326L226.686 130.753L232.934 128.486L233.334 130.122C234.121 133.332 236.235 134.881 238.878 134.233C241.521 133.584 242.756 131.547 242.123 128.967C241.366 125.886 237.825 123.952 233.731 121.954C228.887 119.607 223.887 116.63 222.514 111.031C221.172 105.556 222.857 101.007 227.174 98.7479L226.325 95.2874L231.987 93.8986L232.836 97.3592C237.755 97.2861 241.417 100.525 242.79 106.124L243.068 107.256L236.82 109.522L236.512 108.264C235.678 104.866 233.924 103.429 231.596 104C229.269 104.571 228.301 106.341 228.981 109.111C229.737 112.192 233.327 114.048 237.372 116.124C242.169 118.551 247.216 121.449 248.59 127.048C249.903 132.395 247.744 137.194 243.177 139.516Z" fill="black"/>
<path d="M215.143 147.176L222.065 146.859" stroke="#263238" stroke-miterlimit="10" stroke-linecap="round" stroke-linejoin="round"/>
<path d="M211.811 144.878L217.853 144.365" stroke="#263238" stroke-miterlimit="10" stroke-linecap="round" stroke-linejoin="round"/>
<path d="M209.102 142.448L215.143 141.936" stroke="#263238" stroke-miterlimit="10" stroke-linecap="round" stroke-linejoin="round"/>
<path d="M208.276 96.2836H213.448" stroke="#263238" stroke-miterlimit="10" stroke-linecap="round" stroke-linejoin="round"/>
<path d="M210.83 93.8977L215.979 93.664" stroke="#263238" stroke-miterlimit="10" stroke-linecap="round" stroke-linejoin="round"/>
<path d="M214.055 91.5118L219.49 91.0002" stroke="#263238" stroke-miterlimit="10" stroke-linecap="round" stroke-linejoin="round"/>
<path opacity="0.3" d="M239.267 150.926C239.231 150.937 239.207 150.937 239.171 150.949C236.831 151.487 234.395 151.773 231.888 151.773C213.787 151.773 199.112 137.099 199.112 119.009C199.112 101.313 213.142 86.8899 230.682 86.2691C230.98 86.2447 231.291 86.2448 231.601 86.2448C223.613 88.7642 210.216 95.1999 206.634 108.621C201.548 127.678 212.987 149.326 239.267 150.926Z" fill="black"/>
<path opacity="0.1" d="M264.652 119.01C264.652 134.556 253.81 147.582 239.268 150.926C239.231 150.937 239.208 150.937 239.172 150.949C238.312 151.14 237.453 151.307 236.569 151.439L245.058 89.0042C256.592 94.0665 264.652 105.601 264.652 119.01Z" fill="black"/>
<path d="M283.243 67.4285C277.798 75.1303 267.864 77.7805 259.506 74.3181C259.47 74.3064 259.422 74.282 259.387 74.2703C258.766 74.0077 258.145 73.709 257.536 73.3751C256.879 73.0169 256.247 72.6226 255.626 72.1813C246.682 65.8647 244.557 53.4951 250.874 44.5517C256.951 35.9548 268.617 33.6619 277.452 39.1312C277.607 39.2151 277.751 39.3107 277.894 39.4055C278.097 39.5246 278.3 39.6681 278.503 39.8115C278.814 40.0263 279.113 40.2537 279.399 40.4919C287.565 46.9628 289.344 58.8073 283.243 67.4285Z" fill="#92E3A9"/>
<path opacity="0.4" d="M253.34 67.6984C253.34 67.6984 250.095 58.1604 254.405 51.1418C259.813 42.3364 268.11 38.3263 279.397 40.492C279.397 40.492 273.276 36.361 263.035 39.2928C252.796 42.2237 247.301 56.3141 253.34 67.6984Z" fill="white"/>
<path d="M283.24 67.4331C277.801 75.1294 267.865 77.7742 259.504 74.3146C258.161 73.7632 256.857 73.054 255.619 72.1787C246.678 65.8594 244.552 53.4879 250.867 44.5535C257.044 35.8132 269.01 33.5862 277.89 39.4028C278.093 39.5283 278.298 39.6645 278.498 39.8062C287.434 46.121 289.559 58.4924 283.24 67.4331Z" stroke="#263238" stroke-miterlimit="10" stroke-linecap="round" stroke-linejoin="round"/>
<path d="M283.24 67.4331C277.8 75.1294 267.865 77.7742 259.504 74.3145C259.301 74.1891 259.096 74.0528 258.896 73.9112C249.955 67.5919 247.835 55.2249 254.155 46.2843C259.594 38.588 269.529 35.9431 277.891 39.4028C278.094 39.5282 278.299 39.6645 278.499 39.8061C287.434 46.1209 289.559 58.4924 283.24 67.4331Z" stroke="#263238" stroke-miterlimit="10" stroke-linecap="round" stroke-linejoin="round"/>
<path d="M265.474 70.0653L264.686 72.0712L261.404 70.78L262.192 68.774C259.693 66.9909 258.825 63.9544 260.029 60.8909L260.389 59.9795L264.266 61.0407L263.893 61.9891C263.162 63.8498 263.665 65.3522 265.197 65.955C266.729 66.5569 268.05 65.9821 268.638 64.4868C269.34 62.7001 268.265 60.5083 266.942 58.0927C265.368 55.2421 263.938 52.0269 265.214 48.7811C266.462 45.6084 268.883 43.9489 271.803 44.3406L272.592 42.3346L275.874 43.625L275.085 45.6309C277.54 47.3121 278.219 50.1897 276.942 53.4355L276.684 54.0916L272.807 53.0304L273.094 52.3013C273.868 50.3323 273.504 49.0094 272.155 48.4797C270.805 47.9491 269.709 48.486 269.078 50.0914C268.375 51.8771 269.502 54.0473 270.775 56.4846C272.298 59.3587 273.779 62.5522 272.502 65.7971C271.283 68.8967 268.541 70.5138 265.474 70.0653Z" stroke="#263238" stroke-miterlimit="10"/>
<path opacity="0.3" d="M265.474 70.0653L264.686 72.0712L261.404 70.78L262.192 68.774C259.693 66.9909 258.825 63.9544 260.029 60.8909L260.389 59.9795L264.266 61.0407L263.893 61.9891C263.162 63.8498 263.665 65.3522 265.197 65.955C266.729 66.5569 268.05 65.9821 268.638 64.4868C269.34 62.7001 268.265 60.5083 266.942 58.0927C265.368 55.2421 263.938 52.0269 265.214 48.7811C266.462 45.6084 268.883 43.9489 271.803 44.3406L272.592 42.3346L275.874 43.625L275.085 45.6309C277.54 47.3121 278.219 50.1897 276.942 53.4355L276.684 54.0916L272.807 53.0304L273.094 52.3013C273.868 50.3323 273.504 49.0094 272.155 48.4797C270.805 47.9491 269.709 48.486 269.078 50.0914C268.375 51.8771 269.502 54.0473 270.775 56.4846C272.298 59.3587 273.779 62.5522 272.502 65.7971C271.283 68.8967 268.541 70.5138 265.474 70.0653Z" fill="black"/>
<path opacity="0.3" d="M277.451 39.1303C272.007 38.163 265.177 37.6261 261.476 40.002C254.682 44.3605 250.455 49.8523 250.515 58.7595C250.574 67.6668 258.897 73.9112 258.897 73.9112L259.386 74.2695C258.085 73.7199 256.819 73.0278 255.625 72.1796C246.682 65.863 244.557 53.4933 250.873 44.55C256.951 35.954 268.616 33.662 277.451 39.1303Z" fill="black"/>
<path opacity="0.1" d="M283.243 67.4285C277.798 75.1303 267.864 77.7805 259.506 74.3181C259.47 74.3064 259.422 74.282 259.387 74.2703C258.766 74.0077 258.145 73.709 257.536 73.3752L279.399 40.4919C287.565 46.9628 289.344 58.8073 283.243 67.4285Z" fill="black"/>
<path d="M273.029 321.542C264.578 331.575 254.656 340.366 243.392 347.123C239.865 349.233 236.261 351.113 232.569 352.771C206.932 364.298 177.713 365.045 150.384 358.419C92.9343 344.497 62.4513 293.785 58.5838 237.49C57.5397 222.271 55.2107 205.842 61.3748 191.37C67.4848 177.019 80.0006 167.92 94.0992 161.657C104.329 157.107 115.384 154.042 125.428 151.548C143.713 147.01 162.668 149.086 179.646 157.14C191.458 162.745 199.876 172.448 209.81 180.679C210.865 181.547 211.92 182.415 212.985 183.272C223.018 191.349 233.589 198.778 244.589 205.48C261.292 215.667 278.39 225.282 289.06 242.392C306.072 269.654 291.71 299.346 273.029 321.542Z" fill="#92E3A9"/>
<path opacity="0.4" d="M273.029 321.542C264.578 331.575 254.656 340.366 243.392 347.123C239.865 349.233 236.261 351.113 232.569 352.771C206.932 364.298 177.713 365.045 150.384 358.419C92.9343 344.497 62.4513 293.785 58.5838 237.49C57.5397 222.271 55.2107 205.842 61.3748 191.37C67.4848 177.019 80.0006 167.92 94.0992 161.657C104.329 157.107 115.384 154.042 125.428 151.548C143.713 147.01 162.668 149.086 179.646 157.14C191.458 162.745 199.876 172.448 209.81 180.679C210.865 181.547 211.92 182.415 212.985 183.272C223.018 191.349 233.589 198.778 244.589 205.48C261.292 215.667 278.39 225.282 289.06 242.392C306.072 269.654 291.71 299.346 273.029 321.542Z" fill="white"/>
<path d="M212.986 183.268C211.921 182.412 210.863 181.548 209.811 180.676C199.874 172.449 191.457 162.744 179.647 157.14C162.668 149.083 143.708 147.011 125.427 151.548C101.545 157.476 71.9161 166.602 61.3738 191.372C55.2133 205.846 57.5405 222.27 58.5864 237.486C62.4557 293.785 92.9305 344.498 150.383 358.423C181.647 366 215.373 363.927 243.396 347.122C254.653 340.372 264.582 331.571 273.023 321.542C291.705 299.346 306.075 269.652 289.066 242.39C278.393 225.284 261.296 215.67 244.588 205.483C233.586 198.775 223.024 191.347 212.986 183.268Z" stroke="#263238" stroke-miterlimit="10"/>
<path d="M125.916 283.66C121.177 285.124 116.401 286.955 112.049 289.238" stroke="#263238" stroke-miterlimit="10" stroke-linecap="round" stroke-linejoin="round"/>
<path d="M155.234 278.087C155.234 278.087 145.839 278.729 134.43 281.375" stroke="#263238" stroke-miterlimit="10" stroke-linecap="round" stroke-linejoin="round"/>
<path d="M149.107 276.637C149.107 276.637 122.141 260.953 89.6001 273.524" stroke="#263238" stroke-miterlimit="10" stroke-linecap="round" stroke-linejoin="round"/>
<path opacity="0.1" d="M273.029 321.542C264.578 331.574 254.656 340.365 243.392 347.123C239.865 349.233 236.261 351.113 232.569 352.771C229.635 351.87 226.755 350.826 223.931 349.606C207.096 342.376 192.964 330.178 179.152 318.135C170.822 310.882 162.362 303.52 152.394 298.762C139.076 292.399 123.395 291.113 109.219 295.213C116.537 286.894 126.824 281.235 137.768 279.499C130.648 273.015 120.725 270.29 111.088 270.114C101.451 269.927 96.1431 271.125 86.7368 273.234C89.8797 267.443 98.242 262.202 104.836 262.356C98.242 262.201 90.7153 261.762 86.0889 261.026C77.5723 259.653 73.7706 249.642 72.4956 241.126C68.9791 217.676 72.5398 192.676 85.3417 172.731C88.0227 168.555 90.9463 164.885 94.1001 161.655C104.33 157.105 115.385 154.04 125.429 151.546C143.714 147.008 162.669 149.084 179.646 157.138C191.459 162.743 199.877 172.446 209.811 180.677C210.866 181.545 211.921 182.413 212.986 183.27C223.019 191.347 233.59 198.776 244.59 205.478C261.293 215.665 278.391 225.28 289.061 242.39C306.072 269.654 291.71 299.345 273.029 321.542Z" fill="black"/>
<path d="M282.396 320.877C282.396 320.877 289.977 327.258 298.245 332.558C308.977 333.279 304.164 346.252 304.164 346.252L294.978 352.157C294.978 352.157 279.288 339.686 270.724 335.634C262.161 331.583 282.396 320.877 282.396 320.877Z" fill="white"/>
<path opacity="0.3" d="M206.189 184.33C206.189 184.33 204.716 169.773 202.373 165.683L166.747 158.403V155.645C166.747 155.645 167.569 150.841 159.627 147.837C151.685 144.833 135.141 148.738 130.873 151.967C126.605 155.196 128.169 160.755 128.169 160.755C128.169 160.755 113.814 168.028 107.358 170.795C100.903 173.561 91.9469 178.916 91.9469 178.916C91.9469 178.916 89.0295 212.369 89.6007 220.138C90.1719 227.908 89.1369 235.218 89.8002 239.523C90.4643 243.829 90.9913 246.275 95.5085 249.938C100.026 253.601 104.119 259.007 115.954 253.644L114.304 252.338L192.215 226.142L206.189 184.33Z" fill="black"/>
<path d="M206.189 184.33C206.189 184.33 204.716 169.773 202.373 165.683L166.747 158.403V155.645C166.747 155.645 167.569 150.841 159.627 147.837C151.685 144.833 135.141 148.738 130.873 151.967C126.605 155.196 128.169 160.755 128.169 160.755C128.169 160.755 113.814 168.028 107.358 170.795C100.903 173.561 91.9469 178.916 91.9469 178.916C91.9469 178.916 89.0295 212.369 89.6007 220.138C90.1719 227.908 89.1369 235.218 89.8002 239.523C90.4643 243.829 90.9913 246.275 95.5085 249.938C100.026 253.601 104.119 259.007 115.954 253.644L114.304 252.338L192.215 226.142L206.189 184.33Z" fill="#92E3A9"/>
<path opacity="0.05" d="M206.189 184.33C206.189 184.33 204.716 169.773 202.373 165.683L166.747 158.403V155.645C166.747 155.645 167.569 150.841 159.627 147.837C151.685 144.833 135.141 148.738 130.873 151.967C126.605 155.196 128.169 160.755 128.169 160.755C128.169 160.755 113.814 168.028 107.358 170.795C100.903 173.561 91.9469 178.916 91.9469 178.916C91.9469 178.916 89.0295 212.369 89.6007 220.138C90.1719 227.908 89.1369 235.218 89.8002 239.523C90.4643 243.829 90.9913 246.275 95.5085 249.938C100.026 253.601 104.119 259.007 115.954 253.644L114.304 252.338L192.215 226.142L206.189 184.33Z" fill="black"/>
<path opacity="0.1" d="M202.842 167.44H187.937C185.041 167.44 182.571 169.534 182.096 172.39L174.749 216.638C174.749 216.638 164.636 217.479 157.471 222.709C150.307 227.939 132.684 190.656 104.833 190.638C104.833 190.638 112.847 208.952 114.625 223.571C114.625 223.571 97.2175 221.677 94.3272 228.488C91.436 235.299 95.6411 248.069 103 243.129C110.359 238.189 117.255 229.92 122.217 235.106C127.179 240.292 149.105 243.129 149.105 243.129L182.918 226.143L196.032 219.978L202.842 167.44Z" fill="black"/>
<path opacity="0.4" d="M155.512 145.537C155.512 145.537 163.979 147.886 165.349 150.724C166.72 153.561 166.579 160.757 166.579 160.757C166.579 160.757 164.273 167.147 157.472 173.283L151.152 160.757L151.718 174.966C151.718 174.966 139.736 172.971 134.652 169.138C129.567 165.306 129.567 165.306 129.567 165.306C129.567 165.306 127.378 158.112 127.689 155.646C127.999 153.179 137.17 148.231 137.17 148.231L155.512 145.537Z" fill="white"/>
<path d="M296.496 364.551C296.264 364.031 299.973 357.486 297.069 350.814C294.165 344.141 289.534 346.713 289.534 346.713C289.534 346.713 276.35 338.324 270.809 335.675C265.267 333.025 259.305 328.835 259.305 328.835L253.451 336.719L258.862 353.469L296.496 364.551Z" fill="#92E3A9"/>
<path d="M289.05 346.308L305.981 356.655C305.981 356.655 317.88 349.018 323.561 343.746C329.243 338.475 341.942 327.257 341.942 327.257L350.049 316.326C350.049 316.326 344.414 309.36 335.03 314.959C322.903 322.195 308.114 332.658 298.245 332.558C298.245 332.558 300.191 344.678 289.05 346.308Z" fill="#92E3A9"/>
<path d="M152.641 101.784C152.641 101.784 160.325 113.406 161.722 117.17C163.12 120.934 164.248 126.504 163.964 129.18C163.68 131.857 160.876 146.216 159.425 146.636L158.062 148.176L158.936 154.258C158.936 154.258 152.926 164.651 135.256 157.033C135.256 157.033 134.567 144.899 132.419 141.093C130.271 137.288 127.057 141.815 123.842 130.815C120.627 119.816 130.879 108.304 130.879 108.304L152.641 101.784Z" fill="white"/>
<path opacity="0.5" d="M342.731 312.936C342.731 312.936 334.033 314.446 331.205 319.598C328.377 324.751 322.959 334.329 321.108 338.96C319.256 343.59 303.948 354.772 303.948 354.772L305.982 356.656C305.982 356.656 318.438 348.955 325.949 341.638C333.461 334.32 350.046 315.912 350.046 315.912C350.046 315.912 348.862 314.727 342.731 312.936Z" fill="white"/>
<path opacity="0.5" d="M255.599 333.827L253.451 336.72L260.071 350.456L296.497 363.549L298.186 358.212C298.186 358.212 298.749 352.78 285.962 348.688C273.177 344.596 265.38 341.859 261.744 339.029C258.106 336.198 255.599 333.827 255.599 333.827Z" fill="white"/>
<path d="M135.34 231.816C135.34 231.816 124.186 230.142 118.978 239.265C113.771 248.389 114.303 252.338 114.303 252.338C114.303 252.338 121.671 259.035 131.804 258.692C141.936 258.349 156.706 246.671 161.515 242.892C166.324 239.114 178.453 228.294 186.729 230.527L187.641 222.703C187.641 222.703 186.837 219.195 179.757 220.138C172.678 221.081 169.903 225.122 167.626 225.122C165.349 225.122 163.186 222.926 158.572 230.763C158.572 230.763 142.482 233.619 135.34 231.816Z" fill="white"/>
<path d="M149.84 118.503C150.072 119.964 150.41 121.409 150.851 122.821C151.064 123.504 151.313 124.198 151.795 124.726C152.647 125.66 154.014 125.867 155.264 126.056C155.47 126.088 155.695 126.13 155.828 126.29C155.949 126.435 155.962 126.64 155.962 126.83C155.959 128.24 155.528 129.647 154.739 130.815" stroke="#263238" stroke-miterlimit="10" stroke-linecap="round" stroke-linejoin="round"/>
<path opacity="0.1" d="M263.087 324.503L255.599 333.827C255.599 333.827 263.814 341.413 272.317 344.225C280.82 347.037 295.695 352.367 298.185 356.439L297.228 351.537C297.228 351.537 273.96 337.261 268.612 333.854C263.264 330.446 263.087 324.503 263.087 324.503Z" fill="black"/>
<path opacity="0.1" d="M289.05 346.308L303.948 354.772C303.948 354.772 311.284 349.756 314.91 346.02C318.538 342.285 322.962 338.204 325.697 329.89C329.477 318.399 340.308 312.936 340.308 312.936C340.308 312.936 325.247 320.024 317.406 325.593C309.566 331.162 301.923 333.476 297.486 333.098C297.486 333.098 301.05 344.384 289.05 346.308Z" fill="black"/>
<path d="M144.582 132.865C144.582 132.865 150.438 137.457 156.523 135.735C156.523 135.735 150.782 147.101 144.582 132.865Z" fill="white" stroke="#263238" stroke-miterlimit="10" stroke-linecap="round" stroke-linejoin="round"/>
<path d="M144.403 122.938C144.572 124.202 144.191 125.297 143.553 125.382C142.915 125.467 142.261 124.511 142.092 123.247C141.922 121.983 142.303 120.888 142.941 120.803C143.579 120.717 144.234 121.674 144.403 122.938Z" fill="#263238"/>
<path d="M157.116 120.643C157.286 121.907 156.906 123.002 156.267 123.088C155.629 123.173 154.975 122.217 154.805 120.953C154.635 119.688 155.016 118.594 155.654 118.508C156.293 118.422 156.947 119.378 157.116 120.643Z" fill="#263238"/>
<path d="M143.479 117.58C143.479 117.58 140.065 115.822 137.636 119.591" stroke="#263238" stroke-miterlimit="10" stroke-linecap="round" stroke-linejoin="round"/>
<path d="M152.21 115.235C152.21 115.235 155.811 112.136 157.905 115.235" stroke="#263238" stroke-miterlimit="10" stroke-linecap="round" stroke-linejoin="round"/>
<path d="M131.881 129.192C131.881 129.192 129.685 125.951 127.385 126.055C125.085 126.16 124.144 129.401 124.98 132.538C125.817 135.675 129.267 140.067 131.881 139.648C134.495 139.229 135.644 137.556 135.644 137.556" stroke="#263238" stroke-miterlimit="10" stroke-linecap="round" stroke-linejoin="round"/>
<path d="M152.901 104.409C155.369 106.451 157.973 108.687 159.264 111.697C160.363 114.26 160.613 117.096 161.62 119.697C162.693 122.469 163.873 125.37 163.961 128.393C164.043 131.145 163.417 134.005 162.869 136.684C162.396 139.004 162.029 141.395 161.196 143.619C159.984 146.859 157.732 148.851 154.717 150.391C152.523 151.51 148.869 153.118 146.5 151.602C145.118 150.717 143.046 148.12 141.319 145.744" stroke="#263238" stroke-miterlimit="10" stroke-linecap="round" stroke-linejoin="round"/>
<path d="M131.88 139.648C131.88 139.648 135.759 149.161 134.817 155.853" stroke="#263238" stroke-miterlimit="10" stroke-linecap="round" stroke-linejoin="round"/>
<path d="M130.884 127.594C131.922 126.843 132.516 125.521 132.388 124.248C132.242 122.784 131.227 121.434 131.429 119.976C131.528 119.262 131.913 118.624 132.204 117.965C133.273 115.556 133.093 112.632 131.738 110.372C131.738 110.372 144.062 110.949 149.839 107.274C155.617 103.601 160.013 94.2118 156.522 89.7216C153.032 85.2314 146.228 91.3549 141.194 92.0344C136.159 92.7148 118.199 95.5726 115.341 102.512C112.483 109.451 116.838 111.906 116.973 118.503C117.11 125.099 117.102 137.593 126.971 136.449C126.971 136.449 123.281 131.675 125.842 126.755C127.588 124.66 130.884 127.594 130.884 127.594Z" fill="#263238"/>
<path d="M155.058 97.519C155.058 97.519 160.132 100.905 160.96 108.355C161.51 113.301 170.286 122.91 163.961 128.391C163.961 128.391 162.486 122.567 161.62 119.696C160.754 116.825 159.649 111.588 158.194 109.758C156.739 107.928 149.032 101.673 149.032 101.673L155.058 97.519Z" fill="#263238"/>
<path d="M133.019 155.645C133.019 155.645 139.101 159.645 150.398 159.813L151.718 174.965C151.718 174.965 139.021 173.995 129.567 165.305C129.567 165.305 127.015 158.547 127.689 155.645C128.362 152.743 134.414 149.859 134.414 149.859" stroke="#263238" stroke-miterlimit="10" stroke-linecap="round" stroke-linejoin="round"/>
<path d="M158.572 148.866L158.936 154.259C154.83 158.468 150.398 159.815 150.398 159.815L157.473 173.283C157.473 173.283 165.904 166.717 166.746 159.815C166.746 159.815 166.816 152.744 165.35 150.724C163.885 148.704 158.519 147.752 158.519 147.752" stroke="#263238" stroke-miterlimit="10" stroke-linecap="round" stroke-linejoin="round"/>
<path opacity="0.8" d="M124.337 106.99C125.252 104.723 127.709 103.42 130.12 103.015C132.531 102.609 134.998 102.911 137.442 102.846C140.792 102.758 144.172 101.95 147.004 100.158C149.836 98.3663 152.073 95.5292 152.783 92.2545" stroke="white" stroke-miterlimit="10" stroke-linecap="round" stroke-linejoin="round"/>
<path opacity="0.8" d="M118.512 106.554C120.043 101.921 124.986 99.0648 129.849 98.6524C132.257 98.4476 134.693 98.7318 137.093 98.4493C139.493 98.1669 141.992 97.1761 143.246 95.1097" stroke="white" stroke-miterlimit="10" stroke-linecap="round" stroke-linejoin="round"/>
<path d="M115.953 253.645C104.242 259.727 100.054 253.471 93.5224 248.29C86.9902 243.11 91.2701 233.875 89.9184 219.009C88.5666 204.144 91.9451 178.917 91.9451 178.917C91.9451 178.917 94.8733 178.241 102.982 173.282C111.091 168.322 128.168 160.756 128.168 160.756" stroke="#263238" stroke-miterlimit="10" stroke-linecap="round" stroke-linejoin="round"/>
<path d="M127.576 231.182C127.576 231.182 125.715 225.29 120.46 225.13C115.205 224.971 106.925 227.342 101.029 238.509" stroke="#263238" stroke-miterlimit="10" stroke-linecap="round" stroke-linejoin="round"/>
<path d="M119.264 224.78C118.937 224.785 118.623 224.665 118.316 224.554C114.022 222.999 109.252 222.783 104.834 223.945" stroke="#263238" stroke-miterlimit="10" stroke-linecap="round" stroke-linejoin="round"/>
<path d="M101.816 186.972C111.364 197.528 116.024 211.497 120.437 225.03" stroke="#263238" stroke-miterlimit="10" stroke-linecap="round" stroke-linejoin="round"/>
<path d="M166.747 158.403C166.747 158.403 184.075 162.535 192.536 163.518C200.996 164.502 202.373 165.682 202.373 165.682L203.947 171.585" stroke="#263238" stroke-miterlimit="10" stroke-linecap="round" stroke-linejoin="round"/>
<path d="M247.486 168.695L188.478 170.965L183.656 231.651H193.766L245 220.175L251.446 170.155L247.486 168.695Z" fill="white"/>
<path d="M186.729 233.448L251.261 171.585L244.999 220.175L186.729 233.448Z" fill="#92E3A9"/>
<path opacity="0.7" d="M186.729 233.448L251.261 171.585L244.999 220.175L186.729 233.448Z" fill="white"/>
<path d="M186.729 231.816L191.886 173.282L251.446 170.155L244.999 220.175L186.729 231.816Z" stroke="#263238" stroke-miterlimit="10" stroke-linecap="round" stroke-linejoin="round"/>
<path d="M226.34 198.509C225.938 202.074 224.034 204.784 222.088 204.564C220.143 204.344 218.892 201.277 219.295 197.713C219.697 194.149 221.601 191.438 223.547 191.659C225.492 191.879 226.744 194.946 226.34 198.509Z" fill="#263238"/>
<path d="M244.999 220.175C244.999 220.175 272.269 219.4 280.798 225.03C289.328 230.66 294.328 258.897 293.151 273.897C291.975 288.898 281.681 323.311 281.681 323.311L261.974 300.957C261.974 300.957 252.268 265.662 257.562 251.838C257.562 251.838 231.384 253.308 221.09 250.073C221.09 250.073 211.857 234.961 196.032 229.957L244.999 220.175Z" fill="#263238"/>
<path d="M285.842 323.893C277.514 316.351 269.479 305.971 267.095 302.279C257.557 287.543 244.371 273.368 230.811 262.368C219.877 253.501 217.404 239.061 203.921 231.819C181.592 219.841 162.285 243.643 155.065 248.456C147.845 253.27 135.34 258.698 135.34 258.698C135.34 258.698 139.901 275.808 153.306 277.874C166.713 279.939 180.283 270.654 186.734 275.127C193.184 279.588 197.898 299.532 219.084 311.224C236.403 320.773 259.995 330.092 272.171 336.366C274.896 337.773 276.9 339.254 278.434 340.091C282.639 342.384 287.133 345.088 291.371 347.757L305.981 356.655C305.981 356.655 320.641 347.983 326.272 339.986C327.029 338.912 328.585 336.049 330.047 333.287C333.237 327.257 337.249 321.842 342.852 318.831C346.718 316.754 350.157 316.116 350.047 315.911C349.674 315.223 342.676 311.644 337.916 313.603C327.847 317.757 307.719 333.741 298.246 332.558C298.246 332.558 291.343 328.877 285.842 323.893Z" stroke="#263238" stroke-miterlimit="10"/>
<path d="M285.842 323.893C277.061 327.442 273.523 332.904 272.172 336.366C259.996 330.092 236.403 320.773 219.085 311.224C197.899 299.532 193.184 279.588 186.734 275.127C180.284 270.655 166.713 279.94 153.307 277.874C139.9 275.807 135.344 258.693 135.344 258.693C135.344 258.693 147.849 253.272 155.068 248.459C162.288 243.646 178.934 219.837 203.92 231.818C217.722 238.437 219.876 253.5 230.81 262.367C244.37 273.367 257.556 287.542 267.094 302.278C269.479 305.971 277.49 316.378 285.842 323.893Z" fill="#263238"/>
<path d="M219.862 247.397C219.862 247.397 213.104 233.661 202.262 230.996" stroke="white" stroke-miterlimit="10" stroke-linecap="round" stroke-linejoin="round"/>
<path d="M184.437 220.052C176.981 218.425 168.795 226.665 165.35 225.123C162.787 223.976 158.573 230.764 158.573 230.764C158.573 230.764 147.659 232.449 137.618 231.816C127.576 231.182 122.816 233.132 119.264 238.509L114.303 251.649C114.303 251.649 127.39 263.394 141.378 256.552C155.365 249.708 173.934 229.117 186.729 229.188" stroke="#263238" stroke-miterlimit="10" stroke-linecap="round" stroke-linejoin="round"/>
<path d="M288.482 345.957C288.482 345.957 300.726 346.963 297.851 332.342" stroke="#263238" stroke-miterlimit="10"/>
<path d="M346.149 323.311C345.221 325.153 334.024 334.662 324.36 343.009C324.389 342.879 327.033 337.785 328.193 335.611C330.758 330.808 337.399 317.642 350.047 315.911C351.841 316.991 346.149 323.311 346.149 323.311Z" fill="#263238"/>
<path d="M341.336 313.029C328.552 315.582 325.649 331.961 321.108 338.96C316.567 345.959 303.948 355.417 303.948 355.417" stroke="#263238" stroke-miterlimit="10"/>
<path d="M297.069 351.226C299.147 355.039 298.164 359.458 297.069 362.226C296.149 364.555 295.063 366.169 295.063 366.169C276.962 363.195 258.861 353.469 258.861 353.469L254.194 339.028L253.45 336.719L260.475 327.257" stroke="#263238" stroke-miterlimit="10"/>
<path d="M297.069 362.227C296.149 364.556 295.063 366.17 295.063 366.17C276.962 363.196 258.861 353.47 258.861 353.47L254.194 339.029C256.532 342.082 260.867 346.543 267.363 348.383C276.18 350.877 292.451 353.802 297.069 362.227Z" fill="#263238"/>
<path d="M183.656 229.539L188.478 170.965L247.486 168.695L251.446 170.155" stroke="#263238" stroke-miterlimit="10" stroke-linecap="round" stroke-linejoin="round"/>
<path d="M297.725 338.96C297.725 338.96 305.796 340.4 311.991 335.342C318.186 330.284 328.181 318.856 328.181 318.856" stroke="#263238" stroke-miterlimit="10"/>
<path d="M305.982 331.663C305.982 331.663 304.036 334.596 305.982 340.486" stroke="#263238" stroke-miterlimit="10" stroke-linecap="round" stroke-linejoin="round"/>
<path d="M311.702 328.877C311.702 328.877 310.142 333.264 312.432 337.698" stroke="#263238" stroke-miterlimit="10" stroke-linecap="round" stroke-linejoin="round"/>
<path d="M318.519 324.924C318.519 324.924 316.885 329.827 318.519 334.151" stroke="#263238" stroke-miterlimit="10" stroke-linecap="round" stroke-linejoin="round"/>
<path d="M262.075 326.037L255.599 333.827C255.599 333.827 262.123 340.943 271.31 343.902C280.497 346.861 296.935 351.888 298.293 357.238" stroke="#263238" stroke-miterlimit="10"/>
</svg>
