<svg width="801" height="803" viewBox="0 0 801 803" fill="none" xmlns="http://www.w3.org/2000/svg">
<path d="M766.651 111.198C785.462 92.3867 785.462 61.8876 766.651 43.0763C747.84 24.2651 717.341 24.265 698.53 43.0763C679.718 61.8876 679.718 92.3867 698.53 111.198C717.341 130.009 747.84 130.009 766.651 111.198Z" fill="#D1D1FF"/>
<path d="M737.554 98.6927V105.357H729.085V98.9908C723.08 98.6293 717.256 97.0103 713.652 94.7856L718.215 84.4583C722.18 86.8003 727.461 88.302 732.087 88.302C736.111 88.302 737.553 87.461 737.553 86.0183C737.553 80.7326 714.312 84.9967 714.312 69.3247C714.312 62.5378 719.236 56.831 729.084 55.4524V48.9075H737.553V55.3305C741.993 55.751 746.321 56.8951 749.744 58.8172L745.48 69.0855C741.333 66.9827 737.431 65.961 733.769 65.961C729.622 65.961 728.302 67.164 728.302 68.6061C728.302 73.6477 751.544 69.4471 751.544 84.9383C751.544 91.422 746.859 97.0698 737.554 98.6927Z" fill="white"/>
<path d="M648.854 171.753C664.97 171.753 678.035 158.688 678.035 142.572C678.035 126.456 664.97 113.392 648.854 113.392C632.738 113.392 619.674 126.456 619.674 142.572C619.674 158.688 632.738 171.753 648.854 171.753Z" fill="#D1D1FF"/>
<path d="M651.856 155.634V159.671H646.726V155.814C643.088 155.595 639.56 154.615 637.377 153.267L640.141 147.011C642.543 148.43 645.742 149.339 648.544 149.339C650.982 149.339 651.856 148.83 651.856 147.956C651.856 144.754 637.776 147.337 637.776 137.843C637.776 133.731 640.759 130.275 646.725 129.44V125.475H651.856V129.365C654.546 129.62 657.167 130.313 659.24 131.477L656.657 137.698C654.145 136.424 651.782 135.805 649.563 135.805C647.051 135.805 646.251 136.534 646.251 137.408C646.251 140.462 660.33 137.917 660.33 147.302C660.33 151.229 657.493 154.65 651.856 155.634Z" fill="white"/>
<path d="M748.639 166.415C751.448 154.301 743.906 142.204 731.792 139.395C719.679 136.586 707.581 144.128 704.772 156.242C701.963 168.355 709.506 180.453 721.619 183.262C733.733 186.071 745.83 178.528 748.639 166.415Z" fill="#D1D1FF"/>
<path d="M729.042 171.365V174.481H725.083V171.505C722.277 171.335 719.555 170.579 717.87 169.539L720.002 164.712C721.856 165.806 724.325 166.508 726.487 166.508C728.368 166.508 729.043 166.115 729.043 165.441C729.043 162.97 718.179 164.963 718.179 157.637C718.179 154.465 720.481 151.798 725.084 151.153V148.094H729.043V151.096C731.118 151.293 733.141 151.828 734.741 152.726L732.748 157.526C730.81 156.543 728.986 156.065 727.274 156.065C725.335 156.065 724.718 156.627 724.718 157.301C724.718 159.658 735.582 157.695 735.582 164.935C735.581 167.966 733.392 170.606 729.042 171.365Z" fill="white"/>
<path d="M636.087 63.1555H632.794V86.755H636.087V63.1555Z" fill="#9192FF"/>
<path d="M646.24 73.3088H622.641V76.6017H646.24V73.3088Z" fill="#9192FF"/>
<path d="M665.461 0H660.515V35.4472H665.461V0Z" fill="#9192FF"/>
<path d="M680.711 15.251H645.264V20.1973H680.711V15.251Z" fill="#9192FF"/>
<path d="M776.625 181.273H772.88V208.113H776.625V181.273Z" fill="#9192FF"/>
<path d="M788.173 192.821H761.333V196.566H788.173V192.821Z" fill="#9192FF"/>
<path opacity="0.4" d="M361.835 119.597C378.901 102.532 378.901 74.8636 361.835 57.7984C344.77 40.7331 317.102 40.7331 300.037 57.7984C282.971 74.8636 282.971 102.532 300.037 119.597C317.102 136.662 344.77 136.662 361.835 119.597Z" fill="#E5E5FF"/>
<path opacity="0.4" d="M435.231 665.052C462.394 665.052 484.413 643.033 484.413 615.871C484.413 588.709 462.394 566.69 435.231 566.69C408.069 566.69 386.05 588.709 386.05 615.871C386.05 643.033 408.069 665.052 435.231 665.052Z" fill="#E5E5FF"/>
<path d="M344.155 688.006C343.638 688.006 343.122 688.002 342.608 687.994L342.631 686.577C344.963 686.615 347.333 686.565 349.657 686.429L349.74 687.843C347.893 687.951 346.014 688.005 344.155 688.006ZM335.487 687.613C333.124 687.398 330.744 687.091 328.414 686.699L328.649 685.302C330.944 685.688 333.288 685.991 335.616 686.202L335.487 687.613ZM356.838 687.16L356.649 685.756C358.964 685.445 361.293 685.042 363.572 684.558L363.866 685.944C361.552 686.436 359.187 686.845 356.838 687.16ZM321.429 685.252C319.127 684.683 316.82 684.019 314.575 683.278L315.018 681.932C317.229 682.662 319.501 683.317 321.769 683.877L321.429 685.252ZM370.781 684.198L370.382 682.84C372.621 682.182 374.862 681.431 377.043 680.606L377.544 681.931C375.33 682.768 373.054 683.531 370.781 684.198ZM307.884 680.785C305.696 679.874 303.515 678.866 301.403 677.791L302.045 676.528C304.126 677.587 306.274 678.579 308.429 679.477L307.884 680.785ZM384.11 679.157L383.509 677.874C385.621 676.886 387.721 675.805 389.751 674.659L390.447 675.893C388.386 677.056 386.253 678.154 384.11 679.157ZM295.168 674.315C293.147 673.086 291.144 671.761 289.216 670.379L290.041 669.228C291.941 670.59 293.913 671.894 295.904 673.105L295.168 674.315ZM396.52 672.159L395.733 670.981C397.675 669.684 399.589 668.298 401.424 666.861L402.297 667.977C400.434 669.435 398.491 670.842 396.52 672.159ZM283.578 666.006C281.762 664.484 279.981 662.875 278.285 661.223L279.274 660.208C280.945 661.836 282.699 663.421 284.488 664.92L283.578 666.006ZM407.743 663.373L406.789 662.326C408.51 660.756 410.197 659.098 411.799 657.4L412.829 658.371C411.202 660.096 409.491 661.779 407.743 663.373ZM273.367 656.056C271.799 654.28 270.28 652.423 268.851 650.536L269.981 649.68C271.388 651.539 272.885 653.369 274.429 655.119L273.367 656.056ZM417.526 653.001L416.426 652.109C417.898 650.292 419.316 648.4 420.642 646.485L421.807 647.292C420.461 649.235 419.021 651.156 417.526 653.001ZM264.764 644.692C263.479 642.698 262.256 640.635 261.13 638.558L262.375 637.883C263.484 639.928 264.689 641.961 265.954 643.924L264.764 644.692ZM425.645 641.275L424.424 640.559C425.604 638.544 426.723 636.46 427.746 634.363L429.019 634.985C427.979 637.114 426.844 639.23 425.645 641.275ZM257.971 632.167C257.004 630.007 256.107 627.784 255.307 625.559L256.64 625.079C257.429 627.27 258.311 629.461 259.264 631.588L257.971 632.167ZM431.906 628.455L430.589 627.931C431.451 625.763 432.241 623.532 432.936 621.301L434.289 621.723C433.583 623.989 432.781 626.254 431.906 628.455ZM253.151 618.759C252.522 616.476 251.972 614.14 251.519 611.815L252.909 611.543C253.357 613.833 253.898 616.134 254.517 618.382L253.151 618.759ZM436.149 614.837L434.767 614.52C435.289 612.249 435.73 609.927 436.079 607.618L437.48 607.83C437.126 610.174 436.678 612.532 436.149 614.837ZM250.417 604.77C250.141 602.42 249.95 600.029 249.85 597.661L251.266 597.601C251.364 599.934 251.551 602.29 251.824 604.604L250.417 604.77ZM438.278 600.742L436.866 600.637C437.039 598.318 437.127 595.956 437.127 593.616H438.544C438.544 595.992 438.454 598.389 438.278 600.742ZM437.121 592.67C437.099 590.333 436.987 587.972 436.79 585.652L438.201 585.532C438.402 587.887 438.515 590.284 438.538 592.656L437.121 592.67ZM251.231 590.573L249.815 590.527C249.891 588.155 250.058 585.762 250.311 583.413L251.719 583.565C251.47 585.878 251.306 588.236 251.231 590.573ZM435.934 578.68C435.562 576.376 435.096 574.058 434.552 571.793L435.93 571.462C436.483 573.762 436.955 576.114 437.333 578.455L435.934 578.68ZM252.733 576.613L251.34 576.355C251.771 574.023 252.296 571.682 252.901 569.396L254.271 569.759C253.675 572.01 253.158 574.316 252.733 576.613ZM432.648 565.029C431.932 562.812 431.122 560.591 430.237 558.431L431.549 557.894C432.446 560.088 433.27 562.342 433.996 564.594L432.648 565.029ZM256.326 563.041L254.989 562.575C255.768 560.335 256.644 558.098 257.591 555.926L258.89 556.493C257.957 558.631 257.094 560.834 256.326 563.041ZM427.334 552.039C426.292 549.958 425.155 547.888 423.955 545.884L425.169 545.156C426.388 547.19 427.543 549.292 428.601 551.405L427.334 552.039ZM261.942 550.158L260.691 549.495C261.8 547.4 263.004 545.323 264.268 543.32L265.466 544.076C264.221 546.048 263.036 548.095 261.942 550.158ZM420.118 540.001C418.771 538.095 417.335 536.218 415.85 534.422L416.942 533.519C418.449 535.343 419.907 537.248 421.275 539.183L420.118 540.001ZM269.439 538.276L268.301 537.432C269.712 535.529 271.215 533.657 272.765 531.866L273.836 532.794C272.309 534.556 270.829 536.402 269.439 538.276ZM411.174 529.178C409.556 527.496 407.854 525.855 406.116 524.3L407.06 523.244C408.825 524.822 410.553 526.489 412.195 528.196L411.174 529.178ZM278.632 527.657L277.634 526.652C279.314 524.982 281.08 523.356 282.88 521.819L283.8 522.896C282.026 524.41 280.288 526.011 278.632 527.657ZM400.705 519.814C398.855 518.395 396.926 517.026 394.971 515.748L395.746 514.563C397.731 515.86 399.689 517.249 401.568 518.691L400.705 519.814ZM289.309 518.537L288.472 517.393C290.382 515.995 292.37 514.653 294.381 513.402L295.129 514.605C293.149 515.837 291.19 517.16 289.309 518.537ZM388.947 512.125C386.899 510.998 384.786 509.936 382.663 508.97L383.251 507.681C385.405 508.662 387.551 509.741 389.63 510.885L388.947 512.125ZM301.229 511.125L300.575 509.869C302.677 508.773 304.843 507.746 307.015 506.815L307.572 508.118C305.433 509.034 303.299 510.046 301.229 511.125ZM376.158 506.3C373.967 505.496 371.718 504.767 369.475 504.134L369.86 502.771C372.138 503.414 374.421 504.154 376.646 504.97L376.158 506.3ZM314.124 505.601L313.666 504.261C315.907 503.496 318.206 502.808 320.5 502.217L320.854 503.588C318.594 504.171 316.33 504.848 314.124 505.601ZM362.646 502.484C360.367 502.023 358.034 501.643 355.713 501.356L355.887 499.95C358.245 500.243 360.613 500.627 362.927 501.095L362.646 502.484ZM327.718 502.092L327.469 500.698C329.792 500.283 332.169 499.951 334.532 499.712L334.676 501.12C332.348 501.358 330.006 501.685 327.718 502.092ZM348.713 500.754C346.379 500.641 344.012 500.616 341.687 500.677L341.649 499.26C344.01 499.199 346.412 499.224 348.781 499.338L348.713 500.754Z" fill="#9192FF"/>
<path d="M267.456 128.02L267.443 126.603C269.775 126.582 272.121 126.423 274.418 126.127L274.598 127.532C272.247 127.835 269.844 127.999 267.456 128.02ZM260.305 127.66C257.936 127.399 255.561 126.991 253.247 126.448L253.57 125.069C255.829 125.599 258.148 125.996 260.46 126.251L260.305 127.66ZM281.635 126.193L281.286 124.82C283.539 124.248 285.78 123.532 287.946 122.693L288.458 124.014C286.239 124.873 283.944 125.607 281.635 126.193ZM246.38 124.393C244.147 123.573 241.938 122.608 239.814 121.523L240.459 120.261C242.532 121.32 244.688 122.263 246.868 123.062L246.38 124.393ZM294.969 121.027L294.302 119.778C296.348 118.686 298.352 117.455 300.259 116.122L301.071 117.283C299.118 118.649 297.065 119.908 294.969 121.027ZM233.641 117.885C231.668 116.557 229.754 115.094 227.95 113.536L228.876 112.464C230.637 113.985 232.507 115.414 234.433 116.711L233.641 117.885ZM306.682 112.834L305.737 111.779C307.468 110.229 309.125 108.559 310.66 106.813L311.724 107.748C310.152 109.536 308.455 111.248 306.682 112.834ZM222.819 108.54C221.215 106.78 219.702 104.906 218.32 102.969L219.473 102.146C220.823 104.037 222.3 105.867 223.866 107.586L222.819 108.54ZM316.124 102.096L314.957 101.294C316.274 99.3756 317.487 97.3594 318.563 95.3013L319.818 95.9569C318.716 98.0655 317.474 100.131 316.124 102.096ZM214.52 96.9004C213.38 94.81 212.356 92.6307 211.477 90.4219L212.793 89.8977C213.651 92.0538 214.651 94.1816 215.763 96.2216L214.52 96.9004ZM322.747 89.4172L321.422 88.9174C322.242 86.7414 322.937 84.4929 323.489 82.2342L324.865 82.5703C324.3 84.8845 323.587 87.1879 322.747 89.4172ZM209.236 83.6191C208.629 81.3191 208.157 78.9561 207.831 76.596L209.235 76.4022C209.552 78.7062 210.014 81.0125 210.606 83.2576L209.236 83.6191ZM326.141 75.5233L324.734 75.355C325.009 73.0561 325.148 70.7073 325.148 68.375C325.148 67.6729 325.135 66.9612 325.11 66.2608L326.526 66.2098C326.551 66.9277 326.565 67.6559 326.565 68.375C326.565 70.7634 326.422 73.1683 326.141 75.5233ZM207.279 69.4584C207.273 69.098 207.269 68.7365 207.269 68.3744C207.269 66.3492 207.372 64.3064 207.575 62.3044L208.984 62.4472C208.786 64.4021 208.686 66.3968 208.686 68.375C208.686 68.7291 208.689 69.0816 208.696 69.4329L207.279 69.4584ZM324.445 59.3005C324.085 57.0016 323.582 54.7044 322.95 52.4712L324.313 52.0847C324.961 54.3729 325.477 56.7268 325.845 59.0812L324.445 59.3005ZM210.104 55.5453L208.722 55.2342C209.245 52.9087 209.916 50.5922 210.715 48.3499L212.049 48.8253C211.269 51.0143 210.614 53.2753 210.104 55.5453ZM320.641 45.8719C319.743 43.7317 318.705 41.6226 317.555 39.603L318.786 38.9021C319.964 40.9704 321.028 43.131 321.947 45.324L320.641 45.8719ZM214.791 42.3904L213.523 41.7574C214.586 39.6302 215.791 37.5421 217.105 35.552L218.287 36.3323C217.004 38.2753 215.828 40.3136 214.791 42.3904ZM313.738 33.7472C312.356 31.8812 310.844 30.0781 309.248 28.3878L310.277 27.4148C311.913 29.1459 313.46 30.9921 314.876 32.9034L313.738 33.7472ZM222.483 30.7382L221.402 29.822C222.941 28.007 224.607 26.2656 226.351 24.6456L227.315 25.6837C225.611 27.2652 223.985 28.9657 222.483 30.7382ZM304.15 23.6007C302.362 22.1126 300.467 20.7181 298.517 19.4556L299.287 18.2662C301.284 19.5593 303.225 20.9872 305.057 22.5115L304.15 23.6007ZM232.715 21.2422L231.882 20.0959C233.809 18.6957 235.838 17.398 237.915 16.2404L238.605 17.4779C236.577 18.6084 234.596 19.8749 232.715 21.2422ZM292.427 16.0148C290.338 14.9943 288.164 14.0916 285.968 13.3317L286.431 11.9933C288.681 12.7719 290.907 13.6966 293.049 14.7421L292.427 16.0148ZM244.901 14.4497L244.366 13.1385C246.57 12.2375 248.852 11.4623 251.148 10.835L251.522 12.2012C249.281 12.8138 247.053 13.5703 244.901 14.4497ZM279.231 11.4487C276.963 10.9608 274.637 10.605 272.319 10.3913L272.449 8.98093C274.824 9.19966 277.206 9.56346 279.529 10.0638L279.231 11.4487ZM258.364 10.7676L258.158 9.3657C260.505 9.0206 262.905 8.81263 265.292 8.7486L265.33 10.1647C262.999 10.2276 260.656 10.4304 258.364 10.7676Z" fill="#9192FF"/>
<path d="M29.0571 432.723C17.7308 432.723 8.51587 423.508 8.51587 412.181C8.51587 400.855 17.7308 391.64 29.0571 391.64C40.3835 391.64 49.5984 400.855 49.5984 412.181C49.5984 423.508 40.3835 432.723 29.0571 432.723ZM29.0571 394.473C19.2931 394.473 11.3491 402.417 11.3491 412.181C11.3491 421.946 19.2931 429.889 29.0571 429.889C38.8212 429.889 46.7651 421.946 46.7651 412.181C46.7651 402.417 38.8212 394.473 29.0571 394.473Z" fill="#9192FF"/>
<path d="M716.128 168.852H127.375V604.136H716.128V168.852Z" fill="white"/>
<path d="M717.544 605.553H125.959V167.435H717.544V605.553ZM128.792 602.72H714.711V170.268H128.792V602.72Z" fill="#9192FF"/>
<path d="M216.339 462.76H168.173V555.97H216.339V462.76Z" fill="#D1D1FF"/>
<path d="M292.837 416.28H244.671V555.971H292.837V416.28Z" fill="#D1D1FF"/>
<path d="M369.336 320.41H321.17V555.97H369.336V320.41Z" fill="#D1D1FF"/>
<path d="M445.834 388.473H397.669V555.971H445.834V388.473Z" fill="#D1D1FF"/>
<path d="M522.333 314.602H474.167V555.97H522.333V314.602Z" fill="#D1D1FF"/>
<path d="M598.832 327.211H550.666V555.97H598.832V327.211Z" fill="#D1D1FF"/>
<path d="M675.33 243.629H627.164V555.97H675.33V243.629Z" fill="#D1D1FF"/>
<path d="M182.697 518.984L181.412 516.459L261.86 475.528L344.825 362.524L420.781 442.03L498.868 363.943L574.597 373.144L650.602 285.878L652.739 287.74L575.747 376.138L499.896 366.922L420.735 446.083L345.11 366.924L263.746 477.749L182.697 518.984Z" fill="#3335CF"/>
<path d="M540.277 222.588H303.226V225.421H540.277V222.588Z" fill="#3335CF"/>
<path d="M460.261 253.754H383.241V256.587H460.261V253.754Z" fill="#3335CF"/>
<path d="M117.865 687.369C122.485 663.013 119.479 637.095 109.432 614.661C99.3842 592.226 82.3516 573.401 61.6511 561.852C72.1371 575.153 74.8395 593.403 75.902 610.717C76.9644 628.031 76.8874 645.907 83.1693 661.923C89.4513 677.938 104.28 691.8 120.498 689.792L117.865 687.369Z" fill="#3335CF"/>
<path d="M118.205 693.508C113.585 669.153 116.591 643.234 126.638 620.8C136.686 598.365 153.718 579.541 174.419 567.992C163.933 581.291 161.23 599.542 160.168 616.856C159.105 634.171 159.182 652.046 152.9 668.062C146.619 684.077 131.79 697.939 115.572 695.931L118.205 693.508Z" fill="#3335CF"/>
<path d="M99.6224 681.924C89.1744 664.536 86.3218 642.217 92.0269 622.497C97.732 602.777 111.892 586.016 129.727 577.868C125.974 602.805 144.504 626.89 141.193 651.897C139.05 668.085 126.893 682.243 111.92 685.991L99.6224 681.924Z" fill="#D1D1FF"/>
<path d="M107.226 715.391C107.181 690.546 115.728 665.756 131.204 645.848C146.68 625.94 168.998 611.026 193.811 604.009C179.722 614.869 173.068 632.203 168.384 648.961C163.7 665.719 160.138 683.264 150.056 697.661C139.975 712.059 121.061 722.564 103.875 717.219L107.226 715.391Z" fill="#9192FF"/>
<path d="M115.036 716.724C115.077 691.879 107.23 667.088 93.0219 647.18C78.8136 627.273 58.3244 612.358 35.5437 605.342C48.4782 616.201 54.5873 633.536 58.8877 650.294C63.188 667.051 66.4582 684.597 75.7139 698.994C84.9697 713.391 102.334 723.897 118.112 718.552L115.036 716.724Z" fill="#9192FF"/>
<path d="M156.716 801.513H66.9715L51.542 708.066H172.146L156.716 801.513Z" fill="white"/>
<path d="M157.617 802.576H66.0699L50.2891 707.003H173.397L157.617 802.576ZM67.873 800.451H155.815L170.893 709.128H52.7943L67.873 800.451Z" fill="#9192FF"/>
<path d="M275.586 96.8993H2.12866V311.7H275.586V96.8993Z" fill="white"/>
<path d="M277.003 313.116H0.711914V95.4827H277.003V313.116ZM3.54519 310.283H274.17V98.3159H3.54519V310.283Z" fill="#9192FF"/>
<path d="M100.954 132.089H39.2781V167.014H100.954V132.089Z" fill="#D1D1FF"/>
<path d="M239.168 135.457H126.962V136.943H239.168V135.457Z" fill="#9192FF"/>
<path d="M239.168 148.809H126.962V150.295H239.168V148.809Z" fill="#D1D1FF"/>
<path d="M239.168 162.16H126.962V163.647H239.168V162.16Z" fill="#D1D1FF"/>
<path d="M81.1447 236.692H68.2646V276.594H81.1447V236.692Z" fill="#D1D1FF"/>
<path d="M94.0249 217.276H81.1448V276.594H94.0249V217.276Z" fill="#9192FF"/>
<path d="M129.197 210.562H116.317V276.344H129.197V210.562Z" fill="#D1D1FF"/>
<path d="M142.077 251.998H129.197V276.344H142.077V251.998Z" fill="#9192FF"/>
<path d="M177.25 230.988H164.37V276.539H177.25V230.988Z" fill="#D1D1FF"/>
<path d="M190.13 220.915H177.25V276.539H190.13V220.915Z" fill="#9192FF"/>
<path d="M225.303 244.479H212.423V276.248H225.303V244.479Z" fill="#D1D1FF"/>
<path d="M238.183 200.453H225.303V276.248H238.183V200.453Z" fill="#9192FF"/>
<path d="M238.183 276.991H39.9036V196.985H41.3899V275.505H238.183V276.991Z" fill="#9192FF"/>
</svg>
