<svg width="408" height="401" viewBox="0 0 408 401" fill="none" xmlns="http://www.w3.org/2000/svg">
<path d="M41.6091 257.976C15.3579 188.156 48.7581 137.271 84.7708 126.827C135.358 112.156 182.748 165.653 215.474 158.059C241.819 151.946 246.219 87.669 284.229 74.5434C331.284 58.2941 390.234 95.9364 390.869 157.674C391.5 219.017 328.435 272.301 286.283 293.428C244.605 314.318 176.25 330.312 138.242 325.051C94.9326 319.055 57.2668 299.623 41.6091 257.976Z" fill="#92E3A9"/>
<path opacity="0.7" d="M41.6091 257.976C15.3579 188.156 48.7581 137.271 84.7708 126.827C135.358 112.156 182.748 165.653 215.474 158.059C241.819 151.946 246.219 87.669 284.229 74.5434C331.284 58.2941 390.234 95.9364 390.869 157.674C391.5 219.017 328.435 272.301 286.283 293.428C244.605 314.318 176.25 330.312 138.242 325.051C94.9326 319.055 57.2668 299.623 41.6091 257.976Z" fill="white"/>
<path d="M203.863 401C290.537 401 360.8 396.745 360.8 391.497C360.8 386.248 290.537 381.993 203.863 381.993C117.189 381.993 46.9263 386.248 46.9263 391.497C46.9263 396.745 117.189 401 203.863 401Z" fill="#92E3A9"/>
<path d="M1 366.934H406.727" stroke="#263238" stroke-miterlimit="10" stroke-linecap="round" stroke-linejoin="round"/>
<path d="M265.135 306.098V344.449L242.994 352.251C242.429 352.45 242.05 352.984 242.05 353.584V354.893C242.05 355.836 242.957 356.515 243.862 356.249L266.597 349.57L267.01 355.035C267.07 355.821 267.725 356.427 268.512 356.427H269.682C270.47 356.427 271.124 355.82 271.184 355.035L271.597 349.57L294.332 356.249C295.237 356.515 296.144 355.836 296.144 354.893V353.584C296.144 352.984 295.765 352.45 295.2 352.251L273.06 344.449V306.098" stroke="#263238" stroke-width="0.75" stroke-miterlimit="10" stroke-linecap="round" stroke-linejoin="round"/>
<path d="M244.462 362.348C244.462 363.68 243.382 364.76 242.051 364.76C240.719 364.76 239.64 363.679 239.64 362.348C239.64 361.016 240.72 359.937 242.051 359.937M242.05 357.763C239.517 357.763 237.465 359.816 237.465 362.348C237.465 364.881 239.518 366.934 242.05 366.934C244.582 366.934 246.636 364.88 246.636 362.348C246.636 359.816 244.583 357.763 242.05 357.763Z" stroke="#263238" stroke-width="0.75" stroke-miterlimit="10" stroke-linecap="round" stroke-linejoin="round"/>
<path d="M271.509 362.348C271.509 363.68 270.429 364.76 269.098 364.76C267.766 364.76 266.686 363.679 266.686 362.348C266.686 361.016 267.767 359.937 269.098 359.937M269.098 357.763C266.566 357.763 264.512 359.816 264.512 362.348C264.512 364.881 266.566 366.934 269.098 366.934C271.63 366.934 273.683 364.88 273.683 362.348C273.683 359.816 271.63 357.763 269.098 357.763Z" stroke="#263238" stroke-width="0.75" stroke-miterlimit="10" stroke-linecap="round" stroke-linejoin="round"/>
<path d="M298.557 362.348C298.557 363.68 297.477 364.76 296.146 364.76C294.814 364.76 293.734 363.679 293.734 362.348C293.734 361.016 294.814 359.937 296.146 359.937M296.146 357.763C293.612 357.763 291.56 359.816 291.56 362.348C291.56 364.881 293.613 366.934 296.146 366.934C298.678 366.934 300.731 364.88 300.731 362.348C300.731 359.816 298.678 357.763 296.146 357.763Z" stroke="#263238" stroke-width="0.75" stroke-miterlimit="10" stroke-linecap="round" stroke-linejoin="round"/>
<path d="M275.236 291.771V279.526" stroke="#263238" stroke-width="0.75" stroke-miterlimit="10" stroke-linecap="round" stroke-linejoin="round"/>
<path d="M280.421 279.526V291.771" stroke="#263238" stroke-width="0.75" stroke-miterlimit="10" stroke-linecap="round" stroke-linejoin="round"/>
<path d="M296.744 239.665C300.427 239.817 303.006 242.21 303.006 246.34C303.006 254.921 303.006 259.212 303.006 267.793C303.006 270.217 301.119 272.968 298.739 273.743" stroke="#263238" stroke-width="0.75" stroke-miterlimit="10" stroke-linecap="round" stroke-linejoin="round"/>
<path d="M297.729 270.515C297.729 260.882 297.729 256.065 297.729 246.432C297.729 242.28 294.413 239.98 290.228 240.722C281.696 242.427 271.127 241.962 262.779 239.513C258.655 238.4 255.421 240.4 255.421 244.553C255.421 254.186 255.421 259.003 255.421 268.636C255.421 270.594 256.946 272.814 258.861 273.467C270.223 277.329 282.554 277.873 294.212 275.031C296.166 274.553 297.729 272.475 297.729 270.515Z" stroke="#263238" stroke-width="0.75" stroke-miterlimit="10" stroke-linecap="round" stroke-linejoin="round"/>
<path d="M281.73 293.55H293.692C297.933 293.55 301.372 296.987 301.372 301.229C301.372 303.171 299.796 304.747 297.854 304.747H283.937" stroke="#263238" stroke-width="0.75" stroke-miterlimit="10" stroke-linecap="round" stroke-linejoin="round"/>
<path d="M279.846 304.747H240.342C238.4 304.747 236.824 303.172 236.824 301.229C236.824 296.987 240.263 293.55 244.504 293.55H275.686C279.927 293.55 283.364 296.987 283.364 301.229C283.364 303.172 281.79 304.747 279.846 304.747Z" stroke="#263238" stroke-width="0.75" stroke-miterlimit="10" stroke-linecap="round" stroke-linejoin="round"/>
<path d="M100.987 366.935H160.114V275.641H100.987L100.987 366.935Z" stroke="#263238" stroke-width="0.75" stroke-miterlimit="10" stroke-linecap="round" stroke-linejoin="round"/>
<path d="M99.0256 275.642H85.9373V366.935H99.0256" stroke="#263238" stroke-width="0.75" stroke-miterlimit="10" stroke-linecap="round" stroke-linejoin="round"/>
<path d="M105.44 304.586H155.309V282.416H105.44V304.586Z" stroke="#263238" stroke-width="0.75" stroke-miterlimit="10" stroke-linecap="round" stroke-linejoin="round"/>
<path d="M105.44 329.178H155.309V307.008H105.44V329.178Z" stroke="#263238" stroke-width="0.75" stroke-miterlimit="10" stroke-linecap="round" stroke-linejoin="round"/>
<path d="M105.44 353.769H155.309V331.599H105.44V353.769Z" stroke="#263238" stroke-width="0.75" stroke-miterlimit="10" stroke-linecap="round" stroke-linejoin="round"/>
<path d="M132.271 297.188C134.307 297.188 135.958 295.537 135.958 293.501C135.958 291.465 134.307 289.814 132.271 289.814C130.235 289.814 128.584 291.465 128.584 293.501C128.584 295.537 130.235 297.188 132.271 297.188Z" stroke="#263238" stroke-width="0.75" stroke-miterlimit="10"/>
<path d="M135.958 318.092C135.958 320.128 134.307 321.779 132.271 321.779C130.235 321.779 128.584 320.129 128.584 318.092C128.584 316.056 130.234 314.405 132.271 314.405C134.307 314.406 135.958 316.056 135.958 318.092Z" stroke="#263238" stroke-width="0.75" stroke-miterlimit="10"/>
<path d="M132.271 346.372C134.307 346.372 135.958 344.721 135.958 342.685C135.958 340.649 134.307 338.998 132.271 338.998C130.235 338.998 128.584 340.649 128.584 342.685C128.584 344.721 130.235 346.372 132.271 346.372Z" stroke="#263238" stroke-width="0.75" stroke-miterlimit="10"/>
<path d="M225.953 373.66C225.953 373.66 227.966 379.679 234.177 381.722C236.177 382.381 236.71 384.265 237.177 385.296C237.842 386.766 236.696 388.426 235.083 388.426H219.744C218.81 388.426 215.919 387.863 215.598 386.985C215.111 385.657 214.795 383.332 215.943 379.677L217.44 371.997L225.953 373.66Z" fill="white" stroke="#263238" stroke-width="0.75" stroke-miterlimit="10" stroke-linecap="round" stroke-linejoin="round"/>
<path d="M234.178 381.723C230.96 380.664 228.876 378.542 227.609 376.739C225.978 376.569 222.856 376.552 221.514 378.651C221.514 378.651 218.576 377.154 216.495 376.851L215.944 379.678C214.796 383.333 215.112 385.659 215.599 386.986C215.921 387.863 218.811 388.427 219.746 388.427H235.085C236.698 388.427 237.844 386.767 237.178 385.298C236.711 384.266 236.177 382.381 234.178 381.723Z" fill="#263238" stroke="#263238" stroke-width="0.75" stroke-miterlimit="10" stroke-linecap="round" stroke-linejoin="round"/>
<path d="M215.598 386.986C215.919 387.863 218.81 388.427 219.745 388.427H235.083C236.455 388.427 237.477 387.226 237.347 385.964H215.322C215.398 386.351 215.492 386.697 215.598 386.986Z" fill="white" stroke="#263238" stroke-width="0.75" stroke-miterlimit="10" stroke-linecap="round" stroke-linejoin="round"/>
<path d="M230.368 245.135L231.403 313.98L227.132 374.21C227.132 374.21 220.243 378.429 215.775 374.607C215.775 374.607 214.335 333.429 217.4 315.479C217.4 315.479 213.577 286.762 212.315 261.367L211.625 243.603L230.64 242.076L230.368 245.135Z" fill="#92E3A9"/>
<mask id="mask0_51_328" style="mask-type:luminance" maskUnits="userSpaceOnUse" x="211" y="242" width="21" height="135">
<path d="M230.368 245.135L231.403 313.98L227.132 374.21C227.132 374.21 220.243 378.429 215.775 374.607C215.775 374.607 214.335 333.429 217.4 315.479C217.4 315.479 213.577 286.762 212.315 261.367L211.625 243.603L230.64 242.076L230.368 245.135Z" fill="white"/>
</mask>
<g mask="url(#mask0_51_328)">
<path opacity="0.2" d="M216.16 243.32C216.16 243.32 217.536 252.167 217.282 254.498C217.028 256.83 224.817 252.669 226.264 254.24C227.711 255.812 217.845 262.628 217.436 266.851C217.027 271.074 218.808 319.489 223.386 319.489C227.965 319.489 228.601 316.981 229.237 318.383C229.872 319.785 220.715 321.184 218.68 335.811C216.646 350.436 215.84 380.707 228.643 373.203C241.446 365.699 232.994 376.209 232.994 376.209L221.512 378.652H212.321L209.915 314.19L210.943 269.928L210.605 251.106L216.16 243.32Z" fill="black"/>
</g>
<path d="M230.368 245.135L231.403 313.98L227.132 374.21C227.132 374.21 220.243 378.429 215.775 374.607C215.775 374.607 214.335 333.429 217.4 315.479C217.4 315.479 213.577 286.762 212.315 261.367L211.625 243.603L230.64 242.076L230.368 245.135Z" stroke="#263238" stroke-width="0.75" stroke-miterlimit="10" stroke-linecap="round" stroke-linejoin="round"/>
<path d="M223.979 317.022C225.189 317.384 226.787 317.539 228.644 316.945" stroke="#263238" stroke-width="0.75" stroke-miterlimit="10" stroke-linecap="round" stroke-linejoin="round"/>
<path d="M221.513 315.751C221.513 315.751 221.886 316.081 222.561 316.44" stroke="#263238" stroke-width="0.75" stroke-miterlimit="10" stroke-linecap="round" stroke-linejoin="round"/>
<path d="M227.966 319.489C227.966 319.489 226.271 321.524 222.2 321.016" stroke="#263238" stroke-width="0.75" stroke-miterlimit="10" stroke-linecap="round" stroke-linejoin="round"/>
<path d="M191.996 373.66C191.996 373.66 190.45 377.99 185.806 381.722C184.165 383.041 183.273 384.265 182.806 385.296C182.141 386.766 183.287 388.426 184.9 388.426H200.238C201.173 388.426 202.029 387.863 202.351 386.985C202.837 385.657 203.153 383.332 202.005 379.677L200.507 371.997L191.996 373.66Z" fill="white" stroke="#263238" stroke-width="0.75" stroke-miterlimit="10" stroke-linecap="round" stroke-linejoin="round"/>
<path d="M202.351 386.987C202.837 385.659 203.153 383.334 202.005 379.679L201.526 377.218L200.494 378.652C200.494 378.652 199.392 376.892 195.492 376.892C191.592 376.892 190.031 378.652 190.031 378.652L189.599 377.805C188.667 379.045 187.429 380.419 185.806 381.723C184.165 383.042 183.273 384.266 182.806 385.297C182.14 386.767 183.287 388.427 184.9 388.427H200.238C201.173 388.428 202.029 387.865 202.351 386.987Z" fill="#263238" stroke="#263238" stroke-width="0.75" stroke-miterlimit="10" stroke-linecap="round" stroke-linejoin="round"/>
<path d="M182.636 385.964C182.506 387.226 183.528 388.427 184.9 388.427H200.238C201.173 388.427 202.029 387.864 202.351 386.986C202.457 386.697 202.551 386.35 202.627 385.964H182.636Z" fill="white" stroke="#263238" stroke-width="0.75" stroke-miterlimit="10" stroke-linecap="round" stroke-linejoin="round"/>
<path d="M210.607 243.603L191.591 242.076L191.863 245.134L190.828 313.979L190.012 374.209C190.012 374.209 196.901 378.428 201.369 374.606C201.369 374.606 207.897 333.428 204.832 315.478C204.832 315.478 208.655 286.761 209.917 261.366C209.917 261.366 216.31 257.79 215.144 243.319L210.607 243.603Z" fill="#92E3A9"/>
<mask id="mask1_51_328" style="mask-type:luminance" maskUnits="userSpaceOnUse" x="190" y="242" width="26" height="135">
<path d="M210.607 243.603L191.591 242.076L191.863 245.134L190.828 313.979L190.012 374.209C190.012 374.209 196.901 378.428 201.369 374.606C201.369 374.606 207.897 333.428 204.832 315.478C204.832 315.478 208.655 286.761 209.917 261.366C209.917 261.366 216.31 257.79 215.144 243.319L210.607 243.603Z" fill="white"/>
</mask>
<g mask="url(#mask1_51_328)">
<path opacity="0.2" d="M216.977 257.691C216.977 257.691 198.677 252.929 198.949 255.515C199.223 258.101 206.6 259.119 206.854 262.426C207.108 265.733 205.356 311.96 200.508 314.41C195.662 316.86 204.847 331.614 200.508 360.611C196.17 389.609 180.146 362.646 180.146 362.646L190.032 378.651L202.005 379.678L208.379 363.155L211.623 312.107L218.141 261.367L221.513 251.578V257.409L216.977 257.691Z" fill="black"/>
</g>
<path d="M210.607 243.603L191.591 242.076L191.863 245.134L190.828 313.979L190.012 374.209C190.012 374.209 196.901 378.428 201.369 374.606C201.369 374.606 207.897 333.428 204.832 315.478C204.832 315.478 208.655 286.761 209.917 261.366C209.917 261.366 216.31 257.79 215.144 243.319L210.607 243.603Z" stroke="#263238" stroke-width="0.75" stroke-miterlimit="10" stroke-linecap="round" stroke-linejoin="round"/>
<path d="M197.39 319.491C198.506 318.815 199.498 317.877 199.816 316.605C200.663 313.214 200.493 321.014 200.493 321.014" stroke="#263238" stroke-width="0.75" stroke-miterlimit="10" stroke-linecap="round" stroke-linejoin="round"/>
<path d="M193.327 321.015C193.327 321.015 194.081 320.878 195.079 320.541" stroke="#263238" stroke-width="0.75" stroke-miterlimit="10" stroke-linecap="round" stroke-linejoin="round"/>
<path d="M185.426 173.116C185.426 173.116 207.878 166.22 234.583 173.116C234.583 173.116 234.103 201.649 232.412 223.001C231.591 233.376 232.278 244.388 230.087 245.134C223.388 247.418 197.223 246.412 191.863 245.134C189.545 244.582 189.813 236.164 188.663 224.569C187.154 209.362 184.67 188.687 185.426 173.116Z" fill="#263238" stroke="#263238" stroke-width="0.75" stroke-miterlimit="10" stroke-linecap="round" stroke-linejoin="round"/>
<path d="M211.624 178.102C211.624 178.663 211.168 179.119 210.607 179.119C210.046 179.119 209.591 178.663 209.591 178.102C209.591 177.541 210.046 177.086 210.607 177.086C211.168 177.086 211.624 177.541 211.624 178.102Z" fill="#92E3A9"/>
<path d="M211.624 191.797C211.624 192.358 211.168 192.813 210.607 192.813C210.046 192.813 209.591 192.358 209.591 191.797C209.591 191.235 210.046 190.78 210.607 190.78C211.168 190.78 211.624 191.235 211.624 191.797Z" fill="#92E3A9"/>
<path d="M211.624 205.491C211.624 206.052 211.168 206.507 210.607 206.507C210.046 206.507 209.591 206.052 209.591 205.491C209.591 204.93 210.046 204.475 210.607 204.475C211.168 204.475 211.624 204.93 211.624 205.491Z" fill="#92E3A9"/>
<path d="M211.624 219.185C211.624 219.746 211.168 220.202 210.607 220.202C210.046 220.202 209.591 219.746 209.591 219.185C209.591 218.624 210.046 218.169 210.607 218.169C211.168 218.169 211.624 218.624 211.624 219.185Z" fill="#92E3A9"/>
<path d="M211.624 232.88C211.624 233.441 211.168 233.896 210.607 233.896C210.046 233.896 209.591 233.441 209.591 232.88C209.591 232.318 210.046 231.863 210.607 231.863C211.168 231.863 211.624 232.318 211.624 232.88Z" fill="#92E3A9"/>
<path d="M221.068 188.913C221.068 188.913 220.336 189.384 220.711 190.558C221.086 191.734 219.985 194.51 220.987 196.152" stroke="#263238" stroke-width="0.75" stroke-miterlimit="10" stroke-linecap="round" stroke-linejoin="round"/>
<path d="M222.132 180.838L218.524 180.182L213.418 208.234L217.025 208.89C218.857 209.224 220.612 208.009 220.945 206.178L224.843 184.758C225.178 182.927 223.963 181.172 222.132 180.838Z" fill="#858585" stroke="#263238" stroke-width="0.75" stroke-miterlimit="10" stroke-linecap="round" stroke-linejoin="round"/>
<path d="M215.126 208.73L198.497 205.703C196.731 205.381 195.561 203.689 195.882 201.924L199.823 180.267C200.145 178.501 201.837 177.33 203.602 177.652L220.231 180.678C221.997 181 223.169 182.692 222.847 184.457L218.905 206.114C218.584 207.88 216.892 209.051 215.126 208.73Z" fill="white" stroke="#263238" stroke-width="0.75" stroke-miterlimit="10" stroke-linecap="round" stroke-linejoin="round"/>
<path d="M204.406 184.781L202.708 184.472C201.863 184.318 201.303 183.508 201.456 182.664L201.765 180.965C201.919 180.121 202.728 179.561 203.573 179.714L205.271 180.023C206.116 180.177 206.676 180.986 206.523 181.831L206.214 183.529C206.06 184.375 205.251 184.935 204.406 184.781Z" fill="#92E3A9" stroke="#263238" stroke-width="0.75" stroke-miterlimit="10" stroke-linecap="round" stroke-linejoin="round"/>
<path d="M204.75 182.386C204.674 182.806 204.271 183.084 203.851 183.008C203.431 182.931 203.152 182.529 203.229 182.108C203.305 181.688 203.707 181.41 204.128 181.486C204.548 181.563 204.827 181.965 204.75 182.386Z" fill="#263238" stroke="#263238" stroke-width="0.75" stroke-miterlimit="10" stroke-linecap="round" stroke-linejoin="round"/>
<path d="M234.97 201.258L228.417 197.65C228.417 197.65 223.366 187.746 220.469 187.023C217.572 186.3 214.116 186.206 213.695 187.99C213.273 189.773 216.555 186.936 219.758 190.202C219.758 190.202 209.914 191.537 213.128 194.301C213.128 194.301 211.752 195.318 213.65 196.124C213.65 196.124 214.986 194.951 216.761 195.257C217.646 195.409 218.639 195.676 219.632 196.132C219.632 196.132 213.921 197.565 214.407 198.827C214.892 200.089 219.542 196.936 220.723 198.466C220.723 198.466 222.862 203.209 226.388 203.554L231.43 206.645L234.97 201.258Z" fill="white" stroke="#263238" stroke-width="0.75" stroke-miterlimit="10" stroke-linecap="round" stroke-linejoin="round"/>
<path d="M213.877 193.817C213.877 193.817 216.221 192.031 219.688 193.068" stroke="#263238" stroke-width="0.75" stroke-miterlimit="10" stroke-linecap="round" stroke-linejoin="round"/>
<path d="M234.07 199.471L230.255 196.419C230.255 196.419 230.327 201.583 228.728 206.239L233.053 209.773L234.07 199.471Z" fill="#92E3A9" stroke="#263238" stroke-width="0.75" stroke-miterlimit="10" stroke-linecap="round" stroke-linejoin="round"/>
<path d="M234.583 173.115C234.583 173.115 261.203 204.473 254.147 215.103C250.552 220.516 231.049 208.913 231.049 208.913C231.049 208.913 233.414 204.618 232.725 196.639L241.521 201.796C241.521 201.796 237.379 198.731 236.158 197.529C234.984 196.373 234.371 194.757 234.044 193.143C233.386 189.91 232.871 183.692 234.583 173.115Z" fill="#263238" stroke="#263238" stroke-width="0.75" stroke-miterlimit="10" stroke-linecap="round" stroke-linejoin="round"/>
<path d="M241.52 201.795C241.52 201.795 239.147 200.039 237.464 198.664" stroke="#7F7F7F" stroke-width="0.75" stroke-linecap="round" stroke-linejoin="round"/>
<path d="M234.013 177.11C234.075 176.605 234.142 176.09 234.215 175.562" stroke="#7F7F7F" stroke-width="0.75" stroke-linecap="round" stroke-linejoin="round"/>
<path d="M234.043 193.142C233.524 190.585 233.093 186.154 233.785 179.173" stroke="#7F7F7F" stroke-width="0.75" stroke-linecap="round" stroke-linejoin="round"/>
<path d="M247.158 206.085C245.936 205.102 244.374 203.849 243.071 202.814C240.503 200.777 249.206 204.429 249.206 204.429" stroke="#7F7F7F" stroke-width="0.75" stroke-linecap="round" stroke-linejoin="round"/>
<path d="M249.205 207.737C249.205 207.737 248.744 207.364 248.034 206.792" stroke="#7F7F7F" stroke-width="0.75" stroke-linecap="round" stroke-linejoin="round"/>
<path d="M162.593 168.31L161.576 163.478C161.576 163.478 163.469 161.093 163.922 156.625C164.374 152.158 161.426 140.766 159.993 141.093C157.76 141.601 160.686 146.435 160.686 150.122C160.686 150.122 160.7 149.197 159.415 150.707C159.415 150.707 156.687 150.78 156.122 152.03C156.122 152.03 154.455 152.03 153.437 153.81C153.437 153.81 152.391 154.509 152.391 156.894C152.391 159.279 152.674 160.424 153.437 160.55C153.437 160.55 152.839 163.91 155.491 164.837L157.163 171.066L162.593 168.31Z" fill="white" stroke="#263238" stroke-width="0.75" stroke-miterlimit="10" stroke-linecap="round" stroke-linejoin="round"/>
<path d="M162.679 156.081C162.679 156.081 162.346 149.508 161.068 150.636C159.584 151.946 160.869 154.535 159.993 156.081C159.117 157.627 157.083 157.373 156.489 160.255" stroke="#263238" stroke-width="0.75" stroke-miterlimit="10" stroke-linecap="round" stroke-linejoin="round"/>
<path d="M154.623 156.081C154.453 153.303 156.57 159.305 157.122 158.67C157.673 158.036 157.122 154.575 157.122 154.575C157.122 154.575 157.84 157.893 158.598 157.359C159.357 156.824 159.202 153.049 159.202 153.049" stroke="#263238" stroke-width="0.75" stroke-miterlimit="10" stroke-linecap="round" stroke-linejoin="round"/>
<path d="M163.866 170.854L163.356 164.278C163.356 164.278 160.332 167.675 156.121 168.82L157.125 173.78L163.866 170.854Z" fill="#92E3A9" stroke="#263238" stroke-width="0.75" stroke-miterlimit="10" stroke-linecap="round" stroke-linejoin="round"/>
<path d="M185.426 173.116C185.426 173.116 176.484 180.721 172.887 189.904L164.374 167.292C164.374 167.292 161.095 171.786 156.121 172.634C156.121 172.634 162.352 208.068 168.784 206.924C174.078 205.982 181.406 197.718 183.831 194.825C184.478 194.054 184.972 193.185 185.293 192.231C186.239 189.421 187.66 182.945 185.426 173.116Z" fill="#263238" stroke="#263238" stroke-width="0.75" stroke-miterlimit="10" stroke-linecap="round" stroke-linejoin="round"/>
<path d="M186.55 185.35C186.711 182.74 186.609 179.543 185.96 175.78" stroke="#7F7F7F" stroke-width="0.75" stroke-linecap="round" stroke-linejoin="round"/>
<path d="M185.961 189.76C186.089 189.156 186.21 188.486 186.311 187.751" stroke="#7F7F7F" stroke-width="0.75" stroke-linecap="round" stroke-linejoin="round"/>
<path d="M174.21 198.411C174.21 198.411 174.174 194.568 173.532 192.745C172.888 190.923 175.906 193.662 176.245 195.359" stroke="#7F7F7F" stroke-width="0.75" stroke-linecap="round" stroke-linejoin="round"/>
<path d="M217.718 173.477H204.043L205.06 156.686H216.7L217.718 173.477Z" fill="white"/>
<mask id="mask2_51_328" style="mask-type:luminance" maskUnits="userSpaceOnUse" x="204" y="156" width="14" height="18">
<path d="M217.718 173.477H204.043L205.06 156.686H216.7L217.718 173.477Z" fill="white"/>
</mask>
<g mask="url(#mask2_51_328)">
<path d="M221.607 143.096V149.051C221.607 155.524 216.865 164.403 211.015 164.403C205.166 164.403 200.424 155.524 200.424 149.051V143.603C200.424 143.603 202.454 142.149 203.044 135.342L208.512 132.392C208.512 132.392 204.882 136.59 205.796 137.27C206.71 137.951 210.195 133.072 210.195 133.072C210.195 133.072 211.048 137.838 212.57 137.611C214.093 137.384 212.57 133.98 212.57 133.98C212.57 133.98 215.321 137.466 216.27 136.817C217.219 136.168 214.811 132.392 214.811 132.392L219.133 136.023C219.133 136.023 219.481 141.204 221.607 143.096Z" fill="#263238" stroke="#263238" stroke-width="0.75" stroke-miterlimit="10" stroke-linecap="round" stroke-linejoin="round"/>
</g>
<path d="M217.718 173.477H204.043L205.06 156.686H216.7L217.718 173.477Z" stroke="#263238" stroke-width="0.75" stroke-miterlimit="10" stroke-linecap="round" stroke-linejoin="round"/>
<path d="M200.294 146.156C201.201 147.726 200.961 149.563 199.758 150.257C198.555 150.952 196.844 150.242 195.937 148.671C195.031 147.1 195.27 145.264 196.474 144.569C197.677 143.875 199.388 144.585 200.294 146.156Z" fill="white" stroke="#263238" stroke-width="0.75" stroke-miterlimit="10" stroke-linecap="round" stroke-linejoin="round"/>
<path d="M221.48 146.156C220.574 147.726 220.813 149.563 222.016 150.257C223.219 150.952 224.93 150.242 225.836 148.671C226.743 147.1 226.503 145.264 225.299 144.569C224.098 143.875 222.388 144.585 221.48 146.156Z" fill="white" stroke="#263238" stroke-width="0.75" stroke-miterlimit="10" stroke-linecap="round" stroke-linejoin="round"/>
<path d="M202.209 151.618C202.209 151.618 188.656 137.622 204.043 127.751C219.43 117.879 214.097 124.46 214.097 124.46C214.097 124.46 221.875 122.758 222.752 124.234C223.629 125.709 217.718 126.163 217.718 126.163C217.718 126.163 225.217 129.226 224.31 130.474C223.402 131.722 221.129 129.907 221.129 129.907C221.129 129.907 226.317 137.134 222.018 150.257L212.239 154.181L202.209 151.618Z" fill="#263238" stroke="#263238" stroke-width="0.75" stroke-miterlimit="10" stroke-linecap="round" stroke-linejoin="round"/>
<path d="M222.751 140.043V145.998C222.751 152.471 217.503 161.35 211.03 161.35C204.557 161.35 199.309 152.471 199.309 145.998V140.55C199.309 140.55 201.556 139.096 202.208 132.289L208.259 129.339C208.259 129.339 204.242 133.537 205.254 134.218C206.265 134.899 210.122 130.019 210.122 130.019C210.122 130.019 211.064 134.785 212.75 134.558C214.435 134.331 212.75 130.927 212.75 130.927C212.75 130.927 215.794 134.414 216.845 133.764C217.895 133.115 215.23 129.339 215.23 129.339L220.013 132.97C220.013 132.97 220.399 138.152 222.751 140.043Z" fill="white" stroke="#263238" stroke-width="0.75" stroke-miterlimit="10" stroke-linecap="round" stroke-linejoin="round"/>
<path d="M222.751 140.043V145.998C222.751 152.471 217.503 161.35 211.03 161.35C204.557 161.35 199.309 152.471 199.309 145.998V140.55C199.309 140.55 201.556 139.096 202.208 132.289L208.259 129.339C208.259 129.339 204.242 133.537 205.254 134.218C206.265 134.899 210.122 130.019 210.122 130.019C210.122 130.019 211.064 134.785 212.75 134.558C214.435 134.331 212.75 130.927 212.75 130.927C212.75 130.927 215.794 134.414 216.845 133.764C217.895 133.115 215.23 129.339 215.23 129.339L220.013 132.97C220.013 132.97 220.399 138.152 222.751 140.043Z" fill="white" stroke="#263238" stroke-width="0.75" stroke-miterlimit="10" stroke-linecap="round" stroke-linejoin="round"/>
<path d="M209.529 152.419C209.529 152.419 213.995 153.218 215.975 150.696" stroke="#263238" stroke-width="0.75" stroke-miterlimit="10" stroke-linecap="round" stroke-linejoin="round"/>
<path d="M209.262 138.455C209.262 138.455 211.491 143.751 209.73 146.322L211.544 148.97" stroke="#263238" stroke-width="0.75" stroke-miterlimit="10" stroke-linecap="round" stroke-linejoin="round"/>
<path d="M208.801 143.917C208.801 145.245 207.175 146.322 205.17 146.322C203.165 146.322 201.539 145.244 201.539 143.917C201.539 142.589 203.165 142.42 205.17 142.42C207.175 142.42 208.801 142.589 208.801 143.917Z" fill="#858585" stroke="#263238" stroke-width="0.75" stroke-miterlimit="10" stroke-linecap="round" stroke-linejoin="round"/>
<path d="M220.014 143.917C220.014 145.245 218.388 146.322 216.383 146.322C214.377 146.322 212.752 145.244 212.752 143.917C212.752 142.589 214.377 142.42 216.383 142.42C218.388 142.42 220.014 142.589 220.014 143.917Z" fill="#858585" stroke="#263238" stroke-width="0.75" stroke-miterlimit="10" stroke-linecap="round" stroke-linejoin="round"/>
<path d="M208.801 143.918H212.752" stroke="#263238" stroke-width="0.75" stroke-miterlimit="10" stroke-linecap="round" stroke-linejoin="round"/>
<path d="M201.539 143.918L199.31 145.015" stroke="#263238" stroke-width="0.75" stroke-miterlimit="10" stroke-linecap="round" stroke-linejoin="round"/>
<path d="M220.013 143.918L222.242 145.015" stroke="#263238" stroke-width="0.75" stroke-miterlimit="10" stroke-linecap="round" stroke-linejoin="round"/>
<path d="M196.552 170.649L202.097 168.076L210.858 173.78L205.347 174.588L202.721 177.086L196.552 170.649Z" fill="#92E3A9" stroke="#263238" stroke-width="0.75" stroke-miterlimit="10" stroke-linecap="round" stroke-linejoin="round"/>
<path d="M224.913 170.649L219.367 168.076L210.607 173.78L216.609 174.375L218.744 177.086L224.913 170.649Z" fill="#92E3A9" stroke="#263238" stroke-width="0.75" stroke-miterlimit="10" stroke-linecap="round" stroke-linejoin="round"/>
<path d="M205.423 141.622C205.423 142.566 205.114 143.33 204.733 143.33C204.352 143.33 204.043 142.565 204.043 141.622C204.043 140.678 204.352 139.914 204.733 139.914C205.114 139.914 205.423 140.679 205.423 141.622Z" fill="#263238"/>
<path d="M217.536 141.622C217.536 142.566 217.227 143.33 216.846 143.33C216.464 143.33 216.155 142.565 216.155 141.622C216.155 140.678 216.464 139.914 216.846 139.914C217.227 139.914 217.536 140.679 217.536 141.622Z" fill="#263238"/>
<path d="M202.209 138.163C202.209 138.163 204.364 135.666 206.747 137.027" stroke="#263238" stroke-width="0.75" stroke-miterlimit="10" stroke-linecap="round" stroke-linejoin="round"/>
<path d="M219.116 138.3C219.116 138.3 216.959 135.803 214.576 137.165" stroke="#263238" stroke-width="0.75" stroke-miterlimit="10" stroke-linecap="round" stroke-linejoin="round"/>
<path d="M389.942 281.874C354.241 264.573 317.702 252.28 278.798 244.528C278.798 206.921 278.798 169.313 278.798 131.706C317.703 139.458 354.241 151.751 389.942 169.052C389.942 206.66 389.942 244.267 389.942 281.874Z" fill="#92E3A9"/>
<path opacity="0.5" d="M389.942 281.874C354.241 264.573 317.702 252.28 278.798 244.528C278.798 206.921 278.798 169.313 278.798 131.706C317.703 139.458 354.241 151.751 389.942 169.052C389.942 206.66 389.942 244.267 389.942 281.874Z" fill="white"/>
<path d="M278.798 199.4C317.703 207.153 354.241 219.445 389.942 236.746" stroke="#263238" stroke-width="0.75" stroke-miterlimit="10" stroke-linecap="round" stroke-linejoin="round"/>
<path d="M278.798 131.707C278.798 169.314 278.798 206.922 278.798 244.529" stroke="#263238" stroke-width="0.75" stroke-miterlimit="10" stroke-linecap="round" stroke-linejoin="round"/>
<path d="M278.798 154.271C317.703 162.024 354.241 174.316 389.942 191.617" stroke="#263238" stroke-width="0.75" stroke-miterlimit="10" stroke-linecap="round" stroke-linejoin="round"/>
<path d="M389.942 214.181C354.241 196.88 317.702 184.587 278.798 176.835" stroke="#263238" stroke-width="0.75" stroke-miterlimit="10" stroke-linecap="round" stroke-linejoin="round"/>
<path d="M389.942 236.745C354.241 219.444 317.702 207.152 278.798 199.399" stroke="#263238" stroke-width="0.75" stroke-miterlimit="10" stroke-linecap="round" stroke-linejoin="round"/>
<path d="M278.798 221.964C317.703 229.716 354.241 242.009 389.942 259.31" stroke="#263238" stroke-width="0.75" stroke-miterlimit="10" stroke-linecap="round" stroke-linejoin="round"/>
<path d="M301.616 249.396C301.616 211.789 301.616 174.181 301.616 136.574" stroke="#263238" stroke-width="0.75" stroke-miterlimit="10" stroke-linecap="round" stroke-linejoin="round"/>
<path d="M324.196 255.564C324.196 217.957 324.196 180.349 324.196 142.742" stroke="#263238" stroke-width="0.75" stroke-miterlimit="10" stroke-linecap="round" stroke-linejoin="round"/>
<path d="M368.416 271.803C368.416 234.196 368.416 196.588 368.416 158.981" stroke="#263238" stroke-width="0.75" stroke-miterlimit="10" stroke-linecap="round" stroke-linejoin="round"/>
<path d="M346.481 150.212C346.481 187.819 346.481 225.427 346.481 263.034" stroke="#263238" stroke-width="0.75" stroke-miterlimit="10" stroke-linecap="round" stroke-linejoin="round"/>
<path d="M389.942 283.346C354.241 266.045 317.704 253.752 278.798 246C277.972 245.848 277.302 245.069 277.302 244.256C277.302 206.649 277.302 169.041 277.302 131.435C277.302 130.621 277.972 130.084 278.798 130.236C317.704 137.988 354.241 150.281 389.942 167.582C390.709 167.968 391.33 168.942 391.33 169.756C391.33 207.363 391.33 244.971 391.33 282.577C391.33 283.389 390.709 283.732 389.942 283.346ZM280.292 243.335C318.135 251.005 353.747 262.984 388.552 279.707C388.552 243.081 388.552 206.454 388.552 169.828C353.747 153.105 318.135 141.126 280.292 133.457C280.292 170.082 280.292 206.708 280.292 243.335Z" fill="#92E3A9" stroke="#263238" stroke-miterlimit="10"/>
<path d="M338.459 158.115C338.459 164.369 338.459 167.497 338.459 173.751C354.338 178.919 366.193 197.052 366.53 213.331C372.565 215.911 375.564 217.263 381.518 220.094C381.872 194.238 362.443 166.949 338.459 158.115Z" fill="#92E3A9"/>
<mask id="mask3_51_328" style="mask-type:luminance" maskUnits="userSpaceOnUse" x="338" y="158" width="44" height="63">
<path d="M338.459 158.115C338.459 164.369 338.459 167.497 338.459 173.751C354.338 178.919 366.193 197.052 366.53 213.331C372.565 215.911 375.564 217.263 381.518 220.094C381.872 194.238 362.443 166.949 338.459 158.115Z" fill="white"/>
</mask>
<g mask="url(#mask3_51_328)">
<path opacity="0.3" d="M338.459 158.115C338.459 164.369 338.459 167.497 338.459 173.751C354.338 178.919 366.193 197.052 366.53 213.331C372.565 215.911 375.564 217.263 381.518 220.094C381.872 194.238 362.443 166.949 338.459 158.115Z" fill="black"/>
</g>
<path d="M338.459 158.115C338.459 164.369 338.459 167.497 338.459 173.751C354.338 178.919 366.193 197.052 366.53 213.331C372.565 215.911 375.564 217.263 381.518 220.094C381.872 194.238 362.443 166.949 338.459 158.115Z" stroke="#263238" stroke-miterlimit="10"/>
<path d="M311.609 174.785C307.18 169.169 304.96 166.392 300.506 160.9C290.746 167.774 288.89 178.537 287.373 189.372C293.706 190.676 296.863 191.39 303.152 192.944C303.152 185 306.395 178.586 311.609 174.785Z" fill="#92E3A9"/>
<mask id="mask4_51_328" style="mask-type:luminance" maskUnits="userSpaceOnUse" x="287" y="160" width="25" height="33">
<path d="M311.609 174.785C307.18 169.169 304.96 166.392 300.506 160.9C290.746 167.774 288.89 178.537 287.373 189.372C293.706 190.676 296.863 191.39 303.152 192.944C303.152 185 306.395 178.586 311.609 174.785Z" fill="white"/>
</mask>
<g mask="url(#mask4_51_328)">
<path opacity="0.7" d="M311.609 174.785C307.18 169.169 304.96 166.392 300.506 160.9C290.746 167.774 288.89 178.537 287.373 189.372C293.706 190.676 296.863 191.39 303.152 192.944C303.152 185 306.395 178.586 311.609 174.785Z" fill="white"/>
</g>
<path d="M311.609 174.785C307.18 169.169 304.96 166.392 300.506 160.9C290.746 167.774 288.89 178.537 287.373 189.372C293.706 190.676 296.863 191.39 303.152 192.944C303.152 185 306.395 178.586 311.609 174.785Z" stroke="#263238" stroke-miterlimit="10"/>
<path d="M335.99 175.412C335.99 169.158 335.99 166.03 335.99 159.776C325.574 156.137 313.738 156.958 304.699 163.598C309.144 169.136 311.36 171.937 315.78 177.601C320.982 173.855 328.147 172.769 335.99 175.412Z" fill="#92E3A9" stroke="#263238" stroke-miterlimit="10"/>
<path d="M364.112 214.807C365.506 230.999 348.736 237.227 335.99 232.951C321.221 227.994 307.011 212.233 307.341 195.669C301.064 194.049 297.913 193.301 291.591 191.931C292.093 217.238 312.723 240.745 335.99 248.586C356.984 255.66 379.709 246.214 379.133 221.468C373.166 218.679 370.161 217.347 364.112 214.807Z" fill="#92E3A9" stroke="#263238" stroke-miterlimit="10"/>
<path d="M128.929 244.528C90.0235 252.28 53.4839 264.574 17.7852 281.874C17.7852 244.267 17.7852 206.659 17.7852 169.052C53.4839 151.752 90.0235 139.458 128.929 131.706C128.929 169.314 128.929 206.921 128.929 244.528Z" fill="#92E3A9"/>
<path opacity="0.7" d="M128.929 244.528C90.0235 252.28 53.4839 264.574 17.7852 281.874C17.7852 244.267 17.7852 206.659 17.7852 169.052C53.4839 151.752 90.0235 139.458 128.929 131.706C128.929 169.314 128.929 206.921 128.929 244.528Z" fill="white"/>
<path d="M17.7852 236.745C53.4839 219.445 90.0235 207.152 128.929 199.399" stroke="#263238" stroke-width="0.75" stroke-miterlimit="10" stroke-linecap="round" stroke-linejoin="round"/>
<path d="M17.7852 169.052C17.7852 206.659 17.7852 244.267 17.7852 281.874" stroke="#263238" stroke-width="0.75" stroke-miterlimit="10" stroke-linecap="round" stroke-linejoin="round"/>
<path d="M18.4756 280.364C25.3283 247.139 32.2742 213.934 39.3123 180.748C46.6192 207.79 53.932 234.83 61.2468 261.87C46.6418 267.169 32.3831 273.453 18.4756 280.364Z" fill="#92E3A9"/>
<path opacity="0.3" d="M18.4756 280.364C25.3283 247.139 32.2742 213.934 39.3123 180.748C46.6192 207.79 53.932 234.83 61.2468 261.87C46.6418 267.169 32.3831 273.453 18.4756 280.364Z" fill="white"/>
<path d="M39.6636 270.487C46.7243 252.64 53.9262 234.848 61.2459 217.106C68.5921 229.552 75.899 242.02 83.1677 254.511C68.3713 258.961 53.8615 264.405 39.6636 270.487Z" fill="#92E3A9"/>
<path opacity="0.2" d="M39.6636 270.487C46.7243 252.64 53.9262 234.848 61.2459 217.106C68.5921 229.552 75.899 242.02 83.1677 254.511C68.3713 258.961 53.8615 264.405 39.6636 270.487Z" fill="black"/>
<path d="M83.5305 254.401C90.8522 229.907 98.2562 205.439 105.743 180.994C113.254 201.82 120.735 222.655 128.186 243.502C113.109 246.247 98.2032 249.994 83.5305 254.401Z" fill="#92E3A9"/>
<path opacity="0.4" d="M83.5305 254.401C90.8522 229.907 98.2562 205.439 105.743 180.994C113.254 201.82 120.735 222.655 128.186 243.502C113.109 246.247 98.2032 249.994 83.5305 254.401Z" fill="black"/>
<path d="M61.604 261.737C68.8246 236.822 76.1345 211.934 83.5307 187.071C90.9583 207.479 98.3633 227.895 105.743 248.32C90.7876 251.91 76.0589 256.499 61.604 261.737Z" fill="#92E3A9"/>
<path d="M17.7852 191.616C53.4839 174.316 90.0235 162.023 128.929 154.271" stroke="#263238" stroke-width="0.75" stroke-miterlimit="10" stroke-linecap="round" stroke-linejoin="round"/>
<path d="M128.929 176.836C90.0235 184.588 53.4839 196.882 17.7852 214.182" stroke="#263238" stroke-width="0.75" stroke-miterlimit="10" stroke-linecap="round" stroke-linejoin="round"/>
<path d="M128.929 199.4C90.0235 207.153 53.4839 219.446 17.7852 236.746" stroke="#263238" stroke-width="0.75" stroke-miterlimit="10" stroke-linecap="round" stroke-linejoin="round"/>
<path d="M17.7852 259.31C53.4839 242.01 90.0235 229.716 128.929 221.964" stroke="#263238" stroke-width="0.75" stroke-miterlimit="10" stroke-linecap="round" stroke-linejoin="round"/>
<path d="M39.3113 271.803C39.3113 234.196 39.3113 196.588 39.3113 158.981" stroke="#263238" stroke-width="0.75" stroke-miterlimit="10" stroke-linecap="round" stroke-linejoin="round"/>
<path d="M61.2461 263.034C61.2461 225.427 61.2461 187.819 61.2461 150.212" stroke="#263238" stroke-width="0.75" stroke-miterlimit="10" stroke-linecap="round" stroke-linejoin="round"/>
<path d="M106.111 249.396C106.111 211.789 106.111 174.181 106.111 136.574" stroke="#263238" stroke-width="0.75" stroke-miterlimit="10" stroke-linecap="round" stroke-linejoin="round"/>
<path d="M83.5305 142.742C83.5305 180.349 83.5305 217.957 83.5305 255.564" stroke="#263238" stroke-width="0.75" stroke-miterlimit="10" stroke-linecap="round" stroke-linejoin="round"/>
<path d="M128.929 246C90.0233 253.752 53.4837 266.046 17.7849 283.346C17.0177 283.732 16.3967 283.389 16.3967 282.576C16.3967 244.97 16.3967 207.362 16.3967 169.755C16.3967 168.941 17.0177 167.967 17.7849 167.581C53.4837 150.281 90.0233 137.987 128.929 130.235C129.755 130.083 130.424 130.621 130.424 131.434C130.424 169.04 130.424 206.648 130.424 244.255C130.424 245.07 129.755 245.849 128.929 246ZM19.1751 279.706C53.9782 262.984 89.5906 251.004 127.435 243.334C127.435 206.708 127.435 170.081 127.435 133.455C89.5916 141.125 53.9782 153.105 19.1751 169.827C19.1751 206.454 19.1751 243.08 19.1751 279.706Z" fill="#92E3A9" stroke="#263238" stroke-miterlimit="10"/>
<path d="M389.942 159.032C347.105 138.29 302.925 124.795 255.797 118.12C255.797 80.5127 255.797 42.9048 255.797 5.29785C302.925 11.974 347.105 25.4684 389.942 46.21C389.942 83.8169 389.942 121.425 389.942 159.032Z" fill="#858585"/>
<path opacity="0.5" d="M389.942 159.032C347.105 138.29 302.925 124.795 255.797 118.12C255.797 80.5127 255.797 42.9048 255.797 5.29785C302.925 11.974 347.105 25.4684 389.942 46.21C389.942 83.8169 389.942 121.425 389.942 159.032Z" fill="white"/>
<path d="M255.797 27.8623C302.925 34.5374 347.105 48.0329 389.942 68.7744" stroke="#263238" stroke-width="0.75" stroke-miterlimit="10" stroke-linecap="round" stroke-linejoin="round"/>
<path d="M389.942 91.3389C347.105 70.5973 302.924 57.1019 255.797 50.4268" stroke="#263238" stroke-width="0.75" stroke-miterlimit="10" stroke-linecap="round" stroke-linejoin="round"/>
<path d="M255.797 72.9912C302.925 79.6663 347.105 93.1618 389.942 113.903" stroke="#263238" stroke-width="0.75" stroke-miterlimit="10" stroke-linecap="round" stroke-linejoin="round"/>
<path d="M389.942 113.903C347.105 93.1618 302.924 79.6663 255.797 72.9912" stroke="#263238" stroke-width="0.75" stroke-miterlimit="10" stroke-linecap="round" stroke-linejoin="round"/>
<path d="M255.797 95.5557C302.925 102.232 347.105 115.726 389.942 136.468" stroke="#263238" stroke-width="0.75" stroke-miterlimit="10" stroke-linecap="round" stroke-linejoin="round"/>
<path d="M301.616 126.552C301.616 88.9453 301.616 51.3374 301.616 13.7305" stroke="#263238" stroke-width="0.75" stroke-miterlimit="10" stroke-linecap="round" stroke-linejoin="round"/>
<path d="M278.798 8.86426C278.798 46.4712 278.798 84.0791 278.798 121.686" stroke="#263238" stroke-width="0.75" stroke-miterlimit="10" stroke-linecap="round" stroke-linejoin="round"/>
<path d="M324.196 132.721C324.196 95.1143 324.196 57.5064 324.196 19.8994" stroke="#263238" stroke-width="0.75" stroke-miterlimit="10" stroke-linecap="round" stroke-linejoin="round"/>
<path d="M368.416 148.959C368.416 111.353 368.416 73.7446 368.416 36.1377" stroke="#263238" stroke-width="0.75" stroke-miterlimit="10" stroke-linecap="round" stroke-linejoin="round"/>
<path d="M346.481 27.3691C346.481 64.9761 346.481 102.584 346.481 140.191" stroke="#263238" stroke-width="0.75" stroke-miterlimit="10" stroke-linecap="round" stroke-linejoin="round"/>
<path d="M389.942 160.503C347.105 139.761 302.924 126.266 255.797 119.591C254.966 119.486 254.292 118.745 254.292 117.932C254.292 80.3249 254.292 42.717 254.292 5.11003C254.292 4.29673 254.966 3.72085 255.797 3.82583C302.925 10.5019 347.105 23.9964 389.942 44.738C390.709 45.1245 391.33 46.0987 391.33 46.911C391.33 84.5179 391.33 122.126 391.33 159.733C391.33 160.546 390.709 160.888 389.942 160.503ZM257.301 116.84C303.357 123.521 346.6 136.726 388.552 156.863C388.552 120.237 388.552 83.6105 388.552 46.9846C346.601 26.8483 303.357 13.6423 257.302 6.96129C257.301 43.5881 257.301 80.214 257.301 116.84Z" fill="#92E3A9" stroke="#263238" stroke-miterlimit="10"/>
<path d="M290.233 122.544C287.951 122.057 286.808 121.821 284.521 121.367C284.521 108.294 284.521 95.2201 284.521 82.1465C286.808 82.6007 287.951 82.8362 290.233 83.3228C290.233 96.3964 290.233 109.47 290.233 122.544Z" fill="#263238" stroke="#263238" stroke-width="0.75" stroke-miterlimit="10" stroke-linecap="round" stroke-linejoin="round"/>
<path d="M295.932 123.8C293.655 123.281 292.516 123.029 290.233 122.542C290.233 111.292 290.233 100.041 290.233 88.791C292.515 89.2776 293.655 89.5298 295.932 90.0487C295.932 101.299 295.932 112.549 295.932 123.8Z" fill="#92E3A9" stroke="#263238" stroke-width="0.75" stroke-miterlimit="10" stroke-linecap="round" stroke-linejoin="round"/>
<path d="M312.94 128.061C310.681 127.444 309.551 127.143 307.286 126.56C307.286 112.779 307.286 98.9977 307.286 85.2168C309.55 85.8015 310.681 86.1017 312.94 86.7178C312.94 100.499 312.94 114.28 312.94 128.061Z" fill="#263238" stroke="#263238" stroke-width="0.75" stroke-miterlimit="10" stroke-linecap="round" stroke-linejoin="round"/>
<path d="M318.577 129.643C316.325 128.994 315.198 128.678 312.94 128.061C312.94 108.957 312.94 89.8542 312.94 70.751C315.198 71.3681 316.325 71.684 318.577 72.3334C318.577 91.4376 318.577 110.541 318.577 129.643Z" fill="#92E3A9" stroke="#263238" stroke-width="0.75" stroke-miterlimit="10" stroke-linecap="round" stroke-linejoin="round"/>
<path d="M335.379 134.879C333.15 134.133 332.034 133.767 329.797 133.053C329.797 120.355 329.797 107.656 329.797 94.958C332.034 95.6722 333.15 96.0382 335.379 96.7847C335.379 109.483 335.379 122.18 335.379 134.879Z" fill="#263238" stroke="#263238" stroke-width="0.75" stroke-miterlimit="10" stroke-linecap="round" stroke-linejoin="round"/>
<path d="M340.941 136.787C338.721 136.008 337.608 135.625 335.379 134.879C335.379 115.776 335.379 96.6725 335.379 77.5693C337.608 78.3159 338.721 78.6976 340.941 79.4775C340.941 98.5817 340.941 117.684 340.941 136.787Z" fill="#92E3A9" stroke="#263238" stroke-width="0.75" stroke-miterlimit="10" stroke-linecap="round" stroke-linejoin="round"/>
<path d="M357.495 142.999C355.302 142.122 354.202 141.692 352 140.848C352 114.553 352 88.2572 352 61.9619C354.202 62.8066 355.302 63.2363 357.495 64.1134C357.495 90.4087 357.495 116.704 357.495 142.999Z" fill="#263238" stroke="#263238" stroke-width="0.75" stroke-miterlimit="10" stroke-linecap="round" stroke-linejoin="round"/>
<path d="M362.968 145.232C360.784 144.323 359.689 143.877 357.495 143C357.495 115.045 357.495 87.091 357.495 59.1367C359.689 60.0138 360.784 60.4602 362.968 61.3696C362.968 89.3249 362.968 117.278 362.968 145.232Z" fill="#92E3A9" stroke="#263238" stroke-width="0.75" stroke-miterlimit="10" stroke-linecap="round" stroke-linejoin="round"/>
<path d="M379.233 152.419C377.08 151.411 376 150.917 373.837 149.941C373.837 118.835 373.837 87.7285 373.837 56.6221C376 57.5963 377.08 58.0917 379.233 59.0992C379.233 90.2057 379.233 121.312 379.233 152.419Z" fill="#263238" stroke="#263238" stroke-width="0.75" stroke-miterlimit="10" stroke-linecap="round" stroke-linejoin="round"/>
<path d="M384.602 154.978C382.46 153.939 381.386 153.427 379.234 152.42C379.234 119.33 379.234 86.2405 379.234 53.1504C381.386 54.1579 382.46 54.6691 384.602 55.709C384.602 88.7991 384.602 121.888 384.602 154.978Z" fill="#92E3A9" stroke="#263238" stroke-width="0.75" stroke-miterlimit="10" stroke-linecap="round" stroke-linejoin="round"/>
<path d="M267.042 118.284C264.741 117.928 263.59 117.759 261.286 117.437C261.286 106.186 261.286 94.9354 261.286 83.6855C263.59 84.0083 264.741 84.1771 267.042 84.5322C267.042 95.783 267.042 107.033 267.042 118.284Z" fill="#263238" stroke="#263238" stroke-width="0.75" stroke-miterlimit="10" stroke-linecap="round" stroke-linejoin="round"/>
<path d="M272.789 119.211C270.492 118.824 269.343 118.639 267.043 118.283C267.043 103.712 267.043 89.14 267.043 74.5684C269.343 74.9235 270.492 75.1089 272.789 75.4964C272.789 90.0691 272.789 104.641 272.789 119.211Z" fill="#92E3A9" stroke="#263238" stroke-width="0.75" stroke-miterlimit="10" stroke-linecap="round" stroke-linejoin="round"/>
<path d="M244.632 116.861C165.425 110.278 89.3404 124.446 17.7849 159.031C17.7849 121.424 17.7849 83.8161 17.7849 46.2091C89.3404 11.6239 165.425 -2.54361 244.632 4.03929C244.632 41.6472 244.632 79.2542 244.632 116.861Z" fill="#92E3A9"/>
<path opacity="0.8" d="M244.632 116.861C165.425 110.278 89.3404 124.446 17.7849 159.031C17.7849 121.424 17.7849 83.8161 17.7849 46.2091C89.3404 11.6239 165.425 -2.54361 244.632 4.03929C244.632 41.6472 244.632 79.2542 244.632 116.861Z" fill="white"/>
<path d="M39.312 148.959C39.312 111.352 39.312 73.7437 39.312 36.1367" stroke="#263238" stroke-width="0.75" stroke-miterlimit="10" stroke-linecap="round" stroke-linejoin="round"/>
<path d="M61.2458 140.19C61.2458 102.583 61.2458 64.9751 61.2458 27.3682" stroke="#263238" stroke-width="0.75" stroke-miterlimit="10" stroke-linecap="round" stroke-linejoin="round"/>
<path d="M83.5312 132.72C83.5312 95.1133 83.5312 57.5054 83.5312 19.8984" stroke="#263238" stroke-width="0.75" stroke-miterlimit="10" stroke-linecap="round" stroke-linejoin="round"/>
<path d="M106.112 126.551C106.112 88.9443 106.112 51.3364 106.112 13.7295" stroke="#263238" stroke-width="0.75" stroke-miterlimit="10" stroke-linecap="round" stroke-linejoin="round"/>
<path d="M128.93 121.685C128.93 84.0781 128.93 46.4702 128.93 8.86328" stroke="#263238" stroke-width="0.75" stroke-miterlimit="10" stroke-linecap="round" stroke-linejoin="round"/>
<path d="M151.931 118.119C151.931 80.5117 151.931 42.9038 151.931 5.29688" stroke="#263238" stroke-width="0.75" stroke-miterlimit="10" stroke-linecap="round" stroke-linejoin="round"/>
<path d="M175.058 115.853C175.058 78.2461 175.058 40.6382 175.058 3.03125" stroke="#263238" stroke-width="0.75" stroke-miterlimit="10" stroke-linecap="round" stroke-linejoin="round"/>
<path d="M198.254 114.888C198.254 77.2813 198.254 39.6733 198.254 2.06641" stroke="#263238" stroke-width="0.75" stroke-miterlimit="10" stroke-linecap="round" stroke-linejoin="round"/>
<path d="M221.465 115.224C221.465 77.6172 221.465 40.0093 221.465 2.40234" stroke="#263238" stroke-width="0.75" stroke-miterlimit="10" stroke-linecap="round" stroke-linejoin="round"/>
<path d="M244.632 4.03929C165.425 -2.54361 89.3404 11.6239 17.7849 46.2091" stroke="#263238" stroke-width="0.75" stroke-miterlimit="10" stroke-linecap="round" stroke-linejoin="round"/>
<path d="M17.7849 68.7736C89.3404 34.1883 165.425 20.0208 244.632 26.6037" stroke="#263238" stroke-width="0.75" stroke-miterlimit="10" stroke-linecap="round" stroke-linejoin="round"/>
<path d="M17.7849 91.338C89.3404 56.7528 165.425 42.5853 244.632 49.1682" stroke="#263238" stroke-width="0.75" stroke-miterlimit="10" stroke-linecap="round" stroke-linejoin="round"/>
<path d="M17.7849 113.902C89.3404 79.3172 165.425 65.1497 244.632 71.7327" stroke="#263238" stroke-width="0.75" stroke-miterlimit="10" stroke-linecap="round" stroke-linejoin="round"/>
<path d="M17.7849 136.467C89.3404 101.882 165.425 87.7142 244.632 94.2971" stroke="#263238" stroke-width="0.75" stroke-miterlimit="10" stroke-linecap="round" stroke-linejoin="round"/>
<path d="M234.462 36.4689C234.459 36.4611 234.458 36.4542 234.455 36.4464C234.306 36.0736 234.004 35.7616 233.632 35.585C233.624 35.5811 233.617 35.5801 233.61 35.5772C233.438 35.4997 233.253 35.4467 233.058 35.4329C230.841 35.276 229.733 35.2053 227.515 35.0788C226.679 35.0307 226.002 35.6537 226.002 36.467C226.002 37.2803 226.679 37.9749 227.515 38.022C228.272 38.0651 228.651 38.0877 229.408 38.1348C218.662 48.0386 208.082 58.0846 197.627 68.2965C182.355 68.4701 167.082 69.6513 151.93 71.5183C151.531 71.5683 151.148 71.7733 150.867 72.0853C143.477 80.3439 136.174 88.6534 128.929 97.0395C121.768 91.2886 114.504 85.6426 107.158 80.13C106.58 79.6944 105.643 79.922 105.064 80.6392C97.5558 89.9475 90.1762 99.3597 82.9243 108.869C74.1928 111.537 69.8536 112.994 61.2448 116.153C61.0211 116.236 60.8004 116.37 60.5993 116.546C45.5439 129.785 31.194 143.716 17.1619 158.027C16.4762 158.737 16.1985 159.763 16.5409 160.316C16.7842 160.707 17.2738 160.758 17.7839 160.501C17.9929 160.396 18.2048 160.239 18.4049 160.034C32.3575 145.87 46.6251 132.078 61.5843 118.972C70.298 115.783 74.6902 114.313 83.5286 111.628C83.9171 111.51 84.2889 111.242 84.5636 110.884C91.6243 101.663 98.8066 92.5355 106.109 83.5048C113.451 88.9988 120.714 94.6251 127.87 100.357C128.454 100.823 129.4 100.65 129.984 99.969C137.435 91.368 144.947 82.8495 152.551 74.3839C167.706 72.5405 182.98 71.3829 198.252 71.2318C198.653 71.2259 199.038 71.067 199.322 70.7874C209.92 60.4804 220.646 50.3441 231.544 40.3539C231.544 41.0917 231.544 41.4596 231.544 42.1973C231.544 43.0106 232.221 43.7141 233.055 43.7729C233.89 43.8318 234.566 43.2235 234.566 42.4112C234.566 40.2529 234.566 39.1737 234.566 37.0154C234.569 36.8241 234.528 36.6406 234.462 36.4689Z" fill="#92E3A9"/>
<mask id="mask5_51_328" style="mask-type:luminance" maskUnits="userSpaceOnUse" x="16" y="35" width="219" height="126">
<path d="M234.462 36.4689C234.459 36.4611 234.458 36.4542 234.455 36.4464C234.306 36.0736 234.004 35.7616 233.632 35.585C233.624 35.5811 233.617 35.5801 233.61 35.5772C233.438 35.4997 233.253 35.4467 233.058 35.4329C230.841 35.276 229.733 35.2053 227.515 35.0788C226.679 35.0307 226.002 35.6537 226.002 36.467C226.002 37.2803 226.679 37.9749 227.515 38.022C228.272 38.0651 228.651 38.0877 229.408 38.1348C218.662 48.0386 208.082 58.0846 197.627 68.2965C182.355 68.4701 167.082 69.6513 151.93 71.5183C151.531 71.5683 151.148 71.7733 150.867 72.0853C143.477 80.3439 136.174 88.6534 128.929 97.0395C121.768 91.2886 114.504 85.6426 107.158 80.13C106.58 79.6944 105.643 79.922 105.064 80.6392C97.5558 89.9475 90.1762 99.3597 82.9243 108.869C74.1928 111.537 69.8536 112.994 61.2448 116.153C61.0211 116.236 60.8004 116.37 60.5993 116.546C45.5439 129.785 31.194 143.716 17.1619 158.027C16.4762 158.737 16.1985 159.763 16.5409 160.316C16.7842 160.707 17.2738 160.758 17.7839 160.501C17.9929 160.396 18.2048 160.239 18.4049 160.034C32.3575 145.87 46.6251 132.078 61.5843 118.972C70.298 115.783 74.6902 114.313 83.5286 111.628C83.9171 111.51 84.2889 111.242 84.5636 110.884C91.6243 101.663 98.8066 92.5355 106.109 83.5048C113.451 88.9988 120.714 94.6251 127.87 100.357C128.454 100.823 129.4 100.65 129.984 99.969C137.435 91.368 144.947 82.8495 152.551 74.3839C167.706 72.5405 182.98 71.3829 198.252 71.2318C198.653 71.2259 199.038 71.067 199.322 70.7874C209.92 60.4804 220.646 50.3441 231.544 40.3539C231.544 41.0917 231.544 41.4596 231.544 42.1973C231.544 43.0106 232.221 43.7141 233.055 43.7729C233.89 43.8318 234.566 43.2235 234.566 42.4112C234.566 40.2529 234.566 39.1737 234.566 37.0154C234.569 36.8241 234.528 36.6406 234.462 36.4689Z" fill="white"/>
</mask>
<g mask="url(#mask5_51_328)">
<path opacity="0.7" d="M234.462 36.4689C234.459 36.4611 234.458 36.4542 234.455 36.4464C234.306 36.0736 234.004 35.7616 233.632 35.585C233.624 35.5811 233.617 35.5801 233.61 35.5772C233.438 35.4997 233.253 35.4467 233.058 35.4329C230.841 35.276 229.733 35.2053 227.515 35.0788C226.679 35.0307 226.002 35.6537 226.002 36.467C226.002 37.2803 226.679 37.9749 227.515 38.022C228.272 38.0651 228.651 38.0877 229.408 38.1348C218.662 48.0386 208.082 58.0846 197.627 68.2965C182.355 68.4701 167.082 69.6513 151.93 71.5183C151.531 71.5683 151.148 71.7733 150.867 72.0853C143.477 80.3439 136.174 88.6534 128.929 97.0395C121.768 91.2886 114.504 85.6426 107.158 80.13C106.58 79.6944 105.643 79.922 105.064 80.6392C97.5558 89.9475 90.1762 99.3597 82.9243 108.869C74.1928 111.537 69.8536 112.994 61.2448 116.153C61.0211 116.236 60.8004 116.37 60.5993 116.546C45.5439 129.785 31.194 143.716 17.1619 158.027C16.4762 158.737 16.1985 159.763 16.5409 160.316C16.7842 160.707 17.2738 160.758 17.7839 160.501C17.9929 160.396 18.2048 160.239 18.4049 160.034C32.3575 145.87 46.6251 132.078 61.5843 118.972C70.298 115.783 74.6902 114.313 83.5286 111.628C83.9171 111.51 84.2889 111.242 84.5636 110.884C91.6243 101.663 98.8066 92.5355 106.109 83.5048C113.451 88.9988 120.714 94.6251 127.87 100.357C128.454 100.823 129.4 100.65 129.984 99.969C137.435 91.368 144.947 82.8495 152.551 74.3839C167.706 72.5405 182.98 71.3829 198.252 71.2318C198.653 71.2259 199.038 71.067 199.322 70.7874C209.92 60.4804 220.646 50.3441 231.544 40.3539C231.544 41.0917 231.544 41.4596 231.544 42.1973C231.544 43.0106 232.221 43.7141 233.055 43.7729C233.89 43.8318 234.566 43.2235 234.566 42.4112C234.566 40.2529 234.566 39.1737 234.566 37.0154C234.569 36.8241 234.528 36.6406 234.462 36.4689Z" fill="white"/>
</g>
<path d="M234.462 36.4689C234.459 36.4611 234.458 36.4542 234.455 36.4464C234.306 36.0736 234.004 35.7616 233.632 35.585C233.624 35.5811 233.617 35.5801 233.61 35.5772C233.438 35.4997 233.253 35.4467 233.058 35.4329C230.841 35.276 229.733 35.2053 227.515 35.0788C226.679 35.0307 226.002 35.6537 226.002 36.467C226.002 37.2803 226.679 37.9749 227.515 38.022C228.272 38.0651 228.651 38.0877 229.408 38.1348C218.662 48.0386 208.082 58.0846 197.627 68.2965C182.355 68.4701 167.082 69.6513 151.93 71.5183C151.531 71.5683 151.148 71.7733 150.867 72.0853C143.477 80.3439 136.174 88.6534 128.929 97.0395C121.768 91.2886 114.504 85.6426 107.158 80.13C106.58 79.6944 105.643 79.922 105.064 80.6392C97.5558 89.9475 90.1762 99.3597 82.9243 108.869C74.1928 111.537 69.8536 112.994 61.2448 116.153C61.0211 116.236 60.8004 116.37 60.5993 116.546C45.5439 129.785 31.194 143.716 17.1619 158.027C16.4762 158.737 16.1985 159.763 16.5409 160.316C16.7842 160.707 17.2738 160.758 17.7839 160.501C17.9929 160.396 18.2048 160.239 18.4049 160.034C32.3575 145.87 46.6251 132.078 61.5843 118.972C70.298 115.783 74.6902 114.313 83.5286 111.628C83.9171 111.51 84.2889 111.242 84.5636 110.884C91.6243 101.663 98.8066 92.5355 106.109 83.5048C113.451 88.9988 120.714 94.6251 127.87 100.357C128.454 100.823 129.4 100.65 129.984 99.969C137.435 91.368 144.947 82.8495 152.551 74.3839C167.706 72.5405 182.98 71.3829 198.252 71.2318C198.653 71.2259 199.038 71.067 199.322 70.7874C209.92 60.4804 220.646 50.3441 231.544 40.3539C231.544 41.0917 231.544 41.4596 231.544 42.1973C231.544 43.0106 232.221 43.7141 233.055 43.7729C233.89 43.8318 234.566 43.2235 234.566 42.4112C234.566 40.2529 234.566 39.1737 234.566 37.0154C234.569 36.8241 234.528 36.6406 234.462 36.4689Z" stroke="#263238" stroke-miterlimit="10"/>
<path d="M64.3566 116.498C64.3566 118.248 62.9625 120.165 61.2466 120.795C59.5308 121.425 58.1436 120.529 58.1436 118.779C58.1436 117.029 59.5308 115.086 61.2466 114.457C62.9615 113.826 64.3566 114.747 64.3566 116.498Z" fill="#92E3A9"/>
<mask id="mask6_51_328" style="mask-type:luminance" maskUnits="userSpaceOnUse" x="58" y="114" width="7" height="7">
<path d="M64.3566 116.498C64.3566 118.248 62.9625 120.165 61.2466 120.795C59.5308 121.425 58.1436 120.529 58.1436 118.779C58.1436 117.029 59.5308 115.086 61.2466 114.457C62.9615 113.826 64.3566 114.747 64.3566 116.498Z" fill="white"/>
</mask>
<g mask="url(#mask6_51_328)">
<path opacity="0.7" d="M64.3566 116.498C64.3566 118.248 62.9625 120.165 61.2466 120.795C59.5308 121.425 58.1436 120.529 58.1436 118.779C58.1436 117.029 59.5308 115.086 61.2466 114.457C62.9615 113.826 64.3566 114.747 64.3566 116.498Z" fill="white" stroke="#263238" stroke-width="0.75" stroke-miterlimit="10" stroke-linecap="round" stroke-linejoin="round"/>
</g>
<path d="M64.3566 116.498C64.3566 118.248 62.9625 120.165 61.2466 120.795C59.5308 121.425 58.1436 120.529 58.1436 118.779C58.1436 117.029 59.5308 115.086 61.2466 114.457C62.9615 113.826 64.3566 114.747 64.3566 116.498Z" stroke="#263238" stroke-width="0.75" stroke-miterlimit="10" stroke-linecap="round" stroke-linejoin="round"/>
<path d="M86.6864 109.211C86.6864 110.962 85.2727 112.797 83.5313 113.326C81.7899 113.855 80.3821 112.878 80.3821 111.127C80.3821 109.377 81.7909 107.516 83.5313 106.987C85.2717 106.458 86.6864 107.46 86.6864 109.211Z" fill="#92E3A9"/>
<mask id="mask7_51_328" style="mask-type:luminance" maskUnits="userSpaceOnUse" x="80" y="106" width="7" height="8">
<path d="M86.6864 109.211C86.6864 110.962 85.2727 112.797 83.5313 113.326C81.7899 113.855 80.3821 112.878 80.3821 111.127C80.3821 109.377 81.7909 107.516 83.5313 106.987C85.2717 106.458 86.6864 107.46 86.6864 109.211Z" fill="white"/>
</mask>
<g mask="url(#mask7_51_328)">
<path opacity="0.7" d="M86.6864 109.211C86.6864 110.962 85.2727 112.797 83.5313 113.326C81.7899 113.855 80.3821 112.878 80.3821 111.127C80.3821 109.377 81.7909 107.516 83.5313 106.987C85.2717 106.458 86.6864 107.46 86.6864 109.211Z" fill="white"/>
</g>
<path d="M86.6864 109.211C86.6864 110.962 85.2727 112.797 83.5313 113.326C81.7899 113.855 80.3821 112.878 80.3821 111.127C80.3821 109.377 81.7909 107.516 83.5313 106.987C85.2717 106.458 86.6864 107.46 86.6864 109.211Z" stroke="#263238" stroke-width="0.75" stroke-miterlimit="10" stroke-linecap="round" stroke-linejoin="round"/>
<path d="M132.151 98.541C132.151 100.291 130.708 101.963 128.93 102.29C127.152 102.616 125.712 101.475 125.712 99.7252C125.712 97.975 127.151 96.2777 128.93 95.9501C130.708 95.6244 132.151 96.7908 132.151 98.541Z" fill="#92E3A9"/>
<mask id="mask8_51_328" style="mask-type:luminance" maskUnits="userSpaceOnUse" x="125" y="95" width="8" height="8">
<path d="M132.151 98.541C132.151 100.291 130.708 101.963 128.93 102.29C127.152 102.616 125.712 101.475 125.712 99.7252C125.712 97.975 127.151 96.2777 128.93 95.9501C130.708 95.6244 132.151 96.7908 132.151 98.541Z" fill="white"/>
</mask>
<g mask="url(#mask8_51_328)">
<path opacity="0.7" d="M132.151 98.541C132.151 100.291 130.708 101.963 128.93 102.29C127.152 102.616 125.712 101.475 125.712 99.7252C125.712 97.975 127.151 96.2777 128.93 95.9501C130.708 95.6244 132.151 96.7908 132.151 98.541Z" fill="white"/>
</g>
<path d="M132.151 98.541C132.151 100.291 130.708 101.963 128.93 102.29C127.152 102.616 125.712 101.475 125.712 99.7252C125.712 97.975 127.151 96.2777 128.93 95.9501C130.708 95.6244 132.151 96.7908 132.151 98.541Z" stroke="#263238" stroke-width="0.75" stroke-miterlimit="10" stroke-linecap="round" stroke-linejoin="round"/>
<path d="M155.172 72.593C155.172 74.3432 153.72 75.9325 151.93 76.1591C150.14 76.3858 148.69 75.1624 148.69 73.4122C148.69 71.662 150.14 70.0462 151.93 69.8205C153.72 69.5939 155.172 70.8428 155.172 72.593Z" fill="#92E3A9"/>
<mask id="mask9_51_328" style="mask-type:luminance" maskUnits="userSpaceOnUse" x="148" y="69" width="8" height="8">
<path d="M155.172 72.593C155.172 74.3432 153.72 75.9325 151.93 76.1591C150.14 76.3858 148.69 75.1624 148.69 73.4122C148.69 71.662 150.14 70.0462 151.93 69.8205C153.72 69.5939 155.172 70.8428 155.172 72.593Z" fill="white"/>
</mask>
<g mask="url(#mask9_51_328)">
<path opacity="0.7" d="M155.172 72.593C155.172 74.3432 153.72 75.9325 151.93 76.1591C150.14 76.3858 148.69 75.1624 148.69 73.4122C148.69 71.662 150.14 70.0462 151.93 69.8205C153.72 69.5939 155.172 70.8428 155.172 72.593Z" fill="white" stroke="#263238" stroke-width="0.75" stroke-miterlimit="10" stroke-linecap="round" stroke-linejoin="round"/>
</g>
<path d="M155.172 72.593C155.172 74.3432 153.72 75.9325 151.93 76.1591C150.14 76.3858 148.69 75.1624 148.69 73.4122C148.69 71.662 150.14 70.0462 151.93 69.8205C153.72 69.5939 155.172 70.8428 155.172 72.593Z" stroke="#263238" stroke-width="0.75" stroke-miterlimit="10" stroke-linecap="round" stroke-linejoin="round"/>
<path d="M178.313 70.5091C178.313 72.2593 176.855 73.7672 175.057 73.8927C173.26 74.0183 171.803 72.7135 171.803 70.9633C171.803 69.2131 173.26 67.6797 175.057 67.5541C176.855 67.4285 178.313 68.7588 178.313 70.5091Z" fill="#92E3A9"/>
<mask id="mask10_51_328" style="mask-type:luminance" maskUnits="userSpaceOnUse" x="171" y="67" width="8" height="7">
<path d="M178.313 70.5091C178.313 72.2593 176.855 73.7672 175.057 73.8927C173.26 74.0183 171.803 72.7135 171.803 70.9633C171.803 69.2131 173.26 67.6797 175.057 67.5541C176.855 67.4285 178.313 68.7588 178.313 70.5091Z" fill="white"/>
</mask>
<g mask="url(#mask10_51_328)">
<path opacity="0.7" d="M178.313 70.5091C178.313 72.2593 176.855 73.7672 175.057 73.8927C173.26 74.0183 171.803 72.7135 171.803 70.9633C171.803 69.2131 173.26 67.6797 175.057 67.5541C176.855 67.4285 178.313 68.7588 178.313 70.5091Z" fill="white"/>
</g>
<path d="M178.313 70.5091C178.313 72.2593 176.855 73.7672 175.057 73.8927C173.26 74.0183 171.803 72.7135 171.803 70.9633C171.803 69.2131 173.26 67.6797 175.057 67.5541C176.855 67.4285 178.313 68.7588 178.313 70.5091Z" stroke="#263238" stroke-width="0.75" stroke-miterlimit="10" stroke-linecap="round" stroke-linejoin="round"/>
<path d="M201.515 69.7276C201.515 71.4778 200.055 72.9043 198.253 72.9288C196.452 72.9533 194.992 71.5671 194.992 69.8159C194.992 68.0657 196.452 66.6137 198.253 66.5892C200.055 66.5647 201.515 67.9774 201.515 69.7276Z" fill="#92E3A9"/>
<mask id="mask11_51_328" style="mask-type:luminance" maskUnits="userSpaceOnUse" x="194" y="66" width="8" height="7">
<path d="M201.515 69.7276C201.515 71.4778 200.055 72.9043 198.253 72.9288C196.452 72.9533 194.992 71.5671 194.992 69.8159C194.992 68.0657 196.452 66.6137 198.253 66.5892C200.055 66.5647 201.515 67.9774 201.515 69.7276Z" fill="white"/>
</mask>
<g mask="url(#mask11_51_328)">
<path opacity="0.7" d="M201.515 69.7276C201.515 71.4778 200.055 72.9043 198.253 72.9288C196.452 72.9533 194.992 71.5671 194.992 69.8159C194.992 68.0657 196.452 66.6137 198.253 66.5892C200.055 66.5647 201.515 67.9774 201.515 69.7276Z" fill="white"/>
</g>
<path d="M201.515 69.7276C201.515 71.4778 200.055 72.9043 198.253 72.9288C196.452 72.9533 194.992 71.5671 194.992 69.8159C194.992 68.0657 196.452 66.6137 198.253 66.5892C200.055 66.5647 201.515 67.9774 201.515 69.7276Z" stroke="#263238" stroke-width="0.75" stroke-miterlimit="10" stroke-linecap="round" stroke-linejoin="round"/>
<path d="M224.723 47.6832C224.723 49.4335 223.264 50.7775 221.464 50.701C219.665 50.6245 218.205 49.1558 218.205 47.4056C218.205 45.6554 219.665 44.2858 221.464 44.3614C223.265 44.4389 224.723 45.933 224.723 47.6832Z" fill="#92E3A9"/>
<mask id="mask12_51_328" style="mask-type:luminance" maskUnits="userSpaceOnUse" x="218" y="44" width="7" height="7">
<path d="M224.723 47.6832C224.723 49.4335 223.264 50.7775 221.464 50.701C219.665 50.6245 218.205 49.1558 218.205 47.4056C218.205 45.6554 219.665 44.2858 221.464 44.3614C223.265 44.4389 224.723 45.933 224.723 47.6832Z" fill="white"/>
</mask>
<g mask="url(#mask12_51_328)">
<path opacity="0.7" d="M224.723 47.6832C224.723 49.4335 223.264 50.7775 221.464 50.701C219.665 50.6245 218.205 49.1558 218.205 47.4056C218.205 45.6554 219.665 44.2858 221.464 44.3614C223.265 44.4389 224.723 45.933 224.723 47.6832Z" fill="white"/>
</g>
<path d="M224.723 47.6832C224.723 49.4335 223.264 50.7775 221.464 50.701C219.665 50.6245 218.205 49.1558 218.205 47.4056C218.205 45.6554 219.665 44.2858 221.464 44.3614C223.265 44.4389 224.723 45.933 224.723 47.6832Z" stroke="#263238" stroke-width="0.75" stroke-miterlimit="10" stroke-linecap="round" stroke-linejoin="round"/>
<path d="M109.303 80.6623C109.303 82.4125 107.873 84.1656 106.111 84.5944C104.349 85.0221 102.923 83.9635 102.923 82.2123C102.923 80.4621 104.349 78.6825 106.111 78.2548C107.873 77.826 109.303 78.9111 109.303 80.6623Z" fill="#92E3A9"/>
<mask id="mask13_51_328" style="mask-type:luminance" maskUnits="userSpaceOnUse" x="102" y="78" width="8" height="7">
<path d="M109.303 80.6623C109.303 82.4125 107.873 84.1656 106.111 84.5944C104.349 85.0221 102.923 83.9635 102.923 82.2123C102.923 80.4621 104.349 78.6825 106.111 78.2548C107.873 77.826 109.303 78.9111 109.303 80.6623Z" fill="white"/>
</mask>
<g mask="url(#mask13_51_328)">
<path opacity="0.7" d="M109.303 80.6623C109.303 82.4125 107.873 84.1656 106.111 84.5944C104.349 85.0221 102.923 83.9635 102.923 82.2123C102.923 80.4621 104.349 78.6825 106.111 78.2548C107.873 77.826 109.303 78.9111 109.303 80.6623Z" fill="white"/>
</g>
<path d="M109.303 80.6623C109.303 82.4125 107.873 84.1656 106.111 84.5944C104.349 85.0221 102.923 83.9635 102.923 82.2123C102.923 80.4621 104.349 78.6825 106.111 78.2548C107.873 77.826 109.303 78.9111 109.303 80.6623Z" stroke="#263238" stroke-width="0.75" stroke-miterlimit="10" stroke-linecap="round" stroke-linejoin="round"/>
<path d="M234.461 13.9045C234.458 13.8966 234.457 13.8898 234.455 13.8819C234.304 13.5091 234.004 13.1971 233.631 13.0205C233.624 13.0166 233.617 13.0156 233.61 13.0127C233.438 12.9342 233.253 12.8822 233.057 12.8685C230.841 12.7115 229.733 12.6409 227.515 12.5143C226.679 12.4663 226.002 13.0892 226.002 13.9025C226.002 14.7158 226.679 15.4104 227.515 15.4575C228.272 15.5007 228.651 15.5232 229.408 15.5703C225.981 18.694 224.267 20.2735 220.837 23.4688C211.808 23.099 207.288 23.0362 198.253 23.1588C197.852 23.1647 197.467 23.3256 197.183 23.6062C189.524 31.2506 181.95 38.9499 174.431 46.7327C165.413 47.3753 160.91 47.8197 151.93 48.9538C151.53 49.0038 151.148 49.2089 150.866 49.5209C143.477 57.7794 136.174 66.089 128.929 74.4751C121.768 68.7241 114.503 63.0781 107.158 57.5655C106.579 57.1299 105.642 57.3576 105.064 58.0747C97.5556 67.384 90.1761 76.7953 82.9241 86.3047C74.1926 88.9722 69.8534 90.4291 61.2446 93.589C60.862 93.7293 60.4951 94.0197 60.2253 94.3955C45.2406 115.434 30.7955 136.774 16.8026 158.485C16.2601 159.334 16.2601 160.267 16.8026 160.566C17.0734 160.716 17.4286 160.681 17.7847 160.501C18.1398 160.323 18.496 160 18.7677 159.577C32.6556 138.147 46.9859 117.082 61.8431 96.3125C70.4558 93.1662 74.796 91.7162 83.5304 89.0624C83.9189 88.9447 84.2907 88.6769 84.5654 88.3188C91.6261 79.0978 98.8074 69.97 106.11 60.9394C113.453 66.4333 120.715 72.0597 127.872 77.792C128.456 78.258 129.402 78.0844 129.985 77.4035C137.437 68.8026 144.949 60.2841 152.553 51.8185C161.534 50.6971 166.038 50.2596 175.056 49.6317C175.458 49.6042 175.841 49.4227 176.125 49.1274C183.644 41.3761 191.219 33.7072 198.88 26.0941C207.915 25.9852 212.435 26.0539 221.464 26.4385C221.866 26.4552 222.25 26.3178 222.534 26.0539C226.14 22.7085 227.942 21.0554 231.546 17.7885C231.546 18.5253 231.546 18.8942 231.546 19.6319C231.546 20.4452 232.223 21.1486 233.057 21.2075C233.891 21.2664 234.567 20.6581 234.567 19.8458C234.567 17.6874 234.567 16.6083 234.567 14.45C234.568 14.2596 234.528 14.0762 234.461 13.9045Z" fill="#92E3A9" stroke="#263238" stroke-miterlimit="10"/>
<path d="M42.3691 125.086C42.3691 126.836 40.9975 128.835 39.3111 129.565C37.6247 130.296 36.262 129.482 36.262 127.731C36.262 125.981 37.6247 123.956 39.3111 123.225C40.9985 122.496 42.3691 123.335 42.3691 125.086Z" fill="#92E3A9" stroke="#263238" stroke-width="0.75" stroke-miterlimit="10" stroke-linecap="round" stroke-linejoin="round"/>
<path d="M64.3566 93.9338C64.3566 95.684 62.9625 97.601 61.2466 98.2308C59.5308 98.8607 58.1436 97.9649 58.1436 96.2147C58.1436 94.4645 59.5308 92.522 61.2466 91.8922C62.9615 91.2614 64.3566 92.1826 64.3566 93.9338Z" fill="#92E3A9" stroke="#263238" stroke-width="0.75" stroke-miterlimit="10" stroke-linecap="round" stroke-linejoin="round"/>
<path d="M109.303 58.0978C109.303 59.848 107.873 61.6012 106.111 62.0299C104.349 62.4577 102.923 61.3991 102.923 59.6479C102.923 57.8977 104.349 56.118 106.111 55.6903C107.873 55.2616 109.303 56.3466 109.303 58.0978Z" fill="#92E3A9" stroke="#263238" stroke-width="0.75" stroke-miterlimit="10" stroke-linecap="round" stroke-linejoin="round"/>
<path d="M132.151 75.9769C132.151 77.7271 130.708 79.3988 128.93 79.7255C127.152 80.0522 125.712 78.9112 125.712 77.161C125.712 75.4108 127.151 73.7136 128.93 73.3869C130.708 73.0602 132.151 74.2267 132.151 75.9769Z" fill="#92E3A9" stroke="#263238" stroke-width="0.75" stroke-miterlimit="10" stroke-linecap="round" stroke-linejoin="round"/>
<path d="M155.172 50.0285C155.172 51.7787 153.72 53.3681 151.93 53.5947C150.14 53.8213 148.69 52.5979 148.69 50.8477C148.69 49.0975 150.14 47.4817 151.93 47.2561C153.72 47.0294 155.172 48.2783 155.172 50.0285Z" fill="#92E3A9" stroke="#263238" stroke-width="0.75" stroke-miterlimit="10" stroke-linecap="round" stroke-linejoin="round"/>
<path d="M178.313 47.9456C178.313 49.6958 176.855 51.2037 175.057 51.3293C173.26 51.4548 171.803 50.15 171.803 48.3998C171.803 46.6496 173.26 45.1162 175.057 44.9906C176.855 44.8651 178.313 46.1954 178.313 47.9456Z" fill="#92E3A9" stroke="#263238" stroke-width="0.75" stroke-miterlimit="10" stroke-linecap="round" stroke-linejoin="round"/>
<path d="M201.515 24.5987C201.515 26.3489 200.055 27.7754 198.253 27.7999C196.452 27.8244 194.992 26.4382 194.992 24.687C194.992 22.9368 196.452 21.4848 198.253 21.4603C200.055 21.4357 201.515 22.8485 201.515 24.5987Z" fill="#92E3A9" stroke="#263238" stroke-width="0.75" stroke-miterlimit="10" stroke-linecap="round" stroke-linejoin="round"/>
<path d="M224.723 25.1189C224.723 26.8691 223.264 28.2132 221.464 28.1367C219.665 28.0602 218.205 26.5915 218.205 24.8413C218.205 23.0911 219.665 21.7206 221.464 21.7981C223.265 21.8746 224.723 23.3687 224.723 25.1189Z" fill="#92E3A9" stroke="#263238" stroke-width="0.75" stroke-miterlimit="10" stroke-linecap="round" stroke-linejoin="round"/>
<path d="M244.632 118.333C165.425 111.75 89.3404 125.917 17.7849 160.502C17.0177 160.889 16.3967 160.546 16.3967 159.732C16.3967 122.125 16.3967 84.5174 16.3967 46.9105C16.3967 46.0972 17.0177 45.123 17.7849 44.7375C89.3404 10.1522 165.425 -4.01529 244.632 2.56761C245.465 2.65002 246.14 3.37797 246.14 4.19127C246.14 41.7982 246.14 79.4061 246.14 117.013C246.141 117.825 245.466 118.415 244.632 118.333ZM19.1751 156.863C89.8839 122.995 164.965 109.018 243.123 115.243C243.123 78.6174 243.123 41.9905 243.123 5.36462C164.965 -0.860204 89.8829 13.116 19.1751 46.9841C19.1751 83.61 19.1751 120.236 19.1751 156.863Z" fill="#92E3A9" stroke="#263238" stroke-miterlimit="10"/>
</svg>
