<svg width="553" height="550" viewBox="0 0 553 550" fill="none" xmlns="http://www.w3.org/2000/svg">
<path d="M345.931 36.7277H289.236C283.639 36.7277 279.1 41.2658 279.1 46.8633V110.931C279.1 116.529 283.639 121.067 289.236 121.067H321.564L313.979 135.764L335.105 121.067H345.931C351.528 121.067 356.067 116.529 356.067 110.931V46.8633C356.067 41.2658 351.528 36.7277 345.931 36.7277Z" fill="white" stroke="#263238" stroke-miterlimit="10" stroke-linecap="round" stroke-linejoin="round"/>
<path d="M527.231 59.2073H485.286C481.145 59.2073 477.788 62.5644 477.788 66.7066V114.106C477.788 118.247 481.145 121.605 485.286 121.605H490.322L484.71 132.479L500.34 121.605H527.229C531.37 121.605 534.728 118.248 534.728 114.106V66.7055C534.729 62.5644 531.372 59.2073 527.231 59.2073Z" fill="#263238" stroke="#263238" stroke-miterlimit="10" stroke-linecap="round" stroke-linejoin="round"/>
<path d="M83.9299 120.423H44.3753C38.8019 120.423 34.2844 115.906 34.2844 110.332V61.9045C34.2844 56.3311 38.8019 51.8136 44.3753 51.8136H83.9299C89.5033 51.8136 94.0208 56.3311 94.0208 61.9045V110.331C94.0208 115.904 89.5033 120.423 83.9299 120.423Z" fill="white" stroke="#263238" stroke-miterlimit="10" stroke-linecap="round" stroke-linejoin="round"/>
<path d="M92.7331 125.182H87.5568C85.8834 125.182 84.5256 123.825 84.5256 122.15V112.834C84.5256 111.161 85.8823 109.803 87.5568 109.803H92.7331C94.4065 109.803 95.7643 111.16 95.7643 112.834V122.15C95.7643 123.825 94.4065 125.182 92.7331 125.182Z" fill="white" stroke="#263238" stroke-miterlimit="10" stroke-linecap="round" stroke-linejoin="round"/>
<path d="M102.061 129.987H100.48C98.8067 129.987 97.449 128.631 97.449 126.956V122.56C97.449 120.887 98.8056 119.529 100.48 119.529H102.061C103.734 119.529 105.092 120.886 105.092 122.56V126.956C105.092 128.631 103.735 129.987 102.061 129.987Z" fill="white" stroke="#263238" stroke-miterlimit="10" stroke-linecap="round" stroke-linejoin="round"/>
<path d="M540.14 200.889C538.136 175.987 537.913 153.933 527.791 130.345C519.664 111.405 510.63 92.2408 498.236 75.6571C460.392 25.0246 401.148 2.45549 339.464 0.156572C238.327 -3.6126 139.863 61.0131 106.052 156.911C100.592 172.399 91.6077 185.45 81.4445 197.748C80.3874 197.107 79.7825 195.387 79.7814 192.414C79.7791 165.943 49.8656 195.543 45.1782 202.754C-15.4741 296.043 -2.42196 449.436 98.6606 509.079C140.171 533.573 186.173 545.337 233.914 549.16C277.335 552.638 324.37 546.084 357.129 514.871C385.494 487.842 395.173 447.706 418.884 418.002C416.985 421.776 412.196 432.567 412.269 445.315C412.359 461.208 452.451 454.83 493.453 384.67C531.919 318.849 544.722 257.84 540.14 200.889Z" fill="#92E3A9"/>
<path opacity="0.7" d="M540.14 200.889C538.136 175.987 537.913 153.933 527.791 130.345C519.664 111.405 510.63 92.2408 498.236 75.6571C460.392 25.0246 401.148 2.45549 339.464 0.156572C238.327 -3.6126 139.863 61.0131 106.052 156.911C100.592 172.399 91.6077 185.45 81.4445 197.748C80.3874 197.107 79.7825 195.387 79.7814 192.414C79.7791 165.943 49.8656 195.543 45.1782 202.754C-15.4741 296.043 -2.42196 449.436 98.6606 509.079C140.171 533.573 186.173 545.337 233.914 549.16C277.335 552.638 324.37 546.084 357.129 514.871C385.494 487.842 395.173 447.706 418.884 418.002C416.985 421.776 412.196 432.567 412.269 445.315C412.359 461.208 452.451 454.83 493.453 384.67C531.919 318.849 544.722 257.84 540.14 200.889Z" fill="white"/>
<path d="M198.583 52.575C197.193 53.6516 196.336 55.3067 196.009 57.5402C195.8 58.9702 195.768 60.2672 195.919 61.431C196.067 62.5948 196.274 63.8344 196.54 65.1508L176.161 66.8265C175.758 64.5769 175.506 62.4169 175.396 60.3464C175.289 58.2759 175.399 56.125 175.726 53.8881C176.876 46.0237 180.165 40.2265 185.595 36.501C191.025 32.7754 198.209 31.5657 207.15 32.8741C216.177 34.194 222.781 37.581 226.961 43.0304C231.139 48.4822 232.588 55.5867 231.307 64.3474C230.522 69.7108 228.882 74.6748 226.389 79.2416C226.03 79.8981 225.655 80.5466 225.263 81.187M223 84.5533C221.129 87.0979 218.977 89.5035 216.544 91.7703C212.474 95.5579 207.707 98.969 202.241 102.005L200.319 115.146L180.473 112.244L183.003 94.9461C187.483 92.4062 191.614 89.4496 195.395 86.0753C199.175 82.7032 202.32 78.9868 204.833 74.9238C207.345 70.8631 208.939 66.5086 209.62 61.8603C210.103 58.5536 209.849 56.0734 208.858 54.4218C207.867 52.769 206.209 51.7739 203.885 51.4342M175.626 140.705L178.666 119.921L199.986 123.039L196.945 143.824L175.626 140.705Z" stroke="#263238" stroke-miterlimit="10" stroke-linecap="round" stroke-linejoin="round"/>
<path d="M524.823 352.268C526.415 348.796 527.434 345.159 527.882 341.355C528.301 337.795 527.953 335.143 526.841 333.402C525.729 331.659 523.92 330.642 521.419 330.349C519.11 330.077 517.226 330.538 515.768 331.733C514.309 332.929 513.44 334.73 513.157 337.134C512.975 338.674 512.981 340.065 513.177 341.308C513.371 342.553 513.629 343.875 513.954 345.278L492.153 347.69C491.654 345.29 491.316 342.982 491.138 340.764C490.96 338.547 491.013 336.238 491.297 333.83C492.293 325.362 495.645 319.046 501.355 314.887C507.065 310.729 514.732 309.215 524.358 310.348C531.648 311.206 537.512 313.351 541.948 316.781M546.54 321.455C550.711 327.073 552.269 334.377 551.211 343.369C550.531 349.143 548.922 354.517 546.386 359.487C543.847 364.457 540.456 369.036 536.208 373.22C531.958 377.404 526.948 381.206 521.179 384.625L519.514 398.775L498.145 396.26L500.336 377.636C505.064 374.778 509.405 371.482 513.356 367.75C517.308 364.021 520.569 359.94 523.141 355.508M493.808 426.926L496.441 404.549L519.396 407.249L516.763 429.627L493.808 426.926Z" stroke="#263238" stroke-miterlimit="10" stroke-linecap="round" stroke-linejoin="round"/>
<path d="M12.9338 301.746C15.9466 300.288 19.508 299.271 23.6192 298.697C31.9208 297.538 38.6167 298.824 43.7058 302.554C48.7937 306.286 51.9018 312.179 53.0277 320.235C53.7164 325.167 53.5488 329.967 52.525 334.636C52.0384 336.853 51.3727 339.037 50.5291 341.19M48.5539 345.547C48.0913 346.444 47.5966 347.336 47.0687 348.221C44.4541 352.609 41.128 356.845 37.0891 360.93L38.7774 373.015L20.5272 375.565L18.3052 359.658C21.6026 356.265 24.4846 352.594 26.95 348.645C29.4165 344.698 31.2333 340.609 32.4029 336.38C33.5724 332.153 33.8582 327.9 33.2614 323.626C32.8367 320.586 31.9736 318.464 30.6744 317.262C29.3751 316.06 27.6558 315.609 25.5199 315.908C23.5469 316.183 22.087 316.974 21.1378 318.28C20.1886 319.587 19.8592 321.268 20.1462 323.322C20.3298 324.637 20.6362 325.789 21.0689 326.777C21.4993 327.765 21.9998 328.805 22.5736 329.897L5.03159 336.622C4.09733 334.742 3.31801 332.902 2.68905 331.104C2.06009 329.305 1.60444 327.379 1.31636 325.324C0.306346 318.092 1.71462 312.132 5.54348 307.448C6.86797 305.827 8.45644 304.418 10.3066 303.221M23.5825 401.915L20.9117 382.803L40.5174 380.063L43.187 399.175L23.5825 401.915Z" stroke="#263238" stroke-miterlimit="10" stroke-linecap="round" stroke-linejoin="round"/>
<path d="M373.954 143.281C374.315 144.442 374.592 145.693 374.789 147.036C375.268 150.323 375.177 153.527 374.513 156.646C373.849 159.765 372.654 162.795 370.93 165.733C369.205 168.671 367.002 171.512 364.326 174.254L365.503 182.309L353.339 184.086L351.789 173.484C353.974 171.205 355.882 168.745 357.511 166.099C359.139 163.456 360.334 160.721 361.097 157.894C361.86 155.068 362.033 152.231 361.616 149.381C361.32 147.354 360.735 145.942 359.863 145.146C358.991 144.349 357.843 144.056 356.419 144.264C355.105 144.456 354.133 144.991 353.505 145.866C352.877 146.741 352.665 147.865 352.865 149.233C352.993 150.11 353.202 150.877 353.495 151.534C353.786 152.192 354.125 152.883 354.512 153.609L342.837 158.169C342.205 156.918 341.678 155.695 341.251 154.498C340.824 153.301 340.511 152.017 340.311 150.647C339.606 145.827 340.521 141.844 343.056 138.704C345.591 135.562 349.598 133.592 355.079 132.792C360.612 131.984 365.085 132.814 368.496 135.281M355.486 201.654L353.624 188.914L366.692 187.004L368.554 199.744L355.486 201.654Z" stroke="#263238" stroke-miterlimit="10" stroke-linecap="round" stroke-linejoin="round"/>
<path d="M199.605 394.678C200.073 394.086 200.525 393.481 200.961 392.865C202.755 390.331 204.122 387.677 205.064 384.905C206.005 382.135 206.359 379.313 206.126 376.443C205.959 374.401 205.466 372.955 204.646 372.104C203.827 371.254 202.7 370.888 201.265 371.005C199.941 371.113 198.937 371.583 198.255 372.417C197.573 373.251 197.288 374.357 197.401 375.737C197.473 376.621 197.632 377.399 197.883 378.073C198.132 378.748 198.424 379.459 198.765 380.209L186.823 384.015C186.273 382.727 185.825 381.471 185.474 380.249C185.124 379.026 184.895 377.727 184.782 376.346C184.388 371.49 185.554 367.575 188.284 364.602C191.015 361.629 195.14 359.918 200.66 359.469C206.234 359.016 210.644 360.129 213.891 362.809M216.063 365.076C217.972 367.598 219.092 370.887 219.421 374.944C219.691 378.255 219.395 381.447 218.533 384.517C217.671 387.587 216.286 390.534 214.377 393.356C212.467 396.178 210.089 398.872 207.243 401.437L207.904 409.552L195.65 410.549L194.78 399.868C195.967 398.78 197.084 397.639 198.132 396.447M196.673 428.217L195.629 415.385L208.792 414.313L209.836 427.145L196.673 428.217Z" stroke="#263238" stroke-miterlimit="10" stroke-linecap="round" stroke-linejoin="round"/>
<path d="M310.635 96.3876V85.7596C313.108 83.8382 315.332 81.6954 317.31 79.3334C319.287 76.9725 320.851 74.4601 322.006 71.795C323.16 69.1311 323.736 66.3719 323.736 63.5152C323.736 61.4837 323.364 60.0135 322.622 59.1079C321.881 58.2012 320.796 57.749 319.369 57.749C318.051 57.749 317.021 58.1335 316.28 58.9025C315.539 59.6726 315.168 60.7434 315.168 62.1161C315.168 62.9953 315.263 63.7769 315.456 64.4644C315.648 65.1519 315.881 65.8784 316.156 66.6474L304.045 69.4479C303.605 68.1303 303.262 66.8528 303.016 65.6179C302.769 64.3818 302.646 63.0779 302.646 61.7041C302.646 56.8721 304.114 53.096 307.052 50.3771C309.99 47.6581 314.206 46.2991 319.699 46.2991C325.245 46.2991 329.516 47.7556 332.509 50.6651C335.501 53.5769 336.999 57.7237 336.999 63.1055C336.999 66.4006 336.449 69.5317 335.351 72.4974C334.251 75.4632 332.646 78.2637 330.531 80.9C328.417 83.5364 325.849 86.0075 322.828 88.3144V96.3888L310.635 96.3876ZM310.225 113.935V101.166H323.324V113.935H310.225Z" fill="#263238"/>
<path d="M501.445 103.696V96.0697C503.218 94.6901 504.814 93.1533 506.234 91.4581C507.653 89.764 508.776 87.9609 509.604 86.0476C510.431 84.1366 510.846 82.1556 510.846 80.1058C510.846 78.6482 510.579 77.5934 510.047 76.9426C509.514 76.2918 508.736 75.967 507.711 75.967C506.765 75.967 506.026 76.2436 505.495 76.7946C504.962 77.3466 504.697 78.1156 504.697 79.1004C504.697 79.7316 504.766 80.2929 504.904 80.7852C505.042 81.2788 505.208 81.7998 505.407 82.3519L496.715 84.3616C496.399 83.4159 496.153 82.5 495.976 81.6128C495.798 80.7256 495.71 79.7902 495.71 78.8043C495.71 75.3369 496.764 72.626 498.874 70.6748C500.982 68.7237 504.007 67.7481 507.95 67.7481C511.93 67.7481 514.995 68.7925 517.143 70.8814C519.291 72.9714 520.365 75.9464 520.365 79.8097C520.365 82.174 519.97 84.4213 519.182 86.5503C518.392 88.6783 517.24 90.6891 515.724 92.5806C514.206 94.472 512.363 96.2464 510.195 97.9015V103.696H501.445ZM501.15 116.289V107.125H510.55V116.289H501.15Z" fill="#92E3A9"/>
<path d="M58.5714 100.222V92.5955C60.3458 91.2159 61.9412 89.6791 63.3609 87.9839C64.7796 86.2898 65.9032 84.4867 66.7307 82.5746C67.5594 80.6636 67.9726 78.6826 67.9726 76.6327C67.9726 75.1751 67.7063 74.1203 67.1737 73.4696C66.6412 72.8188 65.863 72.494 64.8381 72.494C63.8924 72.494 63.1532 72.7694 62.6207 73.3215C62.0893 73.8724 61.823 74.6414 61.823 75.6262C61.823 76.2574 61.8918 76.8187 62.0296 77.311C62.1673 77.8046 62.3337 78.3256 62.5323 78.8777L53.8405 80.8874C53.5248 79.9417 53.2792 79.0258 53.1013 78.1386C52.9234 77.2514 52.8362 76.3159 52.8362 75.33C52.8362 71.8627 53.8898 69.1518 55.9994 67.2006C58.1077 65.2494 61.1332 64.2739 65.0757 64.2739C69.056 64.2739 72.1205 65.3183 74.2691 67.4072C76.4165 69.4972 77.4919 72.4722 77.4919 76.3355C77.4919 78.7009 77.0971 80.9471 76.3086 83.0761C75.5189 85.204 74.3666 87.2149 72.8505 89.1063C71.3331 90.9978 69.4899 92.7722 67.3218 94.4273V100.222H58.5714ZM58.2753 112.815V103.65H67.6764V112.815H58.2753Z" fill="#92E3A9" stroke="#263238" stroke-miterlimit="10" stroke-linecap="round" stroke-linejoin="round"/>
<path d="M480.662 314.348C480.662 314.348 478.009 363.795 478.341 389.691C478.673 415.588 475.685 423.224 477.676 427.207C479.669 431.191 480.001 439.823 479.004 443.475C478.008 447.128 477.676 460.74 477.676 460.74C477.676 460.74 479.004 465.72 478.673 470.035C478.341 474.351 478.341 474.351 478.341 474.351C478.341 474.351 482.656 482.318 482.989 486.635C483.321 490.951 478.674 496.595 473.694 497.26C468.714 497.923 463.402 495.267 462.074 491.948C460.746 488.628 459.086 479 457.758 475.015C456.431 471.032 454.438 470.367 453.775 465.72C453.111 461.071 456.099 454.763 455.767 452.108C455.435 449.452 450.787 383.383 450.787 383.383L443.151 330.927L428.543 391.351C428.543 391.351 423.231 427.539 423.563 431.191C423.894 434.843 420.575 446.463 419.246 450.447C417.918 454.431 418.583 457.419 418.583 460.075C418.583 462.731 417.919 468.043 416.259 470.7C414.599 473.356 412.938 486.304 411.943 487.964C410.947 489.624 409.951 496.928 400.323 496.596C390.695 496.265 391.028 486.636 391.691 482.652C392.355 478.669 396.34 470.036 396.34 467.049C396.34 464.061 395.676 459.413 396.008 455.761C396.34 452.109 399.992 440.489 399.992 440.489C399.992 440.489 397.336 390.025 399.66 382.056C401.984 374.089 401.984 311.008 401.984 311.008L480.665 309.974V314.348H480.662Z" fill="#263238" stroke="#263238" stroke-miterlimit="10" stroke-linecap="round" stroke-linejoin="round"/>
<path d="M454.224 166.484V175.964C454.224 175.964 472.821 181.069 480.296 186.174C487.772 191.279 491.053 201.853 490.507 208.782C489.96 215.711 489.413 226.833 488.502 233.943C487.59 241.053 485.766 254.181 485.766 254.181L476.286 254.546C476.286 254.546 476.834 281.894 477.015 287.911C477.197 293.927 480.661 306.69 480.661 309.972C480.661 313.253 480.661 314.348 480.661 314.348C480.661 314.348 450.213 322.371 429.611 321.823C409.008 321.276 399.163 312.16 399.163 312.16C399.163 312.16 402.263 287 402.444 275.331C402.627 263.661 399.527 222.091 399.527 222.091L394.421 227.562L375.277 210.424C375.277 210.424 381.659 198.572 384.394 195.108C387.129 191.644 388.405 187.633 395.333 183.804C402.26 179.975 415.936 177.97 417.758 177.423C419.582 176.875 430.521 174.141 430.521 174.141L431.25 169.401L454.224 166.484Z" fill="#92E3A9" stroke="#263238" stroke-miterlimit="10" stroke-linecap="round" stroke-linejoin="round"/>
<path d="M397.924 202.269L397.521 197.296" stroke="#263238" stroke-miterlimit="10" stroke-linecap="round" stroke-linejoin="round"/>
<path d="M399.528 222.092L398.212 205.833" stroke="#263238" stroke-miterlimit="10" stroke-linecap="round" stroke-linejoin="round"/>
<path d="M392.964 200.577L396.793 215.893" stroke="#263238" stroke-miterlimit="10" stroke-linecap="round" stroke-linejoin="round"/>
<path d="M437.636 243.552C438.74 245.796 439.787 247.857 440.733 249.623" stroke="#263238" stroke-miterlimit="10" stroke-linecap="round" stroke-linejoin="round"/>
<path d="M421.407 207.871C421.407 207.871 429.156 225.878 435.826 239.816" stroke="#263238" stroke-miterlimit="10" stroke-linecap="round" stroke-linejoin="round"/>
<path d="M455.09 256.599C456.393 258.303 457.691 259.94 458.966 261.474" stroke="#263238" stroke-miterlimit="10" stroke-linecap="round" stroke-linejoin="round"/>
<path d="M431.616 221.18C431.616 221.18 441.96 238.804 452.708 253.423" stroke="#263238" stroke-miterlimit="10" stroke-linecap="round" stroke-linejoin="round"/>
<path d="M457.391 307.467C449.448 306.659 434.61 304.784 423.412 301.221" stroke="#263238" stroke-miterlimit="10" stroke-linecap="round" stroke-linejoin="round"/>
<path d="M462.976 307.967C462.976 307.967 461.927 307.893 460.119 307.73" stroke="#263238" stroke-miterlimit="10" stroke-linecap="round" stroke-linejoin="round"/>
<path d="M423.047 303.955C423.047 303.955 430.705 307.237 443.103 308.513" stroke="#263238" stroke-miterlimit="10" stroke-linecap="round" stroke-linejoin="round"/>
<path d="M470.447 202.96C470.447 202.96 466.472 207.156 465.367 210.468" stroke="#263238" stroke-miterlimit="10" stroke-linecap="round" stroke-linejoin="round"/>
<path d="M470.669 199.426C470.669 199.426 467.357 202.296 466.253 204.284" stroke="#263238" stroke-miterlimit="10" stroke-linecap="round" stroke-linejoin="round"/>
<path d="M485.767 254.181L476.286 254.546C476.286 254.546 476.286 254.546 474.827 250.717C473.369 246.888 468.081 224.463 468.081 224.463C479.75 215.346 489.413 223.369 489.413 223.369L489.483 223.471C489.202 227.264 488.884 230.959 488.5 233.944C487.59 241.053 485.767 254.181 485.767 254.181Z" fill="#E3E3E3" stroke="#263238" stroke-miterlimit="10" stroke-linecap="round" stroke-linejoin="round"/>
<path d="M430.522 174.141L431.251 169.401L454.224 166.484V175.964C454.224 175.964 456.131 176.487 458.962 177.364C457.461 182.133 451.359 199.522 441.463 202.036C431.915 204.461 425.144 184.224 422.919 176.061C426.494 175.148 430.522 174.141 430.522 174.141Z" fill="#E3E3E3" stroke="#263238" stroke-miterlimit="10" stroke-linecap="round" stroke-linejoin="round"/>
<path d="M465.599 116.833C465.599 116.833 471.354 122.128 470.088 126.616C468.822 131.103 465.139 145.489 465.139 145.489C465.139 145.489 459.845 164.248 458.349 166.896C456.854 169.542 446.381 174.377 443.388 174.377C440.396 174.377 432.915 172.42 431.649 171.039C430.383 169.658 428.312 163.443 427.391 160.911C426.471 158.379 430.269 136.743 430.614 132.945C430.96 129.148 431.189 117.985 432.915 116.373C434.641 114.762 442.122 109.583 450.984 111.655C458.151 113.329 463.873 114.187 465.599 116.833Z" fill="#E3E3E3" stroke="#263238" stroke-miterlimit="10" stroke-linecap="round" stroke-linejoin="round"/>
<path d="M429.409 141.394C429.993 137.502 430.497 134.218 430.613 132.945C430.959 129.148 431.188 117.985 432.914 116.373C434.641 114.762 442.122 109.583 450.983 111.655C458.15 113.331 463.872 114.187 465.599 116.833C465.599 116.833 471.353 122.128 470.087 126.616C468.821 131.103 465.138 145.489 465.138 145.489C465.138 145.489 465.05 145.804 464.894 146.351L464.678 146.411C464.678 146.411 463.527 146.756 463.527 145.605C463.527 144.454 464.562 141.232 464.218 140.656C463.872 140.081 462.606 140.196 462.837 137.894C463.068 135.592 464.794 132.14 464.448 130.644C464.103 129.148 458.119 125.811 456.738 126.501C455.357 127.192 449.602 128.573 447.876 127.767C446.15 126.961 441.547 123.624 439.36 122.703C437.174 121.783 433.836 123.623 433.376 125.12C432.916 126.617 432.915 130.414 431.879 133.291C430.844 136.168 429.578 141.692 429.578 141.692C429.578 141.692 429.512 141.576 429.409 141.394Z" fill="#263238" stroke="#263238" stroke-miterlimit="10" stroke-linecap="round" stroke-linejoin="round"/>
<path d="M459.73 142.498C459.73 142.498 455.127 139.737 451.905 140.657" stroke="#263238" stroke-miterlimit="10" stroke-linecap="round" stroke-linejoin="round"/>
<path d="M441.547 137.318C441.893 137.549 439.015 133.29 434.872 133.866" stroke="#263238" stroke-miterlimit="10" stroke-linecap="round" stroke-linejoin="round"/>
<path d="M446.496 155.617C446.496 155.617 444.539 158.379 442.238 157.574C439.937 156.768 439.015 154.236 439.015 153.776" stroke="#263238" stroke-miterlimit="10" stroke-linecap="round" stroke-linejoin="round"/>
<path d="M465.14 145.49C465.14 145.49 468.477 144.109 469.052 147.562C469.627 151.014 461.571 157.344 461.571 157.344L465.14 145.49Z" fill="#E3E3E3" stroke="#263238" stroke-miterlimit="10" stroke-linecap="round" stroke-linejoin="round"/>
<path d="M430.038 138.7C430.038 138.7 426.585 135.248 425.665 140.081C424.744 144.914 427.966 150.898 427.966 150.898L430.038 138.7Z" fill="#E3E3E3" stroke="#263238" stroke-miterlimit="10" stroke-linecap="round" stroke-linejoin="round"/>
<path d="M451.415 145.434C450.943 146.648 451.09 147.838 451.741 148.091C452.393 148.343 453.303 147.564 453.774 146.35C454.246 145.136 454.1 143.945 453.448 143.693C452.798 143.44 451.886 144.22 451.415 145.434Z" fill="#263238"/>
<path d="M436.266 142.15C436.087 143.44 436.502 144.565 437.194 144.662C437.886 144.758 438.593 143.789 438.772 142.499C438.951 141.209 438.536 140.084 437.844 139.988C437.152 139.892 436.445 140.86 436.266 142.15Z" fill="#263238"/>
<path d="M440.051 160.22L435.218 157.113" stroke="#263238" stroke-miterlimit="10" stroke-linecap="round" stroke-linejoin="round"/>
<path d="M457.429 168.507C457.429 168.507 456.969 171.384 457.198 173.916C457.428 176.448 456.393 178.98 456.393 181.166C456.393 183.353 456.278 198.084 456.508 199.119C456.738 200.155 472.159 224.668 474 227.2C475.841 229.732 485.279 240.78 486.2 245.844C487.12 250.908 483.782 259.424 483.093 262.187C482.402 264.949 479.64 265.639 478.259 265.293C476.879 264.948 468.592 258.849 464.565 254.015C460.537 249.18 459.271 246.073 457.775 238.133C456.278 230.192 446.036 201.766 446.036 201.766C446.036 201.766 437.98 194.861 436.828 193.481C435.677 192.1 431.304 184.964 431.304 184.964C431.304 184.964 424.514 182.547 424.284 182.087C424.053 181.627 423.018 180.246 423.363 180.015C423.709 179.785 425.435 179.67 425.435 179.67C425.435 179.67 423.132 178.289 423.363 177.483C423.594 176.678 426.241 176.563 427.852 176.563C429.463 176.563 431.65 176.448 432.225 176.563C432.8 176.678 435.448 177.023 435.448 177.023L430.844 172.765C430.844 172.765 427.277 171.614 427.392 170.924C427.506 170.233 428.887 169.889 429.924 170.118C430.959 170.349 437.289 172.305 437.634 172.535C437.98 172.766 444.079 176.794 444.079 176.794L438.785 169.773C438.785 169.773 434.642 166.895 433.836 165.975C433.031 165.055 433.261 164.018 433.721 163.789C434.182 163.559 442.008 167.932 442.698 168.507C443.389 169.082 451.445 175.988 451.445 175.988C451.445 175.988 452.711 175.067 452.941 173.571C453.172 172.075 453.632 170.693 453.862 170.233C454.092 169.773 457.429 168.507 457.429 168.507Z" fill="#E3E3E3" stroke="#263238" stroke-miterlimit="10" stroke-linecap="round" stroke-linejoin="round"/>
<path d="M435.448 177.023L442.814 181.167" stroke="#263238" stroke-miterlimit="10" stroke-linecap="round" stroke-linejoin="round"/>
<path d="M426.356 180.13C426.356 180.13 431.65 180.476 432.571 180.936C433.492 181.396 439.131 184.619 439.131 184.619" stroke="#263238" stroke-miterlimit="10" stroke-linecap="round" stroke-linejoin="round"/>
<path d="M451.445 175.988L454.322 179.44" stroke="#263238" stroke-miterlimit="10" stroke-linecap="round" stroke-linejoin="round"/>
<path d="M392.964 226.285C392.964 226.285 377.519 246.994 375.33 248.088C373.142 249.182 364.755 242.8 363.478 239.701C362.202 236.601 364.39 230.585 364.39 230.585L375.277 210.424L392.964 226.285Z" fill="#E3E3E3" stroke="#263238" stroke-miterlimit="10" stroke-linecap="round" stroke-linejoin="round"/>
<path d="M379.958 238.689C382.118 254.858 385.618 270.363 391.506 286.998C391.506 286.998 407.733 286.27 408.281 286.451C408.828 286.633 418.126 291.374 418.673 292.467C419.221 293.561 421.591 297.208 420.861 297.755C420.132 298.302 415.938 294.837 415.938 294.837C415.938 294.837 410.833 291.737 410.287 291.737C409.74 291.737 415.209 296.843 415.209 296.843L419.403 302.494C419.403 302.494 417.58 304.682 415.939 302.311C414.298 299.941 409.193 296.478 409.193 296.478C409.193 296.478 417.033 304.135 416.303 304.864C415.574 305.593 415.756 306.505 413.751 305.047C411.746 303.588 407.369 299.759 407.369 299.759L403.175 298.665C403.175 298.665 407.187 302.859 408.281 304.135C409.374 305.412 410.651 307.599 409.739 307.782C408.828 307.964 407.004 306.87 406.458 306.14C405.91 305.412 402.264 302.129 402.264 302.129L397.706 299.394C397.706 299.394 392.055 299.211 390.779 298.665C389.502 298.118 386.585 295.019 386.221 294.289C381.488 284.822 375.386 275.761 369.944 266.555C365.876 259.674 355.605 245.553 360.351 237.248C361.81 234.696 367.688 224.638 367.688 224.638" fill="#E3E3E3"/>
<path d="M379.958 238.689C382.118 254.858 385.618 270.363 391.506 286.998C391.506 286.998 407.733 286.27 408.281 286.451C408.828 286.633 418.126 291.374 418.673 292.467C419.221 293.561 421.591 297.208 420.861 297.755C420.132 298.302 415.938 294.837 415.938 294.837C415.938 294.837 410.833 291.737 410.287 291.737C409.74 291.737 415.209 296.843 415.209 296.843L419.403 302.494C419.403 302.494 417.58 304.682 415.939 302.311C414.298 299.941 409.193 296.478 409.193 296.478C409.193 296.478 417.033 304.135 416.303 304.864C415.574 305.593 415.756 306.505 413.751 305.047C411.746 303.588 407.369 299.759 407.369 299.759L403.175 298.665C403.175 298.665 407.187 302.859 408.281 304.135C409.374 305.412 410.651 307.599 409.739 307.782C408.828 307.964 407.004 306.87 406.458 306.14C405.91 305.412 402.264 302.129 402.264 302.129L397.706 299.394C397.706 299.394 392.055 299.211 390.779 298.665C389.502 298.118 386.585 295.019 386.221 294.289C381.488 284.822 375.386 275.761 369.944 266.555C365.876 259.674 355.605 245.553 360.351 237.248C361.81 234.696 367.688 224.638 367.688 224.638" stroke="#263238" stroke-miterlimit="10" stroke-linecap="round" stroke-linejoin="round"/>
<path d="M410.285 291.74L407.551 290.281" stroke="#263238" stroke-miterlimit="10" stroke-linecap="round" stroke-linejoin="round"/>
<path d="M409.191 296.48L405.544 294.475" stroke="#263238" stroke-miterlimit="10" stroke-linecap="round" stroke-linejoin="round"/>
<path d="M230.708 232.561C230.708 232.561 228.771 247.535 228.418 255.991C228.066 264.447 228.771 272.374 232.117 273.431C235.464 274.488 242.335 274.664 244.626 271.141C246.915 267.618 245.683 256.343 246.563 250.883C247.444 245.422 249.029 233.266 249.029 233.266L231.589 230.976L230.708 232.561Z" fill="#ADADAD" stroke="#263238" stroke-miterlimit="10" stroke-linecap="round" stroke-linejoin="round"/>
<path d="M317.314 356.968C321.017 339.858 317.575 308.312 317.575 308.312L315.669 306.538L280.728 310.295L242.485 306.538L240.4 308.312C240.4 308.312 236.632 339.858 240.684 356.968C244.737 374.079 251.941 398.169 252.166 401.545C252.391 404.922 250.59 419.331 251.49 427.211C252.391 435.09 255.543 466.609 255.543 466.609L271.302 466.384C271.302 466.384 274.679 418.205 274.679 408.974C274.679 399.743 273.778 377.23 274.454 374.753C275.129 372.277 278.957 334.454 278.957 334.454L280.083 334.556V334.679L280.728 334.615L281.434 334.679V334.545L282.346 334.454C282.346 334.454 285.843 372.277 286.461 374.753C287.078 377.23 286.255 399.743 286.255 408.974C286.255 418.205 289.34 466.384 289.34 466.384L303.74 466.609C303.74 466.609 306.62 435.09 307.442 427.211C308.265 419.332 306.62 404.922 306.825 401.545C307.028 398.169 313.61 374.079 317.314 356.968Z" fill="#92E3A9" stroke="#263238" stroke-miterlimit="10" stroke-linecap="round" stroke-linejoin="round"/>
<path d="M259.25 318.539L272.135 330.79" stroke="#263238" stroke-miterlimit="10" stroke-linecap="round" stroke-linejoin="round"/>
<path d="M269.389 324.665L272.557 328.679" stroke="#263238" stroke-miterlimit="10" stroke-linecap="round" stroke-linejoin="round"/>
<path d="M288.399 328.467L294.525 322.342" stroke="#263238" stroke-miterlimit="10" stroke-linecap="round" stroke-linejoin="round"/>
<path d="M298.15 323.489C293.069 327.534 286.287 333.114 286.287 333.114" stroke="#263238" stroke-miterlimit="10" stroke-linecap="round" stroke-linejoin="round"/>
<path d="M303.608 319.384C303.451 319.384 302.301 320.232 300.662 321.507" stroke="#263238" stroke-miterlimit="10" stroke-linecap="round" stroke-linejoin="round"/>
<path d="M255.541 466.609C255.541 466.609 252.614 474.49 250.362 479.442C248.11 484.395 246.084 490.699 248.11 493.626C250.136 496.553 253.964 498.353 259.142 496.778C264.321 495.202 267.472 490.699 267.697 485.521C267.922 480.342 270.849 477.415 271.074 475.389C271.299 473.364 270.849 468.41 270.849 468.41L255.541 466.609Z" fill="#263238" stroke="#263238" stroke-miterlimit="10" stroke-linecap="round" stroke-linejoin="round"/>
<path d="M267.699 485.521C267.924 480.342 270.851 477.415 271.075 475.39C271.119 474.992 271.137 474.483 271.137 473.92C269.169 476.459 266.196 480.729 265.897 483.72C265.447 488.222 264.546 492.05 257.792 493.401C252.087 494.542 248.322 491.356 247.285 490.335C247.284 491.638 247.523 492.778 248.11 493.627C250.137 496.554 253.964 498.355 259.142 496.779C264.322 495.202 267.474 490.699 267.699 485.521Z" fill="white" stroke="#263238" stroke-miterlimit="10" stroke-linecap="round" stroke-linejoin="round"/>
<path d="M302.496 466.609C302.496 466.609 305.423 474.49 307.674 479.442C309.926 484.395 311.952 490.699 309.926 493.626C307.901 496.553 304.073 498.353 298.894 496.778C293.716 495.202 290.564 490.699 290.339 485.521C290.114 480.342 287.187 477.415 286.962 475.389C286.737 473.364 287.187 468.41 287.187 468.41L302.496 466.609Z" fill="#263238" stroke="#263238" stroke-miterlimit="10" stroke-linecap="round" stroke-linejoin="round"/>
<path d="M290.338 485.521C290.113 480.342 287.186 477.415 286.961 475.39C286.918 474.992 286.899 474.483 286.899 473.92C288.868 476.459 291.841 480.729 292.14 483.72C292.59 488.222 293.491 492.05 300.245 493.401C305.949 494.542 309.715 491.356 310.751 490.335C310.753 491.638 310.514 492.778 309.926 493.627C307.901 496.554 304.073 498.355 298.894 496.779C293.716 495.202 290.564 490.699 290.338 485.521Z" fill="white" stroke="#263238" stroke-miterlimit="10" stroke-linecap="round" stroke-linejoin="round"/>
<path d="M252.84 460.756L254.191 469.086C254.191 469.086 260.044 470.437 264.322 470.662C268.599 470.887 271.526 469.986 271.526 469.986L272.202 460.305L252.84 460.756Z" fill="white" stroke="#263238" stroke-miterlimit="10" stroke-linecap="round" stroke-linejoin="round"/>
<path d="M286.61 459.855L287.06 469.536C287.06 469.536 294.489 471.112 296.741 471.112C298.993 471.112 303.27 470.887 303.27 470.887C303.27 470.887 304.621 464.584 304.621 462.782C304.621 460.981 286.61 459.855 286.61 459.855Z" fill="white" stroke="#263238" stroke-miterlimit="10" stroke-linecap="round" stroke-linejoin="round"/>
<path d="M264.642 201.693C264.642 201.693 250.087 203.318 245.858 205.08C241.63 206.842 237.051 208.074 234.76 213.36C232.47 218.645 230.708 232.561 230.708 232.561L247.796 235.556C247.796 235.556 245.506 245.773 246.563 250.881C247.62 255.99 249.558 263.917 249.558 263.917C249.558 263.917 249.91 275.368 248.148 281.886C246.386 288.404 241.453 303.202 241.102 304.964C240.75 306.726 240.397 308.311 240.397 308.311C240.397 308.311 265.942 315.358 288.138 314.477C310.335 313.596 318.79 308.134 318.79 308.134C318.79 308.134 314.739 289.637 313.329 284.352C311.92 279.066 311.568 276.249 311.568 275.72C311.568 275.191 321.609 264.445 321.609 264.445C321.609 264.445 323.723 261.099 323.899 255.285C324.076 249.472 324.604 238.726 324.78 233.793C324.956 228.86 323.371 215.648 318.086 210.363C312.8 205.077 306.459 204.373 304.169 203.845C301.88 203.317 293.57 199.746 293.57 199.746L264.642 201.693Z" fill="#263238" stroke="#263238" stroke-miterlimit="10" stroke-linecap="round" stroke-linejoin="round"/>
<path d="M253.433 299.151C253.433 299.151 266.117 301.97 275.631 303.202" stroke="#949494" stroke-miterlimit="10" stroke-linecap="round" stroke-linejoin="round"/>
<path d="M292.178 300.961C285.009 301.154 275.446 301.142 269.993 300.032" stroke="#949494" stroke-miterlimit="10" stroke-linecap="round" stroke-linejoin="round"/>
<path d="M295.218 300.863C294.273 300.898 293.252 300.932 292.177 300.961" stroke="#263238" stroke-miterlimit="10" stroke-linecap="round" stroke-linejoin="round"/>
<path d="M301.526 300.56C301.526 300.56 299.626 300.682 296.701 300.805" stroke="#263238" stroke-miterlimit="10" stroke-linecap="round" stroke-linejoin="round"/>
<path d="M324.78 233.794C324.825 232.545 324.755 230.764 324.542 228.716C315.903 229.731 308.573 233.969 308.573 233.969C308.573 233.969 307.34 247.005 311.567 262.156C312.643 266.01 313.969 268.971 315.35 271.25C318.198 268.099 321.609 264.447 321.609 264.447C321.609 264.447 323.723 261.1 323.899 255.286C324.075 249.473 324.603 238.727 324.78 233.794Z" fill="#ADADAD" stroke="#263238" stroke-miterlimit="10" stroke-linecap="round" stroke-linejoin="round"/>
<path d="M283.029 140.956C283.029 140.956 293.246 145.007 295.184 148.354C297.122 151.701 297.826 181.825 297.651 183.763C297.474 185.7 304.521 186.757 306.459 186.229C308.396 185.701 308.22 184.997 308.573 183.058C308.925 181.121 310.51 180.239 310.51 178.654C310.51 177.069 308.925 175.835 308.925 174.778C308.925 173.721 310.334 171.784 309.982 170.374C309.63 168.965 308.22 169.142 308.573 167.556C308.925 165.97 309.805 164.384 309.453 162.975C309.101 161.565 306.634 159.98 306.459 158.923C306.283 157.866 307.163 155.752 306.811 153.638C306.459 151.524 304.697 151.524 303.816 149.587C302.936 147.649 303.464 147.12 302.407 144.83C301.35 142.541 300.293 143.421 299.413 142.011C298.532 140.602 299.06 139.193 297.828 138.136C296.595 137.078 296.066 134.789 293.071 132.85C290.077 130.913 287.61 130.208 284.264 128.974C280.917 127.742 276.864 127.917 276.864 127.917C276.864 127.917 272.636 129.327 276.512 133.378C280.387 137.432 283.029 140.956 283.029 140.956Z" fill="#263238"/>
<path d="M288.221 139.948C288.221 139.948 280.685 140.434 273.635 145.296C266.586 150.158 266.586 179.571 267.801 181.76C269.017 183.948 269.504 193.671 268.53 196.345C267.558 199.02 264.641 201.694 264.641 201.694C264.641 201.694 270.961 216.279 279.955 214.334C288.949 212.39 293.568 199.748 293.568 199.748C293.568 199.748 290.894 194.887 290.894 193.915C290.894 192.942 290.075 191.868 290.075 191.868C290.075 191.868 296.242 193.915 298.187 188.324C300.131 182.733 301.833 174.711 301.59 170.579C301.346 166.446 300.131 164.501 300.131 161.827C300.131 159.153 300.374 156.965 299.644 154.291C298.917 151.617 291.138 139.948 288.221 139.948Z" fill="#ADADAD" stroke="#263238" stroke-miterlimit="10" stroke-linecap="round" stroke-linejoin="round"/>
<path d="M284.615 192.572C284.615 192.572 281.444 192.395 276.863 188.343" stroke="#263238" stroke-miterlimit="10" stroke-linecap="round" stroke-linejoin="round"/>
<path d="M277.568 157.692C277.568 157.692 282.677 154.873 285.848 156.282" stroke="#263238" stroke-miterlimit="10" stroke-linecap="round" stroke-linejoin="round"/>
<path d="M293.07 155.753C293.07 155.753 295.008 152.23 298.179 154.696" stroke="#263238" stroke-miterlimit="10" stroke-linecap="round" stroke-linejoin="round"/>
<path d="M295.537 168.966C295.537 168.966 297.122 170.728 295.889 172.137C294.657 173.547 292.366 174.251 290.781 172.665" stroke="#263238" stroke-miterlimit="10" stroke-linecap="round" stroke-linejoin="round"/>
<path d="M296.769 176.894L290.956 178.655" stroke="#263238" stroke-miterlimit="10" stroke-linecap="round" stroke-linejoin="round"/>
<path d="M286.011 163.468C286.19 164.868 285.592 166.097 284.675 166.215C283.758 166.332 282.869 165.293 282.69 163.893C282.511 162.494 283.109 161.265 284.026 161.147C284.943 161.029 285.832 162.069 286.011 163.468Z" fill="#263238"/>
<path d="M298.043 161.452C298.215 162.794 297.655 163.971 296.793 164.081C295.931 164.191 295.093 163.193 294.921 161.851C294.749 160.51 295.309 159.332 296.171 159.222C297.033 159.112 297.872 160.11 298.043 161.452Z" fill="#263238"/>
<path d="M287.434 137.785C287.434 137.785 285.672 140.075 284.439 140.78C283.207 141.485 281.797 141.308 281.621 142.717C281.444 144.127 281.621 145.007 280.036 145.359C278.451 145.712 277.041 145.359 276.689 146.592C276.336 147.825 277.217 148.354 275.984 149.234C274.751 150.116 273.518 149.762 273.165 150.996C272.813 152.229 273.693 153.462 272.988 155.047C272.284 156.632 270.346 156.457 270.874 158.394C271.403 160.332 273.341 160.156 271.931 161.565C270.522 162.975 269.642 163.151 270.346 164.737C271.051 166.322 273.341 168.965 271.931 171.255C270.522 173.544 269.465 173.192 269.994 175.131C270.523 177.069 272.284 178.83 271.756 180.239C271.228 181.649 270.699 183.938 270.699 183.938C270.699 183.938 272.46 186.757 270.523 187.99C268.586 189.223 267.176 189.575 265.062 188.871C262.948 188.167 262.42 186.582 261.186 187.11C259.954 187.638 258.72 189.576 256.253 188.871C253.787 188.167 252.377 186.229 251.497 186.405C250.616 186.582 249.207 187.462 247.269 187.286C245.331 187.11 245.331 185.172 244.45 183.94C243.57 182.707 242.16 183.763 241.983 181.121C241.808 178.479 242.16 176.892 241.983 175.835C241.808 174.778 240.574 177.068 239.869 172.841C239.165 168.613 241.102 167.908 240.397 165.97C239.693 164.033 238.107 162.624 238.46 160.685C238.812 158.748 239.869 158.571 240.045 156.809C240.22 155.047 239.163 153.99 240.045 152.053C240.925 150.116 242.335 149.939 242.864 148.706C243.392 147.472 241.982 147.472 243.568 145.007C245.153 142.541 247.268 143.422 248.149 142.013C249.029 140.603 248.501 139.018 249.734 137.961C250.967 136.904 251.671 138.313 252.905 136.199C254.138 134.085 256.429 132.148 257.134 130.562C257.838 128.977 261.89 130.034 262.947 129.329C264.004 128.624 265.941 127.567 266.998 126.862C268.055 126.158 270.698 126.51 271.579 126.862C272.459 127.215 273.164 126.686 275.103 126.686C277.04 126.686 287.963 131.266 289.02 133.38C290.076 135.495 289.019 136.199 287.434 137.785Z" fill="#263238"/>
<path d="M228.595 258.986C228.595 258.986 227.89 273.254 228.947 276.073C230.005 278.892 232.823 278.54 246.035 280.477C259.248 282.414 283.558 278.892 289.724 278.715C295.889 278.538 303.112 278.011 303.112 278.011C303.112 278.011 311.039 279.772 311.392 278.715C311.744 277.658 305.579 266.207 304.345 265.327C303.112 264.447 299.941 264.622 298.179 265.504C296.417 266.385 294.128 267.265 292.541 267.97C290.956 268.675 267.35 268.852 263.123 267.09C258.894 265.328 250.967 262.862 246.563 261.981C242.159 261.1 239.693 260.749 239.693 260.749" fill="#ADADAD"/>
<path d="M228.595 258.986C228.595 258.986 227.89 273.254 228.947 276.073C230.005 278.892 232.823 278.54 246.035 280.477C259.248 282.414 283.558 278.892 289.724 278.715C295.889 278.538 303.112 278.011 303.112 278.011C303.112 278.011 311.039 279.772 311.392 278.715C311.744 277.658 305.579 266.207 304.345 265.327C303.112 264.447 299.941 264.622 298.179 265.504C296.417 266.385 294.128 267.265 292.541 267.97C290.956 268.675 267.35 268.852 263.123 267.09C258.894 265.328 250.967 262.862 246.563 261.981C242.159 261.1 239.693 260.749 239.693 260.749" stroke="#263238" stroke-miterlimit="10" stroke-linecap="round" stroke-linejoin="round"/>
<path d="M284.967 195.391C284.967 195.391 285.079 195.946 285.254 196.753C285.703 198.82 286.575 202.536 287.081 202.79C287.786 203.142 289.548 203.318 289.724 202.613C289.899 201.909 289.196 199.442 289.196 199.442C290.253 198.209 290.253 198.209 290.253 198.209C290.253 198.209 290.957 204.375 291.31 205.08C291.662 205.784 293.776 209.308 294.833 210.013C295.89 210.717 297.475 212.655 297.475 212.655L299.59 242.603C299.59 242.603 299.942 264.976 301.879 268.675C303.817 272.374 311.216 279.773 312.978 279.244C314.74 278.715 320.377 269.555 321.61 264.447C322.843 259.338 320.201 252.468 318.263 248.416C316.326 244.365 307.165 218.116 306.46 216.178C305.755 214.241 303.289 202.438 301.527 198.386C299.765 194.335 299.06 191.34 298.885 190.811C298.708 190.283 293.952 190.459 292.014 191.163C290.077 191.868 284.792 191.34 284.615 192.573C284.438 193.805 284.967 195.391 284.967 195.391Z" fill="#ADADAD" stroke="#263238" stroke-miterlimit="10" stroke-linecap="round" stroke-linejoin="round"/>
<path d="M246.21 218.291L248.325 231.152L247.797 235.556" stroke="#949494" stroke-miterlimit="10" stroke-linecap="round" stroke-linejoin="round"/>
<path d="M248.325 231.152L243.744 223.049" stroke="#949494" stroke-miterlimit="10" stroke-linecap="round" stroke-linejoin="round"/>
<path d="M62.6919 221.348C62.6919 221.348 56.5114 242.827 54.7278 251.741C52.9453 260.654 57.6247 272.689 58.5165 274.695C59.4083 276.7 68.5443 301.882 69.8814 304.334C71.2185 306.786 75.0072 316.145 75.2299 316.813C75.4525 317.481 83.2525 302.997 82.5834 301.66C81.9143 300.323 78.5721 294.751 77.9041 291.408C77.2349 288.066 74.7845 256.42 74.7845 256.42L86.8186 224.776L62.6919 221.348Z" fill="#C9C9C9" stroke="#263238" stroke-miterlimit="10" stroke-linecap="round" stroke-linejoin="round"/>
<path d="M65.2017 248.62C65.2017 248.62 72.1099 246.169 74.7841 256.42" stroke="#263238" stroke-miterlimit="10" stroke-linecap="round" stroke-linejoin="round"/>
<path d="M87.0407 469.463C87.0407 469.463 76.1211 481.942 73.6695 483.279C71.2179 484.616 69.4355 487.958 70.5499 491.302C71.6644 494.644 79.4644 497.765 83.0293 497.318C86.5953 496.873 89.2696 496.873 92.3891 492.638C95.5087 488.404 103.531 483.278 105.983 480.826C108.435 478.375 108.657 475.033 107.989 472.804C107.32 470.577 91.9426 465.451 87.0407 469.463Z" fill="#263238" stroke="#263238" stroke-miterlimit="10" stroke-linecap="round" stroke-linejoin="round"/>
<path d="M70.5499 491.302C71.6644 494.644 79.4644 497.765 83.0293 497.318C86.5953 496.873 89.2695 496.873 92.3891 492.639C95.5087 488.405 103.531 483.279 105.983 480.827C107.247 479.564 107.911 478.064 108.173 476.6C105.364 478.749 101.428 480.905 99.2973 482.61C95.9551 485.284 90.384 490.187 90.384 490.187C82.5117 479.516 76.7018 481.342 74.5659 482.619C74.2124 482.912 73.8956 483.155 73.6706 483.279C71.2179 484.616 69.4355 487.959 70.5499 491.302Z" fill="white" stroke="#263238" stroke-miterlimit="10" stroke-linecap="round" stroke-linejoin="round"/>
<path d="M90.1604 471.022C90.1604 471.022 82.8069 476.148 82.8069 478.153C82.8069 480.158 87.0409 480.605 88.8233 479.936C90.6058 479.268 97.2914 473.473 97.0687 472.582C96.846 471.691 90.1604 471.022 90.1604 471.022Z" fill="white" stroke="#263238" stroke-miterlimit="10" stroke-linecap="round" stroke-linejoin="round"/>
<path d="M165.019 469.463C165.019 469.463 175.939 481.942 178.391 483.279C180.842 484.616 182.625 487.958 181.51 491.302C180.396 494.644 172.597 497.765 169.031 497.318C165.465 496.873 162.79 496.873 159.671 492.638C156.551 488.404 148.529 483.278 146.077 480.826C143.626 478.375 143.403 475.033 144.072 472.804C144.74 470.577 160.116 465.451 165.019 469.463Z" fill="#263238" stroke="#263238" stroke-miterlimit="10" stroke-linecap="round" stroke-linejoin="round"/>
<path d="M181.51 491.302C180.396 494.644 172.597 497.765 169.031 497.318C165.465 496.873 162.79 496.873 159.671 492.639C156.551 488.405 148.529 483.279 146.077 480.827C144.813 479.564 144.149 478.064 143.887 476.6C146.696 478.749 150.632 480.905 152.763 482.61C156.105 485.284 161.676 490.187 161.676 490.187C169.548 479.516 175.358 481.342 177.494 482.619C177.848 482.912 178.164 483.155 178.389 483.279C180.841 484.616 182.625 487.959 181.51 491.302Z" fill="white" stroke="#263238" stroke-miterlimit="10" stroke-linecap="round" stroke-linejoin="round"/>
<path d="M161.899 471.022C161.899 471.022 169.252 476.148 169.252 478.153C169.252 480.158 165.018 480.605 163.236 479.936C161.453 479.268 154.768 473.473 154.991 472.582C155.214 471.691 161.899 471.022 161.899 471.022Z" fill="white" stroke="#263238" stroke-miterlimit="10" stroke-linecap="round" stroke-linejoin="round"/>
<path d="M82.8071 297.87C82.8071 297.87 73.67 317.48 74.1164 320.823C74.5618 324.166 78.3504 346.897 78.3504 346.897C78.3504 346.897 85.704 417.54 86.1505 422.888C86.5958 428.237 86.5958 437.374 86.5958 437.374C86.5958 437.374 84.3669 443.168 84.1442 448.739C83.9216 454.31 85.4813 468.127 85.4813 468.127L85.2587 471.469C85.2587 471.469 92.6122 473.251 96.8474 475.035C101.081 476.817 105.761 477.709 107.99 475.704C110.219 473.699 111.778 472.361 112.224 469.91C112.669 467.459 111.332 459.66 111.332 458.099C111.332 456.539 112.669 445.397 112.892 441.163C113.114 436.929 112 422.666 112 420.883C112 419.101 124.479 332.635 124.702 331.744C124.925 330.852 137.627 415.312 137.85 416.872C138.073 418.432 138.073 434.032 139.187 441.163C140.302 448.294 142.084 467.681 142.084 467.681C142.084 467.681 140.97 470.801 140.97 471.693C140.97 472.584 144.089 479.938 144.089 479.938C144.089 479.938 154.786 475.259 158.351 474.367C161.917 473.475 167.711 473.922 167.711 473.922C167.711 473.922 167.711 463.671 167.043 461.219C166.374 458.768 165.261 455.426 165.261 452.974C165.261 450.523 167.935 437.821 167.935 429.353C167.935 420.885 166.598 410.633 166.82 405.284C167.043 399.936 172.614 348.904 172.614 343.556C172.614 338.207 173.951 302.997 173.951 302.997L82.8071 297.87Z" fill="#263238" stroke="#263238" stroke-miterlimit="10" stroke-linecap="round" stroke-linejoin="round"/>
<path d="M115.989 166.563C115.989 166.563 108.133 169.96 103.46 171.446C98.7889 172.933 87.3218 176.118 78.8285 181.426C70.3353 186.734 65.6628 196.503 64.6012 202.448C63.5395 208.393 63.3272 216.888 63.3272 216.888L62.6902 221.347C62.6902 221.347 68.4231 228.566 73.7314 230.264C79.0397 231.963 83.9245 230.689 83.9245 230.689C83.9245 230.689 81.5889 276.343 81.1642 282.925C80.7395 289.507 80.7395 291.631 80.7395 291.631C80.7395 291.631 79.8902 291.631 79.8902 293.966C79.8902 296.302 79.6779 296.939 80.3149 297.788C80.9519 298.638 109.618 314.564 121.085 318.598C132.552 322.632 157.396 317.961 164.615 314.564C171.834 311.166 174.595 306.92 174.807 304.796C175.019 302.673 174.382 293.754 173.958 292.055C173.533 290.357 171.622 257.656 171.622 257.656L170.56 251.074L182.665 260.417C182.665 260.417 186.486 250.862 187.336 239.819C188.185 228.778 187.76 222.832 187.336 220.496C186.911 218.16 189.671 204.358 182.665 193.741C175.658 183.125 159.944 177.815 155.273 175.267C150.601 172.719 147.841 170.596 147.204 169.959C146.567 169.322 144.019 165.5 144.019 165.5L117.052 163.589L115.989 166.563Z" fill="#92E3A9" stroke="#263238" stroke-miterlimit="10" stroke-linecap="round" stroke-linejoin="round"/>
<path d="M151.359 172.968C149.055 171.508 147.633 170.39 147.203 169.96C146.566 169.323 144.018 165.501 144.018 165.501L117.051 163.59L115.989 166.563C115.989 166.563 111.526 168.493 107.326 170.08C109.471 176.13 116.671 193.75 128.093 194.805C137.439 195.667 146.487 181.931 151.359 172.968Z" fill="#C9C9C9" stroke="#263238" stroke-miterlimit="10" stroke-linecap="round" stroke-linejoin="round"/>
<path d="M166.739 229.416L170.561 251.075L182.665 260.418C182.665 260.418 186.487 250.863 187.336 239.821C187.713 234.923 187.838 231.034 187.825 228.012C179.925 226.523 166.739 229.416 166.739 229.416Z" fill="#C9C9C9" stroke="#263238" stroke-miterlimit="10" stroke-linecap="round" stroke-linejoin="round"/>
<path d="M83.9261 230.69L79.8906 201.812" stroke="#263238" stroke-miterlimit="10" stroke-linecap="round" stroke-linejoin="round"/>
<path d="M82.6518 225.17L77.5547 207.545" stroke="#263238" stroke-miterlimit="10" stroke-linecap="round" stroke-linejoin="round"/>
<path d="M118.652 278.057C116.9 279.169 115.156 280.232 113.441 281.228" stroke="#263238" stroke-miterlimit="10" stroke-linecap="round" stroke-linejoin="round"/>
<path d="M150.813 254.26C150.813 254.26 136.221 266.548 121.277 276.362" stroke="#263238" stroke-miterlimit="10" stroke-linecap="round" stroke-linejoin="round"/>
<path d="M151.237 244.705C151.237 244.705 144.655 254.897 133.188 264.453" stroke="#263238" stroke-miterlimit="10" stroke-linecap="round" stroke-linejoin="round"/>
<path d="M105.976 307.137C95.3055 301.819 82.864 293.969 82.864 293.969" stroke="#263238" stroke-miterlimit="10" stroke-linecap="round" stroke-linejoin="round"/>
<path d="M115.352 311.169C113.842 310.685 112.104 309.991 110.233 309.157" stroke="#263238" stroke-miterlimit="10" stroke-linecap="round" stroke-linejoin="round"/>
<path d="M100.063 299.277C100.063 299.277 118.112 309.256 144.443 302.674" stroke="#263238" stroke-miterlimit="10" stroke-linecap="round" stroke-linejoin="round"/>
<path d="M166.275 200.992C166.275 200.992 161.933 206.962 161.392 211.575" stroke="#263238" stroke-miterlimit="10" stroke-linecap="round" stroke-linejoin="round"/>
<path d="M118.008 115.391C118.008 115.391 113.019 121.113 112.726 125.955C112.432 130.797 112.287 146.936 112.287 153.686C112.287 160.436 113.461 166.745 115.808 168.653C118.155 170.56 122.264 172.321 124.905 172.907C127.546 173.494 133.268 173.935 135.176 173.347C137.084 172.761 145.447 169.385 147.794 166.891C150.141 164.397 150.729 153.539 150.729 144.295C150.729 135.052 150.288 124.488 148.821 121.406C147.355 118.324 144.567 114.51 144.567 114.51C144.567 114.51 142.073 110.109 132.535 109.521C122.996 108.936 118.155 110.989 118.008 115.391Z" fill="#263238" stroke="#263238" stroke-miterlimit="10" stroke-linecap="round" stroke-linejoin="round"/>
<path d="M119.475 116.418C119.475 116.418 119.916 119.5 118.595 122.58C117.273 125.662 114.046 127.862 114.046 130.65C114.046 133.438 113.019 147.523 113.313 149.138C113.606 150.751 115.514 155.153 116.687 155.594C117.861 156.033 123.29 152.806 128.719 152.806C134.148 152.806 142.07 155.888 142.951 156.621C143.831 157.354 146.472 157.795 147.058 156.915C147.645 156.034 148.525 149.432 148.672 147.818C148.819 146.204 149.406 139.895 149.259 136.374C149.112 132.852 147.938 127.863 146.324 126.103C144.71 124.342 142.803 117.006 142.803 117.006C142.803 117.006 134.146 120.38 130.478 119.793C126.811 119.206 119.475 116.418 119.475 116.418Z" fill="#C9C9C9" stroke="#263238" stroke-miterlimit="10" stroke-linecap="round" stroke-linejoin="round"/>
<path d="M117.714 133.845C117.714 133.845 121.822 132.28 128.278 134.628" stroke="#263238" stroke-width="2" stroke-miterlimit="10" stroke-linecap="round" stroke-linejoin="round"/>
<path d="M135.469 133.37C135.469 133.37 139.037 129.614 144.859 132.243" stroke="#263238" stroke-width="2" stroke-miterlimit="10" stroke-linecap="round" stroke-linejoin="round"/>
<path d="M127.105 147.671C127.105 147.671 125.638 149.285 126.078 150.606C126.518 151.927 127.398 152.66 128.719 152.807C130.04 152.954 133.414 152.513 134.295 151.927C135.175 151.34 135.175 148.405 135.175 148.405" stroke="#263238" stroke-miterlimit="10" stroke-linecap="round" stroke-linejoin="round"/>
<path d="M131.946 156.034C131.946 156.034 124.904 155.595 126.224 157.209C127.545 158.822 131.359 159.703 133.56 158.236C135.761 156.768 133.267 156.034 131.946 156.034Z" fill="#C9C9C9"/>
<path d="M126.225 139.307C126.225 140.563 125.6 141.582 124.831 141.582C124.061 141.582 123.437 140.564 123.437 139.307C123.437 138.052 124.061 137.033 124.831 137.033C125.6 137.034 126.225 138.052 126.225 139.307Z" fill="#263238"/>
<path d="M138.11 142.17C138.879 142.17 139.503 141.151 139.503 139.895C139.503 138.639 138.879 137.62 138.11 137.62C137.34 137.62 136.716 138.639 136.716 139.895C136.716 141.151 137.34 142.17 138.11 142.17Z" fill="#263238"/>
<path d="M111.992 134.906C111.992 134.906 109.645 134.025 108.91 137.547C108.177 141.068 111.992 147.818 111.992 147.818V134.906Z" fill="#C9C9C9" stroke="#263238" stroke-miterlimit="10" stroke-linecap="round" stroke-linejoin="round"/>
<path d="M150.875 135.639C150.875 135.639 153.956 133.438 155.129 137.841C156.303 142.242 150.728 148.698 150.728 148.698L150.875 135.639Z" fill="#C9C9C9" stroke="#263238" stroke-miterlimit="10" stroke-linecap="round" stroke-linejoin="round"/>
<path d="M127.691 141.656C127.691 141.656 122.703 144.297 121.823 144.443" stroke="#263238" stroke-miterlimit="10" stroke-linecap="round" stroke-linejoin="round"/>
<path d="M135.469 141.801C135.469 141.801 138.256 144.589 140.164 144.883" stroke="#263238" stroke-miterlimit="10" stroke-linecap="round" stroke-linejoin="round"/>
<path d="M133.12 174.228C133.12 174.228 123.73 173.054 122.263 173.642C120.796 174.228 118.595 178.044 119.034 179.218C119.474 180.392 120.795 181.272 120.795 181.272C120.795 181.272 121.969 184.354 122.409 186.26C122.848 188.168 123.583 189.781 124.316 190.222C125.05 190.662 125.49 192.277 126.957 192.569C128.424 192.863 130.331 191.983 130.331 191.983C130.331 191.983 133.119 194.771 134.88 196.091C136.641 197.41 140.895 198.732 140.895 198.732C140.895 198.732 156.595 246.418 159.823 251.7C163.05 256.982 176.109 266.666 178.75 266.079C181.391 265.492 184.473 258.009 185.059 255.074C185.646 252.139 185.059 244.51 183.005 240.988C180.95 237.467 167.158 220.3 163.49 215.751C159.821 211.203 148.964 197.117 148.67 196.383C148.376 195.65 138.987 180.977 137.226 178.042C135.469 175.109 133.12 174.228 133.12 174.228Z" fill="#C9C9C9" stroke="#263238" stroke-miterlimit="10" stroke-linecap="round" stroke-linejoin="round"/>
<path d="M120.796 181.271C120.796 181.271 122.117 179.363 122.851 179.07C123.584 178.776 130.187 177.603 130.187 177.603" stroke="#263238" stroke-miterlimit="10" stroke-linecap="round" stroke-linejoin="round"/>
<path d="M122.263 184.353L124.464 182.885L131.507 181.418" stroke="#263238" stroke-miterlimit="10" stroke-linecap="round" stroke-linejoin="round"/>
<path d="M123.437 188.754C123.437 188.754 124.17 186.994 125.051 186.553C125.931 186.113 131.654 185.233 131.654 185.233" stroke="#263238" stroke-miterlimit="10" stroke-linecap="round" stroke-linejoin="round"/>
<path d="M130.332 191.982L126.958 190.515" stroke="#263238" stroke-miterlimit="10" stroke-linecap="round" stroke-linejoin="round"/>
</svg>
