<svg width="460" height="500" viewBox="0 0 460 500" fill="none" xmlns="http://www.w3.org/2000/svg">
<path d="M317.711 107.549C294.056 120.187 277.379 141.438 257.151 158.493C232.177 179.552 201.227 194.374 168.34 201.027C141.286 206.5 112.925 206.577 86.806 215.142C35.8946 231.837 0.947352 281.387 0.0204049 331.768C-0.90653 382.147 29.8322 430.953 74.9411 458.603C90.259 467.993 107.128 475.172 124.766 479.807C157.946 488.528 193.124 488.142 227.408 484.809C286.627 479.051 348.703 447.65 386.024 403.377C402.671 383.627 416.723 361.987 427.919 339.137C446.304 301.613 457.008 260.767 458.839 219.52C460.411 184.078 458.807 144.805 428.735 118.985C398.73 93.2223 353.007 88.6908 317.711 107.549Z" fill="#92E3A9"/>
<path opacity="0.7" d="M317.711 107.549C294.056 120.187 277.379 141.438 257.151 158.493C232.177 179.552 201.227 194.374 168.34 201.027C141.286 206.5 112.925 206.577 86.806 215.142C35.8946 231.837 0.947352 281.387 0.0204049 331.768C-0.90653 382.147 29.8322 430.953 74.9411 458.603C90.259 467.993 107.128 475.172 124.766 479.807C157.946 488.528 193.124 488.142 227.408 484.809C286.627 479.051 348.703 447.65 386.024 403.377C402.671 383.627 416.723 361.987 427.919 339.137C446.304 301.613 457.008 260.767 458.839 219.52C460.411 184.078 458.807 144.805 428.735 118.985C398.73 93.2223 353.007 88.6908 317.711 107.549Z" fill="#263238"/>
<path d="M31.4926 235.35C8.63498 220.066 8.72193 144.397 35.2062 132.68C35.235 132.68 35.235 132.652 35.2637 132.652C35.2925 132.623 35.3213 132.623 35.3789 132.594C40.791 128.853 49.0532 126.233 60.597 124.593C48.967 142.035 49.1969 141.086 49.3413 141.805C49.4853 142.495 49.5141 142.122 57.2578 147.245L49.7157 149.921C49.2551 150.094 48.996 150.584 49.14 151.072C49.2264 151.389 58.4669 181.466 62.7568 205.241L50.9536 206.161C50.9824 201.01 51.0113 177.264 48.5931 158.009C48.5355 157.491 48.0461 157.146 47.5568 157.203C47.0386 157.26 46.6931 157.721 46.7507 158.239C49.4568 179.74 49.1112 206.882 49.1112 207.169C49.1112 207.686 49.5143 208.118 50.09 208.09C60.0795 207.313 106.975 203.686 122.98 202.448C123.009 202.679 125.715 228.928 125.542 227.287C105.851 232.785 48.4205 246.689 31.4926 235.35Z" fill="#7DC291"/>
<path d="M109.998 469.35C104.125 468.515 101.621 467.047 101.707 465.982C101.736 465.809 102.628 473.294 80.9802 296.138C80.9226 295.677 80.5195 295.331 80.059 295.331C79.9439 295.331 74.3591 295.475 74.4742 295.475C74.0137 295.475 73.6105 295.85 73.5818 296.311L57.6333 465.462C57.6045 466.47 55.7045 467.852 50.4939 468.744C38.4321 470.816 20.7856 468.542 20.9006 465.059C21.0445 461.548 19.9218 488.056 28.0974 295.443L58.3534 292.651C68.6591 291.701 76.403 282.866 75.9424 272.533L75.7696 268.014C79.9727 267.927 84.3199 267.668 88.7239 267.208L90.3361 289.744L116.447 285.973L137.001 466.207C136.426 469.258 121.427 470.962 109.998 469.35Z" fill="#263238"/>
<path d="M62.6402 99.1579C62.5826 99.1579 56.1917 98.87 53.1982 95.2723C51.9316 93.7468 51.4711 91.8184 51.7877 89.5446C52.1907 86.6377 53.3421 84.3063 56.2785 84.3063C58.5815 84.3063 60.9709 85.7453 60.9996 85.7741C61.2012 85.8893 61.4026 85.9181 61.633 85.8893L62.1512 89.5446L65.9799 88.9977L66.239 69.1382C66.239 69.1382 71.7949 63.4393 70.8449 57.0211C70.8449 57.0211 92.1475 61.7127 104.699 60.0146C111.58 78.1182 109.996 111.419 99.1723 116.514C92.2921 119.823 86.6498 118.644 86.7935 118.644C86.6784 118.616 86.5344 118.587 86.4193 118.615C77.7541 117.291 71.1332 110.498 67.2465 105.404C67.189 105.26 67.1025 105.145 66.9874 105.058C64.8572 102.18 63.6193 99.9352 63.4466 99.6186C63.2738 99.3596 62.9857 99.1866 62.6402 99.1579Z" fill="white"/>
<path d="M118.174 277.084L93.9057 281.545L93.0421 257.281L92.5239 236.905C100.843 235.321 108.501 233.566 114.518 232.069L118.174 277.084Z" fill="#92E3A9"/>
<path d="M145.666 216.526C145.55 213.763 144.946 210.626 142.815 208.87C147.451 207.143 157.18 202.912 156.375 197.961C155.424 192.175 143.046 199.17 138.036 202.221C139.792 194.22 136.252 190.679 134.207 191.37C132.653 191.887 131.962 194.392 131.099 197.558C130.408 200.062 130.062 201.673 128.709 203.343L128.536 201.875C128.479 201.329 127.932 200.954 127.413 201.098L125.745 201.472C121.916 194.91 119.497 187.57 118.72 180.029C118.461 177.611 118.519 157.781 114.719 153.262C114.69 152.974 114.69 152.687 114.661 152.399C114.632 151.88 114.172 151.535 113.682 151.564C111.379 151.736 114.92 153.723 113.135 201.356L92.8975 202.911L100.613 148.743C100.699 148.224 100.296 147.736 99.778 147.707L94.1068 147.217L99.0583 142.613C99.375 142.325 99.4325 141.892 99.2599 141.519L90.5659 124.565C104.643 128.135 104.701 129.804 105.967 130.207C122.635 137.316 143.621 173.092 143.823 173.467C143.967 173.726 144.225 173.869 144.484 173.927C145.32 174.042 143.246 175.452 179.317 140.683L193.941 161.781C190.747 167.077 163.572 211.086 145.666 216.526Z" fill="#92E3A9"/>
<path d="M27.2314 234.201C28.2677 235.208 29.333 236.13 30.4844 236.907C38.804 242.491 55.5006 241.741 65.5188 240.878C65.6627 245.368 65.4037 237.597 66.1234 259.098L65.9506 283.592L24.4104 286.412L27.2314 234.201Z" fill="#92E3A9"/>
<path fill-rule="evenodd" clip-rule="evenodd" d="M145.645 219.255C145.645 219.26 145.645 219.264 145.645 219.268C145.637 219.389 145.63 219.511 145.622 219.634C145.63 219.506 145.638 219.38 145.645 219.255ZM90.6726 237.271C90.6724 237.26 90.6723 237.256 90.6723 237.256C90.6725 237.261 90.6758 237.381 90.6843 237.703C90.6793 237.525 90.674 237.326 90.6726 237.271Z" fill="#263238"/>
<path d="M143.737 219.721C143.593 221.62 142.902 222.973 141.635 223.807C138.612 225.852 133.172 224.585 131.185 224.009L128.997 205.704C131.444 203.574 132.078 200.955 132.854 198.019C133.344 196.263 134.122 193.327 134.726 193.097C134.726 193.097 134.784 193.097 134.956 193.24C137.979 195.63 136.108 202.883 135.647 203.804C135.043 204.639 136.108 205.704 136.942 205.099C139.735 203.084 154.013 195.026 154.532 198.278C155.079 201.732 145.924 206.021 140.023 207.92C139.015 208.237 139.245 209.704 140.31 209.704C140.31 209.704 141.174 209.733 142.037 210.683C143.045 211.747 144.168 214.223 143.737 219.721Z" fill="white"/>
<path d="M195.785 154.53L185.623 139.131C187.552 137.001 188.761 134.382 189.135 131.533C190.027 125 187.235 121.43 191.064 118.61C191.784 118.955 192.935 122.783 193.424 126.64C193.539 127.503 194.662 127.734 195.123 127.014C200.794 117.976 208.278 108.334 210.524 108.45C210.581 108.45 210.668 108.45 210.754 108.709C212.338 112.249 204.248 123.186 198.778 129.259C198.375 129.692 198.49 130.411 199.038 130.699C199.153 130.757 210.725 136.772 211.156 142.959C211.3 145.004 210.178 146.846 207.731 148.572C204.104 151.134 200.074 153.119 195.785 154.53Z" fill="white"/>
<path d="M59.7899 146.762L51.499 141.409L61.6322 126.356C63.9353 195.03 64.1944 203.088 64.1944 203.265C60.1929 181.938 52.5932 156.379 51.0964 151.457L59.5596 148.436C60.3081 148.147 60.452 147.166 59.7899 146.762Z" fill="#7DC291"/>
<path d="M91.8882 148.921L98.6533 149.496L91.5715 199.003C91.0245 177.589 90.3048 148.547 89.7579 127.105L97.2712 141.784L91.3122 147.339C90.7364 147.856 91.0821 148.835 91.8882 148.921Z" fill="#7DC291"/>
<path d="M77.8112 143.425C76.1128 145.641 74.5582 148.605 72.8886 152.721C71.1613 151.771 67.1311 149.324 64.1372 145.353C64.0508 143.165 64.3963 153.239 63.4174 124.054L67.3038 122.442C66.325 129.667 69.9233 136.89 77.8112 143.425Z" fill="#B9E8C7"/>
<path d="M87.7426 123.767C87.7714 123.767 87.8002 123.767 87.829 123.796C88.7502 160.091 88.5199 151.168 88.5774 152.608C87.7426 153.615 87.1093 154.161 86.6774 154.421C85.3245 150.536 83.3957 146.218 80.4594 143.339C86.6774 137.699 87.2245 132.258 87.7426 123.767Z" fill="#B9E8C7"/>
<path fill-rule="evenodd" clip-rule="evenodd" d="M200.936 129.608C204.19 125.895 214.783 113.145 212.452 107.935C209.688 101.776 198.576 118.296 194.891 123.967C194.373 121.147 193.394 117.577 191.811 116.916C191.235 116.656 190.63 116.743 190.083 117.146C185.103 120.657 188.184 125.003 187.319 131.307C187.003 133.638 186.053 135.767 184.557 137.553C184.009 136.861 183.865 136.142 183.146 136.113C182.368 136.056 182.253 136.776 180.411 139.049C180.296 138.934 180.123 138.445 179.576 138.387C178.77 138.301 180.842 136.862 144.859 171.573C141.231 165.529 122.52 135.308 106.715 128.544C101.735 125.263 94.2211 123.68 89.3845 122.356C89.0391 122.04 88.1179 121.924 87.6285 121.867C87.4557 121.377 87.3693 120.946 87.3693 120.543C93.2133 121.175 99.4312 119.074 102.08 116.8C109.766 110.353 111.925 91.1272 110.111 75.4696C110.082 75.1819 110.025 74.8941 109.996 74.635C113.019 70.404 112.414 62.4318 111.579 57.7684C112.27 57.2503 112.788 56.6747 113.105 55.9551C126.261 27.1734 82.2736 31.7786 77.8695 32.1234C73.465 32.4688 63.4472 28.1227 54.9545 46.7736C54.9545 46.7736 42.3171 44.0969 42.6045 68.101C42.9499 95.9042 53.5727 102.697 60.7404 100.797C61.2874 100.884 61.7479 100.941 62.0646 100.97C62.554 101.805 63.7343 103.762 65.4903 106.093C66.0373 112.425 67.0736 118.326 67.4766 120.369L62.2373 122.556C49.4555 124.197 40.3297 126.96 34.4001 131.076L34.3713 131.104C8.34773 142.79 6.9652 210.114 25.4762 232.329C22.4247 290.699 22.2232 287.504 22.7701 288.051C23.2883 288.541 23.7777 288.195 26.3399 288.108L26.2534 295.477L19.0566 465.005C18.999 467.221 21.446 468.89 26.2822 470.012L25.9368 471.625C18.6536 477.439 18.8263 490.793 19.2581 496.32C19.402 498.363 21.1293 499.975 23.202 499.975H83.8288C85.9016 499.975 87.6288 498.334 87.7728 496.233C88.5766 484.351 77.7583 483.058 69.8191 482.109L69.7518 482.101C63.4762 481.353 61.6047 481.123 58.1218 476.776C56.6825 474.964 55.0127 472.92 51.6735 471.711L51.6159 470.387C56.7401 469.408 59.4173 467.768 59.4749 465.581L75.3652 297.261L79.2514 297.174L99.8635 465.921C99.7196 468.31 102.714 470.037 108.759 471.015L108.615 471.649C101.331 477.463 101.504 490.818 101.936 496.344C102.08 498.388 103.807 500 105.88 500H166.506C168.58 500 170.307 498.359 170.45 496.258C171.255 484.376 160.436 483.083 152.497 482.134L152.43 482.126C146.154 481.378 144.283 481.147 140.8 476.801C139.36 474.988 137.69 472.945 134.351 471.736L134.294 470.095C137.202 469.145 138.727 467.907 138.87 466.296C138.899 466.123 139.735 473.808 117.54 279.099L119.353 278.754C119.814 278.667 120.131 278.235 120.102 277.775L116.331 231.637C120.619 230.573 123.239 229.853 126.665 228.903C127.154 228.817 127.5 228.385 127.442 227.895L127.385 227.291C130.752 227.349 130.868 227.435 131.242 227.032C131.617 226.63 131.444 226.169 131.444 226.025C138.267 227.78 145.06 226.917 145.607 219.894L145.622 219.634L145.645 219.268L145.645 219.255C145.66 219.011 145.675 218.77 145.69 218.53L145.693 218.484C165.356 213.217 194.603 164.403 195.842 162.301C196.015 161.985 196.015 161.611 195.813 161.294L195.237 160.488L197.397 158.272C197.712 157.955 197.741 157.495 197.512 157.12L196.878 156.142C201.168 154.674 205.198 152.659 208.854 150.069C218.008 143.564 210.695 135.163 200.936 129.608ZM98.6533 149.496L91.8882 148.921C91.0821 148.835 90.7364 147.856 91.3122 147.339L97.2712 141.784L89.7579 127.105C90.3048 148.547 91.0245 177.589 91.5715 199.003L98.6533 149.496ZM51.499 141.409L59.7899 146.762C60.452 147.166 60.3081 148.147 59.5596 148.436L51.0964 151.457C52.5932 156.379 60.1929 181.938 64.1944 203.265C64.1944 203.088 63.9353 195.03 61.6322 126.356L51.499 141.409ZM64.2232 148.345L66.1232 205.016L71.7368 204.614L71.7655 176.177L77.3503 157.124C76.1988 156.318 75.1625 155.282 74.2988 154.13C74.2701 154.188 74.2413 154.275 74.2125 154.332C74.0109 154.85 73.4352 155.051 72.9746 154.85C72.7734 154.763 68.1671 152.662 64.2232 148.345ZM87.829 123.796C87.8002 123.767 87.7714 123.767 87.7426 123.767C87.2245 132.258 86.6774 137.699 80.4594 143.339C83.3957 146.218 85.3245 150.536 86.6774 154.421C87.1093 154.161 87.7426 153.615 88.5774 152.608C88.5199 151.168 88.7502 160.091 87.829 123.796ZM85.3245 173.188L87.6851 203.352L89.8441 203.208L88.6351 155.227C87.282 156.436 86.3896 156.552 86.1018 156.552C85.7275 156.552 85.3533 156.292 85.2381 155.919C84.9215 154.883 84.576 153.99 84.2306 153.126C82.7337 155.199 81.0351 157.098 81.0351 157.098L85.3245 173.188ZM53.1982 95.2723C56.1917 98.87 62.5826 99.1579 62.6402 99.1579C62.9857 99.1866 63.2738 99.3596 63.4466 99.6186C63.6193 99.9352 64.8572 102.18 66.9874 105.058C67.1025 105.145 67.189 105.26 67.2465 105.404C71.1332 110.498 77.7541 117.291 86.4193 118.615C86.5344 118.587 86.6784 118.616 86.7935 118.644C86.6498 118.644 92.2921 119.823 99.1723 116.514C109.996 111.419 111.58 78.1182 104.699 60.0146C92.1475 61.7127 70.8449 57.0211 70.8449 57.0211C71.7949 63.4393 66.239 69.1382 66.239 69.1382L65.9799 88.9977L62.1512 89.5446L61.633 85.8893C61.4026 85.9181 61.2012 85.8893 60.9996 85.7741C60.9709 85.7453 58.5815 84.3063 56.2785 84.3063C53.3421 84.3063 52.1907 86.6377 51.7877 89.5446C51.4711 91.8184 51.9316 93.7468 53.1982 95.2723ZM85.9583 122.817C85.6129 121.867 85.4402 121.032 85.469 120.284C77.84 118.816 71.7086 113.463 67.6208 108.684C68.5707 117.405 69.5783 120.571 69.4344 121.119C69.5493 121.637 65.6346 130.991 79.0781 142.072C85.0371 136.718 85.4114 131.682 85.9583 122.817ZM72.8886 152.721C74.5582 148.605 76.1128 145.641 77.8112 143.425C69.9233 136.89 66.325 129.667 67.3038 122.442L63.4174 124.054C64.3963 153.239 64.0508 143.165 64.1372 145.353C67.1311 149.324 71.1613 151.771 72.8886 152.721ZM30.4844 236.907C29.333 236.13 28.2677 235.208 27.2314 234.201L24.4104 286.412L65.9506 283.592L66.1234 259.098C65.4037 237.597 65.6627 245.368 65.5188 240.878C55.5006 241.741 38.804 242.491 30.4844 236.907ZM72.8308 240.073L80.9779 248.102L90.3337 237.511L90.3049 237.309C90.42 237.28 90.5352 237.251 90.6791 237.251C90.7027 238.313 90.6941 238.052 90.6843 237.705C90.7181 238.982 90.8342 243.426 91.1685 256.45C71.6222 257.773 68.7715 257.975 67.9373 258.032H67.8798L67.304 240.677C69.1464 240.504 70.9884 240.303 72.8308 240.073ZM85.9583 495.052C85.9296 483.482 72.0254 484.893 64.3964 483.194C56.2209 481.381 53.7454 474.272 50.4636 473.207C42.3165 470.184 42.4316 485.352 32.1834 484.489C29.7076 484.288 27.8364 483.424 26.6273 481.927C25.044 479.999 24.8426 477.409 25.1592 474.963C20.841 480.46 20.6971 489.929 20.985 495.023L85.9583 495.052ZM168.667 495.052C168.638 483.482 154.734 484.893 147.105 483.194C138.93 481.381 136.455 474.272 133.23 473.294C133.201 473.265 133.172 473.265 133.172 473.265C125.141 470.213 125.141 485.41 114.921 484.547C110.862 484.201 109.624 482.158 109.365 481.956C107.782 479.999 107.609 477.466 107.897 474.991C103.579 480.489 103.435 489.958 103.723 495.052H168.667ZM101.707 465.982C101.621 467.047 104.125 468.515 109.998 469.35C121.427 470.962 136.426 469.258 137.001 466.207L116.447 285.973L90.3361 289.744L88.7239 267.208C84.3199 267.668 79.9727 267.927 75.7696 268.014L75.9424 272.533C76.403 282.866 68.6591 291.701 58.3534 292.651L28.0974 295.443C19.9218 488.056 21.0445 461.548 20.9006 465.059C20.7856 468.542 38.4321 470.816 50.4939 468.744C55.7045 467.852 57.6045 466.47 57.6333 465.462L73.5818 296.311C73.6105 295.85 74.0137 295.475 74.4742 295.475C74.3591 295.475 79.9439 295.331 80.059 295.331C80.5195 295.331 80.9226 295.677 80.9802 296.138C102.628 473.294 101.736 465.809 101.707 465.982ZM93.9057 281.545L118.174 277.084L114.518 232.069C108.501 233.566 100.843 235.321 92.5239 236.905L93.0421 257.281L93.9057 281.545ZM35.2062 132.68C8.72193 144.397 8.63498 220.066 31.4926 235.35C48.4205 246.689 105.851 232.785 125.542 227.287C125.715 228.928 123.009 202.679 122.98 202.448C106.975 203.686 60.0795 207.313 50.09 208.09C49.5143 208.118 49.1112 207.686 49.1112 207.169C49.1112 206.882 49.4568 179.74 46.7507 158.239C46.6931 157.721 47.0386 157.26 47.5568 157.203C48.0461 157.146 48.5355 157.491 48.5931 158.009C51.0113 177.264 50.9824 201.01 50.9536 206.161L62.7568 205.241C58.4669 181.466 49.2264 151.389 49.14 151.072C48.996 150.584 49.2551 150.094 49.7157 149.921L57.2578 147.245C49.5141 142.122 49.4853 142.495 49.3413 141.805C49.1969 141.086 48.967 142.035 60.597 124.593C49.0532 126.233 40.791 128.853 35.3789 132.594C35.3213 132.623 35.2925 132.623 35.2637 132.652C35.235 132.652 35.235 132.68 35.2062 132.68ZM118.174 200.955C117.195 199.804 116.159 198.566 115.093 197.213C115.065 198.653 115.007 199.976 114.949 201.213C119.354 200.869 117.857 200.984 118.174 200.955ZM141.635 223.807C142.902 222.973 143.593 221.62 143.737 219.721C144.168 214.223 143.045 211.747 142.037 210.683C141.174 209.733 140.31 209.704 140.31 209.704C139.245 209.704 139.015 208.237 140.023 207.92C145.924 206.021 155.079 201.732 154.532 198.278C154.013 195.026 139.735 203.084 136.942 205.099C136.108 205.704 135.043 204.639 135.647 203.804C136.108 202.883 137.979 195.63 134.956 193.24C134.784 193.097 134.726 193.097 134.726 193.097C134.122 193.327 133.344 196.263 132.854 198.019C132.078 200.955 131.444 203.574 128.997 205.704L131.185 224.009C133.172 224.585 138.612 225.852 141.635 223.807ZM142.815 208.87C144.946 210.626 145.55 213.763 145.666 216.526C163.572 211.086 190.747 167.077 193.941 161.781L179.317 140.683C143.246 175.452 145.32 174.042 144.484 173.927C144.225 173.869 143.967 173.726 143.823 173.467C143.621 173.092 122.635 137.316 105.967 130.207C104.701 129.804 104.643 128.135 90.5659 124.565L99.2599 141.519C99.4325 141.892 99.375 142.325 99.0583 142.613L94.1068 147.217L99.778 147.707C100.296 147.736 100.699 148.224 100.613 148.743L92.8975 202.911L113.135 201.356C114.92 153.723 111.379 151.736 113.682 151.564C114.172 151.535 114.632 151.88 114.661 152.399C114.69 152.687 114.69 152.974 114.719 153.262C118.519 157.781 118.461 177.611 118.72 180.029C119.497 187.57 121.916 194.91 125.745 201.472L127.413 201.098C127.932 200.954 128.479 201.329 128.536 201.875L128.709 203.343C130.062 201.673 130.408 200.062 131.099 197.558C131.962 194.392 132.653 191.887 134.207 191.37C136.252 190.679 139.792 194.22 138.036 202.221C143.046 199.17 155.424 192.175 156.375 197.961C157.18 202.912 147.451 207.143 142.815 208.87ZM185.623 139.131L195.785 154.53C200.074 153.119 204.104 151.134 207.731 148.572C210.178 146.846 211.3 145.004 211.156 142.959C210.725 136.772 199.153 130.757 199.038 130.699C198.49 130.411 198.375 129.692 198.778 129.259C204.248 123.186 212.338 112.249 210.754 108.709C210.668 108.45 210.581 108.45 210.524 108.45C208.278 108.334 200.794 117.976 195.123 127.014C194.662 127.734 193.539 127.503 193.424 126.64C192.935 122.783 191.784 118.955 191.064 118.61C187.235 121.43 190.027 125 189.135 131.533C188.761 134.382 187.552 137.001 185.623 139.131Z" fill="#263238"/>
<path d="M85.469 120.284C85.4402 121.032 85.6129 121.867 85.9583 122.817C85.4114 131.682 85.0371 136.718 79.0781 142.072C65.6346 130.991 69.5493 121.637 69.4344 121.119C69.5783 120.571 68.5707 117.405 67.6208 108.684C71.7086 113.463 77.84 118.816 85.469 120.284Z" fill="white"/>
<path d="M147.105 483.194C154.734 484.893 168.638 483.482 168.667 495.052H103.723C103.435 489.958 103.579 480.489 107.897 474.991C107.609 477.466 107.782 479.999 109.365 481.956C109.624 482.158 110.862 484.201 114.921 484.547C125.141 485.41 125.141 470.213 133.172 473.265C133.172 473.265 133.201 473.265 133.23 473.294C136.455 474.272 138.93 481.381 147.105 483.194Z" fill="white"/>
<path d="M80.9779 248.102L72.8308 240.073C70.9884 240.303 69.1464 240.504 67.304 240.677L67.8798 258.032H67.9373C68.7715 257.975 71.6222 257.773 91.1685 256.45C90.8342 243.426 90.7181 238.982 90.6843 237.705L90.6843 237.703C90.6793 237.525 90.674 237.326 90.6726 237.271L90.6723 237.256C90.6723 237.256 90.6724 237.26 90.6726 237.271C90.6738 237.313 90.6774 237.442 90.6843 237.705C90.6754 237.368 90.6722 237.251 90.6723 237.256L90.6726 237.271C90.674 237.326 90.6793 237.525 90.6843 237.703C90.6774 237.442 90.6738 237.312 90.6726 237.271C90.6724 237.26 90.6723 237.256 90.6723 237.256C90.6722 237.251 90.6754 237.368 90.6843 237.705C90.6941 238.052 90.7027 238.313 90.6791 237.251C90.5352 237.251 90.42 237.28 90.3049 237.309L90.3337 237.511L80.9779 248.102Z" fill="#B9E8C7"/>
<path d="M87.6851 203.352L85.3245 173.188L81.0351 157.098C81.0351 157.098 82.7337 155.199 84.2306 153.126C84.576 153.99 84.9215 154.883 85.2381 155.919C85.3533 156.292 85.7275 156.552 86.1018 156.552C86.3896 156.552 87.282 156.436 88.6351 155.227L89.8441 203.208L87.6851 203.352Z" fill="#B9E8C7"/>
<path d="M66.1232 205.016L64.2232 148.345C68.1671 152.662 72.7734 154.763 72.9746 154.85C73.4352 155.051 74.0109 154.85 74.2125 154.332C74.2413 154.275 74.2701 154.188 74.2988 154.13C75.1625 155.282 76.1988 156.318 77.3503 157.124L71.7655 176.177L71.7368 204.614L66.1232 205.016Z" fill="#B9E8C7"/>
<path d="M64.3964 483.194C72.0254 484.893 85.9296 483.482 85.9583 495.052L20.985 495.023C20.6971 489.929 20.841 480.46 25.1592 474.963C24.8426 477.409 25.044 479.999 26.6273 481.927C27.8364 483.424 29.7076 484.288 32.1834 484.489C42.4316 485.352 42.3165 470.184 50.4636 473.207C53.7454 474.272 56.2209 481.381 64.3964 483.194Z" fill="white"/>
<path d="M82.9634 84.5074C84.4316 84.5074 85.5542 82.7229 85.5542 80.5643C85.5254 78.3768 84.3452 76.6499 82.8771 76.6499C81.4377 76.6787 80.2861 78.4344 80.2861 80.6218C80.3438 82.7805 81.5528 84.5362 82.9634 84.5074Z" fill="#263238"/>
<path d="M101.822 73.5066C100.383 73.5354 99.2311 75.2912 99.2598 77.4785C99.2886 79.6372 100.498 81.3929 101.937 81.3641C103.405 81.3641 104.528 79.5796 104.528 77.4209C104.47 75.2623 103.29 73.5066 101.822 73.5066Z" fill="#263238"/>
<path d="M86.766 74.2877C84.8661 71.2369 79.4252 71.4958 77.8997 75.2663C80.6632 74.4028 81.3254 73.5682 86.766 74.2877Z" fill="#263238"/>
<path d="M101.188 70.9205C102.57 70.7477 103.981 70.9205 105.708 71.1507C103.837 68.1862 98.3674 68.3013 96.813 72.1293C98.2236 71.6975 99.087 71.1795 101.188 70.9205Z" fill="#263238"/>
<path d="M97.2974 88.0441C97.2974 85.799 94.9656 79.4379 93.3823 76.6462C93.4974 79.697 94.3035 83.1509 95.0807 86.0001C95.5414 87.4968 95.8581 88.8783 95.0807 89.5115C93.9868 90.4325 92.3171 89.7993 91.0217 89.4827C91.5975 90.0296 92.2596 90.5476 93.0656 90.8642C95.2535 91.6414 97.2974 90.3754 97.2974 88.0441Z" fill="#263238"/>
<path d="M81.9832 99.1554C81.4362 99.1554 81.0332 99.6159 81.062 100.163C81.062 100.307 81.3787 103.789 83.7105 106.552C86.9923 110.41 93.4118 111.1 96.6936 107.761C99.6299 104.883 99.6011 100.105 99.6011 99.8751C99.6011 99.616 99.4859 99.3858 99.3132 99.2131C98.8238 98.7238 99.5151 99.0403 81.9832 99.1554ZM95.4269 106.437C94.3329 105.459 92.5193 104.538 89.6118 104.653C87.6543 104.739 86.2725 105.085 85.2936 105.487C84.1422 104.221 83.4224 102.609 83.077 100.997L97.73 100.825C97.5861 102.178 97.0965 104.768 95.4269 106.437Z" fill="#263238"/>
<path d="M270.832 268.985C252.379 264.35 238.101 249.845 233.121 232.116C235.683 232.172 238.101 231.453 239.915 230.388C241.008 229.755 241.297 228.863 241.354 228.229C241.468 226.618 240.115 224.775 238.791 223.366C239.655 223.193 240.605 222.732 241.584 221.811C243.887 219.595 241.066 215.911 238.762 213.636C242.419 211.938 242.937 209.405 241.526 207.16C239.886 204.599 236.344 203.333 233.265 203.16C239.857 180.423 260.612 165.168 283.873 165.168C313.869 165.168 338.453 190.438 336.468 221.293C324.463 220.688 314.848 224.977 317.525 236.721C318.763 242.19 322.305 245.585 328.005 246.622C315.28 266.223 292.106 274.424 270.832 268.985Z" fill="#92E3A9"/>
<path d="M425.245 471.124C419.343 471.872 409.614 471.872 403.568 471.153C403.021 471.067 399.739 470.692 398.818 470.031C398.213 466.376 377.831 315.585 377.631 314.06C377.573 313.571 377.112 313.226 376.623 313.255L370.174 313.945C369.743 314.003 369.397 314.349 369.34 314.78C368.764 320.91 355.636 461.827 355.09 469.888C351.692 471.471 327.972 471.73 324.143 470.089C324.316 464.765 328.001 394.16 334.133 279.555C336.983 279.929 345.849 280.994 357.077 281.886C357.365 282.692 358.113 283.268 359.005 283.268C382.582 283.239 381.315 283.355 381.863 283.182C392.168 283.383 404.605 283.153 414.825 281.425L429.68 470.008C429.42 470.267 428.441 470.721 425.245 471.124Z" fill="#263238"/>
<path fill-rule="evenodd" clip-rule="evenodd" d="M420.523 250.386L420.519 250.391Z" fill="#0A2D47"/>
<path d="M441.855 238.648C432.441 256.896 369.051 247.225 349.072 243.281L349.101 242.879C349.216 242.62 350.655 220.399 350.655 220.256C350.655 220.026 350.569 219.795 350.396 219.622C350.367 219.594 350.367 219.565 350.338 219.537L350.454 217.464C443.237 211.449 397.061 214.442 410.446 213.579C411.051 213.55 411.454 212.917 411.253 212.341C411.195 212.168 404.862 194.813 402.212 181.947C402.098 181.458 401.609 181.141 401.119 181.227C400.63 181.343 400.313 181.832 400.4 182.321C400.802 184.221 401.263 186.236 401.781 188.28C402.645 197.893 402.818 203.16 395.966 208.83C393.807 210.614 385.487 212.514 377.369 213.895C372.591 214.212 352.382 215.537 349.504 215.708C349.043 215.737 348.668 216.112 348.64 216.573L348.553 218.184C346.222 216.457 341.99 213.406 337.988 211.247C336.952 202.814 333.987 194.756 329.208 187.618C331.396 158.548 339.572 153.741 339.86 153.022C343.516 149.51 349.906 146.661 358.284 144.762C357.708 151.065 360.155 158.145 364.847 163.498C365.279 163.988 366.085 163.902 366.373 163.297C369.079 157.742 371.929 154.662 375.355 153.512C378.637 154.288 380.019 158.375 382.091 164.507C382.494 165.427 382.408 166.175 383.128 166.406C383.415 166.492 383.732 166.435 383.963 166.233C390.987 160.736 394.988 151.007 396.513 143.409C405.006 144.762 411.57 147.207 415.542 150.517C427.864 159.728 453.514 216.139 441.855 238.648Z" fill="#92E3A9"/>
<path d="M415.568 265.963C415.193 265.991 400.454 266.624 383.412 266.567C383.326 265.444 382.433 264.581 381.339 264.581H359.001C358.165 264.581 357.446 265.098 357.129 265.847C345.903 265.156 337.927 263.948 333.466 262.278C332.947 258.824 332.199 253.499 331.479 246.995C336.604 247.11 342.419 245.729 347.226 243.915V243.973C347.198 244.405 347.514 244.807 347.946 244.922L348.234 244.98C348.579 245.066 379.094 251.227 405.549 251.227C410.098 251.227 414.473 251.025 418.619 250.622C417.525 256.407 416.575 261.213 415.568 265.963Z" fill="#92E3A9"/>
<path d="M338.534 223.307C339.368 223.22 339.656 222.213 338.993 221.696C338.965 221.667 338.936 221.638 338.878 221.609C338.505 221.408 338.476 221.379 338.303 221.263C338.447 218.701 338.476 216.371 338.245 213.463C342.764 216.083 347.486 219.651 348.81 220.66L347.4 241.843C344.722 242.908 332.228 247.456 324.715 243.627C321.923 242.216 320.11 239.742 319.332 236.317C318.44 232.489 318.986 229.437 320.944 227.279C325.895 221.839 338.073 223.336 338.534 223.307Z" fill="white"/>
<path d="M229.09 205.866C230.04 204.945 232.458 204.916 233.84 205.06C238.13 205.549 241.008 208.169 240.317 209.981C239.799 211.306 237.611 212.198 236.805 212.428C236.085 212.63 235.912 213.551 236.46 214.011C237.928 215.248 241.67 219.164 240.288 220.487C238.647 222.099 237.122 221.609 236.517 221.322C235.539 220.861 234.703 222.185 235.539 222.876C237.582 224.546 239.598 226.876 239.511 228.085C239.483 228.287 239.425 228.546 238.993 228.777C235.596 230.791 230.559 230.907 227.507 228.2C223.994 225.092 223.477 211.362 229.09 205.866Z" fill="white"/>
<path d="M358.77 266.711C358.77 266.538 358.886 266.423 359.001 266.423H381.31C381.454 266.423 381.54 266.567 381.54 266.711V281.187C381.54 281.332 381.483 281.418 381.31 281.476L359.001 281.504C358.886 281.504 358.77 281.389 358.77 281.216V266.711Z" fill="white"/>
<path d="M388.169 112.785C388.111 138.803 388.342 136.443 387.938 137.509C386.47 141.25 378.554 148.56 375.473 151.238C373.804 149.079 367.614 140.732 367.816 137.998C367.845 137.653 368.133 132.731 368.133 132.587C377.545 128.903 384.542 118.972 388.169 112.785Z" fill="white"/>
<path d="M355.063 131.233C338.568 125.651 337.503 104.495 338.452 87.1682C338.712 82.4192 338.366 79.9439 338.683 75.6554C339.144 73.5831 339.748 71.7122 340.612 70.3595C343.98 65.1212 348.759 70.9352 355.927 72.9787C363.124 75.0222 371.933 69.9854 378.899 69.8702C385.866 69.7838 386.557 82.1604 385.492 86.3625C383.908 92.5794 389.895 104.754 388.744 91.7159C389.407 91.6583 389.349 91.1691 390.616 90.1329C392.746 88.3197 395.826 86.8806 397.985 87.7728C401.44 89.1544 401.986 96.7532 401.037 100.322C399.251 103.315 394.012 107.115 390.155 106.337C389.751 106.279 389.349 106.481 389.176 106.855C389.09 107.142 374.955 137.767 355.063 131.233Z" fill="white"/>
<path d="M430.974 494.754H370.779C370.808 484.105 383.647 485.4 390.757 483.817C398.271 482.147 397.206 476.622 403.741 474.578C404.604 474.319 405.496 474.089 406.474 474.29C410.879 475.24 412.261 484.364 419.084 485.055C424.64 485.601 427.95 481.974 427.288 476.362C431.088 481.485 431.233 490.091 430.974 494.754Z" fill="white"/>
<path d="M356.128 494.754H295.933C295.962 484.105 308.801 485.4 315.912 483.817C323.713 482.089 322.533 475.959 329.557 474.377C336.235 472.679 336.466 485.17 345.131 485.084C350.111 485.055 353.048 481.86 352.414 476.362C356.244 481.485 356.387 490.091 356.128 494.754Z" fill="white"/>
<path fill-rule="evenodd" clip-rule="evenodd" d="M443.492 239.482C455.064 217.119 431.689 161.424 416.719 149.075L416.69 149.046C416.029 148.672 411.192 143.75 396.194 141.477L390.005 136.267V121.704C393.69 118.105 406.011 104.492 407.825 87.5104C408.977 76.6879 406.213 73.3781 404.197 72.3421C404.889 68.9458 404.14 65.348 402.729 62.1534C401.261 58.9298 399.102 56.0803 396.915 53.2886C391.185 46.0643 384.852 39.0702 376.677 34.8107C368.53 30.551 358.195 29.4571 350.221 34.0624C345.616 36.7391 341.988 41.1139 336.95 42.8696C333.812 43.9633 330.387 43.9057 327.248 45.0282C324.14 46.1507 321.175 49.1153 321.836 52.3676C322.614 56.138 327.709 58.1528 327.652 61.9809C325.809 61.0888 323.391 61.6931 322.211 63.3336C321.031 64.9454 321.203 67.4495 322.614 68.9174C324.312 70.6731 327.248 70.6731 329.437 69.5505C330.559 68.975 331.538 68.169 332.401 67.248C332.833 77.6387 336.633 85.3517 336.547 87.0501L336.542 87.1351C335.963 97.7342 334.439 125.637 353.589 132.67C357.044 134.08 361.62 134.54 366.198 133.216C365.968 137.16 365.996 136.67 365.939 137.505L358.943 142.715C351.488 144.326 342.16 147.348 337.238 153.163L317.114 174.749C286.514 151.177 241.665 165.999 231.274 203.244C229.892 203.388 228.539 203.79 227.733 204.596C221.285 210.928 221.975 225.866 226.207 229.637C227.618 230.903 229.317 231.623 231.101 231.939C236.11 250.82 251.166 265.988 270.338 270.794C292.677 276.494 316.599 267.686 329.641 247.539C330.763 257.238 331.857 264.29 332.203 266.363L332.318 278.596C329.266 335.642 322.214 468.496 322.272 470.515C322.272 471.724 323.652 472.3 327.625 472.702L327.596 473.106C321.09 475.495 321.926 480.647 315.449 482.056C308.626 483.582 293.139 482.258 294.06 495.929C294.204 497.915 295.845 499.47 297.802 499.47H354.139C356.096 499.47 357.737 497.944 357.853 496.016C358.256 490.864 358.4 478.43 351.635 473.019L351.52 472.53C355.981 472.011 356.874 471.321 356.874 470.284C356.903 468.097 366.115 368.714 371.066 315.751L375.874 315.233C377.716 328.876 396.255 466.053 396.947 470.371C397.033 471.638 398.674 472.386 402.445 472.903V473.076C395.939 475.465 396.774 480.617 390.297 482.028C383.474 483.552 367.987 482.228 368.908 495.9C369.051 497.886 370.693 499.44 372.651 499.44H428.987C430.945 499.44 432.585 497.915 432.701 495.987C433.104 490.834 433.248 478.401 426.483 472.989L426.454 472.817C430.052 472.27 431.492 471.521 431.492 470.197L416.493 279.715V270.13C417.444 266.13 419.054 258.39 420.522 250.391L420.519 250.391L420.523 250.386L420.522 250.391C432.813 248.866 440.555 245.21 443.492 239.482ZM359.001 266.423C358.886 266.423 358.77 266.538 358.77 266.711V281.216C358.77 281.389 358.886 281.504 359.001 281.504L381.31 281.476C381.483 281.418 381.54 281.332 381.54 281.187V266.711C381.54 266.567 381.454 266.423 381.31 266.423H359.001ZM383.412 266.567C400.454 266.624 415.193 265.991 415.568 265.963C416.575 261.213 417.525 256.407 418.619 250.622C414.473 251.025 410.098 251.227 405.549 251.227C379.094 251.227 348.579 245.066 348.234 244.98L347.946 244.922C347.514 244.807 347.198 244.405 347.226 243.973V243.915C342.419 245.729 336.604 247.11 331.479 246.995C332.199 253.499 332.947 258.824 333.466 262.278C337.927 263.948 345.903 265.156 357.129 265.847C357.446 265.098 358.165 264.581 359.001 264.581H381.339C382.433 264.581 383.326 265.444 383.412 266.567ZM338.993 221.696C339.656 222.213 339.368 223.22 338.534 223.307C338.073 223.336 325.895 221.839 320.944 227.279C318.986 229.437 318.44 232.489 319.332 236.317C320.11 239.742 321.923 242.216 324.715 243.627C332.228 247.456 344.722 242.908 347.4 241.843L348.81 220.66C347.486 219.651 342.764 216.083 338.245 213.463C338.476 216.371 338.447 218.701 338.303 221.263C338.476 221.379 338.505 221.408 338.878 221.609C338.936 221.638 338.965 221.667 338.993 221.696ZM349.072 243.281C369.051 247.225 432.441 256.896 441.855 238.648C453.514 216.139 427.864 159.728 415.542 150.517C411.57 147.207 405.006 144.762 396.513 143.409C394.988 151.007 390.987 160.736 383.963 166.233C383.732 166.435 383.415 166.492 383.128 166.406C382.408 166.175 382.494 165.427 382.091 164.507C380.019 158.375 378.637 154.288 375.355 153.512C371.929 154.662 369.079 157.742 366.373 163.297C366.085 163.902 365.279 163.988 364.847 163.498C360.155 158.145 357.708 151.065 358.284 144.762C349.906 146.661 343.516 149.51 339.86 153.022C339.572 153.741 331.396 158.548 329.208 187.618C333.987 194.756 336.952 202.814 337.988 211.247C341.99 213.406 346.222 216.457 348.553 218.184L348.64 216.573C348.668 216.112 349.043 215.737 349.504 215.708C352.382 215.537 372.591 214.212 377.369 213.895C385.487 212.514 393.807 210.614 395.966 208.83C402.818 203.16 402.645 197.893 401.781 188.28C401.263 186.236 400.802 184.221 400.4 182.321C400.313 181.832 400.63 181.343 401.119 181.227C401.609 181.141 402.098 181.458 402.212 181.947C404.862 194.813 411.195 212.168 411.253 212.341C411.454 212.917 411.051 213.55 410.446 213.579C397.061 214.442 443.237 211.449 350.454 217.464L350.338 219.537C350.367 219.565 350.367 219.594 350.396 219.622C350.569 219.795 350.655 220.026 350.655 220.256C350.655 220.399 349.216 242.62 349.101 242.879L349.072 243.281ZM338.452 87.1682C337.503 104.495 338.568 125.651 355.063 131.233C374.955 137.767 389.09 107.142 389.176 106.855C389.349 106.481 389.751 106.279 390.155 106.337C394.012 107.115 399.251 103.315 401.037 100.322C401.986 96.7532 401.44 89.1544 397.985 87.7728C395.826 86.8806 392.746 88.3197 390.616 90.1329C389.349 91.1691 389.407 91.6583 388.744 91.7159C389.895 104.754 383.908 92.5794 385.492 86.3625C386.557 82.1604 385.866 69.7838 378.899 69.8702C371.933 69.9854 363.124 75.0222 355.927 72.9787C348.759 70.9352 343.98 65.1212 340.612 70.3595C339.748 71.7122 339.144 73.5831 338.683 75.6554C338.366 79.9439 338.712 82.4192 338.452 87.1682ZM387.938 137.509C388.342 136.443 388.111 138.803 388.169 112.785C384.542 118.972 377.545 128.903 368.133 132.587C368.133 132.731 367.845 137.653 367.816 137.998C367.614 140.732 373.804 149.079 375.473 151.238C378.554 148.56 386.47 141.25 387.938 137.509ZM328.953 174.695C329.759 169.917 330.939 165.053 332.84 160.592L318.618 175.875C320.662 177.603 322.619 179.473 324.433 181.488C324.52 181.2 324.577 180.941 324.664 180.682C325.095 179.185 326.88 176.825 328.953 174.695ZM233.84 205.06C232.458 204.916 230.04 204.945 229.09 205.866C223.477 211.362 223.994 225.092 227.507 228.2C230.559 230.907 235.596 230.791 238.993 228.777C239.425 228.546 239.483 228.287 239.511 228.085C239.598 226.876 237.582 224.546 235.539 222.876C234.703 222.185 235.539 220.861 236.517 221.322C237.122 221.609 238.647 222.099 240.288 220.487C241.67 219.164 237.928 215.248 236.46 214.011C235.912 213.551 236.085 212.63 236.805 212.428C237.611 212.198 239.799 211.306 240.317 209.981C241.008 208.169 238.13 205.549 233.84 205.06ZM233.121 232.116C238.101 249.845 252.379 264.35 270.832 268.985C292.106 274.424 315.28 266.223 328.005 246.622C322.305 245.585 318.763 242.19 317.525 236.721C314.848 224.977 324.463 220.688 336.468 221.293C338.453 190.438 313.869 165.168 283.873 165.168C260.612 165.168 239.857 180.423 233.265 203.16C236.344 203.333 239.886 204.599 241.526 207.16C242.937 209.405 242.419 211.938 238.762 213.636C241.066 215.911 243.887 219.595 241.584 221.811C240.605 222.732 239.655 223.193 238.791 223.366C240.115 224.775 241.468 226.618 241.354 228.229C241.297 228.863 241.008 229.755 239.915 230.388C238.101 231.453 235.683 232.172 233.121 232.116ZM295.933 494.754H356.128C356.387 490.091 356.244 481.485 352.414 476.362C353.048 481.86 350.111 485.055 345.131 485.084C336.466 485.17 336.235 472.679 329.557 474.377C322.533 475.959 323.713 482.089 315.912 483.817C308.801 485.4 295.962 484.105 295.933 494.754ZM370.779 494.754H430.974C431.233 490.091 431.088 481.485 427.288 476.362C427.95 481.974 424.64 485.601 419.084 485.055C412.261 484.364 410.879 475.24 406.474 474.29C405.496 474.089 404.604 474.319 403.741 474.578C397.206 476.622 398.271 482.147 390.757 483.817C383.647 485.4 370.808 484.105 370.779 494.754ZM403.568 471.153C409.614 471.872 419.343 471.872 425.245 471.124C428.441 470.721 429.42 470.267 429.68 470.008L414.825 281.425C404.605 283.153 392.168 283.383 381.863 283.182C381.315 283.355 382.582 283.239 359.005 283.268C358.113 283.268 357.365 282.692 357.077 281.886C345.849 280.994 336.983 279.929 334.133 279.555C328.001 394.16 324.316 464.765 324.143 470.089C327.972 471.73 351.692 471.471 355.09 469.888C355.636 461.827 368.764 320.91 369.34 314.78C369.397 314.349 369.743 314.003 370.174 313.945L376.623 313.255C377.112 313.226 377.573 313.571 377.631 314.06C377.831 315.585 398.213 466.376 398.818 470.031C399.739 470.692 403.021 471.067 403.568 471.153Z" fill="#263238"/>
<path d="M332.84 160.592C330.939 165.053 329.759 169.917 328.953 174.695C326.88 176.825 325.095 179.185 324.664 180.682C324.577 180.941 324.52 181.2 324.433 181.488C322.619 179.473 320.662 177.603 318.618 175.875L332.84 160.592Z" fill="#92E3A9"/>
<path d="M369.079 88.2098C367.64 88.2098 366.459 89.9656 366.459 92.1242C366.459 94.2829 367.611 96.0386 369.079 96.0386C370.519 96.0386 371.699 94.2829 371.699 92.1242C371.67 89.9656 370.519 88.2098 369.079 88.2098Z" fill="#263238"/>
<path d="M349.874 92.1223C349.874 89.9636 348.694 88.208 347.254 88.208C345.815 88.208 344.635 89.9636 344.635 92.1223C344.635 94.2809 345.786 96.0367 347.254 96.0367C348.694 96.0367 349.874 94.2809 349.874 92.1223Z" fill="#263238"/>
<path d="M364.584 85.0121C367.117 84.6667 369.45 84.3789 372.155 85.0408C372.99 85.2135 373.796 85.5301 374.745 85.7891C372.558 81.9036 366.801 82.0763 364.584 85.0121Z" fill="#263238"/>
<path d="M351.598 84.4372C348.863 81.0122 343.164 82.0196 341.437 85.3295C343.279 84.7827 344.862 84.2934 346.474 84.1495C348.748 83.9192 350.245 84.2934 351.598 84.4372Z" fill="#263238"/>
<path d="M356.234 107.691C357.241 107.317 357.932 106.655 358.565 105.964C357.702 106.339 356.839 106.77 356.032 106.799C354.679 106.914 353.729 105.936 354.075 103.719C354.277 102.165 356.003 95.8906 356.061 90.0764C354.133 94.4224 352.463 101.589 352.319 103.575C352.29 104.554 352.319 105.734 353.068 106.741C353.873 107.72 355.082 108.037 356.234 107.691Z" fill="#263238"/>
<path d="M366.198 111.464C349.012 111.55 349.387 111.234 348.896 111.723C348.723 111.896 348.637 112.126 348.637 112.385C348.637 112.587 348.695 117.364 351.631 120.185C353.329 121.854 355.488 122.401 357.878 122.2C360.642 121.94 362.887 120.818 364.557 118.832C366.86 116.041 367.119 112.587 367.119 112.443C367.177 111.925 366.744 111.464 366.198 111.464ZM362.973 117.825C361.995 117.421 360.613 117.106 358.684 117.048C355.777 116.962 353.992 117.911 352.898 118.89C351.199 117.278 350.681 114.688 350.537 113.335H365.133C364.787 114.918 364.125 116.529 362.973 117.825Z" fill="#263238"/>
<path d="M277.261 208.916C277.261 205.376 280.544 204.167 284.113 204.167C286.042 204.167 287.653 204.57 288.949 205.405C290.244 206.239 291.022 207.276 291.253 208.513C291.568 209.204 292.116 209.549 292.95 209.549C298.506 209.435 298.737 209.808 299.342 209.204C299.571 208.974 299.687 208.686 299.687 208.341C299.428 203.909 295.052 198.756 287.539 197.72C287.424 193.806 287.798 193.202 287.165 192.597C286.905 192.337 286.588 192.223 286.157 192.223C282.731 192.309 282.242 191.993 281.58 192.597C280.918 193.23 281.264 193.892 281.177 197.605C272.829 198.641 268.941 203.707 268.941 209.089C268.941 212.428 270.007 214.961 272.137 216.745C278.701 222.214 292.633 221.149 292.633 227.366C292.633 228.949 291.943 230.187 290.561 231.108C287.452 233.18 277.982 233.554 276.139 227.827C275.62 226.963 275.16 226.733 274.354 226.733H269.114C268.395 226.733 267.848 227.366 267.848 227.942C268.021 231.942 270.496 235.022 274.037 236.951C276.023 238.045 278.413 238.706 281.205 238.995V243.053C281.205 243.945 281.868 244.434 282.587 244.434C285.898 244.348 286.588 244.664 287.193 244.06C287.826 243.426 287.481 242.764 287.567 238.995C294.966 238.217 300.982 234.389 300.982 227.05C300.982 224.776 300.492 222.905 299.543 221.408C294.447 213.723 277.261 216.284 277.261 208.916Z" fill="white"/>
<path d="M288.333 84.5075V6.38964C288.333 2.84944 285.454 0 281.941 0H152.597C149.057 0 146.207 2.87817 146.207 6.38964V84.5075C146.207 88.0188 149.085 90.8971 152.597 90.8971H158.413C160.571 90.8971 162.443 92.4225 162.875 94.5523L164.717 103.619C165.264 106.324 168.574 107.331 170.561 105.403L183.919 92.221C184.782 91.3576 185.904 90.897 187.113 90.897H281.909C285.478 90.897 288.333 88.0189 288.333 84.5075ZM182.652 90.8971L169.295 104.08C168.345 105.001 166.79 104.511 166.531 103.245L164.689 94.1783C164.084 91.2137 161.436 89.0551 158.413 89.0551H152.598C150.094 89.0551 148.049 87.0116 148.049 84.5075V6.38972C148.049 3.8857 150.094 1.84213 152.598 1.84213H281.942C284.446 1.84213 286.491 3.88563 286.491 6.38972V84.5075C286.491 87.0115 284.446 89.0551 281.942 89.0551H187.146C185.449 89.0551 183.861 89.7171 182.652 90.8971Z" fill="#92E3A9"/>
<path d="M267.174 36.6435H257.473C256.206 36.6435 255.14 37.6797 255.14 38.9461V76.9676C255.14 78.234 256.178 79.2701 257.473 79.2701H267.174C268.469 79.2701 269.506 78.234 269.506 76.9676V38.9461C269.506 37.6797 268.469 36.6435 267.174 36.6435ZM267.663 76.9963C267.663 77.2553 267.433 77.4568 267.174 77.4568H257.473C257.214 77.4568 256.983 77.2553 256.983 76.9963V38.9748C256.983 38.7158 257.185 38.5144 257.473 38.5144H267.174C267.462 38.5144 267.663 38.7158 267.663 38.9748V76.9963Z" fill="#92E3A9"/>
<path d="M267.663 76.9963C267.663 77.2553 267.433 77.4568 267.174 77.4568H257.473C257.214 77.4568 256.983 77.2553 256.983 76.9963V38.9748C256.983 38.7158 257.185 38.5144 257.473 38.5144H267.174C267.462 38.5144 267.663 38.7158 267.663 38.9748V76.9963Z" fill="#92E3A9"/>
<path d="M177.073 64.0092H167.372C166.105 64.0092 165.069 65.0453 165.069 66.3405V76.9898C165.069 78.2562 166.105 79.2923 167.372 79.2923H177.073C178.369 79.2923 179.405 78.2562 179.405 76.9898V66.3405C179.405 65.0454 178.369 64.0092 177.073 64.0092ZM177.563 76.9897C177.563 77.2487 177.333 77.4503 177.073 77.4503H167.372C167.113 77.4503 166.912 77.2487 166.912 76.9897V66.3405C166.912 66.0527 167.113 65.8511 167.372 65.8511H177.073C177.361 65.8511 177.563 66.0814 177.563 66.3405V76.9897Z" fill="#92E3A9"/>
<path d="M177.563 76.9897C177.563 77.2487 177.333 77.4503 177.073 77.4503H167.372C167.113 77.4503 166.912 77.2487 166.912 76.9897V66.3405C166.912 66.0527 167.113 65.8511 167.372 65.8511H177.073C177.361 65.8511 177.563 66.0814 177.563 66.3405V76.9897Z" fill="#92E3A9"/>
<path d="M222.124 57.3334H212.422C211.155 57.3334 210.119 58.3695 210.119 59.6648V76.9918C210.119 78.2583 211.155 79.2944 212.422 79.2944H222.124C223.419 79.2944 224.455 78.2583 224.455 76.9918V59.6648C224.455 58.3696 223.419 57.3334 222.124 57.3334ZM222.613 76.9918C222.613 77.2508 222.383 77.4523 222.124 77.4523H212.422C212.164 77.4523 211.962 77.2508 211.962 76.9918V59.6647C211.962 59.4057 212.164 59.1754 212.422 59.1754H222.124C222.383 59.1754 222.613 59.4057 222.613 59.6647V76.9918Z" fill="#92E3A9"/>
<path d="M222.613 76.9918C222.613 77.2508 222.383 77.4523 222.124 77.4523H212.422C212.164 77.4523 211.962 77.2508 211.962 76.9918V59.6647C211.962 59.4057 212.164 59.1754 212.422 59.1754H222.124C222.383 59.1754 222.613 59.4057 222.613 59.6647V76.9918Z" fill="#92E3A9"/>
<path d="M244.667 43.4075H234.966C233.67 43.4075 232.634 44.4436 232.634 45.7388V76.9964C232.634 78.2627 233.67 79.2989 234.966 79.2989H244.667C245.934 79.2989 246.999 78.2627 246.999 76.9964V45.7388C246.97 44.4436 245.934 43.4075 244.667 43.4075ZM245.128 76.9963C245.128 77.2552 244.927 77.4568 244.638 77.4568H234.937C234.679 77.4568 234.448 77.2265 234.448 76.9963V45.7388C234.448 45.4798 234.679 45.2495 234.937 45.2495H244.638C244.898 45.2495 245.128 45.451 245.128 45.7388V76.9963Z" fill="#92E3A9"/>
<path d="M245.128 76.9963C245.128 77.2552 244.927 77.4568 244.638 77.4568H234.937C234.679 77.4568 234.448 77.2265 234.448 76.9963V45.7388C234.448 45.4798 234.679 45.2495 234.937 45.2495H244.638C244.898 45.2495 245.128 45.451 245.128 45.7388V76.9963Z" fill="#92E3A9"/>
<path d="M199.609 55.7788H189.908C188.612 55.7788 187.576 56.8149 187.576 58.0813V76.9624C187.576 78.2288 188.612 79.2649 189.908 79.2649H199.609C200.876 79.2649 201.912 78.2288 201.912 76.9624V58.0813C201.912 56.8149 200.876 55.7788 199.609 55.7788ZM200.07 76.9911C200.07 77.2502 199.869 77.4516 199.609 77.4516H189.908C189.621 77.4516 189.419 77.2502 189.419 76.9911V58.11C189.419 57.851 189.649 57.6495 189.908 57.6495H199.609C199.869 57.6495 200.07 57.851 200.07 58.11V76.9911Z" fill="#92E3A9"/>
<path d="M200.07 76.9911C200.07 77.2502 199.869 77.4516 199.609 77.4516H189.908C189.621 77.4516 189.419 77.2502 189.419 76.9911V58.11C189.419 57.851 189.649 57.6495 189.908 57.6495H199.609C199.869 57.6495 200.07 57.851 200.07 58.11V76.9911Z" fill="#92E3A9"/>
<path d="M194.746 48.3001C199.236 48.3001 202.172 43.4359 199.841 39.4066L213.256 27.9225C216.192 30.5417 220.452 29.7646 222.353 26.5985L234.04 31.8944C233.119 35.6649 235.997 39.2051 239.769 39.2051C244.202 39.2051 247.282 34.3985 244.836 30.2542L258.653 17.9353C262.683 21.0437 268.24 18.1079 268.24 13.3013C268.24 10.0489 265.591 7.37219 262.31 7.37219C257.847 7.37219 254.797 12.2076 257.272 16.3813L243.454 28.6715C240.604 26.3977 236.746 27.1748 234.846 29.9955L223.043 24.6421C223.733 20.814 220.769 17.648 217.228 17.648C213.053 17.648 209.859 22.0229 211.988 26.2541L198.459 37.7956C193.824 34.1691 187.779 38.3137 188.93 43.6096L177.674 48.2147C176.753 45.9697 174.623 44.5018 172.204 44.5018C168.923 44.5018 166.274 47.1498 166.274 50.4309C166.274 53.7121 168.923 56.36 172.204 56.36C175.371 56.36 178.192 53.856 178.106 50.287L189.765 45.538C190.945 47.3801 192.816 48.3001 194.746 48.3001ZM262.339 9.24261C264.584 9.24261 266.427 11.0846 266.427 13.3297C266.427 16.6683 262.627 18.5967 259.921 16.6108C258.913 15.8913 258.251 14.6248 258.251 13.3297C258.251 11.0846 260.065 9.24261 262.339 9.24261ZM236.487 30.9155C238.762 27.6631 243.886 29.3901 243.886 33.3044C243.886 35.5494 242.043 37.3915 239.798 37.3915C236.66 37.3915 234.501 33.9088 236.487 30.9155ZM217.286 19.4888C220.481 19.4888 222.439 23.0003 220.769 25.7346C218.582 29.246 213.198 27.6342 213.198 23.576C213.198 21.3309 215.011 19.4888 217.286 19.4888ZM176.293 50.6601C176.207 52.8476 174.421 54.5744 172.234 54.5744C169.988 54.5744 168.146 52.7324 168.146 50.4873C168.146 48.2423 169.988 46.4003 172.234 46.4003C174.537 46.4003 176.322 48.2999 176.322 50.4873H177.243L176.293 50.6601ZM197.25 39.176C198.142 39.838 198.834 41.0468 198.834 42.3707C198.834 46.3715 193.652 47.9833 191.407 44.7022C190.946 44.0402 190.687 43.2342 190.687 42.3707C190.658 40.1258 194.602 37.0748 197.25 39.176Z" fill="#92E3A9"/>
</svg>
